<svg width="146" height="104" viewBox="0 0 146 104" fill="none" xmlns="http://www.w3.org/2000/svg">
<g clip-path="url(#clip0_2183_3295)">
<path fill-rule="evenodd" clip-rule="evenodd" d="M84.3478 103.143C85.2026 103.274 86.3423 103.56 87.0664 103.274C87.8619 101.798 87.7313 99.7991 87.8618 97.8236C87.9924 95.8243 88.1468 93.706 88.2774 91.8376C90.8298 91.3377 91.3403 89.2075 91.9695 86.8631C92.3613 85.4112 92.6462 83.8641 92.9667 82.4955C93.7503 84.9471 94.5932 87.3391 95.8159 89.3265C96.3264 89.6597 96.7776 90.0525 97.2881 90.3857C97.5849 90.9331 98.7127 90.6356 98.9382 91.2544C99.1519 94.5866 99.3538 97.8712 100.03 100.656C100.256 101.584 100.612 102.465 100.814 103.357C101.586 103.619 103.176 103.631 103.699 103.119C104.447 101.703 104.091 99.2279 104.482 97.4785C104.506 95.3126 104.625 93.23 105.088 91.4806C111.724 91.5163 118.04 91.8971 124.629 91.9804C124.914 95.8124 125.282 99.5611 125.59 103.381C126.516 103.988 127.81 104.262 129.033 103.679C129.639 102.941 129.449 101.941 129.52 100.954C129.746 97.9783 129.9 94.5271 130.232 91.6948C131.313 90.6594 132.31 89.5526 133.236 88.3745C134.589 85.6492 135.171 82.1861 135.195 78.1756C135.86 76.0334 136.239 73.6176 136.501 71.0827C137.937 70.928 139.124 70.5234 139.362 69.2143C139.338 68.1195 138.899 67.4768 138.234 67.0603C138.008 66.501 137.32 66.3463 137.13 66.1797C136.857 65.9297 136.346 65.894 136.394 65.4656C136.75 62.8475 136.584 59.9437 136.406 57.1232C136.239 54.5646 136.085 52.0178 135.883 49.5187C135.586 45.7105 134.411 42.2712 133.687 39.2246C132.939 37.9155 132.714 36.0471 131.788 34.9165C131.253 33.3694 130.078 32.5126 129.366 31.1559C126.54 28.1807 122.682 26.3004 118.206 25.0389C116.485 24.9675 115.381 24.9199 113.683 25.1341C113.825 23.8727 113.303 23.3133 113.268 22.2423C111.724 19.2314 110.157 16.2443 107.854 14.0189C105.278 12.0196 102.559 10.175 99.0688 9.1277C96.3264 9.33001 91.9695 9.0325 88.9541 9.52043C87.66 9.55613 87.2089 9.35382 86.0573 9.57993C83.5286 10.5915 81.3442 11.9125 79.2667 13.3406C77.2485 14.8876 75.6695 16.8751 73.9481 18.7078C73.4495 19.8264 72.9034 20.8975 72.3929 22.0043C71.36 18.8863 69.8879 16.2324 67.7154 14.3045C67.4067 14.3164 67.2524 14.1736 67.1693 13.9594C65.0917 13.0787 63.2397 11.6149 60.9604 10.8295C59.975 10.4844 58.7166 10.2226 57.8737 9.98455C57.8025 9.96075 57.6006 9.66323 57.5057 9.62753C56.9477 9.46092 56.1285 9.42522 55.5112 9.30621C53.6355 8.96109 51.8784 8.94919 49.5397 9.0682C49.3141 9.0801 49.2904 9.30621 49.0055 9.25861C43.6275 9.94885 39.2231 11.5792 36.0889 14.4235C35.4004 15.2447 34.5219 15.8278 33.7858 16.6489C31.5658 19.1005 30.6398 22.2899 30.0106 26.3361C27.1376 26.4194 25.06 27.2525 22.8163 27.9308C20.5725 28.6687 18.5662 29.6445 16.9041 30.9536C14.7078 33.6312 12.9033 36.6897 11.4906 40.129C10.5764 41.6166 10.3627 43.7825 9.42487 45.2463C8.95 47.2099 8.20208 48.9236 7.91715 51.0777C8.47513 56.7424 6.61125 61.4551 7.86966 66.6676C6.81307 67.4768 5.56654 68.8811 6.14825 70.69C6.64687 71.4755 8.15459 71.1899 8.87877 71.7254C8.53449 72.2252 8.80754 73.3082 8.74818 74.0817C9.54359 75.8311 9.15182 77.1045 9.22305 79.5084C9.78102 81.3293 10.1253 83.3762 10.9563 84.9114C11.0988 86.0062 11.8348 86.4585 12.2741 87.2439C12.4522 88.2912 13.0695 88.8862 13.5919 89.5764C14.1855 90.0763 15.4914 89.8145 15.9662 90.4333C16.4767 93.4085 16.6904 96.705 17.7707 99.097C18.0557 99.9777 18.0913 101.108 19.0766 101.239C19.599 101.62 20.4182 101.084 21.0592 101.013C22.3176 98.252 21.819 93.8012 22.6501 90.6475C28.2535 90.1358 34.1301 90.35 39.8285 90.2905C40.2203 93.4561 40.6002 96.6455 41.2888 99.5016C41.6449 100.358 41.4906 101.763 42.4285 102.013C42.6897 102.477 43.5326 102.025 43.8768 101.989C44.3992 101.584 44.7791 102.155 45.1352 101.596C45.8832 99.9777 45.7288 97.9069 45.9188 95.9552C46.1206 93.9916 46.5005 92.0875 46.7023 90.3143C47.474 90.112 47.8064 89.4812 48.4831 89.1837C48.9223 88.1841 49.599 87.4105 49.8721 86.2561C50.2401 85.8991 50.2045 85.1494 50.5607 84.7924C50.62 84.1378 50.5725 83.3881 51.0711 83.1501C51.8072 86.149 53.3743 88.2674 55.1907 90.1358C55.7486 90.4214 56.5678 90.4214 57.1851 90.6356C56.9477 92.4088 57.4226 94.42 57.66 96.4312C57.9093 98.4544 57.9568 100.608 58.859 102.025C59.88 102.334 60.7823 102.382 61.7558 101.965C63.5009 99.6206 62.6224 94.7413 63.1685 91.2425C69.603 91.7305 76.0494 92.2184 83.0775 92.0994C83.4337 95.8243 83.1131 100.299 84.3478 103.143Z" fill="#E31E25"/>
<path fill-rule="evenodd" clip-rule="evenodd" d="M48.2931 11.7818C48.8392 11.7699 49.3734 11.758 49.9195 11.7461C49.872 12.472 50.2638 12.7577 50.1332 13.555C49.504 13.4241 49.4447 13.8406 48.8748 13.7692C48.6492 13.1266 48.2931 12.6505 48.2931 11.7818Z" fill="white"/>
<path fill-rule="evenodd" clip-rule="evenodd" d="M47.391 11.9834C47.9727 12.1381 47.8421 13.7447 47.7946 13.9708C47.1536 13.6614 46.3107 13.8637 45.6221 14.0184C45.4678 13.5543 45.4203 12.995 45.0522 12.7569C45.444 12.1262 46.8686 12.4832 47.391 11.9834Z" fill="white"/>
<path fill-rule="evenodd" clip-rule="evenodd" d="M50.9999 11.9125C51.2967 11.9125 51.6053 11.9006 51.9021 11.8887C51.8665 12.4956 51.8309 13.1263 51.5697 13.531C50.9643 13.4358 51.1661 12.4837 50.9999 11.9125Z" fill="white"/>
<path fill-rule="evenodd" clip-rule="evenodd" d="M52.8162 11.8765C53.481 11.8646 54.1458 11.8527 54.8106 11.8408C56.5795 12.3883 58.8233 12.4597 60.4497 13.1737C60.5922 13.733 59.963 13.5307 60.1054 14.0901C59.5712 14.4233 58.574 13.9115 57.9329 13.7687C56.2234 13.8282 54.87 13.5188 53.0536 13.6854C52.6974 13.3522 52.8755 12.4835 52.8162 11.8765Z" fill="white"/>
<path fill-rule="evenodd" clip-rule="evenodd" d="M91.8628 11.2458C92.4327 11.1625 92.397 13.0904 92.2664 13.2332C91.566 13.5426 92.1833 12.4478 91.7085 12.5192C91.8272 11.9598 91.3879 11.9955 91.5066 11.4362C91.7203 11.46 91.8272 11.3886 91.8628 11.2458Z" fill="white"/>
<path fill-rule="evenodd" clip-rule="evenodd" d="M93.3109 11.2224C94.0945 11.2105 94.878 11.1867 95.6615 11.1748C98.2733 11.7698 100.576 12.71 103.117 13.3764C104.292 14.3761 105.396 15.4353 106.441 16.5658C106.121 17.0299 105.396 17.1014 105.195 17.6726C103.153 15.7923 100.743 14.3047 97.6916 13.4716C95.9939 13.7097 94.9967 13.1979 93.5246 13.1979C93.3109 12.71 93.3109 11.9603 93.3109 11.2224Z" fill="white"/>
<path fill-rule="evenodd" clip-rule="evenodd" d="M90.4261 11.6387C90.3193 12.436 90.7585 12.6502 90.6398 13.4476C88.3248 14.0069 86.0573 14.6019 84.1697 15.5778C84.1341 14.9352 83.8492 14.5543 83.5999 14.1378C84.4309 13.4 85.5231 12.8644 86.639 12.4479C87.7312 12.0314 89.0371 11.722 90.4261 11.6387Z" fill="white"/>
<path fill-rule="evenodd" clip-rule="evenodd" d="M43.9717 12.7812C44.0429 13.4477 44.4347 13.769 44.5534 14.3997C43.9124 14.4354 43.758 14.9353 43.1169 14.971C42.9626 14.3283 42.6302 13.8761 42.1791 13.5429C42.4996 13.0193 43.2713 12.936 43.9717 12.7812Z" fill="white"/>
<path fill-rule="evenodd" clip-rule="evenodd" d="M41.6448 13.7334C41.6092 14.6379 42.274 14.8045 42.4046 15.5304C41.4311 15.8398 40.8138 16.4825 40.0896 17.0299C39.6147 16.4111 39.2348 15.697 38.9618 14.8759C40.1252 14.7688 40.4458 13.8286 41.6448 13.7334Z" fill="white"/>
<path fill-rule="evenodd" clip-rule="evenodd" d="M62.0765 13.4953C62.3733 13.8642 61.8866 14.6259 61.3761 14.7806C61.3642 14.6021 61.1505 14.6497 61.0081 14.6021C61.3286 14.2093 61.2811 13.4477 62.0765 13.4953Z" fill="white"/>
<path fill-rule="evenodd" clip-rule="evenodd" d="M69.425 19.505C69.0926 20.0167 68.4515 20.219 67.8223 20.4451C66.6351 18.1602 65.3173 16.03 62.8243 15.1136C62.7293 14.5424 63.2991 14.6257 63.3466 14.1973C66.2433 15.0541 68.1784 16.9344 69.425 19.505Z" fill="white"/>
<path fill-rule="evenodd" clip-rule="evenodd" d="M38.0595 15.4473C38.748 15.84 38.7718 16.923 39.3654 17.4109C39.1754 18.0535 38.3563 18.1011 38.1307 18.7081C37.5015 18.3153 37.2047 17.5775 36.6467 17.1134C37.0029 16.4469 37.6914 16.1018 38.0595 15.4473Z" fill="white"/>
<path fill-rule="evenodd" clip-rule="evenodd" d="M66.8485 25.7291C66.1955 26.1099 65.9462 25.4434 65.5663 25.0269C65.5545 24.2296 65.0915 23.9202 64.8065 23.4084C64.7472 23.0395 64.3079 23.0633 64.2486 22.6944C62.0404 20.5523 59.6661 18.5886 56.0095 17.9698C51.795 17.7794 48.7796 18.2673 46.0966 19.624C44.6364 20.3618 43.2592 21.0759 41.9771 21.8851C41.3004 22.3612 40.8018 23.0038 40.3863 23.7297C40.5168 24.1225 40.9798 23.3727 41.0986 23.1704C41.5616 23.1347 41.7278 22.8253 41.9889 22.6111C42.6538 22.2422 43.2355 21.8018 43.9597 21.4805C45.1706 20.6951 46.8089 20.3142 48.0792 19.5883C51.1658 18.8505 55.0242 18.8148 58.0277 19.5645C58.9537 20.0762 59.7492 20.7189 60.7701 21.1354C61.5418 21.8137 62.2185 22.5873 63.1564 23.0752C63.4294 24.5747 64.4741 25.2768 65.0321 26.4788C63.3701 27.0738 61.9811 27.9188 60.5564 28.7518C57.8734 31.3224 55.4159 34.1071 53.6827 37.5941C52.7923 38.4866 52.6261 39.6767 52.1275 41.0691C51.3321 43.3064 50.5366 46.5553 49.9431 49.2686C48.8627 44.8535 47.9842 40.2122 45.8948 36.8443C44.0309 33.2384 41.9058 29.9062 38.831 27.5618C37.2996 27.4904 36.5873 26.574 35.1864 26.3717C35.5307 24.6342 36.5635 23.5512 37.2758 22.1588C38.3206 21.0878 39.0685 19.743 40.4694 19.0171C42.535 16.863 45.9541 16.0062 49.6225 15.3873C52.0325 15.4588 54.3475 14.9351 56.4844 15.066C59.3336 15.2326 61.613 16.3513 63.5837 17.2796C63.8805 17.708 64.2486 18.065 64.6878 18.3387C65.8869 20.1833 67.0622 23.0276 66.8485 25.7291Z" fill="white"/>
<path fill-rule="evenodd" clip-rule="evenodd" d="M82.5315 14.5303C82.8164 15.1015 83.2201 15.5418 83.2913 16.3273C82.4603 16.4106 82.2822 17.1365 81.4986 17.2674C81.1187 16.8628 80.8338 16.363 80.3827 16.0179C80.8457 15.28 81.9142 15.1253 82.5315 14.5303Z" fill="white"/>
<path fill-rule="evenodd" clip-rule="evenodd" d="M108.08 25.9677C108.139 26.6222 107.296 26.3961 107.011 26.7174C106.548 26.8126 106.18 26.9911 105.943 27.2887C105.1 27.5386 104.447 27.9789 103.794 28.4192C102.334 29.1452 101.396 30.3828 100.232 31.3944C99.0214 33.715 97.2169 35.4763 96.0297 37.8327C94.9494 40.2842 93.9759 42.8429 93.4773 45.8656C92.765 44.0805 92.4445 41.8908 91.9102 39.9153C91.0436 36.8092 89.0016 34.9289 87.6008 32.3941C86.4848 31.5253 85.6657 30.3471 84.4666 29.5617C83.4931 28.5977 81.9735 28.2169 80.9882 27.2768C82.021 24.6586 83.9561 22.9092 85.7369 21.017C88.2418 19.8745 91.0673 19.0296 94.9257 19.1962C95.9822 19.1605 96.8726 19.8031 97.8224 19.3152C97.3356 17.7919 95.08 18.1132 93.2755 17.9585C91.5185 18.1013 89.9632 18.4464 88.408 18.7797C87.019 19.2795 85.8437 19.9816 84.6447 20.6719C82.9589 22.6593 80.9169 24.3135 79.896 26.9316C78.6138 26.5389 77.5097 25.9677 76.0732 25.7416C76.3344 25.1703 76.4294 24.4325 76.7618 23.9208C77.0349 23.3614 77.7116 23.171 77.8184 22.4451C78.8394 21.7786 79.3024 20.5648 80.4777 20.0292C81.9854 18.1608 84.4903 17.2683 86.5442 15.9116C87.8738 15.5903 89.2153 15.2927 90.4975 14.9238C92.7294 15.0071 94.9494 15.0904 97.3713 14.9595C99.8525 15.3285 101.479 16.5899 103.212 17.7443C103.343 18.2917 103.984 18.6844 104.328 19.1724C104.577 19.5175 104.981 20.172 105.266 20.6005C106.251 22.0881 107.462 23.9089 108.08 25.9677Z" fill="white"/>
<path fill-rule="evenodd" clip-rule="evenodd" d="M79.3142 16.5898C79.6229 17.1968 80.2046 17.5062 80.4302 18.1964C78.0439 20.1006 76.0613 22.4093 74.9691 25.563C74.5892 25.2893 73.7701 25.4678 73.3308 25.2298C73.6395 23.0995 74.7079 21.6952 75.9426 20.4576C76.8686 18.97 78.0677 17.7561 79.3142 16.5898Z" fill="white"/>
<path fill-rule="evenodd" clip-rule="evenodd" d="M35.9345 17.8389C36.4925 18.184 36.7774 18.8147 37.2285 19.267C37.2048 20.0643 36.5162 20.2309 36.3619 20.9211C35.8039 20.5165 35.5427 19.8025 34.8898 19.505C35.1272 18.8385 35.6496 18.4458 35.9345 17.8389Z" fill="white"/>
<path fill-rule="evenodd" clip-rule="evenodd" d="M107.557 17.8154C107.45 18.5413 106.667 18.6127 106.132 18.934C106.263 18.2795 107.011 17.5179 107.557 17.8154Z" fill="white"/>
<path fill-rule="evenodd" clip-rule="evenodd" d="M34.1894 20.5996C34.8424 20.79 34.9255 21.5517 35.6615 21.6588C35.6022 22.2538 35.151 22.468 34.9611 22.944C34.2725 22.9202 34.0707 22.3966 33.5009 22.2538C33.5958 21.5636 33.9757 21.1708 34.1894 20.5996Z" fill="white"/>
<path fill-rule="evenodd" clip-rule="evenodd" d="M108.483 19.0645C109.065 19.8737 110.05 20.2664 110.335 21.3851C109.291 21.3851 108.994 22.0991 107.997 22.1586C107.724 21.4565 107.332 20.8734 106.881 20.3735C107.177 19.7071 108.02 19.5643 108.483 19.0645Z" fill="white"/>
<path fill-rule="evenodd" clip-rule="evenodd" d="M69.8168 20.9453C70.0305 22.3853 70.6597 23.3969 70.6241 25.0987C70.078 25.1106 69.5438 25.1225 68.9977 25.1344C68.7128 24.0752 68.594 22.8375 68.2023 21.8855C68.5109 21.3499 69.0452 21.0286 69.8168 20.9453Z" fill="white"/>
<path fill-rule="evenodd" clip-rule="evenodd" d="M32.9666 23.1582C33.3821 23.3962 33.6789 23.7651 34.0707 24.0389C33.8808 24.8124 33.5246 25.4074 33.394 26.2286C32.8242 26.2048 32.0644 26.3714 31.7676 26.0739C31.91 24.86 32.4918 24.0627 32.9666 23.1582Z" fill="white"/>
<path fill-rule="evenodd" clip-rule="evenodd" d="M110.727 22.8253C110.893 23.6941 110.869 24.777 111.499 25.1698C111.309 25.6339 110.537 25.5506 109.884 25.5625C109.682 24.7294 109.219 24.1582 109.112 23.218C109.872 23.3013 109.896 22.6706 110.727 22.8253Z" fill="white"/>
<path fill-rule="evenodd" clip-rule="evenodd" d="M37.9886 29.763C37.8699 30.4771 37.3 30.7627 37.1219 31.4172C34.9138 29.7868 30.0107 29.8106 26.7935 30.3581C26.8291 29.7035 26.2355 29.7035 26.2236 29.0966C28.2893 28.3587 30.7705 28.0255 33.6198 28.0374C35.4005 28.2635 36.6471 29.0609 37.9886 29.763Z" fill="white"/>
<path fill-rule="evenodd" clip-rule="evenodd" d="M76.6546 27.883C76.6665 28.49 76.6784 29.0969 76.6903 29.6919C76.1916 29.9776 75.2419 29.4301 74.5177 29.3706C71.8347 29.3349 69.3416 29.4896 67.4777 30.2394C66.7061 29.9419 66.3499 29.1921 65.9938 28.4543C68.938 27.4189 73.2118 27.5498 76.6546 27.883Z" fill="white"/>
<path fill-rule="evenodd" clip-rule="evenodd" d="M114.431 27.0978C114.538 27.3596 114.241 28.0379 114.633 28.0022C114.3 28.276 113.778 28.3712 113.196 28.395C113.315 27.8356 112.876 27.8713 112.994 27.312C113.671 27.4429 113.849 27.074 114.431 27.0978Z" fill="white"/>
<path fill-rule="evenodd" clip-rule="evenodd" d="M115.701 27.0736C116.057 27.0617 116.425 27.0617 116.781 27.0498C116.758 27.5615 116.959 28.2875 116.449 28.3232C115.701 28.4303 115.95 27.4901 115.701 27.0736Z" fill="white"/>
<path fill-rule="evenodd" clip-rule="evenodd" d="M134.399 65.4893C133.936 65.3584 133.699 64.9775 133.829 64.2278C133.734 63.609 133.877 63.2043 133.984 62.7759C133.96 61.6929 133.936 60.5981 133.912 59.5151C132.191 48.9116 131.799 36.9276 125.377 31.2271C123.999 30.8106 122.99 30.0133 121.542 29.6682C121.032 29.2754 120.426 28.9898 119.714 28.7994C119.453 28.2044 118.004 28.8589 118.064 27.9307C118.064 27.8116 118.064 27.6926 118.052 27.5736C118.028 27.3118 118.016 27.0619 118.218 27.0262C120.675 26.9905 121.993 28.1449 123.857 28.728C125.258 29.9181 126.718 31.0486 128.083 32.2625C128.831 33.3336 129.544 34.4403 130.315 35.4757C133.509 43.235 135.052 52.7436 134.886 64.0255C134.791 64.561 135.325 65.7273 134.399 65.4893Z" fill="white"/>
<path fill-rule="evenodd" clip-rule="evenodd" d="M77.9253 28.2168C78.9463 28.6333 79.7892 29.2284 80.6677 29.7877C80.3946 30.2875 80.0147 30.6921 79.7892 31.2515C79.0056 31.1444 78.6613 30.5731 77.9609 30.3827C77.9609 29.6687 77.9372 28.9427 77.9253 28.2168Z" fill="white"/>
<path fill-rule="evenodd" clip-rule="evenodd" d="M111.546 27.5267C112.294 27.1339 112.247 28.5025 111.926 28.6096C111.19 28.9905 111.237 27.6338 111.546 27.5267Z" fill="white"/>
<path fill-rule="evenodd" clip-rule="evenodd" d="M110.288 27.7285C110.299 28.0855 110.299 28.4545 110.311 28.8115C110.359 29.3946 109.67 29.2637 109.421 29.5612C109.088 29.7159 108.768 29.8825 108.341 29.942C107.961 30.5847 106.963 30.6323 106.56 31.2511C105.349 32.0961 104.209 33.0124 103.366 34.2144C101.336 36.2375 99.7098 38.6296 98.4513 41.3905C98.0002 41.2477 97.7272 40.9145 97.1692 40.8788C98.5226 33.5837 103.782 30.0611 110.288 27.7285Z" fill="white"/>
<path fill-rule="evenodd" clip-rule="evenodd" d="M24.787 29.6806C25.0481 29.9662 24.965 30.6088 25.3568 30.7516C25.0837 31.2039 24.597 31.4419 23.9203 31.5014C23.9678 30.704 23.3861 30.585 23.3505 29.8829C23.9203 29.9186 24.0984 29.5497 24.787 29.6806Z" fill="white"/>
<path fill-rule="evenodd" clip-rule="evenodd" d="M64.9135 28.8467C65.4003 29.3227 65.4359 30.2748 66.0295 30.6318C65.7327 30.9888 65.1985 31.1316 64.593 31.203C64.2962 30.6556 63.9519 30.1439 63.4771 29.7749C63.6789 29.2037 64.5455 29.2513 64.9135 28.8467Z" fill="white"/>
<path fill-rule="evenodd" clip-rule="evenodd" d="M22.0922 30.6325C22.2109 31.1799 22.4959 31.5726 22.6621 32.0724C22.5077 32.8103 21.8429 33.0602 21.2374 33.3696C20.9763 32.5961 20.3589 32.1915 20.1096 31.3941C20.7982 31.168 21.1187 30.5968 22.0922 30.6325Z" fill="white"/>
<path fill-rule="evenodd" clip-rule="evenodd" d="M38.7362 30.6562C40.1015 31.2037 40.98 32.2628 41.6923 33.5005C41.6092 34.2503 40.5526 34.0599 40.2677 34.6192C39.7453 33.6195 38.938 32.9293 38.2257 32.12C38.2257 31.4774 38.7243 31.2989 38.7362 30.6562Z" fill="white"/>
<path fill-rule="evenodd" clip-rule="evenodd" d="M63.5365 31.9533C61.0078 33.1909 59.3933 35.3093 57.8618 37.5109C57.3632 37.2967 56.9358 36.9992 56.2235 36.9992C57.0308 35.702 57.7787 34.3572 58.8591 33.3219C59.6663 32.0842 61.0197 31.3701 62.0526 30.3586C62.2306 30.3586 62.4087 30.3467 62.5987 30.3467C62.6818 31.1202 63.4178 31.2154 63.5365 31.9533Z" fill="white"/>
<path fill-rule="evenodd" clip-rule="evenodd" d="M81.4036 30.3232C81.9022 30.478 82.1871 30.8588 82.6858 31.0254C82.3652 31.7275 81.7716 32.156 81.0949 32.513C80.1927 31.7989 81.3324 31.1444 81.4036 30.3232Z" fill="white"/>
<path fill-rule="evenodd" clip-rule="evenodd" d="M20.181 34.298C19.3262 35.4881 18.0559 36.2854 17.1655 37.4398C14.8861 41.6764 13.4022 46.877 12.4168 52.5894C12.0963 54.434 11.7283 56.35 11.6333 58.2303C11.5383 60.1344 11.8114 61.86 11.194 63.4904C11.3484 64.2401 10.9328 64.4306 11.0516 65.1208C11.2296 65.8229 10.1018 65.2755 9.9831 65.6801C9.29453 65.8348 9.73379 64.8352 9.59133 64.4187C9.47261 63.9902 9.31827 63.5975 9.37763 62.9668C9.78128 58.9681 9.56758 54.9457 10.4105 51.3398C11.2178 47.841 11.8588 44.4017 13.8414 42.0215C14.4944 38.2133 16.3701 35.5714 18.3646 33.0484C18.4239 32.8104 18.6733 32.7509 18.7207 32.501C19.3499 32.6557 19.528 33.941 20.181 34.298Z" fill="white"/>
<path fill-rule="evenodd" clip-rule="evenodd" d="M45.1945 72.4038C44.3873 72.1896 43.6037 71.9635 42.8321 71.7254C39.9947 71.6659 37.6322 71.1066 35.0323 70.7972C27.0544 70.2617 20.2519 71.8206 14.2922 73.7605C13.9836 73.2725 14.0311 72.4276 13.8886 71.773C14.0548 70.6901 16.0255 71.3327 16.0255 70.0951C15.9543 67.8815 14.4822 67.1318 13.2357 66.1678C13.1169 61.6813 13.5562 57.2304 14.0548 53.1008C14.4822 49.5425 15.0046 46.7459 16.0255 43.6279C16.1086 43.3899 16.2986 43.1043 16.3698 42.89C17.1771 40.5337 18.6848 38.344 20.4062 36.6422C23.6116 35.0475 25.9622 32.6316 30.4498 32.2627C33.2871 32.1437 35.2935 32.8816 37.3473 33.5718C37.4304 33.7979 37.5847 33.9407 37.8934 33.9288C38.3683 34.2977 38.487 35.0356 39.1874 35.1665C40.3983 37.6061 41.823 39.8197 42.2385 43.0805C43.0932 45.889 43.5444 49.1141 43.8768 52.4701C44.4585 58.2658 45.3014 65.8703 45.1945 72.4038ZM25.2618 35.464C23.1486 36.6303 21.5697 38.3083 19.9314 39.9268C19.4446 41.1168 18.6136 41.9737 18.3761 43.4018C17.9488 43.8183 18.0675 44.7585 17.6876 45.2345C18.02 46.1508 17.1652 46.853 17.5451 47.2338C17.9844 45.9961 18.8985 45.2107 19.1003 43.7588C19.6702 42.5925 20.24 41.4144 20.8336 40.2838C21.8308 39.5221 22.4957 38.4511 23.4929 37.6894C24.4901 36.7612 26.0928 36.4042 27.0663 35.4402C26.5439 35.6782 26.1403 35.3331 25.2618 35.464ZM38.3683 39.1889C39.4723 41.5096 40.612 44.1039 41.2412 47.1029C41.8823 50.1376 42.1197 53.4222 43.0576 56.314C43.1763 55.6595 42.9864 54.5765 43.1763 53.5888C42.3572 47.8526 41.633 41.9975 38.5345 38.6415C38.3564 38.6415 38.1783 38.6534 37.9884 38.6534C37.9884 38.9628 38.1427 39.1056 38.3683 39.1889Z" fill="white"/>
<path fill-rule="evenodd" clip-rule="evenodd" d="M115.226 30.5254C113.018 31.4179 110.584 32.1082 108.958 33.5601C108.02 34.7263 106.94 35.7617 105.765 36.7019C103.723 39.7722 101.704 42.8664 101.467 47.6743C102.227 47.4482 102.037 46.3295 102.512 45.8416C102.761 45.1871 103.129 44.6634 103.188 43.8304C103.794 42.5808 104.423 41.355 104.922 39.9864C106.287 37.6301 107.866 35.4761 109.86 33.7148C111.475 33.0721 113.173 32.5247 114.704 31.7988C117.007 31.8821 118.503 31.1799 120.842 31.3108C122.931 32.2748 124.676 33.5958 126.338 35.0001C130.161 42.9973 132.345 53.6246 131.847 65.5253C131.384 65.8586 130.553 65.811 130.232 66.287C129.912 67.0367 129.579 67.7865 129.746 69.0123C129.734 70.2023 131.016 70.0357 131.23 70.9759C131.182 72.1778 130.79 73.0347 130.933 74.4271C121.554 72.3206 107.308 70.4046 96.552 73.6892C96.0059 71.7494 96.552 69.3098 96.9675 67.7032C97.1456 66.6559 96.6232 66.3346 96.5639 65.5373C96.5757 57.3258 97.7511 50.2211 99.5556 43.7233C100.636 40.6172 102.417 38.1894 104.281 35.8331C106.37 33.7029 108.697 31.7988 111.95 30.7753C112.247 30.8229 112.258 30.5968 112.484 30.5849C113.422 30.573 114.324 30.5492 115.226 30.5254ZM123.715 38.8797C126.089 43.2472 127.763 48.3526 128.024 54.9218C128.76 54.9099 128.155 53.6246 128.535 53.2795C128.511 52.2561 128.487 51.2207 128.475 50.1972C127.953 46.6746 126.956 43.64 125.757 40.8314C125.317 40.6172 125.377 39.8793 125.009 39.5818C124.973 38.9987 124.023 38.8083 124.439 38.3203C124.201 38.3203 124.19 38.0942 123.893 38.1537C123.833 38.3918 123.632 38.4989 123.715 38.8797ZM99.0807 63.3118C99.6268 63.3594 99.4487 62.7168 99.6031 62.3955C99.5081 61.8242 99.9117 61.7528 99.7574 61.1221C99.7574 60.17 100.03 59.4798 99.888 58.3968C100.173 56.7188 100.482 55.0527 100.505 53.1248C100.458 52.982 100.351 52.9225 100.137 52.9463C99.1163 55.6716 98.4634 59.6226 99.0807 63.3118Z" fill="white"/>
<path fill-rule="evenodd" clip-rule="evenodd" d="M88.5505 69.8808C88.4555 71.2732 88.218 72.5228 88.0875 73.8795C83.9798 73.2963 80.1215 72.4514 75.7526 72.142C71.6925 71.8088 66.8844 71.1899 62.3613 71.5112C60.3074 71.654 58.3961 72.3086 56.5916 72.1777C55.808 72.4871 55.0364 72.8203 54.2647 73.1297C53.6948 72.4514 54.4546 71.5469 54.2172 70.5949C54.1222 69.5 55.4163 69.738 55.072 68.4052C55.2144 67.0842 54.2884 66.8819 54.1104 65.8822C54.0747 57.5041 55.1907 50.2209 56.9121 43.5208C58.1112 41.4144 59.1915 39.2008 60.7704 37.4633C61.4471 36.4518 62.4562 35.7734 63.2516 34.869C63.8096 34.5715 64.3082 34.2263 64.6763 33.7503C65.1274 33.4052 65.8634 33.3457 66.1009 32.8102C68.962 32.6792 72.298 31.4059 75.3015 31.7153C76.4293 31.8343 77.3553 32.3817 78.3882 32.5602C80.3233 33.9288 81.8073 35.7734 83.7305 37.1658C84.6328 38.6534 85.3569 40.0696 86.1761 41.8309C86.556 42.6401 87.019 43.6398 87.5057 44.699C88.6692 50.6493 88.966 57.4803 89.0016 64.6088C88.8591 65.4181 87.7432 65.2872 87.5888 66.0845C87.1258 66.5367 87.019 67.3103 87.0902 68.2743C87.0902 68.8217 87.2683 69.1906 87.6601 69.3453C87.7194 69.7618 88.6217 69.2977 88.5505 69.8808ZM71.7044 33.6075C71.277 33.6194 70.8615 33.6194 70.4341 33.6313C69.698 33.9883 68.6177 34.024 68.1072 34.5834C67.2406 34.8809 66.6232 35.4045 65.5904 35.5354C63.5484 37.5466 61.9339 39.9506 59.9394 41.9975C59.6189 42.9377 59.2034 43.7826 58.7285 44.5561C58.6335 46.1865 58.0399 47.329 57.7313 48.7452C57.3632 51.1134 57.1258 53.6126 56.9833 56.195C57.2801 57.1828 57.197 58.5752 57.2326 59.8128C58.0162 59.92 57.2683 58.5395 57.7431 58.3491C57.7669 57.6588 57.8737 57.0519 58.0637 56.5283C58.3011 52.4939 58.776 48.6857 59.8207 45.4368C60.3193 43.0805 61.5421 41.4144 62.7768 39.7483C63.9758 38.0584 65.3648 36.5589 67.205 35.4878C68.8551 34.9999 70.3985 34.4167 72.2386 34.1192C72.5235 33.4885 71.645 34.0359 71.7044 33.6075ZM82.0328 43.1757C83.5999 47.2814 85.0364 51.5181 85.0364 57.2542C85.2026 57.7064 85.2976 58.2182 85.2501 58.8846C85.7012 59.0274 85.072 60.3008 85.8199 60.1461C86.2236 58.6347 86.2236 56.1831 86.0574 54.3385C85.6537 49.8044 84.0392 45.8057 82.389 42.8067C82.1634 42.8067 82.1397 42.5806 81.8429 42.6401C81.831 42.8901 81.9379 43.0329 82.0328 43.1757Z" fill="white"/>
<path fill-rule="evenodd" clip-rule="evenodd" d="M91.1505 64.561C90.082 64.7276 91.103 63.5375 90.7468 62.7521C90.8299 55.6831 90.1651 47.9833 88.3369 42.3186C87.2803 40.7715 86.4374 38.9983 85.5232 37.2965C84.6329 35.6423 83.3507 34.3808 81.9973 33.2026C82.3416 32.6433 82.9708 32.3577 83.4219 31.9055C83.5407 31.9055 83.6594 31.9055 83.79 31.8936C84.8109 33.1193 85.8557 34.2856 86.7579 35.6423C87.6602 36.9871 88.4437 38.4389 89.2035 39.9384C91.7797 45.5318 91.7084 53.9575 91.8272 61.8238C91.8272 62.1927 91.9459 63.0734 91.8628 63.6327C91.8034 64.0016 92.0646 64.8466 91.1505 64.561Z" fill="white"/>
<path fill-rule="evenodd" clip-rule="evenodd" d="M43.1882 36.3681C42.3097 36.2253 42.274 36.9036 41.3837 36.7727C41.2175 36.261 40.7901 36.0349 40.8138 35.3328C41.4074 35.2494 41.7042 34.8924 42.0604 34.583C42.832 34.7615 42.9982 35.5827 43.1882 36.3681Z" fill="white"/>
<path fill-rule="evenodd" clip-rule="evenodd" d="M43.3782 36.9043C43.948 36.9876 44.043 37.5707 44.1261 38.1539C43.5444 38.3681 43.0695 38.6656 42.3334 38.737C42.3691 38.2015 41.9179 38.1896 41.9535 37.654C42.5234 37.5112 43.0101 37.2613 43.3782 36.9043Z" fill="white"/>
<path fill-rule="evenodd" clip-rule="evenodd" d="M55.6895 37.7373C56.3661 37.7611 56.473 38.4037 57.1497 38.4275C57.1141 38.9869 56.7698 39.2487 56.6273 39.7128C55.9981 39.6295 55.6538 39.2487 54.989 39.2011C55.1552 38.6418 55.5945 38.3442 55.6895 37.7373Z" fill="white"/>
<path fill-rule="evenodd" clip-rule="evenodd" d="M47.4741 51.5058C46.6193 51.3868 46.2394 51.7319 45.4915 51.7319C44.9098 47.4714 44.0669 43.4728 42.7135 40.0097C42.9153 39.4266 43.8888 39.6051 44.1381 39.0695C44.4349 39.01 44.4587 39.2362 44.6842 39.2362C45.7289 43.211 46.8686 47.0787 47.4741 51.5058Z" fill="white"/>
<path fill-rule="evenodd" clip-rule="evenodd" d="M54.4785 40.1172C55.0484 40.3195 55.452 40.7122 56.1168 40.8074C56.1524 41.6167 55.6894 41.938 55.6063 42.6282C54.9653 42.3069 54.3717 41.938 53.7781 41.581C54.0155 41.093 54.2529 40.617 54.4785 40.1172Z" fill="white"/>
<path fill-rule="evenodd" clip-rule="evenodd" d="M96.6591 41.9738C97.2645 41.9619 97.2883 42.5569 97.9412 42.4974C97.6919 44.2111 97.1577 45.6511 96.9559 47.4124C96.2198 47.2577 95.9705 46.5913 95.3057 46.3533C95.6618 44.8062 96.2317 43.4614 96.6591 41.9738Z" fill="white"/>
<path fill-rule="evenodd" clip-rule="evenodd" d="M53.2676 43.0449C53.9561 43.1877 54.431 43.5567 55.0958 43.7352C53.3625 50.0544 52.5196 57.2425 52.4603 65.1802C51.7717 65.0969 51.3206 64.7637 50.4658 64.8589C50.5371 56.7664 51.4631 49.4832 53.2676 43.0449Z" fill="white"/>
<path fill-rule="evenodd" clip-rule="evenodd" d="M94.7833 47.627C95.6856 47.7341 96.0773 48.3648 96.6116 48.8527C96.4335 49.7453 96.3741 50.7568 96.1248 51.578C95.4006 51.6494 95.1157 51.2805 94.3084 51.4352C94.2966 50.8282 94.2847 50.2213 94.2728 49.6263C95.1157 49.6144 95.2819 50.2927 96.2792 50.1261C96.4572 48.6028 94.6883 49.0907 94.7833 47.627Z" fill="white"/>
<path fill-rule="evenodd" clip-rule="evenodd" d="M47.3196 52.7793C47.3196 52.6008 47.5333 52.6365 47.6757 52.5889C47.6757 52.7674 47.462 52.7317 47.3196 52.7793Z" fill="white"/>
<path fill-rule="evenodd" clip-rule="evenodd" d="M94.1659 52.7203C94.7714 52.7084 95.3768 52.6965 95.9704 52.6846C96.1248 53.3629 95.7686 53.5533 95.8161 54.1365C95.2106 54.1484 94.6052 54.1603 94.0116 54.1722C93.8573 53.4938 94.2134 53.3034 94.1659 52.7203Z" fill="white"/>
<path fill-rule="evenodd" clip-rule="evenodd" d="M45.717 53.8982C46.4412 53.8863 47.1654 53.8625 47.8896 53.8506C48.4832 57.6469 48.8037 61.2528 49.0293 65.061C48.0083 65.0848 47.4028 65.5133 46.8805 66.0131C46.465 62.0145 46.5125 57.5041 45.717 53.8982Z" fill="white"/>
<path fill-rule="evenodd" clip-rule="evenodd" d="M94.0354 55.4453C94.3084 55.719 94.9614 55.5881 95.4837 55.6C95.4956 56.1475 95.5075 56.683 95.5194 57.2304C95.0564 57.278 94.2966 56.683 94.071 57.0757C93.6199 56.7901 93.976 55.8023 94.0354 55.4453Z" fill="white"/>
<path fill-rule="evenodd" clip-rule="evenodd" d="M93.7267 57.9922C94.2609 58.1112 94.5221 58.5158 95.365 58.3254C95.1157 60.3961 95.2581 62.8477 94.9614 64.8589C94.5815 64.7637 94.439 64.4186 93.8691 64.5138C93.8217 62.3359 93.7742 60.1581 93.7267 57.9922Z" fill="white"/>
<path fill-rule="evenodd" clip-rule="evenodd" d="M51.9498 66.8224C51.9736 67.477 52.2466 67.8697 52.3416 68.4409C51.0001 68.7503 49.2549 68.667 47.6404 68.7146C47.6404 68.0601 47.9016 67.6674 47.9728 67.0723C48.8394 66.5844 50.8458 66.5368 51.9498 66.8224Z" fill="white"/>
<path fill-rule="evenodd" clip-rule="evenodd" d="M13.4851 69.6071C11.9299 70.2617 9.82856 70.3212 8.07153 69.9046C8.23774 69.0597 8.677 68.4766 9.11625 67.8934C10.066 67.8577 10.7427 67.5602 11.823 67.6554C12.6422 68.0243 13.3426 68.5242 13.4851 69.6071Z" fill="white"/>
<path fill-rule="evenodd" clip-rule="evenodd" d="M94.8424 67.9293C93.204 68.3816 91.3877 67.8103 89.0608 68.0483C89.0727 67.0487 90.0936 67.0249 90.4735 66.3942C91.3758 66.4418 91.7319 65.9419 92.6342 65.9895C93.7739 66.2037 94.2131 67.1677 94.8424 67.9293Z" fill="white"/>
<path fill-rule="evenodd" clip-rule="evenodd" d="M137.545 69.0473C135.468 69.4519 133.212 69.0354 131.206 68.8093C131.42 68.1785 131.598 67.524 132.072 67.1551C133.699 67.0004 134.791 67.405 136.418 67.2503C136.881 67.762 137.712 67.881 137.545 69.0473Z" fill="white"/>
<path fill-rule="evenodd" clip-rule="evenodd" d="M46.9636 70.3691C47.581 70.2739 47.9727 70.4167 48.412 70.5239C48.4832 71.7139 48.1389 72.5113 48.2933 73.7846C47.7353 73.7489 47.4741 73.4038 47.0111 73.2729C46.9992 72.309 46.9755 71.3331 46.9636 70.3691Z" fill="white"/>
<path fill-rule="evenodd" clip-rule="evenodd" d="M52.2107 70.6309C52.7331 71.4401 51.997 72.5469 52.27 73.7131C51.4272 73.6774 50.881 74.8556 50.4774 74.6533C50.3112 73.1895 50.6911 72.2494 50.5843 70.8451C51.071 70.7142 52.0326 71.0474 52.2107 70.6309Z" fill="white"/>
<path fill-rule="evenodd" clip-rule="evenodd" d="M95.1394 73.9147C94.8189 74.2003 94.1303 74.1289 93.881 74.4859C93.6554 73.5458 93.9641 71.606 93.786 70.1303C95.8873 69.1782 94.8307 72.4628 95.1394 73.9147Z" fill="white"/>
<path fill-rule="evenodd" clip-rule="evenodd" d="M90.7231 70.1901C90.8419 70.1901 90.9606 70.1901 91.0793 70.1782C91.6848 69.9759 91.3761 70.7375 91.4592 71.0708C91.6016 71.6182 91.293 71.7372 91.3049 72.1656C91.3167 73.0106 91.3405 73.8555 91.3523 74.7005C90.8062 74.8433 90.8181 74.4029 90.2601 74.5458C90.272 72.9511 90.6994 71.7729 90.7231 70.1901Z" fill="white"/>
<path fill-rule="evenodd" clip-rule="evenodd" d="M10.1014 72.0347C10.7069 72.0228 11.3124 72.0109 11.906 71.999C11.8229 72.9511 12.0722 73.558 12.1315 74.3554C11.5617 74.3911 11.348 74.7838 10.695 74.7481C10.5526 73.7841 10.2202 73.0225 10.1014 72.0347Z" fill="white"/>
<path fill-rule="evenodd" clip-rule="evenodd" d="M45.8712 87.6126C44.6721 88.0529 43.5799 88.1957 42.2622 88.2314C38.7006 88.3266 34.4149 88.2314 30.5091 88.1124C30.3666 88.1124 30.331 88.3028 30.1529 88.3028C25.6654 88.1243 19.7651 88.5528 15.1351 88.0648C16.7378 87.3865 19.0409 87.4341 21.4509 87.3865C27.8617 87.2556 35.1984 87.3389 41.1581 87.1604C40.517 86.601 39.2823 86.6486 38.0714 86.6843C37.2404 86.3749 35.9107 86.601 34.8185 86.5653C28.1466 86.3154 20.8217 86.7557 14.1972 86.4463C13.1288 83.7925 11.7516 81.4718 11.3124 78.1634C16.2867 77.2352 21.9495 75.6167 27.8973 75.6405C33.8807 75.6762 39.9115 75.9737 45.4557 76.5449C45.5744 75.6167 44.4941 75.938 44.1735 75.4858C39.4011 74.379 33.6788 74.4028 28.0635 74.5456C22.4244 74.6884 17.1058 75.8547 12.5589 76.6759C14.2328 75.5096 16.8684 75.2597 19.2071 74.7241C21.4865 74.141 23.7184 73.4984 26.4133 73.308C26.7101 73.3556 26.722 73.1294 26.9475 73.1175C34.1893 72.7129 40.7663 72.9985 45.9662 74.7241C46.9753 75.7714 48.0793 76.7116 48.388 78.4848C48.5186 82.4715 47.2602 85.1135 45.8712 87.6126Z" fill="white"/>
<path fill-rule="evenodd" clip-rule="evenodd" d="M133.236 70.9521C133.473 71.2021 134.019 71.1188 134.506 71.1069C134.375 72.5706 134.102 73.9154 133.865 75.284C133.355 75.2602 133.105 74.9627 132.595 74.9508C132.892 73.6893 133.093 72.3445 133.236 70.9521Z" fill="white"/>
<path fill-rule="evenodd" clip-rule="evenodd" d="M90.4976 77.0929C90.9487 77.9855 90.925 79.354 90.9368 80.7107C90.6163 82.234 90.4382 83.9001 89.9396 85.2687C89.9396 87.0419 88.978 87.8868 88.3963 89.1126C80.6796 91.3023 71.2178 89.791 62.9075 89.4577C62.4801 89.4696 62.0646 89.4696 61.6372 89.4815C61.0436 89.2911 62.124 89.2673 62.3614 89.2911C68.9977 89.2673 75.6697 90.2075 82.2585 89.6006C80.4659 88.9341 78.3765 88.7794 76.2752 88.6366C70.1731 88.2201 62.955 88.2082 56.7223 87.5893C55.1434 84.6499 52.4959 81.9127 53.0777 77.3309C58.8236 76.9501 64.9851 76.1766 70.9685 76.5931C76.9637 76.6288 81.9618 77.6999 87.8145 77.8784C87.494 76.9144 86.0219 77.1643 85.084 76.843C76.0615 75.165 63.7742 74.8437 53.79 76.4027C54.3836 73.9511 58.2182 74.6176 60.6163 73.9035C71.289 73.487 80.5015 74.6057 89.4172 76.0337C89.5834 76.5693 90.1058 76.7716 90.4976 77.0929Z" fill="white"/>
<path fill-rule="evenodd" clip-rule="evenodd" d="M124.914 88.3387C124.273 87.7793 122.86 88.0174 121.827 87.8627C114.111 87.5651 106.489 87.9936 98.4992 87.8031C97.6088 85.0303 95.6262 83.3999 95.7924 79.5203C96.2554 78.9014 96.5404 78.116 97.0152 77.4971C104.744 76.8188 114.301 76.0929 122.148 77.1639C124.878 77.5328 127.419 78.0208 129.948 78.0922C128.096 76.9378 125.199 76.8783 122.682 76.4261C120.296 75.9024 117.352 75.9501 114.704 75.6882C108.566 75.593 103.189 76.2119 97.5376 76.5808C98.238 75.4145 100.102 75.3788 101.479 74.8671C102.856 74.4149 104.494 74.2125 105.978 73.8674C113.22 73.4271 120.082 74.4863 126.267 75.4383C128.25 75.7477 130.351 75.6525 131.728 77.1401C132.583 80.3533 132.263 84.9708 131.396 87.6603C130.482 88.5053 129.437 89.2193 128.369 89.8977C119.595 90.1119 111.653 89.4692 103.212 89.3264C102.892 89.3859 102.844 89.1598 103.022 89.1479C109.718 88.9456 116.224 88.9337 122.73 88.9218C123.442 88.7076 124.629 88.9575 124.914 88.3387Z" fill="white"/>
<path fill-rule="evenodd" clip-rule="evenodd" d="M12.1912 76.8903C12.0962 76.7951 12.3218 76.6523 12.3693 76.6999C12.4642 76.7951 12.2387 76.9379 12.1912 76.8903Z" fill="white"/>
<path fill-rule="evenodd" clip-rule="evenodd" d="M58.2062 89.3619C58.2062 89.1833 58.4199 89.219 58.5623 89.1714C58.7404 89.1714 58.9185 89.1595 59.1084 89.1595C59.4052 89.1595 59.7139 89.1476 60.0107 89.1357C59.7614 89.5523 58.7523 89.231 58.2062 89.3619Z" fill="white"/>
<path fill-rule="evenodd" clip-rule="evenodd" d="M41.7758 90.9689C42.6305 91.4688 43.604 90.7785 44.6725 90.9094C44.4469 93.2896 44.0551 95.5269 43.7227 97.8237C43.509 97.6214 43.0817 97.6333 42.6305 97.669C41.9894 95.8006 42.0726 93.1825 41.7758 90.9689Z" fill="white"/>
<path fill-rule="evenodd" clip-rule="evenodd" d="M20.8101 91.7539C20.5727 93.42 20.2166 94.9671 20.0029 96.6689C19.6467 96.6808 19.2787 96.6808 18.9225 96.6927C18.3645 95.3598 18.2221 93.5985 17.9253 92.0038C18.97 91.9919 20.0147 91.9919 20.8101 91.7539Z" fill="white"/>
<path fill-rule="evenodd" clip-rule="evenodd" d="M58.4436 92.4327C59.5239 92.4089 60.6161 92.3851 61.6965 92.3613C61.459 94.6701 61.2216 96.9907 60.9367 99.2637C60.4499 99.2756 59.9751 99.2875 59.4883 99.2875C59.1915 96.9669 58.8116 94.7058 58.4436 92.4327Z" fill="white"/>
<path fill-rule="evenodd" clip-rule="evenodd" d="M100.767 92.4685C101.55 92.4566 102.334 92.4328 103.117 92.4209C103.236 94.0156 102.809 95.0866 102.844 96.598C102.642 97.1098 102.666 97.8476 102.702 98.5974C102.666 99.2757 102.084 99.4304 101.455 99.5256C101.218 97.1812 100.85 94.9795 100.767 92.4685Z" fill="white"/>
<path fill-rule="evenodd" clip-rule="evenodd" d="M86.8527 93.1233C86.829 94.5157 86.6865 95.801 86.3897 96.9434C86.544 97.8003 86.1285 98.1097 86.2472 98.9428C86.3778 99.7877 85.8436 99.9781 85.0007 99.871C85.0126 97.5147 84.6802 95.5154 84.5021 93.3494C85.3925 93.3732 85.8673 93.0043 86.8527 93.1233Z" fill="white"/>
<path fill-rule="evenodd" clip-rule="evenodd" d="M125.923 93.2178C126.611 93.3606 127.383 93.4201 128.273 93.3487C127.965 94.4197 128.072 95.8716 127.81 96.9784C127.822 97.4068 127.822 97.8233 127.834 98.2518C127.454 98.5969 128.06 99.8822 127.324 99.8941C126.362 100.215 127.027 98.8468 126.576 98.6445C126.564 98.2161 126.564 97.7995 126.552 97.3711C126.267 96.2524 126.291 94.8125 125.935 93.7533C125.923 93.5867 125.923 93.3963 125.923 93.2178Z" fill="white"/>
<path fill-rule="evenodd" clip-rule="evenodd" d="M19.3262 98.5021C19.5042 98.5021 19.6942 98.4902 19.8723 98.4902C19.7061 98.8116 19.896 99.4661 19.3499 99.4066C19.338 99.0972 19.3262 98.7997 19.3262 98.5021Z" fill="white"/>
<path fill-rule="evenodd" clip-rule="evenodd" d="M42.8558 99.2758C43.2713 99.2163 43.5562 99.2877 43.758 99.4424C43.5562 99.7161 43.6156 100.252 43.0457 100.18C43.1169 99.7518 42.7133 99.7994 42.8558 99.2758Z" fill="white"/>
<path fill-rule="evenodd" clip-rule="evenodd" d="M85.2025 100.942C85.4993 100.942 85.808 100.93 86.1048 100.918C86.0929 101.442 85.8911 101.787 85.2144 101.668C85.2144 101.43 85.2144 101.192 85.2025 100.942Z" fill="white"/>
<path fill-rule="evenodd" clip-rule="evenodd" d="M102.559 100.585C102.642 101.323 102.298 101.632 101.491 101.513C101.301 100.68 101.788 100.502 102.559 100.585Z" fill="white"/>
<path fill-rule="evenodd" clip-rule="evenodd" d="M126.979 100.989C127.158 100.989 127.336 100.978 127.526 100.978C127.431 101.299 127.763 102.037 127.371 102.072C126.718 102.263 127.098 101.37 126.979 100.989Z" fill="white"/>
</g>
<defs>
<clipPath id="clip0_2183_3295">
<rect width="146" height="104" fill="white"/>
</clipPath>
</defs>
</svg>
