<svg width="111" height="115" viewBox="0 0 111 115" fill="none" xmlns="http://www.w3.org/2000/svg">
<g clip-path="url(#clip0_2183_3379)">
<path fill-rule="evenodd" clip-rule="evenodd" d="M16.8464 34.2437C15.813 35.0017 14.9324 35.9138 14.1431 36.9271C13.0821 37.4222 12.414 39.378 13.1794 40.6631C13.7179 41.5611 14.6042 40.6801 15.2445 41.002C16.2807 40.9938 17.3069 40.9876 18.3432 40.9794C18.794 42.2473 19.5405 43.2036 19.9569 44.5099C20.3946 59.7159 20.7959 74.95 21.679 89.699C21.1527 90.4496 20.7396 91.308 20.3523 92.1938C19.9868 92.6898 18.8112 92.3912 18.8269 93.2673C18.5769 94.0529 18.5212 95.0494 18.5392 96.1073C17.7018 96.0682 16.8921 96.0669 16.4875 96.4628C16.4768 96.7435 16.5177 97.079 16.1497 96.9965C15.6989 97.819 15.651 100.1 16.2226 100.896C17.4853 101.725 19.4152 101.328 21.046 101.393C27.1247 101.605 33.4528 101.311 39.7911 101.412C58.7039 101.721 78.6206 101 97.0245 100.234C98.7964 100.22 100.402 100.032 101.651 99.4917C101.255 98.3531 101.56 96.4533 101.223 95.2396C101.088 94.7285 99.8124 95.413 99.6669 94.9037C99.5447 94.0686 99.3879 93.2719 99.1097 92.6048C98.6143 92.2242 97.8597 92.127 97.2083 91.9143C97.1491 91.1962 96.8631 90.7128 96.656 90.1505C96.3605 89.6152 95.415 89.7782 95.2591 89.0993C94.9447 73.9994 94.6158 58.9342 94.0584 44.0932C94.3474 43.6328 95.0672 43.597 95.2411 43.0184C95.4248 42.0413 95.6343 41.0916 96.2269 40.5325C97.0733 40.0555 99.0115 40.6642 99.3081 39.6235C99.7812 38.3574 98.5634 37.4341 97.876 36.7993C97.0267 36.1299 96.1266 35.5234 95.259 34.8681C93.5621 33.5397 91.5759 32.5003 90.0268 31.0161C89.0478 30.4884 88.1276 29.8856 87.4097 29.0849C86.4044 28.5835 85.5895 27.8757 84.7927 27.1537C82.9385 25.9293 81.0642 24.7085 79.3942 23.3001C75.9464 20.6318 72.3915 18.0582 68.7615 15.5842C65.1478 13.0857 61.8722 10.2249 58.4589 7.51812C57.4471 7.48961 57.1498 6.71879 56.2188 6.62183C56.0161 6.64835 56.0417 6.90091 56.0573 7.15532C52.2371 9.06845 49.3024 11.848 45.6984 13.9787C42.2316 16.2342 38.856 18.5909 35.5163 20.9732C33.182 22.1631 30.949 23.4524 29.0633 25.1066C26.6908 26.3142 24.88 28.0941 22.6106 29.4114C20.7865 31.1186 18.4422 32.3104 16.8464 34.2437Z" fill="#E31E25"/>
<path fill-rule="evenodd" clip-rule="evenodd" d="M57.8196 9.80121C57.2294 10.317 56.7783 10.968 55.7773 11.0554C53.0661 12.679 50.7003 14.6573 47.7865 16.0823C46.6163 17.112 45.1264 17.8145 43.8807 18.7723C42.5303 19.5563 41.4379 20.6146 39.9744 21.2908C39.6241 21.8697 39.0437 22.2121 38.8066 22.8989C36.8149 24.3153 34.6722 25.5879 32.5177 26.852C31.7513 27.7646 30.4648 28.1618 29.6331 29.0006C29.067 29.3083 28.5505 29.6604 28.1076 30.0741C27.5822 30.3207 27.0235 30.895 26.5646 30.2611C26.1199 29.8175 26.8867 29.6981 27.0642 29.3653C27.5078 29.2946 27.5683 28.8332 28.0855 28.824C29.2942 27.5514 30.8792 26.7457 32.3195 25.7736C32.6887 25.5235 32.9772 25.1168 33.3382 24.8789C33.7174 24.627 34.1667 24.5874 34.5359 24.3373C34.6005 24.2933 34.6413 24.0071 34.6996 23.9857C34.7861 23.9483 34.9677 24.0329 35.0423 23.987C35.1069 23.943 35.1577 23.6549 35.206 23.6354C35.2926 23.598 35.4741 23.6826 35.5487 23.6367C35.6133 23.5927 35.6641 23.3046 35.7124 23.2851C35.799 23.2477 35.9805 23.3323 36.0551 23.2864C36.1197 23.2424 36.1605 22.9562 36.2188 22.9347C36.9719 22.5713 37.7964 21.8624 38.5993 21.3183C39.3457 20.806 40.1012 20.3992 40.8056 19.8839C42.2063 18.8655 43.5109 17.8325 44.8752 16.8422C45.8563 15.6865 47.4707 15.1541 48.6047 14.1525C49.9908 13.3941 51.1367 12.401 52.5109 11.634C53.0696 11.0597 53.751 10.6451 54.3927 10.1842C55.022 9.76843 55.3356 9.0462 56.2586 8.93023C56.319 8.69402 56.5599 8.64976 56.5964 8.39651C57.0555 8.80528 57.636 9.08455 57.8196 9.80121Z" fill="white"/>
<path fill-rule="evenodd" clip-rule="evenodd" d="M58.8711 10.4979C59.0125 10.5899 59.1539 10.6818 59.3905 10.6705C59.8827 11.5985 61.1301 11.7231 61.4908 12.7824C61.2775 12.8644 61.1379 13.008 61.153 13.3161C60.1303 12.9465 59.5104 12.1707 58.5505 11.7467C58.4204 11.0953 58.9018 11.0604 58.8711 10.4979Z" fill="white"/>
<path fill-rule="evenodd" clip-rule="evenodd" d="M56.8513 13.1731C56.9655 13.1735 57.0797 13.174 57.194 13.1744C58.8884 14.5462 60.6241 15.8031 62.4284 17.2082C63.1546 17.7716 63.7684 18.3449 64.5261 18.9669C64.8562 19.2385 65.2951 19.651 65.7466 20.0183C66.3093 20.4831 66.9276 20.7983 67.4865 21.2423C67.6318 21.355 67.699 21.6642 67.8423 21.7665C68.0095 21.8859 68.2146 21.8161 68.3617 21.9391C68.507 22.0518 68.5741 22.361 68.7175 22.4633C68.8847 22.5827 69.0898 22.5129 69.2369 22.6359C69.384 22.759 69.4474 23.0475 69.5926 23.1602C69.9189 23.4111 70.4178 23.641 70.8128 24.0401C71.3984 24.6293 71.7999 25.4025 72.3936 25.9795C76.5076 29.3937 81.221 32.1725 86.1429 34.7308C78.9811 35.2318 71.8796 34.8748 64.4881 35.0856C50.7895 35.4796 36.3625 34.5066 22.8855 35.428C24.1561 34.3799 25.5935 33.5048 26.9554 32.5579C28.3412 31.6279 29.7924 30.7718 31.204 29.8693C36.9516 26.3586 41.8872 22.043 48.0178 18.9229C49.1872 17.7755 50.9561 17.2361 52.0878 16.0527C53.6378 15.3392 54.7967 14.2473 56.3367 13.5356C56.4726 13.3713 56.65 13.2636 56.8513 13.1731ZM70.7441 29.5413C70.028 28.976 69.4415 28.2691 68.6465 27.7827C67.3263 26.4708 65.6923 25.4846 64.4509 24.094C62.9485 22.9764 61.5149 21.7819 60.0913 20.5855C58.275 19.7936 57.06 18.3767 55.0534 17.7913C54.7138 18.0895 54.8331 17.7781 54.3699 17.7989C54.1409 17.8517 54.0428 18.0519 53.6867 17.978C52.2245 18.9434 50.9031 20.0544 49.4427 21.0302C48.1227 22.2053 46.787 23.3512 45.209 24.2521C43.9784 25.518 42.3885 26.4103 41.144 27.6573C40.5528 28.2805 39.8345 28.7769 39.283 29.4464C38.4768 29.9161 37.631 30.3394 37.2557 31.2338C37.7801 31.0946 37.4823 31.8461 38.1182 31.5792C38.4401 31.2413 38.5493 31.5536 38.9781 31.5713C39.9513 31.4461 40.4123 31.8653 41.3836 31.7297C50.2825 31.7029 58.5114 32.3781 67.6959 32.0415C69.1477 31.7534 70.7146 31.5835 72.5017 31.6518C72.5083 30.332 71.288 30.2989 70.7441 29.5413Z" fill="white"/>
<path fill-rule="evenodd" clip-rule="evenodd" d="M63.4094 14.1875C63.6067 14.9231 62.1977 14.9354 62.3731 14.1956C62.8717 14.029 62.9038 14.0338 63.4094 14.1875Z" fill="white"/>
<path fill-rule="evenodd" clip-rule="evenodd" d="M95.6589 37.6674C77.9229 38.1706 60.0771 39.037 42.5505 38.8156C39.4795 38.876 36.7729 38.5478 33.6067 38.7113C32.3847 38.4427 30.8934 38.4594 29.6451 38.217C29.2295 37.8753 28.1093 38.274 27.7463 37.8798C27.1059 37.783 25.8805 38.2869 26.1857 37.1803C25.8395 36.0861 27.0795 36.5658 27.7138 36.46C37.9023 37.1825 48.5762 36.819 59.1873 36.7349C64.4608 36.688 69.821 37.0004 75.0123 36.9579C77.7483 36.9377 80.465 37.039 83.094 36.8883C85.5384 36.7501 87.8961 36.2527 90.303 36.4752C90.4237 35.381 89.4936 35.4018 89.2417 34.7084C88.7118 34.3663 88.1983 33.9996 87.6684 33.6575C86.6255 32.895 85.4166 32.3024 84.5316 31.3823C83.3872 30.7456 82.3123 29.9783 81.2187 29.2788C80.1609 28.6048 79.1481 27.8368 78.0822 27.175C74.12 24.0223 69.9937 21.0499 65.8737 18.0548C65.5388 17.0229 64.4406 16.8066 64.1139 15.7625C64.316 15.7897 64.4169 15.7175 64.4543 15.582C64.5929 15.5458 64.6184 15.4018 64.7947 15.4016C69.6916 18.8971 74.4509 22.3214 79.1106 26.1071C79.4884 26.4128 79.7043 26.6841 80.1544 26.9873C80.3794 27.1389 80.7313 27.6424 81.0318 27.8659C81.2965 28.0639 81.6296 28.0134 81.8943 28.2113C82.3998 28.5901 82.7799 29.0777 83.2935 29.4443C83.4249 29.5381 83.6677 29.5042 83.8129 29.6169C83.8865 29.6784 83.9102 29.9206 83.9919 29.9699C84.215 30.1112 84.6275 30.1533 84.8544 30.3153C85.0336 30.4432 85.2562 30.6381 85.5529 30.8409C86.1721 31.2739 86.8776 31.8946 87.6482 32.4177C90.2199 34.2714 92.7309 36.19 95.6589 37.6674Z" fill="white"/>
<path fill-rule="evenodd" clip-rule="evenodd" d="M69.9042 30.6182C69.4218 30.7604 67.7557 30.6162 66.9815 30.469C57.9695 30.7846 49.0333 30.1 40.3414 30.6891C39.8983 30.7062 40.1303 30.5564 40.1624 30.3361C40.3002 30.1821 40.6304 30.2286 40.6669 29.9754C41.0074 29.7949 41.3975 29.6589 41.5115 29.2628C42.1578 29.1655 42.38 28.5673 42.8706 28.1877C43.0705 28.0331 43.5079 27.9849 43.7279 27.8265C43.857 27.7385 43.9106 27.5786 44.066 27.4643C44.9215 26.8676 46.0918 25.8379 47.1147 25.1355C49.5837 23.2669 52.1659 21.5061 54.5733 19.5846C54.6112 19.3954 54.9133 19.4578 54.9115 19.2223C55.0602 19.1843 55.0792 19.288 55.0883 19.3935C57.5127 21.3494 60.2226 22.9955 62.5844 25.0057C65.137 26.7558 67.2119 29.0117 69.9042 30.6182Z" fill="white"/>
<path fill-rule="evenodd" clip-rule="evenodd" d="M25.0686 32.229C23.971 32.5807 23.3161 33.3657 22.3455 33.8441C21.7408 34.6198 20.477 34.7448 20.1541 35.8118C20.3041 36.6847 21.4848 36.4463 22.3982 36.5037C22.0831 36.7652 22.4032 37.6605 22.078 37.9239C20.3655 37.8097 18.6448 37.7077 16.7401 37.7896C18.7533 35.5867 20.9414 33.5446 23.6774 32.0558C23.7378 31.8196 23.9787 31.7753 24.0152 31.5221C24.5782 31.5366 24.949 31.7472 25.0686 32.229Z" fill="white"/>
<path fill-rule="evenodd" clip-rule="evenodd" d="M23.5989 36.4869C24.0038 36.4875 24.3967 36.4797 24.8015 36.4804C24.8052 37.348 24.7096 38.1266 23.6214 37.9085C23.6179 37.4375 23.6043 36.9683 23.5989 36.4869Z" fill="white"/>
<path fill-rule="evenodd" clip-rule="evenodd" d="M20.4136 40.9529C22.9148 40.9543 25.5375 40.8263 27.8039 41.0746C27.5393 41.4984 27.2012 41.8606 26.9643 42.3222C24.7062 42.4583 22.8554 42.5518 20.7765 42.194C20.8849 41.5416 20.4022 41.5124 20.4136 40.9529Z" fill="white"/>
<path fill-rule="evenodd" clip-rule="evenodd" d="M30.9108 41.0402C33.306 41.029 35.7982 40.9249 37.9585 41.1605C38.4756 41.1513 38.4035 41.7756 38.4955 42.2196C38.6042 42.5856 38.9296 42.7187 38.8561 43.2789C39.0836 44.009 40.0037 43.99 40.2557 44.6834C40.4929 57.3856 40.7401 70.086 40.9773 82.7882C37.1703 82.6836 33.8954 83.103 30.1501 83.0513C29.7662 69.5507 30.2905 56.6442 29.4059 43.5249C29.5661 42.7022 30.0182 42.169 30.3947 41.5638C30.4953 41.3202 30.6593 41.14 30.9108 41.0402Z" fill="white"/>
<path fill-rule="evenodd" clip-rule="evenodd" d="M41.907 41.1316C42.8466 41.1627 43.9666 40.9891 44.6652 41.2895C45.2966 41.2808 45.93 41.2823 46.5513 41.2754C47.0268 41.4346 48.1624 40.8937 48.1074 41.6113C47.8025 42.2676 47.611 41.9597 46.743 41.9798C44.9464 41.8596 43.6957 42.2824 41.9368 42.1981C41.9223 41.8363 41.9196 41.4831 41.907 41.1316Z" fill="white"/>
<path fill-rule="evenodd" clip-rule="evenodd" d="M93.9967 40.8776C93.8592 41.4281 93.4436 41.7081 93.3338 42.2965C91.1613 41.6557 88.467 42.3544 86.2839 41.9943C86.1846 41.6802 86.1806 41.2629 85.9236 41.1064C88.4187 40.9053 91.501 40.5106 93.9967 40.8776Z" fill="white"/>
<path fill-rule="evenodd" clip-rule="evenodd" d="M59.1114 41.5188C59.4807 42.5123 60.0322 43.3114 60.5411 44.1612C61.0279 44.6078 61.9844 44.5607 62.4448 45.0336C62.9862 50.2404 62.9991 56.016 63.1072 61.6883C59.0123 62.5585 53.5798 60.78 49.5362 62.1553C49.546 56.1076 49.1152 49.8085 49.1945 44.2518C49.6969 43.4842 50.1219 42.6343 50.5211 41.7569C50.506 41.4488 50.6437 41.2949 50.8589 41.2232C53.4598 41.4851 56.3038 41.4879 59.1114 41.5188Z" fill="white"/>
<path fill-rule="evenodd" clip-rule="evenodd" d="M85.8602 83.1294C81.9945 82.8748 76.9877 82.9048 73.1364 83.2371C73.0042 76.5294 72.625 69.6634 72.4138 63.0345C72.2265 57.2695 72.6529 51.4561 72.087 45.6642C72.234 44.5438 73.1037 44.1375 73.5923 43.3509C74.2074 42.7448 74.4948 41.8237 75.0979 41.2091C77.2216 41.0762 79.792 41.3973 81.6238 40.975C82.2295 40.9388 82.9121 40.8134 82.6653 41.6734C82.8362 42.0387 83.0315 42.3673 83.2024 42.7325C83.7952 43.1918 84.2829 43.7561 84.6146 44.4884C84.9761 50.6931 85.3656 57.107 85.4937 63.6225C85.6098 70.1295 85.7359 76.6347 85.8602 83.1294Z" fill="white"/>
<path fill-rule="evenodd" clip-rule="evenodd" d="M72.6846 41.2338C73.241 41.0995 72.9558 41.5806 72.6872 41.5871C72.7004 41.8848 72.5645 42.0492 72.3494 42.1208C72.1474 42.4902 71.86 42.7896 71.5071 43.0152C70.3672 42.9674 68.956 43.1944 68.0653 42.865C67.6165 42.8509 66.9626 42.9067 66.5219 42.8805C64.9394 42.796 63.2158 42.7911 62.7195 41.6709C65.891 41.367 69.2928 41.2995 72.6846 41.2338Z" fill="white"/>
<path fill-rule="evenodd" clip-rule="evenodd" d="M27.3476 43.7313C27.8644 43.5506 27.6585 44.1244 27.7056 44.4374C27.7082 44.7907 27.7209 45.1421 27.7254 45.5057C27.5645 45.9855 27.3897 46.4464 27.4075 47.1078C27.7899 59.9227 27.2265 73.3508 28.3085 85.7371C28.4422 86.6344 28.0381 86.9766 28.1799 87.8618C28.1839 88.2791 28.1961 88.6842 28.2001 89.1015C28.165 89.4189 28.3941 89.9878 27.8746 89.8152C27.2278 89.9662 27.6381 88.9797 27.5017 88.5759C27.7861 88.5987 27.7667 87.4767 27.4818 87.5076C26.9465 73.9168 26.7575 59.9515 26.1877 46.3992C26.3096 45.5943 25.8101 44.1746 26.478 43.9125C26.9817 44.0558 26.9294 43.6581 27.3476 43.7313Z" fill="white"/>
<path fill-rule="evenodd" clip-rule="evenodd" d="M46.7763 43.7423C47.0048 43.7432 47.2314 43.7338 47.4598 43.7347C48.1085 43.5941 47.6964 44.5702 47.8328 44.974C47.8463 45.4431 47.8517 45.9245 47.8653 46.3937C47.8151 57.0798 47.8068 68.2192 48.4815 79.1795C48.7 82.7412 48.9892 86.2363 49.0209 89.6286C47.7561 89.6358 46.5034 89.6516 45.2386 89.6588C44.2922 75.4682 44.5644 60.0032 43.8891 45.5376C43.6659 44.7747 43.4225 43.6188 44.7161 43.9385C45.7134 43.6053 45.3561 44.7107 45.4321 45.3507C46.1158 57.2634 45.7706 70.2977 46.4789 82.5703C46.58 84.3634 46.5892 86.3341 46.9274 88.0622C47.0017 88.4666 47.0238 89.095 47.4667 89.3031C48.0363 88.8447 47.8148 87.6955 47.7567 86.6449C47.6178 84.1942 47.1218 81.1551 47.2551 78.3221C46.8694 67.5231 47.124 54.9556 46.2656 44.1256C46.3876 43.9424 46.575 43.8329 46.7763 43.7423Z" fill="white"/>
<path fill-rule="evenodd" clip-rule="evenodd" d="M22.3655 44.1207C23.3899 43.8789 22.9909 45.1528 23.0841 45.8861C23.1003 46.7085 23.1184 47.5414 23.1245 48.3657C23.5921 51.024 23.6462 53.7476 23.7921 56.5187C23.9398 59.3001 24.0426 62.1756 24.1296 65.0218C24.2651 69.7136 24.6308 75.2635 24.5801 79.7323C24.5476 82.4932 25.0445 85.65 24.9202 88.5886C24.872 89.23 25.2703 90.3252 24.2573 90.0075C23.3006 90.2797 23.5737 89.3934 23.7202 88.9484C23.4284 88.659 23.5599 87.9059 23.521 87.3556C23.1915 84.093 23.0868 80.5855 22.8079 77.26C23.5157 66.7639 22.6759 55.2444 22.0176 44.6563C21.992 44.4037 21.9783 44.1597 22.1791 44.1228C22.2512 44.1203 22.3134 44.1196 22.3655 44.1207Z" fill="white"/>
<path fill-rule="evenodd" clip-rule="evenodd" d="M24.2516 44.1073C24.5422 44.1075 24.8208 44.0992 25.1114 44.0994C25.7582 43.9484 25.348 44.935 25.4743 45.3405C25.2634 52.1006 25.9078 59.1108 26.0459 66.2463C26.1827 73.3176 26.2596 80.5715 26.622 87.5156C26.6255 87.9867 26.6391 88.4558 26.6545 88.9354C26.4271 89.4488 27.2045 89.8956 26.4957 89.8221C25.4527 89.9065 26.1814 88.1111 25.9362 87.3415C25.3153 73.0589 24.9537 58.4929 23.9238 44.6392C23.9106 44.3414 24.0484 44.1875 24.2516 44.1073Z" fill="white"/>
<path fill-rule="evenodd" clip-rule="evenodd" d="M42.3128 43.9621C43.2316 43.6539 42.9944 44.5658 43.0265 45.1923C43.4647 60.3446 43.3524 73.9686 44.3581 88.2556C44.1034 88.9027 45.0554 89.7354 44.2146 89.847C43.4807 90.089 43.5366 89.4892 43.3394 89.1502C43.4655 88.5374 43.0693 88.4709 43.1428 87.9107C42.965 80.7289 42.0774 73.5811 42.2233 66.297C42.37 59.1307 42.3634 51.8639 42.1513 44.4955C42.0386 44.334 41.7307 43.8439 42.3128 43.9621Z" fill="white"/>
<path fill-rule="evenodd" clip-rule="evenodd" d="M91.306 43.9131C91.7611 43.9046 92.218 43.9064 92.6831 43.896C93.2241 55.4275 92.1078 67.9925 93.3647 79.6927C93.3984 81.4016 93.4341 83.121 93.4578 84.8318C93.603 85.7913 93.2122 86.2062 93.3315 87.1383C93.3355 87.5556 93.3477 87.9607 93.3517 88.3781C93.2784 88.7131 93.6101 89.4455 93.0266 89.2632C92.2408 89.2789 93.0065 88.6452 92.8323 88.2055C92.8173 87.6723 92.8124 87.1372 92.7994 86.6143C92.7796 85.546 92.7616 84.488 92.7418 83.4197C92.8298 82.5995 92.3367 82.4007 92.364 81.6453C92.3687 79.4683 92.2702 77.4068 91.9106 75.6183C91.5086 64.8438 91.3635 54.4508 91.1508 44.424C90.7259 44.427 91.0982 43.8548 91.306 43.9131Z" fill="white"/>
<path fill-rule="evenodd" clip-rule="evenodd" d="M89.2459 44.1086C89.4223 44.1083 89.5887 44.1099 89.7631 44.0993C90.5151 43.8432 90.2426 44.6759 90.3001 45.1584C90.2024 45.5301 90.5336 46.3161 90.154 46.3966C90.9482 59.5325 90.3453 74.1578 91.6092 86.8C91.6127 87.271 91.6263 87.7402 91.6417 88.2198C91.544 88.5915 91.9406 89.4512 91.3189 89.2867C90.9762 89.2854 90.6354 89.2944 90.2826 89.2949C89.5306 89.5509 89.8031 88.7183 89.7456 88.2358C89.8373 87.6615 89.6152 87.4129 89.549 86.9962C89.4782 72.827 89.4139 58.8067 88.9182 44.6404C88.9031 44.3323 89.0308 44.1802 89.2459 44.1086Z" fill="white"/>
<path fill-rule="evenodd" clip-rule="evenodd" d="M86.843 44.3034C87.0194 44.3032 87.1858 44.3048 87.3602 44.2942C88.1122 44.0381 87.8397 44.8707 87.8972 45.3533C87.9108 45.8225 87.9162 46.3039 87.9297 46.773C88.0608 60.9312 88.8014 75.6956 88.3965 89.3091C87.3721 89.5508 87.7711 88.2769 87.6779 87.5437C87.3782 78.2297 87.6821 69.0942 87.1548 59.897C86.868 54.89 86.9885 49.8403 86.5253 44.8335C86.5002 44.5272 86.6279 44.3751 86.843 44.3034Z" fill="white"/>
<path fill-rule="evenodd" clip-rule="evenodd" d="M70.5137 44.6132C71.1605 44.4622 70.7503 45.4487 70.8867 45.8525C71.0411 46.4673 70.6396 46.5411 70.7406 47.0907C70.7144 57.5687 69.9574 68.1917 70.6534 78.8157C70.9997 82.0002 71.1901 85.3526 71.6943 88.3795C71.4669 88.8929 72.2443 89.3397 71.5355 89.2662C70.2151 89.6482 70.8811 87.9071 70.4637 87.3299C69.8762 80.2341 69.934 73.1485 69.5468 66.0695C69.1629 59.065 68.5567 52.037 68.4558 44.9912C68.9063 44.619 70.0355 44.9476 70.5137 44.6132Z" fill="white"/>
<path fill-rule="evenodd" clip-rule="evenodd" d="M65.7102 45.1847C66.1298 59.5578 66.5432 73.9536 67.3799 87.8856C67.3834 88.3567 67.397 88.8258 67.4124 89.3054C66.8165 89.1683 66.7565 89.576 66.2121 89.4937C65.4338 89.7761 65.8278 88.814 65.511 88.6149C65.5075 88.1438 65.494 87.6747 65.4785 87.1951C65.4433 86.269 65.1651 85.6018 65.2595 84.534C65.0515 71.7085 65.4677 57.5355 64.0031 45.5519C63.6538 45.4017 64.0686 44.7787 64.1668 45.2002C64.684 45.191 65.193 45.1939 65.7102 45.1847Z" fill="white"/>
<path fill-rule="evenodd" clip-rule="evenodd" d="M66.9106 44.9964C67.6282 44.7789 67.6857 45.2614 67.6117 45.8753C67.6152 46.3463 67.6306 46.8259 67.6342 47.2969C67.8282 60.9504 69.0568 73.5134 69.4149 86.9867C69.3232 87.5609 69.5453 87.8096 69.6115 88.2262C69.5137 88.5979 69.9103 89.4577 69.2886 89.2932C67.95 89.6891 68.2616 88.3348 68.2269 87.355C67.8272 73.2033 67.4337 59.029 66.3983 45.5408C66.0435 45.1343 66.4343 45.3412 66.5598 45.0073C66.6821 44.9955 66.7964 44.996 66.9106 44.9964Z" fill="white"/>
<path fill-rule="evenodd" clip-rule="evenodd" d="M49.5384 62.3379C54.126 62.342 58.4062 62.424 63.1292 62.9392C62.9259 68.8939 63.5412 75.1806 63.4863 81.5475C63.3641 81.9558 63.8219 82.9223 63.1638 82.7859C62.352 82.9993 62.7064 81.9909 62.6245 81.545C62.5254 81.0057 62.3049 80.596 62.4257 80.1236C62.0778 75.6316 62.3283 71.2334 62.0081 67.0043C61.8501 65.9185 62.1129 65.2592 62.3084 64.5157C59.4222 64.1133 55.9064 64.577 53.0265 64.7737C52.0805 64.9904 51.8208 64.4807 51.1277 64.4364C50.9438 70.0445 51.1568 76.0621 51.1118 81.8054C51.0752 82.2838 51.3839 83.1168 50.6126 82.8726C50.3208 83.2049 50.0151 82.8966 50.0905 82.3467C50.0865 81.9294 50.0744 81.5243 50.0703 81.107C49.7239 75.2104 49.6712 68.9919 49.5496 62.8504C49.5411 62.6912 49.5388 62.5094 49.5384 62.3379Z" fill="white"/>
<path fill-rule="evenodd" clip-rule="evenodd" d="M52.181 66.2148C52.3837 66.1883 52.4893 66.2546 52.5241 66.3876C53.1011 66.1958 52.8014 66.937 52.8843 67.2755C52.8884 67.6928 52.9005 68.0979 52.9046 68.5153C52.8478 73.4032 53.4155 78.5837 53.3524 82.8725C52.7835 83.0521 52.7895 82.6329 52.818 82.1667C52.814 81.7494 52.8018 81.3443 52.7978 80.9269C52.4811 76.322 52.5552 71.3023 52.1859 66.7499C52.1937 66.5662 52.1914 66.3844 52.181 66.2148Z" fill="white"/>
<path fill-rule="evenodd" clip-rule="evenodd" d="M60.4393 66.3169C60.6157 66.3167 60.782 66.3183 60.9565 66.3077C60.6893 70.5589 61.0336 75.4268 61.0463 79.9589C60.9656 80.649 61.3708 80.8212 61.2455 81.5517C61.2587 81.8494 61.8245 82.8389 61.0994 82.7899C60.2849 82.8752 60.8424 82.6334 60.7414 82.0838C60.7278 81.6146 60.7243 81.1436 60.7189 80.6622C60.526 76.1096 60.2704 71.6114 59.9479 67.2005C60.2419 67.05 60.5322 66.8787 60.4393 66.3169Z" fill="white"/>
<path fill-rule="evenodd" clip-rule="evenodd" d="M59.2562 67.2202C59.3961 72.5008 59.2911 78.0301 59.9007 82.817C59.155 82.8253 58.4094 82.8337 57.6618 82.8317C57.4984 77.7055 57.6287 72.2573 57.196 67.4164C58.0568 67.5263 58.3835 67.1018 59.2562 67.2202Z" fill="white"/>
<path fill-rule="evenodd" clip-rule="evenodd" d="M56.5129 67.5957C56.3118 72.4887 56.6365 77.9282 56.4592 82.8383C55.8278 82.8471 55.1945 82.8455 54.5631 82.8543C54.0946 77.9878 53.7213 73.0181 53.7569 67.6196C54.6789 67.611 55.5909 67.6042 56.5129 67.5957Z" fill="white"/>
<path fill-rule="evenodd" clip-rule="evenodd" d="M41.0075 84.026C41.083 85.5665 40.9255 87.3642 41.2621 88.6316C41.2553 89.5547 40.4703 89.6882 40.261 90.4127C39.9351 90.955 39.5715 91.4613 39.4362 92.1936C37.643 92.7696 35.5234 92.4729 33.4275 92.4184C33.04 91.4391 32.6444 90.4719 31.8317 89.9459C31.1724 89.5203 30.6357 90.1013 29.9333 89.7801C30.3173 88.1981 29.8218 85.7271 30.168 84.1091C33.9497 84.1326 37.3207 84.3495 41.0075 84.026Z" fill="white"/>
<path fill-rule="evenodd" clip-rule="evenodd" d="M63.1841 84.0255C63.7611 83.8337 63.4614 84.5748 63.5443 84.9133C63.5484 85.3307 63.5605 85.7358 63.5645 86.1531C63.5807 86.9756 63.5988 87.8084 63.615 88.6308C63.6557 89.1915 62.9222 88.9832 62.7704 89.3434C62.5964 90.1472 62.1462 90.6908 61.9483 91.4776C58.8136 91.6997 55.7405 91.9748 52.3259 91.916C51.944 90.5712 51.076 89.7444 50.3722 88.7374C50.3402 87.2639 50.3871 85.7117 50.1202 84.4851C54.5702 84.418 59.2027 84.5532 63.1841 84.0255Z" fill="white"/>
<path fill-rule="evenodd" clip-rule="evenodd" d="M73.1666 84.4753C77.4312 84.3029 81.8124 84.9345 85.8904 84.3676C85.9128 85.7892 85.9434 87.1986 85.976 88.6183C85.6516 88.9995 85.143 89.168 84.6142 89.3402C84.2776 90.1631 83.8914 90.9416 83.4517 91.6548C80.6413 91.4957 77.6506 91.5413 74.8483 91.37C74.3657 90.4939 74.2131 89.2677 73.4186 88.7276C73.3177 87.3312 73.5287 85.5987 73.1666 84.4753Z" fill="white"/>
<path fill-rule="evenodd" clip-rule="evenodd" d="M72.4324 91.0415C72.6251 91.6386 71.9026 91.3211 71.5852 91.4008C71.2425 91.3995 70.9017 91.4085 70.549 91.409C68.5377 91.3068 66.085 91.6823 64.3612 91.2808C64.3589 91.0989 64.3586 90.9275 64.3463 90.7475C64.4849 90.7113 64.5103 90.5673 64.6867 90.5671C65.3925 90.7375 65.3783 90.5472 66.2301 90.5515C67.4176 90.8586 69.0931 90.658 70.5318 90.6939C71.3428 90.7593 72.2089 90.1071 72.4324 91.0415Z" fill="white"/>
<path fill-rule="evenodd" clip-rule="evenodd" d="M31.1681 91.0217C31.1648 91.569 31.2649 92.0008 31.541 92.261C28.7097 92.6096 25.3941 92.4683 22.4358 92.6902C22.6364 92.2567 22.847 91.8214 22.9224 91.2715C25.7066 91.2317 28.616 91.3083 31.1681 91.0217Z" fill="white"/>
<path fill-rule="evenodd" clip-rule="evenodd" d="M94.443 91.2111C94.7115 92.0515 93.7253 91.6538 93.2453 91.7527C90.8415 91.8298 88.5855 91.7511 86.364 91.6339C86.4121 91.2178 86.5614 90.9009 86.6869 90.567C88.6536 90.7095 90.586 90.8905 92.7106 90.8754C93.2381 91.0358 94.454 90.4801 94.443 91.2111Z" fill="white"/>
<path fill-rule="evenodd" clip-rule="evenodd" d="M50.0968 91.7569C47.8876 92.4414 44.5072 91.9476 42.0301 92.3598C41.2008 92.3084 42.388 91.8223 42.3552 91.4746C42.4952 91.5025 42.5183 91.4018 42.5293 91.2925C43.8366 91.2346 45.3708 91.3387 46.8287 91.2531C48.0199 91.1844 49.6239 90.4824 50.0968 91.7569Z" fill="white"/>
<path fill-rule="evenodd" clip-rule="evenodd" d="M97.4256 94.7362C97.2868 95.6193 96.3459 94.6773 95.7062 94.9234C85.0195 95.1607 74.0216 95.4552 63.0496 95.5519C49.0913 95.6613 34.974 95.414 21.9638 95.7136C21.1191 96.0296 20.0766 96.0603 20.4006 94.6608C20.1721 94.0382 20.2936 93.9087 20.9048 94.1287C21.4219 94.1195 21.941 94.1206 22.4481 94.1132C38.0579 94.0113 53.5902 93.8272 68.8546 93.3707C69.1328 93.4161 69.1449 93.1994 69.3715 93.19C78.0522 93.557 86.8202 92.761 95.1643 93.3292C96.5328 93.1529 97.3346 93.563 97.4256 94.7362Z" fill="white"/>
<path fill-rule="evenodd" clip-rule="evenodd" d="M99.7152 97.3713C99.9745 98.5565 99.521 99.0257 98.3688 98.7978C72.1634 99.4633 45.7624 99.6287 19.8184 99.796C19.0537 99.7006 17.803 100.123 17.7429 99.2875C18.0991 99.1363 17.8991 98.0475 17.7104 97.8678C17.8491 96.9847 18.7901 97.9267 19.4298 97.6805C30.5016 97.619 41.4801 97.6712 52.444 97.5866C57.8016 97.5457 63.1923 97.4023 68.5945 97.096C78.6993 96.5153 88.7735 96.6156 98.8501 96.6727C99.5151 96.5076 99.7622 96.4408 99.7152 97.3713Z" fill="white"/>
</g>
<defs>
<clipPath id="clip0_2183_3379">
<rect width="93.1868" height="99.7294" fill="white" transform="translate(0.614258 16.8369) rotate(-10.4094)"/>
</clipPath>
</defs>
</svg>
