<svg width="196" height="159" viewBox="0 0 196 159" fill="none" xmlns="http://www.w3.org/2000/svg">
<g clip-path="url(#clip0_2183_3422)">
<path fill-rule="evenodd" clip-rule="evenodd" d="M23.8549 100.072C23.2775 101.123 21.7801 101.906 21.7726 103.111C21.7921 103.018 21.9482 102.947 21.9392 103.144C21.8028 103.154 21.71 103.235 21.6976 103.441C21.9246 103.56 21.9319 103.706 22.1941 103.548C23.3022 103.48 24.0851 102.917 25.0389 102.609C25.447 102.344 25.9458 102.242 26.2667 101.838C26.7803 102.028 27.325 101.11 27.5405 101.602C27.2373 102.932 26.9409 104.274 26.6378 105.604C26.2613 106.212 25.7975 106.68 25.3908 107.244C25.065 107.326 24.7908 107.757 25.2376 107.914C25.1991 108.201 24.1413 108.352 24.9211 108.541C26.0093 109.175 27.1556 108.045 27.9617 107.478C28.9711 106.967 29.5646 105.8 30.4298 105.053C30.8928 103.743 31.6241 102.864 32.0906 101.577C32.2774 98.9128 32.6449 96.4412 32.5764 93.9816C32.5181 91.5587 32.1972 89.2269 31.6678 87.1257C32.102 83.3024 32.0391 78.5627 34.0359 75.0413C35.4956 74.0357 36.8848 72.9072 38.7874 72.6117C44.4821 73.1833 46.5801 76.818 50.7038 78.8019C52.3569 79.2333 53.9731 79.6082 55.0224 79.0772C56.4096 82.3459 57.5579 85.7688 59.1144 88.9268C59.5858 90.732 60.4255 92.2924 61.1391 93.9332C61.4893 94.757 61.9622 95.5103 62.3555 96.304C62.6062 97.1948 63.4873 97.6832 63.572 98.6747C65.3875 101.718 67.213 104.765 70.0772 107.145C72.5365 109.779 76.728 111.32 80.455 113.162C82.5039 113.535 83.6867 114.455 85.2743 115.12C86.5006 115.4 87.7202 115.667 88.9465 115.947C93.2561 115.743 96.7574 114.288 100.061 112.492C101.018 111.598 102.036 110.791 103.068 110.011C103.819 111.874 105.061 113.423 105.926 115.213C107.48 116.52 108.825 117.958 111.066 118.826C113.237 119.738 115.979 120.293 118.051 121.272C118.824 121.448 119.607 121.627 120.384 121.793C121.695 121.78 122.824 121.951 123.902 121.706C124.999 121.468 125.794 120.699 126.811 120.434C129.406 120.155 131.757 119.508 133.895 118.526C137.62 115.748 141.418 113.084 144.281 108.949C145.719 106.928 147.053 104.751 147.968 101.894C148.798 99.9731 149.523 97.8626 150.229 95.7455C150.475 94.9953 150.439 93.8205 151.047 93.6545C151.046 94.1305 150.541 94.9285 150.875 95.1931C151.467 93.1165 152.053 91.0266 152.508 88.7277C153.979 87.9583 155.332 87.0064 156.632 85.9816C157.501 84.7158 158.391 83.4899 159.371 82.3934C160.383 80.2881 161.23 77.9407 161.725 75.0457C162.292 70.4461 160.987 67.0273 160.366 63.1791C160.419 61.0918 159.963 57.6189 161.777 56.1422C163.356 56.4275 164.749 56.8401 165.867 57.4172C166.072 57.6725 166.166 57.9916 166.593 58.1094C168.575 61.8611 168.393 66.9748 166.738 73.0342C165.733 75.6621 164.915 78.5952 164.254 81.7573C164.218 83.1189 164.31 84.3899 164.43 85.6476C164.761 86.0554 164.91 86.5806 165.169 87.042C165.561 87.6027 166.242 87.9922 166.776 88.4556C168.191 90.4592 172.403 90.0793 174.055 89.5687C174.351 89.4774 174.754 89.4988 174.966 89.4245C175.053 89.3975 175.115 89.1741 175.208 89.1271C175.377 89.0497 175.587 89.1519 175.747 89.0712C176.036 88.9333 176.327 88.6856 176.57 88.5546C177.732 87.9166 178.763 87.2026 179.335 86.371C179.262 85.7489 177.902 85.9452 177.617 85.4639C178.194 84.3128 178.616 82.2137 178.431 81.0895C177.92 80.8223 178.071 81.5805 177.785 81.6418C177.472 81.7499 177.445 82.3059 177.227 82.5666C176.652 82.8656 176.339 83.5828 175.725 83.8021C174.757 84.6922 173.839 85.632 172.201 85.4602C171.308 85.3114 171.494 84.475 170.923 84.1216C170.979 83.3757 170.242 83.123 170.259 82.3973C169.912 80.1122 169.736 77.5067 170.372 74.8907C170.519 74.3074 170.797 73.8334 170.917 73.2637C171.903 68.6687 171.582 64.11 170.995 60.4947C170.508 59.5151 170.133 58.4617 169.559 57.5425C168.786 56.6908 167.993 55.8658 167.134 55.0744C164.995 53.9963 162.613 53.5917 160.13 53.4972C157.761 54.3375 156.022 56.1933 154.867 58.9717C153.196 65.89 158.347 68.964 157.532 75.1658C156.703 77.8627 155.749 80.3305 154.119 81.7564C155.129 78.0667 155.383 74.86 156.115 71.3448C156.048 70.4364 155.87 69.5918 155.637 68.7841C150.794 68.215 145.325 67.5292 140.753 67.1818C139.079 67.0534 137.374 67.0151 135.762 66.7633C134.623 66.589 133.592 66.2179 132.43 66.0138C131.237 65.7999 130.028 65.7691 128.856 65.5618C126.45 65.1274 124.015 64.5833 121.685 63.9521C120.618 63.6577 119.641 63.1931 118.594 62.9053C116.121 62.2382 113.434 62.0215 111.445 60.4168C112.172 59.1484 112.75 57.6544 113.292 56.1039C114.106 55.1413 115.384 54.3196 116.802 53.7436C118.184 53.1777 119.753 52.6175 121.251 52.6436C123.884 52.6874 125.438 53.9947 127.609 54.7731C130.109 55.4933 132.374 55.9816 134.613 56.3502C138.314 56.9548 141.196 56.8143 143.932 56.172C146.695 55.5162 149.099 54.2663 151.574 53.3389C152.218 52.7966 152.984 52.3834 153.658 51.8842C153.983 51.6363 154.194 51.3291 154.546 51.0345C154.867 50.7633 155.613 50.7197 155.476 50.0214C154.05 49.6422 153.365 50.4477 152.082 50.3041C152.468 49.5999 152.693 48.6102 152.646 47.8082C152.258 47.3707 151.666 48.0959 151.163 48.1749C150.786 48.716 150.269 49.0114 149.694 49.2438C146.285 50.452 142.862 51.7667 139.161 52.4803C135.45 53.1906 131.337 53.5035 126.686 52.6539C124.534 51.5825 122.691 50.3132 119.613 49.8355C116.238 49.9916 113.444 51.1136 111.19 53.0218C109.38 54.5551 108.182 56.6879 107.359 59.165C107.063 60.0319 106.951 61.0144 106.387 61.9258C106.114 62.6228 106.183 63.8641 105.689 64.2226C105.455 62.6061 104.952 61.1672 104.621 59.6077C105.219 59.2719 105.437 58.3355 105.77 57.5916C107.278 52.8244 106.48 49.5163 104.281 47.1003C103.529 47.0973 103.978 46.3362 103.431 46.2124C97.5406 44.3469 92.8226 46.1339 88.3208 47.1942C87.554 47.6407 86.8107 48.1169 86.0708 48.6165C79.9526 49.9443 75.3371 53.6481 66.7669 51.1032C65.3431 49.9051 64.6327 48.2542 64.1282 46.4825C64.1314 45.7635 63.6866 45.3296 63.0592 45.0131C62.2366 45.5963 62.3967 47.7425 61.7383 48.5678C60.8015 48.2495 59.931 47.8975 59.3824 47.341C58.7562 47.2575 58.4918 46.9492 58.1278 46.708C58.0871 46.5617 57.9271 46.5092 57.8303 46.4664C57.6236 46.3875 57.5525 46.1316 57.458 46.5548C56.984 49.7226 58.8926 51.3677 59.9052 53.583C60.3952 53.7104 60.4437 54.1029 60.5884 54.4384C61.5628 54.9463 62.3767 55.9776 63.451 56.485C64.0348 56.7651 64.7709 56.8514 65.4079 57.1046C66.1282 57.3741 66.6992 57.7608 67.3323 57.8909C68.0519 58.0272 68.9201 57.9131 69.7823 57.9189C70.6144 57.9149 71.4302 57.9609 72.2323 57.947C74.6653 57.892 76.9266 57.4483 78.9249 56.9959C80.0953 56.7373 81.8147 56.4261 82.671 55.9093C83.3912 55.4698 84.1787 55.1963 84.846 54.817C87.4776 53.8522 90.0219 52.7481 92.6972 51.8531C93.9525 51.2679 95.2181 50.7192 96.8156 50.6781C98.3092 50.4812 99.6284 50.0055 101.585 50.5252C102.87 51.3345 103.515 52.543 103.165 54.3888C102.435 54.1826 102.236 53.641 101.24 53.6026C94.963 57.847 88.1994 61.3115 80.4932 63.2928C73.0487 65.6921 64.1887 65.8548 54.4497 64.6105C53.9754 64.2666 53.3489 64.7922 53.2835 64.3498C53.0385 63.9482 52.5166 64.0872 52.1172 64.0892C51.5893 64.3813 51.1253 64.783 50.7786 65.3672C50.3436 67.6394 51.538 68.8952 52.0653 70.5636C52.0812 71.0895 52.7576 71.9317 52.3995 72.213C51.3162 71.902 50.6112 71.3495 49.7137 70.9112C48.8288 69.6572 47.6221 68.6079 46.2329 67.676C45.1199 67.4217 44.0136 67.1808 42.9006 66.9265C38.7062 66.847 35.6489 68.5693 32.5345 70.1955C30.6217 71.8058 28.9707 73.8676 27.7423 76.5997C25.952 83.5785 27.8688 88.9815 25.8914 96.4971C25.2416 97.7352 24.6489 99.0695 23.8549 100.072Z" fill="#E31E25"/>
<path fill-rule="evenodd" clip-rule="evenodd" d="M113.597 58.6193C114.013 57.9249 114.634 57.5524 114.922 56.639C115.592 56.1165 116.306 55.6637 116.875 54.9752C115.195 54.5906 114.754 56.1405 113.812 56.9173C113.795 57.4433 113.269 58.3013 113.597 58.6193Z" fill="#E31E25"/>
<path fill-rule="evenodd" clip-rule="evenodd" d="M151.03 49.5266C151.099 49.9923 150.889 50.5326 150.649 51.1961C151.075 51.7566 151.791 51.3271 152.354 51.4009C150.324 52.862 147.805 53.5532 145.503 54.5929C142.99 55.2974 140.339 55.7796 137.363 55.7341C135.247 55.2617 133.145 54.7826 131.029 54.3102C134.623 54.1263 138.367 54.1581 141.576 53.3604C144.851 52.6621 147.61 51.1409 150.58 49.9549C150.759 49.8475 150.781 49.5112 151.03 49.5266Z" fill="white"/>
<path fill-rule="evenodd" clip-rule="evenodd" d="M168.334 87.0502C167.653 87.3364 167.232 86.2233 166.651 85.9665C166.412 85.3119 165.91 84.8151 165.657 84.1672C165.363 80.404 167.337 75.5346 168.44 71.8312C169.492 66.8698 169.713 62.4449 168.342 59.0264C168.011 58.1426 167.349 57.4601 166.753 56.744C165.615 56.2269 164.368 55.7736 162.826 55.5115C163.014 55.2076 163.37 55.1693 163.77 55.2007C164.033 55.3092 164.089 55.1059 164.309 55.1448C166.848 55.7783 167.921 57.3375 169.077 58.8464C169.232 59.3184 169.288 59.8573 169.652 60.1984C170.013 62.4435 170.466 64.6415 170.153 67.3192C168.975 72.9703 167.137 79.0473 167.314 83.8463C167.582 84.9534 167.834 86.0773 168.334 87.0502Z" fill="white"/>
<path fill-rule="evenodd" clip-rule="evenodd" d="M121.012 51.3467C116.203 52.262 111.649 53.5822 110.305 59.9764C109.776 59.969 108.918 59.4439 108.6 59.7716C108.346 58.9906 109.231 58.051 109.363 57.1416C110.371 56.3312 111.12 55.0927 112.115 54.2557C112.606 53.8406 113.197 53.6247 113.751 53.2192C113.884 53.1187 113.902 52.859 114.035 52.7585C114.201 52.6246 114.961 52.1316 115.263 51.987C115.432 51.9096 115.649 52.0251 115.802 51.9311C116.064 51.7734 116.539 51.5081 117.154 51.3554C118.091 51.1311 119.538 50.8745 121.012 51.3467Z" fill="white"/>
<path fill-rule="evenodd" clip-rule="evenodd" d="M104.389 58.2903C103.312 56.6744 104.892 54.2569 104.539 52.1915C104.314 51.0875 103.511 50.3591 102.862 49.5367C102.598 49.4614 102.206 49.4767 102.234 49.2202C100.221 48.6707 98.557 48.6788 96.9129 48.7267C92.7739 49.7953 89.1246 51.6337 85.2406 53.1071C83.3638 53.8984 81.5272 54.7694 79.6202 55.5176C77.465 55.8742 75.3434 56.2972 72.9634 56.2921C75.3467 55.6115 77.6194 54.7617 79.9591 54.0114C82.2959 53.3377 84.3207 52.1629 86.6574 51.4892C88.7422 50.334 91.1759 49.7364 93.3982 48.8036C95.6846 48.047 97.8771 47.1376 100.613 47.1044C101.17 47.2315 101.726 47.3586 102.283 47.4858C102.284 47.7188 102.67 47.7235 102.91 47.8023C105.39 49.9339 106.267 53.6444 104.389 58.2903Z" fill="white"/>
<path fill-rule="evenodd" clip-rule="evenodd" d="M170.142 70.4615C170.287 70.2212 170.321 70.4873 170.272 70.6706C170.22 70.8972 170.171 71.1138 170.119 71.3404C170.018 71.7836 169.917 72.2268 169.816 72.67C169.614 73.5564 169.422 74.446 169.216 75.3424C169.071 75.5828 169.037 75.3167 169.086 75.1334C169.138 74.9068 169.187 74.6902 169.239 74.4636C169.34 74.0204 169.441 73.5772 169.532 73.1307C169.734 72.2443 169.936 71.3579 170.142 70.4615Z" fill="white"/>
<path fill-rule="evenodd" clip-rule="evenodd" d="M101.039 55.2645C101.404 55.772 100.3 55.8972 100.239 56.4866C99.8176 56.725 99.406 56.9666 99.1421 57.4672C96.0565 58.8369 93.1487 60.5086 90.2173 62.1172C87.1179 63.3938 84.0017 64.6538 80.6742 65.5786C77.2461 66.3375 73.6939 66.9006 70.1047 67.4072C68.2588 67.6991 66.26 67.3759 64.1693 67.2995C60.5703 67.1605 56.5599 67.2631 52.5164 65.3721C52.7534 64.8184 53.3785 65.3779 53.7252 65.4694C55.3548 65.8709 57.0399 66.0359 58.8051 66.2603C66.8487 67.2699 74.5511 66.5835 80.7391 64.5364C88.0714 62.344 95.1588 59.75 101.039 55.2645Z" fill="white"/>
<path fill-rule="evenodd" clip-rule="evenodd" d="M153.325 69.6543C153.551 69.7064 153.768 69.7553 153.994 69.8075C153.972 70.5865 153.164 70.1444 152.678 70.2066C151.264 70.2967 149.712 70.1977 148.281 70.2712C143.676 69.7908 138.598 68.8235 133.803 68.414C125.788 67.7238 116.663 64.7756 109.793 61.4369C109.532 61.2185 108.893 61.2415 109.077 60.748C109.801 60.3651 109.856 61.3134 110.509 61.4168C113.93 63.4473 118.792 64.5655 123.345 65.8816C125.549 65.9175 128.778 66.6775 131.624 67.2229C133.669 67.6058 135.7 67.6292 137.572 68.0329C138.285 68.1892 139.026 68.5318 139.706 68.6883C141.649 69.1482 143.656 69.1751 145.521 69.2993C147.389 69.4134 149.243 69.5675 150.95 69.2963C151.736 69.399 152.75 69.8867 153.325 69.6543Z" fill="white"/>
<path fill-rule="evenodd" clip-rule="evenodd" d="M158.958 72.6758C159.03 72.489 159.144 72.6149 159.125 72.7082C159.052 72.895 158.938 72.7691 158.958 72.6758Z" fill="white"/>
<path fill-rule="evenodd" clip-rule="evenodd" d="M168.695 77.6748C168.956 79.9869 168.556 82.725 169.394 84.6615C169.615 85.476 170.366 85.955 170.686 86.7024C173.161 87.8022 175.022 86.4517 176.32 84.9942C176.406 85.7094 176.287 86.5455 177.356 86.6302C176.46 87.1005 175.456 87.3916 174.348 87.5268C173.475 87.9604 172.37 88.019 171.382 88.2601C170.989 88.1755 170.609 88.0841 170.216 87.9995C169.519 87.66 169.328 86.8221 169.056 86.1677C168.143 83.9519 167.834 81.2805 168.695 77.6748Z" fill="white"/>
<path fill-rule="evenodd" clip-rule="evenodd" d="M70.4351 56.6041C70.3713 56.4945 70.6073 56.4168 70.6442 56.4733C70.698 56.5795 70.472 56.6605 70.4351 56.6041Z" fill="white"/>
<path fill-rule="evenodd" clip-rule="evenodd" d="M158.408 77.4585C158.185 79.3902 157.179 81.2758 156.301 82.9377C155.427 84.5896 154.505 85.9821 153.125 86.9474C152.995 86.1292 153.163 85.1098 153.427 84.0334C154.355 83.0969 155.483 82.459 156.179 81.1474C157.053 80.138 157.813 78.936 158.408 77.4585Z" fill="white"/>
<path fill-rule="evenodd" clip-rule="evenodd" d="M99.3735 74.3253C98.7238 74.8877 98.6476 76.336 97.5518 76.1982C98.2384 75.6922 98.2576 74.1476 99.3735 74.3253Z" fill="white"/>
<path fill-rule="evenodd" clip-rule="evenodd" d="M95.832 73.7073C96.203 74.0284 95.4193 74.3917 95.4048 74.8411C95.0539 74.5599 95.5123 73.669 95.832 73.7073Z" fill="white"/>
<path fill-rule="evenodd" clip-rule="evenodd" d="M101.056 75.4091C101.693 75.5958 100.532 76.4336 100.388 76.8403C100.063 76.3792 100.959 75.9422 101.056 75.4091Z" fill="white"/>
<path fill-rule="evenodd" clip-rule="evenodd" d="M101.871 76.4743C102.194 76.6026 102.096 77.0025 102.423 77.1207C102.206 77.6477 101.738 77.2172 101.381 77.0559C101.529 76.8388 101.732 76.6947 101.871 76.4743Z" fill="white"/>
<path fill-rule="evenodd" clip-rule="evenodd" d="M93.1785 76.9687C93.2508 76.782 93.3646 76.9079 93.3451 77.0012C93.2628 77.1847 93.149 77.0587 93.1785 76.9687Z" fill="white"/>
<path fill-rule="evenodd" clip-rule="evenodd" d="M113.27 81.8405C113.313 81.6772 113.506 81.7628 113.643 81.7522C113.603 81.9055 113.407 81.8299 113.27 81.8405Z" fill="white"/>
<path fill-rule="evenodd" clip-rule="evenodd" d="M138.619 87.5398C138.661 87.3765 138.855 87.4621 138.991 87.4514C138.949 87.6147 138.752 87.5391 138.619 87.5398Z" fill="white"/>
<path fill-rule="evenodd" clip-rule="evenodd" d="M111.216 82.4304C111.258 82.2671 111.452 82.3527 111.588 82.342C111.549 82.4953 111.352 82.4197 111.216 82.4304Z" fill="white"/>
<path fill-rule="evenodd" clip-rule="evenodd" d="M140.226 88.9538C140.269 88.7905 140.462 88.8761 140.599 88.8655C140.556 89.0288 140.363 88.9432 140.226 88.9538Z" fill="white"/>
<path fill-rule="evenodd" clip-rule="evenodd" d="M109.393 82.7183C109.514 82.315 109.966 82.7954 110.063 82.8715C109.842 83.3419 109.742 82.6334 109.393 82.7183Z" fill="white"/>
<path fill-rule="evenodd" clip-rule="evenodd" d="M142.109 89.9032C141.953 90.107 141.68 90.1283 141.361 90.0899C141.476 89.8064 141.742 89.7718 142.109 89.9032Z" fill="white"/>
<path fill-rule="evenodd" clip-rule="evenodd" d="M115.951 84.7137C115.785 84.9142 115.522 84.9388 115.202 84.9004C115.157 84.3647 115.648 84.6919 115.951 84.7137Z" fill="white"/>
<path fill-rule="evenodd" clip-rule="evenodd" d="M135.259 89.2405C135.27 88.9342 136.263 89.1491 135.886 89.557C135.579 89.5119 135.582 89.2689 135.259 89.2405Z" fill="white"/>
<path fill-rule="evenodd" clip-rule="evenodd" d="M53.6787 75.778C51.574 74.8662 50.1395 73.5317 48.2969 72.4621C46.7662 71.1847 44.3065 70.5109 42.507 69.4112C41.9505 69.284 41.394 69.1569 40.8375 69.0298C41.6579 68.6563 42.7568 68.7509 43.7281 68.6263C46.1548 69.3336 47.6191 70.6446 48.9141 72.0663C49.8522 72.6177 50.5247 73.3367 51.4893 73.8746C51.8032 74.7752 54.0783 74.4246 53.6787 75.778Z" fill="white"/>
<path fill-rule="evenodd" clip-rule="evenodd" d="M144.014 91.5578C143.947 91.4583 144.186 91.3706 144.223 91.427C144.287 91.5365 144.051 91.6142 144.014 91.5578Z" fill="white"/>
<path fill-rule="evenodd" clip-rule="evenodd" d="M54.6366 77.7543C53.8728 78.1241 52.881 78.1422 51.6477 77.782C49.7046 76.5798 48.2493 75.0724 46.6149 73.6723C45.1166 72.9039 43.3097 72.3335 41.8413 71.5417C40.9549 71.3397 40.0652 71.1476 39.1688 70.9422C38.1211 71.0971 37.1102 71.3083 36.2032 71.6755C34.7245 72.1986 33.8664 73.7007 32.5855 74.5324C32.3406 74.1308 33.0859 73.3783 33.4276 73.1469C33.6677 72.5499 34.1124 72.2748 34.4363 71.7939C34.8389 71.7487 34.9832 71.3086 35.2918 71.1108C36.9994 70.4301 38.7639 69.8124 40.7265 69.5366C41.1197 69.6213 41.4996 69.7127 41.8928 69.7973C43.8603 70.5534 45.3367 71.6247 47.2612 72.4109C48.6898 73.9318 50.8287 75.0099 52.503 76.3899C53.0595 76.517 53.616 76.6441 54.1725 76.7712C54.4234 77.0197 54.3691 77.4893 54.6366 77.7543Z" fill="white"/>
<path fill-rule="evenodd" clip-rule="evenodd" d="M38.6391 69.4166C38.5754 69.307 38.8113 69.2293 38.8482 69.2858C38.912 69.3953 38.676 69.473 38.6391 69.4166Z" fill="white"/>
<path fill-rule="evenodd" clip-rule="evenodd" d="M38.2766 69.5084C38.2128 69.3988 38.4488 69.3211 38.4857 69.3775C38.5394 69.4838 38.3135 69.5648 38.2766 69.5084Z" fill="white"/>
<path fill-rule="evenodd" clip-rule="evenodd" d="M28.4241 103.907C28.1856 102.777 28.6373 101.197 28.4154 100.05C27.1413 100.219 26.1591 100.849 24.8683 101.002C26.7266 98.4433 27.8265 95.2925 28.3746 91.6283C28.9843 87.6077 27.7437 83.0136 28.8607 78.5944C29.662 75.6447 30.8724 73.3387 32.3814 71.5073C33.9272 70.4081 35.889 69.9659 37.7602 69.3943C38.3361 69.3948 37.9419 69.7862 37.6853 69.7242C37.4191 69.7587 37.2133 69.8796 36.9372 69.9109C36.532 70.0992 36.1336 70.3009 35.621 70.31C34.9143 70.7761 34.3551 71.4678 33.5377 71.7647C32.1539 74.0249 30.0791 75.1833 29.6414 78.9501C29.9549 80.4598 29.5086 82.4624 29.7193 84.0492C29.6944 85.7802 29.8089 87.424 30.0063 89.0174C30.1156 92.3322 30.112 95.7208 29.7898 99.3039C29.578 100.254 29.3696 101.193 29.1478 102.14C28.931 102.733 28.6004 103.201 28.4241 103.907Z" fill="white"/>
<path fill-rule="evenodd" clip-rule="evenodd" d="M75.3841 80.493C75.7186 80.8242 75.0559 81.4599 74.9144 81.7901C74.5229 81.3626 75.3498 80.9691 75.3841 80.493Z" fill="white"/>
<path fill-rule="evenodd" clip-rule="evenodd" d="M76.0212 80.813C76.5682 81.0367 75.9679 81.4823 75.793 81.8127C75.3691 81.5517 76.1469 81.3416 76.0212 80.813Z" fill="white"/>
<path fill-rule="evenodd" clip-rule="evenodd" d="M76.9036 81.5339C77.1339 81.6759 77.268 81.875 77.4984 82.017C77.347 82.3772 76.4666 82.022 76.9036 81.5339Z" fill="white"/>
<path fill-rule="evenodd" clip-rule="evenodd" d="M74.3296 81.3101C74.2659 81.2006 74.5018 81.1229 74.5387 81.1793C74.6058 81.2788 74.3665 81.3665 74.3296 81.3101Z" fill="white"/>
<path fill-rule="evenodd" clip-rule="evenodd" d="M32.0141 74.7548C32.4845 74.9755 31.776 75.0755 31.8609 75.4246C31.4575 75.3034 31.938 74.8517 32.0141 74.7548Z" fill="white"/>
<path fill-rule="evenodd" clip-rule="evenodd" d="M31.4529 75.6894C31.5252 75.5027 31.639 75.6286 31.6194 75.7219C31.5471 75.9087 31.4366 75.7727 31.4529 75.6894Z" fill="white"/>
<path fill-rule="evenodd" clip-rule="evenodd" d="M31.169 76.15C31.3143 75.9096 31.3488 76.1758 31.2998 76.3591C31.1578 76.5894 31.1232 76.3233 31.169 76.15Z" fill="white"/>
<path fill-rule="evenodd" clip-rule="evenodd" d="M30.8197 76.9441C31.0214 76.6669 30.9735 77.0832 30.9081 77.3165C30.7096 77.5837 30.7543 77.1774 30.8197 76.9441Z" fill="white"/>
<path fill-rule="evenodd" clip-rule="evenodd" d="M117.913 106.36C118.099 106.432 117.981 106.693 117.968 106.899C117.569 106.868 117.287 107.019 116.76 106.802C117.024 106.468 117.648 106.694 117.913 106.36Z" fill="white"/>
<path fill-rule="evenodd" clip-rule="evenodd" d="M125.214 108.179C125.257 108.016 125.45 108.102 125.587 108.091C125.548 108.244 125.351 108.169 125.214 108.179Z" fill="white"/>
<path fill-rule="evenodd" clip-rule="evenodd" d="M125.842 108.496C125.884 108.333 126.078 108.418 126.214 108.407C126.175 108.561 125.978 108.485 125.842 108.496Z" fill="white"/>
<path fill-rule="evenodd" clip-rule="evenodd" d="M115.002 106.048C115.462 106.875 114.046 106.632 113.741 106.986C113.479 106.502 114.69 106.389 115.002 106.048Z" fill="white"/>
<path fill-rule="evenodd" clip-rule="evenodd" d="M30.5195 89.1422C30.4557 89.0326 30.6917 88.9549 30.7286 89.0113C30.7956 89.1109 30.5564 89.1986 30.5195 89.1422Z" fill="white"/>
<path fill-rule="evenodd" clip-rule="evenodd" d="M30.6533 89.3408C31.1397 90.7964 30.9823 92.6612 31.3027 94.2174C31.2645 95.9552 31.3923 97.5922 31.1716 99.4473C30.5448 102 29.7638 104.314 28.3723 105.652C28.4439 104.623 29.4653 103.164 29.9023 101.967C30.9347 97.2649 30.7061 93.3682 30.6533 89.3408Z" fill="white"/>
<path fill-rule="evenodd" clip-rule="evenodd" d="M79.5567 100.87C79.6589 100.66 80.0026 100.828 80.259 100.857C80.1867 101.044 80.2272 101.157 80.3474 101.229C79.9836 101.73 80.0257 100.792 79.5567 100.87Z" fill="white"/>
<path fill-rule="evenodd" clip-rule="evenodd" d="M81.5236 101.493C81.6258 101.283 81.9694 101.451 82.2259 101.48C83.5092 102.532 84.1121 104.004 85.256 105.144C84.9381 105.471 84.4849 104.691 84.3638 104.419C83.8269 104.232 83.7348 103.77 83.3507 103.488C82.8213 102.772 82.1227 102.166 81.5236 101.493Z" fill="white"/>
<path fill-rule="evenodd" clip-rule="evenodd" d="M83.8987 101.851C85.2246 102.065 84.9309 103.298 85.7291 103.836C85.137 103.919 84.5755 102.76 84.1537 102.256C83.8541 102.258 83.8631 102.061 83.8987 101.851Z" fill="white"/>
<path fill-rule="evenodd" clip-rule="evenodd" d="M124.012 118.94C123.948 118.83 124.184 118.753 124.221 118.809C124.285 118.919 124.049 118.996 124.012 118.94Z" fill="white"/>
<path fill-rule="evenodd" clip-rule="evenodd" d="M160.892 54.7218C159.852 55.7987 159.093 57.3003 158.771 59.4987C158.705 63.7863 160.096 67.1448 160.744 70.9796C160.466 73.4474 160.597 75.6503 159.762 78.4671C159.418 78.9747 159.299 79.844 158.855 80.1857C158.857 80.7183 158.548 80.7497 158.46 81.1529C158.344 81.27 158.228 81.387 158.176 81.6136C158.104 81.8004 157.99 81.6745 158.009 81.5812C158.584 80.673 158.763 79.1476 159.298 78.193C160.194 74.1444 159.702 70.9813 158.766 68.0932C158.097 65.9462 157.361 63.8327 156.914 61.5481C157.004 60.1597 157.402 58.5733 157.761 57.0071C157.994 57.006 157.998 56.6199 158.077 56.3798C158.875 55.6004 159.687 54.8475 160.892 54.7218Z" fill="white"/>
<path fill-rule="evenodd" clip-rule="evenodd" d="M156.823 58.0071C157.425 58.4369 156.629 59.7489 156.599 60.5812C156.545 61.7598 156.786 62.7473 156.925 63.8117C157.418 64.6382 157.261 65.8938 157.864 66.6565C157.896 67.7748 158.442 68.5743 158.597 69.6221C158.779 70.0806 158.755 70.6599 158.964 71.1049C158.803 71.4951 159.189 71.5332 158.945 71.9737C159.225 72.1322 158.867 72.4468 158.912 72.1403C158.33 68.1721 155.973 65.3275 155.996 60.9703C156.227 59.9273 156.404 58.7781 156.823 58.0071Z" fill="white"/>
<path fill-rule="evenodd" clip-rule="evenodd" d="M93.9757 47.7194C94.3656 47.814 93.8081 48.1629 93.5708 47.9743C93.5295 48.3706 93.0486 48.0468 92.9569 48.3601C92.324 48.2633 92.107 48.8236 91.4741 48.7268C90.901 49.2921 90.0685 49.2295 89.3774 49.4792C89.301 49.5095 89.1957 49.763 89.1358 49.7766C88.8864 49.8278 88.73 49.8318 88.3878 49.9633C86.8696 50.5731 84.9394 51.3581 83.3389 52.1514C82.2609 52.2631 81.6525 53.1049 80.5041 53.0938C79.6844 53.6004 78.6568 53.7951 77.6594 54.0329C75.8858 54.847 73.7936 55.1467 71.9831 55.9044C70.3461 56.0322 68.5211 55.8546 66.7532 55.7733C66.0834 55.6201 65.4236 55.4702 64.7505 55.327C61.0363 54.0535 59.8806 51.1598 58.413 48.4741C58.838 48.259 59.4016 49.1749 59.7659 49.4827C60.3134 49.8063 60.5157 50.3379 61.2855 50.5239C61.8841 51.0969 61.8655 52.0656 62.9818 52.3098C63.6454 51.1982 62.684 49.9413 63.1364 48.4945C63.8228 50.0157 64.4959 51.5436 66.3006 52.357C66.9909 52.6166 67.433 52.4847 68.0059 52.5618C69.5773 53.3098 71.7651 53.4956 73.5041 53.8C75.4975 53.7005 77.2159 53.1896 78.9979 52.7549C79.7919 52.4282 80.5086 51.9653 81.467 51.9141C82.328 51.6869 82.9443 51.0914 83.8053 50.8643C86.6285 48.91 90.4714 48.5752 93.9757 47.7194Z" fill="white"/>
<path fill-rule="evenodd" clip-rule="evenodd" d="M52.4816 67.0994C59.5355 69.2688 66.4056 69.2289 72.3891 68.9536C77.6932 68.5884 82.7458 67.8416 86.6914 65.3361C90.1166 64.6538 93.0419 63.165 96.0578 61.8389C97.1694 61.1179 98.1468 60.1645 99.3623 59.5994C99.8424 59.0812 100.557 58.9279 101.031 58.3964C101.693 58.4364 102.093 57.1829 102.589 57.6998C102.756 59.3167 103.375 60.6385 103.894 62.0273C104.028 63.6111 104.514 64.9668 104.619 66.5741C105.305 69.48 105.59 72.6308 105.872 75.7916C106.621 78.6406 106.72 81.9189 106.883 85.3066C106.887 85.3965 107.105 85.8115 107.105 85.878C107.105 86.4872 107.038 87.1299 107.021 87.7891C106.982 90.0361 107.109 92.8914 106.699 95.4265C106.211 98.4679 104.933 101.35 103.973 104.447C103.475 104.716 103.437 105.711 102.801 105.757C102.719 106.683 102.302 107.078 102.015 107.682C99.7967 109.447 97.4241 110.973 94.7395 111.998C91.894 112.77 88.6593 112.939 85.267 112.846C78.4482 111.108 74.5099 107.545 69.8149 104.466C67.0294 100.462 64.7882 96.1154 62.3013 91.91C61.708 89.6661 60.9221 87.5362 60.0765 85.4533C58.5115 81.2069 56.6975 77.1115 55.013 72.9256C54.7379 71.8051 54.0515 70.9597 53.7764 69.8392C53.2688 69.4955 53.4182 68.7359 52.8708 68.4123C52.7563 68.1532 52.7116 67.8506 52.5175 67.6318C52.6762 67.418 51.9756 67.0885 52.4816 67.0994ZM64.8484 96.1683C65.9732 98.1767 67.2805 100.068 68.631 101.929C69.3809 102.817 70.1869 103.602 71.0562 104.397C71.8987 105.171 72.7924 106.196 74.2586 106.521C74.0644 105.594 73.17 105.112 72.4282 104.536C72.0148 103.703 70.9443 103.285 70.6336 102.375C69.1433 101.177 68.5223 99.4226 67.0086 98.2283C66.4509 97.1592 65.8035 96.1271 65.0665 95.1654C64.7166 95.0838 64.6454 94.1189 64.3509 94.4765C64.6329 94.9677 64.8717 95.4892 64.8484 96.1683ZM96.4624 67.023C94.0972 66.635 91.5015 68.1321 90.0056 69.2478C89.6375 69.5258 89.1018 70.2474 88.8761 70.395C88.0831 70.9214 87.8014 71.8481 87.1886 72.4669C86.2403 72.5547 84.9734 72.1281 84.7195 73.3077C84.9488 73.9257 85.6527 74.2452 86.5689 74.4238C88.7051 74.2603 89.8953 72.5903 91.0454 70.8738C92.5994 70.0874 93.9924 69.0487 95.8885 68.8066C96.1118 68.8687 96.2747 68.8114 96.4275 68.7507C97.5518 69.2745 98.9947 69.6037 100.146 70.1141C100.984 70.7325 102.726 71.6694 103.389 70.4912C100.645 69.5025 99.2939 67.4753 96.4624 67.023ZM103.678 77.7528C103.658 77.1371 103.575 76.5783 103.148 76.2275C103.46 75.4105 102.962 75.1034 102.813 74.5782C101.189 73.2146 99.0571 72.1831 96.1121 71.6714C94.658 71.7817 93.6199 72.5489 92.4543 73.1304C90.7608 75.3555 88.8426 77.2188 87.9441 80.7016C89.9616 81.4741 90.7683 80.3318 91.7327 79.4517C93.2289 79.1116 94.3359 78.1342 95.9261 77.9468C98.1466 77.9993 100.934 78.9245 103.084 78.8541C103.605 78.5154 103.039 77.8757 103.678 77.7528ZM96.835 79.3637C95.3675 79.4474 93.8229 79.4282 93.1773 80.8227C94.1937 81.0674 94.7271 80.5556 95.5289 80.4751C97.0064 80.3948 98.4672 80.2978 100.223 80.6521C100.441 80.3249 101.115 80.7011 101.334 80.3738C100.415 79.6293 97.9989 79.1251 96.835 79.3637ZM74.2383 75.5087C73.7802 75.0815 73.1927 74.7449 72.7612 74.3042C70.9158 73.3445 68.1002 73.4181 66.5708 73.7916C65.9325 73.9478 65.4843 74.1997 65.2188 74.3674C65.0662 74.4613 64.8425 74.3326 64.6799 74.4232C64.401 74.5644 64.1158 74.7921 63.8669 74.9431C62.8911 75.5204 62.3145 76.0624 61.7053 76.7377C61.4902 76.9884 61.1381 77.1499 61.0589 77.2901C60.4744 78.2615 60.3638 79.477 59.9795 80.5474C60.1956 81.1721 60.1595 81.9578 61.016 82.1834C61.8257 80.2888 62.82 78.7095 64.0154 77.4289C65.9761 76.078 68.3728 75.4239 71.266 75.5531C71.73 75.8271 72.0514 76.1983 72.4457 76.516C73.5513 76.6238 74.0265 77.1341 75.0757 77.2788C75.7824 76.8127 76.9487 77.0734 77.159 75.8241C76.253 75.0063 75.1844 75.6639 74.2383 75.5087ZM76.4812 79.5122C75.3299 78.9019 74.1753 78.3017 73.0372 77.6848C71.5232 77.0996 70.7471 77.6759 69.6859 77.8042C68.1535 78.93 66.4567 79.7804 65.3435 81.5533C64.4563 83.2452 62.6592 85.3809 63.0832 87.7022C64.2093 87.9164 64.7598 86.812 65.4964 86.3225C65.951 86.0174 66.493 85.9182 66.8484 85.7467C67.0178 85.6693 67.1263 85.4058 67.299 85.3185C67.7937 85.0598 68.5381 84.8165 68.8567 84.6219C69.0094 84.528 69.0497 84.6077 69.2291 84.5336C69.5148 84.4057 69.7763 84.1148 70.0421 84.0137C70.2082 83.9463 70.4348 83.9985 70.5811 83.9578C71.4851 83.6672 72.3915 83.2001 73.3801 83.192C74.8766 83.5942 76.145 83.6446 77.4571 83.7648C77.9492 83.6492 77.8325 82.9241 78.0152 82.84C78.3667 82.5787 78.9429 82.6458 78.9456 81.827C78.7137 80.6764 77.0914 80.4213 76.4812 79.5122ZM98.478 90.7696C96.7562 92.642 95.1484 94.7069 93.6011 96.858C93.2123 96.9963 92.9107 97.2741 92.7131 97.7078C91.7771 98.2648 90.7405 98.656 89.8917 99.3524C87.8413 100.031 85.8075 100.727 83.2908 100.666C80.0164 100.179 77.6713 98.4463 74.9434 98.0834C74.6064 98.6043 74.3733 99.2811 74.0363 99.802C75.8012 101.311 77.8215 102.65 79.5299 104.196C81.7661 105.45 83.2756 107.163 86.003 108.102C87.0027 108.33 84.9584 107.682 87.1886 108.102C87.1886 108.102 89.1742 107.812 90.0056 108.288C91.2118 107.852 92.4049 106.96 93.6011 106.521C95.1773 104.823 96.9722 103.569 97.765 100.949C98.0271 100.082 98.0128 99.18 98.198 98.2437C98.4578 96.911 98.8529 95.3347 99.2997 94.1076C99.7663 92.8538 100.824 91.9932 100.422 90.687C100.028 90.6023 99.9969 90.2929 99.4643 90.2955C99.0483 90.3142 98.884 90.7477 98.478 90.7696ZM72.9662 85.0281C72.4478 85.1904 71.9226 85.3394 71.3169 85.3623C70.8289 85.6342 70.4014 86.0258 69.7591 86.0588C69.1642 86.9272 67.5084 87.3146 67.755 88.7581C68.7768 88.0408 69.6978 87.1576 70.8604 86.6527C71.7129 86.046 73.1491 86.362 73.7701 85.3803C73.5962 85.2014 73.3658 85.0594 72.9662 85.0281ZM89.4327 90.4839C88.1735 91.655 87.5181 93.7885 85.5277 93.8114C84.7227 93.2262 84.9663 91.9767 83.534 91.784C83.0913 92.4585 83.8699 93.0905 83.3617 93.3226C82.4121 93.1109 81.4724 92.9024 80.526 92.6806C80.2728 92.6419 79.6878 92.8045 79.5822 92.9914C79.2916 93.4721 79.7056 93.7298 79.6514 94.2326C81.7263 93.7832 84.2111 94.8197 86.4691 95.0618C87.9177 94.4955 88.8798 93.1494 89.8352 91.7901C90.508 91.191 91.6974 91.4149 91.951 90.1688C90.8175 89.8081 90.4287 90.6222 89.4327 90.4839ZM104.574 97.92C103.51 99.5428 102.873 101.417 102.003 103.125C101.106 104.88 99.9953 106.477 99.2685 108.288C100.615 107.998 101.361 106.77 102.151 105.611C104.004 103.981 104.771 100.798 104.989 97.6683C104.978 97.5319 104.898 97.4391 104.691 97.4267C104.649 97.5901 104.607 97.7534 104.574 97.92ZM63.4776 92.174C63.5965 91.9803 63.7725 91.8829 64.0491 91.9515C64.0677 90.9828 63.3828 90.4702 63.1658 89.6457C62.9992 89.6132 62.8359 89.5708 62.6693 89.5383C62.472 90.7142 62.9317 91.4743 63.4776 92.174Z" fill="white"/>
<path fill-rule="evenodd" clip-rule="evenodd" d="M107.727 110.364C107.648 111.989 108.605 112.956 109.352 114.054C110.94 114.819 112.14 115.822 113.678 116.603C114.598 116.772 115.652 117.173 116.383 117.036C118.232 118.052 121.58 118.585 123.852 118.887C122.459 119.25 120.791 119.168 119.347 119.448C117.893 118.75 115.658 118.537 113.882 118.043C111.383 116.814 109.431 115.232 107.519 113.63C106.358 111.699 105.449 109.606 104.514 107.527C107.332 101.705 109.026 92.7892 108.912 86.4488C109.932 86.7833 110.708 86.7163 111.617 86.8817C113.348 86.9066 114.905 86.6528 116.585 86.5947C119.099 86.0566 121.076 84.6557 122.973 83.1286C123.309 82.4746 123.179 82.3987 123.309 81.6324C123.657 81.481 124.04 80.7868 123.778 80.3353C123.592 79.6206 122.476 79.4762 121.687 79.5166C120.65 79.1655 120.019 79.4348 118.982 79.0837C117.07 79.3759 114.983 79.3893 113.325 80.0864C112.354 80.2109 111.597 80.6606 110.559 80.6856C110.015 81.1276 107.918 81.0712 108.304 79.8244C107.995 79.1802 109.184 79.3708 109.656 79.2487C110.198 79.0497 110.666 78.7378 111.348 78.7512C112.25 78.0611 113.763 78.3467 114.853 77.962C116.188 78.0787 117.529 77.9756 118.874 77.9958C119.546 78.0058 120.326 78.1618 120.951 78.1122C121.634 78.059 122.117 77.6305 122.764 77.8205C123.696 77.107 124.702 76.5063 125.01 74.8238C124.758 74.3091 125.183 73.385 124.313 73.2661C123.348 72.6283 122.804 74.455 122.152 75.0607C120.633 75.6039 118.927 75.8419 117.331 76.249C113.851 75.9497 110.928 76.5197 107.891 76.9305C107.651 74.2155 107.283 71.591 106.871 68.9967C107.332 66.7443 107.34 64.797 107.997 62.4205C111.399 64.5111 115.959 65.8737 119.978 67.5685C123.92 68.4182 127.546 69.286 131.69 70.0249C133.499 70.3523 135.377 70.4697 137.143 70.7275C140.63 71.2398 144.241 71.8481 147.874 72.0869C149.586 72.2051 151.259 71.934 152.898 72.3388C152.373 74.5815 151.961 76.7505 151.804 78.7484C151.259 80.2423 151.819 81.0351 151.516 82.3647C152.115 82.3951 151.892 81.1479 152.358 80.9792C153.318 77.849 153.156 74.661 153.81 72.1946C154.399 72.1551 154.304 72.545 154.153 72.9718C154.042 73.3785 153.947 73.7684 154.101 74.0073C153.859 74.7807 153.842 75.4066 153.822 76.0424C152.75 81.6397 150.985 86.9541 149.519 92.0673C148.566 95.3772 147.893 98.6126 146.509 101.548C145.076 104.025 143.882 106.89 142.208 108.989C140.561 111.14 138.631 112.834 136.736 114.594C135.945 114.778 135.271 115.144 134.607 115.513C133.832 115.647 133.218 116.032 132.51 116.266C128.46 116.488 125.095 117.799 120.81 117.657C117.269 117.038 114.819 115.725 112.031 114.634C111.479 113.987 110.678 113.492 110.158 112.812C109.487 112.426 109.284 110.986 108.42 111.189C108.474 112.138 108.073 110.522 107.727 110.364ZM145.02 84.7761C142.987 83.6775 141.19 82.4346 139.131 81.3495C136.657 80.4827 135.232 78.9518 133.694 77.4946C133.585 76.44 133.718 74.8882 132.314 75.0814C131.846 75.3932 131.502 75.9008 131.273 76.601C131.033 77.9402 131.517 78.83 131.974 79.7331C133.752 81.3356 136.348 81.9654 138.564 83.1464C140.754 84.3074 142.452 85.8504 143.927 87.3311C144.904 87.6626 145.526 88.2321 146.645 88.4663C147.38 88.3529 148.461 88.7738 148.579 87.6714C147.711 86.5006 145.831 85.9838 145.02 84.7761ZM145.503 89.6202C144.582 89.1853 143.687 88.6371 142.611 88.4393C142.6 88.3028 142.517 88.22 142.313 88.1977C140.074 86.2779 137.835 84.3582 135.134 82.7302C133.561 82.3917 132.353 81.8183 130.877 81.4227C130.547 81.3478 130.566 81.8303 130.129 81.6094C129.947 81.9598 129.432 82.7545 129.999 82.9848C129.82 83.8344 129.571 83.8856 129.618 84.6543C130.62 86.833 131.905 88.8273 133.733 90.4794C136.299 91.7086 138.228 93.3602 141.895 93.8983C141.967 93.7116 142.201 93.777 142.434 93.8425C143.66 93.4471 144.763 92.8559 145.794 92.1419C146.71 92.1541 147.618 92.1531 147.803 91.0171C147.409 90.2235 146.33 90.0023 145.503 89.6202ZM116.681 87.6893C115.963 87.9192 115.174 88.0262 114.45 88.2427C113.699 88.4727 112.596 88.3216 112.186 88.9627C112.605 89.5099 113.389 89.1799 114.023 89.3765C114.928 88.7763 116.498 89.2247 116.975 87.9409C116.981 87.7878 116.887 87.7017 116.681 87.6893ZM134.147 93.3733C133.917 93.3977 133.758 93.5117 133.696 93.8015C135.413 95.0515 137.399 96.1237 140.231 96.6758C140.442 96.3353 141.063 96.6385 141.217 96.2017C141.176 95.889 140.418 96.0391 140.459 95.6761C139.103 95.4863 138.196 95.0114 136.996 94.7176C135.943 93.8073 134.485 93.152 133.539 92.1879C133.335 92.1656 133.072 92.057 133 92.2438C133.291 92.6718 133.888 92.9119 134.147 93.3733ZM118.528 97.39C117.438 97.099 116.503 97.047 116.134 97.9009C116.885 98.28 117.855 98.5317 118.728 98.8403C119.818 99.7071 121.012 100.93 122.725 101.314C123.531 101.49 124.706 101.454 125.505 101.417C126.463 101.366 127.341 101.122 128.065 100.939C128.652 101.109 129.091 101.054 129.339 100.703C129.078 100.484 128.901 100.216 128.819 99.8899C126.96 99.5128 125.882 100.367 124.315 100.451C123.788 100.167 123.138 99.954 122.554 99.7072C122.266 99.3691 122.469 98.7157 122.155 98.391C121.846 98.5889 121.702 99.029 121.299 99.0742C120.683 98.3182 119.284 98.0587 118.528 97.39ZM129.416 108.948C128.906 108.271 128.354 107.625 128.157 106.74C127.107 105.787 126.117 104.786 124.941 103.913C124.158 103.834 123.973 103.385 123.147 103.336C121.28 103.322 119.419 102.645 117.737 102.47C116.273 102.577 115.041 103.026 113.694 103.315C111.926 104.652 110.139 105.982 109.045 108.404C109.405 108.389 110.319 109.486 110.881 108.818C111.67 108.711 112.337 108.398 113.112 108.264C116.532 107.835 121.467 108.324 124.765 110.192C126.237 111.649 127.336 113.328 128.811 114.776C129.506 114.516 130.428 114.608 130.777 113.814C130.688 111.957 129.634 110.714 129.416 108.948ZM122.642 111.8C121.969 111.557 121.388 111.267 120.718 111.013C119.954 110.708 119.583 111.029 118.849 110.766C117.809 111.001 116.409 110.675 115.841 111.663C118.262 111.781 121.644 112.547 123.342 113.347C123.803 112.889 122.868 112.295 122.642 111.8Z" fill="white"/>
<path fill-rule="evenodd" clip-rule="evenodd" d="M97.3707 73.8797C97.5175 74.6479 96.5368 75.5781 96.1439 76.2357C96.1077 75.6367 97.0717 74.6901 97.3707 73.8797Z" fill="white"/>
<path fill-rule="evenodd" clip-rule="evenodd" d="M100.099 75.0176C100.557 74.7025 99.9375 75.3413 99.9458 75.6874C99.62 75.7689 99.5122 76.1988 99.2569 76.4031C98.9651 75.9418 99.9048 75.4746 100.099 75.0176Z" fill="white"/>
<path fill-rule="evenodd" clip-rule="evenodd" d="M143.847 91.5254C143.296 91.8543 142.531 91.858 141.826 91.9479C142.38 91.6091 143.142 91.6154 143.847 91.5254Z" fill="white"/>
<path fill-rule="evenodd" clip-rule="evenodd" d="M113.102 84.9543C113.24 84.5342 113.337 85.2527 113.772 85.1075C113.651 85.5108 113.189 85.0271 113.102 84.9543Z" fill="white"/>
<path fill-rule="evenodd" clip-rule="evenodd" d="M137.605 90.4637C137.959 90.026 137.647 90.8763 137.232 90.5521C136.962 90.3637 137.381 90.4016 137.605 90.4637Z" fill="white"/>
<path fill-rule="evenodd" clip-rule="evenodd" d="M73.5346 79.3771C73.7222 79.6158 73.0872 80.471 72.8658 80.8083C72.5885 81.2823 72.5861 82.1677 71.9029 81.988C72.458 81.1398 73.0231 80.2949 73.5346 79.3771Z" fill="white"/>
<path fill-rule="evenodd" clip-rule="evenodd" d="M74.9232 80.2089C75.3433 80.3467 74.6348 80.4467 74.77 80.8787C74.3666 80.7575 74.8571 80.3091 74.9232 80.2089Z" fill="white"/>
<path fill-rule="evenodd" clip-rule="evenodd" d="M126.901 109.253C126.8 109.087 126.56 108.975 126.473 108.802C126.237 108.371 126.968 108.71 126.901 109.253Z" fill="white"/>
<path fill-rule="evenodd" clip-rule="evenodd" d="M75.3192 98.6944C75.5428 98.8231 76.223 99.7552 75.8715 99.3408C75.5713 99.2091 75.1681 99.1212 75.3192 98.6944Z" fill="white"/>
<path fill-rule="evenodd" clip-rule="evenodd" d="M77.5084 99.8886C77.1659 99.2778 77.9106 100.453 77.5084 99.8886V99.8886Z" fill="white"/>
<path fill-rule="evenodd" clip-rule="evenodd" d="M87.8775 102.049C88.4733 102.056 88.0106 102.724 88.3974 102.862C88.2257 103.149 87.7661 102.422 87.8775 102.049Z" fill="white"/>
<path fill-rule="evenodd" clip-rule="evenodd" d="M86.0973 102.174C86.914 102.42 86.5725 103.394 87.1337 103.81C86.9356 104.144 86.6489 103.363 86.5814 103.164C86.1278 102.993 85.7124 102.436 86.0973 102.174Z" fill="white"/>
<path fill-rule="evenodd" clip-rule="evenodd" d="M92.5995 105.214C93.0004 105.512 92.0686 105.55 91.9531 105.767C91.3678 105.187 92.4439 105.385 92.5995 105.214Z" fill="white"/>
</g>
<defs>
<clipPath id="clip0_2183_3422">
<rect width="168.569" height="111.876" fill="white" transform="translate(34.8643) rotate(18.1576)"/>
</clipPath>
</defs>
</svg>
