<svg width="99" height="100" viewBox="0 0 99 100" fill="none" xmlns="http://www.w3.org/2000/svg">
<g clip-path="url(#clip0_2183_3492)">
<path fill-rule="evenodd" clip-rule="evenodd" d="M15.1598 99.9857C16.9675 99.5846 18.576 98.6107 20.2414 97.8946C25.5793 95.6173 30.8745 93.741 36.1839 91.6213C43.2869 88.9287 50.2475 86.0785 57.4501 83.4861C60.0122 82.3546 62.7879 81.3807 65.3074 80.4641C67.2575 79.7479 69.0084 78.9745 70.6168 78.373C71.5705 78.0149 72.4531 77.7857 73.3925 77.442C75.1861 76.7831 77.0508 76.2819 78.702 75.3509C82.5595 74.3483 85.6199 72.5437 89.335 71.3979C91.7264 70.0945 94.317 68.963 96.7369 67.674C97.3347 67.0295 98.4735 66.9436 98.8151 66.0412C99.2279 66.1129 98.8293 65.1389 98.3454 65.3394C98.3454 64.7952 98.3454 64.2509 98.3454 63.7067C97.961 62.9333 97.8045 61.9307 97.4201 61.1429C96.8508 59.3813 96.4095 57.5193 95.5697 56.0298C94.5306 52.4921 93.1498 49.3125 92.0965 45.8035C90.73 42.6096 89.6767 39.0862 88.3956 35.8064C87.7692 34.1163 87.2568 32.2973 86.3173 30.9224C85.7622 29.1464 85.0647 27.5279 83.3139 26.9693C81.7054 26.6686 81.6769 27.9576 80.3104 27.9003C79.4991 28.4875 78.218 28.5735 77.307 29.0604C71.3855 31.4666 65.6918 34.1163 59.7418 36.5082C62.4179 30.593 65.3359 24.9212 67.8269 18.8341C68.2539 17.8602 68.5956 16.8147 68.9799 15.8121C69.1222 14.4801 70.2895 14.1793 69.9051 12.3317C69.592 11.4724 68.9514 12.3747 68.5244 11.6299C66.7736 10.6703 64.8235 9.92552 63.215 8.83701C61.0941 7.67688 58.8735 6.47379 56.7383 5.58579C56.2971 5.3996 55.8131 5.07018 55.3576 4.88399C54.3612 4.48296 53.1513 4.33973 52.1264 3.95302C51.7563 3.8098 51.3862 3.40877 50.9734 3.25122C50.5037 3.07935 49.8489 2.95044 49.3507 2.7929C46.1053 1.73303 43.0591 0.830707 39.8849 0C39.2728 0 38.6465 0 38.0344 0C37.7639 0.11458 37.5077 0.243483 37.3369 0.472644C36.3405 0.472644 37.0095 2.1627 36.1839 2.33457C36.1412 3.22257 35.216 3.22257 35.2587 4.19651C34.2623 5.12747 33.6787 6.48811 32.9527 7.69121C31.515 10.126 30.0204 12.4893 28.7963 15.1389C27.2305 17.4449 25.8925 19.9799 24.6398 22.5723C23.4726 24.2624 22.6043 26.2532 21.6364 28.1581C21.0528 28.5878 21.1524 29.6906 20.4834 30.0201C19.5867 32.8416 18.0209 35.3337 16.7825 37.9261C15.5014 40.5901 14.5762 43.3257 13.0815 45.8321C11.0745 51.5612 8.48385 56.7173 5.92166 61.8734C3.92885 62.9476 0.797291 62.9762 0.142511 65.1246C-0.611911 67.6883 1.8791 68.9344 2.22073 71.1687C3.2029 73.045 3.98579 75.1217 4.99643 76.9694C6.19211 81.3521 7.92871 85.1905 9.85035 88.8284C11.0033 91.8505 12.5691 94.4572 13.779 97.4363C14.2915 97.6225 14.3626 98.2526 14.7043 98.5964C15.5441 98.7826 13.9214 100.1 15.1598 99.9857Z" fill="#E31E25"/>
<path fill-rule="evenodd" clip-rule="evenodd" d="M67.8552 13.9506C66.8588 17.5885 65.0083 20.3814 63.6988 23.7185C62.375 23.0454 61.037 22.3722 59.5423 21.8566C59.5566 20.7538 59.0299 20.2095 58.3894 19.7655C57.4784 19.6366 57.0513 19.966 56.5389 20.2382C55.571 20.052 55.0443 19.4218 53.9909 19.3072C54.0763 18.2187 53.3504 17.9322 52.838 17.4453C51.6707 17.2018 51.5142 17.9752 50.532 17.9179C50.0053 17.1302 50.048 15.7695 48.9093 15.5977C47.4716 15.3112 47.5855 16.6002 46.3613 16.5286C45.4076 16.013 45.5642 14.3802 44.2831 14.2084C43.0162 14.0222 43.1586 15.2396 41.9771 15.1393C41.0519 14.7526 41.3508 13.1199 40.3544 12.8191C38.8883 12.4324 38.931 13.5495 37.8065 13.5209C36.6535 13.435 36.6677 12.1889 35.7283 11.8881C34.6749 11.9311 34.2479 12.9766 33.1803 12.3464C34.5468 9.22413 36.2265 6.43123 37.5645 3.28027C37.7211 3.28027 37.8776 3.28027 38.02 3.28027C43.8276 4.25421 48.041 6.84659 53.507 8.16426C58.5602 9.82568 63.1152 11.9884 67.8552 13.9506Z" fill="white"/>
<path fill-rule="evenodd" clip-rule="evenodd" d="M55.6136 22.3291C53.5497 26.6975 50.9448 30.493 48.9093 34.89C47.6709 36.8952 46.7029 39.1868 45.4361 41.1633C44.5962 43.4978 43.1016 45.1593 42.4326 47.68C38.02 56.1017 34.3902 65.3111 30.8743 74.6494C28.7961 73.876 27.5435 72.2575 25.3229 71.6273C23.686 70.4099 21.3373 69.9086 19.5438 68.8344C15.5297 67.13 10.5904 66.3709 7.52997 63.7213C9.70783 59.625 11.4871 55.3569 13.5369 51.1604C15.5439 47.0785 17.6648 42.9966 19.5438 38.8287C22.6611 32.7273 25.5364 26.454 28.7819 20.4529C29.8352 18.5193 30.7462 16.4282 32.0131 14.6379C31.9988 14.2369 32.1839 14.0364 32.4828 13.9361C33.65 13.7786 34.0771 14.3515 34.7888 14.6379C35.045 15.2251 36.5823 14.552 36.867 15.0962C37.9203 15.1965 38.3901 15.884 39.173 16.2564C42.6034 16.6001 44.7955 18.1899 47.7278 19.0493C50.3896 20.1378 53.0372 21.1976 55.6136 22.3291ZM25.7927 28.8316C25.7927 29.0607 25.7927 29.2899 25.7927 29.5334C27.1876 30.7651 29.337 31.2521 30.8743 32.3263C30.5327 32.6986 30.5327 34.045 30.8743 34.4174C32.3547 34.6752 31.7569 32.8132 32.9525 32.7846C36.3118 33.8158 38.8456 35.6921 42.8881 36.0358C43.3009 35.6061 44.0126 35.4629 44.2689 34.8757C44.3685 33.3718 43.7422 32.6127 42.4184 32.5554C41.7494 32.9278 42.7885 33.7585 42.1906 33.9447C38.874 33.2429 35.6855 32.4265 33.1803 30.9226C33.5788 30.3927 33.7354 29.6193 33.65 28.6024C32.0558 28.3159 31.8565 29.4331 31.3441 30.2352C29.6075 29.7768 27.7997 28.2443 25.7927 28.8316ZM31.5718 39.3013C31.7569 40.4758 33.8635 42.2518 34.803 42.5526C35.1873 42.6815 35.8279 42.4953 36.4257 42.5526C38.1623 42.7387 39.2584 42.6815 40.3544 41.8507C41.0946 40.1893 40.7245 37.2389 38.7317 36.9668C38.262 38.2271 38.7317 39.287 38.7317 40.6906C38.1908 40.8482 36.6677 41.2349 36.1837 40.6906C36.4969 39.9888 36.4115 38.9146 36.4115 37.8977C34.8315 34.9902 31.0736 36.0072 31.5718 39.3013ZM30.4188 43.0252C30.1911 43.0252 29.9633 43.0252 29.7213 43.0252C29.6929 43.6267 29.2943 43.8416 29.0239 44.1853C28.91 45.7751 29.1377 47.0212 29.2516 48.3675C26.0916 47.5941 23.1593 46.5915 19.7715 46.0473C19.8996 47.6227 21.6932 47.5225 22.775 48.1383C24.0561 48.6396 25.4083 49.055 26.7037 49.5276C29.4936 50.2867 31.4864 51.8479 35.0165 51.8479C34.8884 50.9742 34.5468 50.3011 33.8635 49.986C33.4934 49.2698 32.0558 49.6422 31.7853 48.8258C34.376 48.4105 37.0378 48.0667 37.3367 45.3311C34.7603 44.6293 33.3369 47.0212 31.3298 47.6514C31.1021 46.0473 30.8032 44.4861 30.4188 43.0252ZM23.7144 52.5497C21.6647 56.7748 26.4759 61.3294 31.1163 59.5248C32.0273 58.1928 33.0664 56.9897 32.739 54.4116C32.0985 54.0392 32.0558 53.0796 30.8886 53.2515C29.8779 54.0536 31.1021 54.9272 30.8886 56.2736C30.4615 56.6173 30.3192 57.2475 29.7356 57.4337C27.3157 57.4623 25.75 56.6316 25.1094 54.8699C25.2802 54.3257 25.5649 53.2658 25.1094 52.7788C24.8247 52.521 24.2838 52.521 23.7144 52.5497ZM16.0848 57.4337C16.0706 57.8061 15.5012 57.6199 15.6151 58.1355C14.7895 58.8516 14.7468 60.3555 14.2344 61.3867C13.7789 62.4752 13.4657 63.7213 13.5369 65.3397C14.4052 65.1679 13.6934 66.5715 14.6899 66.2707C15.7859 65.8983 15.5866 64.2226 16.3126 63.4778C17.8783 64.466 19.558 65.3254 21.622 65.798C23.2305 66.4998 25.3372 67.7029 27.4011 67.1873C27.3727 65.8983 26.2909 65.6691 25.3229 65.3254C22.5472 63.9218 19.0456 63.2773 16.3126 61.845C16.8535 60.8711 17.3659 58.78 16.7681 57.4194C16.5546 57.4337 16.3126 57.4337 16.0848 57.4337ZM18.163 58.8373C18.3338 60.2552 21.1238 60.4701 20.9387 58.6081C20.6683 57.4766 18.0919 57.2045 18.163 58.8373ZM26.4901 61.1575C25.0098 60.6992 24.0988 59.6966 22.3337 59.5248C21.9351 59.5104 21.7359 59.711 21.6362 59.9974C21.8213 60.0547 21.9067 60.1979 21.864 60.4557C24.0703 61.7448 26.4759 64.022 29.7213 63.4778C29.6359 61.7161 27.6289 61.8737 26.4901 61.1575Z" fill="white"/>
<path fill-rule="evenodd" clip-rule="evenodd" d="M57.2222 23.2598C57.4072 23.3887 57.5922 23.5032 57.9196 23.4889C59.0157 23.5605 57.9054 24.6777 57.6919 24.8782C57.5211 25.5514 57.1367 26.024 56.7667 26.511C56.3823 27.757 55.5852 28.5878 55.1439 29.7622C54.0621 31.9392 52.9803 34.1019 51.9127 36.279C47.2866 44.7293 42.9451 53.4517 38.7459 62.3173C37.778 64.609 36.7958 66.8719 35.7425 69.0633C35.3439 70.2807 34.8742 71.4408 34.3618 72.558C34.2194 73.2741 33.8778 73.7754 33.6643 74.4199C33.4792 74.6204 33.4081 74.9498 33.4365 75.3509C33.223 75.4798 33.0807 75.9954 32.9668 75.58C31.828 75.4654 33.0949 74.5202 32.9668 73.9473C33.28 73.4889 33.4081 72.8444 33.6643 72.3145C34.0628 71.0827 34.5326 69.9369 35.045 68.8198C35.8564 66.4566 36.9382 64.3655 37.8207 62.0739C39.6285 57.5479 41.7494 53.3085 43.5999 48.8255C47.9556 40.4898 52.2117 32.0681 56.7667 23.9472C56.7524 23.5605 56.9375 23.3457 57.2222 23.2598Z" fill="white"/>
<path fill-rule="evenodd" clip-rule="evenodd" d="M62.7735 25.3506C58.3466 34.1016 53.8771 42.6808 49.6068 51.3889C45.3649 60.0111 40.027 68.132 36.6677 77.4273C36.2834 77.0406 35.6286 76.926 35.287 76.4964C34.1482 76.3818 35.4151 75.4365 35.287 74.8636C36.0129 73.1878 36.625 71.4118 37.3652 69.7504C38.3758 67.5877 39.1872 65.2245 40.3687 63.2337C44.2546 54.368 48.7385 46.0753 53.0799 37.6536C55.4855 33.7292 57.0656 28.9455 59.0868 24.6344C59.2149 24.4482 59.3288 24.262 59.3146 23.9326C60.553 24.3336 61.407 25.0927 62.7735 25.3506Z" fill="white"/>
<path fill-rule="evenodd" clip-rule="evenodd" d="M96.7367 65.5831C93.7617 67.1586 90.4024 68.3617 87.0289 69.5361C87.0146 68.5479 86.7157 67.8318 86.5734 66.9724C86.6018 66.1417 87.4274 66.1274 87.2709 65.1105C87.1997 63.5636 85.2353 63.9074 84.9649 62.5611C84.8368 61.5012 85.8332 61.5728 85.6624 60.47C85.5058 59.3958 84.5236 59.138 83.5842 58.8372C83.6126 58.2643 83.4703 57.8776 83.1287 57.6771C83.1998 56.7461 84.2105 56.7604 84.0539 55.586C83.9685 54.8985 83.6553 54.4402 83.1287 54.1967C82.8155 53.7384 81.5202 54.2683 81.5059 53.4949C80.6376 52.3348 82.5735 52.3348 82.2034 50.9312C82.1892 49.6708 80.3957 49.6135 79.8975 49.5419C79.6412 49.0263 79.2996 48.5966 79.442 47.6799C79.7978 47.2646 80.0825 46.7633 80.3672 46.2907C80.2391 45.1878 79.3566 44.8298 78.5167 44.4287C78.1466 44.0277 78.4028 42.9965 77.8192 42.796C77.8904 41.9509 78.7302 41.865 78.5167 40.7049C78.4029 39.6593 77.3353 39.5734 76.4385 39.3156C75.9261 38.3846 76.5097 37.6542 76.4385 36.5227C76.3958 36.3365 76.2108 36.2935 76.2108 36.05C76.0399 35.2909 74.9154 35.4915 74.3603 35.1191C74.218 34.4889 73.9048 34.0306 73.4351 33.7298C73.8763 33.0137 75.0293 33.0137 75.741 32.5697C78.0897 31.6101 80.5238 30.7077 82.6732 29.5476C83.0433 29.476 83.0717 29.7624 83.3706 29.7768C86.2033 35.1477 87.5555 41.9939 89.8473 47.9091C90.9006 50.9598 91.897 54.0678 93.0785 56.9753C94.0891 60.026 94.8008 63.4204 96.7367 65.5831Z" fill="white"/>
<path fill-rule="evenodd" clip-rule="evenodd" d="M33.4223 37.8975C33.7354 37.8975 34.0343 37.8975 34.3475 37.8975C34.746 38.4274 34.9026 39.2008 34.803 40.2177C33.7781 39.9886 33.0237 38.8857 33.4223 37.8975Z" fill="white"/>
<path fill-rule="evenodd" clip-rule="evenodd" d="M46.8311 61.1572C46.7172 61.0426 47.0019 60.8564 47.0588 60.9281C47.1727 61.0426 46.888 61.2145 46.8311 61.1572Z" fill="white"/>
<path fill-rule="evenodd" clip-rule="evenodd" d="M48.9093 64.4081C48.0979 63.7063 48.3114 60.9564 49.8345 61.1569C50.4323 62.6321 49.6637 63.6634 48.9093 64.4081Z" fill="white"/>
<path fill-rule="evenodd" clip-rule="evenodd" d="M5.69375 65.5833C6.22042 65.5547 6.47664 65.7981 7.31646 66.2851C7.8289 66.5859 8.25593 67.259 8.93918 67.2161C9.87865 67.9752 11.2024 68.3619 12.4124 68.8488C14.8607 69.7941 17.3944 70.6678 19.8142 71.6417C20.1843 73.3604 21.0242 74.6065 21.437 76.2966C22.291 77.4567 22.1202 79.648 23.7429 80.0204C24.9244 79.5191 24.0703 77.9293 23.7429 76.9984C23.3301 75.9385 22.9743 74.8357 22.5899 73.7471C24.0561 74.2055 25.1806 75.0219 26.5186 75.6091C26.8033 77.3278 27.1734 78.9749 28.5968 79.5621C29.8068 79.2184 29.0666 77.6142 28.8246 76.7692C29.9918 76.5973 30.0345 77.5713 30.6751 77.9293C31.6003 77.8004 31.3725 77.8004 32.2978 77.9293C33.3796 78.8603 35.3297 78.9033 36.2265 80.0204C36.4684 81.6675 34.8742 81.4527 34.1482 82.1115C33.0664 82.4123 32.0416 82.7847 31.1448 83.2716C29.1662 84.0737 27.0453 84.7325 25.3656 85.8354C21.0669 87.0241 17.4086 88.8431 13.3518 90.2467C12.6259 88.9577 12.1277 87.4538 11.2736 86.2937C11.2594 85.463 10.9178 84.9474 10.8039 84.2026C9.22387 81.2092 8.27017 77.6142 6.8752 74.4346C6.02114 73.0024 5.16707 71.6131 4.52653 69.9946C3.55859 68.7343 2.41984 67.6171 1.97858 65.8125C3.38778 65.4544 4.22761 64.5091 5.67951 64.1797C5.69375 64.6523 5.69375 65.1107 5.69375 65.5833Z" fill="white"/>
<path fill-rule="evenodd" clip-rule="evenodd" d="M83.1145 64.8809C83.271 64.8809 83.4276 64.8809 83.57 64.8809C84.1251 66.1269 83.2995 66.1699 82.417 66.5136C81.691 66.7858 80.837 66.9433 80.3388 67.4446C78.958 67.8599 77.5061 68.3326 76.1823 68.8339C75.1859 69.2063 74.3888 69.5357 73.1789 69.994C71.9547 70.4667 69.9904 71.2257 68.325 71.8559C67.3001 72.2426 66.3606 72.6723 65.3215 73.0161C62.6312 73.9184 59.5566 75.3793 56.7667 76.4964C54.1902 77.542 51.5711 78.2581 49.137 79.5185C43.486 82.1252 37.2229 84.1304 31.7996 86.9662C28.6396 87.8972 25.7927 89.1289 23.017 90.4466C21.3658 90.8763 20.0135 91.6067 18.6186 92.3085C17.736 92.4374 17.3375 93.039 16.3126 93.0103C15.8286 93.5546 14.9461 93.97 14.6899 93.0103C13.8928 92.0937 15.2023 91.8072 15.6151 91.3776C16.4692 91.2343 16.9674 90.7187 17.6933 90.4466C19.0029 89.7591 20.3125 89.0573 21.622 88.3555C23.1166 87.9258 24.597 87.2813 26.0062 86.7227C27.4723 86.1498 28.9242 85.6915 30.1626 84.8608C33.2515 83.9442 35.8991 82.5692 38.9452 81.6096C41.8206 80.5497 44.639 79.4326 47.5001 78.3584C50.2188 77.0693 53.3504 76.1957 56.0549 74.8637C58.9872 73.7895 62.3038 73.0877 64.8375 71.6125C68.0118 70.7674 70.5455 69.2922 73.8479 68.5904C76.7375 67.5449 79.5986 66.4707 82.4027 65.3392C82.5878 65.1243 82.8298 64.9954 83.1145 64.8809Z" fill="white"/>
<path fill-rule="evenodd" clip-rule="evenodd" d="M85.4204 69.9944C85.1499 70.8108 83.7123 70.4384 83.3422 71.1545C80.8654 71.6988 78.9295 72.7586 76.6378 73.4748C67.7983 76.683 59.2007 80.1061 50.5177 83.4719C44.6532 85.6203 39.0021 88.0122 33.4223 90.447C30.5612 91.6071 28.0559 93.111 24.8674 93.9417C21.9636 95.0445 19.373 96.4768 16.5403 97.6656C16.64 96.4768 15.9852 96.0471 15.8428 95.1018C21.4654 92.7672 27.3157 90.6761 32.7106 88.1267C35.7852 87.2817 37.9061 85.4484 41.0234 84.632C43.7707 83.4433 46.6033 82.3404 49.5783 81.3808C55.3432 79.2754 60.7522 76.8119 66.446 74.6349C69.1932 73.4461 72.0686 72.4006 75.0008 71.3837C76.2819 70.6532 77.8335 70.2092 79.1573 69.5218C80.6946 69.1207 81.691 68.1898 83.3137 67.889C83.4845 67.6741 83.7407 67.5309 84.0112 67.4307C84.8653 67.9176 84.6944 69.4072 85.4204 69.9944Z" fill="white"/>
<path fill-rule="evenodd" clip-rule="evenodd" d="M54.9162 64.1796C53.8771 64.2082 53.7489 65.1821 53.2934 65.8123C52.9803 66.5858 52.5817 67.2589 51.9127 67.6743C51.2722 67.617 51.2579 66.9295 50.7597 66.7433C50.0765 66.729 49.9057 66.2134 49.6067 65.8123C50.1049 64.6952 51.4145 64.3801 51.685 63.0194C51.5284 61.3151 51.3006 59.6823 49.8345 59.2956C48.5249 59.2956 47.8132 59.8971 47.2865 60.6992C46.9734 60.2265 48.0125 59.1094 48.2118 58.3789C48.5249 57.5339 49.0943 56.9467 49.3648 56.0587C50.29 54.5835 51.201 53.0939 51.9127 51.4039C52.8095 52.2059 52.8095 53.9246 53.5354 54.8986C52.9376 55.3139 52.8664 56.2449 52.6102 56.9896C52.4963 57.5053 53.8628 57.7058 53.9909 57.2188C55.6136 60.3268 56.1118 64.5376 58.6171 66.7576C60.9231 66.686 62.2896 63.9361 61.165 61.8736C60.1402 62.246 59.6277 63.1197 59.0868 63.9647C58.1474 63.0624 58.005 61.3294 57.2364 60.2409C56.8805 58.8229 56.24 57.6771 55.8556 56.2878C56.3111 54.8842 58.2612 54.9845 58.4036 53.2658C57.1652 52.4924 55.8699 53.6525 54.9304 53.9676C54.2614 52.5497 53.7916 50.9169 53.0799 49.5562C54.3895 46.2191 56.2684 43.4548 57.7061 40.2609C62.3892 38.2271 66.9869 36.1074 71.7981 34.2168C72.3105 35.4915 72.6379 36.4941 72.7233 37.7115C72.7518 38.6138 73.6628 38.6281 74.1041 39.1008C76.9225 47.193 79.7836 55.2423 82.8867 63.0481C82.4027 63.9504 80.6946 63.6353 80.111 64.4517C78.9438 64.5949 78.0755 65.0389 77.1075 65.3827C75.2286 66.1274 73.2643 66.7863 71.3284 67.4738C67.5136 68.906 63.5707 70.2094 59.9978 71.8851C52.0693 74.4488 44.9806 77.8719 37.351 80.7221C38.8598 77.4422 40.7103 74.4918 41.9771 70.9541C43.7564 70.9112 44.582 72.9306 46.3613 72.1143C46.2047 70.1807 44.4539 69.8513 42.8881 69.3214C43.3009 67.6456 44.4539 66.7147 44.7386 64.8957C45.3222 64.4803 45.308 63.4634 45.8916 63.0338C45.8631 62.4609 46.2474 62.3176 46.3471 61.8736C46.219 61.3867 47.2438 61.3867 46.5748 61.6445C45.9343 65.4256 48.3256 68.0753 50.9732 69.3214C51.3576 69.3214 51.7419 69.3214 52.1262 69.3214C54.2471 68.7914 55.1012 67.0154 54.9162 64.1796Z" fill="white"/>
</g>
<defs>
<clipPath id="clip0_2183_3492">
<rect width="99" height="100" fill="white"/>
</clipPath>
</defs>
</svg>
