<svg width="41" height="11" viewBox="0 0 41 11" fill="none" xmlns="http://www.w3.org/2000/svg">
<path d="M6.10011 10.159C4.26038 8.86978 2.41657 7.5862 0.576844 6.29701C0.128731 5.98434 -0.0046396 5.11447 0.494611 4.75212C2.36943 3.38858 4.24595 2.02712 6.12077 0.663581C6.33242 0.511213 6.5262 0.404699 6.79102 0.422605C7.01721 0.437899 7.27858 0.561462 7.42276 0.751617C7.70246 1.1235 7.75693 1.82135 7.32954 2.13169C6.17181 2.97112 5.01394 3.81251 3.85805 4.65207C5.12433 4.6671 6.39101 4.67627 7.65768 4.68544C10.3572 4.70522 13.0588 4.72121 15.7586 4.73708C18.7797 4.75507 21.8011 4.76916 24.8221 4.78714C27.5996 4.80238 30.377 4.81762 33.154 4.83871C35.0928 4.85216 37.0298 4.86547 38.9677 4.89258C39.1246 4.89534 39.2796 4.89798 39.4366 4.89879C39.9201 4.90599 40.3466 5.42898 40.2901 5.93697C40.229 6.48582 39.8215 6.85829 39.3047 6.8508C37.4943 6.82252 35.6848 6.80997 33.8734 6.7973C31.1738 6.77752 28.4722 6.76153 25.7724 6.74566C22.7513 6.72767 19.73 6.71359 16.7089 6.6956C13.9315 6.68036 11.1541 6.66512 8.37703 6.64403C7.0494 6.63466 5.72006 6.62321 4.3927 6.60993C5.31007 7.25044 6.22744 7.89094 7.14468 8.5334C7.54512 8.81343 7.68183 9.46978 7.38367 9.89083C7.07907 10.3252 6.53049 10.4606 6.10011 10.159Z" fill="white"/>
</svg>
