<svg width="42" height="11" viewBox="0 0 42 11" fill="none" xmlns="http://www.w3.org/2000/svg">
<path d="M35.0923 10.159C36.932 8.86978 38.7758 7.5862 40.6155 6.29701C41.0637 5.98434 41.197 5.11447 40.6978 4.75212C38.823 3.38858 36.9464 2.02712 35.0716 0.663581C34.86 0.511213 34.6662 0.404699 34.4014 0.422605C34.1752 0.437899 33.9138 0.561462 33.7696 0.751617C33.4899 1.1235 33.4355 1.82135 33.8628 2.13169C35.0206 2.97112 36.1784 3.81251 37.3343 4.65207C36.0681 4.6671 34.8014 4.67627 33.5347 4.68544C30.8352 4.70522 28.1335 4.72121 25.4338 4.73708C22.4127 4.75507 19.3913 4.76916 16.3702 4.78714C13.5928 4.80238 10.8154 4.81762 8.03838 4.83871C6.09954 4.85216 4.16255 4.86547 2.22464 4.89258C2.0678 4.89534 1.9128 4.89798 1.75583 4.89879C1.2723 4.90599 0.845781 5.42898 0.902262 5.93697C0.963353 6.48582 1.37092 6.85829 1.88768 6.8508C3.69804 6.82252 5.50762 6.80997 7.31903 6.7973C10.0186 6.77752 12.7202 6.76153 15.42 6.74566C18.4411 6.72767 21.4624 6.71359 24.4835 6.6956C27.2609 6.68036 30.0383 6.66512 32.8154 6.64403C34.143 6.63466 35.4723 6.62321 36.7997 6.60993C35.8823 7.25044 34.9649 7.89094 34.0477 8.5334C33.6473 8.81343 33.5106 9.46978 33.8087 9.89083C34.1133 10.3252 34.6619 10.4606 35.0923 10.159Z" fill="white"/>
</svg>
