<svg width="10" height="17" viewBox="0 0 10 17" fill="none" xmlns="http://www.w3.org/2000/svg">
<path fill-rule="evenodd" clip-rule="evenodd" d="M0 8.53378C0 8.8429 0.136363 9.15201 0.363636 9.37281L7.77273 16.5708C8.18182 16.9682 8.86364 17.2332 9.40909 16.7032L9.68182 16.4383C9.86364 16.2175 10 15.9967 10 15.7759C10 15.5993 9.90909 15.4668 9.77273 15.3343L4.27273 9.94688C3.86364 9.54945 3.5 9.01953 3.5 8.48962C3.5 7.95971 3.86364 7.4298 4.27273 7.07653C5.18182 6.19334 6.09091 5.31015 7 4.42697C7.90909 3.54378 8.81818 2.6606 9.77273 1.73325C9.90909 1.55662 10 1.42414 10 1.2475C10 1.0267 9.86364 0.805908 9.68182 0.540953L9.40909 0.275995C9.18182 0.0551988 8.90909 -0.0331196 8.63636 0.0110397C8.36364 0.055199 8.04545 0.187677 7.77273 0.452633L0.318182 7.69476C0.0909093 7.91555 0 8.22467 0 8.53378Z" fill="white"/>
</svg>
