<svg width="337.725586" height="353.796875" viewBox="0 0 337.726 353.797" fill="none" xmlns="http://www.w3.org/2000/svg" xmlns:xlink="http://www.w3.org/1999/xlink">
	<desc>
			Created with Pixso.
	</desc>
	<defs>
		<clipPath id="clip2183_2854">
			<rect id="Frame" rx="0.000000" width="175.011597" height="298.871613" transform="translate(25.203125 0.500000) rotate(4.725357)" fill="white" fill-opacity="0"/>
		</clipPath>
	</defs>
	<path id="Vector" d="M244.51 192.08C244.51 192.08 84.49 202.92 67.26 242.34C50.03 281.75 78.88 323.4 95.44 341.93C112 360.46 187.82 353.41 222.21 346.6C256.6 339.79 325.46 326.57 333.33 299.24C341.21 271.92 350.46 188 244.51 192.08Z" fill="#EAEAEA" fill-opacity="1.000000" fill-rule="nonzero"/>
	<rect id="Frame" rx="0.000000" width="175.011597" height="298.871613" transform="translate(25.203125 0.500000) rotate(4.725357)" fill="#FFFFFF" fill-opacity="0"/>
	<g clip-path="url(#clip2183_2854)">
		<path id="Vector" d="M198.01 36.99C197.31 27.5 190.24 20.79 181.12 24.13C180.95 16.24 173.22 10.91 167.03 16.81C164.95 13.4 161.89 10.77 157.62 11.1C156.01 11.22 154.23 12.32 153.29 13.6C152.61 14.52 150.92 20.85 150.74 20.88C145.45 21.84 144.52 27.47 146.62 31.55C148.82 35.82 153.5 37.23 158.05 37.6C155.9 39.45 155.44 42.42 156.75 45.11C149.15 43.28 147.14 53.23 149.56 60.23C145.63 59.79 142.7 62.31 144.41 66.22C142.34 63.99 140.24 61.78 138.01 59.68C137.52 59.22 136.85 59.21 136.42 59.76C135.06 61.46 133.69 63.09 132.68 65.02C132.27 65.82 132.98 66.63 133.63 66.59C134.21 67.17 134.77 67.75 135.31 68.36C133.64 71.83 131.12 74.59 128.2 77.12C126.12 78.91 123.5 80.29 121.55 82.21C120.51 80.35 119.5 78.47 118.51 76.57C112.33 64.54 108.91 51.26 101.3 39.96C100.99 39.5 100.23 39.49 99.84 39.84C97.39 42.03 95.07 44.33 92.85 46.72C92.55 46.65 92.2 46.78 92.22 47.17C92.22 47.24 92.24 47.31 92.24 47.38C89.85 49.99 87.58 52.71 85.39 55.48C85.11 55.48 84.81 55.65 84.75 55.99C84.72 56.13 84.7 56.26 84.68 56.39C76.15 67.37 68.84 79.38 60.61 90.55C53.36 100.37 45.37 109.7 37.74 119.22C29.5 129.51 21.16 139.76 12.44 149.66C11.91 150.27 12.83 151.18 13.45 150.78C13.43 151.11 13.62 151.43 14.08 151.46C20.16 151.85 26.47 153.67 32.62 154C29.19 177.5 32.86 201.41 30.95 225.03C28.96 249.53 23.12 273.52 21.5 298.07C21.46 298.67 21.88 299.06 22.44 299.17C32.82 301.22 43.37 301.09 53.9 300.94C65.08 300.78 75.92 301.2 86.98 302.98C94.26 304.16 101.54 305.55 108.85 306.79C109.04 307.34 109.83 307.44 110.26 307.03C123.32 309.2 136.45 310.81 149.73 309.78C150.4 309.73 150.69 309.01 150.65 308.43C148.56 280.43 152.5 252.48 154.28 224.57C155.18 210.42 155.74 196.28 156.31 182.11C156.52 177.15 157.26 172.56 158.16 167.7C158.44 166.19 159 164.14 159.08 162.21C163.23 162.63 167.38 163 171.54 163.2C172.93 163.46 173.16 161.16 171.72 160.99C170.94 160.89 170.16 160.82 169.38 160.72C170.09 160.75 170.62 160.16 170.42 159.21C169.77 156.08 167.04 152.94 165.38 150.3C158.05 138.67 150.17 127.44 142.73 115.89C139.01 110.14 135.21 104.43 131.51 98.67C139.12 98.37 145.29 92.59 149.61 86.64C150.26 87.28 150.93 87.9 151.64 88.5C151.98 88.79 152.53 88.72 152.85 88.45C155.13 86.52 157.37 84.57 159.1 82.1C159.43 81.64 159.28 81.06 158.86 80.72C157.87 79.91 156.92 79.08 155.98 78.23C162.32 77.48 164.81 71 162.22 65.81C165.24 66.06 167.79 64.8 168.56 61.75C175.37 65.75 184.27 60.87 182.17 52.9C191.8 54.01 198.75 46.99 198.01 36.99ZM136.53 70.44C137.56 72.53 138.83 74.46 140.25 76.29C137.8 78.07 134.63 78.04 133.37 74.91C134.59 73.47 135.66 71.95 136.53 70.44ZM141.26 77.54C142.36 78.84 143.51 80.1 144.71 81.32C144.67 81.33 144.62 81.34 144.56 81.36C143.17 82.04 139.94 83.4 139.82 80.66C139.76 79.49 140.47 78.41 141.26 77.54ZM132.68 75.69C133.69 78.4 136.28 79.19 138.81 78.51C138.41 79.39 138.21 80.33 138.36 81.3C138.22 81.28 138.07 81.29 137.9 81.38C134.48 83.22 130.87 82.67 129.62 78.66C130.69 77.74 131.73 76.75 132.68 75.69ZM131.11 82.84C132.67 83.91 134.74 84.11 136.84 83.49C136.51 84.62 136.53 85.72 137.03 86.73C136.98 86.75 136.91 86.76 136.86 86.79C132.99 89 130.44 86.85 131.11 82.84ZM130.81 88.04C129.83 88.5 128.78 88.81 127.69 88.52C126.29 88.14 126.21 86.39 126.28 85.09C127.25 85.22 128.37 84.91 129.41 84.17C129.45 85.77 129.95 87.11 130.81 88.04ZM128.77 79.36C128.99 80.22 129.35 80.95 129.78 81.55C129.18 82.47 128.56 83.2 127.58 83.75C125.93 84.66 125.17 83.3 124.91 81.92C126.23 81.21 127.53 80.35 128.77 79.36ZM118.48 81.85C118.51 81.85 118.53 81.83 118.56 81.81C118.47 81.96 118.43 82.13 118.46 82.34C119.77 91.67 104.91 92.97 103.35 83.96C103.2 83.13 101.94 82.99 101.68 83.83C100.36 88 96.52 90.07 92.71 90.03C92.39 89.54 91.62 89.42 91.24 89.91C87.93 89.4 84.9 87.26 83.91 83.47C83.9 83.43 83.88 83.4 83.86 83.36C88.25 83.37 91.85 80.62 93.68 76.73C96.48 84 107.87 84.79 110.59 77.83C112.15 80.67 114.92 82.68 118.48 81.85ZM49.59 142.55C49.64 141.43 48.08 141.33 47.89 142.41C46.93 147.85 43.36 153.03 37.18 151.56C31.29 150.16 29.14 143.66 29.34 138.3C32.66 138.47 36.79 134.63 39.33 131.45C39.35 136.24 42.03 140.15 47.32 141.16C52.52 142.16 57.46 139.14 59.61 134.61C61.8 139.25 66.02 141.89 70.66 142.61C69.73 146.99 69.91 153.24 65.33 155.43C64.81 155.68 64.26 155.85 63.69 155.96C61.48 155.74 59.27 155.43 57.07 155.08C56.13 154.68 55.26 154.22 54.5 153.71C50.88 151.26 49.43 146.71 49.59 142.55ZM52.88 154.38C49.57 153.81 46.27 153.23 42.95 152.78C45.35 151.65 47.15 149.38 48.3 146.77C49.01 149.85 50.61 152.48 52.88 154.38ZM41.25 128.39C44.38 128.75 48.58 126.72 51.16 124.14C51.26 129.11 54.64 131.29 59.02 131.64C58.93 131.72 58.85 131.82 58.82 131.97C57.51 136.97 53.27 139.9 48.15 139.59C42.14 139.22 40.29 133.67 41.26 128.53C41.26 128.48 41.25 128.44 41.25 128.39ZM77.81 123.77C77.81 123.62 77.76 123.49 77.7 123.37C78.35 123.57 79.01 123.74 79.69 123.86C85.36 124.89 89.25 121.61 91.06 117.02C92.06 120.31 94.22 122.93 98.08 123.73C99.05 123.93 99.99 123.93 100.89 123.8C97.14 133.45 78.26 136.95 77.81 123.77ZM101.93 125.74C103.75 129.98 108.39 132.72 112.71 133C112.67 133.1 112.64 133.19 112.63 133.31C112.06 145.06 91.73 142.59 87.93 134.2C87.9 134.12 87.86 134.07 87.81 134.01C93.37 133.84 99.36 130.79 101.93 125.74ZM86.6 134C86.58 134.03 86.55 134.05 86.54 134.08C80.51 143.71 63.93 144.07 60.4 132.11C60.36 131.95 60.25 131.81 60.12 131.7C65.78 131.77 72.68 129.12 76.37 125.63C77.36 131.19 81.7 133.77 86.6 134ZM71.59 146.86C73.2 151.53 76.55 155.14 81.27 156.41C76.82 156.47 72.37 156.46 67.92 156.27C67.73 156.27 67.54 156.25 67.36 156.24C70.04 154.26 70.92 150.52 71.59 146.86ZM72.4 142.78C77.87 143.06 83.62 140.79 87.13 136.08C89.3 139.44 93.8 141.73 98.52 142.55C98.5 142.6 98.47 142.64 98.47 142.7C97.22 149.62 92.08 155.01 84.84 155.2C77.58 155.38 73.3 149.34 72.4 142.78ZM99.23 146.2C100.29 150 102.09 153.96 105.24 156.03C104.23 156.02 103.22 156.01 102.21 156.01C97.91 156.02 93.62 156.12 89.33 156.23C94.05 154.75 97.53 150.87 99.23 146.2ZM100.16 142.78C105.51 143.31 110.82 141.9 113.08 137.92C113.74 140.99 115.62 143.51 119.26 143.73C119.43 143.75 119.6 143.74 119.76 143.74C119.72 143.92 119.68 144.12 119.65 144.31C119.22 144.06 118.47 144.23 118.32 144.89C117.32 149.56 114.76 156.06 108.96 155.69C103.23 155.31 101 147.27 100.16 142.78ZM113.96 135.65C114.12 134.97 114.21 134.23 114.21 133.45C114.21 133.27 114.16 133.13 114.08 133.01C117.09 132.83 119.76 131.34 120.97 128.19C122.21 130.95 124.21 133.41 127.08 134.12C127.05 134.17 127.02 134.21 127 134.28C126.19 137.84 124.2 141.08 120.51 142.12C116.13 143.34 114.37 139.17 113.96 135.65ZM127.79 137.18C129.68 141.49 133.47 144.03 137.27 144.53C136.93 144.6 136.62 144.84 136.56 145.29C136.5 145.64 136.45 146 136.41 146.36C134.65 155.85 119.94 153.92 120.91 143.63C124.13 143.05 126.52 140.21 127.79 137.18ZM121.61 124.94C121.38 124.03 120.01 124.04 119.94 125.02C119.09 135.72 104.42 131.5 102.96 123.18C105.52 122.02 107.57 119.63 108.84 117.06C110.84 121.57 114.33 125.14 119.82 124.26C124.58 123.49 127.64 119.3 129.13 114.92C130.69 119.16 133.95 121.37 138.04 122.85C137.99 122.94 137.95 123.05 137.92 123.17C137.23 127.29 135.02 131.1 130.83 132.41C125.76 133.99 122.65 129.11 121.61 124.94ZM120.74 122.13C115.14 124.61 111.22 119.09 109.72 114.49C109.69 114.39 109.64 114.3 109.58 114.22C109.8 114.21 110.02 114.21 110.24 114.2C115.23 113.8 118.52 109.74 119.74 105.24C121.52 108.79 124.54 111.61 128.02 112.57C127.07 116.69 124.77 120.35 120.74 122.13ZM110.61 112.31C105.01 113.66 101.84 108.57 101.17 103.79C101.04 102.9 99.74 102.84 99.45 103.65C96.14 112.85 81.84 111.35 80.77 101.55C80.66 100.55 79.1 100.67 79.03 101.64C78.11 113.81 63.03 109.74 64.35 98.85C67.05 98.21 69.53 96.09 71.1 93.46C74.43 102.89 86.44 101.57 91.38 93.8C93.76 103.34 108.07 105.64 110.61 95.87C112.38 98.66 115.44 100.95 118.46 101.71C118.24 106.66 115.68 111.09 110.61 112.31ZM71.91 90.38C76.1 90.93 80.43 88.96 82.86 85.61C84.35 88.88 87.32 90.84 90.57 91.48C86.72 99.76 74.22 101.77 72.17 90.84C72.15 90.64 72.04 90.5 71.91 90.38ZM109.25 92.46C109.29 104.49 93.56 101.84 92.88 91.7C96.6 91.71 100.32 90.04 102.34 86.59C103.77 89.74 106.77 91.39 109.9 91.71C109.55 91.76 109.24 92.01 109.25 92.46ZM91.14 61.6C93.72 60.76 95.9 58.77 97.29 56.39C98.09 59.02 100 61.12 102.33 62.1C102.34 65.94 100.59 69.31 96.59 70.13C91.69 71.14 90.41 66.05 91.24 62.32C91.3 62.04 91.25 61.8 91.14 61.6ZM109.39 74.34C109.53 84.23 94 82.56 94.92 72.39C94.94 72.18 94.89 72.02 94.81 71.88C95.03 71.92 95.25 71.94 95.48 71.95C99.49 72.19 102.27 69.39 103.44 65.98C104.64 68.79 106.65 71.15 109.27 72.24C109.25 72.31 109.23 72.37 109.23 72.45C109.22 73.08 109.28 73.71 109.39 74.34ZM114.8 73.82C115.75 75.97 116.78 78.07 117.85 80.16C114.2 80.71 111.78 77.57 111.16 74.29C111.16 73.8 111.12 73.29 111.04 72.76C112.07 72.94 113.16 72.95 114.32 72.73C114.48 73.09 114.63 73.46 114.8 73.82ZM113.61 71.06C108.42 71.68 105.19 67.35 104.22 62.62C105.98 62.87 107.87 62.49 109.63 61.24C110.95 64.52 112.24 67.82 113.61 71.06ZM104.97 50.53C106.4 53.47 107.69 56.49 108.94 59.52C103.9 63.27 98.35 58.68 98.72 52.99C100.93 52.99 103.82 52.31 104.97 50.53ZM100.33 42.21C101.74 44.38 103.01 46.64 104.18 48.94C103.48 49.36 102.92 49.96 102.2 50.38C101.27 50.93 100.19 51.17 99.13 51.3C98.89 51.33 98.66 51.34 98.44 51.34C98.2 51.21 97.89 51.19 97.62 51.29C96 51.06 94.7 50.1 93.9 48.69C95.94 46.45 98.08 44.28 100.33 42.21ZM92.91 49.77C93.68 51.28 95.06 52.39 96.85 52.79C96.22 55.56 94.4 57.73 92 59.28C89.28 61.03 86.65 60.7 86.03 58.14C88.23 55.27 90.51 52.47 92.91 49.77ZM84.91 59.62C85.52 61.3 87.04 62.26 89.49 61.97C87.85 66.08 82.64 72.31 78.16 69.07C80.36 65.88 82.59 62.72 84.91 59.62ZM76.84 70.99C77.08 70.65 77.31 70.3 77.54 69.96C81.09 73.77 86.33 69.9 89.31 65.79C89.59 68.44 90.85 70.72 93.5 71.58C93.3 71.71 93.14 71.92 93.11 72.24C92.43 78.2 88.09 82.23 81.97 81.42C75.91 80.61 75.4 75.55 76.84 70.99ZM68.14 83.75C70.32 80.62 72.45 77.45 74.59 74.29C74.19 78.12 76.2 81.7 81.01 82.98C81.46 83.1 81.9 83.18 82.32 83.24C82.31 83.27 82.28 83.3 82.26 83.34C80.7 86.73 77.48 88.35 73.91 88.83C70.93 89.23 66.41 88.02 68.33 84.17C68.43 83.98 68.31 83.81 68.14 83.75ZM60.72 93.94C62.91 91.11 65 88.21 67.06 85.28C66.24 87.8 68.07 89.56 71.03 90.22C70.81 90.29 70.63 90.45 70.55 90.71C68.87 95.55 63.75 100.04 58.78 96.45C59.43 95.62 60.07 94.78 60.72 93.94ZM58.13 97.28C59.47 98.42 60.9 98.94 62.31 99.03C60.25 102.85 55.38 109.43 51.34 105.96C53.62 103.07 55.88 100.18 58.13 97.28ZM50.4 107.14C50.46 107.06 50.53 106.98 50.59 106.91C54.12 111.28 59.51 106.14 62.57 101.81C63.07 106.19 65.85 110.18 70.6 111C75.36 111.81 78.6 109.23 80.02 105.37C83.58 112.89 95.29 113.71 99.96 106.59C101.17 110.62 103.9 113.68 108.12 114.17C108.09 114.23 108.05 114.28 108.02 114.36C106.8 118.24 104.31 121.37 100.12 122.03C94.65 122.9 92.26 117.13 92.11 112.72C92.07 111.61 90.48 111.42 90.36 112.58C88.69 127.85 70.27 122.41 67.78 110.49C67.63 109.79 66.65 109.52 66.24 110.16C63.61 114.2 59.96 118.54 54.94 119.43C48.43 120.58 49.75 111.2 50.4 107.14ZM48.86 109.08C47.84 113.67 47.85 119.69 53.01 120.94C58.4 122.24 63.54 116.85 66.6 112.62C68.18 117.43 71.88 121.17 76.56 122.97C76.46 123.02 76.37 123.1 76.29 123.21C71.37 129.87 50.73 135.42 52.9 121.7C53.02 120.96 51.87 120.52 51.5 121.19C48.94 125.75 38.62 131.24 38.05 122.57C38.05 122.53 38.04 122.51 38.02 122.47C41.68 118.04 45.28 113.58 48.86 109.08ZM37.16 123.54C37.33 125.98 38.34 127.37 39.79 128.02C37.87 131.48 30.86 140.23 26.99 135.61C30.41 131.62 33.8 127.6 37.16 123.54ZM14.21 150.02C14.2 150.02 14.19 150.03 14.19 150.03C18.28 145.57 22.3 141.04 26.27 136.45C26.72 137.1 27.22 137.56 27.76 137.86C26.46 142.58 25.39 146.96 21.63 150.16C19.1 150.01 16.6 149.97 14.21 150.02ZM22.97 150.24C25.48 148.2 26.9 145.49 27.99 142.48C28.64 146.16 30.41 149.54 33.43 151.6C30.05 150.92 26.5 150.48 22.97 150.24ZM101.31 303.22C96.07 302.28 90.85 301.33 85.63 300.49C79.12 299.44 72.56 299.12 65.99 299.04C68.29 289.62 67.45 279.06 68.25 269.5C69.2 258.31 70.7 244.18 79.58 236.18C84.06 232.14 90.89 231.01 96.61 232.6C104.08 234.66 104.92 243.57 104.84 250C104.75 256.42 103.48 262.77 102.99 269.16C102.12 280.5 102.49 291.89 101.31 303.22ZM103.05 303.53C104.44 291.42 103.85 279.19 104.93 267.05C105.54 260.14 107.01 253.28 106.52 246.32C106.16 240.96 104.69 234.68 99.45 232.01C94.15 229.31 87.23 229.89 82.03 232.52C71.3 237.92 68.63 252.55 67.25 263.23C65.7 275.12 66.06 287.13 64.84 299.03C62.75 299.02 60.66 299.02 58.58 299.04C60 279.87 58.63 260.66 66.73 242.66C72.8 229.18 93.72 215.16 105.9 229.83C113.45 238.94 112.04 254.39 111.21 265.32C110.82 270.52 110.17 275.7 109.74 280.9C109.07 288.77 109.78 296.71 109.01 304.58C107.02 304.23 105.04 303.88 103.05 303.53ZM148.31 307.55C135.72 308.42 123.21 306.91 110.77 304.86C111.81 296.52 110.97 288.03 111.74 279.66C112.34 273.21 113.12 266.79 113.44 260.32C114.01 248.89 114.09 233.44 104.2 225.59C91.41 215.44 74.75 226.79 67.34 237.84C55.71 255.18 57.88 279.21 57.47 299.04C46.13 299.13 34.79 299.36 23.62 297.29C25.3 273.08 30.84 249.35 32.94 225.19C35.02 201.51 31.84 177.73 33.96 154.03C34.76 154.04 35.55 154.03 36.34 153.98C36.35 153.98 36.36 153.97 36.38 153.97C46.36 155.02 56.07 157.72 66.11 158.44C77.51 159.26 88.99 158.46 100.4 158.32C112.28 158.17 124.08 158.66 135.91 159.72C142.9 160.34 149.89 161.23 156.9 161.98C156.97 164.8 155.68 168.62 155.29 170.64C154.24 176.09 154.04 181.47 153.83 187.02C153.3 201.09 152.64 215.12 151.66 229.17C149.85 255.26 146.5 281.36 148.31 307.55ZM158.79 159.5C158.71 159.24 158.6 158.98 158.46 158.75C157.83 157.65 156.2 158.23 156.24 159.23C142.18 157.74 128.09 156.6 113.97 156.18C116.92 154.14 118.67 150.03 119.58 146.61C120.33 154.55 131.78 156.64 136.44 150.66C136.94 154.32 138.86 157.43 143.29 157.85C148.32 158.32 152.63 154.63 155.07 150.39C155.64 154.13 157.07 157.64 160.38 159.68C159.85 159.63 159.33 159.56 158.79 159.5ZM164.34 152.71C165.23 154.12 166.12 155.54 166.98 156.97C167.32 157.53 167.63 158.1 167.98 158.66C168.09 158.84 168.19 159.03 168.29 159.21C168.05 159.57 168.05 160.06 168.53 160.4C168.76 160.57 168.99 160.65 169.21 160.69C166.98 160.43 164.73 160.17 162.49 159.92C162.61 159.61 162.57 159.22 162.27 158.98C158.13 155.66 156.76 152.21 156.58 146.95C156.54 145.97 155.15 145.5 154.79 146.55C153.27 151.09 149.94 154.92 145.11 155.93C139 157.22 137.74 151.09 138.21 146.42C138.26 146.1 138.31 145.78 138.33 145.44C138.37 145.01 138.15 144.72 137.86 144.59C141.62 144.86 145.28 143.09 147.04 138.98C149.02 143.84 155.03 145.88 160.49 146.45C161.78 148.53 163.03 150.64 164.34 152.71ZM152.3 133.84C154.42 137 156.53 140.17 158.58 143.37C158.84 143.78 159.09 144.19 159.35 144.59C153.73 143.79 147.52 141.31 148.07 134.57C148.15 133.5 146.5 133.36 146.41 134.43C145.49 146.79 131.06 144.95 128.59 134.41C128.59 134.38 128.56 134.35 128.55 134.31C128.9 134.33 129.27 134.32 129.65 134.27C134.44 133.72 137.51 130.15 138.89 125.88C141.3 130.93 145.69 133.93 151.72 134.06C151.97 134.05 152.16 133.97 152.3 133.84ZM136.68 110.75C141.49 117.98 146.42 125.13 151.28 132.33C145.56 131.87 141.43 128.93 139.62 123.38C140.99 123.8 142.44 124.18 143.94 124.53C145.04 124.79 145.65 123.14 144.55 122.88C137.98 121.32 132.03 119.77 130.32 112.91C132.33 112.96 134.43 112.36 136.5 110.92C136.57 110.87 136.63 110.81 136.68 110.75ZM134.6 107.6C135 108.19 135.39 108.78 135.78 109.38C135.62 109.39 135.47 109.43 135.32 109.54C133.5 110.76 131.68 111.21 129.96 111.08C129.79 110.37 128.92 110.37 128.51 110.84C124.71 109.84 121.59 106.11 120.43 101.98C123.15 102.05 125.61 100.62 126.75 96.92C127.08 95.84 125.45 95.24 125.09 96.32C122.41 104.48 112.3 98.19 111.01 92.37C110.94 92.04 110.69 91.83 110.41 91.73C114.92 91.97 119.59 89.45 120.22 84.56C124.61 92.48 129.67 100.07 134.6 107.6ZM131.19 96.6C130.86 96.62 130.63 96.8 130.5 97.06C127.59 92.5 124.78 87.88 122.12 83.17C122.74 82.95 123.37 82.69 123.99 82.39C124.09 83.5 124.56 84.27 125.21 84.69C124.9 86.33 124.83 88.45 126.35 89.48C127.52 90.27 128.81 90.31 130.08 89.99C129.05 92.46 129.83 94.92 132.45 96.45C132.03 96.52 131.61 96.57 131.19 96.6ZM134.54 96.02C134.5 95.75 134.36 95.48 134.03 95.34C130.91 94.03 130.62 91.52 132.49 89.13C133.41 89.45 134.49 89.48 135.71 89.12C135.09 91.32 135.45 93.49 138.13 94.45C138.17 94.47 138.23 94.46 138.27 94.47C137.09 95.13 135.85 95.65 134.54 96.02ZM142 91.81C141.85 91.94 141.71 92.05 141.62 92.13C140.8 92.83 139.95 93.45 139.05 94.01C139.16 93.78 139.15 93.51 138.93 93.3C138.38 92.74 137.64 92.3 137.21 91.64C136.53 90.58 137.46 88.96 137.95 87.97C138.02 88.05 138.09 88.12 138.17 88.19C139.43 89.28 141.46 89.42 143.17 88.91C142.49 89.6 141.79 90.33 141.77 91.28C141.78 91.49 141.86 91.68 142 91.81ZM141.01 87.51C138.1 87.49 137.74 84.78 138.81 82.64C139.68 84.15 141.64 84.01 143.32 83.52C142.92 84.85 143.44 85.7 144.55 86.6C143.36 87.02 142.34 87.52 141.01 87.51ZM145.05 88.99C145.35 88.41 145.56 87.85 145.63 87.4C145.82 87.52 146 87.65 146.21 87.78C145.85 88.19 145.45 88.59 145.05 88.99ZM147.15 86.64C145.67 85.28 144.02 84.94 145.55 82.52C145.6 82.44 145.64 82.35 145.65 82.26C145.84 82.45 146.02 82.62 146.2 82.81C146.78 83.53 147.38 84.24 148 84.93C147.98 85.38 147.65 85.97 147.15 86.64ZM154.32 84.53C153 85.8 152.67 86.85 150.95 85.28C150.87 85.19 150.79 85.1 150.7 85.02C150.8 84.67 150.77 84.26 150.5 84.01C149.18 82.75 147.85 81.5 146.57 80.2C146.07 79.52 145.57 78.84 145.09 78.16C142.85 75.01 140.74 71.85 138.19 69.06C137.97 68.58 137.75 68.1 137.55 67.61C137.32 67.04 136.74 66.92 136.26 67.12C135.72 66.61 135.16 66.13 134.56 65.66C135.36 64.28 136.33 63.04 137.33 61.81C144 68.31 149.79 75.66 156.94 81.65C156.15 82.68 155.26 83.62 154.32 84.53ZM180.85 50.75C180.09 50.59 179.65 51.52 179.9 52.12C183.26 59.96 174.05 63.75 168.39 59.29C167.83 58.84 166.91 59.29 166.89 60C166.73 63.74 163.61 64.5 160.58 63.57C159.71 63.31 158.91 64.31 159.54 65.06C163.39 69.54 161.25 76.08 155.13 76.48C154.82 76.5 154.63 76.63 154.51 76.81C151.47 73.89 148.62 70.78 145.76 67.67C146.09 67.58 146.35 67.27 146.12 66.87C145.69 62.2 147.23 60.68 150.74 62.32C151.48 62.57 152.22 61.81 151.86 61.08C149.06 55.3 149.67 42.7 158.94 47.9C159.96 48.47 160.86 47.18 159.98 46.42C156.37 43.34 157.23 38.51 162.15 37.7C163.14 37.53 163.09 35.89 162.06 35.91C158.84 35.97 155.72 35.76 152.68 34.62C146.77 32.39 144.85 23.79 152.29 22.44C152.65 22.38 153.03 22.02 153.02 21.63C152.92 18.3 153.48 14.78 156.78 13.19C160.75 11.27 164.45 15.75 166.02 18.72C166.36 19.37 167.14 19.38 167.59 18.85C173.2 12.26 179.91 18.47 179.22 25.47C179.15 26.17 179.92 26.66 180.54 26.38C189.02 22.43 195.23 28.27 196.12 36.75C197.13 46.29 190.2 52.63 180.85 50.75Z" fill="#1F0600" fill-opacity="1.000000" fill-rule="nonzero"/>
		<path id="Vector" d="M96.44 263.63C96.17 263.37 95.88 263.15 95.52 262.99C93.87 262.27 92.23 263.12 90.94 264.17C89.86 264.41 88.92 265.12 88.54 266.2C87.96 267.84 88.92 269.74 89.9 271.01C90.75 272.1 92.06 272.8 93.44 272.81C93.77 272.82 94.1 272.78 94.42 272.72C94.91 272.73 95.39 272.58 95.8 272.23C97.29 271.49 98.51 270.11 99 268.56C99.78 266.14 98.37 264.49 96.44 263.63Z" fill="#1F0600" fill-opacity="1.000000" fill-rule="nonzero"/>
		<path id="Vector" d="M78.86 189.29C78.85 186.72 79 180.87 76.73 178.95C74.28 176.86 69.07 177.47 66.11 177.29C60.65 176.97 54.86 176.63 49.43 177.58C48.02 177.84 48.43 180.01 49.85 179.78C53.16 179.23 56.59 179.15 60.01 179.24C59.44 183.96 58.83 188.68 58.17 193.39C56.47 193.37 54.76 193.35 53.06 193.35C51 193.35 48.71 193.09 46.67 193.5C46.75 192.87 46.84 192.24 46.93 191.6C47.44 187.71 49.27 181.62 47.65 177.87C47.58 177.71 47.37 177.75 47.3 177.89C45.61 181.79 45.79 187.25 45.16 191.45C44.31 197.18 43.34 202.91 42.81 208.68C42.76 209.25 43.2 209.7 43.74 209.78C54.17 211.15 64.8 210.01 75.22 209.06C75.55 209.04 75.94 208.71 76.02 208.38C77.58 202.11 78.86 195.77 78.86 189.29ZM61.4 179.28C63.64 179.37 65.87 179.52 68.05 179.66C70.09 179.8 73.32 179.5 75.17 180.54C76.64 181.35 76.62 187.93 76.67 189.11C76.75 191.08 76.62 193.06 76.39 195.03C74.67 192.95 66.33 193.57 64.74 193.52C63.12 193.46 61.51 193.43 59.9 193.41C60.49 188.7 61.13 184 61.4 179.28ZM44.93 207.85C45.33 203.38 45.94 198.91 46.54 194.46C49.73 195.63 54.12 195.37 57.9 195.27C57.23 199.51 56.08 204.02 56.35 208.27C52.53 208.36 48.72 208.27 44.93 207.85ZM74.3 206.45C74.03 207.61 70.23 207.38 69.38 207.45C65.63 207.79 61.86 208.08 58.09 208.22C59.05 204.24 59.12 199.91 59.6 195.85C59.63 195.65 59.65 195.45 59.68 195.24C60.1 195.24 60.52 195.24 60.92 195.26C64.08 195.37 67.25 195.53 70.41 195.78C71.59 195.87 74.61 195.72 75.62 196.43C75.82 196.57 76.02 196.58 76.21 196.53C76.04 197.76 75.83 198.98 75.63 200.2C75.27 202.3 74.79 204.38 74.3 206.45Z" fill="#1F0600" fill-opacity="1.000000" fill-rule="nonzero"/>
	</g>
</svg>
