<svg width="103" height="111" viewBox="0 0 103 111" fill="none" xmlns="http://www.w3.org/2000/svg">
<g clip-path="url(#clip0_2183_2829)">
<path d="M102.973 82.4412C102.906 80.9587 102.697 79.4762 102.347 78.0341C102.024 76.7201 101.654 74.7524 100.294 74.1122C98.6036 73.317 97.5264 75.2308 96.5434 76.2551C95.3584 77.4883 94.0253 78.5732 92.5844 79.4829C89.6421 81.3428 86.3026 82.5221 82.8688 83.0544C75.2001 84.2405 67.336 81.9089 60.6772 78.1756C57.3107 76.282 54.2809 74.0717 52.7997 70.3655C51.3521 66.7535 50.8202 62.6496 50.2816 58.822C49.1976 51.113 49.1774 42.8176 52.8872 35.7622C56.0449 29.758 61.6063 25.1555 68.5749 24.8051C76.9775 24.3805 84.4713 28.9089 91.9448 32.0626C93.4866 32.7163 95.3718 33.7743 97.0955 33.653C98.5834 33.5452 99.728 32.3659 99.5866 30.8968C99.755 30.634 99.7954 30.2971 99.5799 29.9467C95.9913 24.0436 94.6514 16.9477 90.4636 11.3815C85.9256 5.34366 78.3376 2.41232 71.1266 1.05784C63.4781 -0.370763 55.439 -0.242728 47.75 0.781556C43.919 1.28696 40.1485 2.15625 36.6138 3.73985C33.0857 5.32344 30.0223 7.70895 27.2012 10.3168C24.3935 12.918 21.7206 15.6741 19.0678 18.4302C16.4353 21.1661 13.8969 23.9829 11.5943 27.0019C6.7264 33.4036 3.67639 40.6478 1.85851 48.4512C-1.6224 63.3842 -0.632665 79.9749 8.45676 92.8121C12.5234 98.5535 17.9771 103.075 24.3868 105.959C30.8504 108.864 37.8728 110.178 44.902 110.703C52.4361 111.263 60.0578 110.986 67.5784 110.414C71.8403 110.09 76.0955 109.598 80.2969 108.796C84.0336 108.082 87.7973 107.044 91.0897 105.077C96.2134 102.01 99.957 96.916 101.775 91.2622C102.684 88.4319 103.115 85.413 102.973 82.4412ZM97.6072 95.7839C96.1192 98.2637 94.1734 100.501 91.8505 102.226C89.0294 104.322 85.7438 105.548 82.3504 106.364C74.4258 108.271 66.1308 108.715 58.0109 108.958C44.4576 109.369 29.6789 108.48 18.3272 100.211C6.47728 91.5789 1.47473 76.4977 1.92584 62.2857C2.18169 54.3678 3.83125 46.2746 6.85433 38.9429C9.75621 31.9144 14.5366 26.0045 19.7344 20.5394C22.2929 17.8507 24.9053 15.1957 27.5849 12.6215C30.3252 9.99337 33.2473 7.54048 36.6676 5.84906C43.4342 2.50667 51.5137 2.02148 58.9334 1.98105C66.5348 1.94061 74.3719 2.95142 81.2462 6.38816C84.4847 8.00545 87.3327 10.2023 89.3863 13.2077C91.2715 15.9706 92.5373 19.0839 93.7896 22.1635C94.9544 25.0409 96.1327 27.9183 97.7082 30.5936C97.6543 30.7486 97.6341 30.9305 97.6745 31.126C97.8967 32.1772 95.7152 31.4696 95.3516 31.3349C94.308 30.9575 93.2779 30.533 92.2545 30.0949C90.4972 29.3402 88.7601 28.5248 87.023 27.7364C83.495 26.1258 79.9131 24.5557 76.1225 23.6527C72.3857 22.7632 68.4469 22.4802 64.6967 23.4169C61.6871 24.1649 58.9401 25.7215 56.6172 27.7701C51.6955 32.1233 48.9417 38.4307 48.0732 44.8527C47.5345 48.842 47.6423 52.8785 48.0866 56.8678C48.5243 60.7628 49.1168 64.7386 50.1469 68.5191C51.0963 72.0164 52.7929 74.9949 55.6746 77.2389C58.5226 79.4627 61.8622 81.1339 65.2017 82.4817C71.8605 85.1771 79.3206 86.1745 86.3296 84.2876C89.494 83.4386 92.5373 82.0167 95.1564 80.0422C96.4558 79.0584 97.661 77.9667 98.7181 76.7268C98.8797 76.5381 99.2567 75.9249 99.5058 75.9788C99.7819 76.0395 99.9166 76.6594 99.9974 76.8885C100.233 77.5961 100.428 78.3171 100.59 79.0449C101.829 84.7391 100.583 90.8376 97.6072 95.7839Z" fill="white"/>
<path d="M40.5725 53.0472C40.5657 53.0405 40.5657 53.0405 40.559 53.0337C41.6497 50.938 41.919 48.4918 41.4006 46.1872C41.1246 44.9675 39.2528 45.4864 39.5289 46.7061C40.0271 48.9164 39.5827 51.2682 38.2563 53.1146C37.5965 54.0378 36.5933 54.9341 35.4756 55.5338C35.4689 55.5338 35.4555 55.5338 35.4487 55.5338C35.1996 55.5473 34.937 55.6281 34.762 55.8168C34.7418 55.837 34.7283 55.8573 34.7081 55.8775C34.0617 56.1201 33.3952 56.2548 32.7354 56.2077C30.5808 56.0459 29.0929 53.6672 28.3253 51.8814C27.4433 49.8328 27.1134 47.5686 26.9316 45.3651C26.8306 44.1252 24.8848 44.1184 24.9925 45.3651C25.1339 47.07 25.3696 48.8894 25.8476 50.628C25.0329 51.2884 24.2788 52.0095 23.6055 52.8114C23.4372 53.0135 23.3228 53.2292 23.3228 53.4987C23.3228 53.7346 23.4305 54.0243 23.6055 54.1861C23.7873 54.3545 24.0364 54.4826 24.2923 54.4691C24.5347 54.4556 24.8175 54.3815 24.979 54.1861C25.4571 53.62 25.9755 53.1079 26.5209 52.6092C27.174 54.1861 28.1099 55.6214 29.4362 56.74C28.9582 57.4476 28.4734 58.1619 27.9954 58.8695C27.8607 59.0716 27.8338 59.3883 27.8944 59.6175C27.955 59.8398 28.13 60.0892 28.3388 60.197C28.8303 60.4598 29.3622 60.2981 29.6652 59.8466C30.1432 59.1457 30.6212 58.4382 31.0993 57.7374C32.2641 58.1821 33.4962 58.1888 34.6879 57.8721C34.7956 58.4449 34.9168 59.0177 35.0717 59.5838C35.2063 60.0757 35.7652 60.4261 36.2634 60.2644C36.7616 60.1026 37.0848 59.5905 36.9434 59.0716C36.7616 58.4314 36.6337 57.7845 36.5193 57.1309C37.5965 56.5446 38.5795 55.736 39.3673 54.806C39.7174 55.3855 40.0338 55.9786 40.3031 56.5985C40.3637 56.7468 40.4243 56.8883 40.4782 57.0365C40.5657 57.2791 40.6937 57.4813 40.9226 57.6161C41.1313 57.7374 41.4343 57.7913 41.6699 57.7171C42.1345 57.5689 42.5385 57.0298 42.3499 56.5244C41.8988 55.2912 41.3131 54.1254 40.5725 53.0472Z" fill="white"/>
<path d="M40.7614 26.0383C40.2766 25.9372 39.7649 25.9575 39.2801 26.0451C38.9771 25.8227 38.5597 25.7553 38.2163 25.9777C37.2939 26.5707 36.3984 27.1906 35.7386 28.0734C35.1259 28.9023 34.8835 29.9603 35.0653 30.9711C35.2606 32.029 36.1089 32.8983 37.1525 33.1342C38.1827 33.3633 39.2128 33.1072 40.1621 32.6962C41.0643 32.3053 42.0271 31.7123 42.4715 30.7959C43.0505 29.5896 42.6331 28.3497 42.1214 27.2041C41.8656 26.6313 41.3943 26.1664 40.7614 26.0383ZM36.9438 30.4859V30.4791C36.9438 30.4859 36.9438 30.4926 36.9505 30.5061C36.9505 30.4926 36.9505 30.4926 36.9438 30.4859ZM37.1593 30.9913C37.1458 30.9711 37.0852 30.8902 37.0717 30.8632C37.065 30.8498 37.0583 30.8363 37.0448 30.8161C37.1391 30.87 37.24 30.9104 37.341 30.9508C37.3612 31.0317 37.3882 31.1126 37.4286 31.18C37.3814 31.153 37.3208 31.1261 37.3074 31.1126H37.3006C37.2804 31.0991 37.2468 31.0721 37.24 31.0654C37.2266 31.0587 37.1929 31.025 37.1593 30.9913ZM40.7681 29.8794C40.7344 29.94 40.7075 30.0007 40.6671 30.0546C40.6536 30.0748 40.6402 30.0883 40.6334 30.1085C40.6267 30.1152 40.62 30.122 40.6065 30.1355C40.5526 30.1894 40.4988 30.25 40.4382 30.3039C40.4045 30.3309 40.3439 30.3781 40.3372 30.3915C40.2766 30.432 40.216 30.4791 40.1554 30.5196C40.1285 30.5398 40.1015 30.5533 40.0746 30.5667C40.3776 30.2365 40.6334 29.8727 40.8422 29.4751C40.8422 29.529 40.8489 29.5762 40.8489 29.6301C40.8489 29.6368 40.8489 29.657 40.8422 29.6772C40.8354 29.7042 40.8287 29.7311 40.8287 29.7311C40.795 29.7918 40.7614 29.8861 40.7681 29.8794Z" fill="white"/>
<path d="M55.6006 17.0557C56.7856 17.1905 58.0514 16.8064 59.0546 16.1797C60.0914 15.526 60.9869 14.5152 61.2764 13.2955C61.5659 12.0758 61.3101 10.782 60.5358 9.79814C59.6807 8.7132 58.2399 8.35605 56.927 8.6593C56.6172 8.73342 56.3277 8.84798 56.0584 8.98949C53.7086 9.47468 52.3822 12.2712 52.7728 14.5354C53.0151 15.9775 54.2001 16.894 55.6006 17.0557ZM55.0821 14.8859C55.0552 14.8656 55.0417 14.8656 55.035 14.8589C55.035 14.8522 55.0215 14.8387 55.0013 14.8117C54.9677 14.778 54.934 14.7443 54.9071 14.7107C54.9004 14.6972 54.9004 14.7039 54.8936 14.6972C54.934 14.7039 54.9677 14.7039 55.0081 14.7039C55.0754 14.8252 55.1764 14.9263 55.2976 15.0004C55.2909 15.0004 55.2841 14.9937 55.2774 14.9937C55.2572 14.9869 55.2437 14.9735 55.237 14.9735C55.1831 14.9465 55.1293 14.9196 55.0821 14.8859ZM56.4624 15.115C56.4557 15.115 56.4355 15.1217 56.4085 15.1217C56.3614 15.1217 56.2469 15.1352 56.2537 15.1352C56.2402 15.1352 56.2267 15.1352 56.2133 15.1352C56.2671 15.115 56.321 15.1015 56.3681 15.0745C56.523 14.9869 56.6711 14.8791 56.8192 14.7848C56.9068 14.8522 57.001 14.9128 57.1087 14.9465C57.001 14.9802 56.8933 15.0206 56.7856 15.0476C56.6711 15.0745 56.5701 15.0948 56.4624 15.115ZM59.2835 13.154C59.2565 13.2281 59.2767 13.181 59.2835 13.154V13.154ZM59.068 11.0515C59.0815 11.0718 59.1017 11.0987 59.1084 11.1054C59.1488 11.1796 59.1959 11.247 59.2363 11.3278C59.2565 11.3683 59.2767 11.4087 59.2969 11.4424C59.3373 11.5502 59.371 11.658 59.3979 11.7726C59.4047 11.7995 59.4249 11.9006 59.4383 11.941C59.4383 11.9613 59.4451 11.9815 59.4451 11.9815C59.4518 12.0421 59.4518 12.096 59.4585 12.1567C59.4585 12.2443 59.4585 12.3319 59.4585 12.4195C59.4585 12.4734 59.4518 12.5273 59.4451 12.5812C59.4451 12.588 59.4451 12.588 59.4451 12.5947C59.4114 12.7766 59.3643 12.9586 59.2969 13.1338C59.27 13.1877 59.2431 13.2416 59.2161 13.2888C59.1623 13.3831 59.1084 13.4775 59.0478 13.5718C59.0209 13.6055 58.8526 13.8279 58.9468 13.7133C58.8862 13.7875 58.8256 13.8548 58.7583 13.9222C58.6842 14.0031 58.6034 14.0772 58.5227 14.1513C58.489 14.185 58.4486 14.212 58.4149 14.2457C58.3947 14.2592 58.388 14.2726 58.3745 14.2794C58.3678 14.2861 58.3611 14.2861 58.3476 14.2996C58.3341 14.3063 58.3207 14.3131 58.3072 14.3265C58.3409 14.2322 58.3745 14.1311 58.388 14.0233C58.3745 14.1446 58.4217 13.8414 58.4217 13.8481C58.4351 13.774 58.4486 13.7066 58.4688 13.6325C58.5159 13.437 58.5765 13.2416 58.6506 13.0529C58.6573 13.026 58.6842 12.9721 58.7112 12.9182C58.8728 12.6823 59.0209 12.433 59.1488 12.1769C59.3575 11.7456 59.2767 11.2267 58.893 10.9302C58.893 10.91 58.893 10.8831 58.893 10.8629C58.9401 10.91 58.9872 10.9505 59.0276 10.9976C59.0411 11.0178 59.0546 11.0381 59.068 11.0515Z" fill="white"/>
<path d="M13.143 45.8707C12.7323 45.5742 12.1532 45.5135 11.6887 45.6955C11.2577 45.8639 10.9144 46.1335 10.5508 46.4165C10.3892 46.5446 10.2343 46.6726 10.0862 46.8141C9.83037 46.868 9.60145 47.023 9.4264 47.2589C8.97529 47.8653 8.51072 48.519 8.3626 49.2737C8.20101 50.0756 8.31547 50.9045 8.82717 51.5649C9.89097 52.9396 11.9243 52.5083 13.0285 51.4369C13.998 50.4934 14.402 49.0918 14.2 47.771C14.0788 47.05 13.7355 46.3087 13.143 45.8707Z" fill="white"/>
<path d="M80.2902 17.9722C80.3575 18.0598 80.4249 18.1677 80.5124 18.2485C80.5999 18.3361 80.7009 18.4035 80.7952 18.4709C80.9231 18.5652 81.0847 18.6259 81.2328 18.6798C81.3877 18.7404 81.5493 18.7539 81.7176 18.7741C81.8792 18.7944 82.034 18.7674 82.1956 18.7404C82.3572 18.7202 82.4986 18.6461 82.6467 18.5787C82.7881 18.5113 82.916 18.4102 83.0305 18.2957C83.1786 18.1474 83.2729 17.9924 83.3537 17.797C83.4345 17.6016 83.4749 17.4264 83.4816 17.2108C83.4883 17.049 83.4614 16.8873 83.421 16.7323C83.3873 16.611 83.3335 16.4965 83.2864 16.3886C83.2662 16.3482 83.246 16.3078 83.2258 16.2673C83.1584 16.1663 83.0844 16.0652 83.0036 15.9776C82.9699 15.9439 82.9362 15.9102 82.9026 15.8765C82.8218 15.8091 82.7477 15.7619 82.6737 15.7148C82.5929 15.5059 82.4649 15.3104 82.263 15.2094C82.0273 15.0813 81.7782 15.0544 81.5156 15.1083C81.4685 15.1218 81.4281 15.1285 81.3809 15.1487C81.2665 15.1959 81.1453 15.2431 81.0308 15.3037C80.9904 15.3239 80.95 15.3509 80.9164 15.3778C80.8154 15.452 80.7144 15.5261 80.6201 15.6137C80.4989 15.7282 80.3912 15.8698 80.3037 16.0113C80.2094 16.1595 80.1421 16.3212 80.095 16.4897C80.0815 16.5369 80.0748 16.5773 80.0613 16.6245C80.0411 16.7525 80.0142 16.8806 80.0142 17.0086C80.0142 17.1838 80.0344 17.3657 80.0882 17.5275C80.1354 17.6892 80.196 17.8442 80.2902 17.9722Z" fill="white"/>
<path d="M20.6699 73.3437C20.2256 73.3032 19.8149 73.4245 19.4311 73.6334C19.0742 73.4784 18.6501 73.5526 18.3471 73.8221C17.4987 74.5769 16.8793 75.5877 16.5561 76.6793C16.2464 77.7171 16.1589 78.9907 16.5696 80.015C16.8052 80.608 17.1756 81.1471 17.7613 81.4369C18.3673 81.7401 19.0742 81.7671 19.7206 81.5716C20.8517 81.228 21.8011 80.3587 22.4138 79.3546C22.9928 78.3977 23.3025 77.205 23.1678 76.0863C22.9928 74.7049 22.1377 73.4784 20.6699 73.3437ZM18.7107 79.7522C18.7174 79.7522 18.7174 79.7522 18.7107 79.7522V79.7522Z" fill="white"/>
<path d="M37.4754 80.6895C37.7515 80.5143 38.0073 80.2582 38.1487 79.9617C38.2228 79.8135 38.2901 79.6517 38.3238 79.4833C38.3709 79.207 38.3642 79.0116 38.3238 78.7285C38.2228 78.1153 37.7919 77.5762 37.3273 77.1854C37.1253 77.0169 36.9099 76.9023 36.6406 76.9023C36.5328 76.9023 36.4116 76.9293 36.3039 76.9697C36.2703 76.963 36.2366 76.9495 36.1962 76.9495C35.9538 76.9293 35.7114 77.0102 35.496 77.118C35.3546 77.1921 35.2132 77.2999 35.1122 77.4212C34.8361 77.7447 34.6611 78.1355 34.6746 78.5668C34.688 78.9644 34.8159 79.3081 34.9977 79.6585C35.1324 79.9145 35.2738 80.1504 35.4623 80.3728C35.9538 80.9388 36.8291 81.0938 37.4754 80.6895Z" fill="white"/>
<path d="M40.007 90.1904C39.502 90.1028 39.0577 90.2174 38.647 90.46C37.8256 90.3319 36.9907 90.6756 36.3914 91.2349C35.7316 91.8549 35.4152 92.7646 35.2671 93.6339C35.1122 94.5369 34.8967 95.5881 35.2469 96.4709C35.6643 97.5086 36.6204 98.169 37.765 97.913C38.6604 97.7175 39.3607 96.9898 39.9128 96.2957C40.5255 95.5275 41.017 94.7121 41.394 93.8024C41.7912 92.832 41.8316 91.7538 41.1583 90.898C40.8756 90.5543 40.4514 90.2645 40.007 90.1904ZM39.7444 92.5826C39.7377 92.6096 39.731 92.65 39.731 92.6635C39.6771 92.8455 39.63 93.0207 39.5626 93.1959C39.5559 93.2161 39.5559 93.2228 39.5492 93.2296C39.5424 93.243 39.5357 93.2633 39.5223 93.2902C39.4953 93.3509 39.4684 93.4115 39.4347 93.4722C39.3741 93.6002 39.3068 93.7215 39.2395 93.8428C39.2799 93.553 39.2597 93.2565 39.1654 92.9465C39.1385 92.8589 39.0981 92.7781 39.0509 92.704C39.0981 92.6568 39.1452 92.6029 39.1923 92.5557C39.3001 92.4479 39.4011 92.3333 39.5155 92.2255C39.5424 92.1985 39.5761 92.1648 39.6098 92.1379C39.6098 92.1379 39.63 92.1312 39.6502 92.1177C39.6569 92.1244 39.6502 92.1177 39.6569 92.1244C39.6838 92.1649 39.7781 92.3131 39.6838 92.1514C39.704 92.1851 39.7175 92.2188 39.7377 92.2524C39.7444 92.2727 39.7512 92.2861 39.7444 92.2996C39.7444 92.3131 39.7512 92.3266 39.7512 92.3401C39.7512 92.3401 39.7512 92.3535 39.7512 92.3872C39.7512 92.4479 39.7512 92.5153 39.7444 92.5826Z" fill="white"/>
<path d="M65.9086 96.9159C65.6528 96.8149 65.3767 96.7946 65.1141 96.8216C65.0401 96.4644 64.7707 96.141 64.4206 96.0601C63.8887 95.9388 63.3972 96.2218 63.2289 96.7407C62.798 98.0346 62.8182 99.5238 63.3097 100.797C63.5723 101.465 63.9089 102.172 64.5822 102.509C65.3767 102.907 66.2385 102.583 66.8041 101.95C67.6188 101.033 67.9083 99.6653 67.4504 98.513C67.1609 97.7785 66.6627 97.199 65.9086 96.9159ZM65.7201 99.544C65.7133 99.5171 65.7066 99.4834 65.7133 99.4632C65.7133 99.4699 65.7133 99.4766 65.7201 99.4834C65.7133 99.5036 65.7201 99.5238 65.7201 99.544ZM65.269 98.7489C65.2757 98.7489 65.2824 98.7556 65.2892 98.7556C65.2959 98.7623 65.3094 98.7623 65.3161 98.7691C65.2959 98.7623 65.2757 98.7556 65.269 98.7489ZM65.6258 99.1532C65.6595 99.2206 65.6528 99.2071 65.6326 99.1801C65.646 99.2206 65.6595 99.261 65.6595 99.2745C65.6527 99.2543 65.6393 99.2408 65.6258 99.2206C65.6191 99.2071 65.6124 99.1936 65.6056 99.1734C65.5989 99.1599 65.5989 99.1464 65.5922 99.1397C65.5854 99.1195 65.5787 99.0993 65.572 99.0791C65.5787 99.0925 65.5854 99.106 65.5989 99.1195C65.5989 99.106 65.5922 99.0993 65.5989 99.0925C65.6056 99.0925 65.6124 99.1127 65.6258 99.1532C65.6258 99.1464 65.6258 99.1464 65.6258 99.1532Z" fill="white"/>
<path d="M65.6324 99.1739C65.6257 99.1604 65.6257 99.1537 65.6257 99.147C65.6189 99.1335 65.6122 99.1268 65.6055 99.1133C65.6122 99.1335 65.6189 99.1537 65.6324 99.1739Z" fill="white"/>
<path d="M78.0683 92.3407C77.9269 92.2666 77.7855 92.2329 77.6373 92.2262C77.4421 92.1521 77.2064 92.1251 77.0179 92.1858C76.8159 92.2531 76.6274 92.3812 76.4995 92.5564C76.2638 92.6844 76.0416 92.8394 75.8397 93.0146C75.6242 93.1966 75.4424 93.4257 75.2808 93.6615C75.099 93.9243 75.0317 94.2276 74.998 94.5443C74.9577 94.9284 75.099 95.3058 75.3482 95.5888C75.6579 95.946 76.2032 96.0538 76.6409 95.919C77.2064 95.7438 77.7047 95.2856 77.974 94.7667C78.1221 94.4769 78.2231 94.1669 78.2702 93.8502C78.3241 93.7963 78.378 93.7357 78.4116 93.6683C78.5328 93.4594 78.5867 93.1561 78.5126 92.9203C78.4386 92.6844 78.2972 92.4553 78.0683 92.3407Z" fill="white"/>
</g>
<defs>
<clipPath id="clip0_2183_2829">
<rect width="103" height="111" fill="white"/>
</clipPath>
</defs>
</svg>
