<svg width="239.646973" height="207.166992" viewBox="0 0 239.647 207.167" fill="none" xmlns="http://www.w3.org/2000/svg" xmlns:xlink="http://www.w3.org/1999/xlink">
	<desc>
			Created with Pixso.
	</desc>
	<defs>
		<clipPath id="clip2183_2843">
			<rect id="Frame" rx="0.000000" width="61.000000" height="47.000000" transform="translate(0.500000 41.507812)" fill="white" fill-opacity="0"/>
		</clipPath>
	</defs>
	<path id="Vector" d="M213.61 115.49C212.52 111.61 209.48 109.05 207.03 106.05C214.48 103.78 221.68 98.39 224.48 91.05C225.88 87.4 225.58 83.13 222.62 80.3C220.05 77.85 216.49 76.95 213 76.49C215.14 73.75 216.81 70.69 217.88 67.37C219.13 63.5 219.81 58.97 218.62 55C217.52 51.34 214.65 48.17 210.73 47.64C207.65 47.22 204.71 48.46 201.68 48.7C203.26 40.6 202.85 30.47 195.51 25.42C188.35 20.53 178.73 22.25 172.47 27.72C169.29 30.51 166.93 34.09 165.23 37.95C165.05 35.4 164.4 32.85 163.02 30.69C161.14 27.73 158.16 25.99 154.69 25.55C148.13 24.73 141.72 28.49 138.13 33.81C136.63 36.05 135.62 38.6 135.2 41.25C131.03 38.17 125.43 37.06 120.68 39.6C118.12 40.97 116.05 43.25 115.07 45.99C114.15 48.54 114.59 51.15 114.93 53.76C108.68 52.21 101.74 54.22 96.49 57.71C90.56 61.65 86.12 68.79 88.71 76.03C89.99 79.62 92.87 81.95 96.24 83.54C98.14 84.43 100.13 85.14 102.02 86.05C102.57 86.31 103.85 86.76 104.09 87.39C104.35 88.09 103.22 89.29 102.85 89.88C99.01 96.14 97.23 104.12 100.87 110.9C102.71 114.36 105.83 117.02 109.66 117.99C113.13 118.88 116.76 118.49 120.19 117.58C120.78 121.74 125.14 124.41 129.18 123.13C127 128.13 125.74 133.5 123.83 138.62C119.87 149.22 114.86 159.44 111.48 170.26C110.15 174.53 108.68 179.29 111.91 183.11C114.69 186.41 119.44 187.29 123.42 185.95C128.13 184.35 131.45 180.45 133.81 176.23C136.63 171.18 138.87 165.76 141.32 160.52C146.25 150.02 151.18 139.51 156.1 129C156.1 129.14 156.12 129.29 156.17 129.45C158.44 136.07 165.87 138.78 172.39 138.44C178.86 138.12 185.29 134.63 187.05 128.28C190.2 129.72 193.7 130.05 197.17 129.66C201.25 129.2 205.68 127.98 209.13 125.68C212.59 123.38 214.79 119.7 213.61 115.49ZM134.8 168.11C132.64 172.69 130.61 177.73 126.64 181.07C123.48 183.73 118.9 185.04 115.24 182.52C111.01 179.61 112.96 174.52 114.22 170.54C117.42 160.47 122 150.92 125.78 141.07C126.86 138.26 127.87 135.44 128.78 132.57C129.63 129.85 130.39 127.11 131.51 124.48C132.68 121.74 134.07 119.1 135.23 116.36C136.45 113.5 137.51 110.56 138.44 107.58C138.88 106.15 137 105.39 136.15 106.3C132.95 102.47 130.78 97.78 129.98 92.85C132.18 92.96 134.39 92.83 136.55 92.4C136.53 92.62 136.57 92.84 136.68 93.07C139.35 98.72 143.04 104.47 149.76 105.41C152.39 105.78 155.89 105.81 158.16 104.21C159.48 103.28 160.21 101.81 160.98 100.45C161.55 99.45 162.12 98.46 162.68 97.46C163.01 97.91 163.37 98.36 163.77 98.78C164.79 99.86 165.99 100.76 167.23 101.57C165.43 105.58 163.7 109.62 161.81 113.59C160.93 115.42 159.44 116.72 158.29 118.38C156.96 120.29 155.99 122.4 155.03 124.5C154.92 124.76 154.89 125 154.91 125.24C150.52 134.59 146.13 143.95 141.74 153.31C139.42 158.24 137.11 163.17 134.8 168.11ZM147.84 86.53C150.39 90.2 155.38 91.3 159.27 89.21C159.75 91.08 160.31 92.97 161.12 94.73C160.49 95.84 159.86 96.95 159.22 98.06C158.56 99.23 157.96 100.69 157 101.66C155.39 103.27 151.85 103.03 149.79 102.69C144.19 101.76 141.27 96.45 139.06 91.78C139.05 91.76 139.04 91.75 139.03 91.73C142.33 90.71 145.39 88.95 147.84 86.53ZM207.09 123.8C204.06 125.57 200.43 126.59 196.95 127.01C193.44 127.42 189.85 127 186.8 125.13C185.87 124.56 184.86 125.27 184.75 126.26C184.05 132.48 177.67 135.59 172.01 135.78C166.99 135.93 160.6 134.11 158.79 128.83C158.42 127.74 157.11 127.66 156.46 128.22C157.03 127.02 157.59 125.82 158.15 124.61C158.27 124.35 158.3 124.1 158.28 123.87C158.92 122.53 159.6 121.21 160.43 119.99C161.61 118.25 163.18 116.91 164.1 114.99C165.98 111.03 167.71 106.99 169.5 102.99C171.21 103.98 172.98 104.86 174.84 105.54C176.48 106.13 177.22 103.54 175.58 102.95C173.67 102.25 171.87 101.3 170.14 100.24C168.58 99.28 166.99 98.27 165.72 96.93C163.32 94.4 162.45 90.88 161.61 87.6C161.59 87.52 161.56 87.44 161.53 87.36C162.15 86.16 160.53 84.65 159.41 85.76C156.15 88.98 151.01 87.8 149.28 83.61C148.97 82.87 147.7 82.63 147.17 83.26C143.35 87.78 137.67 90.11 131.8 90.2C130.89 90.22 129.98 90.17 129.08 90.08C128.89 89.96 128.66 89.87 128.39 89.87C128.23 89.87 128.07 89.9 127.9 89.96C126.34 89.76 124.78 89.43 123.25 89C122.23 88.71 120.87 88.6 120.47 89.88C120.13 90.93 121.03 91.78 122.01 91.85C122.31 91.87 122.61 91.76 122.84 91.57C123.68 91.76 124.59 92.13 125.35 92.29C125.96 92.41 126.58 92.52 127.2 92.61C128.07 98.55 130.57 104.12 134.55 108.67C134.71 108.85 134.89 108.97 135.07 109.04C133.73 112.87 132.09 116.53 130.43 120.22C130.09 120.01 129.63 119.96 129.17 120.22C125.91 122.03 122.38 119.45 122.81 115.85C122.91 115.02 121.92 114.27 121.15 114.51C114.87 116.48 107.43 116.66 103.6 110.35C99.83 104.15 101.7 96.67 105.35 90.91C106.13 89.69 107.12 88.45 106.74 86.9C106.39 85.46 105.06 84.6 103.82 83.98C100.55 82.33 96.74 81.41 93.88 79.01C88.36 74.36 90.63 66.29 95.3 62.01C100.59 57.14 109.12 54.31 116.06 56.95C116.83 57.24 117.86 56.51 117.79 55.68C117.58 53.06 116.72 50.27 117.35 47.66C117.91 45.34 119.52 43.37 121.58 42.18C126.17 39.51 131.8 41.3 135.29 44.94C136.09 45.78 137.62 45.24 137.63 44.05C137.66 37.4 142.21 30.99 148.59 28.89C152.03 27.76 156.32 27.74 159.17 30.29C161.98 32.82 162.67 36.9 162.53 40.5C162.48 41.52 163.4 41.96 164.18 41.79C164.69 42.62 166.26 42.73 166.69 41.5C169.19 34.29 174.54 27.12 182.44 25.55C185.82 24.88 189.54 25.28 192.6 26.88C195.96 28.64 198.06 31.67 198.97 35.31C200.13 39.99 199.76 45.09 198.66 49.73C198.46 50.6 199.04 51.39 199.94 51.46C203.02 51.66 205.9 50.41 208.94 50.29C212.55 50.14 215.19 52.71 216.07 56.09C216.98 59.52 216.32 63.33 215.25 66.65C214.05 70.35 212.03 73.74 209.38 76.59C208.56 77.47 209.07 78.82 210.27 78.92C213.78 79.24 218.12 79.68 220.75 82.31C223.25 84.82 222.84 88.46 221.38 91.39C218.14 97.86 211.34 102.39 204.41 103.99C203.63 104.17 203.02 105.21 203.53 105.94C205.69 109.03 208.92 111.46 210.5 114.94C212.23 118.64 210.4 121.84 207.09 123.8Z" fill="#1F0600" fill-opacity="1.000000" fill-rule="nonzero"/>
	<rect id="Frame" rx="0.000000" width="61.000000" height="47.000000" transform="translate(0.500000 41.507812)" fill="#FFFFFF" fill-opacity="0"/>
	<g clip-path="url(#clip2183_2843)">
		<path id="Vector" d="M58.94 58.24C56.96 56.52 54.39 55.79 51.82 55.82C52.99 52.87 53.81 49.49 53.26 46.47C52.67 43.2 49.45 41.45 46.39 41.09C40.67 40.41 35.03 43.82 32.51 48.83C31.17 46.88 30.05 44.75 28.22 43.19C25.97 41.25 23.01 40.65 20.19 41.66C14.39 43.73 13.15 50.22 15.71 55.12C12.58 55.95 9.58 57.29 6.92 59.16C3.98 61.22 1.16 63.98 0.28 67.6C-1.45 74.81 4.8 81.77 12.15 81.34C14.81 81.18 17.28 80.09 19.02 78.23C19.85 80.9 21.02 83.54 22.65 85.73C24.78 88.58 28.15 89.39 31.56 88.86C37.6 87.9 42.08 82.86 42.66 77C47.54 79.55 53.75 79.05 57.87 75.08C62.18 70.94 63.98 62.59 58.94 58.24ZM58.38 70.1C55.47 76.08 47.61 78.01 42.32 73.82C41.56 73.21 40.06 73.51 40.15 74.72C40.58 80.28 36.88 85.34 31.28 86.34C28.32 86.87 25.76 86.02 24.16 83.42C22.54 80.8 21.46 77.87 20.75 74.88C20.44 73.54 18.73 73.82 18.3 74.88C16.98 78.12 12.87 79.33 9.68 78.61C6.07 77.81 3.14 74.99 2.61 71.29C2.05 67.44 4.41 64.29 7.29 62.02C10.37 59.59 14.04 58.01 17.88 57.21C17.97 57.2 18.04 57.18 18.12 57.15C18.16 57.15 18.19 57.14 18.22 57.13C18.58 57.06 18.82 56.88 18.97 56.65C19.1 56.56 19.22 56.48 19.35 56.39C20.71 55.48 19.44 53.29 18.07 54.2C18.06 54.2 18.06 54.21 18.05 54.21C15.73 50.27 17.07 44.53 22.16 43.74C27.23 42.97 29.3 49.21 31.96 52.26C32.61 53.01 33.83 52.57 34.09 51.7C35.5 46.9 40.27 43.4 45.31 43.54C47.61 43.6 50.48 44.63 50.81 47.23C51.19 50.33 50.02 53.9 48.7 56.64C48.21 57.67 49.02 58.73 50.14 58.51C52.88 57.97 56.16 58.61 57.97 60.89C60.01 63.42 59.73 67.33 58.38 70.1Z" fill="#1F0600" fill-opacity="1.000000" fill-rule="nonzero"/>
	</g>
</svg>
