<svg width="103.000000" height="111.000000" viewBox="0 0 103 111" fill="none" xmlns="http://www.w3.org/2000/svg" xmlns:xlink="http://www.w3.org/1999/xlink">
	<desc>
			Created with Pixso.
	</desc>
	<defs>
		<clipPath id="clip2183_2829">
			<rect id="Frame" rx="0.000000" width="102.000000" height="110.000000" transform="translate(0.500000 0.500000)" fill="white" fill-opacity="0"/>
		</clipPath>
	</defs>
	<rect id="Frame" rx="0.000000" width="102.000000" height="110.000000" transform="translate(0.500000 0.500000)" fill="#FFFFFF" fill-opacity="0"/>
	<g clip-path="url(#clip2183_2829)">
		<path id="Vector" d="M102.97 82.44C102.9 80.95 102.69 79.47 102.34 78.03C102.02 76.71 101.65 74.75 100.29 74.11C98.6 73.31 97.52 75.23 96.54 76.25C95.35 77.48 94.02 78.57 92.58 79.48C89.64 81.34 86.3 82.52 82.86 83.05C75.2 84.24 67.33 81.9 60.67 78.17C57.31 76.28 54.28 74.07 52.79 70.36C51.35 66.75 50.82 62.64 50.28 58.82C49.19 51.11 49.17 42.81 52.88 35.76C56.04 29.75 61.6 25.15 68.57 24.8C76.97 24.38 84.47 28.9 91.94 32.06C93.48 32.71 95.37 33.77 97.09 33.65C98.58 33.54 99.72 32.36 99.58 30.89C99.75 30.63 99.79 30.29 99.58 29.94C95.99 24.04 94.65 16.94 90.46 11.38C85.92 5.34 78.33 2.41 71.12 1.05C63.47 -0.38 55.43 -0.25 47.75 0.78C43.91 1.28 40.14 2.15 36.61 3.74C33.08 5.32 30.02 7.7 27.2 10.31C24.39 12.91 21.72 15.67 19.06 18.43C16.43 21.16 13.89 23.98 11.59 27C6.72 33.4 3.67 40.64 1.85 48.45C-1.63 63.38 -0.64 79.97 8.45 92.81C12.52 98.55 17.97 103.07 24.38 105.95C30.85 108.86 37.87 110.17 44.9 110.7C52.43 111.26 60.05 110.98 67.57 110.41C71.84 110.09 76.09 109.59 80.29 108.79C84.03 108.08 87.79 107.04 91.08 105.07C96.21 102.01 99.95 96.91 101.77 91.26C102.68 88.43 103.11 85.41 102.97 82.44ZM97.6 95.78C96.11 98.26 94.17 100.5 91.85 102.22C89.02 104.32 85.74 105.54 82.35 106.36C74.42 108.27 66.13 108.71 58.01 108.95C44.45 109.36 29.67 108.47 18.32 100.21C6.47 91.57 1.47 76.49 1.92 62.28C2.18 54.36 3.83 46.27 6.85 38.94C9.75 31.91 14.53 26 19.73 20.53C22.29 17.85 24.9 15.19 27.58 12.62C30.32 9.99 33.24 7.54 36.66 5.84C43.43 2.5 51.51 2.02 58.93 1.98C66.53 1.94 74.37 2.95 81.24 6.38C84.48 8 87.33 10.2 89.38 13.2C91.27 15.97 92.53 19.08 93.78 22.16C94.95 25.04 96.13 27.91 97.7 30.59C97.65 30.74 97.63 30.93 97.67 31.12C97.89 32.17 95.71 31.46 95.35 31.33C94.3 30.95 93.27 30.53 92.25 30.09C90.49 29.33 88.76 28.52 87.02 27.73C83.49 26.12 79.91 24.55 76.12 23.65C72.38 22.76 68.44 22.48 64.69 23.41C61.68 24.16 58.93 25.72 56.61 27.77C51.69 32.12 48.94 38.43 48.07 44.85C47.53 48.84 47.64 52.87 48.08 56.86C48.52 60.76 49.11 64.73 50.14 68.51C51.09 72.01 52.79 74.99 55.67 77.23C58.52 79.46 61.86 81.13 65.2 82.48C71.86 85.17 79.32 86.17 86.32 84.28C89.49 83.43 92.53 82.01 95.15 80.04C96.45 79.05 97.66 77.96 98.71 76.72C98.87 76.53 99.25 75.92 99.5 75.97C99.78 76.03 99.91 76.65 99.99 76.88C100.23 77.59 100.42 78.31 100.59 79.04C101.82 84.73 100.58 90.83 97.6 95.78Z" fill="#FFFFFF" fill-opacity="1.000000" fill-rule="nonzero"/>
		<path id="Vector" d="M40.57 53.04C40.56 53.04 40.56 53.04 40.55 53.03C41.64 50.93 41.91 48.49 41.4 46.18C41.12 44.96 39.25 45.48 39.52 46.7C40.02 48.91 39.58 51.26 38.25 53.11C37.59 54.03 36.59 54.93 35.47 55.53C35.46 55.53 35.45 55.53 35.44 55.53C35.19 55.54 34.93 55.62 34.76 55.81C34.74 55.83 34.72 55.85 34.7 55.87C34.06 56.12 33.39 56.25 32.73 56.2C30.58 56.04 29.09 53.66 28.32 51.88C27.44 49.83 27.11 47.56 26.93 45.36C26.83 44.12 24.88 44.11 24.99 45.36C25.13 47.07 25.36 48.88 25.84 50.62C25.03 51.28 24.27 52 23.6 52.81C23.43 53.01 23.32 53.22 23.32 53.49C23.32 53.73 23.43 54.02 23.6 54.18C23.78 54.35 24.03 54.48 24.29 54.46C24.53 54.45 24.81 54.38 24.97 54.18C25.45 53.62 25.97 53.1 26.52 52.6C27.17 54.18 28.1 55.62 29.43 56.74C28.95 57.44 28.47 58.16 27.99 58.86C27.86 59.07 27.83 59.38 27.89 59.61C27.95 59.83 28.12 60.08 28.33 60.19C28.83 60.46 29.36 60.29 29.66 59.84C30.14 59.14 30.62 58.43 31.09 57.73C32.26 58.18 33.49 58.18 34.68 57.87C34.79 58.44 34.91 59.01 35.07 59.58C35.2 60.07 35.76 60.42 36.26 60.26C36.76 60.1 37.08 59.59 36.94 59.07C36.76 58.43 36.63 57.78 36.51 57.13C37.59 56.54 38.57 55.73 39.36 54.8C39.71 55.38 40.03 55.97 40.3 56.59C40.36 56.74 40.42 56.88 40.47 57.03C40.56 57.27 40.69 57.48 40.92 57.61C41.13 57.73 41.43 57.79 41.66 57.71C42.13 57.56 42.53 57.03 42.35 56.52C41.89 55.29 41.31 54.12 40.57 53.04Z" fill="#FFFFFF" fill-opacity="1.000000" fill-rule="nonzero"/>
		<path id="Vector" d="M40.76 26.03C40.27 25.93 39.76 25.95 39.27 26.04C38.97 25.82 38.55 25.75 38.21 25.97C37.29 26.57 36.39 27.19 35.73 28.07C35.12 28.9 34.88 29.96 35.06 30.97C35.26 32.02 36.1 32.89 37.15 33.13C38.18 33.36 39.21 33.1 40.16 32.69C41.06 32.3 42.02 31.71 42.47 30.79C43.05 29.58 42.63 28.34 42.12 27.2C41.86 26.63 41.39 26.16 40.76 26.03ZM36.94 30.48L36.94 30.47C36.94 30.48 36.94 30.49 36.95 30.5C36.95 30.49 36.95 30.49 36.94 30.48ZM37.15 30.99C37.14 30.97 37.08 30.89 37.07 30.86C37.06 30.84 37.05 30.83 37.04 30.81C37.13 30.87 37.23 30.91 37.34 30.95C37.36 31.03 37.38 31.11 37.42 31.17C37.38 31.15 37.32 31.12 37.3 31.11L37.3 31.11C37.27 31.09 37.24 31.07 37.23 31.06C37.22 31.05 37.19 31.02 37.15 30.99ZM40.76 29.87C40.73 29.94 40.7 30 40.66 30.05C40.65 30.07 40.63 30.08 40.63 30.1C40.62 30.11 40.61 30.12 40.6 30.13C40.55 30.18 40.49 30.25 40.43 30.3C40.4 30.33 40.34 30.37 40.33 30.39C40.27 30.43 40.21 30.47 40.15 30.51C40.12 30.54 40.1 30.55 40.07 30.56C40.37 30.23 40.63 29.87 40.84 29.47C40.84 29.52 40.84 29.57 40.84 29.62C40.84 29.63 40.84 29.65 40.84 29.67C40.83 29.7 40.82 29.73 40.82 29.73C40.79 29.79 40.76 29.88 40.76 29.87Z" fill="#FFFFFF" fill-opacity="1.000000" fill-rule="nonzero"/>
		<path id="Vector" d="M55.6 17.05C56.78 17.19 58.05 16.8 59.05 16.17C60.09 15.52 60.98 14.51 61.27 13.29C61.56 12.07 61.31 10.78 60.53 9.79C59.68 8.71 58.23 8.35 56.92 8.65C56.61 8.73 56.32 8.84 56.05 8.98C53.7 9.47 52.38 12.27 52.77 14.53C53.01 15.97 54.2 16.89 55.6 17.05ZM55.08 14.88C55.05 14.86 55.04 14.86 55.03 14.85C55.03 14.85 55.02 14.83 55 14.81C54.96 14.77 54.93 14.74 54.9 14.71C54.9 14.69 54.9 14.7 54.89 14.69C54.93 14.7 54.96 14.7 55 14.7C55.07 14.82 55.17 14.92 55.29 15C55.29 15 55.28 14.99 55.27 14.99C55.25 14.98 55.24 14.97 55.23 14.97C55.18 14.94 55.12 14.91 55.08 14.88ZM56.46 15.11C56.45 15.11 56.43 15.12 56.4 15.12C56.36 15.12 56.24 15.13 56.25 15.13C56.24 15.13 56.22 15.13 56.21 15.13C56.26 15.11 56.32 15.1 56.36 15.07C56.52 14.98 56.67 14.87 56.81 14.78C56.9 14.85 57 14.91 57.1 14.94C57 14.98 56.89 15.02 56.78 15.04C56.67 15.07 56.57 15.09 56.46 15.11ZM59.06 11.05C59.08 11.07 59.1 11.09 59.1 11.1C59.14 11.17 59.19 11.24 59.23 11.32C59.25 11.36 59.27 11.4 59.29 11.44C59.33 11.54 59.37 11.65 59.39 11.77C59.4 11.79 59.42 11.9 59.43 11.94C59.43 11.96 59.44 11.98 59.44 11.98C59.45 12.04 59.45 12.09 59.45 12.15C59.45 12.24 59.45 12.33 59.45 12.41C59.45 12.47 59.45 12.52 59.44 12.58C59.44 12.58 59.44 12.58 59.44 12.59C59.41 12.77 59.36 12.95 59.29 13.13C59.27 13.18 59.24 13.24 59.21 13.28C59.16 13.38 59.1 13.47 59.04 13.57C59.02 13.6 58.85 13.82 58.94 13.71C58.88 13.78 58.82 13.85 58.75 13.92C58.68 14 58.6 14.07 58.52 14.15C58.48 14.18 58.44 14.21 58.41 14.24C58.39 14.25 58.38 14.27 58.37 14.27C58.36 14.28 58.36 14.28 58.34 14.29C58.33 14.3 58.32 14.31 58.3 14.32C58.34 14.23 58.37 14.13 58.38 14.02C58.37 14.14 58.42 13.84 58.42 13.84C58.43 13.77 58.44 13.7 58.46 13.63C58.51 13.43 58.57 13.24 58.65 13.05C58.65 13.02 58.68 12.97 58.71 12.91C58.87 12.68 59.02 12.43 59.14 12.17C59.35 11.74 59.27 11.22 58.89 10.93C58.89 10.91 58.89 10.88 58.89 10.86C58.93 10.91 58.98 10.95 59.02 10.99C59.04 11.01 59.05 11.03 59.06 11.05Z" fill="#FFFFFF" fill-opacity="1.000000" fill-rule="nonzero"/>
		<path id="Vector" d="M13.14 45.87C12.73 45.57 12.15 45.51 11.68 45.69C11.25 45.86 10.91 46.13 10.55 46.41C10.38 46.54 10.23 46.67 10.08 46.81C9.83 46.86 9.6 47.02 9.42 47.25C8.97 47.86 8.51 48.51 8.36 49.27C8.2 50.07 8.31 50.9 8.82 51.56C9.89 52.93 11.92 52.5 13.02 51.43C13.99 50.49 14.4 49.09 14.19 47.77C14.07 47.04 13.73 46.3 13.14 45.87Z" fill="#FFFFFF" fill-opacity="1.000000" fill-rule="nonzero"/>
		<path id="Vector" d="M80.28 17.97C80.35 18.05 80.42 18.16 80.51 18.24C80.59 18.33 80.7 18.4 80.79 18.47C80.92 18.56 81.08 18.62 81.23 18.67C81.38 18.74 81.54 18.75 81.71 18.77C81.87 18.79 82.03 18.76 82.19 18.74C82.35 18.72 82.49 18.64 82.64 18.57C82.78 18.51 82.91 18.41 83.02 18.29C83.17 18.14 83.27 17.99 83.35 17.79C83.43 17.6 83.47 17.42 83.48 17.21C83.48 17.04 83.46 16.88 83.42 16.73C83.38 16.61 83.33 16.49 83.28 16.38C83.26 16.34 83.24 16.3 83.22 16.26C83.15 16.16 83.08 16.06 83 15.97C82.96 15.94 82.93 15.91 82.9 15.87C82.82 15.8 82.74 15.76 82.67 15.71C82.59 15.5 82.46 15.31 82.26 15.2C82.02 15.08 81.77 15.05 81.51 15.1C81.46 15.12 81.42 15.12 81.38 15.14C81.26 15.19 81.14 15.24 81.03 15.3C80.98 15.32 80.94 15.35 80.91 15.37C80.81 15.45 80.71 15.52 80.61 15.61C80.49 15.72 80.39 15.87 80.3 16.01C80.2 16.15 80.14 16.32 80.09 16.48C80.08 16.53 80.07 16.57 80.06 16.62C80.04 16.75 80.01 16.88 80.01 17C80.01 17.18 80.03 17.36 80.08 17.52C80.13 17.68 80.19 17.84 80.28 17.97Z" fill="#FFFFFF" fill-opacity="1.000000" fill-rule="nonzero"/>
		<path id="Vector" d="M20.66 73.34C20.22 73.3 19.81 73.42 19.43 73.63C19.07 73.47 18.64 73.55 18.34 73.82C17.49 74.57 16.87 75.58 16.55 76.67C16.24 77.71 16.15 78.99 16.56 80.01C16.8 80.6 17.17 81.14 17.76 81.43C18.36 81.74 19.07 81.76 19.72 81.57C20.85 81.22 21.8 80.35 22.41 79.35C22.99 78.39 23.3 77.2 23.16 76.08C22.99 74.7 22.13 73.47 20.66 73.34Z" fill="#FFFFFF" fill-opacity="1.000000" fill-rule="nonzero"/>
		<path id="Vector" d="M37.47 80.68C37.75 80.51 38 80.25 38.14 79.96C38.22 79.81 38.29 79.65 38.32 79.48C38.37 79.2 38.36 79.01 38.32 78.72C38.22 78.11 37.79 77.57 37.32 77.18C37.12 77.01 36.9 76.9 36.64 76.9C36.53 76.9 36.41 76.92 36.3 76.96C36.27 76.96 36.23 76.94 36.19 76.94C35.95 76.92 35.71 77 35.49 77.11C35.35 77.19 35.21 77.29 35.11 77.42C34.83 77.74 34.66 78.13 34.67 78.56C34.68 78.96 34.81 79.3 34.99 79.65C35.13 79.91 35.27 80.15 35.46 80.37C35.95 80.93 36.82 81.09 37.47 80.68Z" fill="#FFFFFF" fill-opacity="1.000000" fill-rule="nonzero"/>
		<path id="Vector" d="M40 90.19C39.5 90.1 39.05 90.21 38.64 90.46C37.82 90.33 36.99 90.67 36.39 91.23C35.73 91.85 35.41 92.76 35.26 93.63C35.11 94.53 34.89 95.58 35.24 96.47C35.66 97.5 36.62 98.16 37.76 97.91C38.66 97.71 39.36 96.99 39.91 96.29C40.52 95.52 41.01 94.71 41.39 93.8C41.79 92.83 41.83 91.75 41.15 90.89C40.87 90.55 40.45 90.26 40 90.19ZM39.74 92.58C39.73 92.61 39.73 92.65 39.73 92.66C39.67 92.84 39.62 93.02 39.56 93.19C39.55 93.21 39.55 93.22 39.54 93.23C39.54 93.24 39.53 93.26 39.52 93.29C39.49 93.35 39.46 93.41 39.43 93.47C39.37 93.6 39.3 93.72 39.23 93.84C39.27 93.55 39.25 93.25 39.16 92.94C39.13 92.86 39.09 92.77 39.05 92.7C39.09 92.65 39.14 92.6 39.19 92.55C39.3 92.44 39.4 92.33 39.51 92.22C39.54 92.19 39.57 92.16 39.6 92.13C39.6 92.13 39.62 92.13 39.65 92.11C39.65 92.12 39.65 92.11 39.65 92.12C39.68 92.16 39.77 92.31 39.68 92.15C39.7 92.18 39.71 92.21 39.73 92.25C39.74 92.27 39.75 92.28 39.74 92.3C39.74 92.31 39.75 92.32 39.75 92.34C39.75 92.34 39.75 92.35 39.75 92.38C39.75 92.44 39.75 92.51 39.74 92.58Z" fill="#FFFFFF" fill-opacity="1.000000" fill-rule="nonzero"/>
		<path id="Vector" d="M65.9 96.91C65.65 96.81 65.37 96.79 65.11 96.82C65.04 96.46 64.77 96.14 64.42 96.06C63.88 95.93 63.39 96.22 63.22 96.74C62.79 98.03 62.81 99.52 63.3 100.79C63.57 101.46 63.9 102.17 64.58 102.5C65.37 102.9 66.23 102.58 66.8 101.95C67.61 101.03 67.9 99.66 67.45 98.51C67.16 97.77 66.66 97.19 65.9 96.91ZM65.72 99.54C65.71 99.51 65.7 99.48 65.71 99.46C65.71 99.46 65.71 99.47 65.72 99.48C65.71 99.5 65.72 99.52 65.72 99.54ZM65.26 98.74C65.27 98.74 65.28 98.75 65.28 98.75C65.29 98.76 65.3 98.76 65.31 98.76C65.29 98.76 65.27 98.75 65.26 98.74ZM65.62 99.15C65.65 99.22 65.65 99.2 65.63 99.17C65.64 99.22 65.65 99.26 65.65 99.27C65.65 99.25 65.63 99.24 65.62 99.22C65.61 99.2 65.61 99.19 65.6 99.17C65.59 99.16 65.59 99.14 65.59 99.13C65.58 99.11 65.57 99.09 65.57 99.07C65.57 99.09 65.58 99.1 65.59 99.11C65.59 99.1 65.59 99.09 65.59 99.09C65.6 99.09 65.61 99.11 65.62 99.15Z" fill="#FFFFFF" fill-opacity="1.000000" fill-rule="nonzero"/>
		<path id="Vector" d="M65.63 99.17C65.62 99.16 65.62 99.15 65.62 99.14C65.61 99.13 65.61 99.12 65.6 99.11C65.61 99.13 65.61 99.15 65.63 99.17Z" fill="#FFFFFF" fill-opacity="1.000000" fill-rule="nonzero"/>
		<path id="Vector" d="M78.06 92.34C77.92 92.26 77.78 92.23 77.63 92.22C77.44 92.15 77.2 92.12 77.01 92.18C76.81 92.25 76.62 92.38 76.49 92.55C76.26 92.68 76.04 92.83 75.83 93.01C75.62 93.19 75.44 93.42 75.28 93.66C75.09 93.92 75.03 94.22 74.99 94.54C74.95 94.92 75.09 95.3 75.34 95.58C75.65 95.94 76.2 96.05 76.64 95.91C77.2 95.74 77.7 95.28 77.97 94.76C78.12 94.47 78.22 94.16 78.26 93.85C78.32 93.79 78.37 93.73 78.41 93.66C78.53 93.45 78.58 93.15 78.51 92.91C78.43 92.68 78.29 92.45 78.06 92.34Z" fill="#FFFFFF" fill-opacity="1.000000" fill-rule="nonzero"/>
	</g>
</svg>
