<svg width="111" height="112" viewBox="0 0 111 112" fill="none" xmlns="http://www.w3.org/2000/svg">
<path fill-rule="evenodd" clip-rule="evenodd" d="M109.593 68.6217C109.339 67.8242 108.728 67.3965 108.416 66.6452C106.571 64.3451 104.749 62.0335 102.903 59.7449C102.177 58.3695 100.724 57.7222 100.343 56C99.7431 55.8498 99.7662 56.3352 99.1665 56.1965C98.0823 54.3819 96.5022 53.0873 95.2335 51.4692C93.7572 48.8108 91.9579 46.476 90.1125 44.1759C88.4402 41.714 86.1219 39.8993 84.5994 37.2756C84.5994 36.4896 84.5994 35.6921 84.5994 34.9061C83.6998 32.4558 83.0885 29.7164 81.8429 27.6128C79.7207 23.0473 77.5639 18.4933 74.9573 14.4017C73.827 12.1825 72.0624 10.599 71.0243 8.28733C69.9632 7.38578 68.9713 6.40333 68.0717 5.32841C66.9875 4.90075 66.0418 4.33439 65.1191 3.74492C63.02 3.77959 61.2899 2.53129 58.6256 2.56597C57.726 1.95338 56.3189 1.86091 55.4769 1.19053C54.0122 1.1443 53.4931 0.150283 51.9361 0.208075C51.4517 0.705082 51.2787 1.52572 50.9557 2.18455C50.875 3.71024 51.0941 4.93542 51.544 5.92944C51.717 7.20085 52.6973 7.66318 53.1125 8.69187C56.7341 11.0498 61.2899 12.4599 62.5586 17.1757C61.7859 18.1119 60.5056 18.528 59.2138 18.9557C52.4436 18.5742 47.6802 16.1817 41.9018 14.8178C41.0022 11.9744 39.5951 9.63965 38.361 7.1315C37.6459 6.01035 37.1499 4.65802 36.1926 3.77959C36.0081 2.93584 35.1661 2.18455 34.8201 1.80312C34.3934 1.34079 34.6241 0.473916 34.0359 0.219633C32.7556 -0.358282 31.9367 0.554824 30.8872 0.219633C30.5988 0.71664 29.6877 0.601057 29.5031 1.20209C29.1225 1.67598 28.1075 1.50261 28.1306 2.38104C27.8884 2.72779 28.2806 3.68713 28.1306 4.554C28.9149 6.53047 29.4109 8.7959 30.495 10.4719C30.4719 11.1654 31.4408 11.882 31.0832 12.2518C30.2067 11.7548 29.2378 11.3503 28.5228 10.6799C28.0499 9.05018 27.1964 7.47825 26.3544 6.14905C25.9623 5.51334 25.4548 4.76205 24.9819 4.18413C24.4514 3.52531 23.99 2.64688 23.0097 2.6122C22.3638 2.20766 21.4988 2.98207 20.6453 3.00519C20.3108 3.59466 19.9763 4.17257 19.6649 4.78516C19.3996 5.77918 20.2531 6.68073 19.6649 7.35111C16.7584 6.7154 14.5901 5.33996 11.0031 5.37464C10.6571 5.81385 9.78055 5.72139 9.43454 5.96411C9.05393 6.18372 9.06546 6.62294 8.85786 6.90033C8.58105 7.25864 8.20044 7.38578 8.07357 7.6863C7.72756 8.46071 7.75062 9.23511 7.66989 9.85926C6.03211 8.91148 3.4601 9.4316 1.77618 10.0558C0.841958 11.0267 0.149938 12.2403 0 13.9971C1.1303 16.2163 3.2871 17.4068 4.71727 19.3255C2.99875 19.7763 2.38747 21.3251 2.54894 23.6599C3.48317 25.8213 5.51309 26.8731 6.87407 28.5837C7.51995 28.9189 7.80829 29.624 8.44264 29.9707C8.78865 30.1441 9.05393 30.4099 9.22693 30.7567C9.34227 30.9301 10.288 31.2306 9.81515 31.3462C7.20854 31.1034 5.96291 32.2246 5.49003 34.1086C5.6169 35.4956 6.67799 35.9348 7.0586 37.0675C11.3261 40.1536 15.5243 43.309 20.6337 45.5513C20.9451 47.8052 22.0178 49.2846 22.606 51.2727C23.0673 53.4341 23.967 55.1678 24.3706 57.387C26.8734 62.3109 29.9068 66.6915 33.0324 70.9911C34.4857 71.9043 35.4545 73.2913 36.7693 74.3431C38.2802 74.6667 39.4913 75.2908 40.5062 76.123C41.4059 77.198 41.8441 78.7237 42.2824 80.2609C42.8476 80.9428 43.4012 81.7288 43.851 82.4339C44.1047 82.8269 44.2085 83.2776 44.4392 83.6128C44.7045 83.9942 45.1197 84.2254 45.4196 84.5953C45.558 84.7687 45.4888 84.9998 45.6157 85.1847C46.0309 85.7742 46.746 86.121 47.1842 86.5717C47.2534 86.6411 47.1266 86.8838 47.1842 86.9647C47.1958 86.9878 47.5533 87.1381 47.5764 87.1612C48.1531 87.6813 48.6029 88.109 49.145 88.5367C49.8831 89.496 50.9903 90.097 51.5094 91.2991C50.3214 92.6052 48.8797 93.657 47.5764 94.8475C46.2039 96.038 44.4161 96.8008 43.8395 98.7889C45.3619 101.274 46.7344 103.898 48.3607 106.279C50.2176 108.428 51.6708 110.983 54.658 112C56.9994 111.133 59.2946 110.208 61.1515 108.845C62.1088 108.22 63.0315 107.573 63.908 106.868C65.0845 106.406 65.8688 105.539 66.8607 104.892C69.6634 103.759 71.4511 101.598 73.3541 99.5633C75.3494 97.6099 77.2294 95.5641 79.0633 93.4489C79.986 94.1078 80.6434 95.0209 81.8198 95.4254C82.904 94.8706 83.6306 93.9459 84.9685 93.6454C85.9143 92.9519 86.837 92.2238 87.9211 91.6805C89.7089 90.1779 91.7042 88.895 93.4342 87.3462C96.9981 84.2832 100.735 81.3936 103.861 77.8799C104.749 77.7181 105.037 76.9552 105.833 76.701C106.709 75.6723 107.678 74.736 108.589 73.742C109.074 73.245 109.362 72.54 109.962 72.1701C110.1 71.3148 111.115 71.361 110.942 70.1936C110.792 69.3845 109.87 69.3268 109.593 68.6217Z" fill="white"/>
<path fill-rule="evenodd" clip-rule="evenodd" d="M84.2188 6.50736C84.0689 6.55359 83.9881 6.66917 84.0227 6.90034C85.1069 8.96928 86.2372 10.992 87.1714 13.2112C87.5405 14.4248 87.8404 15.6962 88.1518 16.9561C88.1864 17.7074 88.3248 18.3546 88.5439 18.9325C88.3824 19.4873 88.8207 19.4411 88.74 19.915C89.259 19.8456 88.5554 21.0246 89.3282 20.701C90.2855 20.1462 89.8011 18.1466 89.9164 16.7596C88.7746 12.8413 87.6443 8.92305 85.0031 6.50736C84.7147 6.27619 84.5071 6.27619 84.2188 6.50736Z" fill="white"/>
<path fill-rule="evenodd" clip-rule="evenodd" d="M92.0848 9.07319C91.7042 8.51839 91.2429 7.79022 90.5163 7.69775C90.3894 7.69775 90.251 7.69775 90.1241 7.69775C90.0665 7.96359 89.8473 8.07918 89.9281 8.48372C90.6893 10.1597 91.3006 11.9628 92.0964 13.604C92.1886 14.6905 92.5462 15.5112 92.6846 16.563C92.6615 17.1756 92.9268 17.4992 93.0767 17.9384C93.2497 18.4239 93.0306 19.3023 93.665 19.3139C94.7837 19.2561 94.6223 17.9153 94.8414 16.9444C94.8299 16.2971 94.5069 15.9619 94.6453 15.1644C93.6765 13.2342 93.169 10.6567 92.0848 9.07319Z" fill="white"/>
<path fill-rule="evenodd" clip-rule="evenodd" d="M80.678 10.645C80.701 11.1883 80.3435 11.038 80.678 11.431C81.5084 12.8411 82.4311 14.1356 83.2384 15.5689C83.4691 16.2161 83.8613 17.1639 84.2188 17.9383C84.5763 18.7012 84.807 20.0072 85.5913 19.7183C86.2833 15.3377 83.4114 12.8295 81.2662 10.645C81.0701 10.645 80.874 10.645 80.678 10.645Z" fill="white"/>
<path fill-rule="evenodd" clip-rule="evenodd" d="M15.5474 62.704C15.8703 63.0276 16.1471 62.7849 16.3317 62.704C16.5623 61.9758 15.755 61.2823 15.3513 60.531C14.9015 59.7104 14.6823 58.647 13.9788 58.1616C13.3329 56.3123 12.2718 54.879 11.8105 52.8448C11.2453 52.7523 11.3491 51.9894 10.8301 51.8623C10.8301 52.2553 10.2995 52.1166 10.438 52.6483C10.438 53.2377 10.438 53.8272 10.438 54.4283C10.8647 56.763 11.995 58.3812 12.9984 60.1496C13.6328 60.4386 13.9903 61.213 14.567 61.7331C14.8669 61.9989 15.2475 62.103 15.5474 62.3226C15.605 62.3572 15.4897 62.6462 15.5474 62.704Z" fill="white"/>
<path fill-rule="evenodd" clip-rule="evenodd" d="M7.0817 55.0177C7.05863 55.3297 6.58575 55.1679 6.68955 55.6071C6.80489 58.3233 7.94672 59.9993 9.05395 61.7215C9.5499 62.5999 10.0574 63.4784 10.8301 64.0909C11.5683 64.8076 11.9143 65.894 13.3906 65.8709C13.9904 64.7498 12.6525 64.0331 12.4103 63.1085C10.4611 60.8546 8.97322 58.15 7.69298 55.2142C7.42771 55.2026 7.40464 54.9599 7.0817 55.0177Z" fill="white"/>
<path fill-rule="evenodd" clip-rule="evenodd" d="M4.12907 57.9649C4.04833 58.3001 3.87533 57.9187 3.54085 57.9649C3.34478 58.2307 3.21791 58.5544 2.95264 58.7509C3.04491 59.3866 3.33325 59.8142 3.34478 60.5193C4.64809 62.438 5.91679 64.3797 7.47383 66.0441C8.31579 66.0557 8.13125 67.096 9.25002 66.8301C9.48069 66.0441 9.34229 65.9517 9.05395 65.6512C8.90401 65.4893 8.98474 65.2582 8.85787 65.0617C8.51186 64.5416 7.86598 64.137 7.47383 63.6747C6.60881 62.6576 5.93986 61.7098 5.3055 60.5193C4.93643 59.664 4.78649 58.5544 4.12907 57.9649Z" fill="white"/>
<path fill-rule="evenodd" clip-rule="evenodd" d="M34.8317 3.94165C36.6079 7.36291 38.1534 11.0038 40.1487 14.1939C39.2952 14.5175 37.9573 13.6391 36.6079 13.8009C35.6737 13.3617 34.3012 13.3501 33.2631 13.0149C32.3174 9.68613 30.6104 7.13174 29.7223 3.74516C29.976 2.55465 30.7373 1.87271 31.4985 1.17921C31.8214 1.49129 31.9368 1.0983 32.2828 1.17921C33.4592 1.44505 33.9897 3.12101 34.8317 3.94165Z" fill="#E31E25"/>
<path fill-rule="evenodd" clip-rule="evenodd" d="M54.9003 3.15545C55.7653 3.14389 56.0652 3.69869 56.8725 3.74493C56.6419 4.10323 56.3535 4.41531 56.0882 4.72738C55.0041 4.87764 55.1309 3.83739 54.9003 3.15545Z" fill="#E31E25"/>
<path fill-rule="evenodd" clip-rule="evenodd" d="M26.9542 9.85942C26.1007 10.2408 25.005 9.18904 24.0016 9.07345C23.1596 8.59956 22.2485 8.20658 21.245 7.89451C21.1297 6.81959 20.726 6.04518 20.8529 4.73909C21.1989 4.29987 22.0293 4.34611 22.4215 3.95312C24.6359 5.21298 25.4202 7.91762 26.9542 9.85942Z" fill="#E31E25"/>
<path fill-rule="evenodd" clip-rule="evenodd" d="M10.2304 7.88281C11.0724 8.41449 11.822 9.0502 12.7909 9.4663C12.6525 9.91707 12.6179 10.4719 12.3987 10.8533C11.4991 10.5643 10.8301 10.0442 9.83825 9.85928C9.74598 8.98085 9.97666 8.42605 10.2304 7.88281Z" fill="#E31E25"/>
<path fill-rule="evenodd" clip-rule="evenodd" d="M2.75661 11.2349C3.69083 11.8706 4.47512 12.6681 5.51315 13.2113C5.15561 13.7777 4.54432 14.0898 4.72886 15.1878C3.43709 14.8411 2.4798 14.1476 1.77625 13.2113C1.96078 12.4138 2.29526 11.7665 2.75661 11.2349Z" fill="#E31E25"/>
<path fill-rule="evenodd" clip-rule="evenodd" d="M8.85787 23.0706C8.52339 23.7179 7.71603 23.9028 7.87751 25.0471C6.51653 24.5039 5.13249 23.9837 4.33667 22.8741C4.52121 21.8108 4.98256 21.0248 5.90525 20.7012C6.51653 20.8861 6.68954 21.4871 7.08168 21.8801C7.8429 22.1113 8.09664 22.851 8.85787 23.0706Z" fill="#E31E25"/>
<path fill-rule="evenodd" clip-rule="evenodd" d="M8.07361 33.7158C8.26968 33.7158 8.46576 33.7158 8.66183 33.7158C9.33078 34.5943 11.626 34.7792 10.8302 36.4783C9.54992 36.3164 8.95017 35.4727 7.87754 35.1028C7.77374 34.4787 8.22355 34.3978 8.07361 33.7158Z" fill="#E31E25"/>
<path fill-rule="evenodd" clip-rule="evenodd" d="M20.0686 41.4021C20.3915 41.3674 20.3915 42.6157 20.0686 42.581C19.1689 42.581 20.3569 42.0262 20.0686 41.4021Z" fill="#E31E25"/>
<path fill-rule="evenodd" clip-rule="evenodd" d="M23.2173 46.3371C23.448 46.3024 23.5633 46.3833 23.6094 46.5336C30.1029 48.4407 34.751 52.1971 40.7254 54.6128C43.3897 56.1501 47.2765 56.4621 49.9754 57.9647C54.4043 59.0743 58.6372 60.9005 64.3348 60.1377C65.0038 61.9639 64.6923 64.7726 65.3152 66.645C65.7188 68.6677 66.3186 70.5055 67.2874 71.9734C68.6138 75.5102 70.9782 78.0068 71.2204 82.6186C68.5907 84.5257 65.2229 85.67 62.5586 87.5424C61.2438 88.4555 59.9405 89.3918 58.6256 90.3049C57.2185 91.1371 56.2958 92.4316 54.4966 92.8708C54.1736 91.8075 53.7354 90.8712 53.1241 90.1084C51.3594 87.8661 49.341 85.878 47.0228 84.1905C46.6191 83.3468 46.0424 82.6764 45.4542 82.0176C44.3008 78.9662 42.9168 76.1459 40.933 73.9383C39.226 73.1523 37.6344 72.2508 36.0197 71.3724C34.3473 69.6271 32.9056 67.6506 31.4985 65.651C29.976 63.7554 28.8803 61.4438 27.3694 59.5367C26.0661 55.3179 24.3822 51.4805 23.4364 46.915C23.1827 46.8919 23.2519 46.5682 23.2173 46.3371ZM36.9885 67.038C36.5041 66.5525 36.1119 66.0093 35.616 65.4545C34.8317 64.5761 34.082 63.6861 33.4476 62.8886C32.7095 61.9523 32.0521 61.097 31.4754 60.1261C30.472 59.0281 29.7223 57.6758 28.9149 56.3812C28.7419 56.0345 28.442 55.8033 28.3267 55.3988C28.3267 54.8787 27.6001 54.7168 28.1306 55.2023C28.1652 56.2194 28.8457 56.5893 28.9149 57.5717C30.3451 60.2879 31.7291 63.0273 33.8283 65.0615C34.5664 66.4254 35.8928 67.1998 36.7809 68.4134C38.0726 69.2225 38.9492 70.4361 40.7139 70.7829C39.9065 69.1185 38.2341 68.2863 36.9885 67.038ZM56.861 67.6275C53.0087 67.3847 51.0365 69.026 48.799 70.3899C48.1415 71.1874 47.6341 72.1121 46.8267 72.7594C46.0655 73.3142 44.8775 73.4413 43.4819 73.3488C43.7241 74.678 45.8117 74.3197 47.0228 74.1348C47.438 73.8227 47.8186 73.4875 48.3953 73.3488C49.4794 71.6151 51.1749 70.4708 53.3086 69.8004C53.7815 70.1241 54.4505 70.2397 55.0848 70.3899C56.0652 70.3899 57.0571 70.3899 58.0374 70.3899C58.2912 70.1241 58.8909 70.1934 59.4099 70.1934C60.0212 69.6271 61.3245 69.7542 61.3822 68.6099C60.1942 67.9858 58.0605 68.2747 56.861 67.6275Z" fill="#E31E25"/>
<path fill-rule="evenodd" clip-rule="evenodd" d="M99.9507 58.959C100.447 59.2595 100.643 59.849 100.931 60.3344C99.2472 63.7672 96.5829 66.2292 94.4376 69.2112C91.2659 71.6847 88.2902 74.3547 85.1876 76.8975C83.4922 78.0186 81.6929 79.0473 80.0782 80.2494C78.7288 81.0007 77.5293 81.9022 76.3413 82.8153C75.9261 83.2546 75.5686 83.2546 75.1649 82.8153C74.6113 81.4861 76.5489 81.0931 77.1371 80.2494C79.836 78.1573 82.9271 76.4583 85.6029 74.3315C89.0168 71.3726 92.1078 68.1016 95.6371 65.2583C97.0212 63.2934 98.4514 61.3747 99.9623 59.5369C99.9507 59.352 99.9507 59.1555 99.9507 58.959Z" fill="#E31E25"/>
<path fill-rule="evenodd" clip-rule="evenodd" d="M109.005 69.9974C108.313 70.3557 108.186 71.2688 107.425 71.5693C106.894 72.0894 106.006 72.2512 105.452 72.7482C104.334 73.7307 103.053 74.5513 102.108 75.7072C99.8239 77.5565 97.4711 79.348 95.4181 81.4285C94.0456 82.1567 93.2267 83.4397 91.8772 84.191C90.9546 85.3006 89.7204 86.0981 88.7285 87.1499C86.4103 88.9645 84.7379 91.4265 82.2351 93.0677C81.1971 91.542 79.8938 90.2822 79.0864 88.5369C78.429 87.8781 77.91 87.0921 77.5063 86.1674C76.9411 85.4855 76.3414 84.8382 76.1338 83.798C80.7934 80.6426 85.8567 77.9032 89.905 74.1352C92.0272 72.3206 94.2301 70.5868 96.2024 68.6104C96.9059 67.3505 98.0593 66.5299 98.9589 65.4549C99.8816 64.4725 100.493 63.1895 101.519 62.2995C101.462 61.9759 101.704 61.9643 101.715 61.7101C102.038 61.6523 102.05 61.895 102.304 61.9065C103.157 63.5478 104.599 64.5996 105.452 66.2409C106.271 66.6686 106.606 67.5701 107.229 68.2174C107.817 68.83 108.659 69.1652 109.005 69.9974ZM84.2189 88.5369C84.3112 84.9654 82.5926 83.1969 79.8938 82.4225C79.1902 82.5728 78.6481 82.8733 78.5213 83.6015C78.5328 85.0463 79.4785 85.5317 79.6977 86.7569C80.7127 87.5775 81.2086 88.9183 82.0621 89.9123C83.4692 90.155 83.7691 89.2651 84.2189 88.5369Z" fill="#E31E25"/>
<path fill-rule="evenodd" clip-rule="evenodd" d="M79.2939 75.1289C79.5476 75.1983 79.6053 75.4757 79.8821 75.5219C79.7899 76.1576 79.1209 76.2038 78.7057 76.5043C78.3597 76.8742 77.8753 77.1169 77.5293 77.4868C76.6527 77.9838 75.8569 78.5733 75.1648 79.2552C74.6112 78.7467 75.8799 78.3999 75.9491 77.8798C76.422 77.5677 76.8142 77.1747 77.1256 76.7008C77.9675 76.6199 78.0944 75.834 78.9018 75.7184C78.971 75.4525 79.2478 75.4063 79.2939 75.1289Z" fill="#E31E25"/>
<path fill-rule="evenodd" clip-rule="evenodd" d="M79.686 83.9941C81.2661 84.2484 81.8659 85.4967 82.2465 86.9531C81.0816 86.2827 80.2973 85.2193 79.686 83.9941Z" fill="#E31E25"/>
<path fill-rule="evenodd" clip-rule="evenodd" d="M72.9966 84.5951C72.9966 85.7163 71.9355 85.7625 71.6241 86.5716C70.8168 86.8837 70.4131 87.6003 69.6519 87.947C68.4524 88.9179 67.2875 89.912 65.9149 90.7095C64.7154 91.6804 63.193 92.3276 61.982 93.2754C60.7594 94.2116 59.0063 94.6393 57.8529 95.6449C59.2139 96.0841 60.6671 94.9167 61.7859 94.4659C62.9739 93.8187 64.0811 93.0789 65.3267 92.4894C67.5758 91.1256 69.548 89.4958 71.6241 87.9586C72.5583 87.45 72.8928 86.3404 73.9885 85.9821C75.015 87.843 76.4798 89.2762 77.5293 91.114C77.068 92.6859 75.5456 93.2061 74.7728 94.4659C71.9355 96.0263 69.9979 98.4882 67.4951 100.384C65.3267 102.615 62.8239 104.51 60.8055 106.891C58.5911 108.024 56.8033 109.584 54.5081 110.636C54.1275 109.758 53.5278 109.006 52.9396 108.267C51.2787 106.209 49.2603 104.129 48.0262 101.366C48.5337 101.274 48.9259 101.089 49.2027 100.777C49.4449 102.175 50.2638 102.996 50.9788 103.932C51.6017 104.961 52.559 105.643 53.1472 106.695C53.9776 106.914 54.1852 107.746 55.5116 107.481C55.9729 107.423 55.9499 106.868 56.2959 106.695C56.2151 105.134 55.7769 103.921 55.1194 102.95C54.612 102.279 54.0237 101.678 53.3432 101.17C53.2164 100.707 52.6858 100.638 52.559 100.187C52.2821 99.8752 51.5325 100.037 51.5786 99.4013C52.7435 98.8581 53.8853 98.2917 54.7273 97.4248C53.2625 97.0087 51.8439 98.3495 50.5982 98.8118C49.4103 99.2164 48.1531 101.147 46.8613 100.187C46.8844 99.0315 48.3838 99.3435 48.8336 98.6038C49.8716 98.4651 50.4252 97.8294 51.3941 97.6213C52.905 96.766 54.4851 95.9801 55.5231 94.6624C57.6914 94.0614 59.3408 92.8015 61.0362 91.507C61.1977 91.3798 61.4399 91.4376 61.6244 91.3105C61.9128 91.114 62.1319 90.7095 62.4087 90.5245C62.6971 90.3396 63.1007 90.3165 63.3891 90.1316C65.8688 88.5827 68.2909 86.9068 71.0705 85.6007C71.5318 85.5429 71.4396 84.9188 72.0509 85.0112C72.1201 84.7569 72.3969 84.6992 72.443 84.4218C72.7313 84.3408 72.7429 84.5836 72.9966 84.5951Z" fill="#E31E25"/>
<path fill-rule="evenodd" clip-rule="evenodd" d="M53.1241 93.6568C52.5359 94.9745 50.875 95.2172 49.9754 96.2228C48.7759 96.8585 47.9339 97.8641 46.4346 98.1993C48.453 96.6042 50.4944 95.0323 52.5359 93.4719C52.8588 93.4026 52.8704 93.6453 53.1241 93.6568Z" fill="#E31E25"/>
<path fill-rule="evenodd" clip-rule="evenodd" d="M51.1633 102.141C51.9015 101.736 52.3859 103.273 53.1356 103.516C53.101 104.013 53.4355 104.129 53.7238 104.302C52.9164 104.649 52.3744 103.031 51.5555 102.73C51.5555 102.395 51.4055 102.222 51.1633 102.141Z" fill="#E31E25"/>
<path fill-rule="evenodd" clip-rule="evenodd" d="M37.5882 24.0528C37.5536 22.897 36.827 22.4578 35.4199 22.6658C34.6356 21.8799 33.4015 21.8567 32.2712 21.4869C31.2562 21.1517 30.2297 20.6662 29.3186 20.3079C27.2079 19.6607 25.7893 18.3314 23.6094 17.742C21.764 16.7364 19.7341 16.1007 17.9002 15.176C16.0664 14.2514 14.3709 13.1187 12.3871 12.4136C12.6293 12.1246 13.1368 12.1131 13.3675 11.8241C13.206 10.4024 14.3825 10.3331 14.567 9.26974C14.5324 8.4491 13.552 8.57624 13.1945 8.09079C12.9062 7.59378 12.3064 7.39729 11.822 7.10833C14.7515 6.73847 17.2774 8.47221 19.4919 9.47779C21.8563 10.518 24.163 11.6276 26.7696 12.4367C26.5274 12.98 25.7662 13.0031 25.3856 13.4192C24.8896 14.5866 23.7939 16.1238 24.4052 17.7535C25.697 17.6611 25.697 16.2856 26.1814 15.3841C26.8158 14.7021 27.1156 13.6966 27.5539 12.8181C29.653 13.9971 32.548 14.3901 35.0277 15.1876C40.1717 16.5977 45.1427 18.2043 50.183 19.7184C52.9626 20.2155 55.9037 20.5506 58.245 21.4984C62.0742 21.0592 64.3463 19.0712 65.1306 15.5806C64.7038 14.5634 63.5966 14.2283 63.3544 13.0146C61.6936 11.6507 60.5171 9.82453 57.8413 9.46623C56.6649 8.20637 55.0848 7.36262 53.9083 6.11432C53.5162 4.93537 52.755 4.11473 52.7319 2.56592C53.2394 3.17851 53.2971 3.89512 53.7123 4.54239C54.3005 5.44394 55.1309 5.96406 55.8806 6.71535C57.0224 6.35704 57.5645 5.38614 58.0489 4.3459C59.8943 4.60018 61.1515 5.44394 63.3659 5.32835C64.2886 5.33991 63.1353 5.77913 63.1699 6.11432C62.7662 6.31081 62.7431 6.87717 62.7777 7.50131C63.9657 8.07923 64.4847 5.47861 65.9264 6.32237C65.6496 7.16612 64.4155 7.03898 64.3463 8.10235C65.2459 8.6687 66.2724 7.67469 66.9068 7.31638C70.2285 10.2291 72.3968 14.2976 74.5767 18.3546C76.7681 22.4115 78.6711 26.7343 81.2662 30.3868C81.9813 32.2477 82.3734 34.9639 82.4426 36.8941C82.3619 37.4951 82.9616 37.8072 83.2269 38.2695C83.4691 38.6856 83.5383 39.2289 83.8151 39.645C84.0919 40.0611 84.4725 40.3847 84.7955 40.8239C85.0723 41.1938 85.3145 41.6561 85.5798 42.0029C86.4448 43.1356 87.4367 44.1643 88.3363 45.3548C89.1437 46.4297 90.0548 47.678 90.8968 48.9032C91.0583 49.1343 91.139 49.4695 91.2889 49.6891C91.3351 49.7585 91.6465 49.8163 91.6811 49.8856C91.7272 49.9897 91.6234 50.1861 91.6811 50.2786C91.7272 50.348 92.0502 50.4058 92.0732 50.4751C92.1194 50.5791 92.0156 50.7756 92.0732 50.8681C92.1194 50.9374 92.4423 50.9952 92.4654 51.0646C92.5115 51.1686 92.4077 51.3651 92.4654 51.4576C92.7306 51.8621 93.192 52.2551 93.4457 52.6365C94.1724 53.7114 94.8759 55.0175 95.8101 56.1849C96.2484 57.0518 97.298 57.3176 97.5863 58.3579C96.3638 59.6293 95.3142 61.0741 94.2416 62.4957C93.6418 62.75 93.2035 63.1661 92.673 63.4782C91.5427 64.1833 91.0121 65.5009 89.7204 66.0441C89.3859 67.0266 88.4171 67.5467 87.7481 68.2171C85.8912 70.078 83.8728 72.1585 81.8429 74.135C80.7241 73.8807 80.6088 72.6093 79.4785 72.355C78.9018 71.6152 78.2444 70.9564 77.5062 70.3785C74.8535 66.6567 71.8201 63.3279 69.6403 59.1438C69.0059 59.0629 68.856 58.485 68.4638 58.1614C65.4074 57.5488 61.3591 57.9187 58.0374 57.5719C57.9105 57.1674 57.1147 57.4448 57.057 56.9824C53.5623 56.5085 50.2176 55.6879 47.0227 54.8095C45.4196 54.3702 43.7702 53.9888 42.3055 53.434C40.8868 52.8908 39.7104 51.9892 38.3725 51.4576C34.0128 47.7473 27.9345 45.7478 22.0408 43.5748C21.6487 42.2109 22.11 41.1822 22.0408 39.6334C21.4872 39.1711 20.8644 39.9108 20.6568 40.4194C20.1262 40.2344 20.8413 38.7897 20.0686 38.8359C18.7537 38.963 19.2151 40.8701 18.5 41.5983C17.9579 41.9451 17.2428 41.1013 16.5277 41.0088C15.9626 40.6505 15.2129 40.4887 14.7515 40.0264C13.4944 39.4485 12.3641 38.7434 11.4068 37.8534C11.649 36.7785 12.2026 36.0272 12.7908 35.2875C12.2603 34.5593 11.2684 34.305 10.6225 33.704C10.7724 33.3688 11.5798 34.0507 12.0065 34.097C12.514 34.2472 13.1253 34.2935 13.379 34.6865C14.4517 34.9176 15.0629 35.6342 16.1356 35.8654C17.9002 36.7207 19.8148 37.4373 21.4411 38.4313C22.087 38.4429 22.4214 38.7665 23.2172 38.6278C25.0511 39.8761 28.269 39.749 30.495 40.6043C30.495 40.8008 30.7372 40.7546 30.8871 40.8008C31.7868 41.8642 32.7671 42.8582 33.8398 43.7597C34.3357 43.5979 34.3472 42.9506 34.624 42.5808C34.7048 41.841 34.2319 41.6561 34.0358 41.2053C31.6599 38.9168 27.6577 38.2695 24.1976 37.0675C20.3108 36.3624 17.831 34.2472 14.5555 32.9296C11.9835 30.8375 9.59599 28.5721 6.88558 26.6188C7.22005 26.0408 7.60067 27.0695 8.25808 26.8152C8.80017 26.6303 8.7079 25.8212 8.8463 25.2318C9.41145 24.8157 9.60752 24.0297 10.4149 23.8563C9.91893 22.9085 9.20385 22.1804 8.24655 21.6834C9.01931 20.9205 9.29611 22.3306 10.0227 22.2728C10.288 22.9317 11.1761 22.9548 11.3952 23.6483C12.5947 24.2262 13.4713 25.1162 14.5439 25.8212C16.7699 27.2082 18.9383 28.6415 21.6256 29.5661C21.1643 30.5486 20.9797 31.8084 20.8413 33.1145C20.1493 32.4095 21.3142 31.0687 20.6452 30.3521C19.365 30.5139 19.711 32.317 19.6649 33.704C19.9071 34.0507 20.8067 33.7387 20.4492 34.6865C22.3522 34.2819 22.3176 31.9587 22.4214 29.7626C25.5355 30.7913 28.0729 32.3864 31.6714 32.918C32.548 33.5537 33.0901 34.5131 34.2319 34.8945C35.5813 33.8774 33.5168 32.3864 32.6633 31.7391C32.2712 31.7391 31.879 31.7391 31.4869 31.7391C29.6184 30.722 27.404 30.0516 25.1895 29.3696C23.4941 28.2369 21.3719 27.5434 19.6764 26.4107C20.0801 24.9775 21.1412 24.2031 21.0489 22.2728C19.4803 22.608 19.1228 24.1568 18.8806 25.8212C18.6269 25.6016 17.4158 25.3358 17.9002 25.0353C18.2347 24.6538 18.2462 23.9372 18.4884 23.4518C18.6038 22.4 19.5957 21.3366 19.2727 20.4929C18.1655 20.4351 18.1886 21.51 17.4966 21.8799C17.4389 22.9317 16.7123 23.3246 16.9083 24.6423C12.8139 21.9145 8.54643 19.3601 4.50964 16.563C4.69418 16.0313 5.12093 16.8404 5.68608 16.563C6.5857 15.8233 5.98595 13.581 6.86251 12.8181C6.49343 12.1362 5.65148 11.9281 5.08633 11.4311C4.70572 11.2924 5.29393 11.1306 5.2824 11.4311C5.54767 11.4311 5.80141 11.4311 6.06669 11.4311C6.52804 11.4889 6.80484 11.7432 7.43919 11.6276C9.11158 12.7141 10.9454 13.6272 12.5601 14.783C14.5209 15.5112 15.8818 16.852 18.2693 17.1525C20.8528 18.5048 23.3787 19.7531 25.9392 21.0939C28.4651 22.4231 31.3254 23.3246 34.601 23.8563C35.1315 24.6307 36.8385 24.5729 37.5882 24.0528ZM15.9395 9.46623C15.8472 10.0904 16.297 10.1597 16.1356 10.8532C15.7434 10.7954 15.7434 11.1191 15.5474 11.2462C15.6627 11.8588 15.4897 12.7488 16.1356 12.8297C17.0121 12.298 17.2313 9.80142 16.5277 8.88831C16.6661 9.39688 16.124 9.25818 15.9395 9.46623ZM27.75 13.8006C27.0349 14.864 26.1237 15.7193 25.9738 17.349C26.7466 17.5339 27.1964 16.5052 27.3463 16.17C27.3809 16.1007 27.6923 16.0545 27.7384 15.9736C28.1883 15.1876 28.1306 14.6675 28.3267 13.8006C28.1421 13.8006 27.9345 13.8006 27.75 13.8006ZM44.8659 22.4809C45.7079 23.2091 46.7459 23.7523 47.8186 24.2493C48.7297 24.6885 50.0215 25.671 51.1633 25.2318C50.9903 23.6945 49.5717 23.4055 48.6028 22.6658C47.2419 22.3191 46.4807 21.3713 44.8659 21.2904C44.7391 21.2904 44.6007 21.2904 44.4738 21.2904C44.2547 22.0301 44.9582 21.8567 44.8659 22.4809ZM21.4411 26.6188C22.9289 26.5263 22.6406 24.6654 23.0212 23.4633C22.7674 23.4518 22.7444 23.2091 22.433 23.2668C21.9831 24.2377 20.8874 25.2549 21.4411 26.6188ZM19.2843 34.698C19.2843 33.1261 19.2843 31.5426 19.2843 29.9707C19.0305 29.9591 19.0075 29.7164 18.6961 29.7742C17.7157 30.7451 17.3235 34.5015 19.2843 34.698ZM47.4149 32.9296C45.731 32.1899 44.024 31.4617 42.0979 30.9531C41.8326 30.9416 41.6711 31.0456 41.5096 31.1496C41.5096 31.3461 41.5096 31.5426 41.5096 31.7391C42.2593 32.6984 43.4704 33.1954 44.8544 33.5191C45.8002 34.0623 47.6802 34.7096 48.7874 33.912C48.7182 33.207 47.8186 33.311 47.4149 32.9296ZM40.1371 40.4194C40.1256 40.6852 40.2294 40.847 40.3332 41.0088C42.0863 41.4134 43.9894 43.3552 45.8463 42.3843C44.6699 41.1244 42.2132 40.142 40.1371 40.4194ZM40.5293 48.9032C42.0402 49.851 45.4196 50.2439 47.4149 49.4926C47.2649 48.2675 45.6041 48.5449 44.2662 48.5102C43.2282 48.2328 42.2247 47.9207 40.9214 47.9207C40.7946 47.9207 40.6562 47.9207 40.5293 47.9207C40.5293 48.2443 40.5293 48.568 40.5293 48.9032ZM80.874 50.4751C80.6203 50.4635 80.5972 50.2208 80.2858 50.2786C79.5477 51.053 78.9479 51.9661 78.1175 52.6481C78.1867 53.7114 77.1487 54.0235 77.5293 54.821C79.8245 54.5089 81.4969 52.544 80.874 50.4751ZM70.24 56.393C68.6253 55.9191 66.7107 55.5839 64.7269 55.607C64.1156 55.6417 64.058 56.2543 63.3544 56.1965C59.8366 56.0462 56.6995 55.503 53.5162 55.0175C53.2278 54.717 52.5128 54.8441 51.9476 54.821C51.913 54.5321 51.4747 54.6361 51.1633 54.6245C50.3444 54.8095 51.1172 54.0351 51.1633 54.6245C55.8575 57.0171 63.1929 56.7628 69.6633 57.387C70.9782 58.0458 72.5352 58.4619 74.1961 58.774C73.5156 57.3176 71.8086 56.8553 70.24 56.393Z" fill="#E31E25"/>
<path fill-rule="evenodd" clip-rule="evenodd" d="M66.307 60.3342C66.7453 59.9759 67.5757 60.889 68.2793 60.9236C70.2285 62.7845 71.1165 65.7088 72.8005 67.8239C73.5271 69.0029 74.4036 70.0316 75.3609 70.9794C76.2606 71.8809 77.5062 72.5744 77.9214 73.9383C75.903 75.1981 73.7462 76.3193 72.6044 78.4691C72.0854 77.9953 72.1084 76.9897 71.8201 76.2962C71.0358 74.7127 70.2285 73.1523 69.2596 71.7653C68.8559 69.3381 68.0255 67.35 67.2874 65.258C67.2989 63.2815 66.8837 61.7327 66.307 60.3342Z" fill="#E31E25"/>
</svg>
