<svg width="57" height="53" viewBox="0 0 57 53" fill="none" xmlns="http://www.w3.org/2000/svg">
<path d="M3.43337 6.12314C2.20401 14.6131 1.33447 23.1931 1.00464 31.7631C0.824732 36.4231 0.624836 41.4531 1.87418 45.9931C2.68376 48.9331 4.80266 49.5731 7.54123 50.2231C18.0058 52.6831 29.3599 53.0031 40.0543 52.7131C44.2421 52.6031 48.9097 52.5031 52.8676 50.9731C55.6262 49.9131 55.8061 48.4631 56.046 45.7431C56.7656 37.3931 57.0254 28.9531 56.5057 20.5831C56.1659 15.2231 55.956 5.10314 50.209 2.29314C47.3805 0.913143 42.8528 1.17314 39.7844 0.863143C34.817 0.363143 29.8196 0.0631429 24.8222 0.0231429C18.6854 -0.0268571 7.05149 -0.446857 3.48335 5.97314C3.05357 6.73314 4.61276 6.74314 4.94259 6.15314C7.68116 1.24314 16.5865 1.36314 21.364 1.19314C28.2904 0.943143 35.2568 1.52314 42.1332 2.28314C44.362 2.53314 46.8308 2.59314 48.9896 3.20314C50.9986 3.77314 52.078 6.27314 52.7477 8.02314C54.7866 13.3731 54.9865 19.5331 55.1564 25.1831C55.3363 30.9331 55.1264 36.6931 54.7566 42.4231C54.5467 45.6831 55.2564 49.1031 51.6582 50.2331C46.9407 51.7131 41.5635 51.6131 36.676 51.6331C30.4193 51.6631 24.1626 51.2931 17.9458 50.6331C13.8879 50.2031 8.44076 50.0931 4.80266 47.9731C1.57434 46.1031 2.46388 37.3931 2.49386 34.4531C2.59381 24.9531 3.63327 15.3931 4.99256 6.00314C5.1025 5.22314 3.53332 5.42314 3.43337 6.12314Z" fill="white"/>
</svg>
