<svg width="46.000000" height="23.000000" viewBox="0 0 46 23" fill="none" xmlns="http://www.w3.org/2000/svg" xmlns:xlink="http://www.w3.org/1999/xlink">
	<desc>
			Created with Pixso.
	</desc>
	<defs>
		<clipPath id="clip2391_146">
			<rect id="глаз" rx="0.000000" width="45.000000" height="22.000000" transform="translate(0.500000 0.500000)" fill="white" fill-opacity="0"/>
		</clipPath>
	</defs>
	<rect id="глаз" rx="0.000000" width="45.000000" height="22.000000" transform="translate(0.500000 0.500000)" fill="#FFFFFF" fill-opacity="0"/>
	<g clip-path="url(#clip2391_146)">
		<path id="Vector" d="M23.23 1.42C23.23 0.89 23.13 0.19 23.76 0C23.86 0.03 24.1 0.09 24.2 0.13C24.63 0.99 24.23 2.02 24.37 2.94C24.63 3.24 24.97 3.44 25.37 3.47C27.51 3.67 29.65 4.14 31.65 4.87C31.95 5 32.32 4.8 32.49 4.57C32.89 3.81 33.12 3.01 33.49 2.25C33.73 1.75 34.56 1.95 34.53 2.51C34.29 3.38 33.86 4.2 33.53 5.03C33.69 5.43 33.89 5.86 34.29 6.06C37.27 7.62 39.94 9.94 41.62 12.85C41.75 12.99 41.78 13.25 42.02 13.29C42.38 13.25 42.69 12.99 42.92 12.72C43.59 11.93 44.29 11.1 44.99 10.33C45.26 10 45.89 10.1 45.96 10.57C46.06 10.87 45.79 11.1 45.66 11.3C44.72 12.39 43.76 13.48 42.82 14.58C42.75 15.31 43.12 15.97 43.09 16.66C41.45 18.79 39.04 20.21 36.53 21.17C32.86 22.56 28.91 23 25 22.96C18.95 22.86 12.93 21.54 7.52 18.89C6.25 18.26 4.98 17.56 3.84 16.73C3.54 16.57 3.4 16.2 3.51 15.87C3.64 15.24 3.61 14.58 3.67 13.95C2.54 12.52 1.33 11.13 0.2 9.7C-0.07 9.44 0 8.88 0.4 8.78C0.7 8.64 1 8.84 1.16 9.08C2.2 10.3 3.2 11.56 4.24 12.79C4.51 12.72 4.81 12.62 4.94 12.36C6.41 9.94 8.52 7.95 10.96 6.52C11.33 6.33 11.5 5.89 11.5 5.53C11.19 4.87 10.79 4.3 10.46 3.67C10.53 3.24 10.99 2.85 11.39 3.18C11.9 3.74 12.13 4.47 12.6 5.07C13.13 5.4 13.8 5.13 14.34 4.93C17.04 3.87 19.95 3.44 22.83 3.34C23.33 2.81 23.2 2.05 23.23 1.42ZM18.38 4.93C16.88 5.23 15.37 5.66 13.97 6.29C13.57 6.82 13.9 7.62 14.34 8.05C15.04 8.18 15.71 7.95 16.38 7.78C18.25 7.35 20.15 7.05 22.06 7.05C22.43 7.05 22.89 7.05 23.06 6.66C23.13 6.13 23.13 5.6 23.13 5.07C22.89 4.7 22.46 4.5 22.03 4.5C20.82 4.54 19.59 4.7 18.38 4.93ZM24.3 4.8C24.3 5.43 24.27 6.06 24.27 6.66C24.6 6.89 24.97 7.15 25.44 7.19C26.97 7.35 28.48 7.65 29.95 8.05C30.28 8.18 30.65 8.11 30.98 8.02C31.25 7.49 31.62 6.92 31.52 6.29C31.52 5.96 31.12 5.86 30.88 5.76C28.98 5.1 26.97 4.67 24.97 4.54C24.7 4.5 24.5 4.67 24.3 4.8ZM11.63 7.42C9.79 8.48 8.15 9.87 6.85 11.53C6.68 11.69 6.68 11.93 6.78 12.12C7.12 12.29 7.35 11.96 7.62 11.83C8.85 10.9 10.22 10.1 11.63 9.44C12.23 9.14 12.6 8.55 12.7 7.92C12.7 7.39 12.03 7.02 11.63 7.42ZM17.81 8.64C17.21 8.81 16.74 9.34 16.61 9.94C15.94 12.39 16.04 14.97 16.61 17.43C16.91 18.59 17.28 19.78 18.05 20.74C18.38 21.24 19.05 21.3 19.59 21.44C22.09 21.8 24.67 21.93 27.21 21.83C27.84 21.87 28.41 21.4 28.75 20.91C30.08 18.95 30.58 16.57 30.55 14.25C30.48 12.59 30.18 10.9 29.25 9.51C28.98 9.08 28.51 8.91 28.04 8.78C24.73 8.05 21.19 7.98 17.81 8.64ZM32.66 7.25C32.42 7.58 32.32 7.98 32.12 8.35C32.42 9.08 33.26 9.21 33.89 9.54C36.13 10.57 38.21 11.93 40.04 13.52C40.51 13.48 40.18 12.85 40.08 12.59C38.54 10.2 36.27 8.38 33.76 7.05C33.43 6.82 32.96 6.99 32.66 7.25ZM14.34 9.57C11.13 10.7 8.15 12.49 5.81 14.91C5.28 15.37 5.14 16.3 5.81 16.7C8.49 18.36 11.46 19.52 14.47 20.34C14.87 20.44 15.27 20.58 15.71 20.58C16.07 20.58 16.38 20.14 16.18 19.81C15.04 16.9 14.8 13.68 15.24 10.63C15.34 10.14 15.01 9.21 14.34 9.57ZM31.32 10.1C31.09 10.2 30.98 10.47 31.12 10.7C32.12 13.82 31.82 17.33 30.45 20.31C30.32 20.61 30.18 21.01 30.52 21.21C31.09 21.44 31.72 21.37 32.32 21.24C35.06 20.67 37.77 19.71 40.01 18.09C40.48 17.73 41.05 17.36 41.15 16.73C41.08 16.23 40.75 15.84 40.38 15.47C38.24 13.32 35.7 11.56 32.89 10.37C32.42 10.17 31.85 9.77 31.32 10.1Z" fill="#FFFFFF" fill-opacity="1.000000" fill-rule="nonzero"/>
		<path id="Vector" d="M21.72 11C22.83 10.53 24.13 10.6 25.2 11.2C26.67 11.96 27.54 13.65 27.34 15.27C27.17 17.1 25.57 18.65 23.73 18.79C21.79 19.02 19.89 17.66 19.38 15.8C18.75 13.91 19.89 11.69 21.72 11Z" fill="#FFFFFF" fill-opacity="1.000000" fill-rule="nonzero"/>
	</g>
</svg>
