<svg width="38" height="38" viewBox="0 0 38 38" fill="none" xmlns="http://www.w3.org/2000/svg">
<g clip-path="url(#clip0_2183_752)">
<rect width="38" height="38" rx="19" fill="#E31E25"/>
<g clip-path="url(#clip1_2183_752)">
<path d="M13.1848 18.9856C14.702 16.5113 16.2121 14.0321 17.7293 11.5579C18.0991 10.9563 19.1493 10.7493 19.5997 11.3971C21.2947 13.83 22.992 16.2605 24.6894 18.6909C24.8814 18.9637 25.0142 19.217 24.9999 19.5676C24.9881 19.8672 24.8435 20.2154 24.6159 20.4127C24.1726 20.795 23.3263 20.89 22.9422 20.3372C21.8944 18.837 20.849 17.3369 19.8012 15.8367C19.8154 17.5098 19.8344 19.1829 19.8534 20.8559C19.896 24.4237 19.9434 27.989 19.9932 31.5568C20.0477 35.5483 20.1023 39.5373 20.1568 43.5288C20.2066 47.1964 20.2564 50.8665 20.3014 54.5341C20.3322 57.0936 20.3654 59.6531 20.382 62.2151C20.3844 62.4221 20.3844 62.6291 20.3844 62.8336C20.3867 63.4717 19.7656 64.0537 19.1469 63.9953C18.4808 63.9344 18.0185 63.4084 18.0161 62.7241C18.0067 60.3326 17.9758 57.9411 17.9474 55.5496C17.9047 51.9818 17.8573 48.4165 17.8075 44.8488C17.753 40.8573 17.6985 36.8682 17.6439 32.8767C17.5942 29.2091 17.5444 25.5391 17.4993 21.8715C17.478 20.1156 17.4567 18.3622 17.4401 16.6063C16.6862 17.8386 15.9324 19.0733 15.1761 20.3055C14.8466 20.8438 14.0549 21.0459 13.5381 20.6684C13.0094 20.2836 12.8316 19.5628 13.1848 18.9856Z" fill="white"/>
</g>
</g>
<defs>
<clipPath id="clip0_2183_752">
<rect width="38" height="38" rx="19" fill="white"/>
</clipPath>
<clipPath id="clip1_2183_752">
<rect width="12" height="53" fill="white" transform="matrix(-1 0 0 1 25 11)"/>
</clipPath>
</defs>
</svg>
