<svg width="18" height="18" viewBox="0 0 18 18" fill="none" xmlns="http://www.w3.org/2000/svg">
<path d="M17.3311 0.773427C16.7064 0.427957 15.8832 0.595621 15.4922 1.14806C12.9086 4.80084 9.39575 10.245 7.09169 14.5383L3.36986 10.3017C2.91794 9.78701 2.07967 9.69383 1.49766 10.0938C0.915639 10.4935 0.810632 11.2351 1.26256 11.7495L6.33801 17.5271C6.59246 17.8168 6.98274 17.9832 7.39166 17.9832C7.44721 17.9832 7.50347 17.98 7.55974 17.9737C8.02743 17.9214 8.42918 17.6545 8.61662 17.2717C10.7454 12.921 14.8461 6.51266 17.7551 2.39935C18.1454 1.84723 17.9558 1.1189 17.3311 0.773427Z" fill="black"/>
</svg>
