<svg width="157.228027" height="150.995117" viewBox="0 0 157.228 150.995" fill="none" xmlns="http://www.w3.org/2000/svg" xmlns:xlink="http://www.w3.org/1999/xlink">
	<desc>
			Created with Pixso.
	</desc>
	<defs>
		<clipPath id="clip2183_5226">
			<rect id="Frame" rx="0.000000" width="143.000000" height="136.000000" transform="translate(14.479492 0.500000) rotate(5.856029)" fill="white" fill-opacity="0"/>
		</clipPath>
	</defs>
	<rect id="Frame" rx="0.000000" width="143.000000" height="136.000000" transform="translate(14.479492 0.500000) rotate(5.856029)" fill="#FFFFFF" fill-opacity="0"/>
	<g clip-path="url(#clip2183_5226)">
		<path id="Vector" d="M16.6 57.95C16.25 57.49 15.89 56.96 15.34 56.72C14.57 56.39 13.77 56.83 13.46 57.57C13.05 58.55 12.99 59.72 13.06 60.77C13.14 61.94 13.49 63.12 14.07 64.14C14.32 64.59 14.81 64.85 15.31 64.68C15.34 64.75 15.38 64.82 15.41 64.88C15.67 65.37 16.24 65.63 16.76 65.39C17.07 65.25 17.29 64.93 17.35 64.59C17.52 64.68 17.7 64.76 17.89 64.82C18.26 64.91 18.6 64.91 18.91 64.66C19.18 64.44 19.35 64.05 19.27 63.7C18.77 61.62 17.88 59.67 16.6 57.95Z" fill="#1F0600" fill-opacity="1.000000" fill-rule="nonzero"/>
		<path id="Vector" d="M51.99 60.95C52.1 60.96 52.21 60.95 52.31 60.92C52.58 61.31 53.12 61.53 53.55 61.33C53.97 61.83 54.73 61.84 55.16 61.3C56.48 59.65 56.33 57.42 55.7 55.52C55.55 55.05 55.37 54.55 55.06 54.16C54.54 53.52 53.61 53.45 53.01 54.01C52.28 54.67 51.78 55.6 51.52 56.54C51.22 57.62 51.13 58.72 51.07 59.83C51.06 60.37 51.42 60.92 51.99 60.95Z" fill="#1F0600" fill-opacity="1.000000" fill-rule="nonzero"/>
		<path id="Vector" d="M26.82 81.67C27.37 79.85 27.76 77.98 28.01 76.1C28.14 75.91 28.21 75.68 28.19 75.39C28.17 75.19 28.15 74.99 28.13 74.79C28.01 73.63 26.22 73.73 26.11 74.86C25.93 76.71 25.6 78.54 25.09 80.33C24.86 81.16 24.61 81.98 24.29 82.77C24.05 83.37 23.74 84.04 23.17 84.4C22.82 84.62 22.28 84.76 21.93 84.47C21.42 84.07 21.28 83.08 21.11 82.49C20.63 80.75 20.29 78.97 20.09 77.17C19.94 75.87 17.93 76.21 18.08 77.51C18.32 79.67 18.77 81.78 19.4 83.86C19.69 84.77 20.06 85.71 20.91 86.24C21.75 86.76 22.78 86.77 23.69 86.41C25.6 85.64 26.27 83.46 26.82 81.67Z" fill="#1F0600" fill-opacity="1.000000" fill-rule="nonzero"/>
		<path id="Vector" d="M46.44 84C47.31 84.69 48.33 84.59 49.24 84.04C50.7 83.16 51.37 81.51 51.88 79.95C52.59 77.74 53.29 75.52 53.83 73.25C53.96 72.72 53.82 72.15 53.26 71.94C52.8 71.76 52.07 71.98 51.94 72.52C51.49 74.36 50.95 76.16 50.38 77.97C49.97 79.25 49.65 80.79 48.74 81.84C48.61 81.99 48.45 82.15 48.28 82.25C48.01 82.43 47.87 82.53 47.65 82.35C47.21 81.97 46.96 81.39 46.81 80.84C46.36 79.23 46.31 77.47 46.41 75.82C46.48 74.51 44.46 74.29 44.38 75.61C44.26 77.68 44.33 79.92 45.02 81.9C45.3 82.7 45.77 83.46 46.44 84Z" fill="#1F0600" fill-opacity="1.000000" fill-rule="nonzero"/>
		<path id="Vector" d="M30.83 87.31C31.25 87.47 31.71 87.5 32.15 87.55C32.65 87.61 33.15 87.66 33.65 87.69C33.67 87.74 33.68 87.79 33.69 87.85C33.71 87.94 33.73 88.05 33.74 88.15C33.75 88.25 33.75 88.36 33.76 88.46C33.76 88.43 33.76 88.42 33.76 88.4C33.76 88.4 33.76 88.41 33.76 88.42C33.76 88.48 33.76 88.53 33.76 88.59C33.75 88.8 33.71 89.01 33.67 89.21C33.66 89.25 33.64 89.29 33.63 89.33C33.6 89.45 33.56 89.55 33.52 89.66C33.48 89.75 33.44 89.85 33.39 89.95C33.38 89.97 33.37 90 33.35 90.03C33.37 90 33.38 89.99 33.34 90.04C33.33 90.06 33.32 90.08 33.32 90.1C33.32 90.09 33.33 90.07 33.34 90.05C33.22 90.23 33.11 90.41 32.96 90.58C32.93 90.62 32.9 90.65 32.87 90.69C32.79 90.76 32.72 90.83 32.64 90.9C32.55 90.97 32.46 91.04 32.37 91.11C32.33 91.13 32.28 91.16 32.25 91.18C32.27 91.17 32.27 91.16 32.29 91.15C32.27 91.16 32.26 91.18 32.24 91.19C31.77 91.44 31.47 92.02 31.73 92.54C31.97 93 32.58 93.32 33.08 93.04C33.65 92.73 34.14 92.32 34.55 91.83C34.88 92.39 35.36 92.89 35.97 93.09C36.87 93.4 37.88 93.19 38.47 92.41C38.8 91.98 38.7 91.29 38.25 90.98C37.8 90.68 37.21 90.76 36.86 91.18C36.76 91.19 36.8 91.19 36.85 91.18C36.84 91.19 36.82 91.19 36.8 91.2C36.78 91.19 36.78 91.19 36.76 91.19C36.72 91.19 36.72 91.19 36.71 91.19C36.67 91.18 36.63 91.16 36.62 91.15C36.6 91.14 36.58 91.13 36.56 91.11C36.54 91.09 36.47 91.03 36.46 91.02C36.41 90.97 36.38 90.91 36.34 90.86C36.33 90.84 36.33 90.85 36.33 90.83C36.27 90.71 36.21 90.58 36.16 90.45C36.15 90.44 36.14 90.41 36.13 90.37C36.12 90.34 36.08 90.21 36.08 90.22C36 89.91 35.94 89.59 35.91 89.28C35.91 89.21 35.9 89.15 35.9 89.09C35.89 89.07 35.89 88.87 35.89 88.91C35.89 88.79 35.89 88.67 35.9 88.55C35.92 88.26 35.96 87.98 36.01 87.7C36.23 87.69 36.46 87.69 36.69 87.68C37.54 87.63 38.4 87.56 39.13 87.06C39.92 86.52 40.17 85.46 39.64 84.65C39.2 83.96 38.39 83.65 37.63 83.44C37.56 83.41 37.48 83.39 37.39 83.38C35.34 82.85 33.24 82.95 31.24 83.68C30.8 83.84 30.61 84.36 30.69 84.8C29.66 85.39 29.65 86.86 30.83 87.31ZM33.65 87.69C33.66 87.69 33.66 87.69 33.66 87.7C33.66 87.69 33.65 87.69 33.65 87.69ZM37.05 85.6C37.07 85.54 37.1 85.47 37.11 85.41C37.18 85.43 37.24 85.44 37.3 85.47C37.38 85.49 37.45 85.52 37.51 85.54C37.4 85.57 37.29 85.58 37.17 85.59C37.13 85.6 37.09 85.6 37.05 85.6Z" fill="#1F0600" fill-opacity="1.000000" fill-rule="nonzero"/>
		<path id="Vector" d="" fill="#1F0600" fill-opacity="1.000000" fill-rule="nonzero"/>
		<path id="Vector" d="M33.34 90.03C33.34 90.03 33.34 90.03 33.35 90.02C33.34 90.03 33.34 90.03 33.33 90.04L33.33 90.04C33.34 90.04 33.34 90.04 33.34 90.03Z" fill="#1F0600" fill-opacity="1.000000" fill-rule="nonzero"/>
		<path id="Vector" d="" fill="#1F0600" fill-opacity="1.000000" fill-rule="nonzero"/>
	</g>
	<path id="Vector" d="M153.06 25.49C150.87 19.82 146.31 14.5 140.21 13.05C133.34 11.41 127.84 16.56 126.2 22.92C125.33 26.31 124.96 30.34 125.71 33.8C126.3 36.5 128.19 39.68 131.25 39.94C132.44 40.04 133.76 39.66 134.44 38.61C135.33 37.25 134.66 35.05 134.5 33.56C134.3 31.65 134.05 29.74 133.91 27.81C133.79 26.15 133.82 24.29 134.86 22.89C136.59 20.57 140.16 20.74 142.36 22.22C143.43 22.94 144.27 23.88 144.91 24.95C144.86 25.32 145.03 25.73 145.31 25.93C145.37 25.96 145.42 25.98 145.47 26C146.12 27.43 146.49 29.01 146.61 30.57C146.88 34.03 146.18 37.63 145.26 40.95C144.39 44.07 143.2 47.11 141.71 49.98C138.72 55.76 134.47 60.92 129.35 64.94C128.57 65.55 127.65 66.09 126.87 66.76C124.28 63.61 120.58 61.62 116.66 60.45C115.16 59.99 113.62 59.63 112.07 59.32C112.07 59.3 112.06 59.28 112.05 59.26C111.78 58.27 110.6 58.19 110.16 58.98C107.03 58.45 103.84 58.14 100.71 57.89C87.56 56.84 74.31 57.88 61.31 59.99C60.97 58.33 60.54 56.7 59.97 55.08C59.38 53.42 58.66 51.79 57.77 50.27C56.95 48.9 56.01 47.38 54.77 46.35C51.95 43.99 49.24 48.17 47.92 50.21C46.98 51.67 46.16 53.22 45.5 54.82C45.24 55.45 45.05 56.29 44.52 56.76C43.91 57.3 42.93 57.3 42.16 57.38C38.25 57.76 34.34 58.12 30.43 58.49C28.45 58.68 26.47 58.86 24.48 59.05C22.7 56.62 20.58 54.29 18.15 52.55C15.76 50.83 12.37 49.83 10.04 52.23C8.02 54.31 7.98 57.56 8.06 60.27C8.15 64.16 8.68 68.02 9.26 71.87C9.86 75.82 10.46 79.76 11.06 83.7C11.64 87.47 12.09 91.28 12.97 94.99C13.11 95.59 13.28 96.19 13.45 96.79C12.72 97.3 12 97.83 11.26 98.34C10.75 98.69 10.76 99.64 11.3 99.95C11.94 100.33 12.53 100.31 13.14 99.91C13.36 99.76 13.48 99.51 13.5 99.25C13.71 99.11 13.91 98.96 14.12 98.81C14.55 99.95 15.05 101.07 15.63 102.12C15.08 102.55 14.6 103.12 14.79 103.88C14.92 104.39 15.39 104.83 15.96 104.71C16.32 104.64 16.66 104.35 16.77 104C17.69 105.34 18.78 106.54 20.04 107.56C19.3 113.07 19.06 118.63 19.35 124.19C19.49 127.02 19.77 129.85 20.18 132.65C20.38 134.05 20.62 135.45 20.9 136.84C21.12 137.95 21.41 138.47 22.59 138.62C25.46 138.98 26.8 135.59 27.46 133.39C28.47 130.02 28.87 126.49 29.43 123.03C29.61 121.92 29.72 120.64 30.38 119.7C31.23 118.5 33.03 118.18 34.35 117.81C37.19 117.01 40.09 116.48 43.02 116.15C44.77 120.29 44.74 124.89 45.25 129.31C45.5 131.55 45.91 133.79 46.71 135.9C47.01 136.7 47.28 137.79 48.16 138.1C48.6 138.25 49.08 138.28 49.53 138.19C51.68 137.74 52.69 134.95 53.29 133.13C54.33 129.93 54.84 126.53 55.16 123.19C55.49 119.79 55.63 116.31 55.3 112.89C68.75 110.36 82.5 111.98 96.06 110.84C95.45 114.95 95.02 119.13 95.12 123.29C95.19 126.1 95.26 129.94 97.33 132.14C99.38 134.3 102.9 133.03 104.16 130.64C104.97 129.11 105.07 127.28 105.28 125.59C105.6 123.06 106.18 120.56 106.68 118.05C106.97 116.55 107.18 114.99 107.57 113.51C107.9 112.26 110.3 112.45 111.37 112.38C114.22 112.21 117.08 112.44 119.89 112.95C120.99 118.58 121.48 124.2 121.79 129.92C121.91 131.97 122.68 134.1 124.9 134.59C126.81 135.01 128.91 134.03 130.02 132.46C131.48 130.37 131.45 127.69 131.46 125.25C131.47 122.21 131.49 119.18 131.5 116.13C131.53 110.06 131.55 103.98 131.58 97.9C131.61 92.39 131.81 86.86 131.51 81.36C131.41 79.61 131.23 77.85 130.91 76.12C136.42 73.43 140.7 68.81 144.17 63.82C148.27 57.94 151.92 51.41 153.73 44.43C155.37 38.17 155.41 31.57 153.06 25.49ZM150.33 48.34C149.86 47.77 149.41 47.21 148.96 46.62C149.41 46.8 149.85 46.99 150.3 47.16C150.44 47.22 150.6 47.24 150.75 47.22C150.62 47.6 150.48 47.97 150.33 48.34ZM146.73 47.1C146.66 47.06 146.6 47.02 146.54 46.98C146.46 46.93 146.39 46.87 146.31 46.82C146.3 46.81 146.23 46.75 146.19 46.71C146.17 46.7 146.16 46.68 146.14 46.65C146.14 46.62 146.03 46.4 146.09 46.6C146.03 46.37 145.9 46.15 145.73 46C145.77 45.9 145.8 45.8 145.84 45.7C146.16 46.19 146.5 46.68 146.85 47.16C146.8 47.13 146.75 47.1 146.73 47.1ZM148.89 22.09C148.91 22.03 148.91 21.98 148.92 21.93C148.96 21.98 148.99 22.03 149.02 22.08C148.98 22.09 148.93 22.08 148.89 22.09ZM151.04 45.26C150.96 45.23 150.89 45.19 150.81 45.14C150.79 45.13 150.64 45.05 150.64 45.05C150.46 44.94 150.29 44.83 150.12 44.71C150.04 44.65 149.97 44.59 149.89 44.52C150.44 44.6 151 44.66 151.56 44.68C151.49 44.94 151.4 45.2 151.33 45.46C151.24 45.39 151.15 45.32 151.04 45.26ZM152.8 38.13C152.66 39.67 152.41 41.19 152.07 42.69C152.03 42.68 151.99 42.67 151.94 42.67C151.13 42.65 150.32 42.57 149.52 42.42C148.76 42.28 148.08 42.09 147.31 41.82C147.25 41.79 147.19 41.79 147.13 41.78C147.35 40.98 147.56 40.19 147.74 39.38C148.64 35.43 149.16 30.87 147.99 26.91C148 26.9 148.02 26.91 148.04 26.9C148.27 26.85 148.49 26.72 148.65 26.53C148.77 26.56 148.89 26.57 149.02 26.54C149.1 26.52 149.18 26.49 149.27 26.47C149.43 26.39 149.56 26.28 149.67 26.14C149.88 25.9 150.07 25.64 150.23 25.36C150.35 25.17 150.45 24.98 150.53 24.79C152.48 28.9 153.19 33.62 152.8 38.13ZM130.58 20.01C131.46 20.6 132.28 21.26 133.05 21.97C133.05 21.98 133.07 21.98 133.07 21.99C133.06 22.01 133.04 22.03 133.02 22.06C132.88 21.98 132.74 21.9 132.6 21.81C132.3 21.63 132 21.44 131.72 21.24C131.14 20.83 130.58 20.38 130.06 19.9C129.96 19.81 129.82 19.76 129.67 19.73C129.85 19.42 130.04 19.12 130.25 18.84C130.11 19.25 130.2 19.74 130.58 20.01ZM132.73 37.51C132.43 37.95 131.67 37.96 131.21 37.87C129.79 37.61 128.76 36.21 128.21 34.97C127.49 33.33 127.4 31.47 127.42 29.7C127.45 27.95 127.58 26.2 127.92 24.48C128.12 23.46 128.42 22.45 128.81 21.49C128.83 21.51 128.84 21.53 128.86 21.55C129.86 22.48 130.99 23.24 132.18 23.9C132.12 24.11 132.06 24.31 132.02 24.52C131.7 26.1 131.85 27.75 132.01 29.33C132.21 31.25 132.42 33.17 132.62 35.1C132.69 35.72 133.08 36.96 132.73 37.51ZM137.33 19.22C136.23 19.43 135.26 19.88 134.45 20.52C134.39 20.45 134.33 20.38 134.25 20.33C133.49 19.62 132.66 18.96 131.79 18.36C131.56 18.21 131.29 18.14 131.02 18.18C130.9 18.2 130.77 18.25 130.66 18.32C131.24 17.6 131.89 16.93 132.66 16.37C137.98 12.45 144.56 16.31 148.14 20.83C147.76 20.76 147.36 20.88 147.11 21.21C146.71 21.76 146.33 22.33 145.98 22.91C145.61 22.43 145.2 21.96 144.74 21.52C142.75 19.66 140.03 18.69 137.33 19.22ZM136.7 60.79C136.79 61.17 136.89 61.55 136.98 61.94C136.85 61.74 136.71 61.56 136.58 61.37C136.52 61.28 136.44 61.23 136.35 61.17C136.47 61.05 136.58 60.91 136.7 60.79ZM140.43 65.46C140.05 64.78 139.74 64.06 139.49 63.32C139.87 63.65 140.25 64 140.63 64.33C140.78 64.46 140.97 64.51 141.16 64.51C140.92 64.83 140.68 65.14 140.43 65.46ZM142.02 62.86C141.92 62.72 141.83 62.58 141.74 62.43C141.84 62.49 141.95 62.55 142.05 62.62C142.17 62.68 142.3 62.74 142.43 62.76C142.34 62.89 142.25 63.01 142.16 63.14C142.12 63.05 142.08 62.95 142.02 62.86ZM109.4 83.31C109.32 84.26 109.24 85.21 109.15 86.15C109.07 86.93 109.04 87.78 108.65 88.47C108.57 88.63 108.49 88.85 108.29 88.88C108.07 88.91 108.15 88.81 108.03 88.62C107.79 88.28 107.63 87.71 107.51 87.31C107.48 87.2 107.46 87.09 107.44 86.98C107.71 86.85 107.92 86.59 107.94 86.18C108.02 83.68 108.07 81.18 108.14 78.69C108.25 79.47 108.38 80.24 108.55 81.02C108.66 81.5 109.1 81.77 109.53 81.82C109.48 82.31 109.44 82.81 109.4 83.31ZM109.44 62.95C109.31 62.23 109.12 61.54 108.85 60.88C109.15 60.92 109.45 60.96 109.74 61.01C109.63 61.66 109.53 62.3 109.44 62.95ZM106.32 67.34C106.13 65.03 105.91 62.73 105.63 60.43C105.89 60.46 106.15 60.49 106.41 60.52C106.39 62.79 106.35 65.07 106.32 67.34ZM91.03 68.88C90.84 70.36 90.66 71.85 90.44 73.33C90.35 73.94 90.25 74.54 90.05 75.12C90.06 75.11 90.06 75.09 90.06 75.07C90.12 74.22 90.16 73.35 90.19 72.49C90.31 70.53 90.52 68.58 90.84 66.65C91.05 65.39 91.22 63.91 91.66 62.58C91.58 64.69 91.3 66.79 91.03 68.88ZM89.13 76.79C89.12 76.8 89.11 76.8 89.1 76.82C89.08 76.77 89.03 76.7 88.94 76.63C88.86 76.37 88.72 76.12 88.63 75.86C89.04 76.05 89.55 76 89.84 75.66C89.64 76.06 89.39 76.39 89.13 76.79ZM89.78 61.95C89.62 61.09 89.36 60.27 88.95 59.52C89.62 59.51 90.3 59.51 90.97 59.51C90.43 60.25 90.06 61.08 89.78 61.95ZM74.72 85.09C74.63 85.91 74.64 86.87 74.37 87.65C74.08 88.49 73.49 88.21 73.15 87.53C72.78 86.76 72.72 85.77 72.57 84.95C72.56 84.91 72.55 84.86 72.55 84.82C72.82 84.69 73.02 84.46 73.07 84.14C73.21 84.93 74.26 85.08 74.78 84.61C74.75 84.77 74.74 84.93 74.72 85.09ZM73.6 66.45C73.4 64.54 73.09 62.64 72.53 60.79C72.5 60.69 72.44 60.61 72.39 60.53C73.13 60.45 73.88 60.37 74.62 60.3C74.11 62.32 73.79 64.38 73.6 66.45ZM70.52 61.13C70.88 66.05 71.06 70.97 71.1 75.9C71.01 75.2 70.9 74.51 70.8 73.81C70.24 69.51 69.83 65.18 69.55 60.85C69.89 60.81 70.22 60.78 70.55 60.74C70.53 60.86 70.51 60.98 70.52 61.13ZM75.35 71.67C75.38 70.7 75.41 69.74 75.47 68.78C75.53 72.7 75.42 76.62 75.13 80.52C75.19 77.57 75.26 74.62 75.35 71.67ZM42.47 67.08C42.48 67.24 42.48 67.41 42.49 67.57C42.47 67.41 42.46 67.25 42.46 67.08C42.46 67.09 42.46 67.09 42.47 67.08ZM18.34 102.7C18.6 102.52 18.87 102.33 19.14 102.15C20.13 101.46 21.12 100.78 22.12 100.1C22.56 99.79 22.61 99.05 22.26 98.66C21.87 98.22 21.3 98.19 20.83 98.51C19.72 99.28 18.62 100.04 17.51 100.8C17.43 100.85 17.36 100.9 17.28 100.96C17.17 100.76 17.07 100.57 16.97 100.37C16.53 99.46 16.16 98.53 15.83 97.58C17.59 96.32 19.34 95.03 21.05 93.7C22.09 92.89 20.8 91.31 19.76 92.12C18.27 93.28 16.75 94.42 15.21 95.53C14.82 94.05 14.52 92.54 14.26 91.03C13.66 87.55 13.18 84.04 12.64 80.53C11.56 73.4 10 66.13 10.07 58.89C10.09 56.75 10.39 53.15 13.13 52.82C16.1 52.46 18.99 55.78 20.77 57.74C21.87 58.95 22.87 60.24 23.79 61.58C24.26 62.27 25.06 62 25.4 61.44C25.02 64.97 25.02 68.67 26.63 71.92C27.1 72.89 28.36 72.56 28.56 71.6C29.33 68 29.56 64.31 29.31 60.64C30.76 60.5 32.21 60.36 33.65 60.23C33.45 62.33 33.14 64.48 33.15 66.6C33.16 68.56 33.7 70.6 35.4 71.77C35.98 72.16 37.02 71.86 37.02 71.05C37 67.47 36.98 63.88 36.96 60.3C36.96 60.17 36.94 60.05 36.9 59.93C37.93 59.83 38.95 59.73 39.98 59.64C39.9 61.08 40.37 62.48 40.44 63.97C40.52 65.83 40.21 67.65 40.8 69.46C41.04 70.18 41.42 70.87 41.96 71.41C42.6 72.05 43.61 72.48 44.27 71.58C44.79 70.86 44.55 69.63 44.53 68.81C44.51 67.82 44.48 66.83 44.44 65.84C44.39 64.71 44.33 63.58 44.25 62.45C44.18 61.33 44.1 60.22 44.29 59.12C44.61 59.03 44.91 58.91 45.21 58.76C46.45 58.08 46.87 56.8 47.38 55.58C48 54.08 48.76 52.64 49.65 51.28C50.1 50.59 50.58 49.92 51.09 49.28C51.49 48.77 52.08 47.89 52.77 47.74C53.44 47.6 53.97 48.46 54.33 48.91C54.86 49.56 55.34 50.24 55.78 50.95C59.16 56.47 60.13 63.22 60.3 69.59C60.38 72.83 60.26 76.07 60.13 79.3C59.99 82.46 59.88 85.64 59.49 88.79C57.37 88.42 55.24 88.15 53.09 87.99C51.78 87.89 51.57 89.92 52.88 90.02C54.65 90.16 56.42 90.35 58.18 90.62C58.52 90.67 58.86 90.74 59.19 90.79C58.9 92.36 58.44 93.83 57.79 95.21C56.76 94.82 55.75 94.41 54.75 93.97C54.25 93.74 53.62 94.05 53.43 94.55C53.22 95.08 53.51 95.64 54.01 95.87C54.93 96.27 55.85 96.65 56.78 97C56.37 97.64 55.91 98.26 55.38 98.85C53.38 101.1 50.95 103.04 48.36 104.57C43.36 107.51 37.56 109.13 31.75 109.01C28.61 108.95 25.26 108.53 22.54 106.86C22.35 106.73 22.15 106.59 21.96 106.46C21.85 106.31 21.7 106.21 21.52 106.14C20.3 105.19 19.23 104.01 18.34 102.7ZM129.44 124.02C129.43 126.41 129.85 129.89 127.97 131.72C127.32 132.36 126.27 132.8 125.35 132.6C124.12 132.33 123.9 130.95 123.82 129.88C123.61 126.97 123.55 124.07 123.23 121.16C122.89 118.05 122.39 114.96 121.77 111.9C121.67 111.42 121.32 111.15 120.86 111.06C118.35 110.54 115.79 110.27 113.23 110.29C112.11 110.3 111 110.35 109.89 110.45C108.81 110.55 107.47 110.57 106.58 111.27C105.78 111.91 105.61 112.9 105.43 113.85C105.17 115.18 104.91 116.5 104.65 117.83C104.18 120.24 103.61 122.65 103.29 125.09C103.1 126.61 103.1 128.39 102.32 129.76C101.81 130.67 100.45 131.53 99.39 131.14C98.51 130.81 98.1 129.64 97.84 128.83C97.39 127.34 97.25 125.75 97.17 124.2C96.93 119.41 97.53 114.53 98.27 109.8C98.38 109.11 97.71 108.63 97.09 108.69C82.77 110.12 68.22 108.15 54.03 111.04C53.47 111.15 53.12 111.65 53.19 112.21C53.68 116.18 53.46 120.25 53 124.21C52.6 127.69 52.12 131.62 50.42 134.74C50.14 135.24 49.84 135.73 49.41 136.03C49.28 136.13 49.18 136.18 49.07 136.19C45.96 129.4 47.83 121.41 44.57 114.62C44.36 114.18 43.93 113.99 43.47 114.03C40.02 114.36 36.61 115.01 33.29 115.99C31.91 116.4 30.4 116.78 29.34 117.8C28.26 118.84 27.86 120.29 27.59 121.72C26.84 125.82 26.62 130.13 25.09 134.05C24.7 135.03 24.06 136.56 22.95 136.56C21.16 127.42 20.83 118.08 21.95 108.83C22.67 109.24 23.44 109.59 24.26 109.87C30.32 111.97 37.46 111.2 43.42 109.11C46.42 108.06 49.27 106.56 51.86 104.71C54.49 102.82 57.07 100.48 58.81 97.72C59.44 97.94 60.08 98.15 60.72 98.34C61.24 98.5 61.82 98.3 62.03 97.76C62.22 97.28 61.98 96.6 61.45 96.44C60.89 96.27 60.33 96.09 59.78 95.9C60.46 94.39 60.91 92.78 61.21 91.14C61.47 91.19 61.72 91.24 61.97 91.29C62.21 91.34 62.46 91.39 62.7 91.45C62.77 91.46 62.84 91.48 62.91 91.5C63.21 91.96 63.84 92.22 64.41 91.8C64.86 91.47 64.97 90.87 64.74 90.38C64.48 89.85 63.96 89.67 63.43 89.54C62.79 89.4 62.16 89.26 61.52 89.14C61.59 88.59 61.65 88.04 61.7 87.5C62.06 83.65 62.19 79.77 62.31 75.91C62.44 71.28 62.4 66.58 61.68 62C63.63 61.69 65.59 61.4 67.55 61.14C67.54 61.16 67.54 61.17 67.55 61.18C67.83 65.59 68.26 69.98 68.83 74.36C69.38 78.65 69.92 83.05 70.95 87.25C71.31 88.75 72.3 90.37 74.06 90.26C75.7 90.16 76.32 88.63 76.53 87.22C77.19 82.87 77.4 78.4 77.5 74.01C77.6 69.37 77.45 64.72 77.08 60.09C79.78 59.86 82.49 59.7 85.2 59.61C85.28 62.48 85.43 65.34 85.66 68.21C85.78 69.74 85.93 71.26 86.1 72.78C86.25 74.09 86.35 75.41 86.76 76.67C87.09 77.67 87.71 79.02 88.93 79.05C90.09 79.09 91 77.9 91.49 76.98C92.71 74.72 92.72 71.77 93.05 69.28C93.47 66.06 93.87 62.83 93.64 59.58C93.84 59.58 94.04 59.58 94.25 59.59C97.37 59.68 100.48 59.9 103.58 60.22C103.58 60.28 103.58 60.33 103.59 60.39C104.14 64.96 104.53 69.54 104.74 74.14C104.84 76.47 104.89 78.8 104.91 81.13C104.92 83.09 104.91 85.08 105.34 87.01C105.65 88.36 106.21 90.72 107.81 91.05C109.69 91.44 110.74 89.2 111.02 87.73C111.41 85.63 111.45 83.42 111.64 81.29C111.84 78.92 112.04 76.55 112.22 74.18C112.55 70.04 113.15 65.68 112.53 61.51C116.2 62.26 119.85 63.4 122.85 65.66C123.94 66.49 124.83 67.42 125.6 68.43C125.53 68.98 125.93 69.48 126.41 69.61C127.48 71.33 128.2 73.23 128.68 75.25C128.58 75.58 128.67 75.95 128.89 76.23C129.81 80.88 129.61 85.96 129.59 90.4C129.54 101.6 129.49 112.82 129.44 124.02ZM133.18 72.46C132.31 73.06 131.39 73.59 130.45 74.08C129.92 72.09 129.16 70.17 128.06 68.41C128.93 67.58 130.13 66.93 131.02 66.22C132.2 65.27 133.33 64.26 134.41 63.21C134.6 63.01 134.79 62.81 134.98 62.62C134.99 62.63 134.99 62.65 135 62.66C136.11 64.34 137.48 65.84 139.01 67.16C137.26 69.14 135.36 70.95 133.18 72.46ZM143.49 61.2C143.43 61.11 143.35 61.03 143.26 60.97C141.76 60.09 140.23 59.17 139.23 57.71C139.64 57.17 140.03 56.63 140.41 56.08C142.13 53.59 143.61 50.94 144.82 48.18C145.26 48.6 145.82 48.92 146.4 49.21C147.39 49.7 148.43 50.08 149.49 50.38C148.31 53.09 146.91 55.7 145.39 58.21C144.78 59.21 144.14 60.21 143.49 61.2Z" fill="#1F0600" fill-opacity="1.000000" fill-rule="nonzero"/>
</svg>
