<svg width="160" height="160" viewBox="0 0 160 160" fill="none" xmlns="http://www.w3.org/2000/svg">
<path d="M66.2067 0H60.6895V5.51724H66.2067V0Z" fill="#E31E25"/>
<path d="M88.276 0H82.7588V5.51724H88.276V0Z" fill="#E31E25"/>
<path d="M110.345 0H104.828V5.51724H110.345V0Z" fill="#E31E25"/>
<path d="M49.6549 5.51758H44.1377V11.0348H49.6549V5.51758Z" fill="#E31E25"/>
<path d="M55.1725 5.51758H49.6553V11.0348H55.1725V5.51758Z" fill="#E31E25"/>
<path d="M66.2067 5.51758H60.6895V11.0348H66.2067V5.51758Z" fill="#E31E25"/>
<path d="M88.276 5.51758H82.7588V11.0348H88.276V5.51758Z" fill="#E31E25"/>
<path d="M99.3102 5.51758H93.793V11.0348H99.3102V5.51758Z" fill="#E31E25"/>
<path d="M104.828 5.51758H99.3105V11.0348H104.828V5.51758Z" fill="#E31E25"/>
<path d="M110.345 5.51758H104.828V11.0348H110.345V5.51758Z" fill="#E31E25"/>
<path d="M115.862 5.51758H110.345V11.0348H115.862V5.51758Z" fill="#E31E25"/>
<path d="M55.1725 11.0342H49.6553V16.5514H55.1725V11.0342Z" fill="#E31E25"/>
<path d="M66.2067 11.0342H60.6895V16.5514H66.2067V11.0342Z" fill="#E31E25"/>
<path d="M110.345 11.0342H104.828V16.5514H110.345V11.0342Z" fill="#E31E25"/>
<path d="M115.862 11.0342H110.345V16.5514H115.862V11.0342Z" fill="#E31E25"/>
<path d="M55.1725 16.5518H49.6553V22.069H55.1725V16.5518Z" fill="#E31E25"/>
<path d="M71.7243 16.5518H66.207V22.069H71.7243V16.5518Z" fill="#E31E25"/>
<path d="M82.7585 16.5518H77.2412V22.069H82.7585V16.5518Z" fill="#E31E25"/>
<path d="M104.828 16.5518H99.3105V22.069H104.828V16.5518Z" fill="#E31E25"/>
<path d="M49.6549 22.0693H44.1377V27.5866H49.6549V22.0693Z" fill="#E31E25"/>
<path d="M60.6896 22.0693H55.1724V27.5866H60.6896V22.0693Z" fill="#E31E25"/>
<path d="M66.2067 22.0693H60.6895V27.5866H66.2067V22.0693Z" fill="#E31E25"/>
<path d="M77.2414 22.0693H71.7241V27.5866H77.2414V22.0693Z" fill="#E31E25"/>
<path d="M82.7585 22.0693H77.2412V27.5866H82.7585V22.0693Z" fill="#E31E25"/>
<path d="M88.276 22.0693H82.7588V27.5866H88.276V22.0693Z" fill="#E31E25"/>
<path d="M99.3102 22.0693H93.793V27.5866H99.3102V22.0693Z" fill="#E31E25"/>
<path d="M104.828 22.0693H99.3105V27.5866H104.828V22.0693Z" fill="#E31E25"/>
<path d="M110.345 22.0693H104.828V27.5866H110.345V22.0693Z" fill="#E31E25"/>
<path d="M55.1725 27.5859H49.6553V33.1032H55.1725V27.5859Z" fill="#E31E25"/>
<path d="M66.2067 27.5859H60.6895V33.1032H66.2067V27.5859Z" fill="#E31E25"/>
<path d="M71.7243 27.5859H66.207V33.1032H71.7243V27.5859Z" fill="#E31E25"/>
<path d="M88.276 27.5859H82.7588V33.1032H88.276V27.5859Z" fill="#E31E25"/>
<path d="M93.7931 27.5859H88.2759V33.1032H93.7931V27.5859Z" fill="#E31E25"/>
<path d="M110.345 27.5859H104.828V33.1032H110.345V27.5859Z" fill="#E31E25"/>
<path d="M115.862 27.5859H110.345V33.1032H115.862V27.5859Z" fill="#E31E25"/>
<path d="M49.6549 33.1035H44.1377V38.6208H49.6549V33.1035Z" fill="#E31E25"/>
<path d="M60.6896 33.1035H55.1724V38.6208H60.6896V33.1035Z" fill="#E31E25"/>
<path d="M71.7243 33.1035H66.207V38.6208H71.7243V33.1035Z" fill="#E31E25"/>
<path d="M82.7585 33.1035H77.2412V38.6208H82.7585V33.1035Z" fill="#E31E25"/>
<path d="M93.7931 33.1035H88.2759V38.6208H93.7931V33.1035Z" fill="#E31E25"/>
<path d="M104.828 33.1035H99.3105V38.6208H104.828V33.1035Z" fill="#E31E25"/>
<path d="M115.862 33.1035H110.345V38.6208H115.862V33.1035Z" fill="#E31E25"/>
<path d="M55.1725 38.6211H49.6553V44.1383H55.1725V38.6211Z" fill="#E31E25"/>
<path d="M66.2067 38.6211H60.6895V44.1383H66.2067V38.6211Z" fill="#E31E25"/>
<path d="M77.2414 38.6211H71.7241V44.1383H77.2414V38.6211Z" fill="#E31E25"/>
<path d="M82.7585 38.6211H77.2412V44.1383H82.7585V38.6211Z" fill="#E31E25"/>
<path d="M88.276 38.6211H82.7588V44.1383H88.276V38.6211Z" fill="#E31E25"/>
<path d="M93.7931 38.6211H88.2759V44.1383H93.7931V38.6211Z" fill="#E31E25"/>
<path d="M99.3102 38.6211H93.793V44.1383H99.3102V38.6211Z" fill="#E31E25"/>
<path d="M104.828 38.6211H99.3105V44.1383H104.828V38.6211Z" fill="#E31E25"/>
<path d="M115.862 38.6211H110.345V44.1383H115.862V38.6211Z" fill="#E31E25"/>
<path d="M5.51724 44.1377H0V49.6549H5.51724V44.1377Z" fill="#E31E25"/>
<path d="M16.5519 44.1377H11.0347V49.6549H16.5519V44.1377Z" fill="#E31E25"/>
<path d="M27.5861 44.1377H22.0688V49.6549H27.5861V44.1377Z" fill="#E31E25"/>
<path d="M38.6208 44.1377H33.1035V49.6549H38.6208V44.1377Z" fill="#E31E25"/>
<path d="M55.1725 44.1377H49.6553V49.6549H55.1725V44.1377Z" fill="#E31E25"/>
<path d="M66.2067 44.1377H60.6895V49.6549H66.2067V44.1377Z" fill="#E31E25"/>
<path d="M71.7243 44.1377H66.207V49.6549H71.7243V44.1377Z" fill="#E31E25"/>
<path d="M82.7585 44.1377H77.2412V49.6549H82.7585V44.1377Z" fill="#E31E25"/>
<path d="M93.7931 44.1377H88.2759V49.6549H93.7931V44.1377Z" fill="#E31E25"/>
<path d="M99.3102 44.1377H93.793V49.6549H99.3102V44.1377Z" fill="#E31E25"/>
<path d="M110.345 44.1377H104.828V49.6549H110.345V44.1377Z" fill="#E31E25"/>
<path d="M137.931 44.1377H132.414V49.6549H137.931V44.1377Z" fill="#E31E25"/>
<path d="M154.483 44.1377H148.965V49.6549H154.483V44.1377Z" fill="#E31E25"/>
<path d="M11.0343 49.6553H5.51709V55.1725H11.0343V49.6553Z" fill="#E31E25"/>
<path d="M16.5519 49.6553H11.0347V55.1725H16.5519V49.6553Z" fill="#E31E25"/>
<path d="M22.069 49.6553H16.5518V55.1725H22.069V49.6553Z" fill="#E31E25"/>
<path d="M49.6549 49.6553H44.1377V55.1725H49.6549V49.6553Z" fill="#E31E25"/>
<path d="M93.7931 49.6553H88.2759V55.1725H93.7931V49.6553Z" fill="#E31E25"/>
<path d="M110.345 49.6553H104.828V55.1725H110.345V49.6553Z" fill="#E31E25"/>
<path d="M115.862 49.6553H110.345V55.1725H115.862V49.6553Z" fill="#E31E25"/>
<path d="M121.38 49.6553H115.862V55.1725H121.38V49.6553Z" fill="#E31E25"/>
<path d="M126.897 49.6553H121.379V55.1725H126.897V49.6553Z" fill="#E31E25"/>
<path d="M143.448 49.6553H137.931V55.1725H143.448V49.6553Z" fill="#E31E25"/>
<path d="M160 49.6553H154.483V55.1725H160V49.6553Z" fill="#E31E25"/>
<path d="M11.0343 55.1729H5.51709V60.6901H11.0343V55.1729Z" fill="#E31E25"/>
<path d="M27.5861 55.1729H22.0688V60.6901H27.5861V55.1729Z" fill="#E31E25"/>
<path d="M33.1037 55.1729H27.5864V60.6901H33.1037V55.1729Z" fill="#E31E25"/>
<path d="M38.6208 55.1729H33.1035V60.6901H38.6208V55.1729Z" fill="#E31E25"/>
<path d="M44.1378 55.1729H38.6206V60.6901H44.1378V55.1729Z" fill="#E31E25"/>
<path d="M55.1725 55.1729H49.6553V60.6901H55.1725V55.1729Z" fill="#E31E25"/>
<path d="M66.2067 55.1729H60.6895V60.6901H66.2067V55.1729Z" fill="#E31E25"/>
<path d="M71.7243 55.1729H66.207V60.6901H71.7243V55.1729Z" fill="#E31E25"/>
<path d="M77.2414 55.1729H71.7241V60.6901H77.2414V55.1729Z" fill="#E31E25"/>
<path d="M99.3102 55.1729H93.793V60.6901H99.3102V55.1729Z" fill="#E31E25"/>
<path d="M115.862 55.1729H110.345V60.6901H115.862V55.1729Z" fill="#E31E25"/>
<path d="M121.38 55.1729H115.862V60.6901H121.38V55.1729Z" fill="#E31E25"/>
<path d="M132.414 55.1729H126.896V60.6901H132.414V55.1729Z" fill="#E31E25"/>
<path d="M148.965 55.1729H143.448V60.6901H148.965V55.1729Z" fill="#E31E25"/>
<path d="M154.483 55.1729H148.965V60.6901H154.483V55.1729Z" fill="#E31E25"/>
<path d="M160 55.1729H154.483V60.6901H160V55.1729Z" fill="#E31E25"/>
<path d="M16.5519 60.6895H11.0347V66.2067H16.5519V60.6895Z" fill="#E31E25"/>
<path d="M49.6549 60.6895H44.1377V66.2067H49.6549V60.6895Z" fill="#E31E25"/>
<path d="M55.1725 60.6895H49.6553V66.2067H55.1725V60.6895Z" fill="#E31E25"/>
<path d="M71.7243 60.6895H66.207V66.2067H71.7243V60.6895Z" fill="#E31E25"/>
<path d="M93.7931 60.6895H88.2759V66.2067H93.7931V60.6895Z" fill="#E31E25"/>
<path d="M99.3102 60.6895H93.793V66.2067H99.3102V60.6895Z" fill="#E31E25"/>
<path d="M104.828 60.6895H99.3105V66.2067H104.828V60.6895Z" fill="#E31E25"/>
<path d="M126.897 60.6895H121.379V66.2067H126.897V60.6895Z" fill="#E31E25"/>
<path d="M132.414 60.6895H126.896V66.2067H132.414V60.6895Z" fill="#E31E25"/>
<path d="M154.483 60.6895H148.965V66.2067H154.483V60.6895Z" fill="#E31E25"/>
<path d="M11.0343 66.207H5.51709V71.7243H11.0343V66.207Z" fill="#E31E25"/>
<path d="M16.5519 66.207H11.0347V71.7243H16.5519V66.207Z" fill="#E31E25"/>
<path d="M22.069 66.207H16.5518V71.7243H22.069V66.207Z" fill="#E31E25"/>
<path d="M27.5861 66.207H22.0688V71.7243H27.5861V66.207Z" fill="#E31E25"/>
<path d="M33.1037 66.207H27.5864V71.7243H33.1037V66.207Z" fill="#E31E25"/>
<path d="M38.6208 66.207H33.1035V71.7243H38.6208V66.207Z" fill="#E31E25"/>
<path d="M44.1378 66.207H38.6206V71.7243H44.1378V66.207Z" fill="#E31E25"/>
<path d="M55.1725 66.207H49.6553V71.7243H55.1725V66.207Z" fill="#E31E25"/>
<path d="M66.2067 66.207H60.6895V71.7243H66.2067V66.207Z" fill="#E31E25"/>
<path d="M93.7931 66.207H88.2759V71.7243H93.7931V66.207Z" fill="#E31E25"/>
<path d="M99.3102 66.207H93.793V71.7243H99.3102V66.207Z" fill="#E31E25"/>
<path d="M121.38 66.207H115.862V71.7243H121.38V66.207Z" fill="#E31E25"/>
<path d="M126.897 66.207H121.379V71.7243H126.897V66.207Z" fill="#E31E25"/>
<path d="M143.448 66.207H137.931V71.7243H143.448V66.207Z" fill="#E31E25"/>
<path d="M154.483 66.207H148.965V71.7243H154.483V66.207Z" fill="#E31E25"/>
<path d="M160 66.207H154.483V71.7243H160V66.207Z" fill="#E31E25"/>
<path d="M11.0343 71.7246H5.51709V77.2419H11.0343V71.7246Z" fill="#E31E25"/>
<path d="M16.5519 71.7246H11.0347V77.2419H16.5519V71.7246Z" fill="#E31E25"/>
<path d="M33.1037 71.7246H27.5864V77.2419H33.1037V71.7246Z" fill="#E31E25"/>
<path d="M49.6549 71.7246H44.1377V77.2419H49.6549V71.7246Z" fill="#E31E25"/>
<path d="M60.6896 71.7246H55.1724V77.2419H60.6896V71.7246Z" fill="#E31E25"/>
<path d="M71.7243 71.7246H66.207V77.2419H71.7243V71.7246Z" fill="#E31E25"/>
<path d="M77.2414 71.7246H71.7241V77.2419H77.2414V71.7246Z" fill="#E31E25"/>
<path d="M93.7931 71.7246H88.2759V77.2419H93.7931V71.7246Z" fill="#E31E25"/>
<path d="M115.862 71.7246H110.345V77.2419H115.862V71.7246Z" fill="#E31E25"/>
<path d="M121.38 71.7246H115.862V77.2419H121.38V71.7246Z" fill="#E31E25"/>
<path d="M126.897 71.7246H121.379V77.2419H126.897V71.7246Z" fill="#E31E25"/>
<path d="M143.448 71.7246H137.931V77.2419H143.448V71.7246Z" fill="#E31E25"/>
<path d="M160 71.7246H154.483V77.2419H160V71.7246Z" fill="#E31E25"/>
<path d="M5.51724 77.2412H0V82.7585H5.51724V77.2412Z" fill="#E31E25"/>
<path d="M11.0343 77.2412H5.51709V82.7585H11.0343V77.2412Z" fill="#E31E25"/>
<path d="M16.5519 77.2412H11.0347V82.7585H16.5519V77.2412Z" fill="#E31E25"/>
<path d="M27.5861 77.2412H22.0688V82.7585H27.5861V77.2412Z" fill="#E31E25"/>
<path d="M33.1037 77.2412H27.5864V82.7585H33.1037V77.2412Z" fill="#E31E25"/>
<path d="M38.6208 77.2412H33.1035V82.7585H38.6208V77.2412Z" fill="#E31E25"/>
<path d="M44.1378 77.2412H38.6206V82.7585H44.1378V77.2412Z" fill="#E31E25"/>
<path d="M55.1725 77.2412H49.6553V82.7585H55.1725V77.2412Z" fill="#E31E25"/>
<path d="M60.6896 77.2412H55.1724V82.7585H60.6896V77.2412Z" fill="#E31E25"/>
<path d="M82.7585 77.2412H77.2412V82.7585H82.7585V77.2412Z" fill="#E31E25"/>
<path d="M93.7931 77.2412H88.2759V82.7585H93.7931V77.2412Z" fill="#E31E25"/>
<path d="M115.862 77.2412H110.345V82.7585H115.862V77.2412Z" fill="#E31E25"/>
<path d="M121.38 77.2412H115.862V82.7585H121.38V77.2412Z" fill="#E31E25"/>
<path d="M143.448 77.2412H137.931V82.7585H143.448V77.2412Z" fill="#E31E25"/>
<path d="M154.483 77.2412H148.965V82.7585H154.483V77.2412Z" fill="#E31E25"/>
<path d="M160 77.2412H154.483V82.7585H160V77.2412Z" fill="#E31E25"/>
<path d="M55.1725 82.7588H49.6553V88.276H55.1725V82.7588Z" fill="#E31E25"/>
<path d="M71.7243 82.7588H66.207V88.276H71.7243V82.7588Z" fill="#E31E25"/>
<path d="M77.2414 82.7588H71.7241V88.276H77.2414V82.7588Z" fill="#E31E25"/>
<path d="M82.7585 82.7588H77.2412V88.276H82.7585V82.7588Z" fill="#E31E25"/>
<path d="M93.7931 82.7588H88.2759V88.276H93.7931V82.7588Z" fill="#E31E25"/>
<path d="M99.3102 82.7588H93.793V88.276H99.3102V82.7588Z" fill="#E31E25"/>
<path d="M110.345 82.7588H104.828V88.276H110.345V82.7588Z" fill="#E31E25"/>
<path d="M115.862 82.7588H110.345V88.276H115.862V82.7588Z" fill="#E31E25"/>
<path d="M137.931 82.7588H132.414V88.276H137.931V82.7588Z" fill="#E31E25"/>
<path d="M143.448 82.7588H137.931V88.276H143.448V82.7588Z" fill="#E31E25"/>
<path d="M154.483 82.7588H148.965V88.276H154.483V82.7588Z" fill="#E31E25"/>
<path d="M22.069 88.2754H16.5518V93.7926H22.069V88.2754Z" fill="#E31E25"/>
<path d="M27.5861 88.2754H22.0688V93.7926H27.5861V88.2754Z" fill="#E31E25"/>
<path d="M38.6208 88.2754H33.1035V93.7926H38.6208V88.2754Z" fill="#E31E25"/>
<path d="M44.1378 88.2754H38.6206V93.7926H44.1378V88.2754Z" fill="#E31E25"/>
<path d="M66.2067 88.2754H60.6895V93.7926H66.2067V88.2754Z" fill="#E31E25"/>
<path d="M71.7243 88.2754H66.207V93.7926H71.7243V88.2754Z" fill="#E31E25"/>
<path d="M82.7585 88.2754H77.2412V93.7926H82.7585V88.2754Z" fill="#E31E25"/>
<path d="M88.276 88.2754H82.7588V93.7926H88.276V88.2754Z" fill="#E31E25"/>
<path d="M93.7931 88.2754H88.2759V93.7926H93.7931V88.2754Z" fill="#E31E25"/>
<path d="M126.897 88.2754H121.379V93.7926H126.897V88.2754Z" fill="#E31E25"/>
<path d="M143.448 88.2754H137.931V93.7926H143.448V88.2754Z" fill="#E31E25"/>
<path d="M154.483 88.2754H148.965V93.7926H154.483V88.2754Z" fill="#E31E25"/>
<path d="M160 88.2754H154.483V93.7926H160V88.2754Z" fill="#E31E25"/>
<path d="M11.0343 93.793H5.51709V99.3102H11.0343V93.793Z" fill="#E31E25"/>
<path d="M22.069 93.793H16.5518V99.3102H22.069V93.793Z" fill="#E31E25"/>
<path d="M44.1378 93.793H38.6206V99.3102H44.1378V93.793Z" fill="#E31E25"/>
<path d="M66.2067 93.793H60.6895V99.3102H66.2067V93.793Z" fill="#E31E25"/>
<path d="M71.7243 93.793H66.207V99.3102H71.7243V93.793Z" fill="#E31E25"/>
<path d="M82.7585 93.793H77.2412V99.3102H82.7585V93.793Z" fill="#E31E25"/>
<path d="M93.7931 93.793H88.2759V99.3102H93.7931V93.793Z" fill="#E31E25"/>
<path d="M104.828 93.793H99.3105V99.3102H104.828V93.793Z" fill="#E31E25"/>
<path d="M115.862 93.793H110.345V99.3102H115.862V93.793Z" fill="#E31E25"/>
<path d="M121.38 93.793H115.862V99.3102H121.38V93.793Z" fill="#E31E25"/>
<path d="M126.897 93.793H121.379V99.3102H126.897V93.793Z" fill="#E31E25"/>
<path d="M132.414 93.793H126.896V99.3102H132.414V93.793Z" fill="#E31E25"/>
<path d="M143.448 93.793H137.931V99.3102H143.448V93.793Z" fill="#E31E25"/>
<path d="M148.965 93.793H143.448V99.3102H148.965V93.793Z" fill="#E31E25"/>
<path d="M160 93.793H154.483V99.3102H160V93.793Z" fill="#E31E25"/>
<path d="M5.51724 99.3105H0V104.828H5.51724V99.3105Z" fill="#E31E25"/>
<path d="M16.5519 99.3105H11.0347V104.828H16.5519V99.3105Z" fill="#E31E25"/>
<path d="M22.069 99.3105H16.5518V104.828H22.069V99.3105Z" fill="#E31E25"/>
<path d="M38.6208 99.3105H33.1035V104.828H38.6208V99.3105Z" fill="#E31E25"/>
<path d="M44.1378 99.3105H38.6206V104.828H44.1378V99.3105Z" fill="#E31E25"/>
<path d="M55.1725 99.3105H49.6553V104.828H55.1725V99.3105Z" fill="#E31E25"/>
<path d="M66.2067 99.3105H60.6895V104.828H66.2067V99.3105Z" fill="#E31E25"/>
<path d="M71.7243 99.3105H66.207V104.828H71.7243V99.3105Z" fill="#E31E25"/>
<path d="M77.2414 99.3105H71.7241V104.828H77.2414V99.3105Z" fill="#E31E25"/>
<path d="M99.3102 99.3105H93.793V104.828H99.3102V99.3105Z" fill="#E31E25"/>
<path d="M121.38 99.3105H115.862V104.828H121.38V99.3105Z" fill="#E31E25"/>
<path d="M132.414 99.3105H126.896V104.828H132.414V99.3105Z" fill="#E31E25"/>
<path d="M154.483 99.3105H148.965V104.828H154.483V99.3105Z" fill="#E31E25"/>
<path d="M160 99.3105H154.483V104.828H160V99.3105Z" fill="#E31E25"/>
<path d="M11.0343 104.827H5.51709V110.344H11.0343V104.827Z" fill="#E31E25"/>
<path d="M16.5519 104.827H11.0347V110.344H16.5519V104.827Z" fill="#E31E25"/>
<path d="M22.069 104.827H16.5518V110.344H22.069V104.827Z" fill="#E31E25"/>
<path d="M33.1037 104.827H27.5864V110.344H33.1037V104.827Z" fill="#E31E25"/>
<path d="M44.1378 104.827H38.6206V110.344H44.1378V104.827Z" fill="#E31E25"/>
<path d="M55.1725 104.827H49.6553V110.344H55.1725V104.827Z" fill="#E31E25"/>
<path d="M60.6896 104.827H55.1724V110.344H60.6896V104.827Z" fill="#E31E25"/>
<path d="M66.2067 104.827H60.6895V110.344H66.2067V104.827Z" fill="#E31E25"/>
<path d="M71.7243 104.827H66.207V110.344H71.7243V104.827Z" fill="#E31E25"/>
<path d="M88.276 104.827H82.7588V110.344H88.276V104.827Z" fill="#E31E25"/>
<path d="M99.3102 104.827H93.793V110.344H99.3102V104.827Z" fill="#E31E25"/>
<path d="M104.828 104.827H99.3105V110.344H104.828V104.827Z" fill="#E31E25"/>
<path d="M110.345 104.827H104.828V110.344H110.345V104.827Z" fill="#E31E25"/>
<path d="M126.897 104.827H121.379V110.344H126.897V104.827Z" fill="#E31E25"/>
<path d="M132.414 104.827H126.896V110.344H132.414V104.827Z" fill="#E31E25"/>
<path d="M137.931 104.827H132.414V110.344H137.931V104.827Z" fill="#E31E25"/>
<path d="M143.448 104.827H137.931V110.344H143.448V104.827Z" fill="#E31E25"/>
<path d="M154.483 104.827H148.965V110.344H154.483V104.827Z" fill="#E31E25"/>
<path d="M5.51724 110.345H0V115.862H5.51724V110.345Z" fill="#E31E25"/>
<path d="M16.5519 110.345H11.0347V115.862H16.5519V110.345Z" fill="#E31E25"/>
<path d="M22.069 110.345H16.5518V115.862H22.069V110.345Z" fill="#E31E25"/>
<path d="M33.1037 110.345H27.5864V115.862H33.1037V110.345Z" fill="#E31E25"/>
<path d="M38.6208 110.345H33.1035V115.862H38.6208V110.345Z" fill="#E31E25"/>
<path d="M49.6549 110.345H44.1377V115.862H49.6549V110.345Z" fill="#E31E25"/>
<path d="M93.7931 110.345H88.2759V115.862H93.7931V110.345Z" fill="#E31E25"/>
<path d="M99.3102 110.345H93.793V115.862H99.3102V110.345Z" fill="#E31E25"/>
<path d="M115.862 110.345H110.345V115.862H115.862V110.345Z" fill="#E31E25"/>
<path d="M121.38 110.345H115.862V115.862H121.38V110.345Z" fill="#E31E25"/>
<path d="M126.897 110.345H121.379V115.862H126.897V110.345Z" fill="#E31E25"/>
<path d="M132.414 110.345H126.896V115.862H132.414V110.345Z" fill="#E31E25"/>
<path d="M137.931 110.345H132.414V115.862H137.931V110.345Z" fill="#E31E25"/>
<path d="M49.6549 115.862H44.1377V121.38H49.6549V115.862Z" fill="#E31E25"/>
<path d="M55.1725 115.862H49.6553V121.38H55.1725V115.862Z" fill="#E31E25"/>
<path d="M60.6896 115.862H55.1724V121.38H60.6896V115.862Z" fill="#E31E25"/>
<path d="M66.2067 115.862H60.6895V121.38H66.2067V115.862Z" fill="#E31E25"/>
<path d="M71.7243 115.862H66.207V121.38H71.7243V115.862Z" fill="#E31E25"/>
<path d="M77.2414 115.862H71.7241V121.38H77.2414V115.862Z" fill="#E31E25"/>
<path d="M93.7931 115.862H88.2759V121.38H93.7931V115.862Z" fill="#E31E25"/>
<path d="M99.3102 115.862H93.793V121.38H99.3102V115.862Z" fill="#E31E25"/>
<path d="M110.345 115.862H104.828V121.38H110.345V115.862Z" fill="#E31E25"/>
<path d="M115.862 115.862H110.345V121.38H115.862V115.862Z" fill="#E31E25"/>
<path d="M137.931 115.862H132.414V121.38H137.931V115.862Z" fill="#E31E25"/>
<path d="M148.965 115.862H143.448V121.38H148.965V115.862Z" fill="#E31E25"/>
<path d="M154.483 115.862H148.965V121.38H154.483V115.862Z" fill="#E31E25"/>
<path d="M160 115.862H154.483V121.38H160V115.862Z" fill="#E31E25"/>
<path d="M60.6896 121.379H55.1724V126.896H60.6896V121.379Z" fill="#E31E25"/>
<path d="M66.2067 121.379H60.6895V126.896H66.2067V121.379Z" fill="#E31E25"/>
<path d="M82.7585 121.379H77.2412V126.896H82.7585V121.379Z" fill="#E31E25"/>
<path d="M93.7931 121.379H88.2759V126.896H93.7931V121.379Z" fill="#E31E25"/>
<path d="M104.828 121.379H99.3105V126.896H104.828V121.379Z" fill="#E31E25"/>
<path d="M110.345 121.379H104.828V126.896H110.345V121.379Z" fill="#E31E25"/>
<path d="M115.862 121.379H110.345V126.896H115.862V121.379Z" fill="#E31E25"/>
<path d="M126.897 121.379H121.379V126.896H126.897V121.379Z" fill="#E31E25"/>
<path d="M137.931 121.379H132.414V126.896H137.931V121.379Z" fill="#E31E25"/>
<path d="M143.448 121.379H137.931V126.896H143.448V121.379Z" fill="#E31E25"/>
<path d="M154.483 121.379H148.965V126.896H154.483V121.379Z" fill="#E31E25"/>
<path d="M160 121.379H154.483V126.896H160V121.379Z" fill="#E31E25"/>
<path d="M60.6896 126.896H55.1724V132.414H60.6896V126.896Z" fill="#E31E25"/>
<path d="M66.2067 126.896H60.6895V132.414H66.2067V126.896Z" fill="#E31E25"/>
<path d="M71.7243 126.896H66.207V132.414H71.7243V126.896Z" fill="#E31E25"/>
<path d="M77.2414 126.896H71.7241V132.414H77.2414V126.896Z" fill="#E31E25"/>
<path d="M82.7585 126.896H77.2412V132.414H82.7585V126.896Z" fill="#E31E25"/>
<path d="M88.276 126.896H82.7588V132.414H88.276V126.896Z" fill="#E31E25"/>
<path d="M99.3102 126.896H93.793V132.414H99.3102V126.896Z" fill="#E31E25"/>
<path d="M104.828 126.896H99.3105V132.414H104.828V126.896Z" fill="#E31E25"/>
<path d="M115.862 126.896H110.345V132.414H115.862V126.896Z" fill="#E31E25"/>
<path d="M137.931 126.896H132.414V132.414H137.931V126.896Z" fill="#E31E25"/>
<path d="M143.448 126.896H137.931V132.414H143.448V126.896Z" fill="#E31E25"/>
<path d="M154.483 126.896H148.965V132.414H154.483V126.896Z" fill="#E31E25"/>
<path d="M160 126.896H154.483V132.414H160V126.896Z" fill="#E31E25"/>
<path d="M49.6549 132.414H44.1377V137.931H49.6549V132.414Z" fill="#E31E25"/>
<path d="M60.6896 132.414H55.1724V137.931H60.6896V132.414Z" fill="#E31E25"/>
<path d="M71.7243 132.414H66.207V137.931H71.7243V132.414Z" fill="#E31E25"/>
<path d="M82.7585 132.414H77.2412V137.931H82.7585V132.414Z" fill="#E31E25"/>
<path d="M88.276 132.414H82.7588V137.931H88.276V132.414Z" fill="#E31E25"/>
<path d="M93.7931 132.414H88.2759V137.931H93.7931V132.414Z" fill="#E31E25"/>
<path d="M99.3102 132.414H93.793V137.931H99.3102V132.414Z" fill="#E31E25"/>
<path d="M115.862 132.414H110.345V137.931H115.862V132.414Z" fill="#E31E25"/>
<path d="M121.38 132.414H115.862V137.931H121.38V132.414Z" fill="#E31E25"/>
<path d="M126.897 132.414H121.379V137.931H126.897V132.414Z" fill="#E31E25"/>
<path d="M132.414 132.414H126.896V137.931H132.414V132.414Z" fill="#E31E25"/>
<path d="M137.931 132.414H132.414V137.931H137.931V132.414Z" fill="#E31E25"/>
<path d="M154.483 132.414H148.965V137.931H154.483V132.414Z" fill="#E31E25"/>
<path d="M160 132.414H154.483V137.931H160V132.414Z" fill="#E31E25"/>
<path d="M55.1725 137.931H49.6553V143.448H55.1725V137.931Z" fill="#E31E25"/>
<path d="M60.6896 137.931H55.1724V143.448H60.6896V137.931Z" fill="#E31E25"/>
<path d="M82.7585 137.931H77.2412V143.448H82.7585V137.931Z" fill="#E31E25"/>
<path d="M93.7931 137.931H88.2759V143.448H93.7931V137.931Z" fill="#E31E25"/>
<path d="M99.3102 137.931H93.793V143.448H99.3102V137.931Z" fill="#E31E25"/>
<path d="M104.828 137.931H99.3105V143.448H104.828V137.931Z" fill="#E31E25"/>
<path d="M132.414 137.931H126.896V143.448H132.414V137.931Z" fill="#E31E25"/>
<path d="M137.931 137.931H132.414V143.448H137.931V137.931Z" fill="#E31E25"/>
<path d="M148.965 137.931H143.448V143.448H148.965V137.931Z" fill="#E31E25"/>
<path d="M154.483 137.931H148.965V143.448H154.483V137.931Z" fill="#E31E25"/>
<path d="M160 137.931H154.483V143.448H160V137.931Z" fill="#E31E25"/>
<path d="M49.6549 143.448H44.1377V148.965H49.6549V143.448Z" fill="#E31E25"/>
<path d="M71.7243 143.448H66.207V148.965H71.7243V143.448Z" fill="#E31E25"/>
<path d="M82.7585 143.448H77.2412V148.965H82.7585V143.448Z" fill="#E31E25"/>
<path d="M99.3102 143.448H93.793V148.965H99.3102V143.448Z" fill="#E31E25"/>
<path d="M104.828 143.448H99.3105V148.965H104.828V143.448Z" fill="#E31E25"/>
<path d="M110.345 143.448H104.828V148.965H110.345V143.448Z" fill="#E31E25"/>
<path d="M115.862 143.448H110.345V148.965H115.862V143.448Z" fill="#E31E25"/>
<path d="M121.38 143.448H115.862V148.965H121.38V143.448Z" fill="#E31E25"/>
<path d="M132.414 143.448H126.896V148.965H132.414V143.448Z" fill="#E31E25"/>
<path d="M137.931 143.448H132.414V148.965H137.931V143.448Z" fill="#E31E25"/>
<path d="M143.448 143.448H137.931V148.965H143.448V143.448Z" fill="#E31E25"/>
<path d="M160 143.448H154.483V148.965H160V143.448Z" fill="#E31E25"/>
<path d="M55.1725 148.966H49.6553V154.483H55.1725V148.966Z" fill="#E31E25"/>
<path d="M82.7585 148.966H77.2412V154.483H82.7585V148.966Z" fill="#E31E25"/>
<path d="M99.3102 148.966H93.793V154.483H99.3102V148.966Z" fill="#E31E25"/>
<path d="M110.345 148.966H104.828V154.483H110.345V148.966Z" fill="#E31E25"/>
<path d="M115.862 148.966H110.345V154.483H115.862V148.966Z" fill="#E31E25"/>
<path d="M132.414 148.966H126.896V154.483H132.414V148.966Z" fill="#E31E25"/>
<path d="M137.931 148.966H132.414V154.483H137.931V148.966Z" fill="#E31E25"/>
<path d="M154.483 148.966H148.965V154.483H154.483V148.966Z" fill="#E31E25"/>
<path d="M49.6549 154.482H44.1377V160H49.6549V154.482Z" fill="#E31E25"/>
<path d="M55.1725 154.482H49.6553V160H55.1725V154.482Z" fill="#E31E25"/>
<path d="M60.6896 154.482H55.1724V160H60.6896V154.482Z" fill="#E31E25"/>
<path d="M66.2067 154.482H60.6895V160H66.2067V154.482Z" fill="#E31E25"/>
<path d="M71.7243 154.482H66.207V160H71.7243V154.482Z" fill="#E31E25"/>
<path d="M82.7585 154.482H77.2412V160H82.7585V154.482Z" fill="#E31E25"/>
<path d="M88.276 154.482H82.7588V160H88.276V154.482Z" fill="#E31E25"/>
<path d="M93.7931 154.482H88.2759V160H93.7931V154.482Z" fill="#E31E25"/>
<path d="M99.3102 154.482H93.793V160H99.3102V154.482Z" fill="#E31E25"/>
<path d="M110.345 154.482H104.828V160H110.345V154.482Z" fill="#E31E25"/>
<path d="M115.862 154.482H110.345V160H115.862V154.482Z" fill="#E31E25"/>
<path d="M126.897 154.482H121.379V160H126.897V154.482Z" fill="#E31E25"/>
<path d="M132.414 154.482H126.896V160H132.414V154.482Z" fill="#E31E25"/>
<path d="M137.931 154.482H132.414V160H137.931V154.482Z" fill="#E31E25"/>
<path d="M143.448 154.482H137.931V160H143.448V154.482Z" fill="#E31E25"/>
<path d="M154.483 154.482H148.965V160H154.483V154.482Z" fill="#E31E25"/>
<path d="M160 154.482H154.483V160H160V154.482Z" fill="#E31E25"/>
<path d="M32.8281 0.000976562H5.79359H0.000488281V5.79408V32.8286V38.6217H5.79359H32.8281H38.6212V32.8286V5.79408V0.000976562H32.8281ZM32.8281 32.8286H5.79359V5.79408H32.8281V32.8286Z" fill="#E31E25"/>
<path d="M154.207 0.000976562H127.173H121.38V5.79408V32.8286V38.6217H127.173H154.207H160.001V32.8286V5.79408V0.000976562H154.207ZM154.207 32.8286H127.173V5.79408H154.207V32.8286Z" fill="#E31E25"/>
<path d="M32.8281 121.38H5.79359H0.000488281V127.173V154.207V160.001H5.79359H32.8281H38.6212V154.207V127.173V121.38H32.8281ZM32.8281 154.207H5.79359V127.173H32.8281V154.207Z" fill="#E31E25"/>
<path d="M27.5854 11.0342H11.0337V27.5859H27.5854V11.0342Z" fill="#E31E25"/>
<path d="M148.965 11.0342H132.413V27.5859H148.965V11.0342Z" fill="#E31E25"/>
<path d="M27.5854 132.413H11.0337V148.965H27.5854V132.413Z" fill="#E31E25"/>
</svg>
