<svg width="146.417480" height="165.847656" viewBox="0 0 146.417 165.848" fill="none" xmlns="http://www.w3.org/2000/svg" xmlns:xlink="http://www.w3.org/1999/xlink">
	<desc>
			Created with Pixso.
	</desc>
	<defs/>
	<path id="Vector" d="M140.03 118.21C140.03 118.21 152.48 54.5 117.95 48.29C83.42 42.08 86.96 54.78 54.46 36.65C21.96 18.51 0.77 53.19 3.37 88.02C5.98 122.85 30.23 166.84 60.97 162.46C91.71 158.07 131.01 150.75 140.03 118.21Z" fill="#EAEAEA" fill-opacity="1.000000" fill-rule="nonzero"/>
	<path id="Vector" d="M44.29 42.02C43.65 42.32 43.17 42.95 42.53 43.25C42.21 43.41 42.67 44.37 42.99 44.21C44.9 43.29 46.51 41.74 48.42 40.82C50.18 39.58 51.94 38.34 53.7 37.1C57.37 34.94 61.04 32.78 64.71 30.62C72.06 26.3 79.55 22.31 87.05 18.31C94.7 14.63 102.35 10.95 110.31 7.91C112.22 6.99 114.29 6.39 116.2 5.47C117.16 5.01 118.12 4.55 119.23 4.41C119.86 4.11 121.14 3.5 121.92 4.3C122.38 5.26 122.84 6.22 123.3 7.18C123.76 8.14 124.22 9.1 124.68 10.06C125.61 11.97 126.21 14.04 127.29 16.28C130.48 25.37 134.46 34.48 138.29 43.26C138.61 43.11 138.78 42.64 138.94 42.16C120.29 51.52 102.4 62.49 85.62 74.1C80.66 77.66 76.02 81.07 71.38 84.48C71.85 84.65 72.32 84.82 72.64 84.66C65.51 73.92 57.92 63.01 50.15 52.58C47.98 49.69 45.8 46.8 43.47 43.59C42.69 42.78 41.73 44.03 42.19 44.99C49.95 55.43 57.4 66.02 65 76.93C67.17 79.82 69.18 83.18 71.35 86.07C71.51 86.39 72.3 86.4 72.62 86.25C88.95 73.68 106.21 62.23 124.23 52.38C129.35 49.14 134.29 46.37 139.71 43.76C140.03 43.61 140.2 43.13 140.21 42.34C136.36 34.35 132.84 26.21 129.16 17.74C127.17 13.58 125.64 9.6 123.64 5.44C122.87 3.84 122.42 2.09 120.2 2.37C119.57 2.68 118.61 3.14 117.5 3.28C116.54 3.74 115.43 3.88 114.16 4.49C97.92 10.72 81.98 18.38 66.98 27.17C63.14 29.8 58.83 32.27 54.68 35.05C52.6 36.45 50.52 37.84 48.76 39.08C46.69 40.47 44.14 41.7 42.53 43.25C42.68 43.57 43.16 43.74 43.31 44.06C43.79 43.43 43.96 42.96 44.44 42.33C44.76 42.18 44.45 41.54 44.29 42.02Z" fill="#1F0600" fill-opacity="1.000000" fill-rule="nonzero"/>
	<path id="Vector" d="M43.17 45.7C42.38 45.69 43.18 44.91 43.18 44.91C43.5 44.76 43.82 44.6 44.29 44.77C44.93 44.46 45.72 44.48 46.36 44.17C47.79 43.88 49.22 43.58 50.64 43.29C53.5 42.7 56.36 42.12 59.22 41.53C64.93 40.36 70.17 39.02 75.89 37.84C78.43 37.41 81.29 36.82 83.99 35.92C86.54 34.69 88.62 33.3 90.54 31.59C92.79 29.72 94.56 27.69 96.33 25.66C98.42 23.47 100.34 21.76 102.43 19.57C106.93 15.05 111.27 10.21 115.77 5.68C116.25 5.06 115.32 3.93 114.83 4.56C110.66 8.93 106.48 13.3 102.3 17.67C99.89 20.01 97.8 22.19 95.71 24.38C93.62 26.56 91.53 28.75 89.29 30.61C87.2 32.8 84.33 34.18 81.63 35.08C78.61 36.14 75.59 36.41 72.74 37C66.7 38.32 60.67 39.65 54.63 40.98C51.14 41.87 47.96 42.61 44.79 43.35C43.68 43.49 41.93 43.94 42.07 45.05C42.06 45.84 42.69 46.33 43.17 45.7Z" fill="#1F0600" fill-opacity="1.000000" fill-rule="nonzero"/>
	<path id="Vector" d="M79.53 45.93C81.61 44.54 83.84 43.47 85.92 42.07C86.87 41.61 88 40.68 88.95 40.22C89.91 39.76 90.86 39.3 91.51 38.2C91.83 38.05 91.36 37.88 91.36 37.88C90.25 38.02 89.13 38.96 88.17 39.41C87.22 39.87 86.09 40.81 85.14 41.27C83.06 42.66 80.98 44.05 78.9 45.45C78.59 45.6 79.21 46.08 79.53 45.93Z" fill="#1F0600" fill-opacity="1.000000" fill-rule="nonzero"/>
	<path id="Vector" d="M82.96 49.79C85.83 48.41 88.86 46.56 91.58 44.86C94.29 43.16 97.33 41.31 100.04 39.61C102.76 37.91 105.79 36.06 108.51 34.36C110.1 33.6 111.22 32.66 112.81 31.9C113.45 31.59 114.41 31.13 114.89 30.5C115.21 30.35 115.85 30.04 116.17 29.89C116.49 29.74 116.49 29.74 116.81 29.58C117.12 29.43 117.12 29.43 117.12 29.43C116.81 29.58 116.64 30.06 116.96 29.91C117.43 30.07 117.92 29.45 117.76 29.12C117.3 28.17 116.34 28.63 115.71 28.93C112.67 30.79 110.28 32.33 107.41 33.71C101.98 37.11 96.86 40.35 91.43 43.75C88.4 45.6 85.37 47.46 82.48 49.63C82.48 49.63 82.64 49.95 82.96 49.79Z" fill="#1F0600" fill-opacity="1.000000" fill-rule="nonzero"/>
	<path id="Vector" d="M86.18 56.51C91.45 53.58 96.56 50.34 101.36 47.25C106.47 44 111.73 41.08 116.85 37.83C118.44 37.06 119.56 36.13 121.15 35.37C122.43 34.75 124.02 33.99 124.99 32.73C125.31 32.58 125 31.94 124.68 32.09C123.26 32.39 122.13 33.32 120.86 33.93C119.58 34.55 118.46 35.48 116.87 36.25C114.63 38.11 112.23 39.66 109.36 41.04C104.25 44.28 99.14 47.53 94.02 50.77C91.31 52.47 88.59 54.17 86.18 56.51Z" fill="#1F0600" fill-opacity="1.000000" fill-rule="nonzero"/>
	<path id="Vector" d="M87.37 62.23C97.75 56.06 108.29 49.42 118.67 43.25C121.7 41.4 124.42 39.7 127.6 38.17C128.24 37.86 127.78 36.9 127.14 37.21C116.45 43.53 106.07 49.7 95.53 56.34C92.49 58.2 89.78 59.9 86.9 62.07C86.9 62.07 87.05 62.39 87.37 62.23Z" fill="#1F0600" fill-opacity="1.000000" fill-rule="nonzero"/>
</svg>
