<svg width="189.937500" height="189.757812" viewBox="0 0 189.938 189.758" fill="none" xmlns="http://www.w3.org/2000/svg" xmlns:xlink="http://www.w3.org/1999/xlink">
	<desc>
			Created with Pixso.
	</desc>
	<defs>
		<clipPath id="clip2183_5391">
			<rect id="Frame" rx="0.000000" width="128.000000" height="67.000000" transform="translate(27.500000 16.500000)" fill="white" fill-opacity="0"/>
		</clipPath>
	</defs>
	<path id="Vector" d="M160.13 70.22C160.13 70.22 128.81 13.42 98.64 30.38C68.48 47.34 79.3 54.86 43.04 61.38C6.78 67.9 12.9 107.87 37.16 133C61.42 158.13 107.96 176.67 128.47 153.96C148.98 131.25 174.11 100.9 160.13 70.22Z" fill="#EAEAEA" fill-opacity="1.000000" fill-rule="nonzero"/>
	<rect id="Frame" rx="0.000000" width="128.000000" height="67.000000" transform="translate(27.500000 16.500000)" fill="#FFFFFF" fill-opacity="0"/>
	<g clip-path="url(#clip2183_5391)">
		<path id="Vector" d="M48.95 42.72C52.33 34.06 55.81 25.45 59.41 16.89C58.94 16.89 58.48 16.89 58.02 16.89C60.7 23.79 63.22 30.75 65.6 37.75C65.67 37.97 65.85 38.22 66.1 38.26C70.01 38.87 73.89 38.68 77.81 38.31C79.89 38.12 81.97 37.89 84.05 37.75C85.24 37.68 86.43 37.63 87.62 37.64C88.78 37.65 90.14 37.63 89.87 39.31C89.74 40.1 88.48 41.35 88 41.98C87.38 42.79 86.75 43.58 86.08 44.35C84.87 45.75 83.56 47.08 82.18 48.32C79.42 50.8 76.92 51.63 77.37 55.71C77.76 59.31 79.44 62.52 80.81 65.8C81.61 67.7 82.29 69.64 82.81 71.63C83.14 72.87 84.64 77.29 83.56 78.08C82.64 78.75 81.75 77.81 80.82 77.24C79.96 76.71 79.1 76.17 78.25 75.62C76.55 74.51 74.87 73.36 73.22 72.16C69.59 69.52 66.12 66.68 62.78 63.66C62.5 63.41 62.04 63.37 61.76 63.66C55.69 70.23 49.4 76.6 42.92 82.76C43.33 82.93 43.74 83.11 44.15 83.28C43.95 75.66 44.14 68.04 44.73 60.44C44.75 60.22 44.59 59.91 44.37 59.82C38.33 57.14 32.94 53.41 28.22 48.78C28.17 49.16 28.12 49.54 28.07 49.91C34.25 46.31 41.02 44.16 48.17 43.75C49.1 43.7 49.1 42.26 48.17 42.31C40.78 42.73 33.74 44.94 27.35 48.67C26.95 48.9 26.87 49.47 27.2 49.8C29.44 52 31.82 54.03 34.38 55.84C35.73 56.79 37.12 57.68 38.55 58.51C39.26 58.91 39.98 59.31 40.7 59.68C41.15 59.91 42.58 60.37 42.9 60.74C43.74 61.69 42.97 64.93 42.91 66.15C42.81 68.05 42.73 69.96 42.68 71.86C42.59 75.67 42.6 79.47 42.7 83.28C42.71 83.91 43.48 84.22 43.93 83.79C50.41 77.63 56.7 71.26 62.77 64.69C62.43 64.69 62.09 64.69 61.75 64.69C64.96 67.58 68.29 70.33 71.78 72.9C73.53 74.19 75.33 75.43 77.15 76.63C78.73 77.66 80.45 79.04 82.23 79.7C84.7 80.62 85.59 78.88 85.28 76.63C84.71 72.53 83.56 68.58 81.93 64.78C81.02 62.66 80.01 60.59 79.37 58.37C79.04 57.26 78.72 56.04 78.73 54.88C78.76 52.83 80.06 51.94 81.39 50.87C84.45 48.41 87.15 45.54 89.48 42.39C90.58 40.9 93.16 37.43 90.1 36.35C88.67 35.84 86.43 36.19 84.94 36.26C82.56 36.38 80.18 36.65 77.81 36.87C75.3 37.11 72.78 37.31 70.26 37.23C69.67 37.21 69.07 37.22 68.49 37.13C67.12 36.89 66.96 36.58 66.38 35.62C65.79 34.62 65.56 33.22 65.17 32.12C63.34 26.88 61.42 21.68 59.41 16.5C59.14 15.81 58.29 15.84 58.02 16.5C54.42 25.07 50.93 33.68 47.57 42.34C47.23 43.21 48.62 43.58 48.95 42.72Z" fill="#1F0600" fill-opacity="1.000000" fill-rule="nonzero"/>
		<path id="Vector" d="M74.91 30.61C90.68 27.09 106.54 24.05 122.48 21.47C123.4 21.32 123.01 19.93 122.1 20.08C106.16 22.66 90.29 25.71 74.53 29.22C73.63 29.42 74.01 30.81 74.91 30.61Z" fill="#1F0600" fill-opacity="1.000000" fill-rule="nonzero"/>
		<path id="Vector" d="M98.48 46.5C117.25 42.74 136.22 40.08 155.31 38.52C156.22 38.45 156.24 37.01 155.31 37.08C136.09 38.64 116.99 41.33 98.09 45.11C97.18 45.3 97.57 46.69 98.48 46.5Z" fill="#1F0600" fill-opacity="1.000000" fill-rule="nonzero"/>
		<path id="Vector" d="M94.18 61.09C114.57 58.87 134.94 56.5 155.3 53.96C156.2 53.84 156.22 52.4 155.3 52.51C134.95 55.05 114.57 57.42 94.18 59.64C93.27 59.75 93.26 61.19 94.18 61.09Z" fill="#1F0600" fill-opacity="1.000000" fill-rule="nonzero"/>
	</g>
</svg>
