<svg width="78.983398" height="74.002930" viewBox="0 0 78.9834 74.0029" fill="none" xmlns="http://www.w3.org/2000/svg" xmlns:xlink="http://www.w3.org/1999/xlink">
	<desc>
			Created with Pixso.
	</desc>
	<defs/>
	<path id="Vector" d="M21.21 29.76C21.83 25.68 22.44 21.61 23.05 17.53C23.65 13.5 23.95 9.26 24.89 5.3C25.09 4.48 24.99 3.69 25.92 3.69C26.75 3.69 27.46 4.98 28 5.56C29.34 7.02 30.68 8.49 32.03 9.95C34.98 13.17 37.93 16.38 40.89 19.6C41.3 20.05 41.91 20.05 42.44 19.82C51.29 16 60.64 13.68 70.26 12.88C69.87 12.52 69.49 12.17 69.11 11.81C67.45 16.69 65.25 21.34 62.41 25.66C60.37 28.75 57.85 30.58 60.18 34.1C65.61 42.34 70.14 50.59 73.09 60.06C73.33 59.68 73.56 59.3 73.8 58.91C67.32 60.06 61.23 57.45 55.51 54.74C52.29 53.22 47.83 49.66 44.51 52.41C41.21 55.14 39.24 59.61 37.34 63.34C36.21 65.54 35.09 67.76 33.7 69.81C32.74 71.23 32 72.06 30.53 70.63C29.57 69.7 28.95 67.96 28.51 66.72C27.5 63.88 27.24 60.87 27.05 57.89C26.9 55.53 27.27 52.27 26.34 50.06C25.82 48.82 25.09 48.19 23.82 47.82C21.16 47.06 17.96 47.33 15.21 47.05C12.15 46.74 9.09 46.34 6.05 45.85C5.29 45.73 4.53 45.6 3.77 45.46C2.11 45.02 2.05 44.34 3.58 43.41C4.45 42.46 5.36 41.54 6.32 40.68C10.51 36.9 15.47 34.19 20.86 32.53C22.25 32.1 21.41 30.45 20.15 30.84C16.01 32.12 12.09 33.95 8.53 36.44C6.79 37.66 5.13 39.02 3.6 40.51C2.55 41.53 0.52 43.1 0.09 44.56C-0.81 47.57 5.1 47.54 6.7 47.79C9.37 48.2 12.04 48.54 14.73 48.81C17.32 49.07 21.58 48.48 23.41 50.36C25.18 52.18 24.69 56.12 24.86 58.59C25.02 60.92 25.25 63.25 25.84 65.52C26.49 68.02 28.41 73.61 31.58 73.98C34.42 74.32 36.51 69.37 37.6 67.41C39.68 63.65 41.34 59.6 43.93 56.14C44.86 54.89 45.98 53.08 47.78 53.29C49.09 53.45 50.92 54.68 52.1 55.23C54.64 56.43 57.15 57.68 59.76 58.71C64.52 60.58 69.43 61.5 74.5 60.6C75.04 60.51 75.37 59.95 75.21 59.45C72.69 51.34 69.1 43.63 64.43 36.53C62.81 34.06 60.93 32 62.61 29.01C63.62 27.21 65 25.57 66.05 23.77C68.21 20.09 69.92 16.19 71.29 12.15C71.52 11.48 70.68 11.04 70.14 11.08C60.13 11.92 50.43 14.37 41.21 18.35C41.72 18.43 42.24 18.5 42.76 18.58C39 14.48 35.23 10.39 31.48 6.29C29.92 4.59 27.16 -0.01 24.26 1.96C23.28 2.63 22.93 3.9 22.7 4.97C22.12 7.64 21.88 10.42 21.47 13.12C20.66 18.56 19.85 23.99 19.03 29.42C18.84 30.66 21.04 30.89 21.21 29.76Z" fill="#1F0600" fill-opacity="1.000000" fill-rule="nonzero"/>
	<path id="Vector" d="M44.53 10.09C45.46 6.95 46.72 3.97 48.29 1.1C48.62 0.5 46.6 -0.44 46.23 0.22C44.66 3.08 43.4 6.07 42.47 9.21C42.25 9.94 44.33 10.75 44.53 10.09Z" fill="#1F0600" fill-opacity="1.000000" fill-rule="nonzero"/>
	<path id="Vector" d="M68.98 34.15C72.11 33.56 75.18 32.77 78.21 31.75C79.52 31.31 79.03 29.78 77.71 30.22C74.87 31.17 72 31.94 69.06 32.49C67.86 32.72 67.53 34.43 68.98 34.15Z" fill="#1F0600" fill-opacity="1.000000" fill-rule="nonzero"/>
	<path id="Vector" d="M49.67 64.14C49.37 67.31 49.85 70.35 51.13 73.27C51.51 74.13 53.67 74.07 53.18 72.94C52.02 70.29 51.58 67.5 51.86 64.63C51.95 63.6 49.76 63.15 49.67 64.14Z" fill="#1F0600" fill-opacity="1.000000" fill-rule="nonzero"/>
	<path id="Vector" d="M14.92 57.05C11.09 59.05 7.58 62.15 2.99 61.76C1.87 61.66 2.96 63.57 3.8 63.64C8.55 64.05 12.16 60.95 16.13 58.87C17.05 58.4 15.69 56.65 14.92 57.05Z" fill="#1F0600" fill-opacity="1.000000" fill-rule="nonzero"/>
	<path id="Vector" d="M5.21 20.89C6.71 20.89 5.85 19.63 4.75 19.63C3.25 19.63 4.11 20.89 5.21 20.89Z" fill="#1F0600" fill-opacity="1.000000" fill-rule="nonzero"/>
	<path id="Vector" d="M4.21 20.98C7.31 22.16 10.42 23.34 13.53 24.52C14.29 24.81 16.09 23.54 15.05 23.15C11.94 21.97 8.83 20.79 5.73 19.61C4.96 19.32 3.17 20.59 4.21 20.98Z" fill="#1F0600" fill-opacity="1.000000" fill-rule="nonzero"/>
</svg>
