<svg width="16" height="17" viewBox="0 0 16 17" fill="none" xmlns="http://www.w3.org/2000/svg">
<path d="M1.8011 2.54282C1.79715 2.53709 1.68214 2.50689 1.80357 2.48242L1.8011 2.54282Z" fill="white"/>
<path d="M1.80323 2.48251C1.75633 2.4294 1.75929 2.306 1.75288 2.29923C1.73659 2.28153 1.42313 2.14095 1.35896 2.10137L1.24888 1.97589C1.24197 1.85874 1.37969 1.93892 1.45127 1.92382C1.48829 1.91601 1.53272 1.78793 1.62305 1.93111L1.73955 1.8754C1.92269 1.94986 2.12063 2.00974 2.30475 2.08055C3.65088 2.59654 4.97726 3.74514 6.0435 4.77503C6.56576 5.27957 7.04359 5.80701 7.56141 6.31935C7.60041 6.35788 7.63101 6.43494 7.70111 6.41568C7.80477 6.2928 7.93262 6.16003 8.03036 6.03663C9.45004 4.24707 10.9512 2.45804 12.5263 0.75335L12.6409 0.758036C12.7124 0.520609 12.861 0.52946 12.9459 0.257148C12.9504 0.24309 13.1404 0.05773 13.1542 0.0540853C13.211 0.0395064 13.2776 0.0894911 13.328 0.000976562L13.4425 0.00566263C13.6696 0.177485 14.1598 0.0212828 14.413 0.106673C14.4441 0.117087 14.4915 0.221222 14.5231 0.232156C14.6238 0.267041 14.7403 0.230594 14.7166 0.421681L14.8883 0.42897L14.8276 0.516964L14.9362 0.672646L14.8197 0.728358L14.9915 0.735647C14.9273 0.997546 14.7595 1.18343 14.9654 1.42971L14.8498 1.45522C14.8153 1.54373 14.9022 1.5984 14.9012 1.6083C14.8997 1.626 14.7822 1.815 14.8316 1.93788L14.7171 1.9332C14.7057 1.94413 14.7299 1.99568 14.7136 2.02379C14.5793 2.25601 13.9243 2.82251 13.7002 3.06983C12.3486 4.56104 11.0277 6.14337 9.74522 7.68039C9.61787 7.83347 9.42289 7.92771 9.38389 8.149C9.414 8.17556 9.43671 8.22137 9.46632 8.24324C9.97674 8.61709 10.4018 9.27834 10.9329 9.63396L10.9285 9.75476C11.7459 10.4306 12.4992 11.2725 13.2766 12.0889C13.5314 12.3566 14.2269 13.0001 14.3508 13.2521C14.3616 13.274 14.412 13.3307 14.4332 13.3464C14.7472 13.577 15.4792 14.5059 15.7774 14.9438C15.8213 15.0078 15.9111 15.0719 15.9422 15.1318C15.9492 15.1453 15.9324 15.1729 15.9398 15.1922C15.9689 15.2671 16.0222 15.2994 15.9882 15.4358C15.9827 15.4582 15.8786 15.5806 15.8667 15.6123C15.806 15.7743 15.7818 15.9935 15.732 16.1507C15.7093 16.2215 15.4575 16.6771 15.3958 16.711C15.3686 16.7261 15.3213 16.6964 15.3099 16.7073C15.2877 16.7287 15.3553 16.7781 15.1598 16.8823C15.0468 16.9427 14.9535 17.0359 14.8118 16.9885C14.7719 16.9749 14.6869 16.8135 14.647 16.8005C14.5245 16.7594 14.4327 16.776 14.3083 16.6657C14.0936 16.8474 14.0033 16.6021 13.8572 16.4657C12.8847 15.554 11.9838 14.294 11.0543 13.2662C10.578 12.7393 9.94712 12.0822 9.51075 11.6302L7.88819 9.80995C7.90596 9.90315 7.86697 9.90732 7.8255 9.95834C7.05149 10.9143 6.23848 11.788 5.43041 12.6997C4.52905 13.7171 3.57684 14.8985 2.4795 15.7503C2.20208 15.9659 1.83827 16.1262 1.5416 16.3158C1.41425 16.397 1.2084 16.6651 1.07463 16.5381L1.01046 16.7167L0.95764 16.5938C0.915682 16.6235 0.878166 16.6875 0.838676 16.7099C0.725635 16.7729 0.523247 16.7953 0.374171 16.8718C0.343566 16.8875 0.317403 16.9395 0.284824 16.9588C0.197452 17.0093 0.095764 16.9713 0 16.9749C0.0355413 16.8292 0.158949 16.7573 0.241385 16.6526C0.690093 16.0809 1.10277 15.5358 1.50853 14.9526C3.01509 12.7861 4.58384 10.5498 6.1057 8.49473C6.18616 8.38591 6.32141 8.26407 6.40533 8.14432C6.3999 8.10474 6.41817 8.05997 6.40977 8.02352C6.3925 7.94906 5.5558 7.05663 5.42054 6.89418C4.54089 5.84033 3.59708 4.72088 2.73421 3.63892C2.45087 3.28382 2.21294 2.96205 1.88221 2.66631C1.83482 2.62413 1.82495 2.57935 1.80076 2.54186L1.91528 2.54655L1.91775 2.48615L1.80323 2.48251ZM14.1978 16.599C14.1607 16.5975 14.1583 16.6579 14.1953 16.6594C14.2323 16.661 14.2348 16.6006 14.1978 16.599Z" fill="white"/>
</svg>
