<svg width="102" height="43" viewBox="0 0 102 43" fill="none" xmlns="http://www.w3.org/2000/svg">
<path d="M3.25592 5.66611C1.69469 12.4193 0.590413 19.244 0.171548 26.0608C-0.0569242 29.7675 -0.310782 33.7685 1.27583 37.3797C2.30395 39.7183 4.99484 40.2274 8.47269 40.7444C21.7621 42.7011 67.0978 42.1603 80.6791 41.9296C85.9975 41.8421 91.925 41.7626 96.9514 40.5456C100.455 39.7024 100.683 38.549 100.988 36.3855C101.902 29.7437 102.232 23.0303 101.572 16.3726C101.14 12.1091 100.874 4.05939 93.5751 1.82424C89.983 0.726553 84.2331 0.933364 80.3364 0.686782C74.0281 0.289069 36.7651 0.845831 30.4187 0.814014C22.6252 0.774242 7.85074 0.440163 3.31938 5.5468C2.77359 6.15132 4.75368 6.15928 5.17254 5.68997C8.65039 1.78443 19.9597 1.87988 26.0269 1.74466C34.8231 1.54581 74.5865 1.21176 83.3193 1.81629C86.1498 2.01514 89.2849 2.06287 92.0266 2.54808C94.5778 3.00147 95.9487 4.99004 96.7991 6.38203C99.3884 10.6376 99.6423 15.5374 99.8581 20.0315C100.087 24.6052 99.82 29.1869 99.3504 33.7447C99.0838 36.3377 99.985 39.0581 95.4156 39.9569C89.4245 41.1342 82.5958 41.0546 76.3889 41.0705C68.4432 41.0944 29.5809 41.5955 21.686 41.0705C16.5327 40.7285 9.61505 40.641 4.99484 38.9547C0.895042 37.4672 2.02471 30.5391 2.06279 28.2005C2.18972 20.644 3.50977 13.0397 5.23601 5.57066C5.37563 4.95023 3.38285 5.10931 3.25592 5.66611Z" fill="#E31E25"/>
</svg>
