<svg width="102" height="43" viewBox="0 0 102 43" fill="none" xmlns="http://www.w3.org/2000/svg">
<path d="M3.25396 5.66611C1.69274 12.4193 0.588459 19.244 0.169594 26.0608C-0.0588773 29.7675 -0.312735 33.7685 1.27387 37.3797C2.302 39.7183 4.99289 40.2274 8.47074 40.7444C21.7602 42.7011 67.0958 42.1603 80.6772 41.9296C85.9955 41.8421 91.9231 41.7626 96.9494 40.5456C100.453 39.7024 100.681 38.549 100.986 36.3855C101.9 29.7437 102.23 23.0303 101.57 16.3726C101.138 12.1091 100.872 4.05939 93.5731 1.82424C89.9811 0.726553 84.2312 0.933364 80.3345 0.686782C74.0261 0.289069 36.7632 0.845831 30.4167 0.814014C22.6233 0.774242 7.84879 0.440163 3.31743 5.5468C2.77163 6.15132 4.75172 6.15928 5.17059 5.68997C8.64844 1.78443 19.9578 1.87988 26.025 1.74466C34.8212 1.54581 74.5846 1.21176 83.3173 1.81629C86.1478 2.01514 89.283 2.06287 92.0246 2.54808C94.5759 3.00147 95.9467 4.99004 96.7971 6.38203C99.3865 10.6376 99.6403 15.5374 99.8561 20.0315C100.085 24.6052 99.818 29.1869 99.3484 33.7447C99.0819 36.3377 99.983 39.0581 95.4136 39.9569C89.4226 41.1342 82.5938 41.0546 76.387 41.0705C68.4412 41.0944 29.579 41.5955 21.684 41.0705C16.5307 40.7285 9.6131 40.641 4.99289 38.9547C0.893089 37.4672 2.02275 30.5391 2.06083 28.2005C2.18776 20.644 3.50782 13.0397 5.23405 5.57066C5.37367 4.95023 3.38089 5.10931 3.25396 5.66611Z" fill="#54483C"/>
</svg>
