<svg width="27" height="15" viewBox="0 0 27 15" fill="none" xmlns="http://www.w3.org/2000/svg">
<g clip-path="url(#clip0_2390_98)">
<path d="M26.5335 1.12861C23.1294 0.210122 19.2559 0.286175 15.7501 0.15162C11.9106 -0.000485995 7.98061 -0.146742 4.15808 0.297876C3.50214 0.373929 3.46821 1.35677 4.15808 1.38602C7.86186 1.54398 11.577 1.38017 15.2864 1.52057C18.9506 1.66098 22.7392 2.38641 26.3864 2.2343C26.9858 2.2109 27.1442 1.29242 26.5335 1.12861Z" fill="#E31E25"/>
<path d="M25.7249 8.67548C22.2586 7.37088 17.8367 7.32407 14.1895 7.08421C10.3839 6.83265 6.38608 6.6162 2.61444 7.26557C2.21296 7.33577 2.35432 7.9208 2.70491 7.9559C6.51048 8.31861 10.3669 8.16651 14.1838 8.44732C17.9555 8.72813 21.8232 9.78117 25.5779 9.76362C26.2056 9.75777 26.2734 8.88609 25.7249 8.67548Z" fill="#E31E25"/>
<path d="M25.5778 13.4028C17.6161 12.9289 9.17373 12.1508 1.24028 13.1921C0.810531 13.2507 0.810531 13.8298 1.24028 13.8825C5.26073 14.3739 9.37164 14.2569 13.4147 14.4031C17.4691 14.5494 21.5234 14.7542 25.5778 14.994C26.5674 15.0584 26.5674 13.4613 25.5778 13.4028Z" fill="#E31E25"/>
</g>
<defs>
<clipPath id="clip0_2390_98">
<rect width="26" height="15" fill="white" transform="translate(0.917969)"/>
</clipPath>
</defs>
</svg>
