<svg width="27" height="15" viewBox="0 0 27 15" fill="none" xmlns="http://www.w3.org/2000/svg">
<g clip-path="url(#clip0_2183_279)">
<path d="M26.5315 1.12861C23.1274 0.210122 19.254 0.286175 15.7481 0.15162C11.9086 -0.000485995 7.97865 -0.146742 4.15612 0.297876C3.50019 0.373929 3.46626 1.35677 4.15612 1.38602C7.85991 1.54398 11.575 1.38017 15.2844 1.52057C18.9486 1.66098 22.7372 2.38641 26.3845 2.2343C26.9839 2.2109 27.1422 1.29242 26.5315 1.12861Z" fill="#54483C"/>
<path d="M25.723 8.67548C22.2567 7.37088 17.8348 7.32407 14.1875 7.08421C10.3819 6.83265 6.38412 6.6162 2.61248 7.26557C2.211 7.33577 2.35237 7.9208 2.70296 7.9559C6.50852 8.31861 10.365 8.16651 14.1819 8.44732C17.9535 8.72813 21.8213 9.78117 25.5759 9.76362C26.2036 9.75777 26.2715 8.88609 25.723 8.67548Z" fill="#54483C"/>
<path d="M25.5759 13.4028C17.6141 12.9289 9.17178 12.1508 1.23833 13.1921C0.808578 13.2507 0.808578 13.8298 1.23833 13.8825C5.25877 14.3739 9.36969 14.2569 13.4128 14.4031C17.4671 14.5494 21.5215 14.7542 25.5759 14.994C26.5654 15.0584 26.5654 13.4613 25.5759 13.4028Z" fill="#54483C"/>
</g>
<defs>
<clipPath id="clip0_2183_279">
<rect width="26" height="15" fill="white" transform="translate(0.916016)"/>
</clipPath>
</defs>
</svg>
