<svg width="29" height="8" viewBox="0 0 29 8" fill="none" xmlns="http://www.w3.org/2000/svg">
<path d="M24.8665 7.39935C26.124 6.48349 27.3845 5.57179 28.642 4.65592C28.9483 4.43382 29.0237 3.79931 28.668 3.52673C27.3321 2.50102 25.995 1.47681 24.6591 0.451106C24.5083 0.336457 24.3709 0.255627 24.1865 0.264777C24.029 0.272592 23.8491 0.359105 23.7524 0.496092C23.5648 0.764029 23.541 1.27385 23.8455 1.50731C24.6704 2.13881 25.4954 2.77175 26.319 3.40332C25.4358 3.39542 24.5521 3.38322 23.6684 3.37103C21.7851 3.34521 19.9003 3.3166 18.0168 3.28792C15.9091 3.25599 13.8012 3.2212 11.6935 3.18928C9.75576 3.15898 7.81805 3.12867 5.88073 3.10266C4.52812 3.08356 3.1768 3.0644 1.82512 3.05531C1.71574 3.05499 1.60763 3.05461 1.49812 3.05286C1.16087 3.05091 0.873882 3.42723 0.923615 3.79977C0.977394 4.20229 1.26935 4.48091 1.62978 4.48315C2.89244 4.48947 4.15487 4.5073 5.41858 4.52506C7.30185 4.55088 9.18666 4.57949 11.0702 4.60817C13.1779 4.6401 15.2858 4.67489 17.3935 4.70681C19.3312 4.73711 21.2689 4.76742 23.2063 4.79343C24.1325 4.80638 25.0598 4.81785 25.9857 4.82794C25.3586 5.28292 24.7315 5.73789 24.1046 6.1943C23.8308 6.39323 23.7488 6.87145 23.9654 7.18399C24.1867 7.50635 24.5723 7.61366 24.8665 7.39935Z" fill="#E31E25"/>
</svg>
