<svg width="16" height="4" viewBox="0 0 16 4" fill="none" xmlns="http://www.w3.org/2000/svg">
<path d="M2.36151 3.85332C1.66369 3.36433 0.964334 2.87747 0.266519 2.38847C0.096549 2.26987 0.0459612 1.93993 0.235328 1.80249C0.946451 1.2853 1.65822 0.768891 2.36934 0.251698C2.44963 0.193904 2.52313 0.153503 2.62357 0.160295C2.70937 0.166096 2.80851 0.212964 2.86319 0.28509C2.96928 0.426145 2.98994 0.690843 2.82784 0.808556C2.3887 1.12696 1.94952 1.4461 1.51109 1.76454C1.99139 1.77024 2.47185 1.77372 2.9523 1.7772C3.97624 1.7847 5.00097 1.79077 6.02501 1.79679C7.17092 1.80361 8.31692 1.80895 9.46283 1.81578C10.5163 1.82156 11.5698 1.82734 12.6231 1.83534C13.3585 1.84044 14.0932 1.84549 14.8283 1.85577C14.8878 1.85682 14.9466 1.85782 15.0061 1.85812C15.1895 1.86085 15.3513 2.05923 15.3299 2.25191C15.3067 2.46009 15.1521 2.60137 14.9561 2.59853C14.2694 2.5878 13.583 2.58304 12.896 2.57823C11.872 2.57073 10.8473 2.56467 9.82327 2.55865C8.67736 2.55182 7.53136 2.54648 6.38545 2.53966C5.33197 2.53388 4.27848 2.5281 3.22515 2.5201C2.72158 2.51654 2.21736 2.5122 1.71388 2.50716C2.06185 2.75011 2.40981 2.99305 2.75772 3.23674C2.9096 3.34296 2.96146 3.59191 2.84837 3.75162C2.73283 3.91637 2.52475 3.96775 2.36151 3.85332Z" fill="#222221"/>
</svg>
