<svg width="17" height="4" viewBox="0 0 17 4" fill="none" xmlns="http://www.w3.org/2000/svg">
<path d="M13.8914 3.85332C14.5892 3.36433 15.2886 2.87747 15.9864 2.38847C16.1564 2.26987 16.207 1.93993 16.0176 1.80249C15.3065 1.2853 14.5947 0.768891 13.8836 0.251698C13.8033 0.193904 13.7298 0.153503 13.6294 0.160295C13.5436 0.166096 13.4444 0.212964 13.3897 0.28509C13.2836 0.426145 13.263 0.690843 13.4251 0.808556C13.8642 1.12696 14.3034 1.4461 14.7418 1.76454C14.2615 1.77024 13.7811 1.77372 13.3006 1.7772C12.2767 1.7847 11.252 1.79077 10.2279 1.79679C9.08201 1.80361 7.93601 1.80895 6.7901 1.81578C5.73662 1.82156 4.68314 1.82734 3.6298 1.83534C2.8944 1.84044 2.15969 1.84549 1.42464 1.85577C1.36515 1.85682 1.30636 1.85782 1.24682 1.85812C1.06341 1.86085 0.901634 2.05923 0.923058 2.25191C0.946229 2.46009 1.10082 2.60137 1.29683 2.59853C1.9835 2.5878 2.66988 2.58304 3.35696 2.57823C4.38089 2.57073 5.40563 2.56467 6.42966 2.55865C7.57557 2.55182 8.72157 2.54648 9.86748 2.53966C10.921 2.53388 11.9744 2.5281 13.0278 2.5201C13.5314 2.51654 14.0356 2.5122 14.539 2.50716C14.1911 2.75011 13.8431 2.99305 13.4952 3.23674C13.3433 3.34296 13.2915 3.59191 13.4046 3.75162C13.5201 3.91637 13.7282 3.96775 13.8914 3.85332Z" fill="#222221"/>
</svg>
