<svg width="41" height="9" viewBox="0 0 41 9" fill="none" xmlns="http://www.w3.org/2000/svg">
<path d="M6.21876 8.03629C4.37903 7.09033 2.53523 6.14849 0.695496 5.20253C0.247383 4.9731 0.114013 4.33483 0.613263 4.06895C2.48808 3.06844 4.3646 2.06945 6.23942 1.06894C6.45108 0.95714 6.64486 0.878984 6.90967 0.892122C7.13586 0.903345 7.39723 0.994011 7.54141 1.13354C7.82111 1.40641 7.87558 1.91847 7.4482 2.14618C6.29046 2.76213 5.13259 3.3795 3.9767 3.99554C5.24298 4.00657 6.50966 4.0133 7.77634 4.02003C10.4759 4.03454 13.1775 4.04627 15.8773 4.05792C18.8984 4.07112 21.9197 4.08145 24.9408 4.09465C27.7182 4.10583 30.4956 4.11701 33.2727 4.13249C35.2115 4.14236 37.1485 4.15213 39.0864 4.17202C39.2432 4.17404 39.3982 4.17598 39.5552 4.17657C40.0387 4.18186 40.4653 4.56561 40.4088 4.93835C40.3477 5.34107 39.9401 5.61438 39.4234 5.60888C37.613 5.58813 35.8034 5.57892 33.992 5.56963C31.2925 5.55512 28.5909 5.54338 25.8911 5.53173C22.87 5.51853 19.8486 5.5082 16.8275 5.495C14.0501 5.48382 11.2727 5.47264 8.49568 5.45716C7.16805 5.45028 5.83872 5.44188 4.51135 5.43214C5.42872 5.90212 6.34609 6.3721 7.26333 6.84351C7.66377 7.04899 7.80048 7.53059 7.50232 7.83954C7.19773 8.15824 6.64914 8.25764 6.21876 8.03629Z" fill="#E31E25"/>
</svg>
