<svg width="232" height="179" viewBox="0 0 232 179" fill="none" xmlns="http://www.w3.org/2000/svg">
<g clip-path="url(#clip0_2183_1364)">
<path d="M146.797 80.3668C149.856 77.858 152.176 74.7142 154.368 71.4823C158.676 65.1404 163.488 59.2011 168.6 53.4955C171.824 49.899 176.082 48.7622 179.69 50.2279C183.275 51.6963 184.506 54.4385 183.182 58.0645C181.282 63.2476 177.741 67.2299 173.812 70.9259C168.075 76.3339 161.567 80.7139 154.934 84.9111C154.056 85.4688 153.19 86.052 152.431 87.1087C153.486 86.8583 154.542 86.6079 155.593 86.367C164.542 84.3111 173.559 83.7654 182.651 85.179C183.969 85.3832 185.278 85.7326 186.531 86.179C189.818 87.3503 190.317 90.1819 187.707 92.5322C185.86 94.1991 183.439 94.5891 181.014 95.4661C181.784 96.6111 182.995 96.6707 183.98 97.0325C186.9 98.1045 189.46 99.7385 191.703 101.875C193.496 103.576 193.65 105.499 191.733 107.066C188.117 110.003 184.147 111.911 179.298 110.205C175.583 108.892 172.063 107.182 168.672 105.198C164.218 102.593 159.397 100.96 154.339 99.8692C158.257 101.923 162.237 103.861 166.077 106.047C174.046 110.584 181.874 115.401 189.902 119.832C195.685 123.028 201.814 125.52 208.402 126.636C209.193 126.769 209.944 126.866 210.213 127.748C210.486 128.652 209.883 129.212 209.282 129.677C206.483 131.844 203.757 134.131 200.823 136.08C192.377 141.669 183.952 147.32 175.285 152.576C161.535 160.926 146.948 162.3 131.783 156.833C127.702 155.358 124.545 152.747 122.044 149.159C118.879 144.635 115.787 140.083 112.978 135.335C110.762 131.573 107.496 128.732 104.417 125.724C103.604 124.936 102.728 124.624 101.575 124.701C95.1641 125.145 88.9669 126.122 83.0226 128.951C69.8054 135.24 55.8757 132.624 44.5555 122.444C36.4563 115.142 31.0298 106.447 27.9671 95.8545C24.9097 85.3067 20.9391 75.0279 18.3659 64.3129C18.3254 64.1286 18.2439 63.9403 18.2256 63.7533C18.1067 62.2991 16.8348 60.6251 18.2599 59.4556C19.7268 58.2584 20.8468 60.0906 22.0439 60.6339C28.7098 63.6457 35.6768 65.544 42.8774 66.8461C55.0632 69.0538 67.4794 69.8999 79.5247 73.0979C74.7624 70.7325 69.8202 68.9611 64.5553 68.1256C61.0589 67.57 57.6458 66.6618 54.2406 65.6716C49.1722 64.195 46.9548 60.3476 45.7499 55.7145C44.9733 52.7096 46.2852 51.2025 49.3961 50.9626C53.4003 50.6589 57.1647 51.7134 60.8447 53.1837C61.3886 51.955 60.392 51.5044 59.9974 50.8542C59.0915 49.3744 58.1789 47.9134 57.9428 46.1626C57.4861 42.8258 59.6138 41.0254 62.7681 42.0643C65.8059 43.0723 68.4495 44.7997 71.0051 46.655C77.1541 51.1175 82.637 56.2875 87.1769 62.406C87.6631 63.0675 88.2292 63.6832 89.1249 64.1191C88.2362 61.3396 87.3407 58.579 86.4648 55.7935C84.1573 48.4745 82.3421 41.055 81.9433 33.3546C81.763 29.8084 81.9903 26.28 83.1231 22.862C84.8137 17.8486 90.1693 16.5825 94.0266 20.3559C96.4049 22.6788 97.4875 25.5698 97.5526 28.8733C97.6949 36.4293 97.7774 43.9746 97.085 51.5199C96.7388 55.2925 96.544 59.0872 97.3682 62.8522C98.6238 55.4545 100.741 48.3212 103.495 41.3939C105.213 37.08 107.726 33.4531 112.637 32.2412C116.28 31.3417 118.376 32.6403 118.967 36.3752C119.848 41.9759 118.378 47.0571 114.979 51.4724C110.647 57.1054 106.944 63.0896 104.309 69.741C106.184 67.1606 108.033 64.5606 109.943 62.003C112.069 59.162 114.404 56.5119 116.956 54.056C118.86 52.2289 121.026 51.0366 123.686 52.2709C126.346 53.5052 126.028 56.067 125.83 58.2897C125.329 64.0771 122.076 68.1412 117.323 71.2035C115.505 72.3713 113.387 73.1028 111.604 74.9197C113.341 75.7935 115.113 75.9469 116.384 77.3551C117.992 75.4334 119.176 73.3923 121.659 72.5892C123.124 74.5866 122.917 76.9546 122.668 79.3818C124.513 79.6252 126.136 80.1076 127.948 80.8912C128.017 78.7292 127.028 77.1559 126.407 75.5016C124.632 70.7714 124.124 66.0577 126.206 61.2579C126.79 59.9161 127.511 58.6974 128.5 57.6486C129.68 56.3918 130.847 55.024 132.883 55.537C135.051 56.0971 136.327 57.5497 136.799 59.6817C137.509 62.875 137.609 66.1381 137.537 69.3818C137.448 73.3842 137.205 77.3741 137.154 81.39C139.144 74.6146 140.083 67.688 140.262 60.6289C140.406 55.1599 142.361 50.3576 146.402 46.5532C149.502 43.6341 152.053 43.9805 154.482 47.4147C157.254 51.343 156.905 55.571 155.572 59.7883C153.348 66.9258 150.531 73.8201 146.797 80.3668ZM102.231 121.549C105.333 124.076 106.812 121.801 108.411 120.024C110.573 117.62 112.62 115.154 115.118 113.029C125.074 104.57 136.225 103.129 148.472 106.654C157.503 109.255 165.358 114.262 173.58 118.508C181.98 122.849 190.144 127.615 198.996 131.076C202.218 132.341 204.204 131.446 206.124 128.945C205.828 128.734 205.63 128.514 205.398 128.453C193.45 125.13 182.952 118.81 172.47 112.475C163.044 106.782 153.63 101.113 142.673 98.7064C132.121 96.3803 122.551 98.3633 113.919 104.832C111.819 106.408 110.225 108.229 109.709 111.049C109.273 113.463 108.204 115.778 107.259 118.074C106.836 119.081 106.155 120.367 104.724 119.825C103.346 119.313 103.662 117.95 103.84 116.824C104.197 114.51 105.271 112.419 106.465 110.499C108.019 107.984 108.058 105.461 107.42 102.782C105.249 93.5899 100.273 86.3713 92.2056 81.395C83.7286 76.1668 74.2314 73.9509 64.5485 72.4651C49.9155 70.2135 35.0766 68.8971 21.2802 62.8671C21.1516 62.8107 20.9439 62.9171 20.5914 62.9826C20.6825 65.945 21.498 67.9765 24.8353 69.0381C33.8917 71.925 43.2262 73.4353 52.4763 75.3615C61.9154 77.3231 71.5772 78.4511 80.4831 82.5052C91.426 87.4867 98.9377 95.3646 101.022 107.54C101.844 112.207 102.43 116.938 102.231 121.549ZM33.3214 73.8237C34.0286 77.5895 34.5821 80.982 35.3233 84.3246C37.1472 92.554 41.2161 99.4283 46.9709 105.682C55.8415 115.318 67.1841 120.548 78.889 125.387C80.9433 126.236 82.7973 126.366 84.9391 125.568C88.9774 124.066 93.1383 122.906 97.4992 122.793C99.0846 122.752 99.7379 122.051 99.6748 120.5C99.5782 118.119 99.5575 115.734 99.4386 113.356C99.091 105.78 96.9689 98.9837 91.682 93.2042C87.4096 88.5398 82.2888 85.4521 76.5115 83.224C70.2229 80.7924 63.5808 79.8592 57.0119 78.6016C49.2333 77.1042 41.4923 75.4715 33.3214 73.8237ZM189.222 129.399C188.808 129.071 188.549 128.756 188.216 128.616C181.346 125.701 175.055 121.666 168.413 118.291C162.29 115.186 156.474 111.458 149.859 109.345C137.459 105.384 125.87 106.149 115.931 115.485C113.222 118.023 110.937 121.009 108.38 123.718C107.183 124.99 107.678 125.867 108.756 126.803C112.252 129.864 114.766 133.711 117.201 137.604C117.945 138.793 118.775 139.651 120.158 140.09C132.772 144.107 145.367 147.193 158.942 145.5C171.293 143.967 180.564 137.641 189.222 129.399ZM77.7343 127.556C72.2325 124.852 66.6732 122.787 61.5311 119.819C45.867 110.777 34.6689 98.497 32.1071 79.8242C31.8731 78.1272 31.4426 76.4452 31.107 74.7651C30.949 73.987 30.7157 73.3306 29.8424 73.0407C27.5305 72.2595 25.2515 71.4157 22.9436 70.5935C22.4322 72.0885 23.0093 72.9417 23.2952 73.8079C25.7213 81.3601 28.5482 88.8004 30.5768 96.4552C33.6147 107.952 40.3711 116.728 49.7077 123.536C58.0778 129.661 67.2334 132.954 77.7343 127.556ZM199.747 134.062C192.09 130.049 191.954 129.895 186.228 135.179C173.475 146.931 158.261 149.706 141.705 147.756C134.707 146.93 127.989 144.749 121.019 142.977C123.562 148.564 127.361 152.678 131.594 154.356C145.104 159.7 158.411 158.878 171.214 152.293C177.14 149.245 182.623 145.328 188.257 141.73C192.03 139.306 195.72 136.756 199.747 134.062ZM120.491 76.9712C120.271 76.8718 120.049 76.7819 119.829 76.6825C119.239 77.7142 118.639 78.7425 118.077 79.7842C117.709 80.4598 117.427 81.2511 116.527 81.3023C115.539 81.3642 115.424 80.5268 115.077 79.8302C113.877 77.4176 111.108 76.8769 109.157 78.7188C108.276 79.5516 107.552 80.6311 107.033 81.7307C106.302 83.275 105.37 84.015 103.665 83.3759C102.523 82.9476 101.915 83.612 101.303 84.4345C100.561 85.4441 101.321 86.0227 101.849 86.6566C104.566 89.9069 106.85 93.4172 108.213 97.4589C108.991 99.7743 109.6 102.146 110.378 104.791C115.757 100.062 121.754 97.1134 128.594 95.9727C129.419 95.8315 130.025 95.5593 130.033 94.5536C130.039 93.6428 130.041 92.773 129.014 92.4388C126.931 91.7604 126.916 90.3431 127.392 88.5594C127.659 87.5717 127.691 86.4685 127.592 85.4354C127.371 83.2547 125.453 81.7858 123.462 81.862C122.278 81.9073 121.188 84.1306 120.019 82.2595C119.274 81.0708 120.34 79.6883 120.377 78.3637C120.402 77.9056 120.453 77.4354 120.491 76.9712ZM95.9023 73.1048C93.6488 62.5355 94.9497 52.0011 95.3364 41.4701C95.4939 37.1844 95.2975 32.8788 95.2431 28.5919C95.2163 26.1938 94.4088 24.0802 92.7648 22.348C91.3531 20.8578 89.5761 20.2141 87.5726 20.7423C85.7123 21.226 85.277 22.865 84.9211 24.4898C83.978 28.8353 83.9834 33.2003 84.6083 37.5843C86.2998 49.4927 90.1488 60.7684 94.6979 71.8371C94.8785 72.2836 94.8898 72.967 95.9023 73.1048ZM140.885 89.8103C141.965 89.5478 142.266 89.5381 142.503 89.4101C153.657 83.4585 164.329 76.8042 173.546 68.0389C176.468 65.2586 178.896 62.079 180.716 58.4599C181.471 56.9667 182.082 55.4009 180.889 53.893C179.684 52.3596 177.995 51.7367 176.071 51.9534C173.582 52.2345 171.58 53.4428 169.96 55.339C166.116 59.8401 162.189 64.2794 158.837 69.1575C153.778 76.474 148.347 83.435 140.885 89.8103ZM138.036 86.6617C138.452 86.5975 138.663 86.6303 138.782 86.5346C139.087 86.3037 139.362 86.0405 139.611 85.7577C147.078 77.314 151.157 67.175 154.043 56.4833C154.809 53.6461 154.27 50.8105 152.372 48.3298C151.106 46.6686 149.901 46.5047 148.32 47.8735C145.055 50.7228 142.996 54.416 142.762 58.5578C142.219 68.0987 141.245 77.5075 138.036 86.6617ZM99.9477 73.8773C103.436 64.0267 108.69 56.1638 114.269 48.4278C116.701 45.0585 117.447 40.9082 116.728 36.6393C116.378 34.5825 115.348 33.9288 113.317 34.4154C109.706 35.2839 107.565 37.7482 106.206 40.9371C103.162 48.0798 100.844 55.4494 99.854 63.1751C99.4233 66.44 99.1124 69.7262 99.9477 73.8773ZM141.643 93.5518C153.308 93.5253 164.951 94.637 176.58 93.5787C179.258 93.3331 181.912 93.0048 184.399 91.895C185.612 91.3506 186.907 90.8141 186.903 88.562C171.194 84.3242 156.28 87.5672 141.643 93.5518ZM93.0263 76.2309C85.4548 62.3232 75.9575 50.3939 61.1327 43.7641C59.755 45.3964 60.2941 46.565 60.8371 47.6927C61.9293 49.9608 63.5834 51.8134 65.3533 53.5798C73.8307 62.0247 83.8002 68.6658 93.0263 76.2309ZM82.286 71.2473C75.713 66.4851 70.5882 59.8929 63.1135 56.5292C59.0519 54.7 54.8678 52.9758 50.195 53.1899C48.0263 53.2878 47.5655 54.164 48.1583 56.1055C49.5907 60.7559 52.6447 63.447 57.4328 64.3991C65.8371 66.077 74.3791 67.3687 82.286 71.2473ZM153.138 96.4475C159.412 98.3538 165.434 100.701 171.111 103.923C173.434 105.239 175.879 106.333 178.261 107.543C182.14 109.498 185.669 108.441 189.094 106.338C190.795 105.288 191.146 104.182 189.39 102.824C187.653 101.473 185.813 100.35 183.815 99.3729C173.957 94.5655 163.448 96.9468 153.138 96.4475ZM102.384 80.4777C103.394 80.859 104.336 81.6722 105.05 80.175C107.145 75.7835 110.364 72.4714 114.628 70.1266C116.039 69.3553 117.408 68.4313 118.622 67.3777C121.955 64.4887 123.986 60.934 123.589 56.3554C123.405 54.2515 122.07 53.4998 120.218 54.4961C119.233 55.0262 118.378 55.8469 117.58 56.6561C112.874 61.4336 108.871 66.7697 105.504 72.5552C104.084 74.9901 102.56 77.4512 102.384 80.4777ZM129.91 90.104C131.43 91.5585 132.237 90.7526 132.766 89.0302C135.588 79.7384 135.775 70.2724 134.732 60.7179C134.713 60.5309 134.663 60.3433 134.601 60.1617C133.749 57.5759 132.037 57.1676 130.218 59.1735C128.221 61.3815 127.272 64.0157 127.157 66.9897C127.023 70.3175 128.042 73.3558 129.216 76.4069C130.882 80.7584 130.677 85.2393 129.91 90.104Z" fill="#1F0600"/>
<path d="M78.0182 113.41C62.1787 107.215 54.0483 96.9614 48.2032 84.465C47.9122 83.8517 47.6184 83.2163 48.1749 82.6077C48.6474 82.0861 49.261 82.241 49.7656 82.4632C55.6528 85.0384 61.9675 84.5068 68.1262 84.9494C78.2673 85.6856 86.1617 90.0162 91.652 98.6814C94.0786 102.508 95.3989 106.609 95.36 111.128C95.331 114.546 94.7401 114.983 91.3261 114.733C86.0076 114.346 80.584 114.611 78.0182 113.41ZM92.8532 112.294C93.8115 104.122 87.3593 93.7762 79.2521 90.1023C74.9179 88.1441 70.3875 87.2731 65.6598 87.0749C60.9859 86.8747 56.3053 86.6933 51.4175 85.6632C59.9029 102.667 73.1275 113.759 92.8532 112.294Z" fill="#1F0600"/>
<path d="M43.5088 89.1198C44.6481 90.6298 45.7423 92.0281 46.7787 93.4695C47.083 93.8964 46.9166 94.4529 46.4688 94.6967C46.1905 94.8523 45.6362 94.8884 45.4154 94.7036C44.0181 93.59 42.7182 92.352 42.0994 90.6028C41.9382 90.1314 42.0152 89.6174 42.4542 89.3386C42.7454 89.1769 43.1436 89.1914 43.5088 89.1198Z" fill="#1F0600"/>
<path d="M51.7377 100.109C49.6606 101.142 48.7417 100.146 47.9276 99.1234C47.1257 98.1264 47.501 97.2517 48.5664 96.1981C49.6525 97.5298 50.5904 98.6814 51.7377 100.109Z" fill="#1F0600"/>
<path d="M130.358 132.079C126.576 131.283 122.301 126.745 117.2 123.601C115.47 122.528 116.374 121.003 117.207 119.856C119.428 116.783 122.258 114.352 125.77 112.865C135.626 108.712 145.144 109.141 154.147 115.246C156.437 116.805 158.684 118.423 160.928 120.051C164.026 122.29 167.088 124.602 170.875 125.622C171.504 125.793 172.225 125.976 172.341 126.782C172.46 127.609 171.843 127.942 171.226 128.242C158.895 134.189 146.201 137.012 130.358 132.079ZM167.805 127.087C161.539 123.878 156.559 119.025 150.58 115.695C142.468 111.17 134.111 111.473 125.833 115.371C122.952 116.723 120.673 118.83 118.886 121.431C132.939 135.175 151.125 135.083 167.805 127.087Z" fill="#1F0600"/>
<path d="M124.966 133.746C125.805 134.491 128.132 134.216 127.427 136.045C126.839 137.577 125.258 136.324 124.19 135.954C123.151 135.594 121.663 135.032 122.222 133.671C122.838 132.181 123.972 133.498 124.966 133.746Z" fill="#1F0600"/>
<path d="M118.861 131.455C118.106 131.759 117.909 131.922 117.761 131.891C115.806 131.449 114.659 130.17 114.23 128.276C114.113 127.799 114.647 127.225 115.098 127.417C116.883 128.159 117.899 129.626 118.861 131.455Z" fill="#1F0600"/>
</g>
<defs>
<clipPath id="clip0_2183_1364">
<rect width="204.3" height="116.67" fill="white" transform="translate(39.1558) rotate(19.6097)"/>
</clipPath>
</defs>
</svg>
