<svg width="41" height="40" viewBox="0 0 41 40" fill="none" xmlns="http://www.w3.org/2000/svg">
<g clip-path="url(#clip0_2390_133)">
<path d="M31.0203 33.073C30.6167 31.0289 28.9475 28.8304 27.8574 27.5537C26.4722 25.9283 24.1659 25.7416 22.6681 27.0207C21.2495 28.233 20.6372 28.2273 19.0886 27.1929C16.9041 25.73 15.4335 23.7113 14.1816 21.491C13.0481 19.4755 13.1459 18.9284 15.0301 17.6878C16.3282 16.8387 16.7834 15.7618 16.365 14.2294C15.7311 11.9025 14.665 9.86644 12.9683 8.0777C11.0493 6.04998 10.7222 5.93188 8.46975 7.42651C8.38588 7.48078 8.30657 7.54758 8.21724 7.59285C6.11261 8.67825 5.41817 10.6109 4.99427 12.7305C4.32645 16.0723 5.19155 19.0421 6.70084 22.1205C10.2356 29.3385 15.5064 34.5009 23.4895 37.1043C24.4871 37.5159 25.7199 37.6165 26.9456 37.5485C28.3016 37.4722 29.6277 36.907 30.4694 35.8535C31.1067 35.0508 31.2166 34.0785 31.0203 33.073ZM27.3283 35.892C27.0485 35.9377 26.7669 35.9601 26.4826 35.9629C23.9693 35.9769 21.844 34.8588 19.6866 33.8045C13.6484 30.8592 10.1864 25.733 7.31243 20.0415C5.71479 16.8836 5.56417 13.8092 6.97456 10.6619C7.70348 9.03373 9.323 8.5969 10.8906 8.15052C11.1631 8.0727 11.389 8.25199 11.5347 8.47132C12.6838 10.1838 14.1729 11.707 14.777 13.7268C15.2782 15.4056 14.9818 15.9396 13.3148 16.531C12.6048 16.7845 12.3021 17.2374 12.1796 17.9563C11.8277 19.9618 12.523 21.7018 13.5455 23.378C15.1598 26.0324 17.3394 28.0892 20.1809 29.4745C21.1375 29.94 21.8173 29.9706 22.5048 29.0026C23.1815 28.047 24.3271 27.7461 25.4971 27.7889C26.0284 27.8078 26.5467 28.0281 26.9393 28.3753C27.1424 28.5525 27.3127 28.7668 27.4384 29.0037C27.4766 29.0817 27.4993 29.1596 27.5148 29.2356C27.8508 29.7425 28.1084 30.2824 28.521 30.7484C28.918 31.1991 29.2869 31.6387 29.3777 32.2381C29.385 32.3006 29.3731 32.3468 29.3476 32.3857C29.5851 33.0038 29.6658 33.6575 29.465 34.3032C29.1666 35.2385 28.266 35.7349 27.3283 35.892Z" fill="#E31E25"/>
<path d="M34.5108 22.2155C33.6911 21.247 33.4992 20.6179 33.7511 19.7275C34.6348 16.6345 31.2953 10.8348 27.8566 9.97452C26.4772 9.62785 25.2228 8.83955 23.7301 8.88828C23.3966 8.90117 22.9757 8.77033 22.9485 8.31616C22.9214 7.8923 23.2523 7.69303 23.6105 7.61447C24.1072 7.51083 24.6412 7.33721 25.1196 7.42595C29.2691 8.2111 33.091 9.69666 35.0728 13.6734C36.4647 16.4526 35.7315 19.2773 34.5108 22.2155Z" fill="#E31E25"/>
<path d="M9.18743 32.1044C9.13551 32.0645 9.0845 32.0211 9.03258 31.9812C8.14538 31.2607 7.23997 30.5203 6.52418 29.6316C5.50331 28.3575 4.49631 26.6815 4.50809 25.0169C4.02144 25.1118 3.5519 25.5786 3.44781 25.9991C2.74655 28.7903 4.70132 32.131 7.5094 32.9052C7.91306 32.9671 8.31851 33.0675 8.7231 33.0804C9.26711 33.095 9.96497 33.4183 10.3343 32.9484C9.92068 32.7133 9.539 32.4296 9.18743 32.1044Z" fill="#E31E25"/>
<path d="M24.7578 15.1752C24.2539 15.1253 23.7181 15.1393 23.3894 14.6494C23.2009 14.3698 22.8292 14.1531 22.9697 13.742C23.1249 13.2891 23.5159 13.1735 23.9496 13.2242C24.8608 13.337 25.7676 13.0885 26.6851 13.3431C29.9998 14.2625 31.7849 17.9159 30.4247 21.0343C30.265 21.3988 30.0325 21.6689 29.638 21.5713C28.9774 21.4055 29.0843 20.8228 29.0745 20.3465C29.0148 17.6744 27.4594 15.8045 24.7578 15.1752Z" fill="#E31E25"/>
</g>
<defs>
<clipPath id="clip0_2390_133">
<rect width="33.9968" height="31.3817" fill="white" transform="translate(8.03906 0.785156) rotate(14.4026)"/>
</clipPath>
</defs>
</svg>
