<svg width="41" height="40" viewBox="0 0 41 40" fill="none" xmlns="http://www.w3.org/2000/svg">
<g clip-path="url(#clip0_2183_313)">
<path d="M31.0183 33.073C30.6148 31.0289 28.9455 28.8304 27.8554 27.5537C26.4702 25.9283 24.1639 25.7416 22.6661 27.0207C21.2476 28.233 20.6352 28.2273 19.0866 27.1929C16.9022 25.73 15.4315 23.7113 14.1797 21.491C13.0462 19.4755 13.144 18.9284 15.0282 17.6878C16.3262 16.8387 16.7815 15.7618 16.3631 14.2294C15.7291 11.9025 14.6631 9.86644 12.9663 8.0777C11.0473 6.04998 10.7203 5.93188 8.46779 7.42651C8.38393 7.48078 8.30462 7.54758 8.21529 7.59285C6.11066 8.67825 5.41621 10.6109 4.99232 12.7305C4.3245 16.0723 5.18959 19.0421 6.69889 22.1205C10.2336 29.3385 15.5044 34.5009 23.4875 37.1043C24.4851 37.5159 25.718 37.6165 26.9437 37.5485C28.2996 37.4722 29.6258 36.907 30.4674 35.8535C31.1048 35.0508 31.2146 34.0785 31.0183 33.073ZM27.3263 35.892C27.0465 35.9377 26.7649 35.9601 26.4806 35.9629C23.9674 35.9769 21.842 34.8588 19.6847 33.8045C13.6464 30.8592 10.1844 25.733 7.31048 20.0415C5.71284 16.8836 5.56222 13.8092 6.97261 10.6619C7.70153 9.03373 9.32104 8.5969 10.8886 8.15052C11.1611 8.0727 11.387 8.25199 11.5327 8.47132C12.6818 10.1838 14.171 11.707 14.775 13.7268C15.2763 15.4056 14.9798 15.9396 13.3129 16.531C12.6029 16.7845 12.3001 17.2374 12.1776 17.9563C11.8258 19.9618 12.5211 21.7018 13.5436 23.378C15.1579 26.0324 17.3375 28.0892 20.179 29.4745C21.1355 29.94 21.8153 29.9706 22.5029 29.0026C23.1795 28.047 24.3251 27.7461 25.4952 27.7889C26.0264 27.8078 26.5448 28.0281 26.9374 28.3753C27.1405 28.5525 27.3108 28.7668 27.4364 29.0037C27.4746 29.0817 27.4974 29.1596 27.5128 29.2356C27.8488 29.7425 28.1065 30.2824 28.519 30.7484C28.9161 31.1991 29.2849 31.6387 29.3757 32.2381C29.383 32.3006 29.3711 32.3468 29.3456 32.3857C29.5831 33.0038 29.6639 33.6575 29.4631 34.3032C29.1646 35.2385 28.2641 35.7349 27.3263 35.892Z" fill="#54483C"/>
<path d="M34.5088 22.2155C33.6892 21.247 33.4972 20.6179 33.7492 19.7275C34.6328 16.6345 31.2933 10.8348 27.8547 9.97452C26.4752 9.62785 25.2208 8.83955 23.7282 8.88828C23.3946 8.90117 22.9737 8.77033 22.9466 8.31616C22.9195 7.8923 23.2504 7.69303 23.6085 7.61447C24.1052 7.51083 24.6393 7.33721 25.1177 7.42595C29.2671 8.2111 33.089 9.69666 35.0708 13.6734C36.4627 16.4526 35.7296 19.2773 34.5088 22.2155Z" fill="#54483C"/>
<path d="M9.18547 32.1044C9.13355 32.0645 9.08254 32.0211 9.03062 31.9812C8.14343 31.2607 7.23802 30.5203 6.52222 29.6316C5.50136 28.3575 4.49436 26.6815 4.50614 25.0169C4.01948 25.1118 3.54995 25.5786 3.44586 25.9991C2.7446 28.7903 4.69936 32.131 7.50745 32.9052C7.9111 32.9671 8.31656 33.0675 8.72115 33.0804C9.26516 33.095 9.96302 33.4183 10.3323 32.9484C9.91872 32.7133 9.53705 32.4296 9.18547 32.1044Z" fill="#54483C"/>
<path d="M24.7559 15.1752C24.252 15.1253 23.7161 15.1393 23.3874 14.6494C23.1989 14.3698 22.8273 14.1531 22.9678 13.742C23.1229 13.2891 23.5139 13.1735 23.9477 13.2242C24.8588 13.337 25.7657 13.0885 26.6832 13.3431C29.9978 14.2625 31.783 17.9159 30.4227 21.0343C30.263 21.3988 30.0305 21.6689 29.636 21.5713C28.9754 21.4055 29.0824 20.8228 29.0726 20.3465C29.0129 17.6744 27.4574 15.8045 24.7559 15.1752Z" fill="#54483C"/>
</g>
<defs>
<clipPath id="clip0_2183_313">
<rect width="33.9968" height="31.3817" fill="white" transform="translate(8.03711 0.785156) rotate(14.4026)"/>
</clipPath>
</defs>
</svg>
