<svg width="182.143066" height="293.000000" viewBox="0 0 182.143 293" fill="none" xmlns="http://www.w3.org/2000/svg" xmlns:xlink="http://www.w3.org/1999/xlink">
	<desc>
			Created with Pixso.
	</desc>
	<defs>
		<clipPath id="clip2183_3983">
			<rect id="Frame" rx="0.000000" width="51.000000" height="48.000000" transform="translate(97.500000 244.500000)" fill="white" fill-opacity="0"/>
		</clipPath>
		<clipPath id="clip2183_4002">
			<rect id="Frame" rx="0.000000" width="144.000000" height="142.000000" transform="translate(44.764648 0.500000) rotate(18.031725)" fill="white" fill-opacity="0"/>
		</clipPath>
	</defs>
	<rect id="Frame" rx="0.000000" width="51.000000" height="48.000000" transform="translate(97.500000 244.500000)" fill="#FFFFFF" fill-opacity="0"/>
	<g clip-path="url(#clip2183_3983)">
		<path id="Vector" d="M100.66 261.83C100.95 261.79 101.24 261.66 101.5 261.72C103.64 262.2 105.79 262.62 107.89 263.22C111.31 264.21 114.69 265.34 118.35 266.49C118.35 263.99 117.02 261.84 117.3 259.36C119.02 259.74 119.06 261.14 119.64 262.06C120.23 263 120.7 264.01 121.39 265.34C124.2 258.15 126.21 251 128.75 244C129.7 244.31 129.74 244.89 129.73 245.42C129.7 246.97 129.64 248.52 129.55 250.07C129.25 254.97 128.83 259.85 127.97 264.69C127.89 265.17 127.9 265.67 127.85 266.34C129.26 266.14 130.38 265.51 131.56 265.04C132.66 264.61 133.65 263.65 135.13 264.2C134.77 265.37 133.67 265.76 133.04 266.56C132.44 267.33 131.78 268.07 131.03 268.97C134.26 270.07 137.33 271.04 140.34 272.13C143.29 273.2 146.26 274.26 148.99 275.93C147.48 276.9 146.09 275.92 144.68 275.95C143.24 275.97 141.8 275.89 140.36 275.84C138.86 275.79 137.35 275.76 135.84 275.66C134.4 275.56 132.97 275.39 131.54 275.22C130.07 275.04 128.6 274.83 126.88 274.59C127.97 277.75 130.02 279.92 131.89 282.1C131.57 282.92 131.03 282.82 130.6 282.57C129.65 281.99 128.71 281.37 127.82 280.69C127.18 280.21 126.62 279.62 125.84 278.9C125.75 279.47 125.65 279.8 125.65 280.12C125.63 283.91 125.64 287.69 125.62 291.48C125.62 292.01 125.78 292.64 124.79 292.99C123.5 290.69 122.89 288.13 122.3 285.6C121.7 283.02 121.33 280.39 120.78 277.32C119.28 278.98 118.08 280.32 116.68 281.88C116.02 279.93 117.87 278.88 117.42 277.24C116.08 278.45 114.76 279.62 113.48 280.83C112.21 282.02 110.95 283.23 109.75 284.5C108.54 285.77 107.76 287.44 106.4 288.59C106.27 288.53 106.13 288.46 105.99 288.4C106.06 288.04 106.04 287.64 106.2 287.34C108.69 282.89 111.08 278.37 114.33 274.39C114.6 274.06 114.83 273.69 115.06 273.32C115.11 273.24 115.05 273.1 115.04 272.93C112.68 272.98 110.54 274.61 107.74 274.07C109.58 272.07 111.76 271.15 113.83 269.94C111.68 268.2 109.28 267.13 106.97 265.89C104.81 264.71 102.62 263.53 100.47 262.32C100.51 262.16 100.59 262 100.66 261.83ZM128.65 249.07C128.48 249.03 128.31 249 128.13 248.96C127.46 251.12 126.8 253.28 126.09 255.43C125.38 257.56 124.7 259.69 123.85 261.76C123 263.85 122.89 266.21 121.58 268.26C120.38 267.66 121.02 266.49 120.53 265.76C120.02 265.01 119.64 264.16 119.22 263.36C119 265 119.94 266.42 119.48 268.09C117.96 267.56 116.56 267.02 115.13 266.6C113.69 266.16 112.22 265.85 110.78 265.42C109.4 265.01 108.04 264.51 106.67 264.05C106.63 264.15 106.59 264.26 106.55 264.36C109.87 266.24 113.2 268.11 116.91 270.21C115.12 270.89 113.77 271.41 112.42 271.92C114.1 272.26 115.65 271.08 117.44 271.83C115.56 275.06 112.88 277.51 111.53 280.81C111.94 280.68 112.26 280.47 112.52 280.22C114.2 278.62 115.84 277.02 117.51 275.42C117.94 275.02 118.22 274.34 119.15 274.67C119.04 275.55 118.94 276.46 118.83 277.43C120.35 277.12 120.15 275.15 121.61 275.06C121.97 277.3 122.25 279.45 122.65 281.57C123.07 283.71 123.16 285.94 124.42 288.31C124.51 286.58 124.63 285.29 124.65 283.99C124.67 282.75 124.54 281.51 124.56 280.27C124.58 279.03 124.1 277.76 124.71 276.34C125.63 277.16 126.41 277.85 127.52 278.84C126.96 276.81 125.4 275.58 125.59 273.56C128.63 273.49 131.5 274.22 134.4 274.45C137.28 274.69 140.16 275.02 143.47 274.58C138.41 272.29 133.56 270.8 128.24 269.73C129.24 268.44 130.96 268.14 131.22 266.57C129.61 266.68 128.41 268.09 126.61 267.7C127.3 261.44 127.97 255.26 128.65 249.07Z" fill="#1F0600" fill-opacity="1.000000" fill-rule="nonzero"/>
		<path id="Vector" d="M103.71 275.07C103.24 275.28 103 275.42 102.73 275.52C101.5 275.95 100.25 276.32 99.04 276.79C98.13 277.14 98.15 277.19 97.01 276.28C99.05 275.72 100.97 275.18 102.9 274.68C103.06 274.63 103.29 274.86 103.71 275.07Z" fill="#1F0600" fill-opacity="1.000000" fill-rule="nonzero"/>
		<path id="Vector" d="M97.91 268.81C99.72 268.03 101.57 268.74 103.39 268.58C103.81 268.54 104.24 268.84 104.62 269.14C102.33 269.67 100.1 269.58 97.91 268.81Z" fill="#1F0600" fill-opacity="1.000000" fill-rule="nonzero"/>
		<path id="Vector" d="M114.46 285.8C113.71 286.91 113.11 287.72 112.61 288.6C112.13 289.43 111.77 290.33 111.29 291.35C110.83 289.23 112.19 286.77 114.46 285.8Z" fill="#1F0600" fill-opacity="1.000000" fill-rule="nonzero"/>
		<path id="Vector" d="M131.46 256.08C132.06 254.14 133.39 252.63 134.51 250.87C134.7 252.36 133.46 254.57 131.46 256.08Z" fill="#1F0600" fill-opacity="1.000000" fill-rule="nonzero"/>
		<path id="Vector" d="M107.69 256.94C109.31 258.71 110.73 260.25 112.16 261.81C110.62 261.71 108.29 259.28 107.69 256.94Z" fill="#1F0600" fill-opacity="1.000000" fill-rule="nonzero"/>
		<path id="Vector" d="M116.17 257.73C114.33 255.79 113.03 252.84 113.17 251.15C114.18 253.34 115.18 255.54 116.17 257.73Z" fill="#1F0600" fill-opacity="1.000000" fill-rule="nonzero"/>
		<path id="Vector" d="M133.51 285.99C134.93 287.61 136.19 289.03 137.41 290.4C135.51 290.06 133.72 288.18 133.51 285.99Z" fill="#1F0600" fill-opacity="1.000000" fill-rule="nonzero"/>
		<path id="Vector" d="M131.11 291.3C129.02 289.66 128.19 287.66 128.88 286.12C129.6 287.79 130.3 289.43 131.11 291.3Z" fill="#1F0600" fill-opacity="1.000000" fill-rule="nonzero"/>
		<path id="Vector" d="M100.32 281.62C101.44 280.49 102.02 278.77 104.09 278.71C102.97 279.83 101.85 280.94 100.73 282.05C100.59 281.9 100.45 281.76 100.32 281.62Z" fill="#1F0600" fill-opacity="1.000000" fill-rule="nonzero"/>
		<path id="Vector" d="M119.83 253.57C119.04 252.2 119.23 250.81 119.77 249.41C120.21 250.78 120.19 252.15 119.83 253.57Z" fill="#1F0600" fill-opacity="1.000000" fill-rule="nonzero"/>
		<path id="Vector" d="M135.8 276.78C137.35 277.75 138.58 278.51 139.87 279.32C138.2 279.64 136.61 278.72 135.8 276.78Z" fill="#1F0600" fill-opacity="1.000000" fill-rule="nonzero"/>
		<path id="Vector" d="M137.88 283.96C136.48 283.16 134.85 282.69 133.94 281.23C134.02 281.12 134.1 281 134.17 280.89C135.51 281.79 136.85 282.68 138.19 283.58C138.09 283.71 137.99 283.84 137.88 283.96Z" fill="#1F0600" fill-opacity="1.000000" fill-rule="nonzero"/>
		<path id="Vector" d="M134.35 257.71C135.22 256.56 136.08 255.41 136.94 254.27C136.79 255.92 136 257.13 134.69 257.97C134.57 257.89 134.46 257.8 134.35 257.71Z" fill="#1F0600" fill-opacity="1.000000" fill-rule="nonzero"/>
		<path id="Vector" d="M141.74 259.43C140.68 260.61 139.34 261.34 137.92 261.95C137.83 261.8 137.73 261.65 137.64 261.51C138.91 260.7 140.18 259.88 141.44 259.07C141.54 259.2 141.64 259.31 141.74 259.43Z" fill="#1F0600" fill-opacity="1.000000" fill-rule="nonzero"/>
		<path id="Vector" d="M140.91 265.09C141.03 265.36 141.17 265.68 141.42 266.23C140.33 266.57 139.33 266.87 138.33 267.18C138.28 267.06 138.22 266.94 138.17 266.83C139.03 266.29 139.89 265.74 140.91 265.09Z" fill="#1F0600" fill-opacity="1.000000" fill-rule="nonzero"/>
		<path id="Vector" d="M117.74 287.03C117.5 287.94 117.27 288.84 117.05 289.74C116.9 289.7 116.75 289.66 116.59 289.63C116.82 288.73 117.05 287.83 117.28 286.92C117.42 286.95 117.57 286.99 117.74 287.03Z" fill="#1F0600" fill-opacity="1.000000" fill-rule="nonzero"/>
	</g>
	<rect id="Frame" rx="0.000000" width="144.000000" height="142.000000" transform="translate(44.764648 0.500000) rotate(18.031725)" fill="#FFFFFF" fill-opacity="0"/>
	<g clip-path="url(#clip2183_4002)">
		<path id="Vector" d="M72.91 54.52C73 54.51 73.07 54.5 73.15 54.47C73.51 54.38 73.52 53.93 73.21 53.82C73.19 53.6 73.17 53.39 73.21 53.16C73.29 52.7 73.45 52.28 73.36 51.8C73.29 51.48 72.86 51.3 72.64 51.6C72.19 52.23 71.85 53.49 72.2 54.24C72.33 54.49 72.63 54.63 72.91 54.52ZM37.38 128.56C36.63 127.92 35.84 127.24 35.2 126.46C34.76 125.94 34.04 126.52 34.37 127.08C34.86 127.88 35.55 128.5 36.25 129.13C36.86 129.68 37.51 130.43 38.21 130.85C38.63 131.11 39.35 130.75 39.06 130.21C38.72 129.54 37.96 129.05 37.38 128.56ZM47.67 36.15C46.47 36.97 45.78 38.12 45.09 39.36C44.81 39.84 45.64 40.34 45.93 39.86C46.6 38.79 47.3 37.76 48.36 37.03C48.93 36.65 48.27 35.75 47.67 36.15ZM73.5 18.25C74.75 17.4 76.26 16.78 77.8 16.79C79.73 16.79 80.33 17.89 81.52 19.17C81.82 19.49 82.35 19.32 82.31 18.85C82.15 17.01 80.22 15.84 78.51 15.67C76.47 15.45 74.54 16.36 72.99 17.61C72.59 17.93 73.06 18.54 73.5 18.25ZM77.56 17.72C77.05 17.63 76.78 18.48 77.32 18.63C77.86 18.79 78.34 19.04 78.82 19.33C79.24 19.59 79.6 20.02 80.08 20.18C80.35 20.26 80.75 20.08 80.66 19.74C80.35 18.53 78.67 17.91 77.56 17.72ZM150.94 131.39C150.74 131.31 150.54 131.33 150.38 131.44C147.99 131.35 145.63 132 143.25 132.23C140.21 132.53 137.72 131.61 134.78 131.37C134.54 131.34 134.35 131.45 134.2 131.58C132.41 131.67 130.74 132.05 129 131.26C127.21 130.45 126.39 128.97 125.14 127.59C124.95 127.37 124.62 127.33 124.35 127.43C118.18 123.56 106.24 119.59 104.95 111.97C104.92 111.84 104.87 111.74 104.8 111.64C104.02 110.33 102.66 109.4 101.6 108.38C101.3 108.09 100.96 108.17 100.72 108.4C100.19 108.28 99.64 108.23 99.11 108.09C98.68 107.98 98.26 107.83 97.83 107.7C91.97 100.35 86.63 93.19 83.04 84.37C79.42 75.42 78.59 66.59 77.44 57.17C77.42 57.06 77.38 56.98 77.32 56.89C77.19 56 76.96 55.25 76.49 54.46C76.13 53.9 75.64 53.2 75.01 52.89C74.96 51.81 74.89 50.73 74.93 49.65C74.96 48.98 75.09 48.31 75.06 47.65C76.12 47.02 77.16 46.11 77.38 44.91C77.4 44.8 77.37 44.68 77.33 44.58C77.74 41.88 77.89 39.15 78.12 36.42C78.33 33.92 78.88 31.63 79.49 29.26C81.14 26.56 82.72 23.8 84.38 21.11C85.49 19.31 87.38 16.5 86.01 14.37C84.32 11.75 79.61 12.62 77.12 13.08C73.97 13.65 70.18 14.45 67.22 16.2C56.9 19.95 45.96 28.01 39.67 36.39C39.57 36.52 39.58 36.66 39.62 36.8C38.67 38.17 38.32 39.99 37.23 41.36C36.05 42.83 34.09 43.6 33.07 45.1C22.6 59.77 17.91 77.83 20.96 95.58C20.98 95.68 21.02 95.76 21.07 95.81C21.24 99.17 21.53 103.68 23.32 106.32C24.33 107.79 26.08 108.68 27.15 110.16C29.5 113.43 30.6 118.32 29.13 122.17C28.99 122.58 29.18 122.9 29.47 123.08C39.32 139.49 54.9 154.05 73.96 158.57C76.01 159.45 77.57 161.31 79.69 161.93C81.45 162.45 83.17 161.57 84.89 161.16C92.63 163.36 100.81 162.51 108.62 161.02C116.1 159.6 124.43 158.08 131.21 154.53C134.79 152.66 160.09 135.4 150.94 131.39ZM138.71 147.06C133.11 151.72 127.3 154.62 120.17 156.42C108.13 159.47 96.94 161.11 84.52 159.92C82.91 159.8 81.38 161.02 79.69 160.4C77.96 159.77 76.69 158.21 74.94 157.76C55.42 150.85 42.55 138.99 30.61 122.46C31.98 118.58 31.23 114.13 29.19 110.58C28.08 108.63 26.69 107.83 25.31 106.23C22.72 103.24 22.86 98.22 21.89 94.55C20.8 76.99 24.44 60.77 33.88 45.87C33.91 45.82 33.91 45.79 33.92 45.74C37.19 45.24 41.48 39.66 40.8 36.67C45.05 32.93 49.01 28.97 53.66 25.68C57.23 23.16 61.05 21.2 64.88 19.23C65.07 19.29 65.27 19.3 65.47 19.19C69.11 17.06 73.22 15.79 77.37 15.1C79.43 14.77 85.04 13.66 84.04 17.16C82.94 21.07 78.6 24.22 77.81 28.31C77.56 28.71 77.33 29.14 77.21 29.64C77.17 29.8 77.19 29.95 77.27 30.04C76.65 31.79 76.51 33.75 76.38 35.56C76.14 38.58 75.94 41.61 76 44.66C75.71 45 75.45 45.36 75.17 45.71C74.91 46.02 74.63 46.33 74.34 46.64C74.15 46.64 73.98 46.69 73.87 46.85C73.31 47.73 73.38 48.85 73.41 49.87C73.43 51 73.63 52.04 73.98 53.11C73.92 53.25 73.9 53.4 73.96 53.54C74.2 54.19 74.91 54.63 75.3 55.21C75.67 55.75 76 56.39 76.21 57.04C76.19 57.08 76.16 57.12 76.16 57.19C74.51 74.99 83.73 96.35 96.89 108.34C96.91 108.36 96.91 108.42 96.96 108.43C96.99 108.46 97.04 108.47 97.07 108.48C97.11 108.51 97.15 108.56 97.2 108.61C97.28 108.69 97.37 108.72 97.48 108.72C98.45 109.28 99.7 109.71 100.74 109.52C101.57 110.35 102.49 111.22 103.47 111.91C103.45 111.98 103.44 112.07 103.44 112.16C103.89 116.84 106.44 118.42 110.24 120.84C114.69 123.68 119.3 126.66 124.2 128.65C124.84 130.34 126.56 131.8 128.11 132.57C130.12 133.57 132.24 133.39 134.35 132.86C138.3 135.87 146.09 134.4 150.37 132.65C153.07 134.94 140 145.97 138.71 147.06ZM29.74 79.47C34.11 82.56 36.77 73.26 37.26 70.79C37.37 70.25 36.62 70.13 36.4 70.54C35.57 72.01 35.2 73.6 34.57 75.15C34.46 75.42 34.35 75.7 34.25 75.96C34.01 77.42 33.15 77.89 31.72 77.42C30.46 78.02 29.81 77.81 29.76 76.78C29.6 76.31 29.52 75.82 29.49 75.32C29.26 72.17 30.57 69.11 31.72 66.27C31.98 65.63 31.04 65.25 30.72 65.86C29.4 68.3 28.3 70.93 28.09 73.73C27.93 75.54 28.07 78.3 29.74 79.47ZM32.78 63.59C33.62 63.39 34.36 62.94 35.09 62.5C36.28 63.41 36.76 64.83 36.38 66.33C36.27 66.78 37.06 67.02 37.19 66.56C37.73 64.63 37.07 62.64 35.52 61.35C35.37 61.23 35.12 61.17 34.94 61.27C34.06 61.75 33.08 62.16 32.37 62.87C32.11 63.15 32.41 63.68 32.78 63.59ZM31.68 83.53C34.27 83.36 36.35 80.14 36.62 77.8C36.67 77.43 36.16 77.18 35.93 77.5C34.78 79.1 34.5 81.31 32.54 82.28C31.11 82.98 28.57 82.22 28.75 80.31C28.8 79.81 28.03 79.7 27.96 80.19C27.6 82.3 29.78 83.66 31.68 83.53ZM39.39 65.64C38.27 68.39 37.86 71.63 37.29 74.52C37.18 75.07 38.02 75.17 38.15 74.64C38.9 71.83 39.94 68.77 40.14 65.85C40.18 65.43 39.57 65.21 39.39 65.64ZM59.08 50.05C59.66 49.2 60.39 48.46 60.96 47.6C61.76 46.38 62.34 45.13 62.28 43.65C62.18 41.18 60.17 39.57 57.77 40.48C54.39 41.76 53.69 46.84 53.43 49.88C53.39 50.46 54.25 50.58 54.33 50.02C54.58 48.19 54.95 46.36 55.6 44.62C55.86 43.94 56.17 43.3 56.59 42.7C58.1 42.93 59.62 43.16 61.14 43.42C61.77 44.32 60.21 46.71 59.78 47.32C59.08 48.35 58.2 49.24 57.61 50.35C57.21 51.08 55.73 57.03 53.65 54.79C53.18 54.27 52.29 54.88 52.76 55.45C54.26 57.3 56.32 56.14 57.3 54.39C58.07 52.99 58.16 51.45 59.08 50.05ZM58.51 54.61C60.12 53.21 61.75 51.39 62.38 49.32C62.49 48.92 61.97 48.49 61.69 48.9C60.46 50.69 59.48 52.48 57.96 54.05C57.64 54.37 58.17 54.9 58.51 54.61ZM66.11 96.94C68.51 95.31 69.01 92.15 68.8 89.26C69.51 91.37 69.83 93.44 68.75 95.63C67.58 98.05 65.16 99.54 62.56 100.02C62.05 100.11 62.14 100.9 62.68 100.85C68.78 100.28 73.29 92.83 69.1 87.55C68.95 87.37 68.72 87.36 68.56 87.43C68.51 87.15 68.47 86.86 68.41 86.6C67.78 83.68 66.22 78.76 62.55 78.94C61.91 78.97 61.92 79.96 62.55 80.03C65.87 80.42 67.02 85.89 67.29 88.39C67.62 91.56 67.21 96.15 63.15 96.57C55.86 97.31 56.07 87.75 56.79 83.23C56.89 82.61 55.95 82.49 55.81 83.09C54.82 87.27 54.51 92.33 57.74 95.7C59.88 97.91 63.47 98.74 66.11 96.94ZM61.16 76.1C60.54 76.07 59.94 76.15 59.46 76.59C58.99 77.03 59.07 77.37 59.28 77.89C59.44 78.25 60.01 78.12 60 77.74C60.14 77.63 60.28 77.5 60.46 77.44C60.89 77.3 61.46 77.41 61.88 77.53C62.69 77.76 63.22 78.44 63.99 78.69C64.31 78.79 64.74 78.59 64.67 78.18C64.38 76.82 62.42 76.14 61.16 76.1ZM57.75 81.53C57.54 82.12 58.34 82.45 58.63 81.92C59.1 81.08 59.84 80.89 60.67 80.58C61.01 80.47 61.04 79.89 60.67 79.78C59.42 79.41 58.17 80.36 57.75 81.53ZM80.82 100.1C80.42 104.11 83.94 108.94 87.76 110.02C89.11 110.41 90.38 110.01 90.98 108.66C91.78 106.83 90.62 104.82 89.29 103.6C88.98 103.31 88.39 103.73 88.62 104.11C89.23 105.24 90.74 106.93 89.97 108.22C88.71 110.35 85.68 107.72 84.78 106.8C82.75 104.76 82.23 102.45 81.64 99.76C81.63 99.7 81.6 99.69 81.58 99.65C81.7 99.25 81.83 98.88 81.95 98.48C82.46 98.65 82.84 98.93 83.36 99.13C83.71 99.26 84.17 98.91 83.98 98.54C83.55 97.72 82.56 97.38 81.68 97.28C81.38 97.25 81.12 97.45 81.06 97.74C80.94 98.4 80.81 99.07 80.68 99.72C80.61 99.89 80.71 100.01 80.82 100.1ZM64.42 134.65C64.07 134.4 63.5 134.86 63.84 135.21C65.09 136.56 66.63 137.67 67.79 139.09C70.18 142 68.71 147.26 64.71 146.73C63.36 146.55 61.99 146 60.77 145.41C55.58 142.92 51.69 138.73 49.29 133.55C49.04 133 48.19 133.35 48.42 133.91C51.13 140.45 58.44 148.79 66.39 148.11C69.05 147.88 70.95 146.32 71.12 143.55C71.38 139.47 67.35 136.66 64.42 134.65ZM48.86 131.08C48.58 131.62 49.4 131.94 49.7 131.44C51.09 129.1 54.06 128.51 56.49 129.44C58.63 130.26 60.02 131.99 61.53 133.59C61.98 134.07 62.73 133.53 62.35 132.97C59.52 128.62 51.99 125.09 48.86 131.08ZM46.7 103.15C46.38 102.94 45.82 103.22 46.03 103.64C46.48 104.52 46.93 105.22 46.8 106.26C46.69 107.26 46.15 108.31 45.21 108.78C43.17 109.81 40.69 107.9 40.63 105.78C40.62 105.38 39.91 105.35 39.92 105.77C39.85 108.53 42.8 110.89 45.47 109.76C47.69 108.84 49.06 104.68 46.7 103.15ZM116.04 138.29C114.19 136.44 110.11 136.53 107.71 136.66C107.14 136.68 107.24 137.46 107.71 137.58C109.44 138 111.23 137.91 112.98 138.2C116.11 138.73 117.22 142.01 115.27 144.46C111.75 148.89 105.91 145.1 102.69 142.43C102.36 142.15 101.84 142.64 102.15 142.97C105.49 146.68 113.67 150.56 116.88 144.34C117.85 142.43 117.58 139.82 116.04 138.29ZM101.31 140.35C101.35 140.99 102.29 140.84 102.3 140.22C102.3 139.18 102.97 138.3 103.85 137.8C104.24 137.58 104.69 137.41 105.15 137.41C105.59 137.38 106.01 137.53 106.46 137.49C106.79 137.45 107.02 137.01 106.77 136.75C105.83 135.78 104.11 136.27 103.11 136.9C101.93 137.66 101.24 138.95 101.31 140.35ZM85.14 132.14C82.74 130.57 79.28 130.88 77.3 132.97C76.88 133.4 77.55 133.99 78.01 133.69C80.07 132.35 82.73 131.8 84.81 133.48C86.73 135.05 86.59 137.12 86.62 139.34C86.63 139.74 87.27 139.92 87.47 139.58C88.96 137.13 87.38 133.62 85.14 132.14ZM105.66 123.12C105.92 124.22 104.68 123.88 104.14 123.62C103.01 123.06 102.21 121.98 101.94 120.78C101.84 120.3 101.08 120.38 101.16 120.89C101.47 122.84 103.33 125.25 105.56 124.95C107.98 124.63 106.37 121.7 105.02 121.07C104.49 120.83 104.12 121.54 104.52 121.92C104.89 122.23 105.56 122.64 105.66 123.12ZM66.54 149.36C58.21 146.98 52.22 143.7 48.06 135.73C47.81 135.22 47.03 135.53 47.24 136.07C50.13 143.46 58.14 150.33 66.42 150.17C66.84 150.17 66.94 149.47 66.54 149.36ZM72.88 142.22C73.05 144.26 72.89 146.28 71.32 147.8C70.87 148.23 71.42 149.02 71.93 148.61C73.81 147.08 75 144.29 73.7 142.02C73.47 141.6 72.84 141.7 72.88 142.22ZM61.1 129.31C62.96 131.71 65.51 133.67 67.92 135.49C68.32 135.8 68.82 135.2 68.42 134.87C66.08 132.93 64 130.71 61.65 128.81C61.31 128.51 60.83 128.96 61.1 129.31ZM67.8 81.42C67.81 82.39 68.08 83.29 68.42 84.17C68.65 84.76 69.6 84.52 69.49 83.89C69.35 82.94 69.13 82.03 68.68 81.19C68.43 80.73 67.8 80.89 67.8 81.42ZM80.3 86.49C77.87 78.93 76.73 71.55 75.23 63.83C75.14 63.37 74.35 63.28 74.33 63.83C74.1 71.43 76.46 79.9 79.45 86.84C79.7 87.35 80.47 87.03 80.3 86.49ZM72.62 60.91C72.3 61.85 72.48 63 72.52 63.97C72.53 64.48 73.4 64.49 73.43 63.97C73.49 62.98 73.73 61.86 73.43 60.91C73.31 60.56 72.74 60.57 72.62 60.91ZM75.2 60.13C74.91 58.94 74.77 57.53 74.14 56.47C73.96 56.16 73.37 56.3 73.36 56.66C73.35 57.89 73.92 59.19 74.26 60.38C74.41 60.9 75.34 60.66 75.2 60.13ZM80.53 104.04C80.34 103.6 79.56 103.76 79.67 104.26C80.62 108.85 85.65 113.55 90.5 113.32C90.88 113.3 90.97 112.7 90.6 112.59C88.44 111.85 86.45 111.37 84.6 109.92C82.62 108.32 81.53 106.33 80.53 104.04ZM89.03 102.63C89.4 102.79 89.75 102.35 89.51 102.02C89.16 101.54 88.67 101.16 88.3 100.69C87.89 100.18 87.57 99.62 87.29 99.02C87.05 98.47 86.23 98.81 86.43 99.37C86.88 100.59 87.77 102.12 89.03 102.63ZM99.87 123.18C100.08 123.71 100.82 123.37 100.67 122.86C100.26 121.44 99.85 120.02 99.54 118.57C100.46 117.88 101.46 118.14 102.46 118.67C102.89 118.9 103.35 118.28 103.05 117.92C102.08 116.77 100.11 116.81 98.99 117.7C98.21 118.31 98.62 119.02 98.84 119.88C99.13 121.01 99.45 122.13 99.87 123.18ZM101.77 119.66C102.33 120.09 102.91 120.54 103.61 120.68C103.94 120.75 104.21 120.3 103.99 120.06C103.52 119.52 102.85 119.23 102.18 118.97C101.75 118.79 101.39 119.38 101.77 119.66ZM115.57 135.29C112.22 133.59 108.63 135.6 105.16 134.59C104.65 134.44 104.3 135.13 104.82 135.37C106.82 136.33 108.69 135.9 110.84 135.73C114.81 135.42 117.32 137.26 118.51 140.99C118.69 141.56 119.53 141.29 119.47 140.73C119.23 138.41 117.67 136.35 115.57 135.29ZM108.38 147.62C102.72 147 99.44 143.1 100.59 137.38C100.68 136.93 99.98 136.73 99.79 137.16C97.56 142.6 102.36 149.33 108.37 148.45C108.83 148.39 108.87 147.68 108.38 147.62ZM126.95 144.9C126.52 144.53 125.98 145.21 126.4 145.59C127.81 146.89 130.45 145.9 130.48 143.92C130.49 143.03 130 142.23 129.27 141.76C128.63 141.35 127.31 141.04 126.81 141.81C126.61 142.11 126.74 142.5 127.12 142.58C127.61 142.68 128.01 142.45 128.51 142.68C128.92 142.87 129.34 143.25 129.45 143.7C129.78 145.04 127.82 145.61 126.95 144.9ZM84.41 152.08C83.62 152.29 83.72 153.54 84.58 153.37C85.78 153.13 92.27 152.1 92.21 154.53C92.14 157.42 85.8 155.58 84.42 155.14C83.84 154.95 83.43 155.83 84.03 156.04C86.31 156.84 92.83 158.8 93.34 154.71C93.82 150.93 86.47 151.55 84.41 152.08ZM26.19 92C24.64 91.34 24.02 93.03 23.81 94.22C23.35 96.71 23.7 99.38 24.83 101.64C25.14 102.28 26.07 101.91 25.85 101.23C25.37 99.8 24.99 98.37 24.94 96.86C24.93 96.67 24.86 94.7 25.11 94.4C26.19 93.11 26.63 94.87 26.84 95.41C27.93 98.27 27.85 101.27 27.08 104.2C26.91 104.84 28 105.14 28.22 104.52C29.04 102.2 29.23 99.75 28.75 97.32C28.45 95.81 27.79 92.7 26.19 92ZM131.01 149.79C128.67 150.66 126.59 152.18 124.23 153.11C121.67 154.12 119.05 154.92 116.33 155.36C115.79 155.44 115.89 156.28 116.43 156.21C121.44 155.61 127.9 154.27 131.58 150.57C131.95 150.18 131.43 149.63 131.01 149.79ZM135 147.13C134.39 147.19 133.96 147.53 133.47 147.86C132.72 148.35 133.56 149.46 134.3 148.97C134.81 148.63 135.24 148.39 135.54 147.84C135.75 147.47 135.37 147.09 135 147.13ZM142.46 140.63C141.43 141.17 140.65 142.01 139.81 142.8C138.97 143.58 138.16 144.4 137.35 145.23C136.91 145.67 137.65 146.44 138.14 146.02C139.03 145.25 139.91 144.48 140.78 143.68C141.58 142.95 142.44 142.28 143.01 141.35C143.21 141 142.92 140.4 142.46 140.63ZM144.38 134.93C143.8 134.95 143.81 135.89 144.39 135.94C145.28 136.02 144.87 137.09 144.89 137.6C144.9 137.88 145.22 138.09 145.48 138.05C146.37 137.92 146.5 136.83 146.24 136.12C145.94 135.28 145.24 134.91 144.38 134.93ZM133.34 134.93C133.8 134.63 133.42 134.05 132.98 134.05C131.47 134.04 130.07 134.42 128.53 134.15C126.87 133.85 125.4 133.23 124.08 132.18C123.61 131.8 123.09 132.5 123.52 132.9C125.91 135.09 130.28 136.88 133.34 134.93ZM134.48 135.08C134.92 135 135.22 134.94 135.61 134.7C136.03 134.45 135.84 133.69 135.35 133.67C134.9 133.67 134.6 133.74 134.18 133.9C133.53 134.14 133.8 135.19 134.48 135.08ZM122 128.13C121.11 127.37 119.76 127.07 118.64 127.36C118.16 127.49 118.23 128.26 118.74 128.16C119.73 127.96 120.53 128.31 121.23 129.01C121.88 129.64 121.91 130.43 122.26 131.2C122.43 131.59 122.97 131.59 123.14 131.21C123.66 130.11 122.83 128.85 122 128.13ZM74.46 36.89C74.36 38.05 74.44 39.19 74.19 40.35C73.89 41.74 73.22 42.95 72.44 44.12C72.06 44.7 72.82 45.31 73.28 44.8C75.05 42.8 76.25 39.4 75.28 36.79C75.15 36.4 74.5 36.46 74.46 36.89ZM41.8 40.88C42.44 38.11 43.91 36.05 45.95 34.14C47.28 32.89 48.88 31.95 50.06 30.58C50.37 30.19 49.93 29.61 49.47 29.81C45.34 31.56 41.31 36.27 40.81 40.75C40.75 41.39 41.67 41.5 41.8 40.88ZM35.82 46.39C33.4 46.86 31.67 49.27 31.19 51.55C31.06 52.16 32.02 52.28 32.16 51.69C32.72 49.47 34.18 48.38 36.07 47.33C36.5 47.08 36.42 46.27 35.82 46.39Z" fill="#1F0600" fill-opacity="1.000000" fill-rule="nonzero"/>
	</g>
	<path id="Vector" d="M58.87 208.55C57.48 207.67 56.1 206.81 54.77 205.85C53.68 205.08 52.54 204.16 51.27 203.67C51.29 201.86 51.63 200.11 51.84 198.32C51.98 197.13 52.21 195.62 51.74 194.45C51.87 194.23 51.65 193.89 51.37 194.03C48.49 195.42 45.97 197.5 43.52 199.45C40.54 198.22 37.48 196.75 34.31 196.07C34.3 196.04 34.3 196.02 34.29 196C34.19 195.8 33.84 195.89 33.9 196.12C34.81 199.07 35.6 202.41 37.21 205.09C36.04 206.06 35.11 207.38 34.16 208.55C33.07 209.89 31.97 211.26 31.04 212.72C30.9 212.93 31.13 213.11 31.31 213.04C33.04 213.3 34.83 213.02 36.58 212.95C38 212.89 39.41 212.83 40.82 212.59C41.91 214.85 43.12 217.07 44.45 219.21C44.51 219.36 44.61 219.5 44.73 219.64C44.99 220.05 45.25 220.47 45.53 220.88C45.72 221.15 46.09 220.89 46.04 220.61C46.22 220.38 46.39 220.15 46.55 219.91C46.66 219.8 46.75 219.66 46.77 219.5C48.01 217.25 48.41 214.41 49.47 212.12C49.49 212.09 49.49 212.06 49.49 212.02C52.53 211.62 55.85 210.28 58.67 209.17C58.74 209.15 58.79 209.09 58.82 209.04C59 208.97 59.08 208.68 58.87 208.55ZM49.07 211.73C49.01 211.76 48.99 211.8 48.98 211.85C48.95 211.87 48.93 211.89 48.91 211.93C48.26 213.35 47.8 214.84 47.31 216.34C47 217.3 46.61 218.2 46.21 219.12C46.12 219.18 46.04 219.25 45.94 219.31C45.8 219.38 45.74 219.35 45.59 219.27C45.36 219.15 45.14 218.92 44.9 218.81C43.59 216.69 42.45 214.47 41.26 212.29C41.28 212.08 41.13 211.85 40.87 211.9C37.85 212.45 34.74 212.31 31.7 212.63C32.65 211.48 33.56 210.29 34.5 209.15C35.53 207.9 36.8 206.69 37.63 205.3C37.74 205.25 37.81 205.12 37.74 204.98C36.59 202.74 35.98 200.34 35.12 198.02C35.17 197.86 35.16 197.68 35.14 197.5C35.21 197.43 35.24 197.33 35.22 197.23C35.21 197.18 35.21 197.15 35.22 197.11C35.39 197.09 35.54 197.06 35.7 197.02C38.24 197.97 40.73 199.02 43.29 199.92C43.34 200.01 43.44 200.06 43.56 200.02C43.58 200.03 43.6 200.03 43.62 200.03C43.82 200.11 43.95 199.94 43.94 199.78C45.91 198.56 47.62 197.02 49.54 195.75C49.91 195.6 50.39 195.44 50.7 195.52C51.1 195.6 51.07 196.1 51.29 196.39C51.2 198.8 50.48 201.16 50.62 203.59C50.59 203.63 50.6 203.68 50.62 203.74C50.62 203.77 50.62 203.79 50.62 203.82C50.63 204.02 50.83 204.09 51 204.06C52.22 204.98 53.59 205.77 54.83 206.67C55.84 207.4 56.87 208.17 57.99 208.75C55.08 209.72 51.77 210.34 49.07 211.73ZM36.83 211.54C35.72 211.14 34.37 211.4 33.24 211.65C32.98 211.7 33.06 212.05 33.31 212.03C34.47 211.96 35.61 211.95 36.75 211.92C36.95 211.92 37.06 211.62 36.83 211.54ZM38.49 211.33C38.28 211.31 38.12 211.28 37.94 211.19C37.68 211.07 37.46 211.48 37.71 211.62C38 211.79 38.25 211.87 38.56 211.73C38.76 211.63 38.7 211.35 38.49 211.33ZM49.81 210.22C48.39 210.37 47.79 212.48 47.15 213.47C47.04 213.64 47.28 213.81 47.41 213.65C48.21 212.59 48.59 211.07 49.9 210.49C50.04 210.42 49.96 210.2 49.81 210.22Z" fill="#1F0600" fill-opacity="1.000000" fill-rule="nonzero"/>
	<path id="Vector" d="M54.77 205.85C53.68 205.08 52.54 204.16 51.27 203.67C51.29 201.86 51.63 200.11 51.84 198.32C51.98 197.13 52.21 195.62 51.74 194.45C51.87 194.23 51.65 193.89 51.37 194.03C48.49 195.42 45.97 197.5 43.52 199.45C40.54 198.22 37.48 196.75 34.31 196.07C34.3 196.04 34.3 196.02 34.29 196C34.19 195.8 33.84 195.89 33.9 196.12C34.81 199.07 35.6 202.41 37.21 205.09C36.04 206.06 35.11 207.38 34.16 208.55C33.07 209.89 31.97 211.26 31.04 212.72C30.9 212.93 31.13 213.11 31.31 213.04C33.04 213.3 34.83 213.02 36.58 212.95C38 212.89 39.41 212.83 40.82 212.59C41.91 214.85 43.12 217.07 44.45 219.21C44.51 219.36 44.61 219.5 44.73 219.64C44.99 220.05 45.25 220.47 45.53 220.88C45.72 221.15 46.09 220.89 46.04 220.61C46.22 220.38 46.39 220.15 46.55 219.91C46.66 219.8 46.75 219.66 46.77 219.5C48.01 217.25 48.41 214.41 49.47 212.12C49.49 212.09 49.49 212.06 49.49 212.02C52.53 211.62 55.85 210.28 58.67 209.17C58.74 209.15 58.79 209.09 58.82 209.04C59 208.97 59.08 208.68 58.87 208.55C57.48 207.67 56.1 206.81 54.77 205.85ZM48.98 211.85C48.95 211.87 48.93 211.89 48.91 211.93C48.26 213.35 47.8 214.84 47.31 216.34C47 217.3 46.61 218.2 46.21 219.12C46.12 219.18 46.04 219.25 45.94 219.31C45.8 219.38 45.74 219.35 45.59 219.27C45.36 219.15 45.14 218.92 44.9 218.81C43.59 216.69 42.45 214.47 41.26 212.29C41.28 212.08 41.13 211.85 40.87 211.9C37.85 212.45 34.74 212.31 31.7 212.63C32.65 211.48 33.56 210.29 34.5 209.15C35.53 207.9 36.8 206.69 37.63 205.3C37.74 205.25 37.81 205.12 37.74 204.98C36.59 202.74 35.98 200.34 35.12 198.02C35.17 197.86 35.16 197.68 35.14 197.5C35.21 197.43 35.24 197.33 35.22 197.23C35.21 197.18 35.21 197.15 35.22 197.11C35.39 197.09 35.54 197.06 35.7 197.02C38.24 197.97 40.73 199.02 43.29 199.92C43.34 200.01 43.44 200.06 43.56 200.02C43.58 200.03 43.6 200.03 43.62 200.03C43.82 200.11 43.95 199.94 43.94 199.78C45.91 198.56 47.62 197.02 49.54 195.75C49.91 195.6 50.39 195.44 50.7 195.52C51.1 195.6 51.07 196.1 51.29 196.39C51.2 198.8 50.48 201.16 50.62 203.59C50.59 203.63 50.6 203.68 50.62 203.74C50.62 203.77 50.62 203.79 50.62 203.82C50.63 204.02 50.83 204.09 51 204.06C52.22 204.98 53.59 205.77 54.83 206.67C55.84 207.4 56.87 208.17 57.99 208.75C55.08 209.72 51.77 210.34 49.07 211.73C49.01 211.76 48.99 211.8 48.98 211.85ZM33.24 211.65C32.98 211.7 33.06 212.05 33.31 212.03C34.47 211.96 35.61 211.95 36.75 211.92C36.95 211.92 37.06 211.62 36.83 211.54C35.72 211.14 34.37 211.4 33.24 211.65ZM37.94 211.19C37.68 211.07 37.46 211.48 37.71 211.62C38 211.79 38.25 211.87 38.56 211.73C38.76 211.63 38.7 211.35 38.49 211.33C38.28 211.31 38.12 211.28 37.94 211.19ZM47.15 213.47C47.04 213.64 47.28 213.81 47.41 213.65C48.21 212.59 48.59 211.07 49.9 210.49C50.04 210.42 49.96 210.2 49.81 210.22C48.39 210.37 47.79 212.48 47.15 213.47Z" stroke="#000000" stroke-opacity="1.000000" stroke-width="1.000000"/>
</svg>
