<svg width="148.561035" height="75.526367" viewBox="0 0 148.561 75.5264" fill="none" xmlns="http://www.w3.org/2000/svg" xmlns:xlink="http://www.w3.org/1999/xlink">
	<desc>
			Created with Pixso.
	</desc>
	<defs>
		<clipPath id="clip2183_3953">
			<rect id="Frame" rx="0.000000" width="75.000000" height="65.000000" transform="translate(73.061035 0.500000)" fill="white" fill-opacity="0"/>
		</clipPath>
	</defs>
	<rect id="Frame" rx="0.000000" width="75.000000" height="65.000000" transform="translate(73.061035 0.500000)" fill="#FFFFFF" fill-opacity="0"/>
	<g clip-path="url(#clip2183_3953)">
		<path id="Vector" d="M100.35 21.59C102.75 19.04 105.25 16.6 107.87 14.28C110.58 11.88 113.59 8.81 116.82 7.17C117.44 6.85 117.97 6.17 118.66 6.94C118.9 7.2 118.66 9.35 118.66 9.84C118.64 11.58 118.62 13.32 118.59 15.06C118.51 18.92 118.37 22.78 118.19 26.65C118.18 26.94 118.4 27.14 118.64 27.24C123.93 29.45 129.18 31.73 134.39 34.1C135.46 34.59 137.52 35.24 136.38 36.89C135.81 37.72 132.15 38.56 131.1 38.97C128.63 39.92 126.15 40.85 123.7 41.84C120.68 43.05 121.6 44.83 122.15 47.64C123.32 53.59 123.18 59.66 121.95 65.59C122.26 65.47 122.56 65.34 122.86 65.22C118.84 63.44 116.47 59.44 113.92 56.05C112.61 54.3 111.28 52.55 109.97 50.79C109.31 49.92 108.5 48.42 107.47 47.9C106.25 47.28 104.27 47.7 102.99 47.75C100.78 47.83 98.57 47.97 96.36 48.16C91.89 48.55 87.45 49.16 83.03 49.95C83.29 50.2 83.53 50.45 83.79 50.71C85.35 46.35 87.68 42.36 90.83 38.96C92.43 37.24 94.59 36.04 93.07 33.65C90.81 30.09 86.24 27.1 85.58 22.57C85.32 20.75 86.01 20.43 87.58 20.12C88.56 19.92 89.81 20.15 90.82 20.23C93.66 20.45 96.41 21.04 99.13 21.87C99.89 22.1 100.22 20.91 99.46 20.68C96.98 19.92 94.47 19.37 91.9 19.09C90.07 18.89 87.4 18.41 85.62 18.99C82.3 20.08 84.77 24.19 85.88 26.24C86.95 28.22 88.27 30.03 89.72 31.75C90.87 33.12 92.69 34.17 91.66 36.36C91.27 37.19 89.92 38.09 89.3 38.81C86.32 42.22 84.12 46.13 82.59 50.37C82.41 50.86 82.93 51.21 83.35 51.13C87.66 50.37 91.99 49.77 96.35 49.39C98.36 49.22 100.37 49.09 102.38 49.01C103.19 48.97 105.23 48.63 106 48.89C107.35 49.37 108.43 50.8 109.25 51.89C112.84 56.67 116.52 63.76 122.23 66.29C122.56 66.44 123.05 66.35 123.13 65.92C124.24 60.58 124.5 55.17 123.74 49.75C123.62 48.93 123.49 48.12 123.33 47.32C123.18 46.56 123.02 45.82 122.83 45.07C123.36 43.59 124.32 42.69 125.72 42.37C128.16 41.06 131.12 40.28 133.69 39.28C135.19 38.71 139.82 37.46 138.21 34.84C137.47 33.63 135.17 33.12 133.96 32.57C131.32 31.37 128.68 30.2 126.03 29.06C124.22 28.27 120.26 27.44 119.47 25.49C119.13 24.68 119.58 22.86 119.61 22.02C119.67 20.47 119.72 18.93 119.75 17.38C119.82 14.68 119.87 11.97 119.88 9.26C119.89 8.27 120.32 6.01 119.24 5.24C118.52 4.71 117.78 5.16 117.09 5.47C115.14 6.36 113.34 8.18 111.64 9.51C107.3 12.94 103.26 16.7 99.46 20.72C98.93 21.3 99.8 22.17 100.35 21.59Z" fill="#000000" fill-opacity="1.000000" fill-rule="nonzero"/>
		<path id="Vector" d="M112.7 18.36C112.78 18.19 112.86 18.03 112.94 17.87C113.29 17.17 112.71 16.27 111.89 16.5C111.11 16.73 110.6 17.57 110.87 18.36C110.99 18.74 111.34 19.06 111.76 19.05C113.14 19 114.19 17.52 113.62 16.22C113.43 15.78 113.05 15.47 112.55 15.46C112.13 15.46 111.75 15.69 111.43 15.96C110.93 16.41 110.63 17.13 110.69 17.79C110.73 18.27 111.09 18.76 111.62 18.72C112.47 18.65 113.14 18.02 113.14 17.15C113.14 15.96 111.29 15.96 111.29 17.15C111.29 16.98 111.47 16.88 111.62 16.87C111.92 17.18 112.23 17.49 112.54 17.79C112.54 17.78 112.53 17.5 112.52 17.65C112.53 17.58 112.55 17.53 112.57 17.46C112.55 17.51 112.55 17.51 112.58 17.46C112.6 17.41 112.62 17.38 112.66 17.34C112.62 17.38 112.63 17.38 112.67 17.34C112.72 17.3 112.72 17.29 112.67 17.32C112.8 17.25 112.78 17.25 112.61 17.32C112.45 17.28 112.3 17.23 112.15 17.19C112.07 17.09 111.99 17 111.92 16.9C111.92 16.93 111.93 16.96 111.94 16.99C111.94 16.9 111.93 16.88 111.94 16.96C111.94 17.01 111.94 17.02 111.94 16.96C111.98 16.87 111.92 17.04 111.92 17.05C111.88 17.15 112.02 16.95 111.89 17.11C111.84 17.16 111.81 17.19 111.87 17.15C111.85 17.17 111.65 17.28 111.75 17.23C111.79 17.2 111.96 17.2 111.77 17.21C112.06 17.44 112.36 17.66 112.66 17.89C112.59 17.69 112.68 17.98 112.62 18.09C112.59 18.17 112.48 18.28 112.39 18.31C112.04 17.85 111.7 17.4 111.34 16.94C111.26 17.11 111.18 17.27 111.1 17.43C110.88 17.88 110.98 18.44 111.43 18.7C111.85 18.93 112.47 18.81 112.7 18.36Z" fill="#000000" fill-opacity="1.000000" fill-rule="nonzero"/>
		<path id="Vector" d="M105.42 23.11C105.42 22.65 105.25 22.24 104.93 21.9C104.5 21.45 103.79 21.59 103.47 22.09C103.28 22.38 103.1 22.68 102.91 22.97C102.52 23.59 103.03 24.34 103.71 24.37C105.06 24.41 106.48 23.11 106 21.69C105.7 20.84 104.75 20.49 103.96 20.87C103.34 21.17 102.89 21.79 102.65 22.42C102.4 23.1 102.56 23.94 103.24 24.3C103.96 24.69 104.74 24.32 105.2 23.74C105.72 23.09 106.11 21.98 105.23 21.43C104.53 20.99 103.43 21.45 103.48 22.35C103.52 22.85 103.88 23.27 104.41 23.27C104.89 23.27 105.36 22.85 105.33 22.35C105.33 22.33 105.33 22.31 105.32 22.29C105.29 22.45 105.24 22.61 105.2 22.76C104.85 22.82 104.49 22.87 104.14 22.93C104.06 22.79 103.98 22.65 103.9 22.52C103.82 22.25 103.99 22.37 103.86 22.45C103.83 22.47 103.78 22.55 103.76 22.59C103.67 22.7 103.68 22.61 103.79 22.62C103.81 22.62 103.84 22.61 103.87 22.61C104.16 22.64 104.32 22.76 104.35 22.99C104.38 23.13 104.39 23.14 104.38 23.02C104.38 23.1 104.38 23.11 104.39 23.04C104.41 22.98 104.41 22.98 104.39 23.04C104.4 23.01 104.41 22.98 104.43 22.95C104.54 22.78 104.59 22.69 104.74 22.55C104.73 22.55 104.72 22.56 104.72 22.56C104.82 22.5 104.83 22.49 104.77 22.53C104.66 22.51 104.54 22.5 104.43 22.48C104.34 22.44 104.29 22.37 104.26 22.29C104.2 22.18 104.3 22.16 104.25 22.27C104.33 22.09 104.19 22.39 104.26 22.23C104.21 22.34 104.13 22.4 104.03 22.46C104.14 22.4 103.88 22.5 103.88 22.5C104.02 22.48 103.74 22.5 103.73 22.5C104 22.97 104.26 23.43 104.53 23.9C104.72 23.6 104.9 23.31 105.09 23.01C104.6 23.07 104.12 23.13 103.64 23.2C103.62 23.18 103.59 23.11 103.59 23.1C103.56 24.3 105.41 24.3 105.42 23.11Z" fill="#000000" fill-opacity="1.000000" fill-rule="nonzero"/>
		<path id="Vector" d="M116.59 29.85C116.52 29.21 116.21 28.68 115.6 28.42C115 28.17 114.29 28.34 113.86 28.82C113.38 29.34 113.31 30.09 113.8 30.63C114.16 31.01 114.68 31.18 115.19 31.11C116.44 30.92 116.83 29.29 115.98 28.43C115.07 27.51 113.51 27.98 113.07 29.12C112.54 30.51 114.05 31.84 115.35 31.11C116.39 30.53 115.45 28.93 114.41 29.51C114.67 29.37 114.74 29.59 114.8 29.76C114.79 29.82 114.79 29.8 114.82 29.7C114.81 29.72 114.81 29.74 114.81 29.76C114.82 29.76 114.73 29.82 114.73 29.82C114.76 29.77 114.87 29.77 114.78 29.79C114.67 29.82 114.83 29.82 114.79 29.8C114.73 29.74 114.68 29.74 114.62 29.66C114.58 29.59 114.64 29.46 114.6 29.63C114.62 29.57 114.62 29.52 114.64 29.47C114.67 29.43 114.71 29.38 114.75 29.36C114.79 29.33 115.12 29.3 114.92 29.29C115.06 29.3 115.22 29.38 115.26 29.53C115.26 29.7 115.26 29.86 115.26 30.02C115.23 30.12 115.07 30.14 115 30.14C114.81 30.14 114.76 30.07 114.73 29.87C114.79 30.37 115.12 30.79 115.66 30.79C116.12 30.78 116.64 30.35 116.59 29.85Z" fill="#000000" fill-opacity="1.000000" fill-rule="nonzero"/>
		<path id="Vector" d="M126.89 34.41C125.49 34.06 124.05 35.14 124.09 36.61C124.1 37.16 124.68 37.72 125.26 37.5C125.9 37.25 126.54 36.85 126.58 36.09C126.61 35.45 126.19 34.91 125.58 34.71C124.99 34.51 124.34 34.65 123.91 35.11C123.43 35.6 123.33 36.29 123.27 36.95C123.22 37.45 123.73 37.86 124.19 37.87C124.93 37.88 125.61 37.38 125.76 36.65C125.86 36.16 125.62 35.65 125.11 35.51C124.65 35.39 124.07 35.66 123.97 36.16C123.98 36.14 124.17 36.02 124.19 36.02C124.5 36.33 124.81 36.64 125.12 36.95C125.12 36.86 125.22 36.53 125.2 36.49C125.13 36.34 125.43 36.55 125.08 36.47C125.03 36.45 125.01 36.46 124.95 36.44C124.44 36.24 125.18 35.55 124.77 35.71C125.16 36 125.55 36.3 125.94 36.6C125.94 36.35 126.15 36.13 126.4 36.19C127.55 36.47 128.04 34.69 126.89 34.41Z" fill="#000000" fill-opacity="1.000000" fill-rule="nonzero"/>
		<path id="Vector" d="M113.13 36.76C112.36 37.16 111.39 38.14 111.67 39.09C111.83 39.63 112.34 39.96 112.89 39.97C113.38 39.98 113.82 39.78 114.19 39.46C114.97 38.77 115 37.41 114.03 36.86C113.51 36.57 112.85 36.66 112.42 37.08C111.98 37.52 111.92 38.11 112.18 38.66C112.4 39.11 113.04 39.23 113.44 39C113.91 38.73 113.99 38.18 113.78 37.73C113.83 37.85 113.82 38.28 113.72 38.39C113.59 38.55 113.21 38.55 113.06 38.43C113.01 38.4 112.97 38.35 112.95 38.29C112.94 38.27 112.93 38.1 112.93 38.2C112.93 38.31 112.95 38.11 112.95 38.1C112.94 38.04 113 38.07 112.91 38.12C113 38.07 112.91 38.12 112.87 38.14C112.9 38.13 112.93 38.12 112.95 38.11C112.87 38.13 112.86 38.14 112.94 38.12C113.07 38.18 112.85 38.03 112.98 38.12C113.27 38.33 113.26 38.15 113.35 38.63C113.44 39.07 113.38 39.05 113.51 38.83C113.53 38.79 113.59 38.71 113.53 38.79C113.72 38.53 113.78 38.5 114.07 38.35C114.52 38.12 114.65 37.5 114.41 37.09C114.13 36.64 113.58 36.54 113.13 36.76Z" fill="#000000" fill-opacity="1.000000" fill-rule="nonzero"/>
		<path id="Vector" d="M103.16 32.36C102.42 32.05 101.48 32.53 101.25 33.29C101 34.14 101.59 34.97 102.42 35.13C104.05 35.44 105.14 32.79 104.01 31.73C102.69 30.49 100.95 32.38 100.63 33.64C100.43 34.42 100.72 35.32 101.45 35.7C102.24 36.11 103.12 35.68 103.64 35.06C104.21 34.38 104.66 33.32 103.9 32.6C103.26 32 102 32.21 101.82 33.15C101.73 33.64 101.96 34.14 102.47 34.29C102.92 34.41 103.51 34.14 103.61 33.64C103.6 33.66 103.58 33.69 103.57 33.72C103.46 33.83 103.35 33.94 103.24 34.05C102.85 34.33 102.67 33.49 102.45 33.57C102.4 33.59 102.34 33.74 102.31 33.79C102.27 33.83 102.17 33.91 102.16 33.96C102.12 34.1 102 33.87 102.23 34.06C102.24 34.07 102.46 34.14 102.42 34.16C102.44 34.15 102.45 34.02 102.46 33.99C102.55 33.84 102.63 33.68 102.74 33.54C102.81 33.45 102.99 33.33 103.04 33.24C103.06 33.23 103.08 33.21 103.1 33.2C103.22 33.14 103.1 33.1 102.76 33.08C102.72 33.04 102.69 32.89 102.66 32.9C102.66 32.9 102.49 33.29 102.48 33.31C102.4 33.43 102.38 33.46 102.44 33.4C102.54 33.29 102.63 33.38 102.7 33.7C103.02 33.93 103.04 34.05 102.75 34.06C102.54 34.08 102.51 34.11 102.67 34.16C103.13 34.35 103.69 33.95 103.81 33.51C103.95 32.96 103.62 32.55 103.16 32.36Z" fill="#000000" fill-opacity="1.000000" fill-rule="nonzero"/>
		<path id="Vector" d="M95.05 23.9C93.91 23.44 92.6 24.22 92.17 25.3C91.94 25.89 91.96 26.66 92.41 27.14C92.98 27.73 93.9 27.56 94.44 27.03C95.29 26.21 95.31 24.53 94.12 24.01C92.84 23.46 91.4 25.11 92.27 26.28C92.56 26.68 93.07 26.88 93.53 26.61C93.92 26.38 94.16 25.75 93.87 25.35C93.76 25.21 93.89 25.43 93.87 25.51C93.87 25.57 93.76 25.71 93.81 25.66C93.86 25.61 93.85 25.62 93.78 25.68C93.68 25.75 93.56 25.76 93.44 25.73C93.35 25.7 93.3 25.64 93.23 25.59C93.2 25.49 93.18 25.47 93.2 25.54C93.22 25.61 93.22 25.59 93.2 25.49C93.2 25.59 93.2 25.61 93.21 25.54C93.22 25.47 93.22 25.49 93.2 25.59C93.17 25.69 93.17 25.7 93.21 25.61C93.2 25.64 93.18 25.66 93.17 25.69C93.09 25.89 93.15 25.65 93.22 25.69C93.48 25.66 93.7 25.8 93.88 26.11C93.86 26.02 93.85 26 93.87 26.06C93.87 26.12 93.88 26.1 93.87 26C93.86 26.1 93.86 26.1 93.89 25.99C93.96 25.85 93.81 25.99 93.94 25.88C93.83 25.98 94.02 25.8 94.03 25.79C94.19 25.63 94.3 25.61 94.55 25.71C95.02 25.89 95.57 25.51 95.69 25.06C95.84 24.51 95.52 24.08 95.05 23.9Z" fill="#000000" fill-opacity="1.000000" fill-rule="nonzero"/>
		<path id="Vector" d="M89.93 42.73C89.89 42.83 89.68 43.05 89.56 43.23C89.39 43.45 89.27 43.71 89.21 43.98C89.06 44.69 89.35 45.48 90.09 45.73C91.33 46.14 92.5 44.66 92.41 43.51C92.35 42.72 91.61 42.11 90.82 42.33C90.17 42.51 89.69 43.08 89.54 43.72C89.37 44.44 89.73 45.25 90.48 45.42C91.13 45.58 91.9 45.25 92.04 44.55C92.14 44.06 91.9 43.54 91.39 43.41C90.93 43.28 90.35 43.56 90.25 44.06C90.4 43.92 90.55 43.77 90.69 43.64C90.84 43.59 90.97 43.62 91.08 43.71C91.21 43.8 91.3 43.94 91.35 44.1C91.35 44.12 91.33 44.12 91.33 44.13C91.35 44.1 91.38 44.08 91.4 44.05C91.21 44.2 91.06 44.13 90.91 43.86C90.68 43.53 90.56 43.45 90.57 43.64C90.57 43.7 90.57 43.7 90.57 43.62C90.55 43.64 90.5 43.76 90.55 43.68C90.55 43.69 90.32 44.04 90.31 44.02C90.3 44 90.51 43.96 90.52 43.96C90.8 43.98 90.95 44.09 90.98 44.3C91 44.43 91.01 44.45 91.01 44.37C91.01 44.28 91 44.39 90.98 44.43C91.02 44.37 91.04 44.31 91.08 44.26C91.28 43.97 91.57 43.62 91.71 43.22C91.88 42.75 91.52 42.21 91.06 42.08C90.56 41.94 90.1 42.25 89.93 42.73Z" fill="#000000" fill-opacity="1.000000" fill-rule="nonzero"/>
		<path id="Vector" d="M101.14 43.6C100.56 43.18 99.78 43.2 99.16 43.52C98.51 43.85 98.15 44.44 98.08 45.16C98.06 45.46 98.27 45.84 98.54 45.96C99.61 46.46 101 46.03 101.38 44.84C101.76 43.64 100.77 42.32 99.52 42.29C98.27 42.27 97.32 43.57 97.61 44.76C97.78 45.44 98.38 45.91 99.08 45.83C99.71 45.75 100.18 45.25 100.47 44.73C101.05 43.69 99.45 42.75 98.87 43.79C98.84 43.87 98.68 44.02 98.67 44.07C98.76 43.77 99.58 44.19 99.4 44.35C99.39 44.36 99.44 44.21 99.41 44.27C99.42 44.26 99.48 44.15 99.51 44.14C99.44 44.18 99.38 44.08 99.53 44.16C99.46 44.12 99.65 44.25 99.58 44.2C99.59 44.21 99.61 44.36 99.6 44.28C99.6 44.25 99.67 44.17 99.61 44.27C99.6 44.29 99.58 44.32 99.56 44.32C99.48 44.35 99.37 44.32 99.46 44.36C99.61 44.63 99.77 44.89 99.92 45.16C99.93 45.2 99.92 45.23 99.9 45.26C99.96 45.17 99.96 45.15 99.92 45.22C100 45.17 99.99 45.17 100.03 45.15C100.08 45.12 100.03 45.15 100.14 45.14C100.09 45.14 100.13 45.15 100.2 45.2C100.61 45.49 101.23 45.27 101.47 44.87C101.75 44.4 101.55 43.89 101.14 43.6Z" fill="#000000" fill-opacity="1.000000" fill-rule="nonzero"/>
		<path id="Vector" d="M114.77 45.71C114.67 45.44 114.58 45.18 114.48 44.91C114.2 44.15 113.25 44 112.79 44.69C112.57 45.03 112.34 45.37 112.11 45.71C111.86 46.09 112.01 46.77 112.45 46.97C113.12 47.26 113.77 47.17 114.31 46.64C114.75 46.2 115.18 45.48 115.04 44.84C114.72 43.43 112.91 43.52 112.04 44.32C111.19 45.1 110.95 46.63 111.87 47.45C113.18 48.63 114.4 46.69 114.9 45.67C115.11 45.22 115.02 44.67 114.56 44.41C114.16 44.17 113.52 44.29 113.3 44.74C113.17 45.01 113.02 45.27 112.86 45.53C112.79 45.64 112.64 45.77 112.61 45.9C112.57 46.01 112.47 45.92 112.63 45.93C112.79 45.97 112.95 46.01 113.1 46.05C113.24 46.12 113.07 46.21 113.12 46.05C113.12 46.03 113.13 45.96 113.14 45.92C113.17 45.82 113.27 45.68 113.33 45.63C113.29 45.65 113.54 45.51 113.51 45.56C113.5 45.57 113.45 45.55 113.45 45.54C113.39 44.94 113.3 44.79 113.17 45.08C113.15 45.12 113.13 45.16 113.1 45.2C112.89 45.48 112.97 45.18 113.38 45.36C113.49 45.78 113.6 46.2 113.71 46.62C113.93 46.28 114.16 45.95 114.39 45.61C113.82 45.54 113.26 45.46 112.7 45.39C112.8 45.65 112.89 45.92 112.99 46.18C113.16 46.65 113.61 46.96 114.12 46.83C114.57 46.72 114.94 46.18 114.77 45.71Z" fill="#000000" fill-opacity="1.000000" fill-rule="nonzero"/>
		<path id="Vector" d="M119.04 53.71C118.37 53.67 117.65 53.92 117.33 54.54C116.99 55.18 117.21 56.06 117.86 56.41C118.58 56.81 119.25 56.35 119.76 55.85C120.27 55.36 120.63 54.68 120.48 53.96C120.35 53.32 119.86 52.78 119.2 52.69C118.47 52.59 117.84 53.08 117.5 53.69C117.12 54.34 117.12 55.23 117.71 55.77C118.28 56.3 119.09 56.29 119.67 55.78C120.05 55.46 120 54.81 119.67 54.47C119.3 54.1 118.74 54.15 118.36 54.47C118.55 54.31 118.73 54.28 118.9 54.37C119 54.43 119.06 54.53 119.08 54.64C119.11 54.63 119.17 54.52 119.17 54.51C119.29 54.4 119.28 54.4 119.13 54.5C118.98 54.53 118.85 54.5 118.74 54.42C118.74 54.42 118.62 54.22 118.69 54.24C118.74 54.25 118.19 54.76 118.18 54.79C118.73 54.72 119.02 54.84 119.02 55.18C119 55.31 118.96 55.43 118.88 55.53C118.87 55.55 118.85 55.55 118.83 55.55C118.9 55.55 118.98 55.55 119.05 55.56C119.55 55.59 119.98 55.12 119.98 54.64C119.96 54.11 119.54 53.73 119.04 53.71Z" fill="#000000" fill-opacity="1.000000" fill-rule="nonzero"/>
		<path id="Vector" d="M106.61 39.46C105.96 39.71 105.34 40.04 105.11 40.75C104.88 41.46 105.23 42.3 105.97 42.53C107.24 42.94 108.44 41.44 108.38 40.27C108.34 39.53 107.77 38.96 107.02 38.94C106.31 38.93 105.78 39.51 105.46 40.08C105.1 40.7 104.96 41.48 105.44 42.08C105.83 42.57 106.48 42.73 107.07 42.6C107.71 42.47 108.23 41.96 108.38 41.32C108.55 40.53 108.22 39.77 107.71 39.18C107.49 38.94 107.11 38.87 106.81 38.95C105.53 39.27 104.76 40.65 105.1 41.91C105.41 43.06 107.19 42.58 106.88 41.42C106.84 41.28 106.84 41.18 106.94 41C106.94 40.98 107.04 40.85 107 40.9C106.95 40.96 107.11 40.8 107.13 40.79C107.06 40.85 107.13 40.8 107.17 40.78C107.05 40.83 107.28 40.74 107.3 40.74C107 40.66 106.7 40.58 106.41 40.5C106.52 40.64 106.58 40.76 106.58 40.88C106.61 40.8 106.6 40.82 106.58 40.93C106.59 40.89 106.61 40.86 106.64 40.83C106.74 40.77 106.74 40.76 106.65 40.82C106.68 40.81 106.71 40.8 106.74 40.79C106.63 40.82 106.64 40.82 106.77 40.8C106.71 40.81 106.67 40.81 106.61 40.8C106.71 40.72 106.91 40.93 106.94 41C106.98 41.07 106.99 41.15 106.97 41.23C106.96 41.16 106.97 41.12 107.01 41.12C107.07 41.04 107.15 40.87 107.18 40.83C107.15 40.86 107.17 40.84 107.24 40.76C107.32 40.68 107.34 40.66 107.29 40.72C107.01 40.85 106.78 40.79 106.61 40.53C106.58 40.47 106.56 40.41 106.55 40.34C106.54 40.45 106.54 40.46 106.55 40.35C106.54 40.41 106.52 40.47 106.5 40.52C106.58 40.33 106.39 40.68 106.44 40.61C106.52 40.5 106.27 40.83 106.32 40.74C106.17 40.82 106.2 40.82 106.41 40.76C106.71 40.8 106.87 40.96 106.9 41.22C106.9 41.23 106.85 41.41 106.83 41.39C106.82 41.38 107.1 41.26 107.11 41.25C107.58 41.08 107.9 40.63 107.76 40.12C107.63 39.66 107.09 39.28 106.61 39.46Z" fill="#000000" fill-opacity="1.000000" fill-rule="nonzero"/>
	</g>
	<path id="Vector" d="M24.45 64.39C23.26 63.64 22.08 62.91 20.93 62.1C20 61.44 19.02 60.65 17.94 60.23C17.95 58.7 18.24 57.2 18.42 55.68C18.54 54.66 18.74 53.38 18.33 52.38C18.45 52.2 18.26 51.91 18.02 52.02C15.55 53.21 13.39 54.98 11.3 56.64C8.74 55.6 6.12 54.34 3.4 53.76C3.39 53.74 3.38 53.72 3.38 53.7C3.29 53.53 2.99 53.61 3.05 53.8C3.83 56.31 4.5 59.16 5.88 61.45C4.88 62.27 4.08 63.4 3.27 64.39C2.33 65.54 1.4 66.7 0.59 67.94C0.47 68.12 0.67 68.28 0.83 68.22C2.31 68.44 3.85 68.2 5.34 68.14C6.56 68.09 7.77 68.04 8.98 67.83C9.91 69.76 10.94 71.66 12.09 73.47C12.14 73.6 12.22 73.73 12.33 73.84C12.55 74.19 12.78 74.55 13.01 74.89C13.18 75.13 13.5 74.91 13.45 74.66C13.61 74.47 13.75 74.28 13.89 74.07C13.99 73.98 14.06 73.86 14.07 73.73C15.14 71.81 15.49 69.39 16.39 67.44C16.41 67.41 16.41 67.38 16.41 67.35C19.01 67.01 21.86 65.86 24.28 64.92C24.34 64.9 24.38 64.86 24.4 64.81C24.56 64.75 24.63 64.5 24.45 64.39ZM16.05 67.1C16 67.12 15.98 67.16 15.97 67.2C15.95 67.22 15.93 67.24 15.91 67.27C15.35 68.48 14.96 69.75 14.54 71.03C14.28 71.85 13.94 72.62 13.6 73.4C13.52 73.45 13.45 73.51 13.36 73.56C13.25 73.62 13.19 73.6 13.07 73.53C12.87 73.42 12.68 73.23 12.47 73.14C11.35 71.33 10.38 69.44 9.35 67.58C9.37 67.4 9.24 67.21 9.02 67.25C6.44 67.71 3.77 67.6 1.16 67.87C1.97 66.89 2.75 65.88 3.56 64.9C4.45 63.84 5.53 62.81 6.24 61.62C6.33 61.58 6.4 61.47 6.33 61.35C5.35 59.45 4.83 57.4 4.09 55.42C4.13 55.28 4.13 55.13 4.11 54.98C4.16 54.92 4.2 54.83 4.18 54.75C4.17 54.71 4.17 54.68 4.18 54.65C4.32 54.63 4.45 54.6 4.59 54.57C6.76 55.38 8.9 56.28 11.09 57.04C11.14 57.12 11.23 57.16 11.33 57.12C11.34 57.13 11.36 57.14 11.37 57.14C11.55 57.2 11.66 57.06 11.65 56.93C13.34 55.89 14.81 54.57 16.45 53.49C16.77 53.36 17.18 53.23 17.44 53.29C17.79 53.37 17.76 53.79 17.95 54.04C17.87 56.08 17.26 58.09 17.37 60.16C17.35 60.2 17.36 60.25 17.37 60.29C17.37 60.32 17.37 60.34 17.37 60.36C17.39 60.53 17.55 60.59 17.7 60.57C18.75 61.36 19.92 62.03 20.99 62.79C21.85 63.41 22.73 64.07 23.69 64.57C21.2 65.39 18.36 65.92 16.05 67.1ZM5.56 66.94C4.6 66.6 3.45 66.82 2.48 67.03C2.26 67.08 2.32 67.38 2.54 67.36C3.53 67.3 4.51 67.29 5.49 67.26C5.66 67.26 5.76 67.01 5.56 66.94ZM6.98 66.76C6.8 66.74 6.66 66.72 6.51 66.64C6.29 66.54 6.1 66.89 6.31 67.01C6.56 67.16 6.78 67.22 7.04 67.1C7.21 67.02 7.16 66.78 6.98 66.76ZM16.68 65.82C15.47 65.94 14.96 67.74 14.4 68.58C14.31 68.73 14.52 68.87 14.63 68.74C15.31 67.83 15.63 66.54 16.76 66.05C16.88 65.99 16.81 65.8 16.68 65.82Z" fill="#1F0600" fill-opacity="1.000000" fill-rule="nonzero"/>
	<path id="Vector" d="M20.93 62.1C20 61.44 19.02 60.65 17.94 60.23C17.95 58.7 18.24 57.2 18.42 55.68C18.54 54.66 18.74 53.38 18.33 52.38C18.45 52.2 18.26 51.91 18.02 52.02C15.55 53.21 13.39 54.98 11.3 56.64C8.74 55.6 6.12 54.34 3.4 53.76C3.39 53.74 3.38 53.72 3.38 53.7C3.29 53.53 2.99 53.61 3.05 53.8C3.83 56.31 4.5 59.16 5.88 61.45C4.88 62.27 4.08 63.4 3.27 64.39C2.33 65.54 1.4 66.7 0.59 67.94C0.47 68.12 0.67 68.28 0.83 68.22C2.31 68.44 3.85 68.2 5.34 68.14C6.56 68.09 7.77 68.04 8.98 67.83C9.91 69.76 10.94 71.66 12.09 73.47C12.14 73.6 12.22 73.73 12.33 73.84C12.55 74.19 12.78 74.55 13.01 74.89C13.18 75.13 13.5 74.91 13.45 74.66C13.61 74.47 13.75 74.28 13.89 74.07C13.99 73.98 14.06 73.86 14.07 73.73C15.14 71.81 15.49 69.39 16.39 67.44C16.41 67.41 16.41 67.38 16.41 67.35C19.01 67.01 21.86 65.86 24.28 64.92C24.34 64.9 24.38 64.86 24.4 64.81C24.56 64.75 24.63 64.5 24.45 64.39C23.26 63.64 22.08 62.91 20.93 62.1ZM15.97 67.2C15.95 67.22 15.93 67.24 15.91 67.27C15.35 68.48 14.96 69.75 14.54 71.03C14.28 71.85 13.94 72.62 13.6 73.4C13.52 73.45 13.45 73.51 13.36 73.56C13.25 73.62 13.19 73.6 13.07 73.53C12.87 73.42 12.68 73.23 12.47 73.14C11.35 71.33 10.38 69.44 9.35 67.58C9.37 67.4 9.24 67.21 9.02 67.25C6.44 67.71 3.77 67.6 1.16 67.87C1.97 66.89 2.75 65.88 3.56 64.9C4.45 63.84 5.53 62.81 6.24 61.62C6.33 61.58 6.4 61.47 6.33 61.35C5.35 59.45 4.83 57.4 4.09 55.42C4.13 55.28 4.13 55.13 4.11 54.98C4.16 54.92 4.2 54.83 4.18 54.75C4.17 54.71 4.17 54.68 4.18 54.65C4.32 54.63 4.45 54.6 4.59 54.57C6.76 55.38 8.9 56.28 11.09 57.04C11.14 57.12 11.23 57.16 11.33 57.12C11.34 57.13 11.36 57.14 11.37 57.14C11.55 57.2 11.66 57.06 11.65 56.93C13.34 55.89 14.81 54.57 16.45 53.49C16.77 53.36 17.18 53.23 17.44 53.29C17.79 53.37 17.76 53.79 17.95 54.04C17.87 56.08 17.26 58.09 17.37 60.16C17.35 60.2 17.36 60.25 17.37 60.29C17.37 60.32 17.37 60.34 17.37 60.36C17.39 60.53 17.55 60.59 17.7 60.57C18.75 61.36 19.92 62.03 20.99 62.79C21.85 63.41 22.73 64.07 23.69 64.57C21.2 65.39 18.36 65.92 16.05 67.1C16 67.12 15.98 67.16 15.97 67.2ZM2.48 67.03C2.26 67.08 2.32 67.38 2.54 67.36C3.53 67.3 4.51 67.29 5.49 67.26C5.66 67.26 5.76 67.01 5.56 66.94C4.6 66.6 3.45 66.82 2.48 67.03ZM6.51 66.64C6.29 66.54 6.1 66.89 6.31 67.01C6.56 67.16 6.78 67.22 7.04 67.1C7.21 67.02 7.16 66.78 6.98 66.76C6.8 66.74 6.66 66.72 6.51 66.64ZM14.4 68.58C14.31 68.73 14.52 68.87 14.63 68.74C15.31 67.83 15.63 66.54 16.76 66.05C16.88 65.99 16.81 65.8 16.68 65.82C15.47 65.94 14.96 67.74 14.4 68.58Z" stroke="#000000" stroke-opacity="1.000000" stroke-width="1.000000"/>
</svg>
