<svg width="127.146484" height="391.352539" viewBox="0 0 127.146 391.353" fill="none" xmlns="http://www.w3.org/2000/svg" xmlns:xlink="http://www.w3.org/1999/xlink">
	<desc>
			Created with Pixso.
	</desc>
	<defs>
		<clipPath id="clip2183_4007">
			<rect id="Frame" rx="0.000000" width="102.660004" height="199.830002" transform="translate(24.744141 179.977539) rotate(6.933751)" fill="white" fill-opacity="0"/>
		</clipPath>
	</defs>
	<path id="Vector" d="M48.53 1.9C50.23 1.58 50.92 2.38 51.61 3C54.8 5.81 57.96 8.66 61.12 11.51C61.49 11.85 61.9 12.14 62.45 12.58C63.55 8.32 63.64 4.01 65.16 0C66.48 0.38 66.54 1.3 66.73 2.07C67.35 4.52 67.92 6.98 68.52 9.43C68.72 10.24 68.97 11.04 69.29 12.12C71.85 12.12 74.41 11.91 76.91 12.18C79.45 12.45 81.93 13.19 84.71 13.79C84.45 14.35 84.34 14.93 84.01 15.15C83 15.79 81.89 16.29 80.82 16.87C77.83 18.48 74.84 20.09 71.57 21.84C72.85 24.16 73.96 26.41 75.3 28.49C76.6 30.5 78.13 32.34 79.56 34.26C79.46 34.43 79.37 34.6 79.27 34.77C78.59 34.66 77.84 34.69 77.24 34.41C76.15 33.9 75.11 33.25 74.1 32.59C70.06 29.92 66.02 27.22 61.77 24.4C61.19 24.82 60.54 25.31 59.88 25.77C54.72 29.38 49.56 32.99 44.39 36.58C43.9 36.93 43.39 37.36 42.71 36.58C44.54 33.68 46.14 30.59 48.59 28.05C52.19 24.34 55.68 20.54 59.34 16.64C55.73 11.67 52.24 6.95 48.53 1.9ZM64.44 14.85C63.92 14.98 63.36 15.12 62.91 15.22C60.44 12.65 58.02 10.29 55.33 8.23C55.23 8.33 55.13 8.45 55.02 8.55C56.99 11.14 58.95 13.74 60.88 16.29C60.64 16.76 60.54 17.07 60.35 17.28C56.81 21.16 53.26 25.01 49.72 28.88C48.96 29.72 48.2 30.58 47.5 31.47C47.14 31.93 46.91 32.5 46.62 33.03C46.76 33.14 46.9 33.25 47.04 33.36C51.45 30.15 55.87 26.96 60.27 23.75C61.73 22.68 61.84 22.67 63.26 23.62C66.91 26.08 70.55 28.54 74.22 30.99C74.6 31.25 75.03 31.4 75.54 31.65C73.55 28.08 71.68 24.72 69.76 21.26C73.85 19.04 77.66 16.96 81.81 14.69C78.48 13.73 75.53 12.96 72.41 13.2C71.81 13.25 71.21 13.38 70.6 13.41C68.49 13.52 68.29 13.41 67.71 11.4C67.31 10 67.03 8.58 66.67 7.17C66.42 6.19 66.14 5.21 65.88 4.23C65.72 4.26 65.55 4.27 65.39 4.3C65.02 7.71 63.43 10.97 64.44 14.85Z" fill="#1F0600" fill-opacity="1.000000" fill-rule="nonzero"/>
	<path id="Vector" d="M112.61 96.54C111.22 95.67 109.85 94.81 108.51 93.85C107.43 93.08 106.28 92.16 105.01 91.67C105.03 89.86 105.37 88.11 105.58 86.32C105.72 85.13 105.95 83.62 105.48 82.45C105.62 82.23 105.4 81.89 105.11 82.03C102.23 83.42 99.72 85.5 97.27 87.45C94.28 86.22 91.22 84.75 88.06 84.07C88.05 84.04 88.04 84.02 88.03 84C87.93 83.8 87.58 83.89 87.65 84.12C88.56 87.07 89.34 90.41 90.95 93.09C89.79 94.06 88.85 95.38 87.9 96.54C86.81 97.89 85.72 99.26 84.78 100.72C84.64 100.93 84.87 101.11 85.05 101.04C86.78 101.3 88.58 101.02 90.32 100.95C91.74 100.89 93.15 100.83 94.56 100.59C95.66 102.85 96.86 105.07 98.2 107.21C98.25 107.36 98.35 107.5 98.47 107.64C98.73 108.05 99 108.47 99.27 108.88C99.46 109.15 99.83 108.89 99.78 108.61C99.96 108.38 100.14 108.15 100.29 107.91C100.41 107.8 100.49 107.66 100.51 107.5C101.76 105.25 102.16 102.41 103.21 100.12C103.23 100.09 103.23 100.06 103.23 100.02C106.27 99.62 109.59 98.28 112.41 97.17C112.49 97.15 112.53 97.09 112.56 97.04C112.74 96.97 112.82 96.68 112.61 96.54ZM102.81 99.73C102.76 99.76 102.73 99.8 102.72 99.85C102.69 99.87 102.68 99.89 102.66 99.93C102 101.35 101.55 102.84 101.06 104.34C100.75 105.3 100.35 106.2 99.95 107.12C99.86 107.18 99.78 107.25 99.68 107.31C99.54 107.38 99.48 107.35 99.33 107.27C99.11 107.15 98.89 106.92 98.64 106.81C97.33 104.69 96.19 102.47 95 100.29C95.02 100.08 94.87 99.85 94.61 99.9C91.6 100.45 88.48 100.31 85.44 100.63C86.39 99.48 87.3 98.29 88.25 97.15C89.28 95.9 90.54 94.69 91.37 93.3C91.48 93.25 91.55 93.12 91.48 92.98C90.33 90.74 89.72 88.34 88.87 86.02C88.91 85.86 88.9 85.68 88.88 85.5C88.95 85.42 88.99 85.33 88.97 85.23C88.96 85.18 88.96 85.15 88.97 85.11C89.13 85.09 89.29 85.06 89.44 85.02C91.98 85.97 94.47 87.02 97.03 87.92C97.09 88.01 97.19 88.06 97.3 88.02C97.32 88.03 97.34 88.03 97.36 88.03C97.56 88.11 97.7 87.94 97.69 87.78C99.65 86.56 101.36 85.02 103.29 83.75C103.65 83.59 104.13 83.44 104.44 83.51C104.84 83.6 104.81 84.1 105.03 84.39C104.94 86.8 104.22 89.16 104.36 91.59C104.33 91.63 104.34 91.68 104.36 91.74C104.36 91.76 104.36 91.79 104.36 91.82C104.38 92.02 104.57 92.09 104.74 92.06C105.96 92.98 107.34 93.77 108.57 94.67C109.58 95.4 110.61 96.17 111.73 96.75C108.83 97.72 105.52 98.34 102.81 99.73ZM90.58 99.54C89.46 99.14 88.11 99.4 86.98 99.65C86.73 99.7 86.8 100.05 87.06 100.03C88.21 99.96 89.35 99.95 90.5 99.92C90.7 99.92 90.81 99.62 90.58 99.54ZM92.23 99.33C92.03 99.31 91.86 99.28 91.68 99.19C91.42 99.07 91.21 99.48 91.45 99.62C91.74 99.79 92 99.87 92.31 99.73C92.5 99.63 92.44 99.35 92.23 99.33ZM103.55 98.22C102.14 98.37 101.54 100.48 100.89 101.47C100.78 101.64 101.03 101.81 101.16 101.65C101.96 100.59 102.33 99.07 103.64 98.49C103.79 98.42 103.7 98.2 103.55 98.22Z" fill="#1F0600" fill-opacity="1.000000" fill-rule="nonzero"/>
	<path id="Vector" d="M108.51 93.85C107.43 93.08 106.28 92.16 105.01 91.67C105.03 89.86 105.37 88.11 105.58 86.32C105.72 85.13 105.95 83.62 105.48 82.45C105.62 82.23 105.4 81.89 105.11 82.03C102.23 83.42 99.72 85.5 97.27 87.45C94.28 86.22 91.22 84.75 88.06 84.07C88.05 84.04 88.04 84.02 88.03 84C87.93 83.8 87.58 83.89 87.65 84.12C88.56 87.07 89.34 90.41 90.95 93.09C89.79 94.06 88.85 95.38 87.9 96.54C86.81 97.89 85.72 99.26 84.78 100.72C84.64 100.93 84.87 101.11 85.05 101.04C86.78 101.3 88.58 101.02 90.32 100.95C91.74 100.89 93.15 100.83 94.56 100.59C95.66 102.85 96.86 105.07 98.2 107.21C98.25 107.36 98.35 107.5 98.47 107.64C98.73 108.05 99 108.47 99.27 108.88C99.46 109.15 99.83 108.89 99.78 108.61C99.96 108.38 100.14 108.15 100.29 107.91C100.41 107.8 100.49 107.66 100.51 107.5C101.76 105.25 102.16 102.41 103.21 100.12C103.23 100.09 103.23 100.06 103.23 100.02C106.27 99.62 109.59 98.28 112.41 97.17C112.49 97.15 112.53 97.09 112.56 97.04C112.74 96.97 112.82 96.68 112.61 96.54C111.22 95.67 109.85 94.81 108.51 93.85ZM102.72 99.85C102.69 99.87 102.68 99.89 102.66 99.93C102 101.35 101.55 102.84 101.06 104.34C100.75 105.3 100.35 106.2 99.95 107.12C99.86 107.18 99.78 107.25 99.68 107.31C99.54 107.38 99.48 107.35 99.33 107.27C99.11 107.15 98.89 106.92 98.64 106.81C97.33 104.69 96.19 102.47 95 100.29C95.02 100.08 94.87 99.85 94.61 99.9C91.6 100.45 88.48 100.31 85.44 100.63C86.39 99.48 87.3 98.29 88.25 97.15C89.28 95.9 90.54 94.69 91.37 93.3C91.48 93.25 91.55 93.12 91.48 92.98C90.33 90.74 89.72 88.34 88.87 86.02C88.91 85.86 88.9 85.68 88.88 85.5C88.95 85.42 88.99 85.33 88.97 85.23C88.96 85.18 88.96 85.15 88.97 85.11C89.13 85.09 89.29 85.06 89.44 85.02C91.98 85.97 94.47 87.02 97.03 87.92C97.09 88.01 97.19 88.06 97.3 88.02C97.32 88.03 97.34 88.03 97.36 88.03C97.56 88.11 97.7 87.94 97.69 87.78C99.65 86.56 101.36 85.02 103.29 83.75C103.65 83.59 104.13 83.44 104.44 83.51C104.84 83.6 104.81 84.1 105.03 84.39C104.94 86.8 104.22 89.16 104.36 91.59C104.33 91.63 104.34 91.68 104.36 91.74C104.36 91.76 104.36 91.79 104.36 91.82C104.38 92.02 104.57 92.09 104.74 92.06C105.96 92.98 107.34 93.77 108.57 94.67C109.58 95.4 110.61 96.17 111.73 96.75C108.83 97.72 105.52 98.34 102.81 99.73C102.76 99.76 102.73 99.8 102.72 99.85ZM86.98 99.65C86.73 99.7 86.8 100.05 87.06 100.03C88.21 99.96 89.35 99.95 90.5 99.92C90.7 99.92 90.81 99.62 90.58 99.54C89.46 99.14 88.11 99.4 86.98 99.65ZM91.68 99.19C91.42 99.07 91.21 99.48 91.45 99.62C91.74 99.79 92 99.87 92.31 99.73C92.5 99.63 92.44 99.35 92.23 99.33C92.03 99.31 91.86 99.28 91.68 99.19ZM100.89 101.47C100.78 101.64 101.03 101.81 101.16 101.65C101.96 100.59 102.33 99.07 103.64 98.49C103.79 98.42 103.7 98.2 103.55 98.22C102.14 98.37 101.54 100.48 100.89 101.47Z" stroke="#000000" stroke-opacity="1.000000" stroke-width="1.000000"/>
	<g clip-path="url(#clip2183_4007)">
		<path id="Vector" d="M81.24 240.55C82 240.85 82.64 241.13 83.3 241.35C84.87 241.84 85.96 242.78 86.34 244.44C86.89 246.83 86.8 249.22 86.29 251.58C85.19 256.64 84.01 261.67 82.86 266.71C81.85 271.1 80.88 275.51 79.76 279.88C79.04 282.72 78.06 285.5 77.23 288.31C76.44 290.96 75.68 293.63 74.9 296.28C74.71 296.91 74.49 297.54 74.2 298.14C73.25 300.1 71.95 300.78 69.79 300.53C69.09 300.44 68.4 300.37 67.61 300.27C67.04 301.81 66.49 303.3 65.94 304.76C69.2 308.66 68.53 312.81 64.17 315.68C66.39 319.71 65.64 323.16 62 325.98C64.09 330.57 62.73 334.46 58.45 335.88C57.78 337.98 57.41 340.22 57.12 342.47C56.96 343.69 56.93 344.94 56.91 346.18C56.91 346.79 57.03 347.41 57.17 348.01C57.61 349.76 58.89 350.12 60.17 348.86C61.27 347.78 61.84 346.39 62.22 344.95C63.04 341.82 63.48 338.63 63.67 335.4C64.03 329.45 65.31 323.75 67.99 318.33C69.59 315.09 71.43 312.03 73.57 309.14C75.91 305.97 77.47 302.44 78.67 298.73C79.04 297.58 79.36 296.43 79.65 295.27C80.24 292.84 81.94 291.58 84.45 291.75C86.29 291.89 88.01 292.49 89.59 293.44C90.61 294.05 91.64 294.7 92.51 295.51C100.48 302.91 106.54 311.55 109.72 322.06C110.48 324.53 110.64 327.09 110.36 329.67C110.1 332.07 108.23 333.39 105.8 333.09C104 332.87 102.17 332.62 100.38 332.73C94.83 333.09 90.68 335.9 87.5 340.35C84.55 344.48 82.67 349.08 81.33 353.94C80.34 357.53 79.36 361.13 78.26 364.68C76.65 369.82 73.75 374.23 70.1 378.14C63.09 385.67 53.55 387.02 44.51 383.26C40.97 381.79 38.1 379.5 36.13 376.18C35.56 375.22 34.74 375.02 33.7 375.16C31.9 375.38 30.09 375.58 28.27 375.64C27.34 375.67 26.37 375.46 25.47 375.16C23.71 374.58 22.71 373.25 22.36 371.45C21.28 365.89 21.44 360.27 21.65 354.65C21.7 353.35 21.98 352.02 22.34 350.76C22.76 349.26 23.82 348.22 25.39 348C26.86 347.81 28.36 347.74 29.83 347.79C30.94 347.82 31.82 347.7 32.6 346.81C33.07 346.27 33.78 345.92 34.41 345.56C35.17 345.12 35.65 344.58 35.85 343.68C37.32 336.74 39.4 329.98 41.64 323.26C41.73 322.99 41.78 322.71 41.87 322.32C38.14 320.42 37.34 317.27 38.53 313.54C39.6 310.18 42.31 308.61 46.75 308.51C46.98 307.89 47.27 307.21 47.5 306.51C48.87 302.57 50.25 298.62 51.59 294.67C52.96 290.63 54.36 286.61 55.63 282.54C57.11 277.77 58.5 272.95 59.9 268.16C60.87 264.87 61.85 261.57 62.78 258.27C64.52 252.06 66.24 245.84 67.94 239.61C68.28 238.37 68.47 237.09 68.79 235.85C70 231.18 71.27 226.5 72.48 221.82C73.18 219.13 73.67 216.42 73.69 213.62C73.73 209.08 71.48 205.95 67.73 203.74C62.08 200.41 55.99 198.05 49.84 195.84C49.24 195.61 48.64 195.54 48.09 195.88C46.89 196.65 45.62 196.55 44.39 196.14C41.95 195.34 39.56 194.43 37.14 193.56C35.94 193.13 34.79 192.59 33.8 191.72C33.33 191.3 32.62 191.14 32.02 190.9C29.97 190.08 27.93 189.29 25.91 188.46C25.46 188.27 25.03 187.99 24.63 187.71C23.65 187 23.31 186.04 23.61 184.87C23.91 183.74 24.7 183.13 25.8 182.94C26.4 182.83 27.04 182.84 27.65 182.89C29.67 183.06 31.59 182.83 33.46 181.99C35.65 181.02 37.89 180.81 40.21 181.64C42.75 182.53 45.35 183.26 47.87 184.16C48.7 184.45 49.42 185.06 50.16 185.58C50.83 186.05 51.42 186.54 52.3 186.71C60.46 188.36 68.22 191.16 75.59 195.03C78.05 196.32 80.26 197.99 82.17 200.05C84 202.02 85.07 204.35 85.33 207.04C85.81 212.13 85.52 217.21 84.68 222.23C83.82 227.42 82.72 232.55 81.73 237.71C81.56 238.6 81.42 239.51 81.24 240.55ZM66.61 293.54C67.9 288.19 69.17 282.97 70.47 277.63C67.79 277.21 65.79 276.06 65.06 273.51C64.34 271.02 65 268.88 67.04 267.21C66.38 265.98 66.31 264.72 66.47 263.43C66.65 262.1 67.25 261 68.45 260.35C67.18 257.27 67.46 255.12 69.42 253.52C67.69 251.19 68.33 248.35 69.48 246.92C71.59 244.26 74.12 244.93 76.76 246.21C76.62 245.83 76.44 245.56 76.2 245.4C75.42 244.89 75.11 244.16 75.17 243.28C75.31 241.33 76.9 239.54 78.65 239.82C78.8 239.85 78.96 239.77 79.22 239.72C79.32 239.32 79.42 238.92 79.5 238.53C80.94 232.62 82.15 226.65 82.93 220.62C83.41 216.94 83.76 213.25 83.68 209.51C83.59 205.43 81.99 202.22 78.76 199.82C77.11 198.6 75.39 197.42 73.57 196.45C68.93 193.97 63.99 192.15 58.97 190.58C56.93 189.93 54.82 189.46 52.73 188.94C51.5 188.64 51.23 188.82 50.82 190.05C50.61 190.68 50.37 191.29 50.18 191.93C49.77 193.16 50.1 193.8 51.31 194.24C53.05 194.87 54.81 195.5 56.55 196.15C61.07 197.79 65.37 199.91 69.41 202.49C73.45 205.08 75.61 208.8 75.58 213.69C75.57 218.52 74.38 223.1 73.04 227.68C72.19 230.58 71.18 233.44 70.62 236.4C69.57 241.98 67.97 247.42 66.41 252.87C64.57 259.31 62.4 265.66 60.64 272.11C58.97 278.27 57.21 284.38 55.12 290.4C53.93 293.83 52.67 297.25 51.47 300.69C50.53 303.37 49.65 306.08 48.74 308.8C49 308.99 49.19 309.13 49.39 309.28C51.16 310.47 51.98 312.2 51.84 314.27C51.75 315.48 51.47 316.75 50.95 317.84C50.06 319.71 48.98 321.53 46.85 322.27C45.92 322.59 44.94 322.72 43.84 322.97C41.46 330.3 39.21 337.81 37.69 345.38C38.45 345.85 39.17 346.18 39.74 346.69C41.39 348.16 41.68 350.06 41.3 352.14C41.01 353.7 40.31 355.09 39.31 356.35C41.35 357.64 41.95 359.55 41.8 361.74C41.67 363.7 40.88 365.45 39.39 366.75C38.74 367.33 37.86 367.72 37.02 368.01C35.88 368.39 35.83 368.31 35.98 369.49C36.54 374.1 38.84 377.66 42.79 380.04C46.68 382.38 50.93 383.48 55.48 383.16C58.34 382.97 61.14 382.51 63.63 380.9C70.3 376.6 74.38 370.38 76.76 362.97C77.72 359.98 78.36 356.88 79.27 353.87C80.06 351.27 80.85 348.62 81.97 346.15C83.06 343.76 84.41 341.45 85.91 339.29C89.46 334.17 94.26 331.01 100.65 330.65C100.84 330.65 101.02 330.56 101.21 330.51C101.22 329.73 100.59 329.52 100.15 329.19C95.67 325.78 91.79 321.81 88.81 317.01C87.37 314.69 86.1 312.27 84.72 309.92C83.13 307.2 81.83 304.34 80.98 301.29C80.9 301.01 80.74 300.75 80.52 300.26C80.28 300.77 80.12 301.06 80 301.35C79.58 302.33 79.26 303.38 78.72 304.3C77.09 307.08 75.39 309.81 73.69 312.54C72.68 314.16 71.45 315.65 70.62 317.34C69.45 319.79 68.46 322.35 67.59 324.92C66.44 328.34 65.9 331.92 65.6 335.5C65.31 338.92 65.08 342.34 64.11 345.66C63.59 347.47 62.87 349.17 61.5 350.52C60.42 351.6 59.11 351.85 57.73 351.4C56.34 350.95 55.44 349.93 55.22 348.45C55.06 347.47 54.87 346.46 54.97 345.5C55.24 342.83 55.64 340.18 56.01 337.51C56.08 337.04 56.24 336.58 56.35 336.09C55.9 335.99 55.61 335.93 55.34 335.84C54.06 335.41 52.89 334.85 52.12 333.68C50.48 331.22 51.14 327.98 53.66 326.1C54.29 325.63 54.97 325.24 55.63 324.82C51.96 320.87 53.37 316.18 58.01 314.07C57.82 313.62 57.61 313.17 57.45 312.71C56.78 310.9 56.83 309.14 57.75 307.43C58.93 305.26 60.8 304.13 63.25 303.96C63.71 303.93 64.16 303.95 64.34 303.38C64.72 302.21 65.1 301.04 65.47 299.89C63.76 298.87 63.38 298.19 63.65 296.6C63.92 294.84 64.84 293.91 66.61 293.54ZM85.46 293.98C85.11 293.95 84.53 293.85 83.96 293.84C82.81 293.83 82.5 294.11 82.3 295.24C82.23 295.6 82.19 295.99 82.23 296.35C82.44 297.77 82.7 299.2 82.91 300.62C83.1 301.85 83.75 302.44 85.03 302.6C88.17 303.01 90.78 304.52 92.99 306.79C95.22 309.09 96.75 311.81 98.1 314.66C99.55 317.75 100.15 320.94 99.41 324.31C99.25 325.07 99.4 325.65 99.95 326.21C101.65 327.92 103.68 329.19 105.75 330.4C106.06 330.58 106.45 330.65 106.81 330.71C107.86 330.86 108.13 330.69 108.37 329.65C108.72 328.13 108.71 326.57 108.29 325.1C107.54 322.37 106.84 319.58 105.72 316.98C102.23 309.02 96.98 302.31 90.46 296.59C89.08 295.39 87.43 294.61 85.46 293.98ZM65.38 297.92C67.19 298.15 68.66 298.3 70.12 298.54C71.21 298.72 71.88 298.23 72.31 297.34C72.77 296.42 73.24 295.48 73.53 294.5C75 289.59 76.53 284.69 77.79 279.74C79.43 273.29 80.84 266.78 82.32 260.29C83.03 257.15 83.7 254 84.32 250.83C84.66 249.04 84.73 247.22 84.4 245.41C84.24 244.5 83.85 243.67 83 243.32C81.51 242.73 79.96 242.28 78.41 241.84C77.86 241.68 77.32 242.23 77.15 242.93C76.99 243.56 77.2 243.97 77.84 244.16C78.76 244.43 79.64 244.75 80.56 245.02C81.79 245.38 82.31 245.92 82.37 247.2C82.42 248.18 82.43 249.19 82.27 250.16C81.82 252.92 81.34 255.69 80.76 258.44C79.94 262.4 79.11 266.37 78.14 270.29C76.83 275.6 75.38 280.86 73.99 286.14C73.41 288.33 72.85 290.54 72.18 292.72C71.88 293.69 71.4 294.63 70.85 295.48C70.37 296.2 69.6 296.48 68.66 296.17C67.88 295.91 67.07 295.77 66.12 295.54C65.87 296.34 65.66 297.02 65.38 297.92ZM96.84 323.71C96.99 323.67 97.14 323.63 97.29 323.6C97.38 323.26 97.53 322.92 97.53 322.59C97.52 321.36 97.66 320.06 97.36 318.9C96.25 314.53 94.15 310.68 90.89 307.53C89.49 306.17 87.8 305.34 85.95 304.78C85.64 304.68 85.12 304.69 84.94 304.88C84.77 305.07 84.89 305.55 84.94 305.9C84.97 306.09 85.11 306.28 85.2 306.45C87.35 310.45 89.33 314.56 92.13 318.16C93.62 320.08 95.27 321.87 96.84 323.71ZM78.67 246.43C78.51 247.19 77.98 247.88 78.37 248.76C79.19 250.65 78.82 252.42 77.72 254.04C77.31 254.64 77.14 255.09 77.43 255.83C77.68 256.45 77.66 257.21 77.6 257.9C77.47 259.58 76.68 260.95 75.36 261.96C76.97 265.06 76.51 267.01 73.58 269.44C73.75 269.65 73.97 269.86 74.1 270.1C75.18 272.13 74.83 275.27 73.15 276.8C72.32 277.56 72.08 278.39 71.97 279.39C71.88 280.08 71.76 280.78 71.6 281.46C71.04 283.92 70.46 286.37 69.88 288.83C69.47 290.56 69.05 292.27 68.63 293.98C69.48 294.38 69.71 293.85 69.89 293.34C70.58 291.31 71.3 289.28 71.89 287.21C72.8 284.03 73.66 280.84 74.45 277.62C75.68 272.51 76.85 267.4 78.03 262.27C78.54 260.06 78.84 257.78 79.47 255.61C80.18 253.19 80.37 250.74 80.57 248.28C80.66 246.99 80.72 246.41 78.67 246.43ZM34.02 373.01C33.82 371.77 33.82 371.76 32.81 371.81C31.19 371.91 29.6 371.91 28.05 371.31C26.63 370.75 25.68 369.82 25.4 368.29C25.27 367.52 25.14 366.75 25.06 365.97C24.73 362.17 24.58 358.38 25.36 354.61C25.75 352.67 26.89 351.55 28.85 351.29C29.18 351.25 29.54 351.22 29.81 351.06C30.06 350.91 30.2 350.58 30.39 350.33C30.14 350.17 29.9 349.88 29.64 349.86C28.86 349.8 28.07 349.79 27.29 349.85C24.86 350 24.32 350.39 24.09 352.86C23.8 355.86 23.63 358.88 23.65 361.89C23.68 364.81 23.97 367.73 24.27 370.64C24.43 372.16 25.44 373.07 26.94 373.36C29.3 373.8 31.61 373.43 34.02 373.01ZM33.78 369.47C33.71 369.3 33.65 369.14 33.58 368.97C33.39 368.82 33.22 368.62 33 368.53C29.81 367.3 27.8 362.54 30.4 358.22C31.85 357.07 31.54 355.78 30.67 354.46C30.6 354.36 30.57 354.24 30.51 354.13C30.22 353.53 29.79 353.31 29.1 353.44C28.15 353.62 27.6 354.16 27.49 355.06C27.25 357.15 26.97 359.24 26.93 361.33C26.88 363.34 27.11 365.36 27.23 367.38C27.29 368.45 27.89 369.1 28.9 369.43C30.19 369.86 31.5 369.83 32.82 369.68C33.16 369.66 33.46 369.55 33.78 369.47ZM49.83 315.7C49.86 314.73 49.97 314.03 49.89 313.35C49.66 311.64 48.52 310.59 46.9 310.61C45.73 310.62 44.75 311.16 44.05 312.11C42.72 313.9 42.67 316.57 43.93 318.42C45.05 320.06 46.94 320.2 48.15 318.6C48.86 317.67 49.34 316.56 49.83 315.7ZM39.13 183.31C38.42 183.26 37.71 183.08 37.07 183.19C36.02 183.38 34.97 183.68 34 184.1C32.3 184.85 30.55 185.19 28.7 185.09C27.96 185.05 27.22 184.97 26.49 185.02C26.19 185.05 25.92 185.39 25.64 185.58C25.82 185.82 25.94 186.18 26.18 186.29C27.29 186.83 28.45 187.29 29.57 187.8C31.74 188.79 34.17 189.17 36.08 190.73C36.11 190.76 36.22 190.7 36.36 190.66C36.65 189.45 36.84 188.18 37.28 186.99C37.74 185.78 38.44 184.64 39.13 183.31ZM34.41 360.66C34.05 362.31 34.02 363.62 34.66 364.86C35.32 366.16 36.44 366.46 37.61 365.59C39.18 364.43 39.87 362.81 39.79 360.87C39.75 359.93 39.46 359.08 38.74 358.44C37.57 357.39 36.1 357.54 35.28 358.86C34.86 359.51 34.6 360.26 34.41 360.66ZM57.9 319.98C57.63 320.97 57.6 322.01 58.23 323C59.27 324.58 61.36 324.64 62.31 323.03C62.76 322.27 63.08 321.38 63.26 320.51C63.49 319.39 63.32 318.29 62.68 317.29C61.95 316.15 61.05 315.97 59.98 316.75C58.9 317.54 58.21 318.58 57.9 319.98ZM60.97 330.49C61.19 329.74 61.23 328.85 60.83 327.98C60.12 326.4 58.56 326.12 57.35 327.36C56.25 328.49 55.76 329.87 55.7 331.4C55.66 332.36 56.02 333.19 56.95 333.66C57.84 334.1 58.66 333.81 59.38 333.27C60.25 332.61 60.67 331.66 60.97 330.49ZM43.64 193.77C44.31 193.93 44.86 194.09 45.42 194.2C46.45 194.4 46.72 194.31 47.18 193.35C47.65 192.39 48.14 191.43 48.44 190.4C48.7 189.51 48.75 188.55 48.77 187.61C48.77 186.83 48.07 186.29 47.11 186.05C46.33 185.86 46.09 186.44 45.81 186.91C44.58 188.95 44.03 191.22 43.64 193.77ZM38.43 191.9C39.45 192.26 40.46 192.63 41.59 193.04C41.91 190.1 42.83 187.59 44.31 185.18C43.61 184.92 43.05 184.69 42.48 184.5C41.37 184.14 41.25 184.16 40.63 185.06C39.27 187.08 38.54 189.32 38.43 191.9ZM60.88 310C60.91 310.93 60.83 311.89 60.99 312.79C61.17 313.76 61.89 314.13 62.71 313.88C64.85 313.21 66.72 310 65.47 307.49C64.93 306.41 64 306.16 63.02 306.84C61.91 307.6 61.34 308.72 60.88 310ZM34.81 351.07C34.79 351.85 34.7 352.63 34.75 353.4C34.8 354.28 35.16 355.07 36.07 355.31C36.96 355.55 37.68 355.08 38.21 354.38C39.16 353.1 39.56 351.65 39.39 350.07C39.3 349.22 38.87 348.55 38.14 348.02C37.56 347.61 37.09 347.67 36.59 348.11C35.7 348.91 35.17 349.91 34.81 351.07ZM72.78 273.46C72.75 272.88 72.79 272.13 72.66 271.41C72.51 270.47 71.66 269.73 70.92 269.75C70.15 269.76 69.28 270.46 69.16 271.4C69.06 272.19 69.1 273.04 69.32 273.81C69.56 274.67 69.94 275.67 71.08 275.6C72.2 275.52 72.31 274.43 72.78 273.46ZM75.58 257.58C75.77 256.29 75.35 255.58 74.25 255.33C73.2 255.11 72.37 255.61 71.96 256.72C71.62 257.67 71.76 258.59 72.19 259.47C72.66 260.42 73.5 260.69 74.29 260C74.87 259.53 75.56 257.75 75.58 257.58ZM73.16 250.53C72.93 251.47 73.05 252.26 73.5 252.9C74.05 253.7 75.22 253.89 75.84 253.19C76.43 252.52 76.9 251.74 76.76 250.74C76.6 249.6 75.89 248.58 75.13 248.49C74.26 248.4 73.47 249.22 73.16 250.53ZM74.39 265.32C74.66 264.16 73.94 262.92 72.68 262.64C71.87 262.46 70.93 263.26 70.66 264.38C70.4 265.47 71.14 267.22 71.98 267.46C72.76 267.7 73.99 266.74 74.32 265.63C74.33 265.59 74.33 265.55 74.39 265.32ZM41.75 312.11C40.13 313.72 39.78 315.66 40.31 317.77C40.62 319.05 41.47 319.84 42.55 320.01C40.71 317.52 40.9 314.85 41.75 312.11ZM32.99 366.22C31.61 363.65 31.97 361.07 33.06 358.41C30.47 360.26 30.46 364.05 32.99 366.22ZM72.62 247.13C70.49 247.64 69.59 250.36 70.94 252.03C70.98 250.21 71.38 248.54 72.62 247.13ZM55 327.48C52.97 328.77 52.42 331.48 53.91 332.79C53.58 330.91 54.09 329.25 55 327.48ZM66.98 273.44C66.76 271.67 67.32 270.15 68.64 268.75C66.54 269.38 65.91 271.29 66.98 273.44ZM60.08 307.01C58.75 308.18 58.34 309.64 58.89 310.93C59.27 309.69 59.67 308.37 60.08 307.01ZM32.58 354.43C32.75 352.68 32.93 350.92 33.08 349.38C32.29 350.84 31.7 352.56 32.58 354.43ZM68.33 265.34C68.68 264.25 69.04 263.11 69.38 262.05C68.32 262.43 67.93 263.52 68.33 265.34ZM69.16 258.52C69.52 257.43 69.88 256.29 70.22 255.23C69.16 255.61 68.77 256.7 69.16 258.52ZM55.53 320.47C56.11 319.18 56.64 317.99 57.24 316.66C56 317.73 55.31 318.87 55.53 320.47Z" fill="#1F0600" fill-opacity="1.000000" fill-rule="nonzero"/>
	</g>
</svg>
