<svg width="29" height="8" viewBox="0 0 29 8" fill="none" xmlns="http://www.w3.org/2000/svg">
<path d="M24.0624 7.54354C25.3217 6.62638 26.584 5.71339 27.8433 4.79623C28.1501 4.57381 28.2256 3.93841 27.8694 3.66543C26.5316 2.63828 25.1926 1.61262 23.8548 0.585464C23.7038 0.470653 23.5662 0.389709 23.3815 0.398871C23.2238 0.406698 23.0437 0.493333 22.9468 0.630514C22.7589 0.898829 22.7351 1.40937 23.04 1.64316C23.8661 2.27556 24.6923 2.90939 25.5171 3.54185C24.6325 3.53394 23.7476 3.52173 22.8627 3.50952C20.9768 3.48366 19.0893 3.45501 17.2031 3.42629C15.0924 3.39432 12.9815 3.35948 10.8708 3.32751C8.93037 3.29716 6.98991 3.26682 5.04985 3.24077C3.69533 3.22165 2.3421 3.20245 0.988505 3.19335C0.878967 3.19303 0.770712 3.19265 0.661041 3.19089C0.323316 3.18895 0.0359243 3.5658 0.0857262 3.93887C0.139581 4.34195 0.431951 4.62097 0.792892 4.62321C2.05734 4.62954 3.32155 4.64739 4.58705 4.66518C6.47298 4.69103 8.36046 4.71969 10.2467 4.74841C12.3573 4.78038 14.4682 4.81522 16.5789 4.84719C18.5194 4.87753 20.4598 4.90788 22.3999 4.93393C23.3274 4.9469 24.2561 4.95838 25.1833 4.96849C24.5553 5.42411 23.9273 5.87973 23.2995 6.33678C23.0253 6.536 22.9432 7.01489 23.1601 7.32787C23.3818 7.65069 23.7678 7.75815 24.0624 7.54354Z" fill="#BC181E"/>
</svg>
