<svg width="14" height="14" viewBox="0 0 14 14" fill="none" xmlns="http://www.w3.org/2000/svg">
<path d="M7.00007 0C3.13406 0 0 3.13406 0 7.00007C0 10.8661 3.13406 14.0001 7.00007 14.0001C10.8661 14.0001 14.0001 10.8661 14.0001 7.00007C14.0001 3.13406 10.8661 0 7.00007 0ZM7.00007 13.0496C3.65893 13.0496 0.950357 10.3411 0.950357 6.99993C0.950357 3.65879 3.65893 0.950357 7.00007 0.950357C10.3412 0.950357 13.0498 3.65893 13.0498 7.00007C13.0498 10.3412 10.3412 13.0496 7.00007 13.0496Z" fill="#0D0D0F"/>
<path d="M7.06965 7.35486C6.83693 7.35486 6.64746 7.16525 6.64746 6.9321V3.20356C6.64746 3.01166 6.80156 2.85169 6.99103 2.84682C6.99418 2.84668 6.99719 2.84668 7.00034 2.84668C7.09457 2.84668 7.18307 2.88334 7.24981 2.95008C7.31641 3.01667 7.35321 3.10532 7.35321 3.19955V6.54084L9.47963 5.7115L9.48077 5.71107C9.51815 5.69761 9.55725 5.69073 9.59677 5.69073C9.74042 5.69073 9.86988 5.78153 9.91872 5.91672C9.93218 5.95396 9.93905 5.99305 9.93905 6.03287C9.93905 6.17608 9.84883 6.30511 9.71421 6.35423L7.2236 7.32579C7.17391 7.34498 7.12207 7.35486 7.06965 7.35486Z" fill="#0D0D0F"/>
</svg>
