<svg width="31" height="33" viewBox="0 0 31 33" fill="none" xmlns="http://www.w3.org/2000/svg">
<g clip-path="url(#clip0_2183_858)">
<path d="M11.5574 0.0259978C7.93471 -0.246699 5.13963 1.65849 2.72933 4.20858C1.05954 5.97374 -0.250886 8.21059 0.0395124 10.5396C-0.0839068 12.1647 0.152042 13.834 0.642088 15.4223C2.52242 21.499 7.69513 27.3473 14.5122 25.6669C20.2476 24.2518 24.9811 18.7831 24.3821 12.6327C23.7251 5.90372 18.1241 0.523485 11.5574 0.0259978ZM21.2604 10.8381C22.7486 15.566 20.2331 20.095 15.9787 22.2139C14.0766 23.161 11.8551 23.5664 9.81504 22.8478C7.51 22.0371 5.79665 19.896 4.5915 17.8324C3.11047 15.2896 2.10134 12.301 2.68214 9.33086C2.78014 8.81863 2.93623 8.32483 3.12862 7.84576C3.58237 7.27457 4.07605 6.74761 4.50801 6.29065C6.09431 4.60288 7.91293 2.91142 10.3196 2.75297C15.3326 2.42868 19.7757 6.12851 21.2604 10.8381Z" fill="white"/>
<path d="M27.8965 26.1348C26.7312 24.8819 25.3954 23.8022 24.2483 22.5345C23.3844 21.5801 20.3715 20.3456 20.9197 20.6441C21.8816 21.1637 22.5495 22.0702 23.261 22.8809C24.0342 23.7616 24.9199 24.5024 25.7584 25.3204C26.6078 26.1459 27.4246 27.0119 28.2123 27.9C28.9891 28.7734 30.5137 29.8273 29.6026 31.0434C29.4102 31.3013 28.9165 31.832 28.6007 31.9278C28.0961 32.0752 28.078 31.7841 27.7295 31.3972C26.8873 30.4575 25.9798 29.5694 25.1123 28.6518C23.1303 26.5513 21.2137 24.3955 19.2753 22.2581C18.8905 21.8307 18.2988 22.4276 18.6364 22.8219C18.6364 22.8219 18.6328 22.8219 18.6328 22.8256C21.1375 25.9064 23.8962 28.7697 26.6441 31.6256C27.1051 32.1047 27.5988 33.0297 28.3538 33.0002C29.1488 32.9707 30.02 31.9905 30.4701 31.4377C30.9965 30.7891 31.1997 30.1811 30.7787 29.4072C30.1325 28.2206 28.804 27.1114 27.8965 26.1348Z" fill="white"/>
<path d="M26.3211 25.5235C25.8855 25.8994 25.5189 26.3895 25.1268 26.8133C24.7747 27.1929 24.4335 27.5651 24.2302 28.0515C24.0887 28.3832 24.5569 28.689 24.8038 28.4421C24.8219 28.4237 25.0216 28.409 25.0107 28.4126C25.1014 28.4016 25.1268 28.2873 25.076 28.2247C25.0688 28.2173 25.0615 28.2063 25.0542 28.1989C25.3555 27.893 25.6459 27.5724 25.9581 27.2776C26.3247 26.9275 26.7603 26.5775 26.9854 26.1168C27.1959 25.6857 26.7313 25.1661 26.3211 25.5235Z" fill="white"/>
<path d="M29.2536 30.6644C28.8978 30.8376 28.5602 30.9776 28.1754 31.0845C27.856 31.1729 27.4349 31.2393 27.1808 31.464C27.1228 31.5156 27.1373 31.6151 27.2171 31.6299C27.3877 31.6594 27.5547 31.6852 27.7253 31.6888C27.7943 31.6925 27.8124 31.6004 27.7507 31.5783C27.9903 31.5341 28.2299 31.4751 28.4477 31.4309C28.7998 31.3572 29.1628 31.2687 29.4605 31.0587C29.6601 30.915 29.4859 30.5501 29.2536 30.6644Z" fill="white"/>
<path d="M29.5985 29.8269C28.6185 30.3023 27.613 30.4387 26.5385 30.4313C26.4586 30.4313 26.4731 30.5566 26.553 30.5566C27.6166 30.5639 28.7128 30.5087 29.7256 30.1586C29.9398 30.0849 29.8018 29.7274 29.5985 29.8269Z" fill="white"/>
<path d="M29.2791 28.9245C28.2409 29.1788 27.1592 29.4294 26.1392 29.7611C25.994 29.809 26.0775 30.0338 26.2227 29.9859C26.8144 29.7979 27.4206 29.6874 28.0304 29.5915C28.4769 29.5215 28.9996 29.4847 29.4098 29.2783C29.6312 29.1678 29.5114 28.8656 29.2791 28.9245Z" fill="white"/>
<path d="M28.6399 28.0954C27.5618 28.545 26.4148 28.6408 25.3258 29.0425C25.1515 29.1051 25.2532 29.3557 25.4274 29.3115C26.4983 29.0314 27.9648 29.2599 28.8868 28.5597C29.1191 28.3828 28.9231 27.9775 28.6399 28.0954Z" fill="white"/>
<path d="M27.7831 27.0962C26.8647 27.52 25.9645 27.8038 24.9662 27.977C24.7158 28.0212 24.7521 28.4044 25.0062 28.3787C26.0008 28.2718 27.1769 28.1465 28.0408 27.59C28.3094 27.4168 28.0735 26.9636 27.7831 27.0962Z" fill="white"/>
<path d="M27.0936 26.1271C26.3966 26.5583 25.6561 27.0373 24.8393 27.1847C24.676 27.2142 24.6978 27.4648 24.8647 27.45C25.7323 27.3616 26.5382 26.9305 27.3041 26.5325C27.5981 26.3777 27.3767 25.9502 27.0936 26.1271Z" fill="white"/>
</g>
<defs>
<clipPath id="clip0_2183_858">
<rect width="31" height="33" fill="white"/>
</clipPath>
</defs>
</svg>
