<?xml version="1.0" encoding="utf-8"?>
<!-- Generator: Adobe Illustrator 24.0.0, SVG Export Plug-In . SVG Version: 6.00 Build 0)  -->
<svg version="1.1" id="Слой_1" xmlns="http://www.w3.org/2000/svg" xmlns:xlink="http://www.w3.org/1999/xlink" x="0px" y="0px"
	 viewBox="0 0 28 32" style="enable-background:new 0 0 28 32;" xml:space="preserve">
<style type="text/css">
	.st0{fill:#54483C;}
</style>
<g>
	<path class="st0" d="M13.9,15.1c0.3,0,0.6-0.1,0.8-0.2c0.5-0.3,0.8-0.9,0.8-1.5c0-0.2-0.1-0.4-0.2-0.5c0.3-0.2,0.6-0.6,0.6-1.1
		c0-0.4-0.1-0.6-0.2-0.9c0.3-0.2,0.5-0.5,0.5-1.1c0-0.5-0.1-0.8-0.2-1.1c0.3-0.2,0.6-0.6,0.6-1.2c0-0.9-0.8-1.7-1.7-1.7l-3,0.1
		c0.2-0.9,0.4-2.5,0.3-3.6c-0.2-1.1-1.1-1.8-1.9-1.8c-0.3,0-0.6,0.1-0.8,0.3C9.3,1,9.1,1.3,9.1,1.9c0,1.5-0.2,1.9-1.3,3.2
		c-0.6,0.7-1,1.3-1.3,1.7C6.3,6.7,6.2,6.6,6,6.6L1.4,6.8c-0.3,0-0.5,0.1-0.7,0.4C0.5,7.3,0.5,7.6,0.5,7.9l1.7,6.9
		c0.1,0.4,0.5,0.7,0.9,0.7c0,0,0,0,0,0l3.2,0c0.2,0,0.5-0.1,0.6-0.3c0,0,0-0.1,0.1-0.1c0,0,0.1,0,0.1,0H13.9z M10.3,1.5
		C10.3,1.5,10.3,1.5,10.3,1.5l0,0.3c0,0,0,0,0,0L10.3,1.5z M10.3,1.9c0-0.1,0-0.2,0-0.2c0.2,0,0.6,0.3,0.7,0.8
		c0.2,1-0.2,3.1-0.4,3.8c0,0.2,0,0.4,0.1,0.6l0.1,0.1c0.1,0.2,0.3,0.2,0.6,0.2c0,0,0,0,0,0L15,7.1c0.3,0,0.5,0.2,0.5,0.5
		c0,0-0.2,0.1-0.4,0.2c-0.1,0-0.3,0.1-0.4,0.2c-0.2,0.1-0.4,0.4-0.4,0.6l0,0.1c0,0.3,0.2,0.5,0.4,0.6c0.1,0,0.2,0.1,0.2,0.1
		c0,0,0,0.1,0,0.5c0,0-0.2,0.1-0.3,0.1c-0.1,0-0.2,0.1-0.3,0.1c-0.4,0.2-0.6,0.5-0.5,0.8c0.1,0.4,0.5,0.6,0.8,0.6c0,0,0,0.1,0,0.2
		c0,0.1-0.2,0.1-0.2,0.1c-0.4,0-0.6,0.3-0.7,0.7c0,0.3,0.2,0.7,0.5,0.8c0,0,0.1,0.1,0.1,0.1c0,0.2-0.1,0.3-0.1,0.3
		c-0.1,0-0.1,0-0.2,0l-6.6,0L7.2,8.3c0-0.1,0.1-0.3,0.2-0.5l0.1-0.1c0.2-0.4,0.6-1,1.3-1.8C10,4.4,10.3,3.7,10.3,1.9z M1.5,7.7
		l4.4-0.1l0,0.3c0,0.1-0.1,0.2-0.1,0.3L6.1,14c0,0.2,0,0.3,0.1,0.5l-3,0L1.5,7.7z"/>
	<path class="st0" d="M27.7,24.1L26,17.2c-0.1-0.4-0.5-0.7-0.9-0.7l-3.2,0c-0.2,0-0.5,0.1-0.6,0.3c0,0,0,0.1-0.1,0.1
		c0,0-0.1,0-0.1,0h-6.8c-0.3,0-0.6,0.1-0.8,0.2c-0.5,0.3-0.8,0.9-0.8,1.5c0,0.2,0.1,0.4,0.2,0.5c-0.3,0.2-0.6,0.6-0.6,1.1
		c0,0.4,0.1,0.6,0.2,0.9c-0.3,0.2-0.5,0.5-0.5,1.1c0,0.5,0.1,0.8,0.2,1.1c-0.3,0.2-0.6,0.6-0.6,1.2c0,0.9,0.8,1.7,1.7,1.7l3-0.1
		c-0.2,0.9-0.4,2.5-0.3,3.6c0.2,1.1,1.1,1.8,1.9,1.8c0.3,0,0.6-0.1,0.8-0.3c0.2-0.2,0.4-0.5,0.4-1.1c0-1.5,0.2-1.9,1.3-3.2
		c0.6-0.7,1-1.3,1.3-1.7c0.1,0.1,0.3,0.1,0.5,0.1c0,0,0,0,0,0l4.6-0.1c0.3,0,0.5-0.1,0.7-0.4C27.7,24.7,27.7,24.4,27.7,24.1z
		 M17.8,30.1c0,0.1,0,0.1,0,0.2c-0.2,0-0.6-0.3-0.7-0.8c-0.2-1.1,0.2-3.1,0.4-3.7c0.1-0.2,0-0.4-0.1-0.6l-0.1-0.1
		c-0.1-0.2-0.3-0.2-0.6-0.2l-3.6,0.1c-0.3,0-0.5-0.2-0.5-0.5c0,0,0.2-0.1,0.4-0.2c0.1,0,0.3-0.1,0.4-0.1c0.2-0.1,0.4-0.4,0.4-0.6
		l0-0.1c0-0.3-0.2-0.5-0.4-0.6c-0.1,0-0.2-0.1-0.2-0.1c0,0,0-0.1,0-0.5c0,0,0.2-0.1,0.3-0.1c0.1,0,0.2-0.1,0.3-0.1
		c0.4-0.2,0.6-0.5,0.5-0.8c-0.1-0.4-0.5-0.6-0.8-0.6c0,0,0,0,0-0.2c0-0.1,0.2-0.1,0.2-0.1c0.3,0,0.6-0.3,0.7-0.7
		c0-0.3-0.2-0.7-0.5-0.8c0,0-0.1-0.1-0.1-0.1c0-0.2,0.1-0.3,0.1-0.3c0.1,0,0.1,0,0.2,0l6.6,0l0.2,5.6c0,0.1-0.3,0.6-0.3,0.6
		c-0.2,0.4-0.6,1-1.3,1.8C18.2,27.6,17.9,28.3,17.8,30.1z M22.2,24.4l0-0.3c0-0.1,0.1-0.2,0.1-0.3L22.1,18c0-0.2,0-0.3-0.1-0.5l3,0
		l1.6,6.8L22.2,24.4z"/>
</g>
<path class="st0" d="M10.7,6.9"/>
</svg>
