<svg width="45" height="43" viewBox="0 0 45 43" fill="none" xmlns="http://www.w3.org/2000/svg">
<path d="M2.06237 4.98647C1.07286 11.9004 0.372967 18.8877 0.107489 25.8668C-0.0373166 29.6617 -0.198212 33.758 0.807386 37.4552C1.45901 39.8494 3.16451 40.3706 5.36878 40.9C13.7917 42.9033 22.9305 43.1639 31.5385 42.9277C34.9092 42.8381 38.6661 42.7567 41.8519 41.5107C44.0722 40.6475 44.217 39.4667 44.4101 37.2516C44.9893 30.4517 45.1985 23.5784 44.7802 16.7622C44.5066 12.3972 44.3377 4.15582 39.712 1.86745C37.4353 0.743631 33.791 0.955366 31.3212 0.702913C27.323 0.295731 23.3006 0.0514213 19.2782 0.0188467C14.3387 -0.0218715 4.97458 -0.363905 2.1026 4.86432C1.75667 5.48323 3.01166 5.49138 3.27713 5.0109C5.4814 1.01237 12.6493 1.1101 16.4947 0.971654C22.0697 0.768062 27.677 1.24039 33.2118 1.85931C35.0058 2.0629 36.9928 2.11176 38.7305 2.60853C40.3475 3.07271 41.2163 5.10863 41.7553 6.53377C43.3965 10.8906 43.5574 15.9071 43.6941 20.5083C43.8389 25.1909 43.67 29.8816 43.3723 34.5479C43.2034 37.2027 43.7746 39.9879 40.8784 40.9081C37.0813 42.1134 32.7532 42.0319 28.8193 42.0482C23.7833 42.0726 18.7472 41.7713 13.7434 41.2338C10.4772 40.8837 6.09281 40.7941 3.16451 39.0676C0.566042 37.5448 1.28203 30.4517 1.30616 28.0574C1.38661 20.321 2.22327 12.5356 3.31736 4.88875C3.40585 4.25354 2.14282 4.41642 2.06237 4.98647Z" fill="white"/>
</svg>
