<svg width="30" height="11" viewBox="0 0 30 11" fill="none" xmlns="http://www.w3.org/2000/svg">
<g clip-path="url(#clip0_2390_105)">
<path d="M29.9488 3.64913C29.9547 3.56942 29.6535 3.46694 29.5117 3.35307C29.4172 3.27905 29.3345 3.17656 29.2932 3.06839C28.7675 1.65638 27.6866 0.796647 26.2512 0.363935C24.4674 -0.171262 22.6659 -0.120019 20.9057 0.472113C19.7539 0.859277 18.8679 1.59375 18.2477 2.62429C18.0055 3.02853 17.6807 3.38723 17.3853 3.7687C15.8496 2.6129 14.0008 2.6129 12.53 3.78578C12.1874 3.30752 11.8626 2.86342 11.5613 2.41362C10.9411 1.49126 10.0965 0.842196 9.03328 0.466419C7.65702 -0.017535 6.22761 -0.085858 4.79819 0.113417C2.84899 0.398097 1.32507 1.2806 0.598548 3.15948C0.563108 3.24489 0.450881 3.30182 0.374094 3.36445C0.244147 3.46124 0.00788026 3.54665 0.00197358 3.64913C-0.0157464 3.91673 0.049227 4.19572 0.120107 4.46331C0.161454 4.61704 0.303214 4.74799 0.338654 4.90172C0.498134 5.61911 0.533574 6.37636 0.805281 7.0482C1.57906 8.94416 2.86671 10.396 5.02855 10.8572C7.91692 11.4721 10.8998 9.86652 12.0811 7.11083C12.4296 6.29665 12.6541 6.06321 13.0616 5.21487C13.3038 4.70814 13.605 4.34375 14.1485 4.27543C14.6682 4.2071 15.2117 4.19572 15.7314 4.25834C16.3162 4.32667 16.6411 4.70244 16.8892 5.24903C17.4621 6.50162 17.7515 7.01973 18.3835 8.07874C20.6281 11.8764 25.761 11.6771 28.0173 9.18329C29.0983 7.99333 29.6239 6.62118 29.5885 5.03837C29.5826 4.86186 29.6062 4.57149 29.7007 4.53164C30.1969 4.32667 29.9193 3.9452 29.9488 3.64913ZM11.0238 5.75006C10.8171 8.07874 8.73204 9.80959 6.25714 9.80959C3.91219 9.80959 1.81532 7.90793 1.56134 5.61342C1.266 2.90897 3.15614 1.24644 5.6901 1.24075C6.47569 1.24075 7.27309 1.32615 8.03505 1.49696C10.4686 2.03785 11.1774 4.04199 11.0238 5.75006ZM28.3599 5.807C27.9051 9.24023 24.0244 10.4359 21.7681 9.54768C19.2814 8.56839 17.6334 5.42553 19.7244 2.62998C20.4095 1.71331 21.4905 1.42294 22.5891 1.23505C23.0262 1.16104 23.4692 1.14965 23.9122 1.1041C25.1231 1.12688 26.2453 1.36601 27.1727 2.16311C28.3127 3.1481 28.543 4.42346 28.3599 5.807Z" fill="#E31E25"/>
</g>
<defs>
<clipPath id="clip0_2390_105">
<rect width="30" height="11" fill="white" transform="translate(0.00195312)"/>
</clipPath>
</defs>
</svg>
