<svg width="40" height="38" viewBox="0 0 40 38" fill="none" xmlns="http://www.w3.org/2000/svg">
<path d="M1.83312 4.40485C0.953603 10.5151 0.331508 16.6901 0.0955408 22.8579C-0.0331685 26.2117 -0.176179 29.8318 0.717636 33.0992C1.29683 35.2151 2.81274 35.6757 4.77198 36.1435C12.2586 37.9139 20.3816 38.1442 28.0326 37.9355C31.0287 37.8564 34.368 37.7844 37.1996 36.6833C39.1731 35.9204 39.3018 34.8768 39.4734 32.9193C39.9883 26.9098 40.1742 20.8355 39.8024 14.8117C39.5592 10.9541 39.4091 3.67076 35.2975 1.64841C33.2739 0.655233 30.0348 0.842354 27.8396 0.619248C24.2857 0.2594 20.7105 0.0434906 17.1352 0.0147027C12.7448 -0.0212821 4.4216 -0.323555 1.86887 4.2969C1.5614 4.84387 2.67688 4.85107 2.91285 4.42645C4.87209 0.892733 11.2432 0.979097 14.6611 0.856748C19.6165 0.676824 24.6004 1.09425 29.5199 1.64122C31.1145 1.82114 32.8807 1.86432 34.4252 2.30334C35.8624 2.71357 36.6347 4.51281 37.1138 5.77228C38.5725 9.62266 38.7155 14.056 38.837 18.1223C38.9658 22.2605 38.8156 26.406 38.551 30.5299C38.4009 32.8761 38.9086 35.3374 36.3344 36.1507C32.9593 37.2158 29.1123 37.1439 25.6157 37.1583C21.1395 37.1799 16.6633 36.9136 12.2157 36.4386C9.31256 36.1291 5.41553 36.0499 2.81274 34.5242C0.50312 33.1783 1.13952 26.9098 1.16097 24.7939C1.23247 17.9567 1.97613 11.0764 2.9486 4.31849C3.02725 3.75713 1.90462 3.90107 1.83312 4.40485Z" fill="#54483C"/>
</svg>
