<svg width="40" height="38" viewBox="0 0 40 38" fill="none" xmlns="http://www.w3.org/2000/svg">
<path d="M1.83312 4.40681C0.953603 10.517 0.331508 16.692 0.0955408 22.8598C-0.0331685 26.2136 -0.176179 29.8337 0.717636 33.1011C1.29683 35.217 2.81274 35.6776 4.77198 36.1454C12.2586 37.9159 20.3816 38.1462 28.0326 37.9375C31.0287 37.8583 34.368 37.7864 37.1996 36.6852C39.1731 35.9223 39.3018 34.8788 39.4734 32.9212C39.9883 26.9117 40.1742 20.8375 39.8024 14.8136C39.5592 10.9561 39.4091 3.67272 35.2975 1.65037C33.2739 0.657186 30.0348 0.844307 27.8396 0.621201C24.2857 0.261353 20.7105 0.0454437 17.1352 0.0166558C12.7448 -0.019329 4.4216 -0.321602 1.86887 4.29885C1.5614 4.84582 2.67688 4.85302 2.91285 4.4284C4.87209 0.894686 11.2432 0.98105 14.6611 0.858701C19.6165 0.678777 24.6004 1.0962 29.5199 1.64317C31.1145 1.8231 32.8807 1.86628 34.4252 2.30529C35.8624 2.71552 36.6347 4.51476 37.1138 5.77423C38.5725 9.62461 38.7155 14.0579 38.837 18.1242C38.9658 22.2625 38.8156 26.4079 38.551 30.5318C38.4009 32.878 38.9086 35.3394 36.3344 36.1526C32.9593 37.2178 29.1123 37.1458 25.6157 37.1602C21.1395 37.1818 16.6633 36.9155 12.2157 36.4405C9.31256 36.1311 5.41553 36.0519 2.81274 34.5261C0.50312 33.1803 1.13952 26.9117 1.16097 24.7958C1.23247 17.9587 1.97613 11.0784 2.9486 4.32044C3.02725 3.75908 1.90462 3.90302 1.83312 4.40681Z" fill="#E31E25"/>
</svg>
