<svg width="40.119141" height="7.264648" viewBox="0 0 40.1191 7.26465" fill="none" xmlns="http://www.w3.org/2000/svg" xmlns:xlink="http://www.w3.org/1999/xlink">
	<desc>
			Created with Pixso.
	</desc>
	<defs/>
	<path id="Vector" d="M5.92 7.14C4.08 6.19 2.24 5.25 0.4 4.31C-0.05 4.08 -0.19 3.44 0.31 3.17C2.19 2.17 4.07 1.17 5.94 0.17C6.15 0.06 6.35 -0.02 6.61 0C6.84 0.01 7.1 0.1 7.24 0.24C7.52 0.51 7.58 1.02 7.15 1.25C5.99 1.87 4.83 2.48 3.68 3.1C4.94 3.11 6.21 3.12 7.48 3.12C10.18 3.14 12.88 3.15 15.58 3.16C18.6 3.18 21.62 3.19 24.64 3.2C27.42 3.21 30.2 3.22 32.97 3.24C34.91 3.25 36.85 3.26 38.79 3.28C38.94 3.28 39.1 3.28 39.26 3.28C39.74 3.29 40.17 3.67 40.11 4.04C40.05 4.45 39.64 4.72 39.12 4.71C37.31 4.69 35.5 4.68 33.69 4.67C30.99 4.66 28.29 4.65 25.59 4.64C22.57 4.62 19.55 4.61 16.53 4.6C13.75 4.59 10.97 4.58 8.2 4.56C6.87 4.55 5.54 4.55 4.21 4.54C5.13 5.01 6.05 5.48 6.96 5.95C7.36 6.15 7.5 6.64 7.2 6.94C6.9 7.26 6.35 7.36 5.92 7.14Z" fill="#FFFFFF" fill-opacity="1.000000" fill-rule="nonzero"/>
</svg>
