<svg width="182.414062" height="97.508789" viewBox="0 0 182.414 97.5088" fill="none" xmlns="http://www.w3.org/2000/svg" xmlns:xlink="http://www.w3.org/1999/xlink">
	<desc>
			Created with Pixso.
	</desc>
	<defs>
		<clipPath id="clip2183_4983">
			<rect id="Frame" rx="0.000000" width="68.000000" height="82.000000" transform="translate(116.065430 0.500488) rotate(14.345734)" fill="white" fill-opacity="0"/>
		</clipPath>
		<clipPath id="clip2183_5011">
			<rect id="Frame" rx="0.000000" width="51.000000" height="66.000000" transform="translate(0.500000 11.911621) rotate(-8.194060)" fill="white" fill-opacity="0"/>
		</clipPath>
	</defs>
	<rect id="Frame" rx="0.000000" width="68.000000" height="82.000000" transform="translate(116.065430 0.500488) rotate(14.345734)" fill="#FFFFFF" fill-opacity="0"/>
	<g clip-path="url(#clip2183_4983)">
		<path id="Vector" d="M108.82 66.94C109.15 66.99 109.05 67.64 108.72 67.59C108.39 67.54 108.49 66.89 108.82 66.94Z" fill="#515151" fill-opacity="1.000000" fill-rule="nonzero"/>
		<path id="Vector" d="M99.41 81.03C99.37 81.27 99.58 81.41 99.77 81.39C99.79 81.55 99.91 81.71 100.12 81.71C105.52 81.74 110.85 82.98 116.13 83.95C121.21 84.88 126.28 85.81 131.36 86.74C141.79 88.65 152.23 90.57 162.66 92.48C162.81 92.51 162.92 92.44 162.98 92.34C163.1 92.31 163.2 92.24 163.24 92.08C168.91 67.16 171 54.35 175.69 29.22C175.72 29.04 175.62 28.92 175.48 28.89C175.5 28.73 175.42 28.56 175.22 28.52C165.83 26.75 156.43 24.99 147.03 23.23C147.09 23.07 147.02 22.94 146.91 22.87C148.57 23.17 150.58 23.29 151.16 21.33C151.65 19.66 150.43 18.34 149 17.76C149.36 16.84 149.77 15.93 150.23 15.05C150.25 15.01 150.25 14.98 150.26 14.94C152.39 15.32 154.53 14.71 154.41 12.59C154.42 12.56 154.44 12.53 154.44 12.49C154.64 10.65 152.67 9.6 151.17 9.13C150.01 8.75 147.5 8.23 146.86 9.8C146.81 9.92 146.79 10.03 146.77 10.14C145.89 11.42 146.19 12.57 147.07 13.43C146.94 13.41 146.82 13.46 146.75 13.62C146.3 14.68 145.97 15.77 145.76 16.89C145.75 16.89 145.74 16.89 145.72 16.88C144.16 16.91 142.21 17.37 142.2 19.31C142.19 20.75 143.18 21.61 144.44 22.15L144.4 22.38L144.32 22.37C133.45 20.02 122.54 17.81 111.64 15.73C111.64 15.85 111.61 15.97 111.6 16.09C111.56 16.38 111.42 16.66 111.24 16.89C106.51 42.39 104.13 55.52 99.41 81.03ZM153.68 12.11C153.68 12.12 153.68 12.12 153.68 12.14C152.75 13.43 151.08 12.82 149.88 12.35C149.22 12.09 147.91 11.59 147.64 10.86C147 9.15 149.05 9.39 149.69 9.46C150.26 9.53 150.84 9.68 151.37 9.89C152.2 10.21 153.45 10.82 153.72 11.82C153.68 11.9 153.65 12 153.68 12.11ZM146.97 11.1C147.49 11.94 148.7 12.57 149.41 12.87C150.77 13.45 152.55 14.02 153.73 13.05C153.23 15.8 146.02 14.01 146.97 11.1ZM148.28 17.79C148.25 17.84 148.22 17.89 148.22 17.95C148.05 18.38 147.9 18.83 147.76 19.28C147.71 19.27 147.65 19.28 147.6 19.29C147.03 19.49 146.41 19.18 146.17 18.63C146.17 18.62 146.16 18.61 146.15 18.6C146.29 16.96 146.68 15.39 147.32 13.87C147.35 13.8 147.35 13.74 147.34 13.68C147.95 14.17 148.76 14.55 149.61 14.78C149.11 15.76 148.67 16.76 148.28 17.79ZM146.49 22.11C145.96 21.99 145.41 21.86 144.9 21.66C144.88 21.65 144.87 21.65 144.84 21.64C144.78 21.62 144.72 21.6 144.66 21.57C144.37 21.4 144.07 21.24 143.78 21.07C143.25 20.74 142.97 20.36 142.95 19.91C142.72 19.22 143.08 18.56 143.46 18C143.66 17.71 144.05 17.6 144.39 17.67C144.49 17.64 144.58 17.63 144.68 17.6C145 17.54 145.32 17.54 145.63 17.53C145.57 17.9 145.53 18.28 145.5 18.66C145.49 18.77 145.53 18.86 145.6 18.92C145.98 19.78 146.96 20.2 147.85 19.91C147.86 19.9 147.86 19.9 147.86 19.9C148.02 19.99 148.23 19.97 148.29 19.76C148.44 19.29 148.59 18.83 148.76 18.38C149.86 18.88 151.3 20.19 150.42 21.45C149.52 22.73 147.78 22.37 146.49 22.11ZM145 22.71L145.05 22.38C145.69 22.57 145.98 22.67 146.42 22.76C146.5 22.77 146.54 22.78 146.61 22.8C146.53 22.82 146.47 22.88 146.42 22.98C145.67 24.68 144.92 26.39 144.17 28.09C144.06 28.11 143.98 28.18 143.93 28.27C143.93 28.27 143.93 28.27 143.93 28.27C143.81 28.25 143.68 28.31 143.61 28.42C143.91 26.54 144.33 24.69 144.89 22.86C144.93 22.82 144.99 22.78 145 22.71ZM100.07 81.05C104.82 55.4 107.22 42.12 111.97 16.46C122.71 18.51 133.42 20.69 144.1 22.99C143.71 24.34 143.41 25.71 143.16 27.09C143.11 27.06 143.06 27.04 142.98 27.05C142.38 27.09 141.96 27.63 141.96 28.22C141.96 28.58 142.12 28.89 142.36 29.14C133.58 28.14 124.96 25.74 116.36 23.77C116.35 23.77 116.33 23.83 116.33 23.84L116.32 23.83C116.27 23.83 116.24 23.77 116.2 23.76C116.15 23.75 116.11 23.69 116.08 23.71C115.34 23.62 114.64 23.49 114.01 23.1C114.02 23.07 114 23.15 114.01 23.16L113.36 23.06C110.02 39.78 106.9 57.1 103.81 74.22C103.74 74.64 104.4 74.62 104.47 74.2C107.52 57.34 110.56 40.47 113.89 23.66C114.62 24.06 115.4 24.3 116.24 24.35C125.3 26.42 134.39 29.01 143.66 29.91C152.83 30.8 161.88 32.92 170.85 34.98C167.78 51.49 164.51 67.96 161.07 84.39C161.06 84.43 161.06 84.47 161.07 84.51C160.4 84.36 159.74 84.28 159.07 84.25C159.06 84.25 159.05 84.24 159.04 84.24C141.86 81.06 124.68 77.88 107.5 74.7C107.46 74.67 107.41 74.63 107.35 74.62C106.51 74.39 105.65 74.25 104.78 74.17C104.36 74.14 104.26 74.79 104.68 74.82C105.38 74.88 106.07 74.99 106.76 75.15C106.8 75.21 106.87 75.25 106.95 75.27C123.94 78.41 140.94 81.56 157.93 84.71C157.92 84.77 157.95 84.83 158.02 84.84C159.06 85.16 160.11 85.36 161.2 85.46C161.38 85.47 161.44 85.22 161.31 85.15C161.43 85.07 161.48 84.9 161.42 84.75C161.55 84.73 161.67 84.66 161.71 84.49C165.19 67.92 168.48 51.31 171.58 34.66C171.64 34.34 171.26 34.21 171.05 34.37C171.03 34.36 171 34.34 170.96 34.33C162.4 32.37 153.77 30.35 145.03 29.4C145.46 28.98 145.53 28.35 145.23 27.84C145.18 27.76 145.12 27.73 145.07 27.71C145.63 26.42 146.2 25.13 146.77 23.83C146.78 23.83 146.79 23.84 146.79 23.84C156.21 25.61 165.62 27.38 175.04 29.15C170.37 54.2 168.29 66.95 162.64 91.81C151.96 89.85 141.29 87.9 130.62 85.94C125.26 84.96 119.9 83.97 114.54 82.99C109.74 82.11 104.96 81.08 100.07 81.05Z" fill="#515151" fill-opacity="1.000000" fill-rule="nonzero"/>
		<path id="Vector" d="M146.76 26.63C147.33 27.07 147.53 27.87 147.23 28.53C147.14 28.72 146.84 28.59 146.93 28.4C147.17 27.87 147.02 27.24 146.56 26.88C146.39 26.75 146.59 26.5 146.76 26.63Z" fill="#515151" fill-opacity="1.000000" fill-rule="nonzero"/>
		<path id="Vector" d="M147.5 25.44C148.06 25.81 148.46 26.36 148.64 27C148.7 27.2 148.4 27.33 148.34 27.12C148.18 26.53 147.81 26.04 147.3 25.7C147.12 25.59 147.33 25.33 147.5 25.44Z" fill="#515151" fill-opacity="1.000000" fill-rule="nonzero"/>
		<path id="Vector" d="M141.34 25.68C141.54 25.68 141.58 26 141.37 26.01C140.71 26.02 140.14 26.6 140.19 27.27C140.21 27.48 139.89 27.53 139.87 27.31C139.81 26.47 140.48 25.7 141.34 25.68Z" fill="#515151" fill-opacity="1.000000" fill-rule="nonzero"/>
		<path id="Vector" d="M138.52 26.12C138.78 25.61 139.15 25.19 139.62 24.88C139.8 24.77 139.99 25.04 139.82 25.14C139.39 25.42 139.05 25.79 138.81 26.25C138.72 26.44 138.42 26.31 138.52 26.12Z" fill="#515151" fill-opacity="1.000000" fill-rule="nonzero"/>
		<path id="Vector" d="M118.11 18.82C119.35 19.01 120.6 19.14 121.86 19.21C122.06 19.22 122.02 19.55 121.81 19.54C120.55 19.47 119.3 19.33 118.06 19.14C117.85 19.11 117.9 18.79 118.11 18.82Z" fill="#515151" fill-opacity="1.000000" fill-rule="nonzero"/>
		<path id="Vector" d="M116.94 19.87L120.54 20.41L120.49 20.74L116.89 20.2C116.23 20.11 116.28 19.78 116.94 19.87Z" fill="#515151" fill-opacity="1.000000" fill-rule="nonzero"/>
		<path id="Vector" d="M168.03 32.5C169.23 32.62 170.43 32.74 171.63 32.87C171.84 32.89 171.79 33.22 171.58 33.2C170.38 33.07 169.18 32.95 167.98 32.82C167.77 32.8 167.81 32.48 168.03 32.5Z" fill="#515151" fill-opacity="1.000000" fill-rule="nonzero"/>
		<path id="Vector" d="M167.21 31.77C168.06 31.63 168.89 31.65 169.73 31.84C169.94 31.89 169.89 32.22 169.68 32.17C168.87 31.99 168.07 31.96 167.25 32.09C167.04 32.13 167 31.81 167.21 31.77Z" fill="#515151" fill-opacity="1.000000" fill-rule="nonzero"/>
		<path id="Vector" d="M156.2 26.46C157.03 26.47 157.84 26.57 158.65 26.74C158.85 26.79 158.81 27.12 158.6 27.07C157.79 26.89 156.98 26.8 156.15 26.78C155.94 26.77 155.99 26.45 156.2 26.46Z" fill="#515151" fill-opacity="1.000000" fill-rule="nonzero"/>
		<path id="Vector" d="M155.21 27.17C156.01 27.23 156.77 27.4 157.52 27.67C157.72 27.74 157.59 28.04 157.39 27.97C156.66 27.71 155.92 27.55 155.16 27.49C154.95 27.48 155 27.15 155.21 27.17Z" fill="#515151" fill-opacity="1.000000" fill-rule="nonzero"/>
		<path id="Vector" d="M167.97 58.14C167.79 59.25 167.68 60.36 167.63 61.48C167.62 61.69 167.3 61.64 167.31 61.43C167.36 60.31 167.47 59.2 167.64 58.09C167.68 57.88 168 57.93 167.97 58.14Z" fill="#515151" fill-opacity="1.000000" fill-rule="nonzero"/>
		<path id="Vector" d="M168.92 56.76C169.14 57.73 169.03 58.7 168.62 59.6C168.53 59.79 168.23 59.67 168.32 59.47C168.71 58.62 168.8 57.71 168.6 56.8C168.56 56.59 168.88 56.55 168.92 56.76Z" fill="#515151" fill-opacity="1.000000" fill-rule="nonzero"/>
		<path id="Vector" d="M157.22 85.87C158.23 86.17 159.26 86.36 160.31 86.46C160.52 86.48 160.46 86.8 160.26 86.78C159.17 86.68 158.12 86.48 157.08 86.17C156.89 86.11 157.02 85.81 157.22 85.87Z" fill="#515151" fill-opacity="1.000000" fill-rule="nonzero"/>
		<path id="Vector" d="M156.09 86.59C156.97 86.87 157.85 87.16 158.73 87.45C158.93 87.51 158.8 87.81 158.6 87.75L155.95 86.88C155.75 86.82 155.89 86.52 156.09 86.59Z" fill="#515151" fill-opacity="1.000000" fill-rule="nonzero"/>
		<path id="Vector" d="M162.88 87.28L162.38 90.58L162.05 90.53L162.55 87.23C162.6 86.9 162.93 86.95 162.88 87.28Z" fill="#515151" fill-opacity="1.000000" fill-rule="nonzero"/>
		<path id="Vector" d="M161.8 86.37C161.82 86.16 162.14 86.21 162.12 86.42C162.01 87.49 161.84 88.54 161.59 89.59C161.55 89.8 161.22 89.75 161.27 89.54C161.51 88.5 161.69 87.44 161.8 86.37Z" fill="#515151" fill-opacity="1.000000" fill-rule="nonzero"/>
		<path id="Vector" d="M134.51 77.25C135.45 77.51 136.34 77.87 137.19 78.35C137.37 78.46 137.24 78.76 137.06 78.65C136.23 78.19 135.37 77.83 134.46 77.58C134.26 77.52 134.31 77.19 134.51 77.25Z" fill="#515151" fill-opacity="1.000000" fill-rule="nonzero"/>
		<path id="Vector" d="M132.82 75.83C133.66 76.05 134.5 76.28 135.35 76.5C135.55 76.55 135.5 76.88 135.3 76.82C134.45 76.6 133.61 76.37 132.77 76.15C132.57 76.1 132.61 75.78 132.82 75.83Z" fill="#515151" fill-opacity="1.000000" fill-rule="nonzero"/>
		<path id="Vector" d="M108.25 76.33C109.38 76.6 110.51 76.87 111.64 77.14C111.84 77.19 111.79 77.51 111.59 77.47C110.46 77.2 109.33 76.93 108.2 76.66C108 76.61 108.04 76.28 108.25 76.33Z" fill="#515151" fill-opacity="1.000000" fill-rule="nonzero"/>
		<path id="Vector" d="M107.83 77.14C108.77 77.4 109.71 77.59 110.68 77.71C110.89 77.73 110.84 78.06 110.63 78.03C109.66 77.91 108.72 77.72 107.78 77.46C107.59 77.41 107.63 77.08 107.83 77.14Z" fill="#515151" fill-opacity="1.000000" fill-rule="nonzero"/>
		<path id="Vector" d="M101.48 78.78C101.72 78.13 101.96 77.47 102.2 76.82C102.28 76.63 102.57 76.76 102.5 76.96C102.26 77.61 102.02 78.26 101.77 78.92C101.71 79.11 101.41 78.98 101.48 78.78Z" fill="#515151" fill-opacity="1.000000" fill-rule="nonzero"/>
		<path id="Vector" d="M103.93 76.05C104 75.85 104.3 75.98 104.22 76.18C103.84 77.23 103.59 78.3 103.45 79.41C103.42 79.62 103.1 79.57 103.13 79.36C103.27 78.23 103.53 77.12 103.93 76.05Z" fill="#515151" fill-opacity="1.000000" fill-rule="nonzero"/>
		<path id="Vector" d="M106.5 49.02L106.1 51.66C106.05 52 105.72 51.95 105.77 51.62L106.17 48.98L106.5 49.02Z" fill="#515151" fill-opacity="1.000000" fill-rule="nonzero"/>
		<path id="Vector" d="M107.87 46.94C107.79 48.15 107.71 49.37 107.63 50.59C107.62 50.79 107.3 50.75 107.31 50.54C107.39 49.32 107.47 48.1 107.55 46.89C107.56 46.68 107.88 46.73 107.87 46.94Z" fill="#515151" fill-opacity="1.000000" fill-rule="nonzero"/>
	</g>
	<rect id="Frame" rx="0.000000" width="51.000000" height="66.000000" transform="translate(0.500000 11.911621) rotate(-8.194060)" fill="#FFFFFF" fill-opacity="0"/>
	<g clip-path="url(#clip2183_5011)">
		<path id="Vector" d="M46.03 59.77C44.85 45.48 43.38 30.75 39.81 16.84C40.24 16.59 40.07 15.82 39.48 15.89C31.22 16.84 22.79 17.99 14.64 19.64C14.21 19.73 14.29 20.35 14.73 20.31C22.89 19.6 31.18 18.36 39.25 16.97C41.28 31.29 43.88 45.42 45.11 59.87C37.05 61.29 28.95 62.35 20.87 63.64C20.91 63.56 20.94 63.48 20.93 63.37C20.23 48.89 16.36 34.64 14.42 20.29C14.36 19.83 13.7 19.94 13.72 20.39C14.23 34.93 19.24 48.96 19.93 63.52C19.94 63.66 20 63.75 20.08 63.83C19.84 64.03 19.98 64.49 20.37 64.47C28.91 64.01 37.59 62.52 45.95 60.77C46.49 60.65 46.47 59.9 46.03 59.77Z" fill="#909090" fill-opacity="1.000000" fill-rule="nonzero"/>
		<path id="Vector" d="M60.35 66.04C59.29 64.37 57.88 63.03 56.25 62.07C57.44 61.14 57.5 59.36 58.55 58.24C58.79 58 58.54 57.65 58.27 57.58C56.83 57.26 55.36 57.28 53.99 57.63C51.23 44.07 49.58 30.4 47.33 16.76C48.18 16.69 49.01 16.45 49.77 16C52.12 14.61 48.99 13.5 47.28 13.11C48.65 11.71 49.71 9.43 49.2 7.52C48.7 5.62 45.73 7.37 44.83 8.08C44.43 8.39 44.07 8.74 43.73 9.11C43.15 7.71 41.8 5.8 40.14 5.64C40 5.63 39.83 5.68 39.75 5.81C39.1 6.78 38.75 8.06 38.72 9.35C30.33 10.58 21.81 11.79 13.59 13.91C13.53 12.44 13.01 10.95 12.19 9.89C12.01 9.66 11.66 9.67 11.49 9.9C10.51 11.14 9.8 12.51 9.43 14.04C9.3 13.92 9.18 13.8 9.06 13.68C7.27 12.13 5.34 12.17 3.16 11.64C2.84 11.56 2.56 11.91 2.6 12.21C2.93 14.52 3.35 17.04 5.15 18.71C5.2 18.74 5.23 18.77 5.27 18.81C3.92 19.12 2.68 19.76 1.55 20.59C1.23 20.83 1.38 21.25 1.67 21.42C3.4 22.39 5.5 22.61 7.38 22.12C8.05 29.16 9.48 36.18 10.59 43.15C11.74 50.3 12.58 57.6 14.13 64.67C14.15 64.78 14.21 64.86 14.29 64.91C12.71 64.97 11.14 65.39 9.71 66.15C9.47 66.28 9.31 66.64 9.53 66.87C10.67 68.03 11.94 68.9 13.46 69.46C12.14 71.01 11.43 72.96 11.95 75.21C12.03 75.52 12.33 75.75 12.66 75.6C14.48 74.8 16.21 73.82 17.5 72.52C18.71 73.9 20.13 75.04 21.76 75.91C21.95 76 22.23 75.87 22.3 75.68C22.85 74.06 23.05 72.19 22.68 70.54C31.1 69.8 39.62 67.92 47.93 66.37C48.76 68.58 50.96 70.48 53.12 71.04C53.35 71.1 53.57 70.87 53.61 70.66C53.89 69.12 54.01 67.55 53.81 66C55.77 66.78 57.96 67.05 60.05 66.77C60.43 66.72 60.53 66.32 60.35 66.04ZM57.48 58.27C56.77 59.4 56.57 61.02 55.38 61.58C55.37 61.58 55.37 61.59 55.36 61.59C53.82 60.85 52.12 60.43 50.36 60.38C52.32 58.63 54.87 57.83 57.48 58.27ZM53.08 57.91C51.74 58.41 50.52 59.24 49.56 60.38C49.31 60.39 49.05 60.41 48.8 60.44C48.76 60.44 48.72 60.46 48.68 60.47C48.86 57.26 47.78 53.59 47.32 50.5C46.74 46.49 46.14 42.48 45.56 38.47C44.42 30.79 43.29 23.11 42.18 15.43C43.53 16.23 45.14 16.77 46.72 16.78C47.64 30.55 50.36 44.4 53.08 57.91ZM49.05 14.62C49.82 15.04 49.61 15.14 48.87 15.47C48.38 15.69 47.84 15.82 47.3 15.87C45.88 16.03 44.53 15.74 43.25 15.21C44.35 15.06 45.64 14.36 46.4 13.84C46.44 13.85 46.46 13.87 46.5 13.88C47.36 14.01 48.27 14.2 49.05 14.62ZM45.61 8.63C46.01 8.33 46.44 8.09 46.91 7.91C47.5 7.44 47.89 7.5 48.07 8.08C48.98 9.32 47.45 11.65 46.53 12.51C45.97 13.04 45.3 13.46 44.59 13.75C44.28 13.87 43.18 14.32 42.62 14.26C42.62 14.25 42.62 14.25 42.61 14.25C42.59 14.22 42.57 14.19 42.55 14.17C42.43 14.02 42.23 13.97 42.06 14.01C42.45 12.67 43.01 11.4 43.89 10.3C44.38 9.67 44.96 9.09 45.61 8.63ZM39.73 8.69C39.89 7.78 39.96 6.43 41.13 7.06C41.99 7.53 42.59 8.61 42.95 9.48C43 9.61 43.11 9.69 43.22 9.71C42.25 10.97 41.61 12.48 41.42 14.06C41.41 14.07 41.38 14.07 41.37 14.08C39.8 12.69 39.36 10.73 39.73 8.69ZM11.56 19.52C11.54 19.39 11.47 19.3 11.39 19.24C11.39 19.23 11.39 19.23 11.39 19.23C21.25 17.81 31.1 16.28 40.95 14.77C41.01 14.76 41.07 14.74 41.12 14.71C42.31 22.67 43.48 30.64 44.66 38.6C45.22 42.43 45.79 46.27 46.35 50.1C46.89 53.7 46.84 58.29 48.43 61.57L48.43 61.57C43.27 62.49 38.11 63.37 32.93 64.2C30.49 64.59 28.05 64.96 25.61 65.33C23.59 65.64 21.42 65.76 19.43 66.33C19.44 66.25 19.41 66.17 19.32 66.12C19.25 66.08 19.18 66.04 19.11 66.01C17.53 50.45 14.43 34.87 11.56 19.52ZM38.75 10.21C38.87 11.63 39.39 12.99 40.32 13.93C35.3 14.65 30.28 15.4 25.26 16.15C20.73 16.81 15.96 17.19 11.57 18.57C11.57 18.5 11.55 18.43 11.54 18.36C12.92 17.48 13.54 15.98 13.58 14.4C22 13.17 30.33 11.44 38.75 10.21ZM10.15 14.64C10.52 13.27 11.04 12.06 11.83 10.92C12.59 12.08 12.95 13.42 12.73 14.84C12.56 15.94 12 16.77 11.41 17.63C11.17 16.6 10.71 15.63 10.07 14.79C10.11 14.75 10.14 14.7 10.15 14.64ZM3.69 12.77C5.25 13.07 6.74 13.13 8.11 14.19C9.62 15.36 10.45 17.04 10.64 18.91C10.64 18.92 10.64 18.92 10.64 18.93C8.57 19.18 6.7 19.18 5.26 17.37C4.24 16.07 3.93 14.38 3.69 12.77ZM2.8 20.89C3.82 20.21 4.86 19.76 6.04 19.36C7.23 20.03 8.57 20.05 9.94 19.79C7.89 21.41 5.25 21.91 2.8 20.89ZM7.88 21.96C8.94 21.6 9.92 21.01 10.7 20.16C12.09 27.8 13.46 35.43 14.77 43.08C16.05 50.6 17.04 58.2 18.48 65.7C17.29 65.18 16.02 64.92 14.74 64.91C14.83 64.84 14.91 64.72 14.89 64.56C14.13 57.36 12.63 50.17 11.47 43.02C10.33 36.02 9.47 28.88 7.88 21.96ZM10.73 66.72C13.16 65.66 15.63 65.6 18.15 66.32C16.66 66.88 15.21 67.73 14.06 68.84C14.03 68.8 13.98 68.76 13.91 68.74C12.7 68.24 11.67 67.59 10.73 66.72ZM12.85 74.4C12.41 70.74 15.6 68.43 18.6 66.91C18.62 66.91 18.65 66.91 18.68 66.91C18.67 66.92 18.67 66.94 18.67 66.95C18.67 70.9 16.08 72.9 12.85 74.4ZM21.69 74.89C20.34 74.04 19.16 73.06 18.08 71.87C19.06 70.65 19.66 69.14 19.64 67.27C22.23 68.92 22.55 72.06 21.69 74.89ZM47.69 65.51C39.35 66.83 30.72 67.92 22.56 70.05C22.17 68.75 21.39 67.63 20.1 66.93C21.98 66.85 23.91 66.42 25.73 66.15C28.18 65.79 30.62 65.41 33.06 65.03C38.06 64.24 43.06 63.4 48.05 62.52C47.57 63.5 47.49 64.52 47.69 65.51ZM52.82 70.05C51.47 69.61 50.28 68.77 49.5 67.58C48.41 65.91 48.62 64.26 48.67 62.42C48.69 62.41 48.71 62.41 48.72 62.41C48.83 62.39 48.9 62.34 48.96 62.27C50 63.72 51.39 64.84 52.97 65.62C53.04 67.14 53.04 68.57 52.82 70.05ZM49.29 61.42C53.2 61.13 56.87 62.82 59.18 65.95C55.21 66.23 51.84 64.42 49.29 61.42Z" fill="#909090" fill-opacity="1.000000" fill-rule="nonzero"/>
	</g>
</svg>
