<svg width="188.000000" height="174.000000" viewBox="0 0 188 174" fill="none" xmlns="http://www.w3.org/2000/svg" xmlns:xlink="http://www.w3.org/1999/xlink">
	<desc>
			Created with Pixso.
	</desc>
	<defs>
		<clipPath id="clip2379_4677">
			<rect id="Frame" rx="0.000000" width="187.000000" height="173.000000" transform="translate(0.500000 0.500000)" fill="white" fill-opacity="0"/>
		</clipPath>
	</defs>
	<rect id="Frame" rx="0.000000" width="187.000000" height="173.000000" transform="translate(0.500000 0.500000)" fill="#FFFFFF" fill-opacity="0"/>
	<g clip-path="url(#clip2379_4677)">
		<path id="Vector" d="M187.61 162.84C181.43 162.46 175.23 162.3 169.03 162.36C165.91 162.39 162.8 162.48 159.69 162.62C158.15 162.69 156.61 162.78 155.07 162.88C154.29 162.93 153.5 162.99 152.72 163.04C152.43 163.06 152.13 163.1 151.82 163.13C151.85 163.04 151.88 162.94 151.9 162.84C152.06 161.73 150.95 160.87 149.92 161.35C148.91 161.82 148.97 163.34 149.95 163.8C149.96 163.81 149.96 163.81 149.97 163.81C149.94 163.82 149.9 163.84 149.87 163.84C149.19 164.04 148.47 164.13 147.77 164.25C144.76 164.74 141.72 165.04 138.67 165.2C132.56 165.54 126.43 165.37 120.31 165.15C117.19 165.04 114.07 164.89 110.95 164.72C109.41 164.63 107.86 164.54 106.32 164.44C104.84 164.34 103.35 164.32 101.89 164.13C101.39 164.07 100.87 163.96 100.39 163.79C100.39 163.26 100.38 162.73 100.38 162.19C100.34 157.68 100.31 153.17 100.27 148.65C102.9 148.49 105.38 147.09 106.87 144.94C109.26 146.22 111.64 147.53 114.01 148.86C118.4 151.34 122.74 153.91 127.02 156.56C128.08 157.22 129.13 157.88 130.18 158.54C131.14 159.14 132.13 159.74 133.24 160C134.21 160.23 135.21 160.16 136.11 159.7C136.9 159.3 137.56 158.57 137.7 157.67C137.73 157.48 137.68 157.3 137.5 157.19C135.33 155.86 133.15 154.52 130.98 153.19C127.13 150.82 123.28 148.46 119.43 146.1C117.51 144.92 115.59 143.75 113.67 142.58C111.86 141.48 110.05 140.37 108.19 139.34C108.8 137.85 109.16 136.26 109.34 134.67C110.42 134.77 111.51 134.76 112.6 134.78C113.67 134.81 114.75 134.83 115.83 134.85C119.65 134.91 123.47 134.91 127.29 134.82C129.21 134.78 131.12 134.7 133.04 134.62C133.69 134.59 134.34 134.56 135 134.53C136.22 134.61 137.65 134.75 138.75 134.19C138.79 134.18 138.82 134.16 138.85 134.13C138.92 134.09 138.98 134.06 139.05 134.01C139.89 133.44 140.32 132.09 139.66 131.26C140.14 131.11 140.58 130.86 140.97 130.49C142.35 129.2 142.5 127.11 142.48 125.36C142.46 122.75 142.36 120.14 142.35 117.54C142.34 112.15 142.49 106.77 142.8 101.39C142.96 98.74 143.16 96.08 143.39 93.42C143.43 93.01 143.43 92.43 143.55 91.93C143.77 91.64 143.97 91.34 144.16 91.02C144.29 90.96 144.45 90.92 144.64 90.93C145.31 90.94 146.01 91.2 146.66 91.36C147.25 91.51 147.83 91.65 148.42 91.81C150.96 92.48 153.49 93.23 155.99 94.05C158.14 94.77 160.71 95.87 162.94 94.81C164.54 94.04 165.78 92.01 164.77 90.33C164.27 89.49 163.37 89 162.5 88.62C161.33 88.1 160.13 87.62 158.94 87.13C156.44 86.08 153.95 85.04 151.45 84C150.2 83.48 148.95 82.95 147.7 82.43C147.22 82.23 146.72 82.02 146.21 81.84C146.15 81.17 146.04 80.51 145.83 79.89C145.47 78.81 144.71 78.18 143.68 77.73C142.47 77.22 141.24 76.73 140.02 76.22C137.51 75.18 135 74.14 132.49 73.1C127.58 71.08 122.68 69.06 117.77 67.05C118.2 65.59 118.61 64.12 119.02 62.66C119.62 60.48 120.21 58.3 120.77 56.11C121.19 59.06 122.04 61.95 123.5 64.56C124.46 66.26 125.68 67.85 127.17 69.13C128.57 70.34 130.2 71.27 131.95 71.89C135.35 73.1 139.31 73.08 142.47 71.22C146.1 69.1 147.97 65.09 149.49 61.36C151.27 56.99 152.6 52.43 153.21 47.75C153.78 43.26 153.65 38.67 152.6 34.27C152.09 32.1 151.35 29.99 150.38 27.98C149.5 26.16 148.43 24.42 147.07 22.91C145.79 21.48 144.25 20.27 142.45 19.56C141.92 19.35 141.39 19.2 140.84 19.1C140.77 18.94 140.62 18.84 140.44 18.82C139.11 18.69 137.77 18.56 136.43 18.43C131.71 17.97 127 17.49 122.28 17.07C122.23 17.07 122.19 17.08 122.15 17.09C121.68 14.91 121.04 12.76 120.13 10.71C118.89 7.9 117.09 5.29 114.61 3.41C112.3 1.65 109.43 0.5 106.49 0.47C106.09 0.46 105.7 0.48 105.31 0.52C101.9 0.17 98.48 0 95.06 0C93.17 0 91.29 0.05 89.41 0.18C87.77 0.28 86.11 0.46 84.56 1.03C83.08 1.57 81.81 2.47 80.8 3.67C79.78 4.88 79.02 6.28 78.31 7.69C75.35 13.65 73.5 20.13 72.81 26.74C72.11 33.34 72.58 40.07 74.25 46.5C74.84 48.8 75.65 51.28 76.85 53.49C76.82 53.57 76.82 53.66 76.87 53.76C76.96 53.94 77.09 54.08 77.25 54.19C78.04 55.52 78.99 56.72 80.14 57.69C80.17 57.77 80.2 57.85 80.23 57.92C80.2 58.01 80.22 58.12 80.31 58.21C80.33 58.22 80.34 58.23 80.35 58.25C80.43 58.47 80.52 58.69 80.6 58.92C80.61 58.95 80.63 58.98 80.66 58.99C80.67 59.12 80.68 59.24 80.69 59.37C80.72 59.86 80.74 60.37 80.97 60.82C81.01 60.9 81.05 60.97 81.1 61.03C79.7 60.82 78.29 60.62 76.88 60.43C75.93 60.3 74.89 60.18 74.01 60.63C73.02 61.15 72.84 62.23 72.69 63.23L71.56 71.08C71.55 71.17 71.57 71.25 71.6 71.33C71.59 71.33 71.59 71.34 71.58 71.35C71.01 71.33 70.44 71.32 69.86 71.31C69.57 69.2 70.15 67.07 70.2 64.96C70.22 63.99 70.13 63.01 69.8 62.1C69.46 61.14 68.89 60.31 68.28 59.51C66.99 57.84 65.7 56.17 64.47 54.45C62 50.96 59.72 47.35 57.64 43.62C57.48 43.33 57.07 43.35 56.9 43.62C56.9 43.63 56.89 43.64 56.88 43.65C56.83 43.63 56.77 43.62 56.7 43.62C55.09 43.57 53.48 43.53 51.86 43.51C45.29 43.41 38.71 43.53 32.15 43.86C28.91 44.02 25.67 44.19 22.45 44.55C20.87 44.73 19.3 44.95 17.74 45.28C16.43 45.55 15.16 46 14.45 47.21C14.11 47.78 13.91 48.43 13.76 49.07C13.56 49.83 13.39 50.59 13.22 51.35C12.87 52.9 12.55 54.45 12.25 56.02C11.68 59.1 11.21 62.21 10.84 65.33C10.11 71.62 9.83 77.97 10 84.31C10.09 87.47 10.28 90.62 10.6 93.76C10.72 94.97 10.85 96.21 11.41 97.31C11.67 97.81 12.03 98.25 12.48 98.59C13.05 99.02 13.74 99.2 14.45 99.29C16.01 99.5 17.62 99.51 19.2 99.59C20.83 99.67 22.46 99.73 24.09 99.78C27.39 99.88 30.69 99.91 34 99.89C37.28 99.86 40.56 99.77 43.84 99.62C45.47 99.54 47.1 99.45 48.72 99.35C49.56 99.29 50.4 99.24 51.24 99.18C51.6 99.14 51.97 99.09 52.29 98.97C52.29 99.2 52.52 99.43 52.78 99.26C54.65 98.03 56.52 96.79 58.37 95.54C60.03 94.42 61.69 93.29 63.35 92.16C64.06 91.67 64.84 91.22 65.45 90.6C65.51 90.53 65.58 90.46 65.64 90.39C66.19 90.6 66.56 91.07 66.8 91.6C67.1 92.27 67.22 93.01 67.3 93.74C67.4 94.65 67.46 95.57 67.47 96.49C67.5 98.35 67.37 100.21 67.16 102.06C66.74 105.76 65.97 109.42 65.4 113.1C65.1 114.97 64.86 116.84 64.73 118.73C64.61 120.54 64.55 122.41 64.78 124.22C64.88 125.02 65.37 125.5 66.17 125.63C67.08 125.76 68.03 125.7 68.95 125.72C70.99 125.77 73.03 125.81 75.07 125.86C78.06 125.92 81.04 125.99 84.03 126.05C83.65 127.43 83.34 128.84 83.1 130.24C82.2 135.61 82.3 141.11 83.39 146.43C83.42 146.57 83.56 146.7 83.69 146.72C85.01 146.98 86.34 147.2 87.67 147.39C88.67 147.53 89.68 147.65 90.69 147.76C90.66 147.82 90.63 147.89 90.63 147.97C90.63 149.81 90.63 151.64 90.63 153.47C90.64 159.96 90.64 166.45 90.64 172.93C90.64 173.11 90.78 173.29 90.96 173.34C93.37 173.95 95.91 174.17 98.38 173.88C98.86 173.83 99.33 173.74 99.72 173.45C100.08 173.17 100.3 172.76 100.39 172.32C100.48 171.85 100.47 171.37 100.46 170.89C100.46 170.31 100.46 169.72 100.45 169.14C100.44 167.58 100.43 166.02 100.42 164.47C101.45 164.88 102.6 164.94 103.71 165.03C105.43 165.17 107.15 165.28 108.87 165.39C112.28 165.6 115.69 165.77 119.11 165.9C125.8 166.16 132.52 166.37 139.21 165.97C142.52 165.77 145.83 165.42 149.1 164.83C149.86 164.69 150.74 164.48 151.31 163.96C151.57 163.94 151.81 163.91 152.04 163.89C152.89 163.83 153.73 163.77 154.57 163.71C157.97 163.49 161.37 163.33 164.77 163.24C171.55 163.06 178.34 163.14 185.11 163.5C185.95 163.55 186.79 163.59 187.64 163.65C188.12 163.67 188.12 162.88 187.61 162.84ZM113.99 143.72C117.83 146.11 121.69 148.46 125.53 150.83C129.29 153.14 133.05 155.44 136.81 157.75C136.56 158.5 135.88 158.98 135.11 159.19C134.02 159.48 132.91 159.1 131.94 158.6C130.93 158.07 129.98 157.42 129.02 156.81C127.99 156.17 126.96 155.52 125.92 154.89C123.86 153.63 121.78 152.38 119.7 151.16C115.5 148.69 111.25 146.31 106.95 144.02C106.74 143.91 106.5 143.97 106.37 144.17C105.89 144.95 105.25 145.63 104.52 146.19C105.33 145.14 105.82 143.84 106.17 142.55C106.93 141.8 107.52 140.87 107.96 139.9C109.94 141.22 111.97 142.47 113.99 143.72ZM105.4 142.11C105.05 142.44 104.65 142.74 104.22 142.97C103.67 143.26 102.71 143.75 102.22 143.15C101.79 142.63 101.82 141.79 101.83 141.16C101.86 138.08 103.34 135.03 105.75 133.1C106.44 133.55 106.33 134.88 106.32 135.55C106.31 136.88 106.19 138.22 105.97 139.53C105.82 140.4 105.63 141.26 105.4 142.11ZM141 121.31C140.98 121.4 140.96 121.49 140.94 121.59C140.87 121.43 140.78 121.28 140.68 121.14C139.7 119.7 137.35 119.01 136.18 120.63C135.61 121.44 135.55 122.53 135.52 123.49C135.48 124.47 135.63 125.53 136.52 126.11C137.23 126.58 138.18 126.58 138.95 126.3C139.76 126 140.36 125.4 140.77 124.68C140.81 125.42 140.84 126.17 140.78 126.92C140.69 128.33 140.16 129.62 138.89 130.35C138.69 130.46 138.48 130.55 138.26 130.63C138.12 130.63 137.98 130.61 137.85 130.58C134.64 129.95 133.9 126.43 133.92 123.67C133.94 121.01 134.37 117.39 137.38 116.47C138.39 116.16 139.54 116.27 140.3 116.98L140.31 116.99C140.43 117.11 140.55 117.23 140.65 117.38C141.43 118.51 141.25 120.05 141 121.31ZM140.59 123.01C140.34 123.82 139.97 124.61 139.33 125.13C138.44 125.87 136.78 125.9 136.43 124.6C136.24 123.89 136.33 123.03 136.43 122.31C136.52 121.68 136.74 120.97 137.34 120.64C138.61 119.96 139.97 121.18 140.39 122.29C140.48 122.53 140.54 122.76 140.59 123.01ZM133.21 125.3C133.41 127.36 134.11 129.46 135.92 130.64C136.08 130.75 136.25 130.84 136.42 130.93C136.06 130.92 135.69 130.88 135.34 130.79C133.98 130.45 132.83 129.52 131.99 128.43C130.32 126.24 129.54 123.24 129.94 120.51C130.32 118 131.8 115.67 134.36 114.95C135.86 114.53 137.61 114.67 138.9 115.51C138.66 115.48 138.41 115.48 138.16 115.5C133.49 115.94 132.86 121.64 133.21 125.3ZM141.53 127.47C141.67 126.4 141.62 125.3 141.55 124.23C141.53 123.86 141.49 123.49 141.42 123.12C141.49 122.9 141.55 122.68 141.6 122.47C141.62 123.43 141.64 124.39 141.64 125.35C141.66 126.04 141.64 126.76 141.53 127.47ZM145.92 86.56C146.16 85.45 146.28 84.32 146.27 83.18C146.27 83.02 146.26 82.86 146.26 82.7C146.78 82.91 147.29 83.15 147.74 83.34C149.41 84.05 151.1 84.75 152.78 85.45C154.5 86.17 156.22 86.89 157.93 87.61C158.79 87.97 159.65 88.33 160.51 88.69C161.26 89 162.03 89.29 162.75 89.67C163.31 89.97 163.89 90.36 164.15 90.97C164.4 91.54 164.3 92.17 164 92.7C163.25 94.05 161.77 94.49 160.3 94.35C158.58 94.19 156.91 93.45 155.27 92.93C153.55 92.37 151.82 91.85 150.07 91.37C149.19 91.13 148.32 90.9 147.44 90.68C146.62 90.47 145.77 90.2 144.92 90.1C144.84 90.09 144.74 90.08 144.66 90.08C144.71 89.97 144.76 89.87 144.81 89.76C145.3 88.74 145.67 87.67 145.92 86.56ZM145 86.75C144.7 87.98 144.23 89.24 143.58 90.36C143.42 90.47 143.27 90.59 143.15 90.76C142.98 90.99 142.88 91.24 142.8 91.51C142.79 91.51 142.79 91.52 142.78 91.53C142.27 92.16 141.57 92.67 140.73 92.39C139.91 92.12 139.41 91.36 139.2 90.56C138.97 89.71 139.03 88.78 139.12 87.91C139.21 86.99 139.39 86.05 139.78 85.21C140.17 84.36 140.79 83.59 141.58 83.1C141.22 83.72 141 84.46 140.9 85.19C140.8 86 140.72 87.02 141.13 87.77C141.67 88.72 142.73 88.47 143.36 87.77C144.67 86.3 144.93 84.04 144.07 82.28C144.07 82.28 144.07 82.27 144.06 82.27C144.5 82.23 144.94 82.28 145.39 82.4C145.49 83.86 145.36 85.34 145 86.75ZM141.66 85.88C141.71 84.75 142 83.37 142.99 82.67C143.03 82.64 143.08 82.62 143.12 82.59C143.18 82.58 143.23 82.58 143.29 82.58C143.88 83.71 143.92 85.08 143.39 86.25C143.23 86.62 142.53 87.94 141.98 87.54C141.55 87.23 141.64 86.33 141.66 85.88ZM117.92 67.95C122.02 69.66 126.12 71.36 130.22 73.06C134.09 74.67 137.97 76.27 141.84 77.87C142.67 78.22 143.72 78.5 144.4 79.12C145.04 79.7 145.18 80.63 145.3 81.44C145.31 81.48 145.31 81.53 145.31 81.58C144.94 81.49 144.56 81.45 144.18 81.46C143.72 81.48 143.32 81.59 142.96 81.76C142.95 81.76 142.93 81.77 142.91 81.77C142.41 81.82 141.94 81.97 141.49 82.19C140.58 82.64 139.82 83.4 139.31 84.27C138.74 85.25 138.46 86.36 138.32 87.48C138.18 88.6 138.09 89.82 138.42 90.93C138.71 91.9 139.37 92.76 140.33 93.14C141.13 93.45 141.93 93.3 142.6 92.85C141.93 100.1 141.58 107.38 141.52 114.66C141.51 115.52 141.51 116.38 141.52 117.23C141.36 116.95 141.16 116.7 140.94 116.47C140.93 116.45 140.93 116.43 140.92 116.42C140.11 115.04 138.68 114.19 137.11 113.95C135.49 113.71 133.76 114.03 132.37 114.91C130.8 115.91 129.77 117.6 129.31 119.37C128.34 123.14 129.62 127.91 132.76 130.38C134.25 131.55 136.16 132.04 138.02 131.55C138.15 131.52 138.27 131.47 138.39 131.43C138.57 131.43 138.74 131.42 138.92 131.4C138.93 131.43 138.94 131.45 138.97 131.47C139.43 131.91 139.27 132.65 138.87 133.08C138.34 133.63 137.51 133.72 136.79 133.73C135.1 133.76 133.37 133.58 131.69 133.39C125.46 132.66 119.41 130.91 113.43 129.09C107.53 127.28 101.65 125.38 95.6 124.17C96.37 119.89 97.05 115.6 97.63 111.29C98.71 103.37 99.52 95.41 100.18 87.45C100.2 87.29 100.21 87.13 100.22 86.97C102.17 86.47 104.02 87.57 105.24 89.03C106.85 90.95 107.18 93.42 107.22 95.84C107.25 98.43 106.94 101.09 107.53 103.63C107.77 104.7 108.2 105.74 108.88 106.6C109.56 107.47 110.49 108.07 111.53 108.4C113.67 109.07 115.94 108.64 118.12 109.01C118.19 109.02 118.26 109.04 118.34 109.05C118.42 109.18 118.49 109.3 118.58 109.42C119.91 111.19 121.99 112.34 124.21 112.52C125.31 112.6 126.45 112.43 127.43 111.93C128.47 111.4 129.2 110.49 129.49 109.38C129.81 108.18 129.7 106.9 129.61 105.68C129.51 104.36 129.33 103.04 129.1 101.74C128.63 99.12 127.91 96.56 127.03 94.06C126.14 91.54 125.09 89.09 123.93 86.68C122.86 84.45 121.68 82.15 119.79 80.49C118.05 78.95 115.72 77.98 113.37 78.44C111.44 78.81 109.88 80.13 108.8 81.71C107.67 83.37 107 85.35 106.75 87.34C106.66 88.06 106.61 88.79 106.62 89.53C106.24 88.9 105.78 88.31 105.25 87.8C103.93 86.53 102.12 85.74 100.29 86.09C100.88 78.88 101.36 71.67 101.83 64.45C104.44 64.69 106.97 65.35 109.48 66.04C110.84 66.42 112.2 66.8 113.56 67.18C114.23 67.36 114.9 67.54 115.57 67.72C115.92 67.82 116.27 67.91 116.62 68.01C116.79 68.06 116.97 68.11 117.14 68.14C117.32 68.18 117.49 68.16 117.67 68.16C117.82 68.16 117.9 68.06 117.92 67.95ZM121.02 84.69C121 84.64 120.97 84.59 120.96 84.54C120.92 83.83 120.81 83.14 120.58 82.48C121.9 84.16 122.8 86.15 123.68 88.07C125.72 92.54 127.44 97.16 128.3 102.01C128.52 103.21 128.67 104.42 128.77 105.63C128.85 106.73 128.97 107.9 128.73 108.99C128.5 110 127.89 110.77 126.95 111.23C126.06 111.66 125.03 111.76 124.06 111.66C122.44 111.49 120.86 110.68 119.75 109.48C120.26 109.72 120.74 110.02 121.25 110.27C121.87 110.57 122.51 110.77 123.16 110.76C123.34 110.8 123.53 110.84 123.71 110.86C124.68 110.96 125.71 110.65 126.5 110.09C127.4 109.45 127.99 108.48 128.28 107.42C128.85 105.29 128.34 102.81 127.21 100.94C126.1 99.12 124.18 97.77 121.97 98.23C119.67 98.7 118.01 100.8 117.43 102.95C116.97 104.66 117.1 106.52 117.83 108.12C117.13 108.04 116.42 108.01 115.72 107.99C113.81 107.95 111.61 108.02 110.09 106.66C108.56 105.29 108.15 103.09 108.05 101.13C107.95 98.97 108.15 96.81 108.02 94.65C109.18 96.4 111.13 97.74 113.3 97.66C115.43 97.58 117.32 96.26 118.52 94.57C119.51 93.56 120.28 92.33 120.77 91.02C121.52 89.06 121.72 86.69 121.02 84.69ZM126.68 105.83C126.69 104.08 125.89 101.64 123.95 101.19C122.88 100.94 121.82 101.41 121.14 102.24C120.34 103.21 120.15 104.47 120.26 105.7C120.37 106.89 120.6 108.21 121.2 109.26C121.22 109.28 121.23 109.3 121.25 109.33C120.93 109.16 120.62 108.98 120.3 108.83C119.85 108.61 119.37 108.44 118.88 108.32C117.94 106.68 117.76 104.67 118.34 102.87C118.93 101.02 120.53 99.14 122.6 99C124.55 98.86 126.01 100.37 126.81 101.98C127.67 103.72 128.03 106.06 127.22 107.89C126.85 108.73 126.22 109.41 125.36 109.77C125.33 109.78 125.3 109.8 125.27 109.81C126.26 108.78 126.68 107.16 126.68 105.83ZM124.18 109.61C123.87 109.8 123.55 109.89 123.22 109.92C123.14 109.89 123.05 109.86 122.96 109.82C122.03 109.37 121.65 108.37 121.41 107.43C121.14 106.3 120.9 105.05 121.21 103.9C121.44 103.03 122.09 102.2 123.01 101.99C123.81 101.82 124.54 102.28 124.98 102.91C125.96 104.32 126.05 106.22 125.49 107.8C125.24 108.49 124.82 109.21 124.18 109.61ZM119.84 88.46C119.58 89.45 119.15 90.4 118.57 91.24C118.04 92.01 117.32 92.68 116.4 92.93C116.04 93.04 115.63 93.06 115.28 92.89C114.86 92.66 114.68 92.22 114.59 91.77C114.49 91.21 114.51 90.62 114.52 90.05C114.54 89.42 114.58 88.78 114.66 88.15C114.81 86.91 115.09 85.67 115.5 84.48C115.79 83.64 116.24 82.67 117.18 82.43C118.07 82.2 118.89 82.82 119.43 83.46C119.63 83.71 119.81 83.98 119.95 84.25C120.24 85.65 120.19 87.1 119.84 88.46ZM119.49 82.4C119.37 82.29 119.24 82.19 119.1 82.09C118.24 81.51 117.11 81.4 116.23 82C115.29 82.64 114.88 83.77 114.57 84.81C114.17 86.12 113.92 87.48 113.8 88.85C113.75 89.52 113.73 90.19 113.74 90.86C113.75 91.45 113.79 92.06 114.03 92.62C114.48 93.61 115.53 93.96 116.54 93.7C117.67 93.41 118.55 92.64 119.21 91.69C118.97 92.37 118.68 93.03 118.31 93.64C117.43 94.65 116.34 95.47 115.09 95.83C114.18 96.09 113.21 96.03 112.38 95.56C111.68 95.16 111.15 94.53 110.76 93.84C109.86 92.27 109.61 90.43 109.61 88.64C109.62 86.6 109.98 84.47 111.1 82.73C112.1 81.19 113.73 80.14 115.58 80C116.42 79.93 117.29 80.04 118.05 80.43C118.86 80.84 119.47 81.54 119.83 82.37C119.73 82.25 119.57 82.29 119.49 82.4ZM114.36 79.43C112.28 79.96 110.7 81.47 109.83 83.39C108.89 85.44 108.66 87.8 108.84 90.02C108.99 91.91 109.54 93.92 110.84 95.36C111.45 96.02 112.25 96.53 113.14 96.71C113.54 96.79 113.94 96.81 114.33 96.77C113.61 96.97 112.84 97 112.07 96.81C110.09 96.33 108.58 94.67 107.89 92.81C107.81 92.58 107.73 92.33 107.67 92.09C107.64 91.99 107.62 91.9 107.59 91.8C107.16 89.98 107.24 88.02 107.65 86.22C108.4 82.89 110.73 79.02 114.6 79.06C115.06 79.06 115.51 79.13 115.95 79.23C115.41 79.23 114.88 79.3 114.36 79.43ZM120.48 52.93C120.5 53.4 120.53 53.86 120.56 54.33C119.42 58.63 118.2 62.91 116.92 67.17C116.91 67.21 116.91 67.25 116.91 67.29C116.85 67.28 116.79 67.26 116.73 67.24C116.35 67.14 115.97 67.03 115.59 66.92C114.83 66.71 114.07 66.49 113.31 66.28C111.79 65.87 110.28 65.44 108.77 65.03C106.5 64.41 104.22 63.9 101.89 63.67C101.9 63.63 101.9 63.59 101.9 63.55C101.92 63.33 101.7 63.14 101.49 63.14C98.51 63.16 95.55 62.97 92.6 62.64C91.64 62.53 90.69 62.41 89.74 62.29C87.85 61.95 85.97 61.62 84.08 61.28C83.44 61.16 82.76 61.1 82.14 60.91C81.72 60.78 81.55 60.47 81.5 60.06C81.43 59.6 81.47 59.06 81.36 58.58C82.13 59.07 82.98 59.46 83.91 59.73C85.63 60.23 87.44 60.29 89.23 60.37C91.16 60.44 93.09 60.52 95.03 60.59C96.92 60.67 98.81 60.74 100.71 60.81C102.27 60.87 103.82 60.96 105.38 61C106.54 61.23 107.72 61.35 108.9 61.32C110.4 61.28 112.02 60.94 113.08 59.8C113.23 59.63 113.36 59.45 113.48 59.27C114.27 59.27 115.02 58.92 115.49 58.17C115.93 57.47 116.13 56.6 116.34 55.81C116.37 55.68 116.39 55.56 116.42 55.44C116.82 54.83 117.19 54.19 117.55 53.56C118.35 52.12 119.07 50.63 119.7 49.1C120.09 48.18 120.44 47.24 120.76 46.3C120.52 48.5 120.39 50.71 120.48 52.93ZM112.8 58.33C112.5 58.23 112.2 58.08 111.97 57.88C110.86 56.96 110.82 55.33 110.89 54.01C110.93 53.33 111.03 51.14 112.24 51.5C112.73 51.64 113 52.23 113.14 52.66C113.34 53.23 113.41 53.84 113.48 54.43C113.61 55.6 113.64 56.86 113.23 57.98C113.09 58.1 112.95 58.22 112.8 58.33ZM114.07 58.34C114.37 58.06 114.65 57.76 114.92 57.45C114.9 57.49 114.88 57.54 114.86 57.58C114.67 57.93 114.41 58.19 114.07 58.34ZM123.75 30.48C123.91 28.27 123.97 26.05 123.81 23.84C123.75 22.96 123.65 22.09 123.52 21.21C124.12 21.34 124.74 21.44 125.34 21.54C126.26 21.71 127.18 21.84 128.1 21.97C128.93 22.08 129.76 22.19 130.59 22.29C130.81 22.31 131.03 22.34 131.25 22.36C129.62 23.9 128.3 25.81 127.22 27.76C125.03 31.76 123.58 36.15 122.8 40.64C122.34 43.25 122.06 45.93 122.05 48.6C121.86 49.32 121.67 50.04 121.49 50.76C121.43 51 121.37 51.25 121.3 51.5C121.3 49.04 121.54 46.57 121.87 44.14C122.48 39.59 123.41 35.08 123.75 30.48ZM123.17 19.31C123.76 19.42 124.37 19.49 124.96 19.59C125.79 19.72 126.6 19.86 127.42 20.01C128.93 20.28 130.44 20.61 131.93 20.98C132.18 21.04 132.43 21.11 132.67 21.17C132.44 21.34 132.2 21.53 131.97 21.72C131.84 21.71 131.71 21.71 131.59 21.7C130.14 21.59 128.68 21.36 127.24 21.15C126.48 21.04 125.71 20.91 124.96 20.77C124.42 20.67 123.91 20.54 123.38 20.42C123.32 20.05 123.25 19.68 123.17 19.31ZM140.71 19.92C142.45 20.27 144.02 21.18 145.32 22.35C146.67 23.57 147.78 25.04 148.69 26.61C149.74 28.42 150.56 30.34 151.19 32.33C152.45 36.36 152.87 40.6 152.63 44.8C152.37 49.24 151.37 53.61 149.92 57.8C149.23 59.79 148.46 61.77 147.56 63.67C146.75 65.39 145.79 67.07 144.49 68.48C143.29 69.79 141.82 70.81 140.13 71.35C138.53 71.87 136.84 71.99 135.18 71.8C131.74 71.4 128.55 69.65 126.28 67.06C123.8 64.23 122.4 60.61 121.75 56.94C121.56 55.87 121.44 54.8 121.37 53.72C121.62 52.73 121.86 51.73 122.09 50.73C122.16 52.04 122.28 53.34 122.5 54.63C123.18 58.79 124.82 62.83 127.64 66.01C129 67.54 130.67 68.97 132.58 69.76C133.1 69.98 133.64 70.13 134.2 70.2C134.73 70.68 135.49 70.82 136.21 70.52C137.18 70.1 137.83 69.16 138.38 68.31C139.58 66.48 140.39 64.42 141.04 62.34C141.75 60.11 142.31 57.83 142.87 55.56C143.46 53.14 144 50.72 144.52 48.29C144.61 47.85 144.72 47.4 144.8 46.95C144.83 46.85 144.84 46.75 144.85 46.65C144.93 46.21 144.98 45.77 144.97 45.32C144.96 44.6 144.82 43.79 144.3 43.25C143.75 42.68 142.83 42.62 142.19 43.08C141.49 43.58 141.1 44.45 140.9 45.27C140.71 46.05 140.62 46.95 140.92 47.72C141.23 48.5 141.98 49 142.84 48.87C143.14 48.82 143.42 48.71 143.67 48.55C143.47 49.51 143.25 50.48 143.03 51.44C142.5 53.72 141.94 56 141.35 58.27C140.82 60.3 140.28 62.33 139.51 64.29C139.16 65.19 138.75 66.07 138.27 66.92C138.27 66.73 138.24 66.54 138.19 66.35C137.94 65.47 137.05 64.64 136.08 65C135.59 65.18 135.2 65.58 134.83 65.94C134.47 66.3 134.12 66.7 133.88 67.16C133.53 67.8 133.41 68.54 133.62 69.23C133.43 69.18 133.24 69.12 133.06 69.05C132.13 68.7 131.27 68.13 130.49 67.52C129.75 66.95 129.07 66.31 128.44 65.62C125.77 62.71 124.18 58.98 123.45 55.14C122.93 52.45 122.8 49.69 122.94 46.94C123 46.67 123.06 46.39 123.11 46.12C123.14 46.01 123.08 45.93 123 45.89C123.1 44.57 123.25 43.25 123.45 41.95C124.09 37.72 125.29 33.55 127.17 29.7C128.49 27.02 130.16 24.31 132.48 22.38C132.53 22.37 132.58 22.37 132.63 22.36C133.16 22.29 133.99 21.95 134.08 21.33C134.08 21.3 134.08 21.27 134.08 21.25C134.39 21.06 134.7 20.89 135.02 20.74C136.77 19.9 138.79 19.53 140.71 19.92ZM134.88 67.06C135.17 66.69 135.53 66.34 135.89 66.03C136.24 65.74 136.63 65.56 137.02 65.9C137.55 66.38 137.56 67.15 137.31 67.77C137.06 68.4 136.53 68.96 135.89 69.21C135.47 69.38 135.02 69.43 134.56 69.4C134.54 69.37 134.52 69.33 134.5 69.3C134.08 68.54 134.39 67.7 134.88 67.06ZM143.91 47.46C143.57 47.96 142.97 48.36 142.37 48.25C141.57 48.11 141.37 47.23 141.39 46.54C141.4 45.76 141.61 44.92 142.02 44.25C142.35 43.71 143.01 43.17 143.65 43.61C143.82 43.73 143.94 43.89 144.03 44.08C144.11 44.42 144.19 44.77 144.25 45.13C144.25 45.18 144.25 45.23 144.25 45.28C144.26 46.02 144.08 46.75 143.91 47.46ZM126.28 18.27C129.71 18.61 133.13 18.94 136.55 19.28C136.51 19.29 136.47 19.29 136.44 19.31C135.36 19.61 134.36 20.07 133.45 20.64C133.09 20.54 132.72 20.45 132.36 20.36C130.74 19.96 129.11 19.61 127.46 19.33C126.63 19.19 125.79 19.08 124.95 18.98C124.32 18.9 123.69 18.82 123.05 18.81C122.97 18.5 122.89 18.2 122.81 17.9C123.97 18.03 125.13 18.15 126.28 18.27ZM105.33 1.36C105.57 1.39 105.81 1.41 106.05 1.44C106.17 1.45 106.27 1.4 106.35 1.31C108.04 1.31 109.73 1.71 111.26 2.4C113.86 3.56 116 5.47 117.57 7.81C119.26 10.32 120.32 13.18 121.05 16.09C121.79 19.07 122.23 22.14 122.45 25.2C122.9 31.35 122.4 37.59 120.73 43.54C119.89 46.51 118.77 49.4 117.34 52.14C117.19 52.42 117.04 52.72 116.88 53.02C117.12 51.3 117.24 49.57 117.3 47.83C117.44 44.05 117.49 40.26 117.57 36.48C117.62 34.63 117.69 32.79 117.66 30.95C117.62 29.27 117.49 27.52 116.92 25.92C116.47 24.65 115.76 23.42 114.68 22.58C113.59 21.72 112.17 21.39 110.81 21.81C107.56 22.83 106.65 26.5 106.8 29.51C106.88 31.04 107.23 32.64 108.14 33.91C108.98 35.06 110.26 35.85 111.7 35.99C113.04 36.12 114.31 35.52 115.08 34.42C115.84 33.35 116.02 31.94 115.98 30.66C115.93 29.37 115.71 27.93 114.99 26.83C114.2 25.63 112.76 25.16 111.48 25.93C110.07 26.78 109.67 28.4 109.7 29.94C109.72 30.73 109.78 31.55 109.94 32.33C110.08 33.02 110.38 33.69 110.98 34.1C112.08 34.85 113.58 34.24 114.32 33.29C115.36 31.97 115.02 30.12 114.73 28.61C114.65 28.21 114.04 28.38 114.11 28.78C114.34 30.12 114.66 31.92 113.59 33C112.82 33.79 111.47 34.01 110.92 32.86C110.64 32.27 110.61 31.56 110.56 30.9C110.49 30.1 110.43 29.26 110.62 28.46C110.9 27.29 112.06 25.87 113.42 26.45C114.52 26.92 114.88 28.39 115.04 29.44C115.23 30.62 115.25 31.89 114.86 33.03C114.48 34.13 113.6 35.04 112.4 35.15C111.15 35.28 109.9 34.69 109.08 33.77C108.13 32.69 107.74 31.2 107.63 29.8C107.52 28.29 107.62 26.69 108.22 25.29C108.76 24.02 109.82 22.9 111.19 22.54C112.42 22.22 113.64 22.66 114.52 23.52C116.67 25.61 116.85 28.96 116.84 31.76C116.84 35.33 116.69 38.9 116.6 42.46C116.52 45.91 116.56 49.4 116.06 52.82C115.95 53.6 115.81 54.36 115.63 55.12C115.22 55.75 114.77 56.36 114.27 56.92C114.31 56.63 114.33 56.33 114.34 56.03C114.36 55.32 114.29 54.62 114.2 53.91C114.11 53.25 114 52.61 113.72 51.99C113.47 51.45 113.07 50.93 112.48 50.74C111.91 50.56 111.28 50.75 110.88 51.18C110.46 51.64 110.27 52.28 110.17 52.89C110.05 53.64 110.01 54.42 110.05 55.18C110.11 56.64 110.61 58.16 111.97 58.89C111.98 58.9 111.99 58.9 111.99 58.9C111.99 58.91 111.98 58.91 111.97 58.91C110.62 59.75 109.08 60.07 107.51 60.15C106.82 60.18 106.14 60.18 105.45 60.16C100.31 59.05 95.93 55.43 93.16 51.07C89.77 45.73 88.7 39.27 88.44 33.07C88.32 29.94 88.33 26.77 88.6 23.65C88.85 20.66 89.39 17.66 90.52 14.86C91.1 13.45 91.85 12.1 92.74 10.86C93.71 9.53 94.85 8.33 96.01 7.17C98.16 5.04 100.45 2.71 103.41 1.77C104.05 1.56 104.69 1.43 105.33 1.36ZM77.12 52.16C75.88 49.62 75.14 46.85 74.54 44.09C73.89 41.05 73.51 37.96 73.39 34.86C73.14 28.61 73.94 22.33 75.77 16.34C76.69 13.35 77.85 10.44 79.28 7.66C79.94 6.36 80.67 5.07 81.65 3.98C82.67 2.86 83.92 2.09 85.37 1.65C86.84 1.21 88.38 1.07 89.92 0.99C91.71 0.89 93.51 0.84 95.3 0.84C97.77 0.84 100.22 0.95 102.68 1.13C102.51 1.19 102.35 1.26 102.18 1.33C100.7 1.97 99.38 2.93 98.17 3.98C96.88 5.09 95.67 6.29 94.5 7.52C93.29 8.77 92.16 10.1 91.25 11.58C87.79 17.18 87.49 24.1 87.54 30.49C87.6 37.2 88.39 44.18 91.66 50.17C92.53 51.77 93.6 53.3 94.84 54.68C94.72 54.65 94.6 54.64 94.47 54.62C93.79 54.55 93.09 54.56 92.4 54.55C89.8 54.5 87.19 54.61 84.58 54.54C83.29 54.51 81.99 54.44 80.71 54.28C80.08 54.2 79.46 54.1 78.84 53.97C78.61 53.92 78.29 53.89 78 53.79C77.67 53.26 77.38 52.71 77.12 52.16ZM79.92 56.07C79.86 56.07 79.8 56.1 79.75 56.14C79.31 55.67 78.91 55.16 78.54 54.62C79.18 54.76 79.82 54.87 80.46 54.96C83.04 55.3 85.65 55.25 88.25 55.19C89.57 55.16 90.89 55.1 92.21 55.09C92.84 55.08 93.48 55.09 94.11 55.12C94.41 55.13 94.78 55.15 95.07 55.28C94.69 55.37 94.31 55.45 93.93 55.52C93.37 55.62 92.81 55.69 92.25 55.75C90.24 55.94 88.22 55.94 86.21 55.96C84.11 55.98 82.02 56 79.92 56.07ZM80.31 56.69C80.3 56.67 80.29 56.64 80.29 56.61C81.37 56.62 82.45 56.63 83.54 56.62C85.61 56.6 87.69 56.62 89.76 56.56C90.78 56.53 91.8 56.46 92.81 56.34C93.79 56.21 94.81 56.06 95.73 55.72C95.76 55.71 95.78 55.69 95.81 55.67C97.67 57.51 99.85 59.03 102.25 60.03C98.68 59.89 95.1 59.75 91.52 59.62C89.79 59.55 88.04 59.54 86.31 59.34C84.8 59.17 83.33 58.78 82.03 58C81.4 57.63 80.83 57.18 80.31 56.69ZM13.49 98.14C13.46 98.15 13.44 98.16 13.42 98.17C13.4 98.16 13.38 98.16 13.36 98.14C12.86 97.9 12.48 97.5 12.21 97.02C11.64 96.01 11.53 94.78 11.42 93.64C11.27 92.1 11.14 90.55 11.04 89C10.85 85.91 10.77 82.81 10.79 79.71C10.84 73.48 11.32 67.26 12.24 61.11C12.7 58.04 13.26 54.99 13.94 51.96C14.11 51.2 14.28 50.45 14.47 49.69C14.62 49.07 14.76 48.42 15.06 47.84C15.35 47.26 15.78 46.84 16.37 46.56C16.95 46.28 17.62 46.15 18.25 46.03C21.34 45.41 24.48 45.17 27.62 44.96C30.85 44.75 34.1 44.59 37.34 44.48C43.72 44.27 50.1 44.27 56.47 44.45C56.1 45.35 55.92 46.31 55.87 47.29C55.81 48.65 55.97 50 56.11 51.35C56.27 52.89 56.41 54.44 56.51 55.98C56.72 59.07 56.83 62.16 56.82 65.26C56.81 71.45 56.36 77.65 55.46 83.77C55.14 85.97 54.76 88.15 54.33 90.33C52.79 89.92 51.24 89.52 49.69 89.12C48.29 88.75 46.87 88.38 45.42 88.33C45.54 86.67 45.67 85 45.79 83.33C46.3 76.51 46.8 69.68 47.32 62.86C47.83 63.08 48.35 63.23 48.91 63.27C49.66 63.34 50.43 63.26 51.18 63.22C51.89 63.18 52.61 63.14 53.32 63.1C54.18 63.08 55.04 63.04 55.9 62.96C56.44 62.91 56.45 62.09 55.9 62.12C55.05 62.16 54.2 62.21 53.35 62.26C51.27 62.31 49.18 62.18 47.13 61.85C46.82 61.67 46.51 61.47 46.22 61.28C41.46 58.19 36.45 55.49 31.24 53.25C28.61 52.12 25.94 51.11 23.22 50.21C20.76 49.41 18.12 48.75 16.11 47.04C15.81 46.79 15.37 47.21 15.67 47.48C17.91 49.51 20.95 50.26 23.75 51.21C29.19 53.08 34.48 55.42 39.52 58.19C40.79 58.9 42.04 59.62 43.28 60.38C43.89 60.75 44.49 61.13 45.08 61.51C45.57 61.82 46.05 62.15 46.54 62.44C46.41 64.35 46.27 66.24 46.13 68.14C45.63 74.88 45.14 81.62 44.63 88.35C43.42 88.44 42.28 88.81 41.16 89.29C39.88 89.83 38.61 90.4 37.32 90.93C34.79 91.98 32.21 92.95 29.61 93.83C27.4 94.58 25.16 95.27 22.91 95.9C19.77 96.7 16.63 97.44 13.49 98.14ZM43.64 89.29C42.47 89.74 41.29 90.16 40.11 90.58C40.74 90.31 41.36 90.04 42 89.8C42.53 89.59 43.08 89.42 43.64 89.29ZM52.75 97.23C52.54 97.84 52.19 98.2 51.52 98.3C50.76 98.41 49.96 98.42 49.19 98.47C42.76 98.9 36.31 99.09 29.87 99.04C26.65 99.02 23.43 98.94 20.21 98.79C18.62 98.72 17.03 98.64 15.44 98.54C17.21 98.15 18.97 97.73 20.73 97.29C24.84 96.27 28.93 95.12 32.98 93.84C37.05 92.56 41.08 91.16 45.05 89.62C45.23 89.56 45.33 89.43 45.35 89.24C45.35 89.21 45.35 89.18 45.36 89.16C45.56 89.16 45.75 89.17 45.95 89.19C47.35 89.32 48.72 89.74 50.07 90.09C51.44 90.45 52.8 90.8 54.16 91.16C54.04 91.75 53.92 92.33 53.79 92.91C53.62 93.67 53.45 94.43 53.27 95.18C53.11 95.86 52.98 96.56 52.75 97.23ZM74.27 124.99C72.84 124.95 71.42 124.92 70 124.9C69.29 124.88 68.57 124.86 67.86 124.85C67.29 124.84 66.65 124.91 66.1 124.74C65.51 124.57 65.58 123.92 65.54 123.41C65.5 122.77 65.48 122.13 65.47 121.48C65.47 120.2 65.54 118.91 65.65 117.63C66.11 112.48 67.36 107.44 67.97 102.31C68.27 99.76 68.41 97.18 68.21 94.62C68.07 92.93 67.86 90.53 66.14 89.7C67.58 85.72 68.33 81.49 68.37 77.27C68.45 77.35 68.52 77.44 68.56 77.53C68.74 77.98 68.7 78.5 68.69 78.97C68.68 79.55 68.67 80.13 68.65 80.72C68.62 81.86 68.58 83.01 68.62 84.15C68.7 86.04 69.05 87.96 70.03 89.6C70.94 91.14 72.38 92.28 74.14 92.68C75.89 93.09 77.73 92.81 79.37 92.1C80.19 91.74 81.02 91.26 81.66 90.62C82.28 90.01 82.66 89.06 82.1 88.27C81.86 87.93 81.48 87.68 81.05 87.71C80.58 87.73 80.22 88.06 79.92 88.39C79.25 89.12 78.44 89.71 77.52 90.07C76.61 90.43 75.63 90.55 74.7 90.19C73.97 89.91 73.34 89.35 72.87 88.74C71.66 87.19 71.4 85.24 71.25 83.33C71.17 82.22 71.11 81.11 70.92 80.01C70.73 78.97 70.4 77.95 69.94 76.99C69.75 76.58 69.55 76.12 69.19 75.82C68.89 75.56 68.45 75.36 68.06 75.58C67.67 75.8 67.62 76.31 67.58 76.75C67.51 76.79 67.46 76.84 67.4 76.9C67.29 77.03 67.38 77.19 67.5 77.22C67.49 77.34 67.47 77.46 67.46 77.57C67.4 77.97 67.34 78.37 67.28 78.77C67.27 78.86 67.28 78.94 67.31 79.01C67.14 80.45 66.94 81.87 66.7 83.3C66.54 84.21 66.37 85.12 66.19 86.02C66.01 86.88 65.86 87.77 65.6 88.62C65.35 89.45 64.86 90.05 64.16 90.56C63.4 91.1 62.62 91.61 61.85 92.14C58.98 94.09 56.13 96.07 53.29 98.07C53.51 97.68 53.63 97.24 53.74 96.8C53.93 96.03 54.12 95.26 54.3 94.49C54.66 92.94 54.99 91.39 55.29 89.83C55.88 86.75 56.36 83.65 56.73 80.54C57.49 74.26 57.78 67.92 57.62 61.6C57.54 58.44 57.35 55.29 57.04 52.16C56.8 49.74 56.28 47 57.29 44.71C58.34 46.56 59.43 48.39 60.58 50.18C61.72 51.97 62.92 53.73 64.17 55.46C64.78 56.31 65.41 57.16 66.05 58C66.67 58.81 67.33 59.6 67.93 60.43C68.51 61.25 68.99 62.1 69.2 63.09C69.4 64.02 69.38 64.99 69.3 65.93C69.15 67.89 68.76 69.84 69.12 71.8C69.15 71.97 69.34 72.1 69.51 72.1C70.09 72.1 70.66 72.1 71.24 72.1C71.39 72.25 71.65 72.33 71.87 72.16C71.91 72.12 71.95 72.1 71.99 72.07C72.07 72.04 72.12 72 72.16 71.94C74.86 69.96 78.72 70.27 81.51 71.95C84.34 73.66 85.95 76.81 86.53 79.97C87.15 83.37 86.72 87.18 85.07 90.24C83.46 93.22 80.37 95.55 76.84 95.37C75.04 95.28 73.36 94.43 71.98 93.32C70.57 92.19 69.33 90.77 68.76 89.04C68.58 88.52 67.86 88.74 67.94 89.26C68.04 89.89 68.16 90.51 68.31 91.12C68.89 93.58 69.92 95.97 71.59 97.89C73.14 99.69 75.33 101.03 77.7 101.42C80.13 101.82 82.47 101.13 84.42 99.66C86.44 98.14 88.01 96.04 89.27 93.87C91.99 89.19 93.37 83.48 92.18 78.14C91.18 73.63 88.09 69.5 83.67 67.84C79.97 66.45 75.44 67.2 72.56 69.92C72.89 67.55 73.19 65.18 73.59 62.83C73.67 62.37 73.78 61.86 74.15 61.54C74.49 61.24 74.96 61.16 75.4 61.14C76.52 61.11 77.68 61.37 78.79 61.53C81.31 61.89 83.82 62.29 86.34 62.66C88.38 62.96 90.43 63.23 92.49 63.44C92.67 63.48 92.85 63.51 93.04 63.54C94.42 63.77 95.81 63.97 97.21 64.12C98.48 64.26 99.74 64.3 101.01 64.38C100.73 68.56 100.46 72.75 100.16 76.94C99.59 84.85 98.95 92.77 98.09 100.66C97.23 108.6 96.15 116.53 94.72 124.39C94.68 124.6 94.77 124.86 95.01 124.9C98.69 125.62 102.31 126.6 105.9 127.66C112.22 129.54 118.48 131.68 124.93 133.08C126.53 133.43 128.14 133.73 129.76 133.97C126.77 134.05 123.78 134.09 120.8 134.09C118.9 134.09 116.99 134.07 115.09 134.03C114.13 134.02 113.17 133.99 112.21 133.97C111.28 133.95 110.35 133.88 109.42 133.9C109.49 132.83 109.44 131.72 108.95 130.74C108.45 129.73 107.5 129.15 106.48 128.75C105.34 128.31 104.18 127.96 103.05 127.49C101.86 126.99 100.68 126.47 99.44 126.09C96.81 125.29 94 125.41 91.28 125.35C85.61 125.23 79.94 125.11 74.27 124.99ZM68.52 76.28C68.64 76.39 68.78 76.47 68.88 76.61C69 76.8 69.1 77.01 69.2 77.22C69.65 78.12 69.96 79.09 70.15 80.08C70.53 82.17 70.38 84.33 70.9 86.4C71.3 87.98 72.19 89.53 73.57 90.45C74.24 90.9 75.04 91.16 75.85 91.16C76.87 91.16 77.88 90.79 78.75 90.28C79.18 90.03 79.57 89.74 79.94 89.41C80.11 89.25 80.28 89.08 80.44 88.91C80.58 88.77 80.72 88.6 80.9 88.51C81.2 88.37 81.45 88.58 81.56 88.85C81.7 89.21 81.54 89.57 81.32 89.85C80.8 90.5 79.98 90.96 79.24 91.31C78.49 91.67 77.67 91.91 76.84 92.03C75.24 92.25 73.52 91.95 72.22 90.95C70.85 89.9 70.09 88.27 69.71 86.64C69.23 84.62 69.36 82.54 69.37 80.48C69.37 79.92 69.37 79.35 69.34 78.79C69.31 78.34 69.32 77.85 69.14 77.43C69.01 77.08 68.75 76.8 68.39 76.69C68.41 76.61 68.41 76.53 68.42 76.45C68.43 76.39 68.45 76.34 68.45 76.29C68.46 76.27 68.46 76.27 68.46 76.26C68.48 76.28 68.58 76.34 68.52 76.28ZM87.07 78.54C86.16 75.16 84.02 72.04 80.72 70.62C78.38 69.6 75.64 69.43 73.3 70.38C76.43 67.57 81.26 67.33 84.87 69.32C88.88 71.54 91.25 75.87 91.68 80.34C92.16 85.44 90.5 90.65 87.65 94.87C86.35 96.8 84.76 98.68 82.67 99.8C80.66 100.89 78.36 100.97 76.23 100.17C72.58 98.81 70.49 95.51 69.41 91.95C70.11 92.83 70.94 93.62 71.85 94.29C73.58 95.57 75.67 96.39 77.85 96.21C81.75 95.88 84.83 93.05 86.31 89.58C87.78 86.16 88.03 82.13 87.07 78.54ZM84.15 145.95C83.87 144.55 83.65 143.14 83.51 141.72C83.01 136.47 83.47 131.15 84.89 126.07C85.74 126.09 86.59 126.1 87.44 126.12C89.48 126.16 91.52 126.21 93.56 126.26C95.55 126.3 97.5 126.38 99.41 126.98C101.19 127.55 102.87 128.41 104.63 129.03C106.1 129.55 107.83 129.91 108.37 131.57C108.84 132.99 108.55 134.62 108.28 136.05C108.01 137.44 107.61 138.83 106.93 140.09C106.84 140.27 106.74 140.44 106.63 140.61C106.82 139.65 106.96 138.68 107.06 137.71C107.17 136.51 107.29 135.22 107.1 134.03C107.03 133.57 106.88 133.12 106.6 132.76C106.32 132.42 105.81 132.02 105.39 132.31C104.53 132.92 103.79 133.76 103.17 134.61C101.89 136.37 101.12 138.5 101 140.67C100.94 141.62 100.91 142.78 101.49 143.59C102.2 144.58 103.4 144.3 104.36 143.85C104.57 143.75 104.78 143.64 104.98 143.52C104.73 144.19 104.44 144.84 104.03 145.44C103.51 146.21 102.79 146.84 101.89 147.12C100.8 147.46 99.63 147.4 98.5 147.38C93.68 147.32 88.88 146.84 84.15 145.95ZM99.54 172.13C99.46 172.5 99.27 172.79 98.9 172.92C98.45 173.07 97.94 173.07 97.47 173.1C95.46 173.23 93.43 173.06 91.47 172.59C91.47 170.87 91.47 169.15 91.47 167.43C91.47 160.94 91.46 154.46 91.46 147.97C91.46 147.92 91.45 147.88 91.43 147.84C92.92 147.99 94.42 148.09 95.93 148.16C97.09 148.21 98.25 148.25 99.42 148.24C99.42 148.25 99.41 148.25 99.41 148.26C99.43 150.77 99.45 153.27 99.47 155.78L99.54 163.68C99.47 163.77 99.46 163.9 99.54 164L99.58 169.13C99.59 169.68 99.59 170.23 99.59 170.78C99.6 171.22 99.63 171.69 99.54 172.13ZM150.16 162.08C150.66 161.75 151.2 162.21 151.11 162.75C151.09 162.92 151.02 163.06 150.92 163.19C150.81 163.19 150.71 163.2 150.6 163.19C150.31 163.17 150.07 163.05 149.97 162.76C149.89 162.52 149.94 162.23 150.16 162.08Z" fill="#515151" fill-opacity="1.000000" fill-rule="nonzero"/>
		<path id="Vector" d="M90.91 164.07C84.14 164.19 77.37 164.38 70.6 164.42C63.82 164.46 57.05 164.39 50.28 164.21C46.91 164.12 43.54 164.01 40.17 163.86C39.3 163.83 38.43 163.78 37.57 163.75C38.02 163.05 37.93 162.13 37.18 161.53C36 160.58 34.36 161.18 33.23 161.92C32.76 162.23 32.34 162.71 32.49 163.31C32.63 163.85 33.16 164.14 33.67 164.28C33.69 164.28 33.7 164.29 33.72 164.29C33.48 164.31 33.25 164.33 33.02 164.35C29.69 164.69 26.35 164.98 23.02 165.24C16.31 165.77 9.6 166.15 2.89 166.38C2.05 166.41 1.21 166.44 0.38 166.47C-0.13 166.48 -0.13 167.27 0.38 167.25C7.66 167.04 14.95 166.65 22.21 166.09C25.85 165.81 29.48 165.49 33.1 165.13C34.24 165.02 35.6 165.03 36.67 164.5C37.36 164.53 38.04 164.56 38.73 164.59C40.56 164.68 42.39 164.75 44.23 164.82C51.54 165.08 58.86 165.21 66.17 165.21C73.51 165.21 80.87 165.15 88.2 164.79C89.1 164.75 90.01 164.68 90.91 164.63C91.26 164.6 91.27 164.06 90.91 164.07ZM33.34 163.25C32.95 162.75 34.25 162.25 34.56 162.11C35.24 161.81 36.08 161.64 36.7 162.15C37.16 162.53 37.19 163.13 36.74 163.52C36.66 163.59 36.58 163.64 36.49 163.69C36.04 163.67 35.58 163.65 35.12 163.63C34.64 163.61 33.69 163.68 33.34 163.25Z" fill="#515151" fill-opacity="1.000000" fill-rule="nonzero"/>
	</g>
</svg>
