<svg width="24" height="20" viewBox="0 0 24 20" fill="none" xmlns="http://www.w3.org/2000/svg">
<g clip-path="url(#clip0_2183_292)">
<path d="M6.48198 11.0902C5.63598 10.9722 4.79764 10.731 3.98486 10.4769C3.13629 10.2101 2.26217 9.93807 1.5184 9.44538C1.48518 9.42485 1.33693 9.30168 1.43661 9.39149C1.36505 9.32734 1.28582 9.26062 1.22959 9.18364C1.25003 9.21187 1.26537 9.18364 1.20658 9.14002C1.07879 9.04764 1.23725 9.10666 1.20147 9.13488C1.20403 9.15798 1.20403 9.18107 1.20658 9.20417C1.20658 9.14771 1.20658 9.14771 1.20147 9.2016C1.1938 9.24779 1.18869 9.35557 1.18614 9.27345C1.19125 9.39149 1.10435 9.29655 1.19636 9.27858C1.27559 9.26319 1.08134 9.34017 1.21681 9.26832C1.28582 9.23239 1.34971 9.1939 1.42128 9.16054C1.33693 9.19904 1.46217 9.14515 1.48262 9.13745C1.52352 9.12205 1.56697 9.10666 1.60786 9.09126C1.72799 9.0502 1.84812 9.01171 1.96824 8.97322C3.16697 8.59601 4.30435 8.03147 5.43661 7.49003C8.1101 6.21469 10.8577 5.04456 13.6411 4.02839C14.6609 3.65631 15.7165 3.37404 16.7312 2.984C17.475 2.6966 18.2085 2.38354 18.9548 2.10127C19.8622 1.75741 20.7874 1.42639 21.7459 1.25959C21.7254 1.26216 21.9222 1.23393 21.8353 1.2442C21.774 1.2519 21.935 1.23393 21.9529 1.23137C22.0424 1.22367 22.1293 1.21854 22.2187 1.21597C22.3082 1.21597 22.3951 1.21854 22.4845 1.22624C22.3312 1.21341 22.5229 1.24163 22.5765 1.24933C22.6021 1.2519 22.6277 1.26729 22.6507 1.27243C22.4794 1.2211 22.6174 1.24163 22.6404 1.27243C22.6532 1.28782 22.6839 1.29552 22.6992 1.31092C22.6328 1.24933 22.7171 1.35711 22.7222 1.3725C22.8015 1.60858 22.8091 1.85492 22.7708 2.10383C22.7222 2.42716 22.8526 2.75818 23.1951 2.85313C23.4813 2.93268 23.8903 2.75562 23.9414 2.42716C24.0436 1.75228 24.0513 0.995289 23.5555 0.464111C23.2615 0.15105 22.8526 0.0330102 22.4385 0.00478337C21.5874 -0.0568025 20.6928 0.220334 19.8903 0.476941C18.9753 0.77204 18.0807 1.13129 17.1887 1.49311C16.3248 1.84209 15.4532 2.1141 14.5714 2.41176C13.0379 2.92754 11.5325 3.52287 10.0373 4.14386C8.51137 4.77769 6.97527 5.40381 5.48518 6.11974C4.74652 6.47386 4.0053 6.83055 3.25642 7.1667C2.64045 7.44127 2.25451 7.6055 1.63598 7.80052C1.1938 7.93909 0.700512 8.08023 0.350352 8.40099C-0.0381459 8.7551 -0.112267 9.29398 0.153547 9.75074C0.6954 10.6797 1.99891 11.0774 2.94205 11.411C3.97719 11.7754 5.06345 12.1115 6.15482 12.2629C6.47943 12.3091 6.80403 12.1834 6.90115 11.837C6.98294 11.5521 6.80658 11.1339 6.48198 11.0902Z" fill="#5B554D"/>
<path d="M22.7554 1.94508C22.8142 4.56761 22.0397 7.14909 21.4135 9.67154C21.0864 10.9905 20.8384 12.3274 20.4167 13.6233C20.041 14.778 19.5503 15.8994 19.3126 17.0926C19.2308 17.5006 19.1311 18.0139 18.9854 18.35C18.9471 18.4373 18.9011 18.5296 18.8448 18.6066C18.786 18.6887 18.8985 18.5527 18.832 18.6194C18.8014 18.6502 18.7656 18.6759 18.7324 18.7067C18.6301 18.8042 18.786 18.6836 18.7221 18.717C18.6659 18.7452 18.5151 18.7965 18.6889 18.7452C18.6429 18.758 18.5892 18.7708 18.5432 18.7862C18.4384 18.8247 18.6659 18.7965 18.5126 18.7888C18.464 18.7862 18.4129 18.7862 18.3643 18.7862C18.1982 18.7862 18.4563 18.817 18.2876 18.7785C18.1573 18.7478 18.0295 18.7195 17.9043 18.6759C17.8429 18.6554 17.7841 18.6323 17.7253 18.6092C17.6205 18.5681 17.71 18.604 17.7305 18.6117C17.6819 18.5912 17.6359 18.5707 17.5899 18.5476C16.1586 17.8727 14.9854 16.8181 13.8046 15.7891C13.1324 15.204 12.4729 14.601 11.8033 14.0133C11.3126 13.5797 10.8167 13.1229 10.2621 12.7739C9.6001 12.3582 8.99179 13.4077 9.65122 13.8235C9.73556 13.8773 9.81991 13.9338 9.89914 13.9928C9.92725 14.0133 10.1036 14.1519 9.96815 14.0441C10.0269 14.0903 10.0832 14.1365 10.142 14.1827C10.4001 14.3931 10.6531 14.6138 10.9036 14.8345C11.517 15.3734 12.1202 15.9225 12.7336 16.4614C13.9988 17.5751 15.3202 18.7657 16.8333 19.5278C17.4314 19.8306 18.1011 20.0872 18.7809 19.9743C19.5733 19.8435 20.0078 19.1558 20.2352 18.4398C20.3784 17.9959 20.4576 17.534 20.5496 17.0747C20.6723 16.4691 20.9126 15.8891 21.117 15.3092C21.3701 14.5958 21.6205 13.8799 21.8301 13.1537C22.0244 12.4763 22.1547 11.786 22.3158 11.0983C23.0135 8.1011 24.0333 5.0603 23.9669 1.94765C23.949 1.165 22.7375 1.16243 22.7554 1.94508Z" fill="#5B554D"/>
<path d="M8.86417 13.1359C8.78749 14.8629 8.80283 16.6078 8.56257 18.3245C8.52679 18.5734 8.56513 18.8018 8.77982 18.9634C8.97152 19.1071 9.24244 19.1405 9.45203 19.0122C10.6712 18.2655 11.5862 17.1364 12.7645 16.3358C13.0354 16.151 13.1555 15.7995 12.9817 15.5044C12.8258 15.2349 12.4246 15.1015 12.1536 15.2863C10.9754 16.0869 10.0578 17.2185 8.84117 17.9627C9.13765 18.1911 9.43414 18.4194 9.73062 18.6504C9.98621 16.8233 9.99388 14.9783 10.0757 13.1385C10.091 12.81 9.78685 12.5303 9.46992 12.5303C9.12998 12.5277 8.8795 12.8049 8.86417 13.1359Z" fill="#5B554D"/>
<path d="M5.81757 11.8371C6.65591 14.1928 7.54537 16.5356 8.62396 18.7938C8.76453 19.0889 9.18626 19.1684 9.45207 19.0119C9.75367 18.8348 9.81246 18.4781 9.66933 18.1805C8.63674 16.0173 7.78818 13.7719 6.98562 11.5164C6.87572 11.2084 6.57156 11.0006 6.2393 11.0904C5.94281 11.1725 5.70767 11.5266 5.81757 11.8371Z" fill="#5B554D"/>
<path d="M6.62525 12.037C8.19202 10.9079 9.95816 10.1304 11.6681 9.25538C12.4987 8.83198 13.3243 8.38548 14.0911 7.85173C14.8374 7.33082 15.5684 6.78938 16.3326 6.29413C17.1224 5.78348 17.9454 5.27026 18.8374 4.96233C19.5709 4.71086 19.2566 3.53559 18.5153 3.78964C16.8233 4.36957 15.323 5.47298 13.884 6.50968C12.3224 7.63362 10.5844 8.42397 8.87701 9.29387C7.88787 9.79682 6.91663 10.3357 6.01439 10.9875C5.74857 11.1799 5.62078 11.5161 5.79714 11.8189C5.95049 12.0832 6.35944 12.2295 6.62525 12.037Z" fill="#5B554D"/>
<path d="M18.3945 3.99056C17.2035 5.70726 15.5498 7.07241 13.9728 8.4196C12.3166 9.83351 10.7012 11.2962 9.03988 12.705C8.7894 12.9179 8.82263 13.3465 9.03988 13.5646C9.2878 13.8135 9.64563 13.7776 9.89611 13.5646C11.5856 12.1327 13.2265 10.647 14.9108 9.20739C16.5466 7.80888 18.2028 6.3847 19.4399 4.60128C19.6265 4.33184 19.4884 3.9264 19.2226 3.76987C18.9236 3.59538 18.5836 3.72112 18.3945 3.99056Z" fill="#5B554D"/>
</g>
<defs>
<clipPath id="clip0_2183_292">
<rect width="24" height="20" fill="white"/>
</clipPath>
</defs>
</svg>
