<svg width="24" height="20" viewBox="0 0 24 20" fill="none" xmlns="http://www.w3.org/2000/svg">
<g clip-path="url(#clip0_2390_109)">
<path d="M6.48393 11.0902C5.63793 10.9722 4.79959 10.731 3.98681 10.4769C3.13825 10.2101 2.26413 9.93807 1.52036 9.44538C1.48713 9.42485 1.33889 9.30168 1.43857 9.39149C1.367 9.32734 1.28777 9.26062 1.23154 9.18364C1.25199 9.21187 1.26732 9.18364 1.20854 9.14002C1.08074 9.04764 1.23921 9.10666 1.20342 9.13488C1.20598 9.15798 1.20598 9.18107 1.20854 9.20417C1.20854 9.14771 1.20854 9.14771 1.20342 9.2016C1.19576 9.24779 1.19064 9.35557 1.18809 9.27345C1.1932 9.39149 1.1063 9.29655 1.19831 9.27858C1.27754 9.26319 1.0833 9.34017 1.21876 9.26832C1.28777 9.23239 1.35167 9.1939 1.42323 9.16054C1.33889 9.19904 1.46413 9.14515 1.48457 9.13745C1.52547 9.12205 1.56892 9.10666 1.60981 9.09126C1.72994 9.0502 1.85007 9.01171 1.9702 8.97322C3.16892 8.59601 4.3063 8.03147 5.43857 7.49003C8.11205 6.21469 10.8597 5.04456 13.643 4.02839C14.6628 3.65631 15.7184 3.37404 16.7331 2.984C17.4769 2.6966 18.2105 2.38354 18.9568 2.10127C19.8641 1.75741 20.7894 1.42639 21.7478 1.25959C21.7274 1.26216 21.9242 1.23393 21.8373 1.2442C21.7759 1.2519 21.937 1.23393 21.9549 1.23137C22.0443 1.22367 22.1312 1.21854 22.2207 1.21597C22.3101 1.21597 22.397 1.21854 22.4865 1.22624C22.3331 1.21341 22.5248 1.24163 22.5785 1.24933C22.6041 1.2519 22.6296 1.26729 22.6526 1.27243C22.4814 1.2211 22.6194 1.24163 22.6424 1.27243C22.6552 1.28782 22.6859 1.29552 22.7012 1.31092C22.6347 1.24933 22.7191 1.35711 22.7242 1.3725C22.8034 1.60858 22.8111 1.85492 22.7728 2.10383C22.7242 2.42716 22.8545 2.75818 23.197 2.85313C23.4833 2.93268 23.8922 2.75562 23.9434 2.42716C24.0456 1.75228 24.0533 0.995289 23.5574 0.464111C23.2635 0.15105 22.8545 0.0330102 22.4405 0.00478337C21.5894 -0.0568025 20.6948 0.220334 19.8922 0.476941C18.9772 0.77204 18.0827 1.13129 17.1906 1.49311C16.3267 1.84209 15.4552 2.1141 14.5734 2.41176C13.0398 2.92754 11.5344 3.52287 10.0392 4.14386C8.51333 4.77769 6.97722 5.40381 5.48713 6.11974C4.74847 6.47386 4.00726 6.83055 3.25838 7.1667C2.6424 7.44127 2.25646 7.6055 1.63793 7.80052C1.19576 7.93909 0.702465 8.08023 0.352306 8.40099C-0.0361928 8.7551 -0.110314 9.29398 0.1555 9.75074C0.697353 10.6797 2.00087 11.0774 2.944 11.411C3.97914 11.7754 5.0654 12.1115 6.15678 12.2629C6.48138 12.3091 6.80598 12.1834 6.9031 11.837C6.98489 11.5521 6.80854 11.1339 6.48393 11.0902Z" fill="#E31E25"/>
<path d="M22.7573 1.94508C22.8161 4.56761 22.0417 7.14909 21.4155 9.67154C21.0883 10.9905 20.8404 12.3274 20.4187 13.6233C20.0429 14.778 19.5522 15.8994 19.3145 17.0926C19.2327 17.5006 19.133 18.0139 18.9874 18.35C18.949 18.4373 18.903 18.5296 18.8468 18.6066C18.788 18.6887 18.9005 18.5527 18.834 18.6194C18.8033 18.6502 18.7675 18.6759 18.7343 18.7067C18.6321 18.8042 18.788 18.6836 18.7241 18.717C18.6679 18.7452 18.5171 18.7965 18.6909 18.7452C18.6449 18.758 18.5912 18.7708 18.5452 18.7862C18.4404 18.8247 18.6679 18.7965 18.5145 18.7888C18.4659 18.7862 18.4148 18.7862 18.3663 18.7862C18.2001 18.7862 18.4583 18.817 18.2896 18.7785C18.1592 18.7478 18.0314 18.7195 17.9062 18.6759C17.8449 18.6554 17.7861 18.6323 17.7273 18.6092C17.6225 18.5681 17.712 18.604 17.7324 18.6117C17.6838 18.5912 17.6378 18.5707 17.5918 18.5476C16.1605 17.8727 14.9874 16.8181 13.8065 15.7891C13.1343 15.204 12.4749 14.601 11.8052 14.0133C11.3145 13.5797 10.8187 13.1229 10.264 12.7739C9.60205 12.3582 8.99374 13.4077 9.65317 13.8235C9.73751 13.8773 9.82186 13.9338 9.90109 13.9928C9.92921 14.0133 10.1056 14.1519 9.9701 14.0441C10.0289 14.0903 10.0851 14.1365 10.1439 14.1827C10.4021 14.3931 10.6551 14.6138 10.9056 14.8345C11.519 15.3734 12.1222 15.9225 12.7356 16.4614C14.0008 17.5751 15.3222 18.7657 16.8353 19.5278C17.4334 19.8306 18.103 20.0872 18.7829 19.9743C19.5752 19.8435 20.0097 19.1558 20.2372 18.4398C20.3803 17.9959 20.4596 17.534 20.5516 17.0747C20.6743 16.4691 20.9145 15.8891 21.119 15.3092C21.372 14.5958 21.6225 13.8799 21.8321 13.1537C22.0263 12.4763 22.1567 11.786 22.3177 11.0983C23.0155 8.1011 24.0353 5.0603 23.9688 1.94765C23.9509 1.165 22.7394 1.16243 22.7573 1.94508Z" fill="#E31E25"/>
<path d="M8.86612 13.1359C8.78944 14.8629 8.80478 16.6078 8.56452 18.3245C8.52874 18.5734 8.56708 18.8018 8.78178 18.9634C8.97347 19.1071 9.2444 19.1405 9.45398 19.0122C10.6732 18.2655 11.5882 17.1364 12.7664 16.3358C13.0374 16.151 13.1575 15.7995 12.9837 15.5044C12.8278 15.2349 12.4265 15.1015 12.1556 15.2863C10.9773 16.0869 10.0597 17.2185 8.84312 17.9627C9.1396 18.1911 9.43609 18.4194 9.73258 18.6504C9.98817 16.8233 9.99583 14.9783 10.0776 13.1385C10.093 12.81 9.78881 12.5303 9.47187 12.5303C9.13194 12.5277 8.88146 12.8049 8.86612 13.1359Z" fill="#E31E25"/>
<path d="M5.81952 11.8371C6.65786 14.1928 7.54732 16.5356 8.62591 18.7938C8.76649 19.0889 9.18821 19.1684 9.45403 19.0119C9.75562 18.8348 9.81441 18.4781 9.67128 18.1805C8.63869 16.0173 7.79013 13.7719 6.98757 11.5164C6.87767 11.2084 6.57352 11.0006 6.24125 11.0904C5.94476 11.1725 5.70962 11.5266 5.81952 11.8371Z" fill="#E31E25"/>
<path d="M6.6272 12.037C8.19398 10.9079 9.96011 10.1304 11.67 9.25538C12.5007 8.83198 13.3262 8.38548 14.093 7.85173C14.8393 7.33082 15.5703 6.78938 16.3346 6.29413C17.1243 5.78348 17.9473 5.27026 18.8393 4.96233C19.5729 4.71086 19.2585 3.53559 18.5173 3.78964C16.8253 4.36957 15.325 5.47298 13.886 6.50968C12.3243 7.63362 10.5863 8.42397 8.87896 9.29387C7.88982 9.79682 6.91858 10.3357 6.01634 10.9875C5.75053 11.1799 5.62273 11.5161 5.79909 11.8189C5.95244 12.0832 6.36139 12.2295 6.6272 12.037Z" fill="#E31E25"/>
<path d="M18.3965 3.99056C17.2054 5.70726 15.5517 7.07241 13.9747 8.4196C12.3185 9.83351 10.7032 11.2962 9.04183 12.705C8.79135 12.9179 8.82458 13.3465 9.04183 13.5646C9.28975 13.8135 9.64758 13.7776 9.89806 13.5646C11.5875 12.1327 13.2284 10.647 14.9128 9.20739C16.5485 7.80888 18.2048 6.3847 19.4418 4.60128C19.6284 4.33184 19.4904 3.9264 19.2246 3.76987C18.9255 3.59538 18.5856 3.72112 18.3965 3.99056Z" fill="#E31E25"/>
</g>
<defs>
<clipPath id="clip0_2390_109">
<rect width="24" height="20" fill="white" transform="translate(0.00195312)"/>
</clipPath>
</defs>
</svg>
