<svg width="27" height="22" viewBox="0 0 27 22" fill="none" xmlns="http://www.w3.org/2000/svg">
<g clip-path="url(#clip0_2183_877)">
<path d="M7.29174 12.1996C6.33998 12.0698 5.39685 11.8045 4.48248 11.525C3.52784 11.2315 2.54446 10.9323 1.70772 10.3903C1.67034 10.3677 1.50356 10.2322 1.6157 10.331C1.53519 10.2605 1.44605 10.1871 1.3828 10.1024C1.4058 10.1334 1.42305 10.1024 1.35692 10.0544C1.21315 9.95279 1.39142 10.0177 1.35117 10.0488C1.35404 10.0742 1.35404 10.0996 1.35692 10.125C1.35692 10.0629 1.35692 10.0629 1.35117 10.1222C1.34254 10.173 1.33679 10.2915 1.33391 10.2012C1.33966 10.331 1.2419 10.2266 1.34542 10.2068C1.43455 10.1899 1.21602 10.2746 1.36842 10.1955C1.44605 10.156 1.51794 10.1137 1.59845 10.077C1.50356 10.1193 1.64446 10.0601 1.66746 10.0516C1.71347 10.0346 1.76235 10.0177 1.80835 10.0008C1.9435 9.95561 2.07864 9.91327 2.21379 9.87093C3.56235 9.456 4.8419 8.83501 6.1157 8.23942C9.12337 6.83655 12.2144 5.5494 15.3457 4.43162C16.493 4.02233 17.6806 3.71184 18.8221 3.28279C19.6588 2.96665 20.4841 2.62228 21.3237 2.31179C22.3445 1.93355 23.3854 1.56942 24.4636 1.38594C24.4406 1.38877 24.662 1.35772 24.5643 1.36901C24.4953 1.37748 24.6764 1.35772 24.6965 1.3549C24.7972 1.34643 24.8949 1.34078 24.9956 1.33796C25.0962 1.33796 25.194 1.34078 25.2946 1.34925C25.1221 1.33514 25.3377 1.36619 25.3981 1.37465C25.4269 1.37748 25.4556 1.39441 25.4815 1.40006C25.2889 1.3436 25.4441 1.36619 25.47 1.40006C25.4844 1.41699 25.5189 1.42546 25.5361 1.4424C25.4614 1.37465 25.5563 1.49321 25.562 1.51014C25.6512 1.76983 25.6598 2.04081 25.6167 2.31461C25.562 2.67027 25.7087 3.03439 26.094 3.13883C26.416 3.22633 26.8761 3.03157 26.9336 2.67027C27.0486 1.9279 27.0572 1.09521 26.4994 0.510913C26.1687 0.166545 25.7087 0.0367019 25.2429 0.00565233C24.2854 -0.0620921 23.279 0.242758 22.3761 0.525026C21.3467 0.849635 20.3403 1.24481 19.3368 1.64281C18.3649 2.02669 17.3844 2.3259 16.3924 2.65333C14.6671 3.22069 12.9735 3.87555 11.2914 4.55864C9.57481 5.25584 7.84669 5.94458 6.17034 6.73211C5.33934 7.12164 4.50548 7.51399 3.66299 7.88376C2.97002 8.18579 2.53583 8.36644 1.83998 8.58097C1.34254 8.73339 0.787588 8.88864 0.393658 9.24148C-0.0434025 9.63101 -0.126789 10.2238 0.172252 10.7262C0.781837 11.748 2.24829 12.1855 3.30931 12.5525C4.47385 12.9533 5.69589 13.3231 6.92369 13.4896C7.28887 13.5404 7.65404 13.4021 7.76331 13.021C7.85532 12.7077 7.65692 12.2476 7.29174 12.1996Z" fill="white"/>
<path d="M25.5998 2.1394C25.6659 5.02418 24.7947 7.8638 24.0902 10.6385C23.7222 12.0894 23.4432 13.56 22.9688 14.9854C22.5461 16.2556 21.994 17.4892 21.7266 18.8017C21.6346 19.2505 21.5225 19.815 21.3586 20.1848C21.3154 20.2808 21.2637 20.3824 21.2004 20.4671C21.1343 20.5574 21.2608 20.4078 21.1861 20.4812C21.1515 20.5151 21.1113 20.5433 21.0739 20.5772C20.9589 20.6844 21.1343 20.5518 21.0624 20.5885C20.9992 20.6195 20.8295 20.676 21.025 20.6195C20.9733 20.6336 20.9129 20.6477 20.8611 20.6647C20.7432 20.707 20.9992 20.676 20.8266 20.6675C20.772 20.6647 20.7145 20.6647 20.6599 20.6647C20.473 20.6647 20.7634 20.6985 20.5736 20.6562C20.4269 20.6223 20.2832 20.5913 20.1423 20.5433C20.0733 20.5207 20.0071 20.4953 19.941 20.4699C19.8231 20.4247 19.9238 20.4643 19.9468 20.4727C19.8921 20.4501 19.8404 20.4276 19.7886 20.4022C18.1784 19.6598 16.8586 18.4997 15.5301 17.3678C14.7739 16.7242 14.0321 16.0609 13.2787 15.4145C12.7266 14.9374 12.1688 14.435 11.5448 14.0511C10.8001 13.5938 10.1158 14.7483 10.8576 15.2056C10.9525 15.2649 11.0474 15.327 11.1365 15.3919C11.1682 15.4145 11.3666 15.5669 11.2142 15.4484C11.2803 15.4992 11.3436 15.55 11.4097 15.6008C11.7001 15.8322 11.9848 16.075 12.2666 16.3177C12.9567 16.9105 13.6353 17.5146 14.3253 18.1073C15.7487 19.3324 17.2353 20.6421 18.9375 21.4804C19.6103 21.8135 20.3637 22.0958 21.1285 21.9716C22.0199 21.8276 22.5087 21.0711 22.7646 20.2836C22.9257 19.7953 23.0148 19.2872 23.1183 18.7819C23.2563 18.1158 23.5266 17.4779 23.7567 16.8399C24.0413 16.0552 24.3231 15.2677 24.5589 14.4689C24.7774 13.7237 24.9241 12.9644 25.1052 12.2079C25.8902 8.91102 27.0375 5.56613 26.9627 2.14222C26.9426 1.2813 25.5797 1.27848 25.5998 2.1394Z" fill="white"/>
<path d="M9.9717 14.4494C9.88544 16.349 9.90269 18.2685 9.6324 20.1568C9.59215 20.4306 9.63528 20.6819 9.87681 20.8597C10.0925 21.0178 10.3973 21.0545 10.633 20.9133C12.0046 20.0919 13.034 18.8499 14.3596 17.9693C14.6644 17.766 14.7995 17.3793 14.604 17.0547C14.4286 16.7583 13.9771 16.6116 13.6723 16.8148C12.3468 17.6955 11.3145 18.9403 9.94582 19.7588C10.2794 20.0101 10.6129 20.2613 10.9465 20.5153C11.234 18.5056 11.2426 16.4761 11.3346 14.4522C11.3519 14.0909 11.0097 13.7832 10.6532 13.7832C10.2707 13.7804 9.98895 14.0852 9.9717 14.4494Z" fill="white"/>
<path d="M6.54464 13.0213C7.48778 15.6125 8.48841 18.1897 9.70183 20.6736C9.85998 20.9982 10.3344 21.0857 10.6335 20.9135C10.9728 20.7188 11.0389 20.3264 10.8779 19.999C9.71621 17.6195 8.76158 15.1496 7.8587 12.6685C7.73506 12.3298 7.39289 12.1011 7.01908 12.1999C6.68554 12.2902 6.421 12.6798 6.54464 13.0213Z" fill="white"/>
<path d="M7.4528 13.2413C9.21542 11.9993 11.2023 11.144 13.126 10.1815C14.0605 9.71576 14.9892 9.22461 15.8518 8.63749C16.6915 8.06449 17.5138 7.4689 18.3736 6.92412C19.2621 6.36241 20.1879 5.79787 21.1915 5.45915C22.0167 5.18253 21.663 3.88974 20.8292 4.16919C18.9256 4.80711 17.2378 6.02087 15.6189 7.16123C13.8621 8.39757 11.9068 9.26695 9.98602 10.2238C8.87325 10.7771 7.78059 11.3699 6.76558 12.0868C6.46654 12.2985 6.32277 12.6683 6.52117 13.0014C6.69369 13.2921 7.15376 13.453 7.4528 13.2413Z" fill="white"/>
<path d="M20.6942 4.38883C19.3543 6.27721 17.4939 7.77887 15.7197 9.26078C13.8565 10.8161 12.0392 12.425 10.1702 13.9747C9.88844 14.2089 9.92582 14.6803 10.1702 14.9203C10.4491 15.1941 10.8517 15.1545 11.1335 14.9203C13.0341 13.3452 14.8801 11.7109 16.775 10.1273C18.6153 8.58898 20.4785 7.02239 21.8702 5.06063C22.0801 4.76425 21.9249 4.31826 21.6258 4.14608C21.2894 3.95414 20.907 4.09245 20.6942 4.38883Z" fill="white"/>
</g>
<defs>
<clipPath id="clip0_2183_877">
<rect width="27" height="22" fill="white"/>
</clipPath>
</defs>
</svg>
