<svg width="27.478516" height="16.467773" viewBox="0 0 27.4785 16.4678" fill="none" xmlns="http://www.w3.org/2000/svg" xmlns:xlink="http://www.w3.org/1999/xlink">
	<desc>
			Created with Pixso.
	</desc>
	<defs/>
	<path d="M13.46 15.4L14.98 15.4C14.98 15.4 15.44 15.35 15.68 15.1C15.9 14.87 15.89 14.43 15.89 14.43C15.89 14.43 15.86 12.4 16.8 12.1C17.74 11.8 18.94 14.07 20.21 14.94C21.17 15.59 21.91 15.45 21.91 15.45L25.31 15.4C25.31 15.4 27.09 15.29 26.25 13.9C26.18 13.78 25.75 12.87 23.71 10.99C21.58 9.01 21.87 9.33 24.44 5.92C26 3.85 26.63 2.58 26.43 2.04C26.25 1.52 25.09 1.66 25.09 1.66L21.26 1.68C21.26 1.68 20.98 1.64 20.77 1.77C20.56 1.89 20.43 2.18 20.43 2.18C20.43 2.18 19.83 3.78 19.02 5.15C17.31 8.03 16.63 8.19 16.35 8.01C15.7 7.59 15.86 6.33 15.86 5.44C15.86 2.64 16.29 1.48 15.03 1.18C14.62 1.08 14.31 1.01 13.25 1C11.88 0.98 10.72 1 10.07 1.32C9.63 1.53 9.29 2.01 9.5 2.04C9.75 2.07 10.33 2.19 10.63 2.6C11.02 3.13 11.01 4.33 11.01 4.33C11.01 4.33 11.24 7.61 10.49 8.02C9.97 8.3 9.26 7.73 7.74 5.11C6.96 3.77 6.37 2.29 6.37 2.29C6.37 2.29 6.26 2.02 6.06 1.87C5.81 1.69 5.47 1.63 5.47 1.63L1.83 1.65C1.83 1.65 1.28 1.67 1.08 1.91C0.9 2.12 1.06 2.55 1.06 2.55C1.06 2.55 3.91 9.19 7.14 12.53C10.1 15.6 13.46 15.4 13.46 15.4Z" fill="#54483C" fill-opacity="0" fill-rule="nonzero"/>
	<path d="M13.49 16.4L15.04 16.4L15.09 16.4Q15.3 16.37 15.54 16.3Q16.08 16.13 16.41 15.78Q16.42 15.77 16.43 15.76Q16.75 15.41 16.85 14.86Q16.89 14.62 16.89 14.41Q16.88 14.33 16.89 14.17Q16.91 13.85 16.97 13.58Q17.02 13.35 17.08 13.19Q17.08 13.19 17.08 13.2Q17.25 13.33 17.49 13.59Q17.65 13.76 18 14.15Q18.49 14.72 18.75 14.99Q19.23 15.48 19.65 15.76Q20.44 16.3 21.27 16.43Q21.55 16.47 21.81 16.46Q21.91 16.46 21.98 16.45L25.35 16.4L25.37 16.4Q25.55 16.39 25.78 16.34Q26.25 16.24 26.6 16.03Q26.89 15.87 27.08 15.63Q27.23 15.46 27.32 15.26Q27.39 15.11 27.43 14.95Q27.45 14.87 27.46 14.78Q27.54 14.12 27.11 13.39Q27.11 13.39 27.1 13.38Q26.41 12.11 24.39 10.25L24.33 10.19Q23.92 9.81 23.76 9.66Q23.52 9.43 23.4 9.29Q23.34 9.21 23.3 9.16Q23.34 9.06 23.45 8.89Q23.57 8.7 23.81 8.39Q23.96 8.18 24.36 7.67Q24.9 6.97 25.24 6.53Q26.45 4.92 26.99 3.86Q27.29 3.27 27.4 2.82Q27.55 2.18 27.37 1.69Q27.33 1.57 27.26 1.46Q27.16 1.29 27 1.14Q26.81 0.96 26.55 0.85Q26.22 0.7 25.79 0.66Q25.53 0.63 25.23 0.64Q25.13 0.65 25.04 0.66L21.31 0.68Q21.18 0.67 21.03 0.68Q20.62 0.7 20.3 0.88Q20.28 0.9 20.26 0.91Q19.94 1.1 19.7 1.46Q19.59 1.61 19.52 1.76L19.51 1.79L19.5 1.82Q19.35 2.2 19.11 2.75Q18.63 3.84 18.16 4.64Q17.58 5.62 17.12 6.24Q16.97 6.43 16.85 6.59Q16.85 6.55 16.85 6.51Q16.84 6.32 16.86 5.92Q16.86 5.59 16.86 5.44Q16.86 4.81 16.91 3.8Q16.94 3.02 16.93 2.7Q16.93 2.1 16.83 1.7Q16.7 1.2 16.39 0.84Q16.34 0.79 16.28 0.73Q15.89 0.35 15.27 0.2Q14.84 0.1 14.5 0.06Q14.04 0.01 13.26 0Q11.99 -0.02 11.31 0.04Q10.25 0.12 9.63 0.42Q9.36 0.55 9.12 0.75Q8.9 0.93 8.75 1.14Q8.51 1.45 8.45 1.76Q8.41 2 8.46 2.21Q8.5 2.37 8.59 2.53Q8.66 2.64 8.76 2.73Q8.85 2.83 8.97 2.89Q9.04 2.93 9.12 2.96Q9.24 3.01 9.37 3.03Q9.53 3.05 9.67 3.1Q9.79 3.15 9.83 3.2Q9.86 3.23 9.9 3.37Q9.95 3.55 9.98 3.79Q10.01 4.09 10.01 4.32L10.01 4.32L10.01 4.36L10.01 4.4Q10.03 4.58 10.04 4.88Q10.05 5.47 10.03 5.98Q10.01 6.39 9.97 6.7Q9.44 6.05 8.6 4.61Q8.14 3.82 7.67 2.79Q7.44 2.27 7.3 1.92Q7.24 1.77 7.14 1.62Q6.93 1.27 6.65 1.06Q6.36 0.85 5.97 0.73Q5.78 0.67 5.63 0.65L5.54 0.63L1.82 0.65Q1.57 0.66 1.32 0.71Q0.68 0.85 0.33 1.24Q0.32 1.25 0.31 1.26Q0.25 1.34 0.2 1.42Q0.05 1.66 0.01 1.96Q-0.02 2.19 0.01 2.44Q0.05 2.69 0.13 2.9L0.13 2.92L0.14 2.95Q0.33 3.38 0.65 4.07Q1.3 5.44 2.01 6.76Q3.01 8.62 4 10.11Q5.25 12.01 6.42 13.23Q7.54 14.39 8.88 15.15L8.89 15.15Q9.74 15.63 10.66 15.94Q10.9 16.02 11.15 16.08Q11.99 16.32 12.81 16.38Q13.22 16.41 13.49 16.4ZM13.46 15.4L14.98 15.4C14.98 15.4 15.44 15.35 15.68 15.1C15.9 14.87 15.89 14.43 15.89 14.43C15.89 14.43 15.86 12.4 16.8 12.1C17.37 11.92 18.03 12.68 18.75 13.5C19.22 14.03 19.71 14.59 20.21 14.94C21.17 15.59 21.91 15.45 21.91 15.45L25.31 15.4C25.31 15.4 27.09 15.29 26.25 13.9C26.18 13.78 25.75 12.87 23.71 10.99C22.81 10.15 22.34 9.73 22.3 9.26C22.24 8.76 22.67 8.21 23.57 7.06C23.82 6.73 24.11 6.36 24.44 5.92C26 3.85 26.63 2.58 26.43 2.04C26.25 1.52 25.09 1.66 25.09 1.66L21.26 1.68C21.26 1.68 20.98 1.64 20.77 1.77C20.56 1.89 20.43 2.18 20.43 2.18C20.43 2.18 19.83 3.78 19.02 5.15C17.31 8.03 16.63 8.19 16.35 8.01C15.81 7.66 15.83 6.72 15.86 5.89C15.86 5.74 15.86 5.58 15.86 5.44C15.86 4.79 15.89 4.24 15.91 3.76C15.97 2.15 16 1.41 15.03 1.18C14.62 1.08 14.31 1.01 13.25 1C12.05 0.98 11.01 1 10.33 1.21C10.27 1.24 10.2 1.26 10.14 1.29C10.12 1.3 10.09 1.31 10.07 1.32C9.63 1.53 9.29 2.01 9.5 2.04C9.69 2.06 10.05 2.13 10.35 2.33C10.35 2.34 10.35 2.34 10.35 2.34C10.46 2.41 10.55 2.5 10.63 2.6C11.02 3.13 11.01 4.33 11.01 4.33C11.01 4.33 11.24 7.61 10.49 8.02C9.97 8.3 9.26 7.73 7.74 5.11C6.96 3.77 6.37 2.29 6.37 2.29C6.37 2.29 6.26 2.02 6.06 1.87C5.81 1.69 5.47 1.63 5.47 1.63L1.83 1.65C1.83 1.65 1.28 1.67 1.08 1.91C0.9 2.12 1.06 2.55 1.06 2.55C1.06 2.55 3.91 9.19 7.14 12.53C10.1 15.6 13.46 15.4 13.46 15.4ZM9.63 1.04Q9.63 1.04 9.63 1.04Q9.63 1.04 9.63 1.04Z" fill="#E31E25" fill-opacity="1.000000" fill-rule="evenodd"/>
</svg>
