<svg width="30.665039" height="18.277344" viewBox="0 0 30.665 18.2773" fill="none" xmlns="http://www.w3.org/2000/svg" xmlns:xlink="http://www.w3.org/1999/xlink">
	<desc>
			Created with Pixso.
	</desc>
	<defs/>
	<path id="Vector" d="M15.02 17.2L16.73 17.2C16.73 17.2 17.25 17.15 17.51 16.86C17.76 16.6 17.75 16.11 17.75 16.11C17.75 16.11 17.71 13.82 18.78 13.49C19.83 13.16 21.18 15.7 22.62 16.68C23.7 17.42 24.52 17.26 24.52 17.26L28.35 17.2C28.35 17.2 30.35 17.08 29.4 15.51C29.33 15.38 28.85 14.35 26.56 12.24C24.16 10.02 24.48 10.38 27.37 6.54C29.13 4.2 29.84 2.78 29.61 2.17C29.4 1.59 28.11 1.74 28.11 1.74L23.8 1.76C23.8 1.76 23.48 1.72 23.24 1.86C23.01 2 22.86 2.32 22.86 2.32C22.86 2.32 22.18 4.13 21.27 5.67C19.35 8.91 18.58 9.09 18.27 8.88C17.54 8.41 17.72 7 17.72 5.99C17.72 2.85 18.2 1.54 16.79 1.2C16.32 1.08 15.98 1.01 14.78 1C13.24 0.98 11.94 1 11.2 1.36C10.71 1.6 10.33 2.14 10.56 2.16C10.85 2.2 11.49 2.34 11.84 2.8C12.28 3.4 12.26 4.75 12.26 4.75C12.26 4.75 12.52 8.44 11.67 8.9C11.09 9.22 10.29 8.57 8.58 5.63C7.71 4.12 7.04 2.45 7.04 2.45C7.04 2.45 6.92 2.15 6.69 1.98C6.41 1.77 6.03 1.71 6.03 1.71L1.93 1.74C1.93 1.74 1.31 1.75 1.09 2.02C0.89 2.26 1.07 2.75 1.07 2.75C1.07 2.75 4.28 10.21 7.91 13.98C11.24 17.43 15.02 17.2 15.02 17.2Z" fill="#54483C" fill-opacity="0" fill-rule="nonzero"/>
	<path id="Vector" d="M15.05 18.2L16.79 18.2L16.84 18.2Q17.07 18.17 17.32 18.1Q17.9 17.92 18.25 17.54L18.25 17.54Q18.6 17.17 18.71 16.57Q18.75 16.32 18.75 16.09Q18.75 15.99 18.76 15.81Q18.78 15.44 18.84 15.13Q18.92 14.74 19.04 14.53Q19.04 14.53 19.04 14.52Q19.1 14.57 19.17 14.62Q19.37 14.79 19.65 15.08Q19.83 15.28 20.22 15.72Q20.77 16.35 21.06 16.65Q21.59 17.19 22.05 17.5Q22.92 18.1 23.82 18.23Q24.13 18.28 24.41 18.27Q24.51 18.27 24.6 18.26L28.39 18.2L28.41 18.2Q28.61 18.19 28.85 18.14Q29.36 18.03 29.74 17.81Q30.04 17.63 30.25 17.38Q30.41 17.2 30.5 16.99Q30.57 16.83 30.61 16.67Q30.63 16.59 30.64 16.51Q30.74 15.8 30.27 15.01Q30.26 15 30.26 14.99Q29.49 13.58 27.23 11.5Q27.21 11.48 27.17 11.44Q26.7 11.01 26.52 10.83Q26.25 10.57 26.11 10.41Q26 10.27 25.96 10.19Q25.96 10.17 25.97 10.15Q26.02 10.02 26.15 9.81Q26.29 9.59 26.56 9.24Q26.73 9 27.18 8.43Q27.79 7.64 28.17 7.14Q29.53 5.34 30.13 4.16Q30.46 3.52 30.58 3.02Q30.74 2.34 30.55 1.83Q30.51 1.7 30.44 1.59Q30.33 1.4 30.17 1.25Q29.97 1.06 29.7 0.94Q29.35 0.79 28.88 0.74Q28.59 0.71 28.27 0.73Q28.15 0.73 28.05 0.74L23.85 0.76Q23.71 0.75 23.55 0.76Q23.1 0.79 22.75 0.99Q22.74 1 22.73 1Q22.4 1.2 22.14 1.58Q22.03 1.75 21.96 1.9L21.94 1.94L21.93 1.97Q21.77 2.4 21.49 3.02Q20.95 4.25 20.41 5.16Q19.76 6.26 19.23 6.97Q18.95 7.35 18.72 7.6Q18.71 7.43 18.7 7.2Q18.7 6.99 18.71 6.54Q18.72 6.17 18.72 5.99Q18.72 5.29 18.77 4.14Q18.81 3.27 18.8 2.91Q18.79 2.26 18.69 1.83Q18.54 1.24 18.17 0.85Q17.75 0.4 17.02 0.23Q16.55 0.11 16.17 0.07Q15.66 0.01 14.79 0Q13.37 -0.02 12.61 0.04Q11.44 0.13 10.76 0.46Q10.48 0.6 10.22 0.82Q9.98 1.01 9.81 1.24Q9.57 1.56 9.51 1.88Q9.47 2.12 9.52 2.34Q9.56 2.5 9.65 2.65Q9.72 2.77 9.81 2.86Q9.91 2.95 10.03 3.02Q10.1 3.06 10.17 3.09Q10.3 3.14 10.44 3.16Q10.63 3.18 10.8 3.25Q10.98 3.32 11.03 3.4Q11.08 3.46 11.13 3.64Q11.19 3.84 11.22 4.12Q11.27 4.47 11.26 4.73L11.26 4.77L11.27 4.82Q11.28 5.03 11.29 5.36Q11.31 6.03 11.29 6.61Q11.26 7.27 11.18 7.7Q10.54 7 9.45 5.13Q8.93 4.23 8.4 3.06Q8.13 2.48 7.97 2.08L7.97 2.08Q7.91 1.92 7.81 1.76Q7.58 1.39 7.28 1.17Q6.97 0.95 6.55 0.81Q6.35 0.75 6.19 0.73L6.1 0.71L1.92 0.74Q1.66 0.74 1.39 0.8Q0.69 0.95 0.32 1.38L0.32 1.38Q0.26 1.45 0.21 1.53Q0.06 1.78 0.01 2.1Q-0.02 2.34 0.01 2.61Q0.05 2.87 0.13 3.1L0.13 3.1L0.14 3.12L0.15 3.14Q0.36 3.62 0.72 4.4Q1.45 5.94 2.25 7.42Q3.37 9.51 4.47 11.19Q5.88 13.31 7.19 14.67Q8.44 15.96 9.93 16.81Q10.89 17.35 11.91 17.69Q12.18 17.78 12.45 17.85Q13.39 18.11 14.3 18.18Q14.75 18.22 15.05 18.2ZM15.02 17.2L16.73 17.2C16.73 17.2 17.25 17.15 17.51 16.86C17.76 16.6 17.75 16.11 17.75 16.11C17.75 16.11 17.71 13.82 18.78 13.49C19.42 13.29 20.16 14.14 20.97 15.06C21.5 15.66 22.05 16.29 22.62 16.68C23.7 17.42 24.52 17.26 24.52 17.26L28.35 17.2C28.35 17.2 30.35 17.08 29.4 15.51C29.33 15.38 28.85 14.35 26.56 12.24C25.54 11.3 25.02 10.82 24.96 10.29C24.9 9.73 25.38 9.11 26.39 7.82C26.67 7.45 27 7.03 27.37 6.54C29.13 4.2 29.84 2.78 29.61 2.17C29.4 1.59 28.11 1.74 28.11 1.74L23.8 1.76C23.8 1.76 23.48 1.72 23.24 1.86C23.01 2 22.86 2.32 22.86 2.32C22.86 2.32 22.18 4.13 21.27 5.67C19.35 8.91 18.58 9.09 18.27 8.88C17.66 8.49 17.69 7.43 17.71 6.51C17.72 6.33 17.72 6.15 17.72 5.99C17.72 5.27 17.75 4.64 17.77 4.1C17.84 2.3 17.88 1.46 16.79 1.2C16.32 1.08 15.98 1.01 14.78 1C13.32 0.98 12.07 1 11.31 1.31C11.28 1.33 11.24 1.34 11.2 1.36C11.19 1.37 11.17 1.37 11.16 1.38C10.69 1.63 10.34 2.14 10.56 2.16C10.75 2.19 11.1 2.26 11.41 2.44L11.41 2.44C11.57 2.53 11.72 2.65 11.84 2.8C12.28 3.4 12.26 4.75 12.26 4.75C12.26 4.75 12.52 8.44 11.67 8.9C11.09 9.22 10.29 8.57 8.58 5.63C7.71 4.12 7.04 2.45 7.04 2.45C7.04 2.45 6.92 2.15 6.69 1.98C6.41 1.77 6.03 1.71 6.03 1.71L1.93 1.74C1.93 1.74 1.31 1.75 1.09 2.02C0.89 2.26 1.07 2.75 1.07 2.75C1.07 2.75 4.28 10.21 7.91 13.98C11.24 17.43 15.02 17.2 15.02 17.2ZM10.7 1.17Q10.69 1.17 10.69 1.17Q10.69 1.17 10.7 1.17Z" fill="#FFFFFF" fill-opacity="1.000000" fill-rule="evenodd"/>
</svg>
