<svg width="32" height="19" viewBox="0 0 32 19" fill="none" xmlns="http://www.w3.org/2000/svg">
<path d="M28.9643 1.7468C28.9754 1.7457 28.9893 1.7444 29.0056 1.74301C29.0475 1.73944 29.1061 1.73522 29.1765 1.73223C29.3157 1.72632 29.509 1.72487 29.7147 1.74502C29.9153 1.76467 30.1568 1.80747 30.3772 1.90574C30.5984 2.0044 30.8518 2.18466 30.9674 2.50381C31.0712 2.78912 31.0471 3.10524 30.9742 3.40479C30.8994 3.71238 30.759 4.05905 30.5652 4.44024C30.1771 5.20344 29.5402 6.17099 28.6521 7.34807M28.9643 1.7468L27.7792 12.3749L27.4397 12.742L27.779 12.3747L27.7464 12.3445C27.1489 11.792 26.7688 11.4405 26.5427 11.1488C26.3351 10.8811 26.3209 10.7457 26.3509 10.6047C26.3961 10.3918 26.5647 10.0892 26.9704 9.54022C27.1686 9.27201 27.3965 8.97883 27.6645 8.63398C27.9455 8.2724 28.2707 7.85402 28.6521 7.34807M28.9643 1.7468L24.7074 1.77122M28.9643 1.7468L24.7074 1.77122M28.6521 7.34807L28.253 7.04692L28.6522 7.34791C28.6522 7.34796 28.6521 7.34801 28.6521 7.34807ZM1.95531 3.25268C1.49592 3.45006 1.49595 3.45014 1.496 3.45025L1.49615 3.45061L1.49668 3.45183L1.49861 3.45631L1.50595 3.47327L1.53431 3.53825C1.55922 3.59505 1.596 3.67834 1.64399 3.78541C1.73996 3.99952 1.88078 4.30879 2.06099 4.69135C2.4213 5.45622 2.93971 6.5154 3.57263 7.69355C4.83252 10.0388 6.56815 12.8976 8.43236 14.8316L8.43255 14.8318C10.171 16.6335 12.0325 17.4801 13.4648 17.8745C14.1801 18.0714 14.7881 18.1555 15.2212 18.1903C15.4378 18.2077 15.611 18.2128 15.7325 18.2134C15.7932 18.2136 15.8411 18.2128 15.8749 18.2118C15.8919 18.2113 15.9054 18.2108 15.9152 18.2104L15.9161 18.2103H17.6167H17.6442L17.6714 18.2073L17.6167 17.7103C17.6714 18.2073 17.6716 18.2073 17.6717 18.2073L17.6719 18.2073L17.6725 18.2072L17.6737 18.2071L17.6768 18.2067L17.6852 18.2057L17.7108 18.2022C17.7314 18.1992 17.7594 18.1948 17.793 18.1886C17.8596 18.1762 17.9515 18.156 18.0547 18.1244C18.2457 18.0658 18.5403 17.9488 18.7616 17.7122C18.9839 17.4765 19.0651 17.1731 19.099 16.9868C19.1175 16.8849 19.1258 16.7948 19.1295 16.7297C19.1314 16.6969 19.1322 16.6696 19.1325 16.6493L19.1327 16.6241L19.1326 16.6157L19.1326 16.6132L19.1326 16.6131L19.1326 16.6129L19.1326 16.6125L19.1326 16.6113L19.1326 16.6099L19.1325 16.5947C19.1325 16.5806 19.1327 16.5588 19.1332 16.5303C19.1342 16.4732 19.1368 16.3897 19.143 16.2879C19.1555 16.0827 19.1825 15.8107 19.2388 15.5334C19.296 15.2518 19.3786 14.9904 19.49 14.7918C19.6014 14.5933 19.7141 14.5042 19.816 14.4721L19.8162 14.4721C19.8542 14.4601 19.9661 14.4487 20.2207 14.6264C20.4669 14.7982 20.7464 15.0779 21.0692 15.4348C21.192 15.5706 21.3264 15.7239 21.4656 15.8826C21.6665 16.1117 21.8776 16.3523 22.0782 16.5684C22.4296 16.9469 22.8127 17.3223 23.2174 17.599L23.2178 17.5993C23.8242 18.0132 24.3718 18.184 24.7829 18.2469C24.9873 18.2782 25.1558 18.2825 25.2786 18.2779C25.34 18.2756 25.39 18.2711 25.4274 18.2666C25.4343 18.2658 25.4407 18.265 25.4467 18.2642L29.2414 18.2103L29.2532 18.2101L29.2651 18.2094L29.2343 17.7103C29.2651 18.2094 29.2653 18.2094 29.2655 18.2094L29.266 18.2093L29.267 18.2093L29.2697 18.2091L29.2773 18.2085L29.301 18.2066C29.3203 18.2049 29.3467 18.2022 29.3789 18.1983C29.443 18.1905 29.5317 18.1774 29.6344 18.156C29.8333 18.1145 30.1141 18.0357 30.372 17.8826C30.6323 17.728 30.9142 17.4688 31.01 17.0587C31.1048 16.6536 30.9906 16.2169 30.717 15.7639L9.89948 5.88363C9.47333 5.14927 9.09597 4.37206 8.82406 3.7752C8.68844 3.47751 8.57983 3.22638 8.5053 3.05014C8.46805 2.96205 8.43936 2.89276 8.4201 2.84582L8.39843 2.79263L8.39311 2.77945L8.39188 2.77636L8.39162 2.77571L8.3916 2.77567L8.39161 2.77566L8.39017 2.77212L7.92722 2.96101C8.39017 2.77212 8.39013 2.77202 8.39008 2.77192L8.39 2.77171L8.38982 2.77127L8.38942 2.77029L8.38846 2.76798L8.38594 2.76199L8.37845 2.74475C8.37238 2.73105 8.36407 2.71293 8.35357 2.69135C8.33273 2.6485 8.30238 2.59031 8.2626 2.52511C8.18751 2.40202 8.05908 2.22092 7.87094 2.08186L7.87095 2.08185L7.86912 2.08051C7.66767 1.93303 7.44336 1.84687 7.28733 1.79829C7.20606 1.77299 7.13538 1.75549 7.08395 1.7441C7.05809 1.73838 7.03672 1.73412 7.02086 1.73113L7.00123 1.72757L6.99468 1.72646L6.99226 1.72606L6.99127 1.7259L6.99082 1.72583L6.99062 1.72579C6.99052 1.72578 6.99042 1.72576 6.9113 2.21946L6.99042 1.72576L6.94961 1.71922L6.90829 1.71947L2.81001 1.74419L2.81001 1.74407L2.79898 1.74438L2.81303 2.24418C2.79898 1.74438 2.79887 1.74438 2.79876 1.74438L2.79853 1.74439L2.79803 1.7444L2.79686 1.74444L2.79381 1.74454L2.78505 1.74488L2.75739 1.74627C2.73474 1.74758 2.70365 1.74974 2.66624 1.75328C2.59223 1.76028 2.48935 1.77306 2.37576 1.79659C2.26386 1.81977 2.12968 1.85577 1.99807 1.91347C1.87044 1.96942 1.7148 2.05891 1.59117 2.20517C1.34186 2.49863 1.37034 2.87671 1.39347 3.04622C1.40784 3.15156 1.43038 3.24376 1.44874 3.30866C1.45808 3.34167 1.46675 3.36905 1.47346 3.38921L1.48203 3.41416L1.485 3.42242L1.48611 3.42545L1.48656 3.42668L1.48676 3.42723L1.48686 3.42748C1.4869 3.4276 1.48695 3.42772 1.95531 3.25268ZM1.95531 3.25268L1.49592 3.45006L1.49116 3.439L1.48695 3.42772L1.95531 3.25268ZM24.7074 1.77122C24.6932 1.76998 24.6759 1.7687 24.656 1.76767C24.6071 1.76515 24.54 1.76396 24.4622 1.76902C24.3156 1.77854 24.0872 1.81271 23.8722 1.94031L23.8716 1.94069C23.6619 2.06565 23.5171 2.25201 23.436 2.37166C23.3919 2.43678 23.3578 2.49572 23.3343 2.53901C23.3224 2.56086 23.313 2.57924 23.3061 2.59308L23.2976 2.61044L23.2948 2.61642L23.2937 2.61869L23.2932 2.61964L23.2931 2.62007L23.293 2.62027C23.2929 2.62037 23.2929 2.62047 23.7468 2.83L23.2929 2.62047L23.2853 2.63678L23.279 2.65353L24.7074 1.77122ZM21.7246 5.9223L21.7247 5.92224C22.1654 5.17737 22.5543 4.36055 22.8345 3.7251C22.9742 3.40846 23.0858 3.1392 23.1624 2.94958C23.2006 2.85481 23.2301 2.78005 23.2498 2.72935L23.272 2.67188L23.2775 2.65765L23.2787 2.65433L23.279 2.65363L23.279 2.6536L21.7246 5.9223ZM21.7246 5.9223C20.7715 7.53376 20.1312 8.33329 19.7189 8.70371C19.5456 8.85942 19.4361 8.91757 19.3829 8.93809C19.252 8.82391 19.1458 8.57709 19.1059 8.10331C19.0774 7.76625 19.0872 7.4224 19.0973 7.0672C19.1026 6.88087 19.1079 6.69142 19.1079 6.49818C19.1079 5.78557 19.1329 5.16886 19.1548 4.62874C19.1567 4.5821 19.1585 4.53602 19.1604 4.49051C19.183 3.92735 19.2006 3.42801 19.1696 3.01252C19.1388 2.5991 19.0564 2.19746 18.8255 1.86797C18.5825 1.5212 18.2255 1.32358 17.7912 1.21936C17.2798 1.09553 16.8979 1.01783 15.6669 1.00513M21.7246 5.9223L11.8657 1.41901M11.8657 1.41901L11.866 1.41886C12.3212 1.19738 12.908 1.09688 13.5335 1.04744C14.1682 0.997284 14.8984 0.996488 15.6669 1.00513M11.8657 1.41901C11.5447 1.57551 11.2673 1.8213 11.0962 2.04646M11.8657 1.41901L11.0962 2.04646M15.6669 1.00513C15.667 1.00514 15.6671 1.00514 15.6672 1.00514L15.6615 1.50511M15.6669 1.00513C15.6668 1.00513 15.6668 1.00513 15.6667 1.00513L15.6615 1.50511M15.6615 1.50511C14.1241 1.4878 12.8214 1.51005 12.0848 1.86846L15.6615 1.50511ZM11.0962 2.04646C11.0186 2.14863 10.9193 2.30245 10.8875 2.47865M11.0962 2.04646L10.8875 2.47865M10.8875 2.47865C10.871 2.56971 10.8608 2.73523 10.9609 2.89919M10.8875 2.47865L10.9609 2.89919M10.9609 2.89919C11.0722 3.08157 11.25 3.1507 11.3838 3.16778M10.9609 2.89919L11.3838 3.16778M11.3838 3.16778L11.4471 2.6718L11.3838 3.16778Z" stroke="white"/>
</svg>
