<svg width="51" height="51" viewBox="0 0 51 51" fill="none" xmlns="http://www.w3.org/2000/svg">
<g clip-path="url(#clip0_2183_3054)">
<path d="M39.3895 12.0598C39.3773 11.9296 39.3102 11.7904 39.1871 11.6404C39.0645 11.4913 38.9868 11.417 38.9552 11.4194C38.9231 11.4209 38.863 11.3208 38.7731 11.1164C38.6839 10.9129 38.6007 10.7744 38.523 10.7002C38.446 10.6268 38.3714 10.5851 38.3004 10.5768C38.2294 10.5685 38.1596 10.5074 38.091 10.3933C38.023 10.2801 37.9397 10.1837 37.8426 10.1046C37.7456 10.0254 37.6611 9.982 37.5901 9.97374C37.5191 9.96548 37.4622 9.91309 37.4215 9.81789C37.3808 9.72268 37.2966 9.65232 37.171 9.60813C37.0454 9.56394 36.9483 9.48479 36.8803 9.37161C36.8123 9.25844 36.7113 9.17274 36.5778 9.11545C36.4444 9.05817 36.3407 8.98294 36.2685 8.89015C36.1956 8.79642 36.1306 8.75787 36.0748 8.77486C36.0466 8.78289 36.0184 8.79092 35.9907 8.79988C35.9821 8.7707 35.9725 8.74209 35.9639 8.71291C35.9457 8.65511 35.9111 8.62499 35.8595 8.6216C35.8079 8.61821 35.7668 8.59201 35.7364 8.5415C35.7061 8.49099 35.6394 8.46235 35.5362 8.45557C35.4331 8.44879 35.3759 8.42333 35.3656 8.37863C35.3552 8.33393 35.32 8.30287 35.2612 8.28732C35.2023 8.27177 35.1567 8.23809 35.1269 8.18851C35.0971 8.13894 34.8712 8.02514 34.4505 7.84896C34.0297 7.67279 33.7403 7.52081 33.5813 7.39356C33.4223 7.26632 33.2654 7.19762 33.1098 7.18801C32.9551 7.17784 32.8585 7.1417 32.8209 7.07904C32.7832 7.01637 32.7415 6.98923 32.6978 6.99894C32.6541 7.00864 32.5963 6.98225 32.5271 6.922C32.4573 6.86081 32.388 6.84264 32.3201 6.86692C32.2515 6.89027 32.1854 6.86256 32.1199 6.78099C32.0549 6.70036 31.9665 6.65039 31.8555 6.63051C31.745 6.61157 31.6583 6.57712 31.5964 6.52903C31.5345 6.48094 31.4041 6.4562 31.2042 6.45536C31.0058 6.45489 30.8771 6.42024 30.8194 6.35176C30.7618 6.28329 30.6772 6.23987 30.5668 6.22092C30.4564 6.20199 30.3463 6.15612 30.2361 6.08482C30.1269 6.01295 30.026 5.9972 29.9333 6.03512C29.8411 6.07398 29.7734 6.07133 29.731 6.02811C29.6885 5.98489 29.5758 5.94949 29.3938 5.92136C29.2118 5.89322 29.0797 5.85295 28.9978 5.79906C28.9159 5.74516 28.8604 5.73522 28.8318 5.77018C28.8033 5.80514 28.7084 5.78452 28.5467 5.70983C28.3859 5.63458 28.194 5.60476 27.9699 5.61849C27.7473 5.6326 27.5627 5.61494 27.4162 5.5655C27.2706 5.5155 26.8641 5.52803 26.1968 5.60309C25.5296 5.67815 24.9685 5.81797 24.5127 6.0231C24.0569 6.22823 23.8134 6.37455 23.7831 6.46149C23.7528 6.54844 23.6805 6.63518 23.5665 6.72022C23.4525 6.80526 23.3923 6.88471 23.3863 6.95708C23.3803 7.02945 23.3201 7.10891 23.2061 7.19395C23.0921 7.27898 23.0366 7.38107 23.0415 7.49907C23.0458 7.61614 23.0202 7.72572 22.9657 7.82725C22.9111 7.92877 22.8669 8.04956 22.8348 8.18849C22.8027 8.32743 22.798 8.41682 22.8205 8.45423C22.843 8.49164 22.8352 8.54849 22.7971 8.62235C22.7589 8.6962 22.7616 8.75567 22.8041 8.79889C22.8466 8.84211 22.8536 8.8812 22.8245 8.91522C22.796 8.95018 22.8024 8.98833 22.8449 9.03155C22.8873 9.07477 22.8977 9.11947 22.8765 9.16659C22.8553 9.21371 22.863 9.26888 22.9007 9.33154C22.9198 9.36334 22.9383 9.39421 22.9574 9.42601C22.9453 9.4333 22.9332 9.44059 22.921 9.44787C22.9089 9.45516 22.8968 9.46245 22.8847 9.46974C22.9127 9.50379 22.9423 9.53821 22.9713 9.5717C23.029 9.64017 23.045 9.70694 23.0186 9.775C22.9925 9.84157 23.0372 9.94332 23.1525 10.0803C23.2678 10.2172 23.3132 10.3605 23.2881 10.5131C23.2639 10.6651 23.3107 10.8254 23.429 10.9949C23.5474 11.1644 23.592 11.2661 23.5629 11.3002C23.5344 11.3351 23.5213 11.4105 23.5262 11.5285C23.5305 11.6455 23.5716 11.7838 23.6505 11.9426C23.7295 12.1014 23.7476 12.2013 23.7069 12.2435C23.6663 12.2858 23.6606 12.3312 23.6909 12.3817C23.7212 12.4322 23.7161 12.4786 23.6749 12.5199C23.6337 12.5612 23.6099 12.6188 23.6038 12.6912C23.5978 12.7635 23.6056 12.8187 23.6286 12.8571C23.6398 12.8758 23.6511 12.8945 23.6629 12.9141C23.675 12.9068 23.6871 12.8995 23.6993 12.8923C23.7114 12.885 23.7235 12.8777 23.7357 12.8704C23.743 12.8825 23.7508 12.8956 23.7581 12.9078C23.766 12.9209 23.7733 12.9331 23.7806 12.9452C23.758 12.9499 23.7364 12.954 23.7143 12.9596C23.6917 12.9642 23.6701 12.9684 23.648 12.974C23.6737 13.0018 23.6978 13.0293 23.7235 13.0572C23.7491 13.0851 23.7732 13.1126 23.7989 13.1405C23.7681 13.159 23.7382 13.1769 23.7075 13.1954C23.6767 13.2139 23.6468 13.2318 23.616 13.2503C23.6576 13.3196 23.6992 13.3888 23.7408 13.458C23.824 13.5964 23.8158 13.7477 23.7149 13.9115C23.6148 14.0747 23.5741 14.2965 23.5927 14.5768C23.6123 14.8566 23.5972 15.0808 23.5482 15.2465C23.4997 15.4131 23.4897 15.5909 23.5196 15.778C23.55 15.9659 23.537 16.1367 23.4797 16.2907C23.4234 16.4442 23.3971 16.6498 23.4014 16.9043C23.4058 17.1588 23.3829 17.3279 23.3326 17.409C23.2823 17.4901 23.2729 17.5569 23.3033 17.6074C23.3336 17.6579 23.3332 17.7269 23.3029 17.8139C23.2726 17.9008 23.2826 17.9724 23.3324 18.0278C23.358 18.0557 23.3822 18.0832 23.4078 18.1111C23.3731 18.123 23.3399 18.1354 23.3052 18.1473C23.2366 18.1707 23.1912 18.2323 23.1678 18.3329C23.1448 18.4321 23.1467 18.5175 23.1722 18.5875C23.1977 18.6574 23.1965 18.7104 23.1674 18.7444C23.1389 18.7793 23.1349 18.8149 23.1579 18.8532C23.1804 18.8906 23.1799 18.9596 23.1575 19.0597C23.1345 19.1588 23.0986 19.2237 23.0501 19.2528C23.0016 19.282 22.9859 19.3257 23.0042 19.3835C23.0224 19.4413 23.0016 19.5314 22.9422 19.6524C22.8829 19.7734 22.8456 19.9333 22.8323 20.1309C22.8185 20.3276 22.7929 20.4372 22.7565 20.4591C22.7201 20.481 22.6937 20.5744 22.6759 20.7392C22.659 20.9034 22.6317 20.9974 22.5953 21.0193C22.5589 21.0412 22.5464 21.1175 22.5586 21.2476C22.5707 21.3778 22.5565 21.464 22.5153 21.5053C22.4746 21.5476 22.4468 21.6661 22.4326 21.8643C22.4188 22.0611 22.3745 22.1819 22.3017 22.2256C22.229 22.2693 22.0773 22.2663 21.8486 22.2153C21.6198 22.1643 21.4763 22.1474 21.42 22.1635C21.3641 22.1805 21.3103 22.1606 21.2605 22.1052C21.2107 22.0499 21.1319 22.0285 21.0239 22.0412C20.9166 22.0548 20.8095 22.0414 20.7024 22.0027C20.5962 21.9634 20.5066 21.9663 20.4338 22.01C20.361 22.0538 20.2835 22.0494 20.2016 21.9955C20.1197 21.9416 19.9932 21.9234 19.8212 21.9415C19.6501 21.959 19.5526 21.9489 19.5296 21.9105C19.5183 21.8918 19.5071 21.8731 19.4953 21.8535C19.4524 21.8792 19.4104 21.9045 19.3675 21.9303C19.2826 21.9813 19.169 21.9719 19.0282 21.9024C18.8874 21.833 18.7223 21.8202 18.5333 21.865C18.3444 21.9098 18.1338 21.9166 17.8994 21.8856C17.6658 21.8541 17.4262 21.8695 17.1814 21.9313C16.9366 21.9931 16.7971 22.0082 16.762 21.9771C16.7274 21.947 16.6329 21.9694 16.4795 22.0438C16.3266 22.1191 16.2411 22.1437 16.2259 22.1185C16.2108 22.0932 16.0916 22.0872 15.868 22.1018C15.6454 22.1159 15.4751 22.1495 15.3571 22.2026C15.2406 22.256 15.1768 22.302 15.1678 22.3418C15.1629 22.3613 15.1587 22.3817 15.1539 22.4011C15.1465 22.3889 15.1387 22.3758 15.1314 22.3637C15.1235 22.3506 15.1162 22.3384 15.1089 22.3263C15.066 22.3521 15.024 22.3773 14.9811 22.4031C14.8962 22.4541 14.8299 22.4685 14.7826 22.4447C14.7358 22.4219 14.6755 22.4314 14.6018 22.4756C14.5291 22.5194 14.4411 22.5379 14.3371 22.5316C14.2339 22.5249 14.1781 22.5418 14.1681 22.5822C14.159 22.6221 14.0984 22.6585 13.9852 22.6921C13.873 22.7252 13.8137 22.7786 13.8071 22.8501C13.8011 22.9224 13.746 22.9555 13.6429 22.9487C13.5398 22.9419 13.4726 22.9823 13.4423 23.0693C13.412 23.1562 13.3803 23.2007 13.3488 23.2031C13.3327 23.2039 13.3167 23.2046 13.3012 23.2063C13.3094 23.1924 13.3181 23.1795 13.3263 23.1657C13.3345 23.1519 13.3433 23.139 13.3515 23.1251C13.3371 23.116 13.3241 23.1072 13.3103 23.0989C13.283 23.081 13.2184 23.1109 13.1162 23.1901C13.0144 23.2679 12.8914 23.3252 12.7467 23.3612C12.6029 23.3967 12.5236 23.4444 12.5097 23.5036C12.4958 23.5629 12.4122 23.6309 12.2588 23.7053C12.1054 23.7797 12.0274 23.8443 12.0256 23.8963C12.0239 23.9483 11.9806 24.001 11.8957 24.052C11.8108 24.1031 11.7605 24.1842 11.7445 24.297C11.7293 24.4092 11.6627 24.518 11.5435 24.624C11.4252 24.7294 11.3805 24.8072 11.4109 24.8577C11.4412 24.9082 11.4304 25 11.3789 25.1341C11.3274 25.2681 11.3139 25.3704 11.3394 25.4404C11.365 25.5103 11.3638 25.5632 11.3347 25.5973C11.3062 25.6322 11.2862 25.7639 11.2745 25.9937C11.2637 26.223 11.2806 26.3758 11.3261 26.4515C11.3716 26.5273 11.3777 26.5924 11.3443 26.6468C11.311 26.7012 11.3145 26.7767 11.3552 26.8719C11.3959 26.9672 11.4067 27.0549 11.3885 27.1345C11.3704 27.2142 11.4012 27.3077 11.4813 27.4136C11.5614 27.5195 11.5909 27.596 11.5697 27.6431C11.5485 27.6902 11.5619 27.7675 11.6104 27.8758C11.659 27.9841 11.7062 28.1874 11.7531 28.4851C11.7999 28.7829 11.8649 29.0009 11.9481 29.1394C12.0313 29.2778 12.0694 29.3835 12.0634 29.4558C12.0573 29.5282 12.0924 29.6014 12.1695 29.6747C12.2466 29.748 12.2752 29.8085 12.2531 29.8561C12.2319 29.9033 12.2588 29.9902 12.3346 30.1165C12.4105 30.2428 12.4681 30.3112 12.5076 30.3219C12.547 30.3326 12.5968 30.388 12.6575 30.489C12.7182 30.59 12.7437 30.66 12.7346 30.6998C12.7255 30.7396 12.752 30.7836 12.8144 30.8326C12.8763 30.8807 12.9363 30.9656 12.9921 31.0861C13.048 31.2065 13.0961 31.2718 13.1356 31.2825C13.175 31.2932 13.231 31.3716 13.302 31.5173C13.3731 31.663 13.442 31.7502 13.5087 31.7788C13.5755 31.8075 13.6821 31.9152 13.8272 32.1018C13.9729 32.2892 14.0677 32.3773 14.112 32.3686C14.1557 32.3589 14.2134 32.3853 14.2826 32.4455C14.3524 32.5067 14.4057 32.5256 14.4421 32.5037C14.4607 32.4925 14.4785 32.4819 14.4971 32.4707C14.5123 32.4959 14.5275 32.5212 14.5427 32.5464C14.5578 32.5717 14.573 32.5969 14.5882 32.6222C14.5639 32.6368 14.5397 32.6513 14.5154 32.6659C14.4911 32.6805 14.4669 32.6951 14.4426 32.7096C14.4499 32.7218 14.4578 32.7349 14.4651 32.7471C14.4803 32.7723 14.5695 32.8384 14.7333 32.9462C14.8971 33.054 14.9782 33.1338 14.9764 33.1858C14.9746 33.2378 15.021 33.2876 15.1151 33.3342C15.2091 33.3808 15.3118 33.482 15.4223 33.6384C15.5328 33.7948 15.6443 33.8831 15.7547 33.9021C15.8651 33.921 16.0121 34.0135 16.1941 34.1791C16.3762 34.3446 16.5009 34.4148 16.5703 34.3909C16.6051 34.379 16.6388 34.3676 16.673 34.3547C16.6618 34.336 16.6505 34.3173 16.6387 34.2976C16.6275 34.2789 16.6162 34.2602 16.6044 34.2406C16.6166 34.2333 16.6287 34.226 16.6408 34.2187C16.653 34.2114 16.6651 34.2041 16.6772 34.1969C16.6994 34.2612 16.721 34.3246 16.7431 34.3889C16.7869 34.5167 16.8827 34.6488 17.0296 34.7833C17.1765 34.9178 17.3814 35.0518 17.6435 35.1858C17.9057 35.3199 18.0795 35.3873 18.1626 35.3882C18.2457 35.3892 18.3035 35.4156 18.3339 35.4661C18.3642 35.5166 18.4253 35.5486 18.5163 35.5627C18.6073 35.5768 18.6853 35.6241 18.7503 35.7048C18.8152 35.7854 18.9093 35.832 19.0324 35.8446C19.1549 35.8562 19.2321 35.8875 19.2625 35.938C19.2928 35.9885 19.4635 36.0655 19.7747 36.1713C20.0863 36.2756 20.2634 36.3231 20.3077 36.3144C20.3519 36.3056 20.3788 36.2806 20.3879 36.2407C20.3921 36.2204 20.397 36.2009 20.4018 36.1815C20.4243 36.2189 20.4473 36.2572 20.4698 36.2946C20.5153 36.3704 20.566 36.3998 20.6218 36.3828C20.6782 36.3667 20.7193 36.3929 20.7449 36.4629C20.7704 36.5328 20.8315 36.5648 20.9273 36.5595C21.0226 36.5531 21.082 36.5696 21.1045 36.607C21.127 36.6445 21.1743 36.6682 21.2453 36.6765C21.2808 36.6806 21.3163 36.6847 21.3523 36.6898C21.3206 36.7343 21.2899 36.7782 21.2588 36.8237C21.1964 36.9121 21.1505 37.0428 21.122 37.2152C21.093 37.3867 21.0389 37.5312 20.9601 37.6473C20.8812 37.7634 20.8028 37.9646 20.7271 38.2507C20.6504 38.5374 20.5188 38.8825 20.3312 39.2868C20.1436 39.691 20.0315 39.9735 19.9946 40.1319C19.9582 40.2912 19.9101 40.4055 19.8525 40.4744C19.7949 40.5434 19.7744 40.6066 19.7926 40.6644C19.8109 40.7222 19.7627 40.8619 19.6484 41.0859C19.5336 41.3089 19.4297 41.6031 19.3348 41.9694C19.24 42.3357 19.1551 42.5662 19.0811 42.6629C19.0065 42.7586 18.968 42.8594 18.9641 42.9649C18.9611 43.0698 18.913 43.2094 18.8199 43.3863C18.7272 43.5617 18.677 43.7128 18.6683 43.8377C18.6605 43.9621 18.5392 44.2844 18.3044 44.8023C18.0696 45.3202 17.9483 45.6426 17.9405 45.767C17.9327 45.8913 17.9094 46.0174 17.8691 46.1447C17.8297 46.2715 17.7834 46.3592 17.7296 46.4092C17.6763 46.4578 17.6304 46.5885 17.5929 46.8008C17.5553 47.013 17.4776 47.1183 17.3629 47.1197C17.2477 47.1202 17.1345 47.0418 17.024 46.8854C16.913 46.7281 16.8303 46.6327 16.7756 46.5968C16.721 46.5608 16.6751 46.5541 16.6387 46.5759C16.62 46.5871 16.6023 46.5978 16.5836 46.609C16.5662 46.5673 16.5503 46.526 16.5343 46.4846C16.5009 46.4016 16.5027 46.3496 16.5391 46.3277C16.5577 46.3165 16.5755 46.3059 16.5941 46.2947C16.5829 46.2759 16.5711 46.2563 16.5604 46.2385C16.5492 46.2198 16.5374 46.2002 16.5261 46.1815C16.5075 46.1927 16.4897 46.2033 16.4711 46.2146C16.4524 46.2258 16.4347 46.2364 16.416 46.2476C16.3995 46.2054 16.3826 46.1646 16.3667 46.1232C16.3333 46.0402 16.2882 46.0074 16.2318 46.0235C16.176 46.0405 16.1011 46.0257 16.0055 45.9787C15.9115 45.9321 15.8244 45.9246 15.7434 45.9567C15.6628 45.9873 15.6047 45.9879 15.5701 45.9577C15.5523 45.943 15.5355 45.9276 15.5177 45.9128C15.486 45.9573 15.4553 46.0013 15.4236 46.0458C15.3618 46.1351 15.3357 46.2017 15.3461 46.2464C15.357 46.292 15.3955 46.3287 15.4623 46.3573C15.529 46.386 15.5892 46.444 15.6421 46.5319C15.6949 46.6198 15.7176 46.6851 15.708 46.724C15.6989 46.7638 15.7275 46.7988 15.7946 46.826C15.8614 46.8546 15.9034 46.8548 15.9198 46.8271C15.9286 46.8142 15.9367 46.8004 15.9449 46.7866C15.9485 46.82 15.9516 46.8526 15.9541 46.8842C15.9571 46.9167 15.9602 46.9493 15.9632 46.9818C15.9787 46.9801 15.9953 46.9803 16.0108 46.9787C16.0424 46.9762 16.1336 47.0857 16.2817 47.3047C16.4298 47.5238 16.6145 47.6789 16.8347 47.7707C17.0543 47.8615 17.1692 47.9554 17.1777 48.0521C17.1869 48.1497 17.2436 48.2442 17.3486 48.3364C17.453 48.4277 17.5454 48.4843 17.6242 48.5056C17.7031 48.527 17.7944 48.5141 17.9002 48.4683C18.0046 48.4222 18.0909 48.4136 18.1576 48.4423C18.2243 48.4709 18.2864 48.4769 18.3422 48.4599C18.3704 48.4519 18.3986 48.4439 18.4262 48.4349C18.4309 48.4575 18.4371 48.4805 18.4418 48.5032C18.4522 48.5479 18.5028 48.5773 18.5938 48.5913C18.6854 48.6063 18.7733 48.6554 18.8582 48.7418C18.9432 48.8282 19.0519 48.8571 19.1841 48.8299C19.3158 48.8017 19.4406 48.8298 19.5577 48.9147C19.6742 48.9988 19.7751 49.0145 19.86 48.9635C19.9449 48.9125 20.0168 48.8948 20.0771 48.9107C20.1065 48.9172 20.136 48.9262 20.1659 48.9337C20.1474 48.9029 20.1277 48.8701 20.1092 48.8393C20.0709 48.7757 20.0671 48.727 20.0962 48.693C20.1247 48.658 20.133 48.6021 20.1196 48.5249C20.1132 48.4867 20.1057 48.4467 20.0992 48.4086C20.0711 48.4166 20.0429 48.4246 20.0152 48.4336C19.9588 48.4496 19.9042 48.4137 19.8514 48.3258C19.7986 48.2379 19.7367 48.1898 19.6651 48.1806C19.5936 48.1714 19.5468 48.1485 19.5243 48.1111C19.5013 48.0728 19.4553 48.066 19.3874 48.0903C19.3189 48.1137 19.2189 48.0719 19.0866 47.9617C18.9544 47.8515 18.8409 47.8 18.7447 47.8069C18.6489 47.8123 18.5722 47.7819 18.5146 47.7135C18.4569 47.645 18.4704 47.5427 18.554 47.4071C18.6371 47.2707 18.678 47.1443 18.6731 47.0263C18.6688 46.9092 18.6847 46.8385 18.7211 46.8166C18.7575 46.7948 18.7878 46.7078 18.8135 46.5562C18.8377 46.4041 18.8924 46.2605 18.9754 46.1241C19.0585 45.9876 19.1304 45.7903 19.1907 45.5313C19.251 45.2723 19.3305 45.0603 19.4311 44.898C19.5311 44.7348 19.5992 44.531 19.6351 44.2866C19.6702 44.0427 19.7448 43.835 19.8569 43.6645C19.9691 43.494 20.0146 43.3902 19.9922 43.3528C19.9691 43.3145 19.9896 43.2513 20.052 43.1628C20.1138 43.0735 20.1603 42.9437 20.1888 42.7713C20.2178 42.5998 20.2563 42.499 20.3057 42.4693C20.3542 42.4402 20.4214 42.2624 20.5077 41.9368C20.5934 41.6103 20.6784 41.3798 20.7614 41.2433C20.8451 41.1078 20.8779 41.0103 20.8597 40.9525C20.8415 40.8947 20.8571 40.851 20.9056 40.8218C20.9542 40.7927 20.9926 40.6919 21.0226 40.5199C21.0516 40.3484 21.0959 40.2276 21.1535 40.1586C21.2111 40.0896 21.2561 39.9849 21.2882 39.846C21.3202 39.7071 21.3653 39.6024 21.4229 39.5334C21.4805 39.4644 21.5133 39.367 21.5212 39.2426C21.529 39.1183 21.5831 38.9737 21.684 38.8099C21.7841 38.6467 21.8331 38.5065 21.8283 38.3885C21.8239 38.2714 21.8568 38.174 21.9266 38.0977C21.9963 38.0215 22.0501 37.9038 22.0864 37.7445C22.1227 37.5852 22.1895 37.4343 22.2857 37.29C22.3814 37.1472 22.4481 37.0638 22.4845 37.0419C22.5209 37.0201 22.5708 37.0334 22.6327 37.0814C22.6946 37.1295 22.7406 37.1363 22.7697 37.1023C22.7844 37.0845 22.7988 37.0682 22.8135 37.0505C22.8494 37.0976 22.8863 37.1442 22.9232 37.1908C22.996 37.2845 23.0684 37.3352 23.1394 37.3435C23.2104 37.3518 23.2628 37.3292 23.2962 37.2747C23.3126 37.2471 23.3295 37.2203 23.3465 37.1936C23.3755 37.2271 23.4041 37.2621 23.4331 37.2956C23.4908 37.364 23.5375 37.3869 23.5739 37.365C23.6103 37.3432 23.7004 37.3832 23.8442 37.4852C23.988 37.5872 24.1602 37.6391 24.3585 37.6395C24.5569 37.64 24.6961 37.6773 24.7732 37.7506C24.8503 37.824 24.9765 37.8691 25.1515 37.8836C25.3257 37.8986 25.4544 37.9333 25.5363 37.9872C25.6182 38.0411 25.7447 38.0593 25.9167 38.0412C26.0878 38.0237 26.2192 38.0479 26.3089 38.1149C26.3981 38.1809 26.4832 38.2253 26.5615 38.2457C26.6404 38.2671 26.7041 38.2632 26.7526 38.234C26.8011 38.2049 26.8471 38.2116 26.8895 38.2548C26.932 38.2981 26.9819 38.3114 27.0377 38.2944C27.0941 38.2783 27.133 38.2881 27.156 38.3264C27.1785 38.3638 27.2379 38.3803 27.3338 38.3749C27.429 38.3686 27.495 38.3812 27.5296 38.4113C27.5642 38.4414 27.6236 38.4579 27.7067 38.4589C27.7899 38.4598 27.8584 38.4365 27.9121 38.3864C27.9395 38.3623 27.9654 38.3378 27.9923 38.3128C28.0035 38.3315 28.0153 38.3511 28.0266 38.3698C28.0496 38.4082 28.0924 38.4245 28.1561 38.4206C28.2198 38.4167 28.2717 38.3931 28.3129 38.3518C28.3338 38.3316 28.3535 38.3096 28.3744 38.2894C28.3823 38.3025 28.3896 38.3146 28.3975 38.3277C28.4126 38.353 28.5271 38.3364 28.7388 38.2766C28.952 38.2173 29.1045 38.211 29.1985 38.2576C29.2925 38.3042 29.4069 38.3297 29.5425 38.3335C29.6778 38.3388 29.7756 38.322 29.8363 38.2856C29.8969 38.2491 30.0265 38.2578 30.2237 38.3112C30.4203 38.3636 30.5526 38.3618 30.6175 38.305C30.6829 38.2491 30.75 38.2508 30.8198 38.312C30.8895 38.3732 30.9727 38.3742 31.0706 38.3153C31.1677 38.257 31.2384 38.2501 31.2804 38.2924C31.3228 38.3356 31.3938 38.3439 31.4939 38.3181C31.594 38.2923 31.6876 38.2959 31.7743 38.3304C31.8605 38.3639 31.9501 38.361 32.0429 38.323C32.1351 38.2842 32.2109 38.273 32.2713 38.2889C32.3307 38.3054 32.3987 38.2811 32.4772 38.2174C32.5162 38.185 32.5542 38.1533 32.5938 38.1219C32.605 38.1406 32.6163 38.1593 32.6275 38.178C32.6505 38.2163 32.712 38.2214 32.8121 38.1957C32.9127 38.1708 32.9708 38.1703 32.9854 38.1946C32.9927 38.2068 33.0006 38.2199 33.0079 38.232C33.0596 38.1933 33.1098 38.1543 33.1614 38.1156C33.2627 38.0369 33.4136 37.9984 33.6129 37.9983C33.8113 37.9988 33.9373 37.974 33.9906 37.9254C34.0434 37.8759 34.1362 37.8379 34.2688 37.8092C34.401 37.782 34.5079 37.7253 34.5898 37.6418C34.6716 37.5582 34.7856 37.4986 34.9294 37.4632C35.0737 37.4286 35.1652 37.3737 35.2028 37.2989C35.2404 37.2241 35.301 37.1877 35.3856 37.189C35.4693 37.1909 35.5303 37.1276 35.5706 37.0002C35.61 36.8734 35.7153 36.7592 35.8861 36.6566C36.0568 36.554 36.14 36.4875 36.1369 36.455C36.1339 36.4224 36.2223 36.3349 36.4012 36.1931C36.581 36.0507 36.6889 35.9005 36.7252 35.7412C36.7621 35.5828 36.8504 35.4254 36.9898 35.2729C37.1293 35.1203 37.1896 34.9988 37.1683 34.9085C37.1471 34.8181 37.1596 34.7418 37.2051 34.6802C37.2506 34.6185 37.2713 34.5283 37.2676 34.4122C37.2633 34.2951 37.3021 34.1674 37.3866 34.0313C37.4697 33.8948 37.4801 33.76 37.4164 33.6264C37.3532 33.4938 37.3444 33.3693 37.3926 33.255C37.4393 33.1404 37.4527 33.0381 37.4315 32.9478C37.4102 32.8574 37.4158 32.742 37.4484 32.604C37.4805 32.4651 37.4683 32.2229 37.4105 31.8795C37.3533 31.5371 37.2639 31.2636 37.1431 31.0626C37.0217 30.8605 36.9698 30.7466 36.9862 30.7189C37.0026 30.6913 36.981 30.6279 36.9203 30.5268C36.8596 30.4258 36.8098 30.3705 36.7704 30.3598C36.7309 30.3491 36.6854 30.2733 36.6338 30.1325C36.5822 29.9917 36.5254 29.8972 36.4635 29.8491C36.4016 29.801 36.3802 29.7527 36.4029 29.706C36.4241 29.6589 36.3595 29.5513 36.2096 29.3843C36.0597 29.2172 35.9565 29.0729 35.9006 28.9525C35.8447 28.832 35.791 28.7701 35.7395 28.7667C35.6879 28.7633 35.6198 28.6922 35.5366 28.5538C35.4534 28.4154 35.3395 28.2954 35.1951 28.1925C35.0513 28.0905 34.9519 27.9949 34.8991 27.907C34.8462 27.8191 34.7531 27.7465 34.6196 27.6892C34.4862 27.6319 34.3479 27.5266 34.2053 27.3716C34.0627 27.2167 33.9662 27.1385 33.9146 27.1351C33.8631 27.1317 33.8124 27.1023 33.7626 27.047C33.7128 26.9916 33.6551 26.9652 33.5914 26.9691C33.5277 26.973 33.4747 26.9272 33.434 26.8319C33.3933 26.7367 33.3509 26.6935 33.3066 26.7023C33.2624 26.7111 33.1965 26.6564 33.1091 26.5384C33.0211 26.4194 32.9414 26.3565 32.8698 26.3473C32.7988 26.3391 32.7025 26.276 32.583 26.1594C32.4634 26.0429 32.4798 25.6982 32.6327 25.1264C32.7856 24.5546 32.8882 24.2434 32.9415 24.1948C32.9949 24.1462 33.029 23.9959 33.0446 23.7472C33.0597 23.4975 33.0966 23.3646 33.1524 23.3476C33.2088 23.3315 33.2343 23.264 33.23 23.147C33.2257 23.0299 33.2681 22.9357 33.3582 22.8637C33.4479 22.7932 33.4968 22.7371 33.5068 22.6968C33.5159 22.6569 33.4999 22.6156 33.4574 22.5724C33.4149 22.5292 33.4007 22.4779 33.4146 22.4186C33.4285 22.3594 33.5099 22.2328 33.6594 22.0399C33.8088 21.8469 33.8846 21.6983 33.8876 21.5934C33.8906 21.4885 33.9265 21.4236 33.995 21.4002C34.0635 21.3769 34.0921 21.3419 34.0817 21.2972C34.0713 21.2525 34.1206 21.1274 34.2303 20.9253C34.3394 20.7223 34.3892 20.5981 34.3789 20.5534C34.3685 20.5087 34.4084 20.4504 34.4976 20.379C34.5867 20.3076 34.6272 20.2502 34.6163 20.2046C34.6059 20.1599 34.65 20.0812 34.7488 19.9709C34.8477 19.8606 34.8805 19.7632 34.8472 19.6801C34.8138 19.5971 34.8398 19.5305 34.9247 19.4795C35.0096 19.4285 35.0851 19.3322 35.1487 19.1908C35.2124 19.0495 35.2709 18.9799 35.3224 18.9833C35.349 18.9852 35.374 18.9867 35.4 18.9877C35.4009 18.9617 35.4017 18.9357 35.4021 18.9088C35.4039 18.8568 35.4389 18.8179 35.5074 18.7945C35.5759 18.7712 35.6483 18.6845 35.724 18.5358C35.7998 18.3872 35.9653 18.1935 36.2197 17.9554C36.4741 17.7172 36.6056 17.5516 36.6165 17.4598C36.6274 17.368 36.6754 17.2958 36.7603 17.2448C36.8452 17.1938 36.9012 17.1347 36.9266 17.0672C36.9527 17.0006 36.9565 16.9372 36.9388 16.8804C36.9292 16.8518 36.9206 16.8226 36.912 16.7934C36.9402 16.7854 36.9683 16.7773 36.996 16.7684C37.0518 16.7514 37.0792 16.7273 37.0762 16.6947C37.0731 16.6622 37.1983 16.5959 37.4522 16.4942C37.7061 16.3926 37.8504 16.3581 37.885 16.3882C37.9018 16.4036 37.9196 16.4183 37.9379 16.4341C37.9527 16.4163 37.9665 16.3991 37.9818 16.3823C38.0108 16.3483 38.0611 16.3346 38.1321 16.3429C38.203 16.3511 38.262 16.3246 38.3075 16.2629C38.353 16.2012 38.4283 16.147 38.5332 16.1018C38.6376 16.0557 38.6918 16.0065 38.6936 15.9545C38.6954 15.9025 38.7278 15.8741 38.7915 15.8702C38.8552 15.8663 38.8981 15.8405 38.9194 15.7934C38.9406 15.7463 39.0126 15.6865 39.1339 15.6136C39.2551 15.5407 39.3153 15.4613 39.3141 15.3768C39.3128 15.2922 39.366 15.1737 39.4739 15.0236C39.5818 14.8734 39.6546 14.7177 39.6909 14.5584C39.7272 14.3991 39.7359 14.2487 39.7168 14.1049C39.6973 13.9626 39.7076 13.8698 39.7488 13.8285C39.7895 13.7863 39.7978 13.7303 39.7723 13.6604C39.7467 13.5904 39.7488 13.5115 39.7791 13.4246C39.8094 13.3376 39.8026 13.2565 39.757 13.1807C39.7115 13.1049 39.7015 13.0333 39.7275 12.9667C39.7536 12.9002 39.7419 12.8385 39.6915 12.7821C39.6417 12.7268 39.6213 12.6525 39.633 12.5601C39.6439 12.4683 39.6083 12.3942 39.5269 12.3413C39.448 12.2818 39.4017 12.1899 39.3895 12.0598ZM23.7844 7.95142C23.7995 7.83922 23.8541 7.7377 23.949 7.64629C24.043 7.55545 24.0829 7.49712 24.0677 7.47187C24.0604 7.45971 24.0525 7.44661 24.0452 7.43445C24.1245 7.3868 24.2038 7.33915 24.2822 7.29206C24.4398 7.19732 24.5612 7.14987 24.6449 7.15178C24.6869 7.15199 24.728 7.15275 24.7706 7.15389C24.7593 7.13519 24.7481 7.11648 24.7363 7.09684C24.7251 7.07813 24.7138 7.05943 24.702 7.03978C24.7207 7.02857 24.7384 7.01792 24.7571 7.00671C24.7757 6.9955 24.7934 6.98484 24.8121 6.97363C24.8126 7.01665 24.8134 7.05816 24.8138 7.10118C24.8143 7.14419 24.8151 7.18571 24.8155 7.22872C24.7955 7.22291 24.7761 7.21804 24.7567 7.21317C24.7172 7.20249 24.6704 7.22173 24.6176 7.27127C24.5908 7.29631 24.5643 7.31986 24.5374 7.34491C24.5799 7.38813 24.6224 7.43135 24.6649 7.47457C24.7498 7.56101 24.8044 7.59694 24.8287 7.58237C24.8408 7.57508 24.8529 7.56779 24.8651 7.5605C24.8786 7.59567 24.8906 7.63046 24.9032 7.66618C24.9167 7.70135 24.9287 7.73614 24.9413 7.77186C24.9721 7.75336 25.0019 7.73542 25.0327 7.71692C25.0635 7.69842 25.0933 7.68048 25.1241 7.66198C25.1232 7.68797 25.1224 7.71397 25.122 7.7409C25.1203 7.79289 25.0878 7.8213 25.0241 7.8252C24.9926 7.82761 24.9604 7.82909 24.9289 7.83151C24.9336 7.85414 24.9392 7.87621 24.9445 7.89978C24.9548 7.94448 25.0117 7.99687 25.1131 8.05564C25.2144 8.11441 25.2981 8.11631 25.3639 8.05893C25.3964 8.03052 25.4288 8.00211 25.4618 7.97463C25.4688 8.01372 25.4752 8.05188 25.4822 8.09097C25.4956 8.16821 25.4823 8.22842 25.4411 8.26973C25.4004 8.31198 25.3921 8.36789 25.4176 8.43784C25.4432 8.5078 25.5594 8.61875 25.7657 8.76976C25.9719 8.92077 26.0915 9.03734 26.1249 9.12039C26.1583 9.20344 26.2822 9.36956 26.498 9.6167C26.7129 9.86441 26.833 9.98191 26.8573 9.96733C26.8816 9.95275 26.9266 9.9855 26.9922 10.0671C27.0571 10.1477 27.1295 10.1984 27.2084 10.2198C27.2872 10.2411 27.3643 10.3145 27.4402 10.4407C27.5161 10.567 27.5763 10.625 27.62 10.6153C27.6637 10.6056 27.714 10.6619 27.7699 10.7824C27.8258 10.9028 27.8739 10.9681 27.9133 10.9788C27.9528 10.9895 28.0681 11.1264 28.2587 11.3887C28.4493 11.651 28.5846 11.7937 28.6635 11.8151C28.7423 11.8364 28.874 11.9457 29.0591 12.1439C29.2442 12.342 29.3745 12.4342 29.4504 12.4231C29.489 12.4177 29.5262 12.4119 29.5643 12.4055C29.5479 12.4332 29.5309 12.4599 29.514 12.4867C29.497 12.5134 29.4806 12.5411 29.4637 12.5678C29.5048 12.594 29.5456 12.6217 29.5867 12.6479C29.6686 12.7018 29.7415 12.7955 29.8052 12.9291C29.869 13.0626 29.9869 13.1891 30.158 13.3091C30.3291 13.429 30.5129 13.6101 30.7083 13.853C30.8062 13.9736 30.9037 14.0958 31.0022 14.2174C30.9835 14.2286 30.9658 14.2393 30.9471 14.2505C30.9108 14.2723 30.8601 14.243 30.7946 14.1614C30.7296 14.0808 30.6645 14.0422 30.6008 14.0461C30.5372 14.05 30.4358 13.9912 30.2963 13.8689C30.1567 13.7465 30.0748 13.6926 30.0505 13.7072C30.0263 13.7217 29.9548 13.645 29.8364 13.4755C29.7181 13.3061 29.6241 13.1919 29.5543 13.1308C29.4845 13.0696 29.4144 13.0353 29.3429 13.0261C29.2719 13.0179 29.1925 12.9281 29.1063 12.7571C29.0201 12.5861 28.9512 12.4989 28.8996 12.4956C28.8481 12.4922 28.8095 12.4555 28.784 12.3855C28.7585 12.3156 28.716 12.2724 28.6566 12.2559C28.5977 12.2403 28.5521 12.2066 28.5223 12.1571C28.4925 12.1075 28.4508 12.0804 28.3992 12.077C28.3477 12.0736 28.3108 12.027 28.2895 11.9367C28.2683 11.8463 28.2138 11.7683 28.1231 11.7019C28.0338 11.6358 27.9566 11.6046 27.893 11.6085C27.8293 11.6124 27.7842 11.5796 27.7581 11.5087C27.7326 11.4388 27.6757 11.3864 27.5895 11.3529C27.5034 11.3194 27.4586 11.2597 27.4573 11.1751C27.4569 11.1321 27.4561 11.0906 27.4556 11.0476C27.4235 11.0491 27.3919 11.0515 27.3604 11.0539C27.2967 11.0578 27.2108 10.9974 27.1034 10.8735C26.996 10.7497 26.9084 10.6737 26.8417 10.6451C26.7749 10.6164 26.7139 10.5423 26.6575 10.4209C26.6016 10.3005 26.4342 10.0917 26.1569 9.79496C25.8796 9.49823 25.6863 9.31393 25.5761 9.24263C25.4669 9.17077 25.3742 9.14118 25.2984 9.15236C25.2597 9.15777 25.2226 9.16355 25.1845 9.16989C25.1887 9.14951 25.1936 9.13006 25.1984 9.11061C25.2075 9.07078 25.1915 9.02945 25.1491 8.98623C25.1273 8.9649 25.1066 8.94301 25.0849 8.92168C25.1114 8.92356 25.1364 8.92507 25.1624 8.92602C25.1884 8.92696 25.214 8.92941 25.2399 8.93035C25.2174 8.89294 25.1944 8.85459 25.1719 8.81718C25.1264 8.74142 25.0414 8.65498 24.9176 8.5588C24.7932 8.46168 24.6858 8.33783 24.5947 8.18631C24.5037 8.03479 24.4283 7.95153 24.3694 7.93598C24.3105 7.92043 24.1944 7.94694 24.0206 8.01699C23.9335 8.05154 23.8478 8.08647 23.7612 8.12197C23.7693 8.06362 23.777 8.00678 23.7844 7.95142ZM28.1448 9.62905C28.1825 9.69172 28.2419 9.7082 28.322 9.67663C28.4026 9.646 28.4536 9.64846 28.4767 9.6868C28.4992 9.72422 28.533 9.73826 28.5773 9.72949C28.5998 9.72482 28.6209 9.71978 28.6435 9.71512C28.6193 9.72969 28.595 9.74427 28.5708 9.75885C28.5465 9.77342 28.5222 9.788 28.498 9.80257C28.5171 9.83437 28.5356 9.86524 28.5548 9.89704C28.5924 9.95971 28.6033 10.0053 28.5864 10.0321C28.5694 10.0588 28.5925 10.0972 28.6544 10.1453C28.7163 10.1933 28.7433 10.2382 28.7336 10.2771C28.7245 10.317 28.7444 10.3648 28.7942 10.4202C28.844 10.4756 28.9294 10.493 29.0495 10.4731C29.1092 10.4626 29.169 10.4522 29.2293 10.4427C29.2427 10.5199 29.2566 10.5981 29.27 10.6753C29.2834 10.7526 29.2974 10.8308 29.3108 10.908C29.2787 10.9095 29.2471 10.9119 29.2155 10.9143C29.1518 10.9182 29.0604 10.8357 28.9426 10.6671C28.8242 10.4977 28.7159 10.3998 28.6176 10.3736C28.5193 10.3474 28.3896 10.2012 28.2306 9.93654C28.1507 9.80373 28.0715 9.67185 27.9917 9.53903C28.0078 9.53829 28.0233 9.53661 28.0393 9.53587C28.072 9.53532 28.1072 9.56639 28.1448 9.62905ZM26.8816 7.60911C26.8582 7.59769 26.8348 7.58628 26.8109 7.57392C26.823 7.56664 26.8352 7.55935 26.8473 7.55206C26.8716 7.53748 26.8767 7.49111 26.8633 7.41386C26.8563 7.37477 26.8499 7.33662 26.8429 7.29753C26.8689 7.29848 26.8945 7.30092 26.9205 7.30187C26.947 7.30375 26.972 7.30526 26.998 7.30621C26.9833 7.32397 26.9695 7.34116 26.9542 7.35799C26.9257 7.39295 26.9173 7.44886 26.9307 7.5261C26.9377 7.56519 26.9441 7.60335 26.9511 7.64243C26.9283 7.63195 26.9049 7.62053 26.8816 7.60911ZM29.906 11.402C29.977 11.4102 30.0234 11.46 30.0447 11.5504C30.066 11.6407 30.1083 11.726 30.1739 11.8076C30.2388 11.8882 30.2626 11.9426 30.2462 11.9703C30.238 11.9841 30.2293 11.997 30.2211 12.0109C30.202 11.9791 30.1834 11.9482 30.1643 11.9164C30.1267 11.8537 30.085 11.8266 30.0413 11.8363C30.0187 11.841 29.9976 11.846 29.975 11.8507C29.9646 11.806 29.9537 11.7603 29.9434 11.7156C29.933 11.6709 29.9221 11.6253 29.9118 11.5806C29.8892 11.5853 29.8681 11.5903 29.8455 11.595C29.8012 11.6037 29.7744 11.6288 29.7653 11.6686C29.761 11.689 29.7562 11.7084 29.7514 11.7279C29.7245 11.6409 29.6967 11.5545 29.6698 11.4675C29.643 11.3805 29.6152 11.2941 29.5883 11.2072C29.6143 11.2081 29.6399 11.2106 29.6659 11.2115C29.7174 11.2149 29.752 11.245 29.7702 11.3028C29.7894 11.36 29.8345 11.3928 29.906 11.402ZM30.6561 12.4432C30.573 12.4423 30.4928 12.3785 30.4169 12.2522C30.3792 12.1895 30.341 12.1259 30.3034 12.0633C30.3744 12.0715 30.4459 12.0807 30.5169 12.089C30.6595 12.1064 30.7783 12.2069 30.8718 12.39C30.919 12.4813 30.9659 12.5741 31.0122 12.666C30.9896 12.6706 30.9679 12.6747 30.9459 12.6803C30.9022 12.69 30.8631 12.6524 30.8303 12.5703C30.7978 12.4867 30.7398 12.4452 30.6561 12.4432ZM23.9354 9.27629C23.9129 9.10142 23.9232 9.00867 23.9674 8.9999C24.0117 8.99113 24.1105 9.0858 24.2634 9.28542C24.3402 9.38569 24.4164 9.48503 24.4931 9.5853C24.5079 9.56754 24.5217 9.55034 24.537 9.53352C24.5517 9.51576 24.5655 9.49856 24.5808 9.48174C24.6193 9.51841 24.6578 9.55508 24.697 9.59269C24.774 9.66603 24.8434 9.6842 24.904 9.64776C24.9348 9.62926 24.9647 9.61133 24.9954 9.59283C25.0033 9.60592 25.0106 9.61808 25.0179 9.63024C25.0252 9.6424 25.0331 9.65549 25.0404 9.66765C25.0162 9.68223 24.9919 9.6968 24.9676 9.71138C24.9191 9.74053 24.9339 9.83479 25.0128 9.9936C25.0917 10.1524 25.1501 10.237 25.1905 10.2471C25.2299 10.2578 25.2556 10.2856 25.2659 10.3303C25.2763 10.375 25.318 10.4022 25.389 10.4104C25.4599 10.4187 25.5449 10.5051 25.6433 10.6688C25.7416 10.8325 25.817 10.9158 25.8686 10.9191C25.9202 10.9225 25.9886 10.9667 26.0736 11.0531C26.1585 11.1396 26.2252 11.1682 26.2738 11.1391C26.298 11.1245 26.3223 11.1099 26.3465 11.0953C26.3544 11.1084 26.3617 11.1206 26.369 11.1328C26.3763 11.1449 26.3842 11.158 26.3915 11.1702C26.3633 11.1782 26.3357 11.1872 26.3075 11.1952C26.2793 11.2032 26.2511 11.2112 26.2235 11.2202C26.2426 11.252 26.2611 11.2829 26.2802 11.3147C26.3179 11.3773 26.3877 11.4385 26.4896 11.4982C26.5909 11.557 26.6517 11.6159 26.6694 11.6728C26.6876 11.7306 26.7773 11.8397 26.9402 11.9989C27.1023 12.1587 27.2076 12.224 27.2561 12.1948C27.2803 12.1803 27.3046 12.1657 27.3288 12.1511C27.348 12.1829 27.3665 12.2138 27.3856 12.2456C27.4047 12.2774 27.4233 12.3082 27.4424 12.34C27.4237 12.3512 27.406 12.3619 27.3873 12.3731C27.3509 12.395 27.2833 12.3923 27.185 12.3661C27.0867 12.3399 26.9736 12.2615 26.8452 12.1324C26.7178 12.0027 26.6142 11.9275 26.5359 11.9071C26.457 11.8857 26.379 11.8384 26.3019 11.765C26.2248 11.6917 26.1637 11.6597 26.1195 11.6684C26.0752 11.6772 26.038 11.6575 26.0076 11.607C25.9773 11.5565 25.8954 11.5026 25.7619 11.4453C25.6284 11.3881 25.5159 11.3106 25.423 11.2111C25.3308 11.1125 25.2232 11.0307 25.1019 10.9661C24.9805 10.9015 24.7617 10.6473 24.4449 10.2024C24.1279 9.76149 23.9579 9.45116 23.9354 9.27629ZM17.3044 33.6176C17.3759 33.6943 17.447 33.7725 17.5185 33.8492C17.4959 33.8539 17.4748 33.8589 17.4522 33.8636C17.4079 33.8723 17.35 33.8308 17.2771 33.7371C17.2043 33.6434 17.1277 33.613 17.047 33.6437C17.0067 33.659 16.9664 33.6743 16.9266 33.6905C16.9123 33.6393 16.8981 33.588 16.8832 33.5359C16.8546 33.4334 16.7592 33.3443 16.5984 33.269C16.4377 33.1938 16.3558 33.1399 16.3527 33.1074C16.3497 33.0748 16.361 33.0514 16.3853 33.0369C16.4095 33.0223 16.4529 33.0395 16.5148 33.0876C16.5767 33.1357 16.6322 33.1456 16.6807 33.1165C16.7293 33.0873 16.7825 33.1062 16.8402 33.1747C16.8683 33.2088 16.8978 33.2432 16.9268 33.2767C16.9359 33.2369 16.945 33.197 16.9541 33.1572C16.9632 33.1174 16.9723 33.0775 16.9813 33.0377C17.0086 33.0557 17.0359 33.0736 17.0633 33.0916C17.1179 33.1275 17.1361 33.1853 17.1179 33.265C17.1003 33.3456 17.1618 33.4627 17.3044 33.6176ZM34.1681 36.9697C34.1317 36.9915 34.0658 36.979 33.9723 36.9333C33.925 36.9095 33.8782 36.8867 33.8315 36.8638C33.8679 36.842 33.9043 36.8201 33.9407 36.7983C34.0134 36.7545 34.0794 36.7671 34.1365 36.8346C34.1661 36.869 34.1941 36.9031 34.2232 36.9366C34.2054 36.9472 34.1868 36.9584 34.1681 36.9697ZM34.9467 36.3211C34.9849 36.3847 34.9198 36.4836 34.7531 36.6182C34.5854 36.7533 34.4489 36.8009 34.3428 36.7616C34.2366 36.7223 34.1868 36.6669 34.1923 36.5936C34.1958 36.5571 34.1983 36.5212 34.2018 36.4848C34.217 36.51 34.2322 36.5353 34.2473 36.5605C34.2631 36.5867 34.2783 36.612 34.2929 36.6363C34.3293 36.6144 34.3656 36.5925 34.402 36.5707C34.4384 36.5488 34.4748 36.527 34.5112 36.5051C34.5159 36.5277 34.5215 36.5498 34.5262 36.5724C34.531 36.5951 34.5372 36.6181 34.5419 36.6407C34.5783 36.6188 34.6146 36.597 34.651 36.5751C34.6874 36.5532 34.7238 36.5314 34.7602 36.5095C34.7523 36.4964 34.745 36.4843 34.7371 36.4712C34.722 36.4459 34.7432 36.3988 34.8008 36.3298C34.8293 36.2948 34.8584 36.2608 34.8869 36.2259C34.909 36.2584 34.9281 36.2902 34.9467 36.3211ZM36.5807 34.4124C36.5365 34.5587 36.4876 34.6568 36.4348 34.7064C36.3815 34.755 36.3443 34.8728 36.3226 35.0564C36.3014 35.241 36.2559 35.3447 36.1879 35.369C36.1194 35.3924 36.0366 35.4765 35.9414 35.6202C35.8462 35.764 35.7459 35.8739 35.6446 35.9526C35.5929 35.9913 35.5428 36.0304 35.4916 36.07C35.4804 36.0513 35.4686 36.0316 35.4574 36.0129C35.4349 35.9755 35.4393 35.9131 35.469 35.8252C35.4993 35.7382 35.5665 35.6304 35.6705 35.4991C35.7736 35.3684 35.8538 35.2948 35.9096 35.2778C35.966 35.2618 36.0275 35.1993 36.0951 35.0899C36.1618 34.9811 36.1979 34.8742 36.2003 34.7683C36.2033 34.6634 36.2237 34.6002 36.2601 34.5784C36.2965 34.5565 36.3056 34.5167 36.2874 34.4589C36.2787 34.4297 36.2691 34.4011 36.2605 34.3719C36.2921 34.3695 36.3242 34.368 36.3558 34.3656C36.42 34.3626 36.4584 34.3293 36.4729 34.271C36.4862 34.2108 36.5193 34.1833 36.5708 34.1867C36.5968 34.1877 36.6224 34.1901 36.6483 34.191C36.6249 34.2662 36.6028 34.3393 36.5807 34.4124ZM35.1759 16.7023C35.1426 16.7567 35.0941 16.7858 35.0304 16.7897C34.9983 16.7912 34.9667 16.7936 34.9351 16.796C34.9398 16.8187 34.9455 16.8407 34.9508 16.8643C34.9611 16.909 34.93 16.9544 34.8572 16.9982C34.7845 17.0419 34.7121 17.1286 34.6406 17.2569C34.5691 17.3852 34.4739 17.5035 34.3551 17.608C34.2368 17.7134 34.1636 17.8261 34.1364 17.9456C34.1091 18.0651 34.0523 18.1502 33.9674 18.2012C33.8825 18.2522 33.837 18.3139 33.83 18.3868C33.824 18.4592 33.7963 18.5102 33.7478 18.5394C33.6992 18.5685 33.6698 18.6295 33.659 18.7213C33.6481 18.8131 33.6243 18.8707 33.5879 18.8926C33.5515 18.9145 33.5424 18.9543 33.5607 19.0121C33.5789 19.0699 33.5472 19.1144 33.4671 19.1459C33.3865 19.1766 33.3125 19.2478 33.2458 19.3566C33.1791 19.4654 33.1267 19.6 33.0903 19.7594C33.054 19.9187 33.0028 20.0004 32.9391 20.0043C32.8754 20.0082 32.8034 20.068 32.7246 20.1841C32.6847 20.2424 32.6458 20.3002 32.6059 20.3585C32.5344 20.2818 32.4633 20.2036 32.3918 20.1269C32.2492 19.972 32.1205 19.8952 32.0044 19.8963C31.8891 19.8968 31.7786 19.92 31.6742 19.9661C31.5693 20.0113 31.5274 20.1486 31.5487 20.3763C31.57 20.6041 31.6476 20.8579 31.7824 21.1372C31.9172 21.4165 31.9661 21.6353 31.9288 21.7952C31.8925 21.9545 31.8462 22.0422 31.7894 22.0598C31.733 22.0758 31.6742 22.0603 31.6122 22.0122C31.5503 21.9641 31.5009 21.8818 31.4644 21.7662C31.428 21.6506 31.3943 21.5945 31.3621 21.596C31.3461 21.5967 31.3306 21.5984 31.3145 21.5991C31.3253 21.5748 31.3357 21.552 31.3471 21.5286C31.3683 21.4815 31.3463 21.3751 31.2795 21.209C31.2461 21.1259 31.2127 21.0429 31.1793 20.9598C31.1429 20.9817 31.1065 21.0036 31.0701 21.0254C30.9974 21.0692 30.9029 21.0916 30.7876 21.0921C30.6724 21.0926 30.6056 21.0639 30.5874 21.0061C30.5788 20.977 30.5692 20.9483 30.5606 20.9192C30.5137 20.9384 30.4683 20.958 30.4215 20.9773C30.3746 20.9965 30.3287 21.0152 30.2824 21.0354C30.2993 21.0507 30.317 21.0655 30.3354 21.0812C30.3522 21.0965 30.37 21.1113 30.3883 21.127C30.3657 21.1317 30.3441 21.1358 30.322 21.1414C30.2783 21.1511 30.2493 21.1851 30.2354 21.2444C30.2215 21.3037 30.2345 21.4079 30.274 21.556C30.3135 21.7041 30.4955 22.0493 30.8209 22.5908C31.1468 23.1333 31.2889 23.4247 31.2483 23.467C31.2071 23.5083 31.1703 23.5991 31.1388 23.739C31.1067 23.878 31.0786 23.9559 31.0544 23.9705C31.0422 23.9778 31.0301 23.9851 31.018 23.9924C30.9941 23.9379 30.9694 23.8841 30.9456 23.8296C30.897 23.7213 30.8459 23.6489 30.7903 23.6136C30.763 23.5956 30.7357 23.5776 30.7084 23.5597C30.7232 23.5419 30.737 23.5247 30.7522 23.5079C30.7813 23.4739 30.7036 23.2621 30.5208 22.8755C30.4299 22.6819 30.3375 22.4879 30.2465 22.2943C30.2383 22.3081 30.2296 22.321 30.2214 22.3349C30.2132 22.3487 30.205 22.3625 30.1962 22.3755C30.1794 22.3601 30.1616 22.3453 30.1433 22.3296C30.1265 22.3143 30.1087 22.2995 30.0904 22.2838C30.109 22.2726 30.1267 22.2619 30.1454 22.2507C30.1818 22.2288 30.1862 22.1664 30.1576 22.0639C30.129 21.9614 30.0869 21.8912 30.0328 21.8562C29.9782 21.8203 29.9162 21.8143 29.8482 21.8386C29.7797 21.8619 29.7213 21.8894 29.6728 21.9185C29.6243 21.9477 29.5991 21.9882 29.5979 22.0412C29.5961 22.0932 29.545 22.1328 29.445 22.1585C29.3449 22.1843 29.2833 22.2467 29.26 22.3473C29.237 22.4464 29.293 22.6369 29.4278 22.9161C29.5626 23.1954 29.6215 23.3484 29.6051 23.3761C29.5882 23.4028 29.6303 23.473 29.7299 23.5837C29.83 23.6954 29.8716 23.7646 29.8546 23.7914C29.8383 23.819 29.8564 23.9189 29.911 24.0923C29.9657 24.2657 30.1005 24.5449 30.3154 24.9301C30.5303 25.3153 30.6235 25.5253 30.595 25.5603C30.5659 25.5943 30.5565 25.661 30.5651 25.7577C30.5742 25.8554 30.5603 25.9146 30.5239 25.9365C30.4875 25.9584 30.4481 25.9477 30.4056 25.9045C30.3632 25.8613 30.3164 25.701 30.2647 25.4227C30.213 25.1444 30.1391 24.924 30.0401 24.7594C29.9418 24.5957 29.9005 24.4996 29.9175 24.4729C29.9344 24.4461 29.9044 24.3687 29.8291 24.2433C29.7532 24.1171 29.7198 24.034 29.7289 23.9942C29.738 23.9544 29.731 23.9153 29.7085 23.8779C29.6861 23.8405 29.6483 23.8199 29.5967 23.8165C29.5708 23.8155 29.5452 23.8131 29.5192 23.8121C29.5313 23.8049 29.5435 23.7976 29.5556 23.7903C29.5798 23.7757 29.5794 23.7327 29.5539 23.6627C29.5404 23.6276 29.5283 23.5928 29.5158 23.5571C29.4994 23.5847 29.4824 23.6115 29.4655 23.6382C29.4321 23.6926 29.3875 23.7283 29.3312 23.7444C29.2753 23.7614 29.2393 23.7563 29.2241 23.731C29.2168 23.7189 29.2089 23.7058 29.2016 23.6936C29.2501 23.6645 29.2987 23.6353 29.3481 23.6056C29.3966 23.5765 29.4451 23.5473 29.4937 23.5181C29.4785 23.4929 29.4633 23.4676 29.4481 23.4424C29.433 23.4171 29.4178 23.3919 29.4026 23.3666C29.3597 23.3924 29.3177 23.4176 29.2748 23.4434C29.2319 23.4692 29.1899 23.4944 29.147 23.5202C29.1357 23.5015 29.1245 23.4828 29.1127 23.4632C29.1014 23.4445 29.0902 23.4258 29.0784 23.4061C29.0338 23.4418 28.9892 23.4775 28.9441 23.5123C28.8549 23.5837 28.7838 23.6175 28.7323 23.6141C28.7057 23.6122 28.6807 23.6107 28.6547 23.6098C28.6682 23.6449 28.6803 23.6797 28.6928 23.7155C28.7184 23.7854 28.7132 23.8318 28.6768 23.8536C28.6582 23.8649 28.6404 23.8755 28.6218 23.8867C28.6561 23.9438 28.6898 23.9999 28.7241 24.057C28.7921 24.1701 28.8285 24.2857 28.8328 24.4028C28.8371 24.5199 28.8697 24.6289 28.9303 24.7299C28.991 24.8309 29.0126 24.8943 28.9962 24.922C28.9799 24.9497 29.0093 25.0262 29.0846 25.1515C29.1605 25.2778 29.1947 25.3769 29.1886 25.4493C29.1826 25.5217 29.2246 25.6339 29.3157 25.7854C29.4067 25.9369 29.4756 26.0241 29.5224 26.0469C29.5691 26.0698 29.5991 26.1472 29.6107 26.2764C29.6229 26.4066 29.6801 26.5441 29.7827 26.6874C29.8854 26.8307 29.9331 26.9229 29.9231 26.9633C29.914 27.0031 29.9435 27.0796 30.0115 27.1928C30.0795 27.306 30.1176 27.4117 30.1268 27.5093C30.1359 27.6069 30.1095 27.7004 30.0462 27.7894C29.9838 27.8778 29.9656 27.9575 29.9917 28.0284C30.0172 28.0983 30.0151 28.1772 29.9848 28.2642C29.9545 28.3511 29.9623 28.4063 30.009 28.4291C30.0324 28.4406 30.0557 28.452 30.0797 28.4643C30.0489 28.4828 30.019 28.5008 29.9882 28.5193C29.9276 28.5557 29.8569 28.5205 29.7768 28.4146C29.736 28.3615 29.6967 28.3088 29.6558 28.2556C29.668 28.2483 29.6801 28.241 29.6922 28.2338C29.7044 28.2265 29.7165 28.2192 29.7286 28.2119C29.7005 28.1778 29.671 28.1434 29.642 28.1099C29.5843 28.0415 29.5644 27.9936 29.5814 27.9668C29.5978 27.9392 29.5489 27.8578 29.4336 27.7209C29.3183 27.5839 29.2519 27.4608 29.2364 27.3505C29.22 27.2407 29.1492 27.068 29.0254 26.8344C28.9009 26.5998 28.8516 26.4755 28.8758 26.4609C28.888 26.4536 28.9001 26.4463 28.9122 26.439C28.8723 26.3853 28.8321 26.3331 28.7913 26.28C28.7111 26.1741 28.6024 26.1453 28.4659 26.1929C28.3295 26.2405 28.2116 26.2515 28.1133 26.2253C28.015 26.199 27.94 26.2263 27.8902 26.3084C27.8399 26.3895 27.8813 26.6231 28.0116 27.0069C28.1434 27.3911 28.2812 27.7029 28.4251 27.9424C28.569 28.1818 28.6609 28.3073 28.7003 28.318C28.7398 28.3287 28.7797 28.4078 28.8182 28.5565C28.8577 28.7046 28.9599 28.917 29.1268 29.1947C29.2937 29.4725 29.3687 29.6248 29.3518 29.6515C29.3354 29.6792 29.3721 29.7679 29.4632 29.9194C29.5542 30.0709 29.6231 30.1581 29.6699 30.1809C29.7166 30.2038 29.7436 30.2487 29.7497 30.3137C29.7558 30.3788 29.7782 30.4162 29.8177 30.4269C29.8571 30.4376 29.8796 30.475 29.8857 30.5401C29.8918 30.6052 29.9415 30.6605 30.0356 30.7072C30.1296 30.7538 30.1859 30.8052 30.2042 30.863C30.2224 30.9208 30.293 30.956 30.4156 30.9676C30.5382 30.9793 30.6392 30.953 30.7168 30.8898C30.7938 30.8257 30.8511 30.6716 30.8861 30.4278C30.9212 30.1839 31.0117 30.0175 31.1582 29.9295C31.3037 29.8421 31.376 29.7553 31.3748 29.6708C31.3735 29.5863 31.3934 29.5221 31.4346 29.4808C31.4758 29.4395 31.4849 29.3997 31.4618 29.3613C31.4506 29.3426 31.4393 29.3239 31.4275 29.3043C31.4518 29.2897 31.4761 29.2751 31.5003 29.2605C31.5488 29.2314 31.5532 29.1689 31.5119 29.0728C31.4712 28.9776 31.4812 28.9117 31.5419 28.8753C31.5726 28.8568 31.6025 28.8389 31.6333 28.8204C31.5995 28.8063 31.5666 28.7917 31.5327 28.7777C31.4989 28.7636 31.466 28.749 31.4322 28.735C31.4855 28.6864 31.5383 28.6369 31.5925 28.5877C31.6986 28.4896 31.762 28.4006 31.7802 28.3209C31.7983 28.2413 31.7883 28.1696 31.7507 28.107C31.713 28.0443 31.7207 27.9875 31.7741 27.9389C31.8269 27.8893 31.8486 27.8431 31.8377 27.7975C31.8274 27.7528 31.843 27.709 31.8836 27.6668C31.9248 27.6255 31.9339 27.5857 31.9109 27.5473C31.8884 27.5099 31.9139 27.4424 31.9884 27.3467C32.063 27.251 32.1543 27.2381 32.2644 27.3094C32.3736 27.3813 32.4564 27.4092 32.5123 27.3922C32.5405 27.3842 32.5687 27.3761 32.5963 27.3672C32.6049 27.3963 32.6145 27.425 32.6231 27.4541C32.6414 27.5119 32.7303 27.6049 32.8893 27.7322C33.0482 27.8594 33.1679 27.9339 33.2468 27.9552C33.3257 27.9766 33.3907 28.0152 33.4405 28.0705C33.4903 28.1259 33.5376 28.1497 33.5813 28.14C33.6255 28.1312 33.6714 28.18 33.72 28.2883C33.7685 28.3966 33.8786 28.51 34.0502 28.6309C34.2214 28.7509 34.364 28.9058 34.4775 29.0947C34.591 29.2836 34.6938 29.3849 34.7847 29.3989C34.8757 29.413 34.9577 29.4669 35.0305 29.5606C35.1033 29.6544 35.1414 29.76 35.1457 29.8771C35.15 29.9942 35.2129 30.1537 35.3343 30.3558C35.4557 30.5578 35.603 30.7608 35.7754 30.9652C35.9484 31.1707 36.0419 31.3538 36.0571 31.5165C36.0724 31.6792 36.1105 31.7849 36.1724 31.833C36.2036 31.8575 36.2343 31.8811 36.2655 31.9056C36.2347 31.9241 36.2049 31.942 36.1741 31.9605C36.1135 31.997 36.0962 32.0506 36.1217 32.1206C36.1472 32.1905 36.1468 32.2595 36.1213 32.327C36.0953 32.3936 36.1214 32.4645 36.1985 32.5378C36.2755 32.6112 36.2929 32.695 36.2505 32.7892C36.208 32.8834 36.2037 32.9459 36.2388 32.977C36.2557 32.9923 36.274 33.008 36.2912 33.0219C36.267 33.0364 36.2427 33.051 36.2184 33.0656C36.1699 33.0947 36.1405 33.1557 36.1302 33.2485C36.1194 33.3403 36.0868 33.4108 36.034 33.4603C35.9807 33.5089 35.943 33.6258 35.9218 33.8103C35.9001 33.994 35.8152 34.157 35.6684 34.2974C35.5211 34.4368 35.4561 34.5357 35.4743 34.5935C35.4931 34.6522 35.4713 34.6984 35.4107 34.7349C35.35 34.7713 35.3209 34.8053 35.324 34.8379C35.3276 34.8714 35.2703 34.9134 35.1524 34.9665C35.0359 35.0199 34.9613 35.0902 34.931 35.1771C34.9007 35.2641 34.8601 35.3063 34.8079 35.302C34.7564 35.2986 34.7135 35.3244 34.6801 35.3788C34.6474 35.4341 34.5957 35.4728 34.5272 35.4962C34.4592 35.5204 34.4268 35.5489 34.4292 35.5805C34.4323 35.613 34.3595 35.6567 34.21 35.7122C34.0614 35.7671 33.9739 35.8286 33.9479 35.8952C33.9224 35.9627 33.8747 36.0079 33.8067 36.0322C33.7382 36.0555 33.7097 36.0905 33.72 36.1352C33.7257 36.1573 33.7309 36.1808 33.7357 36.2035C33.7044 36.1789 33.6732 36.1544 33.6425 36.1309C33.58 36.0818 33.5169 36.0867 33.4514 36.1425C33.3865 36.1994 33.3588 36.2504 33.3691 36.2951C33.3742 36.3162 33.3795 36.3398 33.3842 36.3624C33.347 36.3428 33.3096 36.3207 33.2724 36.3011C33.1978 36.2593 33.0895 36.2989 32.9461 36.4195C32.8041 36.5404 32.6662 36.5877 32.5358 36.5629C32.4053 36.5382 32.1671 36.596 31.8205 36.7356C31.4738 36.8751 31.2671 36.9306 31.2004 36.9019C31.1337 36.8733 31.0739 36.8837 31.0211 36.9332C30.9678 36.9818 30.9154 37.0044 30.8644 37.002C30.8128 36.9986 30.7694 36.9814 30.7348 36.9513C30.7171 36.9365 30.6997 36.9202 30.6819 36.9054C30.6655 36.9331 30.6485 36.9598 30.6322 36.9875C30.6152 37.0142 30.5988 37.0419 30.5819 37.0686C30.5656 37.0542 30.5473 37.0385 30.5295 37.0237C30.4943 36.9927 30.4241 37.0005 30.3198 37.0466C30.2149 37.0918 30.139 37.103 30.0914 37.0807C30.0446 37.0579 29.986 37.0575 29.918 37.0818C29.8495 37.1051 29.7979 37.1017 29.7633 37.0716C29.7282 37.0406 29.6385 37.0435 29.4947 37.079C29.3504 37.1135 29.2542 37.1204 29.2069 37.0966C29.1602 37.0738 29.1215 37.0792 29.093 37.1141C29.0783 37.1319 29.0639 37.1482 29.0492 37.1659C29.0284 37.144 29.0067 37.1227 28.985 37.1014C28.9425 37.0582 28.8684 37.0594 28.7641 37.1056C28.6597 37.1517 28.5422 37.1358 28.4136 37.059C28.2849 36.9823 28.0747 36.9368 27.7853 36.9222C27.495 36.9083 27.3091 36.8736 27.2272 36.8197C27.1453 36.7658 27.0309 36.7403 26.8832 36.7438C26.7364 36.7467 26.6276 36.7179 26.5578 36.6567C26.488 36.5955 26.4058 36.5685 26.31 36.5739C26.2147 36.5802 26.1159 36.553 26.0136 36.4948C25.9122 36.4361 25.8029 36.4063 25.6882 36.4077C25.573 36.4082 25.4924 36.3714 25.4469 36.2956C25.4014 36.2198 25.2428 36.1356 24.971 36.0405C24.6989 35.9469 24.5291 35.9114 24.4605 35.9348C24.3926 35.9591 24.3388 35.9392 24.3011 35.8765C24.2635 35.8139 24.2057 35.7875 24.1304 35.7996C24.0546 35.8108 23.9774 35.7795 23.9003 35.7062C23.8232 35.6328 23.7387 35.5894 23.6477 35.5753C23.5568 35.5613 23.4956 35.5293 23.4653 35.4788C23.4349 35.4282 23.3777 35.4028 23.294 35.4009C23.2109 35.3999 23.1498 35.3679 23.1115 35.3043C23.0739 35.2416 22.9799 35.195 22.8294 35.1645C22.6796 35.1349 22.588 35.0944 22.5582 35.0448C22.5278 34.9943 22.4473 34.9575 22.3168 34.9327C22.1864 34.908 22.0963 34.8679 22.0465 34.8125C21.9967 34.7572 21.939 34.7308 21.8759 34.7356C21.8122 34.7395 21.771 34.7133 21.7528 34.6555C21.7346 34.5977 21.6848 34.5423 21.6029 34.4884C21.521 34.4345 21.4387 34.4076 21.3551 34.4056C21.2719 34.4047 21.2052 34.376 21.1549 34.3197C21.1051 34.2643 21.0374 34.2617 20.9525 34.3127C20.9096 34.3385 20.8676 34.3637 20.8247 34.3895C20.8096 34.3643 20.7944 34.339 20.7792 34.3137C20.764 34.2885 20.7489 34.2632 20.7337 34.238C20.7579 34.2234 20.7822 34.2088 20.8065 34.1943C20.8307 34.1797 20.855 34.1651 20.8792 34.1505C20.8719 34.1384 20.8641 34.1253 20.8567 34.1131C20.8489 34.1 20.8416 34.0879 20.8343 34.0757C20.81 34.0903 20.7857 34.1049 20.7615 34.1194C20.7372 34.134 20.713 34.1486 20.6887 34.1632C20.6623 34.1192 20.6359 34.0752 20.6095 34.0313C20.5566 33.9434 20.482 33.9016 20.3868 33.9079C20.2915 33.9143 20.2369 33.8783 20.223 33.8001C20.2096 33.7229 20.1536 33.67 20.0544 33.6443C19.9561 33.6181 19.8542 33.5584 19.7498 33.467C19.6454 33.3757 19.5747 33.3405 19.5384 33.3624C19.502 33.3843 19.4552 33.3614 19.3976 33.293C19.3399 33.2245 19.2827 33.199 19.2263 33.2151C19.1705 33.2321 19.1249 33.1984 19.0921 33.1163C19.0587 33.0332 18.9582 32.9485 18.7896 32.8601C18.6215 32.7727 18.5248 32.7366 18.5006 32.7512C18.4763 32.7657 18.4178 32.7232 18.3255 32.6246C18.2333 32.5261 18.1682 32.4875 18.1318 32.5094C18.1132 32.5206 18.0954 32.5312 18.0768 32.5424C18.0543 32.505 18.0312 32.4667 18.0088 32.4293C17.9632 32.3535 17.8822 32.2736 17.7657 32.1896C17.6492 32.1056 17.5486 32.0629 17.4649 32.061C17.3818 32.06 17.3328 32.0207 17.3188 31.9425C17.3054 31.8653 17.2291 31.808 17.0908 31.7702C16.9531 31.7333 16.8751 31.6859 16.8569 31.6281C16.8387 31.5703 16.7857 31.5245 16.6996 31.491C16.6134 31.4575 16.5476 31.4028 16.502 31.3271C16.4565 31.2513 16.3993 31.2259 16.3308 31.2492C16.2628 31.2735 16.1592 31.1982 16.0214 31.0239C15.8837 30.8495 15.7866 30.7704 15.7308 30.7874C15.6744 30.8034 15.5986 30.7471 15.5028 30.615C15.4074 30.4839 15.3377 30.4227 15.2934 30.4315C15.2492 30.4402 15.2262 30.4718 15.2245 30.5238C15.2227 30.5758 15.1837 30.6082 15.1079 30.6193C15.0321 30.6305 14.9853 30.6077 14.9671 30.5499C14.9575 30.5213 14.9489 30.4921 14.9402 30.4629C14.9845 30.4541 15.0282 30.4444 15.0719 30.4347C15.1156 30.425 15.1598 30.4163 15.2035 30.4066C15.1909 30.3708 15.178 30.3366 15.1654 30.3009C15.1399 30.2309 15.1073 30.1894 15.0675 30.1802C15.0281 30.1695 14.9991 30.136 14.9809 30.0783C14.9626 30.0205 14.928 29.9903 14.8765 29.9869C14.8249 29.9836 14.7551 29.9224 14.6671 29.8034C14.5791 29.6844 14.5037 29.6012 14.4418 29.5531C14.3799 29.505 14.3365 29.4877 14.3122 29.5023C14.3001 29.5096 14.288 29.5169 14.2759 29.5242C14.223 29.4363 14.1696 29.3474 14.1168 29.2595C14.0106 29.0827 13.8767 28.9149 13.7147 28.7551C13.5527 28.5953 13.4556 28.5162 13.4234 28.5177C13.3919 28.5201 13.3662 28.4922 13.348 28.4344C13.3298 28.3766 13.3051 28.3482 13.2726 28.3512C13.2405 28.3526 13.1811 28.2686 13.0949 28.0977C13.0087 27.9267 12.9497 27.8412 12.9172 27.8442C12.8851 27.8457 12.8504 27.8155 12.8128 27.7529C12.7751 27.6902 12.7708 27.6407 12.7998 27.6066C12.8284 27.5717 12.8262 27.5131 12.7928 27.4301C12.7594 27.347 12.7136 27.2982 12.6541 27.2817C12.5953 27.2662 12.5528 27.223 12.5267 27.1521C12.5012 27.0821 12.4686 27.0406 12.4282 27.0305C12.4088 27.0256 12.3888 27.0198 12.3694 27.0149C12.3776 27.0011 12.3858 26.9872 12.3945 26.9743C12.4115 26.9476 12.3989 26.9119 12.3564 26.8687C12.3139 26.8254 12.3062 26.7703 12.3316 26.7028C12.3577 26.6362 12.3204 26.5466 12.2202 26.4349C12.1201 26.3232 12.1066 26.1085 12.1802 25.7893C12.2538 25.4701 12.5156 25.1766 12.9662 24.9059C13.4159 24.6357 13.6854 24.4903 13.7733 24.4718C13.8613 24.4533 13.9098 24.4242 13.9189 24.3844C13.928 24.3445 14.0086 24.3139 14.1606 24.29C14.3126 24.2662 14.4418 24.2064 14.5479 24.1082C14.654 24.0101 14.8373 23.9432 15.0973 23.9067C15.3572 23.8702 15.5163 23.8179 15.5739 23.7489C15.6315 23.6799 15.7138 23.6648 15.82 23.7041C15.9262 23.7435 16.0643 23.7113 16.2351 23.6088C16.4049 23.5067 16.5219 23.4797 16.5839 23.5278C16.6458 23.5758 16.7199 23.5746 16.8048 23.5236C16.8897 23.4725 16.9616 23.4548 17.022 23.4707C17.0808 23.4863 17.1536 23.4426 17.2412 23.339C17.285 23.2872 17.3279 23.236 17.3711 23.1833C17.4058 23.2134 17.4409 23.2444 17.4755 23.2746C17.5453 23.3358 17.5717 23.3797 17.5548 23.4065C17.5466 23.4203 17.5384 23.4341 17.5296 23.447C17.5562 23.4489 17.5812 23.4504 17.6072 23.4514C17.6587 23.4548 17.7453 23.4193 17.8666 23.3464C17.9273 23.3099 17.9879 23.2735 18.0495 23.2365C18.0416 23.2234 18.0343 23.2112 18.027 23.1991C18.0197 23.1869 18.0118 23.1738 18.0045 23.1617C18.0232 23.1505 18.0409 23.1398 18.0596 23.1286C18.0782 23.1174 18.096 23.1067 18.1146 23.0955C18.1523 23.1582 18.1905 23.2218 18.2281 23.2845C18.304 23.4107 18.3617 23.4792 18.4011 23.4899C18.4405 23.5006 18.5107 23.4927 18.6108 23.467C18.7109 23.4412 18.7659 23.4081 18.775 23.3683C18.7799 23.3489 18.7841 23.3285 18.7889 23.309C18.8097 23.3309 18.8314 23.3522 18.8531 23.3736C18.8956 23.4168 18.9455 23.4301 19.0013 23.4131C19.0571 23.3961 19.1231 23.4087 19.1971 23.4495C19.2712 23.4903 19.3575 23.4817 19.4545 23.4234C19.5515 23.3651 19.6598 23.3509 19.7781 23.383C19.8964 23.415 19.9956 23.4152 20.0772 23.384C20.1573 23.3525 20.2106 23.3039 20.2376 23.2368C20.2506 23.2035 20.2636 23.1702 20.2761 23.136C20.3146 23.1726 20.3532 23.2093 20.3917 23.246C20.4688 23.3193 20.5581 23.3433 20.6582 23.3176C20.7583 23.2918 20.8479 23.2888 20.9268 23.3102C21.0056 23.3315 21.068 23.3106 21.1135 23.2489C21.1364 23.2173 21.1589 23.1872 21.1824 23.1566C21.2137 23.1811 21.2443 23.2047 21.2756 23.2292C21.3375 23.2773 21.4107 23.302 21.4944 23.3039C21.5776 23.3049 21.6687 23.2769 21.7657 23.2186C21.8142 23.1894 21.8627 23.1603 21.9112 23.1311C21.9216 23.1758 21.9325 23.2214 21.9429 23.2661C21.9641 23.3565 21.9502 23.4158 21.9017 23.4449C21.8532 23.4741 21.8073 23.6048 21.7649 23.8365C21.7225 24.0681 21.6636 24.2321 21.5881 24.3284C21.5136 24.4241 21.4699 24.5458 21.4573 24.6897C21.4452 24.8344 21.4101 24.9408 21.3515 25.0103C21.2939 25.0793 21.2359 25.2173 21.1783 25.4237C21.1208 25.6302 20.905 26.0424 20.5316 26.6615C20.1582 27.2805 19.9975 27.6176 20.0473 27.673C20.0971 27.7284 20.1153 27.7861 20.102 27.8464C20.0946 27.8763 20.0881 27.9056 20.0812 27.9365C20.1038 27.9318 20.1249 27.9268 20.1475 27.9221C20.1918 27.9134 20.229 27.933 20.2593 27.9835C20.2897 28.034 20.3954 28.0303 20.5755 27.973C20.7566 27.9151 20.8741 27.9056 20.9281 27.9406C20.9828 27.9766 21.0287 27.9833 21.0651 27.9614C21.1015 27.9396 21.1318 27.8526 21.1569 27.7C21.1811 27.548 21.234 27.4564 21.3147 27.4258C21.3947 27.3942 21.4572 27.3058 21.5023 27.159C21.5465 27.0128 21.6036 26.9008 21.6734 26.8245C21.7431 26.7482 21.7708 26.6972 21.7557 26.6719C21.7405 26.6467 21.7738 26.5923 21.8557 26.5087C21.9375 26.4252 21.9704 26.3277 21.954 26.218C21.9376 26.1082 21.9622 26.0246 22.0272 25.9678C22.0596 25.9394 22.0926 25.9119 22.1251 25.8835C22.1004 25.855 22.0753 25.8281 22.0496 25.8002C22.024 25.7723 21.9999 25.7448 21.9742 25.717C22.0123 25.7106 22.05 25.7058 22.0881 25.6994C22.164 25.6882 22.2497 25.6112 22.3459 25.4669C22.4416 25.3241 22.4867 25.2194 22.4806 25.1543C22.4745 25.0892 22.4918 25.0355 22.533 24.9942C22.5736 24.952 22.5793 24.9065 22.549 24.856C22.5186 24.8055 22.5489 24.7186 22.6408 24.5946C22.7317 24.4712 22.8167 24.2407 22.8946 23.9011C22.973 23.5625 23.0427 23.3488 23.1051 23.2603C23.1675 23.1719 23.1922 23.0883 23.1782 23.0101C23.1648 22.9329 23.1765 22.8826 23.2129 22.8607C23.2493 22.8389 23.2714 22.7658 23.2792 22.6414C23.287 22.517 23.3134 22.4235 23.3598 22.3613C23.4053 22.2996 23.4192 22.2403 23.4009 22.1825C23.3827 22.1247 23.4048 22.0516 23.4672 21.9632C23.5297 21.8748 23.5773 21.7596 23.6094 21.6206C23.6414 21.4817 23.6483 21.3833 23.6301 21.3255C23.6119 21.2678 23.6405 21.1907 23.7145 21.0941C23.7891 20.9983 23.8197 20.8845 23.809 20.7547C23.7968 20.6245 23.8241 20.505 23.8917 20.3957C23.9584 20.2868 24.0125 20.1423 24.0546 19.963C24.0957 19.7842 24.1216 19.6477 24.1325 19.5559C24.1434 19.4641 24.1333 19.3924 24.103 19.3419C24.0878 19.3167 24.0726 19.2914 24.0575 19.2662C24.0817 19.2516 24.106 19.237 24.1302 19.2224C24.1788 19.1933 24.2446 18.9309 24.3272 18.4345C24.4104 17.9389 24.4363 17.665 24.4065 17.6154C24.3761 17.5649 24.3701 17.4998 24.3882 17.4201C24.3973 17.3803 24.4064 17.3405 24.4155 17.3007C24.376 17.29 24.3366 17.2793 24.2972 17.2686C24.2577 17.2579 24.2183 17.2473 24.1789 17.2366C24.1992 17.2155 24.2195 17.1943 24.2404 17.1742C24.2607 17.153 24.2816 17.1328 24.3019 17.1117C24.3132 17.1304 24.3244 17.1491 24.3362 17.1688C24.3475 17.1875 24.3587 17.2062 24.3705 17.2258C24.3852 17.2081 24.3996 17.1918 24.4143 17.174C24.4428 17.1391 24.4373 17.0749 24.396 16.9788C24.3553 16.8836 24.3614 16.8112 24.4142 16.7617C24.4675 16.7131 24.4817 16.6269 24.4574 16.504C24.4331 16.3811 24.4426 16.2723 24.4851 16.178C24.5275 16.0838 24.5279 16.0148 24.4854 15.9716C24.443 15.9284 24.4473 15.8659 24.4971 15.7838C24.5474 15.7027 24.5568 15.6359 24.527 15.5864C24.4966 15.5359 24.4984 15.4839 24.5317 15.4295C24.5651 15.3751 24.5704 15.2866 24.546 15.1637C24.5217 15.0408 24.5403 14.8922 24.6009 14.7183C24.6615 14.5444 24.6715 14.3665 24.6295 14.1868C24.587 14.0061 24.5892 13.8851 24.6347 13.8234C24.6801 13.7617 24.6784 13.6342 24.6286 13.4414C24.5787 13.2485 24.5722 13.1404 24.6086 13.1186C24.645 13.0967 24.6468 13.0447 24.6134 12.9617C24.58 12.8786 24.5778 12.8201 24.6063 12.7851C24.6354 12.7511 24.6384 12.6462 24.6153 12.4704C24.5928 12.2955 24.5603 12.1865 24.5178 12.1433C24.497 12.1214 24.4753 12.1 24.4536 12.0787C24.4923 12.0733 24.5294 12.0675 24.5675 12.0612C24.6433 12.05 24.714 12.0852 24.779 12.1658C24.8439 12.2465 24.8985 12.2824 24.9428 12.2736C24.987 12.2649 25.0256 12.3015 25.059 12.3846C25.0924 12.4676 25.1382 12.5165 25.1977 12.5329C25.2565 12.5485 25.3229 12.6041 25.3952 12.6969C25.468 12.7906 25.5638 12.8527 25.6821 12.8847C25.8004 12.9168 25.9 12.9855 25.9802 13.0913C26.0603 13.1972 26.1366 13.2545 26.2082 13.2637C26.2792 13.2719 26.3755 13.335 26.495 13.4516C26.6146 13.5681 26.7343 13.6426 26.8526 13.6747C26.9709 13.7067 27.0528 13.7606 27.0983 13.8364C27.1438 13.9121 27.2162 13.9628 27.3145 13.9891C27.4128 14.0153 27.4779 14.0538 27.5082 14.1043C27.5386 14.1548 27.6191 14.1917 27.7496 14.2165C27.88 14.2412 27.9645 14.2846 28.0022 14.3473C28.0398 14.41 28.1456 14.4762 28.318 14.5433C28.4909 14.6112 28.6027 14.6726 28.6525 14.728C28.7023 14.7834 28.7795 14.8146 28.8826 14.8214C28.9857 14.8282 29.0952 14.8731 29.2133 14.9575C29.3298 15.0415 29.4425 15.0769 29.5504 15.0643C29.6578 15.0507 29.7389 15.0885 29.7918 15.1764C29.8446 15.2643 29.9153 15.2995 30.0032 15.281C30.0912 15.2626 30.2207 15.3133 30.3928 15.4327C30.5639 15.5527 30.7853 15.6169 31.0553 15.6266C31.3261 15.6357 31.5033 15.6832 31.5883 15.7697C31.6732 15.8561 31.7433 15.8904 31.7997 15.8743C31.8555 15.8573 31.8919 15.8355 31.9089 15.8087C31.9253 15.7811 31.9132 15.7463 31.8708 15.7031C31.85 15.6812 31.8283 15.6598 31.8066 15.6385C31.8308 15.6239 31.8551 15.6094 31.8794 15.5948C31.9036 15.5802 31.9279 15.5656 31.9521 15.551C31.9832 15.6176 32.0159 15.6846 32.047 15.7512C32.1107 15.8848 32.1692 15.9693 32.2247 16.0047C32.2793 16.0406 32.3897 16.0596 32.5575 16.0619C32.7243 16.0648 32.863 16.1011 32.9722 16.173C33.0814 16.2448 33.1636 16.2718 33.22 16.2557C33.2758 16.2387 33.3773 16.2554 33.5229 16.3054C33.6685 16.3554 33.7828 16.3809 33.8669 16.3813C33.95 16.3823 34.0064 16.3662 34.0349 16.3313C34.0634 16.2963 34.2165 16.3164 34.4925 16.3912C34.7694 16.4653 34.9249 16.4916 34.9622 16.4692C34.9986 16.4473 35.0519 16.4662 35.1216 16.5274C35.192 16.5895 35.2102 16.6473 35.1759 16.7023ZM32.3874 14.2087C32.3965 14.1689 32.4135 14.1421 32.4377 14.1275C32.462 14.113 32.5222 14.171 32.6175 14.3021C32.7128 14.4332 32.8234 14.5476 32.9478 14.6447C33.0722 14.7418 33.1936 14.8064 33.3122 14.8369C33.4305 14.8689 33.5037 14.9357 33.5328 15.0392C33.5471 15.0904 33.5614 15.1417 33.5762 15.1939C33.5216 15.1579 33.467 15.122 33.4124 15.0861C33.3032 15.0142 33.1598 14.9552 32.9821 14.9067C32.8049 14.8591 32.6588 14.7407 32.5453 14.5517C32.4294 14.363 32.3783 14.2485 32.3874 14.2087ZM31.2592 12.4157C31.2368 12.3782 31.2137 12.3399 31.1912 12.3025C31.2034 12.2952 31.2155 12.2879 31.2276 12.2806C31.2519 12.266 31.297 12.2988 31.3625 12.3804C31.3954 12.4204 31.4274 12.461 31.4604 12.501C31.4378 12.5057 31.4167 12.5107 31.3941 12.5154C31.3498 12.5242 31.3048 12.4914 31.2592 12.4157ZM31.2358 11.8378C31.2493 11.8729 31.2613 11.9077 31.2739 11.9435C31.2513 11.9481 31.2302 11.9532 31.2076 11.9578C31.1639 11.9675 31.1162 12.0128 31.0659 12.0939C31.0408 12.1345 31.0156 12.175 30.991 12.2166C30.9693 12.1952 30.9486 12.1733 30.9269 12.152C30.8844 12.1088 30.8727 12.0471 30.8909 11.9674C30.909 11.8877 30.9446 11.8498 30.9962 11.8532C31.0478 11.8566 31.0946 11.8373 31.1353 11.7951C31.1556 11.774 31.1765 11.7538 31.1968 11.7327C31.2103 11.7678 31.2223 11.8026 31.2358 11.8378ZM31.6347 13.2454C31.6935 13.261 31.7383 13.3206 31.7668 13.4231C31.7811 13.4744 31.7954 13.5256 31.8103 13.5778C31.7903 13.572 31.7708 13.5671 31.7514 13.5623C31.712 13.5516 31.6678 13.4928 31.6192 13.3845C31.5945 13.3307 31.5706 13.2762 31.5468 13.2218C31.5758 13.2299 31.6048 13.2379 31.6347 13.2454ZM37.8869 14.559C37.9051 14.6168 37.8452 14.6694 37.7087 14.717C37.5723 14.7646 37.493 14.8123 37.4718 14.8594C37.4506 14.9065 37.3356 14.9921 37.1294 15.116C36.9223 15.2405 36.7698 15.2888 36.6715 15.2626C36.5732 15.2364 36.4813 15.2483 36.3955 15.2999C36.3106 15.3509 36.1993 15.3579 36.0606 15.3216C35.9229 15.2847 35.8271 15.2901 35.7733 15.3402C35.72 15.3888 35.6724 15.3919 35.6299 15.3487C35.5874 15.3055 35.5004 15.298 35.3672 15.3258C35.2356 15.3539 35.0462 15.3557 34.7996 15.3321C34.5539 15.3078 34.3611 15.1665 34.222 14.9076C34.0824 14.6478 33.9936 14.5128 33.9533 14.5026C33.9138 14.492 33.8578 14.4136 33.7868 14.2679C33.7158 14.1221 33.6212 14.0071 33.5047 13.9231C33.3882 13.839 33.2768 13.7086 33.1706 13.5319C33.0644 13.3551 32.9431 13.223 32.8066 13.1332C32.6701 13.0434 32.5393 12.9081 32.4136 12.7264C32.288 12.5448 32.1566 12.4086 32.0206 12.3197C31.8841 12.2299 31.8048 12.1401 31.7841 12.0507C31.7628 11.9603 31.71 11.8724 31.625 11.786C31.5401 11.6995 31.4755 11.6619 31.4313 11.6707C31.3876 11.6804 31.3564 11.6559 31.3381 11.5981C31.3199 11.5403 31.2718 11.5004 31.192 11.4796C31.1132 11.4583 31.0602 11.4124 31.0347 11.3425C31.0221 11.3067 31.0092 11.2725 30.9966 11.2368C30.9802 11.2645 30.9633 11.2912 30.9463 11.3179C30.9294 11.3447 30.913 11.3723 30.896 11.3991C30.8735 11.3617 30.8505 11.3233 30.828 11.2859C30.8055 11.2485 30.7825 11.2101 30.76 11.1727C30.7358 11.1873 30.7115 11.2019 30.6872 11.2165C30.663 11.231 30.6387 11.2456 30.6145 11.2602C30.6072 11.248 30.5993 11.2349 30.592 11.2228C30.5841 11.2097 30.5768 11.1975 30.5695 11.1854C30.5882 11.1741 30.6059 11.1635 30.6246 11.1523C30.6609 11.1304 30.6996 11.125 30.7385 11.1348C30.7579 11.1396 30.7779 11.1454 30.7973 11.1503C30.7904 11.1112 30.7839 11.0731 30.777 11.034C30.7636 10.9567 30.7093 10.8939 30.6158 10.8482C30.5218 10.8016 30.4597 10.7956 30.4312 10.8305C30.4027 10.8655 30.3745 10.8735 30.3472 10.8556C30.3199 10.8376 30.2935 10.7936 30.268 10.7237C30.2545 10.6885 30.2424 10.6537 30.2299 10.618C30.2564 10.6199 30.2814 10.6214 30.3074 10.6223C30.3334 10.6233 30.359 10.6257 30.3849 10.6267C30.368 10.5859 30.3515 10.5436 30.3356 10.5023C30.3022 10.4192 30.2316 10.342 30.1215 10.2707C30.0123 10.1988 29.9095 10.0976 29.8142 9.96644C29.7189 9.8353 29.6413 9.76102 29.5824 9.74547C29.5235 9.72992 29.4771 9.68016 29.4437 9.59711C29.4278 9.55577 29.4103 9.51406 29.3944 9.47272C29.3701 9.4873 29.3459 9.50187 29.3216 9.51645C29.2731 9.5456 29.1193 9.37198 28.8601 8.9956C28.6009 8.61921 28.4535 8.41623 28.4189 8.38611C28.3843 8.35598 28.3288 8.34604 28.253 8.35723C28.2149 8.36357 28.1772 8.36842 28.1391 8.37476C28.1499 8.35045 28.1603 8.32764 28.1717 8.30427C28.1929 8.25715 28.1924 8.21414 28.1699 8.17673C28.1475 8.13931 28.0754 8.06167 27.9559 7.94511C27.8363 7.82854 27.7639 7.77783 27.7396 7.79241C27.7275 7.79969 27.7154 7.80698 27.7033 7.81427C27.6864 7.77349 27.6699 7.73122 27.6539 7.68988C27.6205 7.60683 27.582 7.57016 27.5383 7.57987C27.494 7.58864 27.4482 7.53981 27.3996 7.4315C27.351 7.3232 27.2766 7.23938 27.1743 7.18118C27.0729 7.12241 27.004 7.03523 26.9676 6.91964C26.9494 6.86184 26.9312 6.80405 26.9129 6.74625C26.9055 6.77617 26.899 6.80553 26.8922 6.83638C26.8783 6.89566 26.8416 6.94445 26.7809 6.98089C26.7203 7.01733 26.634 7.0259 26.5236 7.00696C26.4131 6.98802 26.3204 7.02594 26.2454 7.12315C26.1709 7.21887 26.1758 7.33687 26.2589 7.4753C26.3421 7.61373 26.4263 7.68408 26.5094 7.68506C26.5926 7.68603 26.6494 7.73842 26.678 7.84092C26.6923 7.89216 26.7066 7.94341 26.7214 7.99559C26.7457 7.98102 26.7699 7.96644 26.7942 7.95187C26.8185 7.93729 26.8427 7.92272 26.867 7.90814C26.8522 7.9259 26.8379 7.94216 26.8232 7.95992C26.7946 7.99488 26.8578 8.1275 27.0138 8.35966C27.1698 8.59181 27.2924 8.74091 27.3822 8.80791C27.4714 8.87396 27.5382 8.9026 27.5824 8.89384C27.605 8.88917 27.6267 8.88507 27.6487 8.87947C27.6518 8.91201 27.6548 8.94455 27.6578 8.97709C27.6639 9.04217 27.7102 9.13402 27.7982 9.253C27.8415 9.3123 27.8862 9.37198 27.9304 9.43072C27.9183 9.43801 27.9062 9.4453 27.894 9.45258C27.8698 9.46716 27.7471 9.36013 27.5274 9.13188C27.3077 8.90362 27.1681 8.78125 27.1092 8.7657C27.0504 8.75015 26.9961 8.68729 26.9481 8.57993C26.8995 8.47162 26.8211 8.38126 26.7115 8.31089C26.6023 8.23903 26.4324 8.06615 26.2023 7.7932C25.9723 7.52024 25.811 7.37654 25.72 7.36247C25.629 7.34841 25.5761 7.30256 25.5627 7.22532C25.5493 7.14808 25.4409 7.0923 25.2395 7.05929C25.138 7.0426 25.038 7.02629 24.9366 7.0096C25.0093 6.96587 25.0821 6.92214 25.1558 6.87785C25.3023 6.78984 25.4427 6.74876 25.5774 6.75312C25.7121 6.75748 25.8066 6.73509 25.8599 6.68649C25.9127 6.63695 25.9834 6.63007 26.0696 6.66358C26.1558 6.6971 26.288 6.69529 26.4639 6.65834C26.5519 6.63986 26.6398 6.62139 26.7287 6.60236C26.7052 6.63301 26.6832 6.66405 26.6597 6.69471C26.6143 6.7564 26.6004 6.81568 26.6186 6.87347C26.6272 6.90265 26.6368 6.93127 26.6455 6.96045C26.7014 6.90138 26.7564 6.84287 26.8118 6.78286C26.9227 6.66528 26.9964 6.62099 27.031 6.65112C27.0656 6.68124 27.1687 6.68802 27.3413 6.6709C27.5124 6.6534 27.6065 6.65793 27.6217 6.68318C27.6369 6.70843 27.7239 6.71595 27.8838 6.70518C28.0428 6.69497 28.1564 6.70437 28.2231 6.73301C28.2898 6.76166 28.3535 6.75776 28.4142 6.72132C28.4748 6.68488 28.5481 6.7096 28.633 6.79604C28.718 6.88248 28.8002 6.90945 28.8809 6.87881C28.9615 6.84818 29.0269 6.8598 29.0767 6.91518C29.1265 6.97056 29.1898 6.99359 29.2651 6.98147C29.3409 6.97028 29.4198 6.99164 29.5017 7.04554C29.5836 7.09943 29.6529 7.11761 29.7087 7.10061C29.7651 7.08456 29.8145 7.09692 29.8569 7.14014C29.8994 7.18336 29.9687 7.20153 30.064 7.19522C30.1592 7.1889 30.2325 7.21362 30.2829 7.26994C30.3326 7.32531 30.4072 7.36705 30.5055 7.39328C30.6038 7.41951 30.7014 7.42965 30.7972 7.42427C30.8924 7.41795 30.957 7.38806 30.9913 7.3331C31.0246 7.27869 31.0649 7.26337 31.1117 7.28621C31.1584 7.30905 31.1888 7.35956 31.2027 7.43773C31.2161 7.51497 31.3726 7.61061 31.6721 7.72221C31.9706 7.83436 32.1652 7.92366 32.2544 7.98971C32.3436 8.05577 32.3866 8.16744 32.3809 8.3249C32.3761 8.4818 32.3619 8.56801 32.3376 8.58258C32.3134 8.59716 32.2683 8.56441 32.2033 8.48378C32.1384 8.40315 32.0838 8.36721 32.0395 8.37598C32.0169 8.38065 31.9953 8.38475 31.9732 8.39035C32.0348 8.46537 32.0958 8.53946 32.1574 8.61448C32.28 8.76358 32.348 8.87676 32.362 8.95493C32.3754 9.03218 32.4288 9.12103 32.5211 9.21963C32.6133 9.31823 32.713 9.38691 32.8192 9.42623C32.9253 9.46555 32.9895 9.5301 33.0108 9.62043C33.0211 9.66513 33.032 9.71077 33.0424 9.75547C33.065 9.75081 33.0861 9.74577 33.1087 9.7411C33.1529 9.73233 33.2382 9.79184 33.3656 9.9215C33.4931 10.0512 33.6062 10.1971 33.7045 10.3608C33.8029 10.5244 33.9039 10.6101 34.007 10.6169C34.1101 10.6237 34.1634 10.6426 34.1664 10.6752C34.1687 10.6916 34.1695 10.7077 34.1703 10.7238C34.1508 10.7189 34.1308 10.7131 34.1114 10.7082C34.092 10.7034 34.072 10.6975 34.0525 10.6927C34.0677 10.7179 34.0829 10.7432 34.098 10.7684C34.1284 10.8189 34.1791 10.8483 34.2501 10.8566C34.3211 10.8649 34.3723 10.8952 34.4026 10.9457C34.4178 10.9709 34.433 10.9962 34.4482 11.0214C34.4603 11.0142 34.4724 11.0069 34.4846 10.9996C34.4967 10.9923 34.5088 10.985 34.5209 10.9777C34.5097 10.959 34.4985 10.9403 34.4867 10.9207C34.4754 10.902 34.4642 10.8832 34.4524 10.8636C34.4684 10.8629 34.4845 10.8621 34.5 10.8604C34.5161 10.8597 34.5321 10.859 34.5476 10.8573C34.5498 10.9158 34.5519 10.9744 34.5541 11.0329C34.5584 11.15 34.623 11.2575 34.7474 11.3546C34.8718 11.4518 34.9601 11.5438 35.0135 11.6327C35.0664 11.7206 35.0885 11.7849 35.0794 11.8248C35.0752 11.8451 35.0704 11.8646 35.0655 11.884C35.101 11.8882 35.1365 11.8923 35.1726 11.8974C35.2436 11.9056 35.3061 11.9547 35.3589 12.0426C35.4117 12.1305 35.4725 12.1894 35.5387 12.2171C35.6054 12.2458 35.673 12.3159 35.7416 12.4301C35.8096 12.5432 35.8872 12.6175 35.9734 12.651C36.0595 12.6845 36.1411 12.7654 36.2164 12.8907C36.2923 13.017 36.3829 13.1255 36.4873 13.2168C36.5917 13.3081 36.668 13.3654 36.7153 13.3891C36.762 13.412 36.8046 13.4131 36.841 13.3912C36.8597 13.38 36.8774 13.3694 36.8961 13.3582C36.9117 13.4264 36.9277 13.4932 36.9433 13.5615C36.9749 13.6965 37.0283 13.7854 37.1023 13.8262C37.1764 13.867 37.2307 13.9298 37.2635 14.0119C37.2969 14.095 37.4052 14.1928 37.5885 14.3055C37.7676 14.4156 37.8686 14.5013 37.8869 14.559ZM35.1049 10.2589C35.1045 10.3279 35.105 10.3964 35.1045 10.4654C35.0772 10.4474 35.0499 10.4295 35.0226 10.4115C34.968 10.3756 34.922 10.3688 34.8857 10.3907C34.867 10.4019 34.8493 10.4125 34.8306 10.4237C34.8229 10.3686 34.8142 10.314 34.8064 10.2588C34.7987 10.2036 34.79 10.149 34.7822 10.0938C34.8121 10.1013 34.8411 10.1094 34.8715 10.1178C34.9304 10.1334 34.9851 10.1272 35.0336 10.0981C35.0579 10.0835 35.0822 10.0689 35.1064 10.0543C35.1054 10.1224 35.105 10.1914 35.1049 10.2589ZM35.5023 10.7152C35.5014 10.7412 35.5005 10.7672 35.5002 10.7941C35.4745 10.7663 35.4504 10.7388 35.4247 10.7109C35.375 10.6555 35.3277 10.6317 35.284 10.6414C35.2614 10.6461 35.2397 10.6502 35.2177 10.6558C35.212 10.6337 35.2073 10.6111 35.2021 10.5875C35.1973 10.5649 35.1917 10.5428 35.1864 10.5193C35.209 10.5146 35.2307 10.5105 35.2527 10.5049C35.2964 10.4952 35.3502 10.5151 35.4122 10.5631C35.4737 10.6127 35.504 10.6632 35.5023 10.7152ZM34.9922 9.4521C35.0286 9.56769 34.978 9.67576 34.8388 9.77593C34.7011 9.87648 34.5754 9.87437 34.4632 9.76996C34.3509 9.66556 34.2781 9.57183 34.2452 9.48972C34.2119 9.40667 34.1789 9.36663 34.1468 9.36812C34.1152 9.37053 34.0662 9.33124 34.0007 9.24967C33.9357 9.16904 33.8772 9.12656 33.8256 9.12317C33.7741 9.11978 33.7204 9.05785 33.6645 8.93739C33.6086 8.81693 33.5575 8.74453 33.5092 8.72132C33.4625 8.69849 33.4199 8.69734 33.3835 8.71921C33.3649 8.73042 33.3471 8.74107 33.3285 8.75228C33.3063 8.68794 33.2847 8.62453 33.2626 8.56019C33.2404 8.49585 33.2188 8.43244 33.1967 8.3681C33.2786 8.422 33.3605 8.47589 33.4424 8.52979C33.6062 8.63758 33.7664 8.7119 33.9251 8.75405C34.0828 8.79676 34.2453 8.88754 34.4122 9.02787C34.579 9.16821 34.7077 9.24494 34.7996 9.25845C34.8915 9.27196 34.9557 9.33651 34.9922 9.4521ZM38.8222 13.8417C38.8434 13.9321 38.8213 14.0052 38.7559 14.0611C38.7234 14.0895 38.691 14.1179 38.658 14.1454C38.6003 14.0769 38.5427 14.0084 38.485 13.9399C38.3697 13.803 38.2999 13.7418 38.2757 13.7564C38.2514 13.771 38.2024 13.7317 38.1296 13.6379C38.0567 13.5442 38.0038 13.4984 37.9722 13.5008C37.9562 13.5015 37.9401 13.5023 37.9246 13.5039C37.9354 13.4796 37.9458 13.4568 37.9572 13.4335C37.9784 13.3863 37.9714 13.3472 37.9368 13.3171C37.92 13.3018 37.9022 13.287 37.8839 13.2713C37.896 13.264 37.9081 13.2567 37.9202 13.2494C37.9445 13.2348 38.0169 13.2856 38.1364 13.4021C38.256 13.5187 38.3566 13.5614 38.4372 13.5307C38.5173 13.4992 38.5962 13.5205 38.6738 13.5948C38.752 13.67 38.8009 13.7514 38.8222 13.8417ZM37.8997 11.5648C37.8907 11.6046 37.9847 11.7887 38.1815 12.1161C38.2798 12.2797 38.3782 12.4434 38.4771 12.608C38.3895 12.5321 38.3029 12.4555 38.2153 12.3796C38.0412 12.2271 37.9545 12.1251 37.9557 12.0722C37.9575 12.0202 37.9219 11.9461 37.8496 11.8533C37.7768 11.7596 37.685 11.704 37.574 11.6842C37.4636 11.6652 37.4002 11.6422 37.3856 11.6179C37.3704 11.5926 37.3834 11.5593 37.4241 11.5171C37.4647 11.4748 37.4665 11.4228 37.4289 11.3602C37.3912 11.2975 37.3495 11.2704 37.3058 11.2801C37.2615 11.2888 37.1436 11.1624 36.953 10.9001C36.8577 10.769 36.7624 10.6378 36.6666 10.5057C36.6981 10.5033 36.7302 10.5018 36.7618 10.4994C36.8255 10.4955 36.8762 10.5249 36.9144 10.5885C36.952 10.6512 36.9977 10.6849 37.0487 10.6873C37.1002 10.6907 37.183 10.7861 37.297 10.976C37.4106 11.1649 37.5242 11.3118 37.6359 11.4153C37.7482 11.5197 37.8222 11.5605 37.8586 11.5386C37.8773 11.5274 37.895 11.5167 37.9136 11.5055C37.9103 11.5253 37.9055 11.5448 37.8997 11.5648Z" fill="#E31E25"/>
<path d="M28.3901 30.5339C28.3343 30.5509 28.2844 30.5376 28.2419 30.4944C28.1994 30.4511 28.0899 30.4062 27.9112 30.3582C27.734 30.3107 27.6165 30.2947 27.5607 30.3117C27.5043 30.3278 27.4494 30.3188 27.3948 30.2828C27.3402 30.2469 27.2427 30.2368 27.1031 30.2518C26.9636 30.2669 26.8726 30.2529 26.8292 30.2102C26.7868 30.167 26.7053 30.1561 26.5852 30.176C26.4657 30.1969 26.382 30.195 26.3344 30.1728C26.2876 30.1499 26.2312 30.166 26.1663 30.2228C26.1339 30.2512 26.1009 30.2787 26.0684 30.3071C26.0727 30.2867 26.0775 30.2673 26.0823 30.2478C26.0914 30.208 26.0676 30.1536 26.0099 30.0851C25.9523 30.0166 25.8695 29.9887 25.7621 30.0023C25.6547 30.0159 25.5654 29.9919 25.4956 29.9307C25.4258 29.8696 25.3509 29.8548 25.2703 29.8854C25.1902 29.917 25.1186 29.9078 25.0567 29.8597C24.9948 29.8116 24.9249 29.7925 24.8496 29.8046C24.7738 29.8158 24.6933 29.7789 24.6083 29.6925C24.5233 29.606 24.4428 29.5691 24.367 29.5803C24.2911 29.5915 24.1777 29.54 24.025 29.4255C23.8733 29.3104 23.7599 29.259 23.6831 29.2707C23.6073 29.2819 23.554 29.263 23.5237 29.2125C23.5085 29.1872 23.4933 29.162 23.4782 29.1367C23.4474 29.1552 23.4175 29.1731 23.3867 29.1916C23.3261 29.2281 23.2633 29.206 23.1978 29.1244C23.1328 29.0438 23.0877 29.011 23.0635 29.0256C23.0392 29.0402 23.0388 29.1092 23.0631 29.2321C23.0748 29.2938 23.0874 29.355 23.0991 29.4167C23.0718 29.3987 23.0445 29.3807 23.0172 29.3628C22.9626 29.3268 22.895 29.3242 22.8139 29.3563C22.7339 29.3879 22.6766 29.4299 22.6423 29.4849C22.609 29.5393 22.6029 29.6117 22.6242 29.702C22.6455 29.7924 22.6935 29.8322 22.7703 29.8205C22.8461 29.8093 22.9202 29.8501 22.993 29.9438C23.0658 30.0375 23.1616 30.0997 23.2798 30.1317C23.3981 30.1637 23.4866 30.2137 23.5442 30.2822C23.6019 30.3507 23.6825 30.3875 23.7856 30.3943C23.8887 30.4011 23.9627 30.4419 24.0083 30.5177C24.0538 30.5934 24.1239 30.6277 24.2197 30.6223C24.315 30.616 24.4082 30.6465 24.4974 30.7126C24.5867 30.7786 24.8813 30.8422 25.3809 30.9022C25.8805 30.9623 26.3082 31.0401 26.6635 31.1347C27.0193 31.2302 27.2506 31.2707 27.3586 31.2581C27.4127 31.251 27.466 31.2445 27.5207 31.2383C27.5134 31.2262 27.5055 31.2131 27.4982 31.2009C27.4903 31.1878 27.483 31.1757 27.4757 31.1635C27.4944 31.1523 27.5121 31.1416 27.5308 31.1304C27.5494 31.1192 27.5671 31.1086 27.5858 31.0974C27.5914 31.1194 27.5962 31.1421 27.6014 31.1656C27.6118 31.2103 27.6599 31.2502 27.7475 31.2841C27.8337 31.3176 27.9039 31.3098 27.9572 31.2612C28.0106 31.2126 28.0687 31.212 28.1306 31.2601C28.1925 31.3082 28.2506 31.3077 28.3039 31.2591C28.3567 31.2095 28.3785 31.1634 28.3676 31.1177C28.3572 31.073 28.3979 31.0308 28.4906 30.9929C28.5828 30.954 28.6345 30.9153 28.6436 30.8755C28.6527 30.8357 28.6272 30.7657 28.5665 30.6647C28.5044 30.5594 28.4459 30.5169 28.3901 30.5339Z" fill="#E31E25"/>
</g>
<defs>
<clipPath id="clip0_2183_3054">
<rect width="38.2691" height="34.5894" fill="white" transform="translate(0 20.6987) rotate(-31.0007)"/>
</clipPath>
</defs>
</svg>
