<svg width="40" height="70" viewBox="0 0 40 70" fill="none" xmlns="http://www.w3.org/2000/svg">
<g clip-path="url(#clip0_2183_2723)">
<path d="M39.9727 15.2509C39.953 14.6605 39.9015 14.075 39.8082 13.4894C39.7444 13.0852 39.6535 12.6858 39.5504 12.2914C39.4694 11.9778 39.3786 11.6642 39.2755 11.358C39.165 11.0321 39.0545 10.7038 38.9465 10.378C38.9171 10.2898 38.8778 10.2016 38.8434 10.1158C38.7649 9.91495 38.6863 9.71406 38.6078 9.51561C38.4948 9.23141 38.3647 8.95702 38.2346 8.68018C38.1511 8.50378 38.0677 8.32983 37.9842 8.15344C37.8762 7.92559 37.7535 7.7051 37.6307 7.48705C37.2036 6.73001 36.688 6.02933 36.1087 5.38499C35.5269 4.7382 34.8616 4.17962 34.1521 3.67983C33.7544 3.40053 33.3396 3.15064 32.9222 2.90074C32.4239 2.60185 31.8961 2.3593 31.3683 2.12166C30.2562 1.61942 29.127 1.15393 27.9584 0.798684C27.6663 0.710486 27.3766 0.624738 27.0845 0.546339C26.9618 0.51449 26.839 0.47529 26.7163 0.448341C26.542 0.411592 26.3652 0.372393 26.1909 0.335643C26.0878 0.313594 25.9847 0.286644 25.8816 0.271945C25.6852 0.240095 25.4888 0.210696 25.29 0.181296C24.9414 0.127397 24.5903 0.0930981 24.2393 0.0587988C23.9447 0.0293994 23.6477 0.0220496 23.3531 0.0097998C23.2426 0.00244995 23.1346 0 23.0266 0C22.8375 0 22.651 0.0048999 22.4619 0.00734985C22.1698 0.0097998 21.8777 0.0440991 21.5855 0.0661487C21.2541 0.0906482 20.9276 0.142097 20.5987 0.188646C20.4391 0.210696 20.2795 0.232745 20.12 0.257245C20.0021 0.274394 19.8843 0.303794 19.7689 0.325843C19.4891 0.382192 19.2068 0.433641 18.9269 0.50224C18.6446 0.570839 18.3598 0.632087 18.0775 0.708036C17.7486 0.798684 17.4171 0.889332 17.0857 0.97998C16.5015 1.13923 15.927 1.32787 15.3526 1.51652C15.2691 1.54347 15.1856 1.57777 15.1022 1.60962C14.9009 1.68802 14.6996 1.76641 14.4983 1.84481C14.1816 1.96731 13.8747 2.11186 13.5654 2.24905C13.0204 2.4916 12.4877 2.76599 11.9575 3.03794C11.6972 3.17024 11.4395 3.31233 11.1817 3.44953C11.0762 3.50588 10.9731 3.56713 10.8699 3.62593C10.7398 3.69943 10.6048 3.77292 10.4772 3.84887C9.43383 4.47851 8.40523 5.1351 7.44046 5.87988C6.96912 6.24492 6.49778 6.61487 6.05099 7.00931C5.81287 7.22001 5.57475 7.43315 5.34153 7.6512C5.25561 7.73204 5.16723 7.81289 5.08377 7.89864C4.96839 8.01624 4.84564 8.12649 4.73763 8.24898C4.32766 8.70712 3.92506 9.17262 3.57401 9.67731C3.22296 10.1771 2.89646 10.6916 2.57732 11.2134C2.2901 11.6863 2.00779 12.1689 1.76721 12.6662C1.61501 12.9798 1.47017 13.2959 1.34006 13.6193C1.22713 13.9035 1.13385 14.195 1.04056 14.4866C0.696876 15.5719 0.456297 16.6964 0.318823 17.8258C0.254996 18.1296 0.200988 18.4334 0.1568 18.7397C0.0978828 19.1268 0.0536947 19.5163 0.0266909 19.9083C-0.00522267 20.3664 -0.00522267 20.8246 0.00950668 21.2827C0.0389654 22.1304 0.178894 22.9658 0.414564 23.7817C0.475936 23.9948 0.544673 24.2055 0.623229 24.4138C0.674782 24.6416 0.736154 24.867 0.795072 25.0924C0.915362 25.5456 1.07002 25.994 1.26641 26.4178C1.44071 26.7902 1.69356 27.1259 1.95624 27.4394C2.23364 27.7702 2.5675 28.0446 2.91364 28.2994C3.10267 28.439 3.30397 28.5591 3.50773 28.6767C3.63784 28.7526 3.76549 28.8212 3.89805 28.8874C4.1239 28.9976 4.35221 29.1005 4.58542 29.1912C4.98803 29.3504 5.41272 29.4582 5.83742 29.5317C6.24984 29.6028 6.66963 29.642 7.08941 29.6469C7.52884 29.6542 7.96826 29.6003 8.39787 29.5146C8.79802 29.4337 9.18589 29.3014 9.56149 29.1446C9.99109 28.9633 10.406 28.7575 10.8012 28.5076C11.1523 28.2847 11.4812 28.0201 11.7832 27.731C12.0974 27.4297 12.3674 27.0891 12.6326 26.7461C12.8019 26.5281 12.9591 26.2978 13.1113 26.065C13.288 25.7931 13.4599 25.5187 13.6292 25.2394C13.7692 25.0066 13.9017 24.769 14.0368 24.5314C14.3412 23.9973 14.6259 23.4509 14.9082 22.9046C15.0457 22.6351 15.1758 22.3632 15.3059 22.0912C15.3599 21.9785 15.409 21.8609 15.4606 21.7458C15.5244 21.6012 15.5907 21.4567 15.6472 21.3072C15.711 21.1431 15.7724 20.9765 15.8362 20.8123C15.8853 20.6849 15.9197 20.5477 15.9614 20.4179C16.0547 20.1214 16.1381 19.825 16.2167 19.5261C16.5211 18.3942 16.7003 17.2379 16.8697 16.0815C16.9065 15.8365 16.9458 15.5915 16.9851 15.3465C17.0096 15.1995 17.044 15.0525 17.0735 14.908C17.1275 14.6458 17.2011 14.3935 17.2993 14.146C17.5448 13.5825 17.8418 13.0386 18.1683 12.5168C18.3696 12.1934 18.5636 11.87 18.7919 11.5662C18.9907 11.3212 19.2068 11.0909 19.4498 10.89C19.5627 10.7969 19.6756 10.7014 19.791 10.6083C20.1052 10.3755 20.4342 10.1771 20.7902 10.0178C21.1658 9.8684 21.561 9.7606 21.9562 9.67241C22.1011 9.64056 22.2484 9.60136 22.3957 9.57441C22.565 9.54501 22.7369 9.51316 22.9087 9.48376C23.0879 9.45926 23.2671 9.43476 23.4464 9.42006C23.7262 9.39801 24.0036 9.37841 24.281 9.36861C24.853 9.34656 25.4348 9.34411 26.0044 9.40536C26.2081 9.43721 26.4094 9.47641 26.6083 9.53276C26.623 9.53766 26.6377 9.54011 26.65 9.54501C26.7948 9.61116 26.9348 9.68221 27.0771 9.7557C27.3202 9.88555 27.5485 10.0374 27.7719 10.2016C28.2285 10.5666 28.6213 11.0003 28.9821 11.456C29.3258 11.9092 29.6499 12.3772 29.942 12.8671C30.1016 13.1317 30.2489 13.4061 30.3863 13.683C30.4256 13.7932 30.4649 13.9035 30.4993 14.0162C30.6245 14.418 30.7497 14.8198 30.8528 15.2264C30.9657 15.665 31.0737 16.1011 31.1719 16.5421C31.2554 16.9145 31.3167 17.2918 31.3757 17.6666C31.3953 17.8454 31.4149 18.0243 31.4346 18.2031C31.4468 18.3109 31.4468 18.4187 31.4517 18.5265C31.4567 18.6343 31.4616 18.7421 31.4689 18.8499C31.4738 18.9381 31.4665 19.0288 31.464 19.1145C31.4616 19.237 31.4591 19.3571 31.4591 19.4796C31.4567 19.5702 31.4444 19.6633 31.437 19.754C31.4297 19.8569 31.4198 19.9622 31.4125 20.0651C31.3977 20.1778 31.3806 20.2905 31.3658 20.4032C31.3486 20.5257 31.3241 20.6457 31.2996 20.7658C31.2455 21.0451 31.1866 21.3244 31.1081 21.5988C31.0614 21.758 31.0148 21.9197 30.9681 22.079C30.9289 22.2162 30.8773 22.3509 30.8282 22.4856C30.7447 22.7257 30.649 22.9585 30.5533 23.1937C30.4772 23.3578 30.4011 23.5195 30.325 23.6837C30.2489 23.8478 30.158 24.0071 30.0721 24.1688C29.9224 24.453 29.7407 24.7176 29.5566 24.9797C29.4608 25.0997 29.3675 25.2222 29.262 25.3349C29.1245 25.4844 28.987 25.6314 28.8471 25.7808C28.5894 26.0577 28.3144 26.3198 28.0419 26.582C27.519 27.0891 26.9618 27.5497 26.3922 28.0005C26.2425 28.1156 26.0903 28.2308 25.9381 28.3435C25.8301 28.4121 25.7245 28.4782 25.6165 28.5468C25.3563 28.7085 25.096 28.8751 24.8309 29.0295C24.5093 29.2157 24.1902 29.3994 23.8686 29.5856C23.6575 29.7081 23.4414 29.8208 23.2254 29.9335C22.9824 30.0609 22.7443 30.1981 22.4988 30.3181C22.1674 30.4798 21.8335 30.6391 21.5021 30.8008C21.0381 31.0262 20.5643 31.2344 20.093 31.4427C19.4915 31.7097 18.8876 31.9768 18.2837 32.2438C17.7412 32.4839 17.1987 32.7264 16.6561 32.969C16.3689 33.0964 16.089 33.2409 15.8043 33.3757C15.274 33.6305 14.7609 33.9122 14.2651 34.2258C13.5556 34.6742 12.8879 35.1984 12.2815 35.7791C11.9918 36.0559 11.7242 36.3524 11.464 36.6537C11.1989 36.9624 10.9534 37.2858 10.7276 37.6263C10.6195 37.7268 10.5164 37.8297 10.4158 37.935C10.2562 38.1041 10.1138 38.2878 9.97145 38.474C9.57131 38.9959 9.30372 39.5888 9.06314 40.1963C9.00668 40.3384 8.95022 40.4805 8.89376 40.6251C8.73664 41.0195 8.63109 41.4311 8.54025 41.8427C8.50834 41.9897 8.48625 42.1367 8.45924 42.2837C8.43224 42.4331 8.40769 42.5801 8.38805 42.7296C8.36596 42.9133 8.34632 43.0946 8.32422 43.2784C8.2874 43.6018 8.28004 43.9276 8.2874 44.2535C8.29476 44.7043 8.35614 45.1501 8.41014 45.596C8.44942 45.917 8.51816 46.2306 8.57708 46.5491C8.59917 46.6716 8.63845 46.7916 8.66791 46.9117C8.69982 47.0366 8.72928 47.164 8.76856 47.2865C8.82257 47.4531 8.87657 47.6172 8.93058 47.7838C8.97968 47.9357 9.04842 48.0827 9.10733 48.2322C9.20798 48.4894 9.316 48.7442 9.42401 48.999C9.65477 49.5478 9.87817 50.1015 10.1016 50.6552C10.3348 51.2358 10.5754 51.814 10.8282 52.3873C10.919 52.5906 11.0148 52.7915 11.1203 52.99C11.1351 53.0341 11.1473 53.0782 11.1621 53.1223C11.3339 53.6686 11.4984 54.2223 11.7144 54.754C11.7832 54.9254 11.8544 55.0969 11.9354 55.2611C12.0262 55.4473 12.1735 55.5747 12.3404 55.6923C12.4263 55.7511 12.5344 55.778 12.6326 55.8099C12.6915 55.8221 12.7504 55.8319 12.8093 55.8417C12.8928 55.854 12.9762 55.8662 13.0622 55.8736C13.3224 55.8981 13.5851 55.8858 13.8453 55.8736C13.995 55.8662 14.1423 55.8638 14.2921 55.854C14.6161 55.8295 14.9377 55.8025 15.2617 55.7658C15.6079 55.729 15.954 55.6751 16.3002 55.6261C16.5972 55.582 16.8942 55.5257 17.1913 55.4742C17.4466 55.4301 17.6995 55.3811 17.9523 55.3199C18.3721 55.217 18.7747 55.0651 19.1675 54.8887C19.5234 54.7295 19.8647 54.5408 20.1936 54.3326C20.4367 54.1782 20.665 54.0018 20.8933 53.823C21.1338 53.6343 21.3646 53.4408 21.5954 53.2399C21.804 53.061 22.0102 52.8699 22.2042 52.6739C22.3588 52.5171 22.5233 52.3628 22.6485 52.1815C22.7001 52.1056 22.7418 52.0345 22.7786 51.9488C22.7958 51.9071 22.813 51.8655 22.8302 51.8263C22.8498 51.7675 22.8621 51.7062 22.8695 51.645C22.8866 51.5372 22.8965 51.4294 22.8989 51.3216C22.9014 51.1917 22.8768 51.0594 22.8596 50.9296C22.8351 50.7532 22.7737 50.5841 22.7074 50.42C22.6313 50.2338 22.5479 50.0525 22.4546 49.8737C22.3515 49.6752 22.2336 49.4841 22.1183 49.293C21.9611 49.0333 21.8016 48.7761 21.6396 48.5213C21.3302 48.0362 21.0111 47.556 20.6969 47.0758C20.3704 46.576 20.0439 46.0762 19.7493 45.5568C19.629 45.3461 19.5136 45.1379 19.4056 44.9198C19.2534 44.6063 19.0987 44.2951 18.9588 43.9742C18.7207 43.3813 18.5808 42.7516 18.4703 42.1245C18.3893 41.6712 18.3034 41.218 18.2371 40.7623C18.2076 40.5099 18.1978 40.26 18.2199 40.0052C18.2444 39.8607 18.2813 39.7211 18.3304 39.5814C18.4605 39.2997 18.6274 39.04 18.814 38.7901C19.0619 38.4863 19.3369 38.2143 19.6437 37.9693C20.3679 37.4352 21.1903 37.0702 22.0078 36.7027C22.5086 36.4969 23.0094 36.2985 23.5175 36.1172C24.0846 35.9187 24.6517 35.7227 25.2163 35.5218C25.7785 35.3209 26.3407 35.1176 26.8979 34.902C27.6909 34.5982 28.4813 34.2822 29.2301 33.8755C29.4117 33.7775 29.5885 33.6697 29.7628 33.5619C29.9101 33.4712 30.0623 33.3781 30.2022 33.2752C30.3348 33.1797 30.4673 33.0841 30.5975 32.9861C30.8503 32.8024 31.1032 32.6186 31.3486 32.4251C31.8151 32.0552 32.2864 31.6877 32.7308 31.2932C32.9541 31.0948 33.1874 30.9037 33.3985 30.693C33.6071 30.4847 33.8256 30.2838 34.0196 30.0609C34.216 29.8331 34.4246 29.6126 34.6112 29.3774C34.8248 29.1079 35.0408 28.8408 35.247 28.5664C35.6054 28.0887 35.9712 27.6158 36.3173 27.1308C36.4229 26.9838 36.5285 26.8343 36.634 26.6873C36.7077 26.5844 36.7838 26.4864 36.8525 26.3811C37.0415 26.0846 37.2306 25.7906 37.4196 25.4942C37.4638 25.4256 37.5006 25.3545 37.5399 25.2859C37.6479 25.0948 37.7559 24.9013 37.8639 24.7102C37.9989 24.4701 38.1168 24.2227 38.2371 23.9728C38.3058 23.8307 38.3745 23.691 38.4433 23.5489C38.5096 23.4142 38.5611 23.2672 38.62 23.13C38.6986 22.9413 38.7771 22.7527 38.8557 22.564C38.8925 22.4734 38.9343 22.3852 38.9662 22.2921C39.0816 21.9589 39.1969 21.6257 39.3099 21.295C39.4056 21.0181 39.4743 20.7315 39.5431 20.4497C39.6511 20.0063 39.7346 19.5555 39.7984 19.1047C39.8868 18.4873 39.9457 17.865 39.9604 17.2403C39.9702 16.8728 39.9776 16.5053 39.9874 16.1354C39.9899 16.057 39.985 15.9786 39.9825 15.9002C39.985 15.687 39.98 15.469 39.9727 15.2509ZM16.445 14.2906C16.3787 14.5062 16.337 14.7291 16.2903 14.9472C16.2609 15.0892 16.2363 15.2289 16.2118 15.371C16.1676 15.6405 16.1283 15.91 16.0841 16.1795C15.9908 16.7626 15.9 17.3506 15.7675 17.9263C15.6938 18.2448 15.6177 18.5608 15.5342 18.8769C15.4557 19.1709 15.3673 19.46 15.2814 19.7515C15.2298 19.923 15.1709 20.092 15.112 20.2635C15.2004 19.7638 15.2838 19.2615 15.3698 18.7593C15.468 18.1737 15.576 17.5906 15.6914 17.01C15.7503 16.716 15.8092 16.422 15.8755 16.1305C15.9147 15.9565 15.954 15.7826 15.9933 15.6086C16.0792 15.224 16.1946 14.8467 16.3419 14.4817C16.3812 14.3935 16.4229 14.3077 16.4671 14.2195C16.4597 14.2465 16.4524 14.2685 16.445 14.2906ZM38.5685 17.2452C38.5562 17.7719 38.5169 18.2962 38.4506 18.8181C38.35 19.5188 38.1978 20.2072 37.9989 20.8858C37.9744 20.9691 37.9425 21.0524 37.9155 21.1357C37.8566 21.3121 37.7976 21.4885 37.7363 21.6674C37.6749 21.8511 37.6111 22.0275 37.5374 22.2064C37.4441 22.4391 37.3484 22.6694 37.2551 22.9021C37.125 23.179 36.9949 23.4558 36.8648 23.7327C36.7494 23.9777 36.6119 24.2129 36.4818 24.453C36.4205 24.5657 36.3615 24.6759 36.3002 24.7886C36.2412 24.8964 36.1701 24.9993 36.1038 25.1046C35.9589 25.3398 35.819 25.5824 35.6619 25.8127C35.3305 26.2953 34.9991 26.778 34.6578 27.2533C34.486 27.4933 34.3191 27.7359 34.1399 27.9711C33.9803 28.1818 33.8207 28.3925 33.6612 28.6032C33.5335 28.7551 33.4058 28.9094 33.2757 29.0613C33.18 29.174 33.0892 29.2867 32.9861 29.3921C32.8191 29.566 32.6522 29.74 32.4828 29.9139C32.3625 30.0388 32.2275 30.1515 32.0998 30.2691C31.7979 30.546 31.4886 30.813 31.1768 31.0801C30.9215 31.3006 30.6539 31.5064 30.3937 31.7195C30.2268 31.842 30.0598 31.967 29.8904 32.0895C29.8045 32.1532 29.7186 32.2169 29.6302 32.2806C29.4044 32.4471 29.1589 32.5941 28.9183 32.7387C28.5304 32.9714 28.1205 33.1772 27.7031 33.3536C27.5117 33.4345 27.3202 33.5153 27.1287 33.5962C26.5592 33.8142 25.9896 34.0298 25.4176 34.243C24.9046 34.4341 24.3841 34.6105 23.8686 34.7991C23.2696 35.0171 22.6682 35.2303 22.0814 35.4802C21.7991 35.6002 21.5168 35.7178 21.237 35.8477C20.9546 35.9775 20.6772 36.1123 20.3998 36.2519C20.2525 36.3279 20.1052 36.4014 19.9629 36.4798C19.5701 36.7003 19.2043 36.9551 18.8557 37.2368C18.5366 37.494 18.2616 37.7954 18.0137 38.1188C17.7584 38.4495 17.5374 38.7974 17.3779 39.187C17.2281 39.5496 17.1766 39.9391 17.1839 40.3286C17.1864 40.5369 17.2183 40.7451 17.2453 40.9509C17.2674 41.1224 17.2993 41.2939 17.3312 41.4654C17.3975 41.8207 17.4638 42.1759 17.5301 42.5287C17.6405 43.1265 17.7903 43.7218 18.0235 44.2829C18.1978 44.6969 18.3991 45.0987 18.5979 45.5005C18.7256 45.7602 18.8753 46.0101 19.0177 46.2624C19.1601 46.5148 19.3197 46.7573 19.4743 47.0023C19.818 47.5486 20.1789 48.0852 20.5324 48.6266C20.6969 48.879 20.8638 49.1338 21.016 49.3935C21.2615 49.8075 21.5193 50.2166 21.7157 50.6576C21.7795 50.8169 21.831 50.9737 21.8629 51.1427C21.8703 51.2432 21.8703 51.3436 21.8629 51.4441C21.858 51.4612 21.8556 51.4808 21.8482 51.498C21.831 51.5298 21.8139 51.5592 21.7942 51.5886C21.6813 51.7087 21.5561 51.8189 21.4358 51.9292C21.3401 52.0174 21.2394 52.1056 21.1388 52.1889C20.908 52.3848 20.6748 52.5759 20.4391 52.767C20.3041 52.8675 20.1666 52.9679 20.0316 53.0684C19.7935 53.2448 19.5333 53.3942 19.2755 53.5388C19.0496 53.6637 18.8164 53.7764 18.5783 53.8793C18.2984 53.9896 18.0161 54.0802 17.724 54.1537C17.4711 54.2199 17.2109 54.2615 16.9532 54.3032C16.7494 54.3375 16.5457 54.3693 16.3419 54.4036C16.3493 54.4012 16.3566 54.3987 16.364 54.3963C16.6488 54.3056 16.9311 54.2125 17.2109 54.1121C17.368 54.0557 17.5252 54.0043 17.6798 53.943C17.7854 53.9014 17.8909 53.8573 17.9965 53.8156C18.0628 53.7887 18.134 53.7642 18.2003 53.7323C18.3598 53.6539 18.5218 53.5755 18.6814 53.4947C18.8336 53.4212 18.976 53.3305 19.1233 53.2472C19.4277 53.0782 19.7247 52.8969 20.0144 52.7058C20.1322 52.6298 20.1813 52.4804 20.1077 52.353C20.039 52.2354 19.8745 52.1864 19.7542 52.2599C19.4596 52.4412 19.1552 52.6127 18.8459 52.7719C18.6961 52.8503 18.5488 52.9361 18.3966 53.0047C18.2469 53.0733 18.0947 53.1419 17.9449 53.2105C17.6626 53.3158 17.3828 53.4163 17.098 53.5118C16.8402 53.6 16.58 53.6833 16.3173 53.7617C15.6177 53.9749 14.9132 54.1929 14.1865 54.2983C13.8919 54.3326 13.5973 54.3497 13.3027 54.3228C13.2168 54.3081 13.1309 54.2909 13.0474 54.2664C13.018 54.1782 12.9885 54.0876 12.9591 53.9994C12.8707 53.7299 12.7823 53.4604 12.6964 53.1909C12.5196 52.6445 12.3502 52.0933 12.1882 51.5421C11.8445 50.371 11.5303 49.1926 11.2284 48.0117C11.0884 47.4678 10.9608 46.919 10.8307 46.3727C10.7717 46.1277 10.7251 45.8802 10.6736 45.6352C10.5803 45.1893 10.4919 44.7435 10.4281 44.2951C10.3814 43.9105 10.352 43.5258 10.3446 43.1363C10.3372 42.7565 10.3642 42.3792 10.4084 42.0044C10.5361 41.1641 10.7865 40.3458 11.1105 39.5618C11.3781 38.9469 11.6972 38.3564 12.09 37.8101C12.2766 37.6655 12.4632 37.521 12.6571 37.3863C12.9124 37.205 13.1726 37.031 13.4353 36.8571C13.9361 36.5263 14.4565 36.2299 14.9794 35.9359C16.0031 35.3577 17.0072 34.7403 18.026 34.1499C19.0472 33.5545 20.0782 32.9739 21.1044 32.3884C21.5978 32.1066 22.0814 31.8126 22.57 31.5235C22.6362 31.4843 22.7001 31.4451 22.7663 31.4084C22.9726 31.3104 23.1739 31.2099 23.3752 31.1021C23.6771 30.9429 23.9791 30.7812 24.2835 30.6219C24.3694 30.5754 24.4529 30.5239 24.5363 30.4774C24.7303 30.3671 24.9267 30.2544 25.1206 30.1442C25.5895 29.8747 26.0534 29.593 26.5125 29.3063C26.7605 29.152 27.0109 29.0001 27.2539 28.8384C27.5485 28.6424 27.8431 28.4464 28.1352 28.2528C28.4396 28.0519 28.7293 27.8265 29.014 27.6036C29.3455 27.3464 29.6572 27.0622 29.9592 26.7706C30.5803 26.1728 31.1302 25.4991 31.5892 24.7715C31.8077 24.4236 31.9894 24.0561 32.1489 23.6763C32.3134 23.2843 32.4288 22.8825 32.5196 22.4685C32.6129 22.0447 32.6645 21.6086 32.7087 21.1749C32.7381 20.8932 32.7627 20.609 32.7651 20.3248C32.77 19.9744 32.7749 19.6241 32.7798 19.2738C32.7798 19.1831 32.77 19.09 32.7627 18.9994C32.7504 18.7838 32.7357 18.5682 32.7234 18.3526C32.7062 18.0855 32.6718 17.8234 32.6375 17.5588C32.6154 17.3824 32.5933 17.2085 32.5712 17.0321C32.5294 16.7013 32.4705 16.3755 32.4043 16.0496C32.2324 15.2093 31.9354 14.4033 31.5819 13.6242C31.4297 13.291 31.2627 12.9676 31.0835 12.6491C31.0614 12.5976 31.0369 12.5437 31.0123 12.4947C30.9387 12.3478 30.8675 12.2008 30.7938 12.0538C30.7276 11.9215 30.6515 11.7965 30.5803 11.6667C30.3912 11.3286 30.1678 11.0052 29.9273 10.6989C29.4265 10.057 28.8054 9.51561 28.0886 9.12852C28.0591 9.11137 28.0296 9.09667 27.9977 9.08197C27.8971 9.01827 27.794 8.95702 27.6909 8.89822C27.3128 8.68508 26.9077 8.51603 26.5051 8.35678C25.7073 8.03829 24.8555 7.86924 23.9987 7.80064C23.5716 7.76634 23.1419 7.79574 22.7197 7.85454C22.3024 7.91089 21.8924 8.00889 21.4923 8.13874C20.6895 8.39843 19.953 8.81982 19.2681 9.30981C18.733 9.69201 18.2199 10.1158 17.778 10.6034C17.6454 10.7504 17.5129 10.8949 17.3803 11.0419C17.3165 11.1105 17.2551 11.1791 17.1962 11.2526C16.99 11.5148 16.7838 11.7745 16.5776 12.0366C16.3296 12.3502 16.1038 12.6809 15.8902 13.0166C15.6496 13.3963 15.436 13.7883 15.2691 14.2048C15.1979 14.3788 15.1341 14.5552 15.0776 14.734C15.0163 14.9276 14.9696 15.126 14.9205 15.3244C14.8812 15.4812 14.8518 15.6405 14.815 15.7997C14.5523 16.9855 14.3633 18.1884 14.1767 19.3889C14.1399 19.6241 14.1006 19.8593 14.0613 20.0969C14.0171 20.3615 13.9803 20.631 13.9238 20.8932C13.8526 21.2288 13.779 21.5645 13.7078 21.9001C13.6415 22.2064 13.5458 22.5101 13.4525 22.809C13.3445 23.1545 13.2193 23.495 13.0793 23.8282C12.7799 24.5167 12.4165 25.1708 11.9648 25.7735C11.6334 26.19 11.2676 26.5673 10.8528 26.898C10.4845 27.17 10.0893 27.3978 9.6695 27.5815C9.17607 27.78 8.66545 27.9123 8.14011 27.9931C7.41591 28.0813 6.67945 28.0862 5.95525 27.998C5.40781 27.9172 4.87265 27.7898 4.35957 27.584C3.96434 27.4076 3.59365 27.1896 3.24751 26.9299C2.89891 26.6481 2.58714 26.3296 2.30728 25.9817C2.27292 25.9352 2.23855 25.8911 2.20663 25.8445C2.18209 25.7955 2.15999 25.7465 2.1379 25.6975C2.00779 25.3717 1.90714 25.036 1.81631 24.698C1.74266 24.4285 1.67392 24.1565 1.61992 23.8821C1.51435 23.3382 1.42843 22.7919 1.34742 22.2431C1.30814 21.9344 1.26641 21.6257 1.24923 21.3146C1.22959 20.9397 1.21977 20.5673 1.22959 20.1949C1.23941 19.8103 1.25905 19.4281 1.2836 19.0459C1.30569 18.7078 1.34497 18.3697 1.38425 18.0341C1.48244 17.3383 1.59537 16.645 1.77457 15.9639C1.87031 15.5988 1.97096 15.2338 2.0888 14.8737C2.12317 14.7659 2.15999 14.6581 2.19681 14.5503C2.25328 14.4474 2.31219 14.3469 2.37111 14.244C2.41285 14.1705 2.41776 14.0872 2.39321 14.0113C2.4153 13.9574 2.43739 13.901 2.45949 13.8471C2.61169 13.5262 2.7688 13.2101 2.94065 12.9014C3.1174 12.5805 3.30888 12.2669 3.50282 11.9558C3.86123 11.38 4.24419 10.8214 4.64434 10.2751C4.84319 10.0252 5.04449 9.7753 5.26297 9.54256C5.5281 9.26081 5.79323 8.97907 6.08291 8.72182C6.3824 8.45478 6.68436 8.19264 6.98876 7.93539C7.25144 7.7149 7.52393 7.5042 7.79642 7.2935C8.01 7.13671 8.22112 6.97501 8.43715 6.82311C8.70228 6.63692 8.96741 6.45562 9.23744 6.27677C9.70878 5.96563 10.1875 5.66184 10.676 5.37764C11.221 5.0616 11.7684 4.7578 12.3257 4.46626C12.8731 4.18207 13.4255 3.91502 13.9827 3.65288C14.2528 3.52548 14.5302 3.41033 14.8051 3.29028C15.085 3.18249 15.3673 3.07714 15.6472 2.96934C15.738 2.93504 15.8313 2.90809 15.9246 2.87869C16.1087 2.81989 16.2953 2.76109 16.4794 2.69985C16.7568 2.61165 17.0391 2.53815 17.3189 2.4573C17.589 2.3789 17.8615 2.30785 18.134 2.23681C18.6544 2.09716 19.1773 1.96486 19.7051 1.86196C19.9039 1.82276 20.1028 1.78601 20.3016 1.74681C20.3851 1.72967 20.4686 1.71252 20.552 1.70272C20.8172 1.66597 21.0823 1.63167 21.345 1.59492C21.6592 1.57287 21.9759 1.55082 22.2901 1.52877C22.3637 1.52387 22.4349 1.52387 22.5086 1.52387C22.5258 1.52387 22.543 1.52387 22.5626 1.52387C22.5724 1.52387 22.5798 1.52387 22.5896 1.52387C22.7762 1.52387 22.9652 1.52142 23.1518 1.52142C23.2622 1.52142 23.3727 1.53122 23.4832 1.53612C23.6575 1.54347 23.8293 1.55082 24.0012 1.55817C24.1264 1.56307 24.2516 1.58267 24.3768 1.59492C24.5118 1.60717 24.6468 1.62187 24.7818 1.63412C25.0101 1.66842 25.236 1.70272 25.4643 1.73947C25.5355 1.74926 25.6067 1.76886 25.6778 1.78356C25.8546 1.82276 26.0289 1.85951 26.2057 1.89626C26.4438 1.94771 26.677 2.01386 26.9102 2.07511C27.1557 2.13881 27.3987 2.21476 27.6442 2.2858C28.0935 2.4181 28.5378 2.56755 28.9748 2.73415C29.2104 2.82479 29.451 2.91054 29.6842 3.00854C29.9052 3.09919 30.1261 3.19229 30.3446 3.28293C30.595 3.39318 30.8454 3.50098 31.0958 3.61123C31.3486 3.72148 31.5941 3.85377 31.8396 3.97627C32.0802 4.09387 32.3061 4.23842 32.5368 4.37316C32.9836 4.63531 33.4157 4.9195 33.8281 5.23065C34.1423 5.48054 34.4467 5.74268 34.7339 6.02688C35.0482 6.33802 35.3428 6.67122 35.6177 7.01911C35.8828 7.3719 36.1234 7.73939 36.3468 8.11914C36.4916 8.36658 36.6316 8.61648 36.7543 8.87617C36.9065 9.19712 37.0612 9.51806 37.2134 9.839C37.2993 10.0595 37.3877 10.28 37.4736 10.5005C37.5522 10.6989 37.6209 10.8949 37.6896 11.0983C37.7903 11.3947 37.8934 11.6887 37.9842 11.9876C38.1929 12.6687 38.3647 13.362 38.4678 14.0652C38.5194 14.4964 38.5415 14.93 38.5562 15.3636C38.5636 15.5621 38.5685 15.7605 38.5758 15.9614C38.5783 16.0325 38.5832 16.1035 38.5808 16.1746C38.5832 16.5225 38.5758 16.8826 38.5685 17.2452Z" fill="white"/>
<path d="M16.3319 67.736C16.4031 67.9002 16.4841 68.0545 16.5799 68.204C17.3654 69.4241 18.8678 69.9679 20.2671 69.9973C20.6083 70.0047 20.9496 69.9606 21.2834 69.9091C21.6369 69.8528 21.9831 69.7548 22.3169 69.6323C23.0092 69.3775 23.6426 69.0051 24.2244 68.5568C24.4822 68.3583 24.7326 68.1476 24.9609 67.9149C25.2162 67.6552 25.4445 67.3636 25.636 67.0525C25.8127 66.7683 25.9453 66.4547 26.0607 66.1436C26.1834 65.8104 26.262 65.4625 26.3184 65.1121C26.4338 64.3845 26.4313 63.6544 26.343 62.9243C26.3012 62.5813 26.2472 62.2408 26.1687 61.9051C26.0827 61.545 25.9649 61.1971 25.8201 60.8566C25.6949 60.5577 25.5451 60.2759 25.361 60.0113C25.1523 59.7124 24.9093 59.4331 24.6491 59.1759C24.1483 58.6786 23.5395 58.2915 22.8546 58.1151C22.5894 58.0465 22.3169 58.0195 22.042 58.0195C21.9708 58.0195 21.8996 58.022 21.8284 58.0244C21.4602 58.044 21.0895 58.1102 20.7335 58.2082C20.056 58.3944 19.4054 58.681 18.8335 59.0877C18.5561 59.2862 18.2958 59.5066 18.0577 59.7516C17.795 60.0187 17.5643 60.32 17.3532 60.6287C17.169 60.8933 17.0119 61.1751 16.8745 61.4666C16.7124 61.8023 16.575 62.155 16.4743 62.5152C16.381 62.8459 16.3319 63.1914 16.2926 63.5344C16.2779 63.6814 16.2681 63.8284 16.2681 63.9754C16.2509 64.044 16.2337 64.115 16.2165 64.1836C16.0594 64.8622 15.9711 65.5703 16.0054 66.2661C16.0201 66.5968 16.0692 66.9349 16.1552 67.2558C16.1994 67.4224 16.2632 67.5817 16.3319 67.736ZM22.3194 59.0755C22.5232 59.1122 22.722 59.1637 22.9159 59.2372C23.1344 59.3376 23.3357 59.465 23.5297 59.6046C23.8316 59.8496 24.1017 60.1314 24.3447 60.4327C23.8611 60.0922 23.3284 59.8374 22.7809 59.612C22.5723 59.5263 22.3562 59.4503 22.1402 59.3915C22.1353 59.3009 22.096 59.2151 22.0297 59.149C21.9954 59.1147 21.9487 59.0828 21.8972 59.0608C22.0371 59.0583 22.177 59.0608 22.3194 59.0755ZM17.6551 64.4604C17.7926 64.382 17.8736 64.2596 17.9227 64.1126C17.989 63.919 18.0651 63.7304 18.1436 63.5417C18.2271 63.3531 18.3106 63.1669 18.394 62.9782C18.5929 62.5299 18.8212 62.0962 19.1133 61.7018C19.3392 61.4176 19.5847 61.1457 19.867 60.9154C20.0609 60.7782 20.2647 60.6606 20.4807 60.5626C20.6722 60.4891 20.8661 60.4376 21.0674 60.4009C21.2343 60.3837 21.4013 60.3813 21.5682 60.396C21.9929 60.4695 22.4004 60.5993 22.7981 60.7635C23.1737 60.9301 23.5444 61.1236 23.8783 61.3637C24.0845 61.5303 24.2784 61.7092 24.4478 61.9125C24.5853 62.106 24.7031 62.3094 24.8013 62.525C24.9339 62.8655 25.0296 63.2232 25.0861 63.5834C25.1131 63.8431 25.1204 64.1028 25.0934 64.3625C25.0591 64.5584 25.01 64.7471 24.9412 64.9333C24.8602 65.1072 24.7645 65.2689 24.654 65.4257C24.4331 65.7001 24.1876 65.95 23.9372 66.1975C23.6573 66.4743 23.3627 66.7389 23.0559 66.9839C22.6582 67.2803 22.2261 67.5229 21.772 67.7238C21.4037 67.8708 21.0232 67.9884 20.6329 68.0521C20.3678 68.0815 20.1075 68.0913 19.8424 68.0668C19.6338 68.0325 19.4324 67.9786 19.2336 67.9026C19.047 67.8144 18.8752 67.7091 18.7083 67.5866C18.5119 67.4273 18.3327 67.2534 18.1731 67.0574C17.9988 66.8124 17.8638 66.5454 17.7435 66.271C17.5446 65.7785 17.3998 65.264 17.3212 64.7397C17.3139 64.6711 17.3065 64.605 17.3016 64.5364C17.4243 64.5511 17.5495 64.5241 17.6551 64.4604Z" fill="white"/>
</g>
<defs>
<clipPath id="clip0_2183_2723">
<rect width="40" height="70" fill="white"/>
</clipPath>
</defs>
</svg>
